<svg width="62" height="62" viewBox="0 0 62 62" fill="none" xmlns="http://www.w3.org/2000/svg">
<circle cx="31" cy="31" r="31" fill="#54A5FF"/>
<path d="M20 39.873V22.1136M43 28.1006C43 30.4336 37.8907 32.307 31.5 32.307C25.1093 32.307 20 30.4399 20 28.107M43 33.9001C43 36.233 37.8914 38.1001 31.5 38.1001C25.1086 38.1001 20 36.2337 20 33.9001M20.0007 39.8801C20.0007 42.1266 25.1086 44 31.5 44C37.8914 44 43 42.1266 43 39.8801V22.1136M43 22.1199C43 24.4529 37.8907 26.32 31.5 26.32C25.1093 26.32 20 24.4536 20 22.1199C20.1825 19.8734 25.2067 18 31.4088 18C37.7089 18 42.8175 19.8664 43 22.1199Z" stroke="white" stroke-width="2" stroke-linecap="round" stroke-linejoin="round"/>
</svg>
