<svg width="62" height="62" viewBox="0 0 62 62" fill="none" xmlns="http://www.w3.org/2000/svg">
<circle cx="31" cy="31" r="31" fill="#FF9300"/>
<path d="M22.266 27.6828C22.266 28.1749 22.3193 28.5738 22.4123 28.8664C22.5305 29.1955 22.6726 29.5155 22.8378 29.8237C22.9043 29.93 22.9308 30.0364 22.9308 30.1296C22.9308 30.2624 22.8511 30.3955 22.6782 30.5285L21.8406 31.0869C21.7209 31.1667 21.6012 31.2066 21.4947 31.2066C21.3618 31.2066 21.2288 31.1401 21.0958 31.0204C20.9165 30.828 20.7562 30.6187 20.6172 30.3955C20.4842 30.1696 20.3512 29.9167 20.205 29.611C19.1677 30.8342 17.8646 31.4459 16.2956 31.446C15.1788 31.446 14.2878 31.1267 13.6362 30.4886C12.9847 29.8502 12.6523 28.9992 12.6523 27.9355C12.6523 26.8053 13.0512 25.8878 13.8624 25.1964C14.6734 24.5049 15.7505 24.1592 17.1201 24.1592C17.5722 24.1592 18.0376 24.1991 18.5295 24.2656C19.0216 24.3321 19.5269 24.4384 20.0588 24.5581V23.5875C20.0588 22.5768 19.8459 21.8722 19.4337 21.4599C19.0083 21.0477 18.2901 20.8482 17.2663 20.8482C16.8009 20.8482 16.3223 20.9015 15.8302 21.0212C15.3381 21.1409 14.8596 21.2871 14.3941 21.4733C14.1814 21.5663 14.0219 21.6195 13.9287 21.6461C13.8356 21.6728 13.7692 21.686 13.716 21.686C13.5298 21.686 13.4368 21.5529 13.4368 21.2737V20.6221C13.4368 20.4094 13.4635 20.2499 13.5298 20.1569C13.5963 20.0637 13.716 19.9707 13.9022 19.8776C14.3676 19.6382 14.926 19.4387 15.5775 19.2792C16.2293 19.1064 16.9207 19.0267 17.652 19.0267C19.2345 19.0267 20.3913 19.3856 21.136 20.1037C21.8672 20.8216 22.2396 21.912 22.2396 23.3747V27.6828H22.266ZM16.8674 29.704C17.3063 29.704 17.7584 29.6243 18.237 29.4646C18.7157 29.3051 19.1413 29.0125 19.5002 28.6136C19.713 28.3611 19.8726 28.0819 19.9523 27.7627C20.0321 27.4436 20.0853 27.0579 20.0853 26.6058V26.0474C19.682 25.9493 19.2736 25.8738 18.8619 25.8213C18.4474 25.7687 18.0299 25.7421 17.612 25.7415C16.721 25.7415 16.0696 25.9144 15.6309 26.2734C15.1921 26.6325 14.9792 27.1377 14.9792 27.8025C14.9792 28.4275 15.1388 28.8929 15.4712 29.2121C15.7904 29.5445 16.2558 29.704 16.8674 29.704ZM27.5449 31.1401C27.3055 31.1401 27.146 31.1002 27.0396 31.0071C26.9333 30.9274 26.8401 30.7412 26.7604 30.4886L23.6357 20.21C23.5557 19.944 23.5159 19.7711 23.5159 19.6781C23.5159 19.4654 23.6222 19.3456 23.8351 19.3456H25.1381C25.3907 19.3456 25.5637 19.3856 25.6567 19.4786C25.7631 19.5584 25.8429 19.7446 25.9226 19.9972L28.1565 28.7998L30.2309 19.9972C30.2974 19.7313 30.3772 19.5584 30.4834 19.4786C30.5899 19.3989 30.7761 19.3457 31.0155 19.3457H32.0792C32.3317 19.3457 32.5047 19.3856 32.6109 19.4786C32.7174 19.5584 32.8105 19.7446 32.8636 19.9972L34.9647 28.9062L37.2649 19.9972C37.3446 19.7313 37.4378 19.5584 37.5308 19.4786C37.6371 19.3989 37.81 19.3457 38.0494 19.3457H39.2859C39.4988 19.3457 39.6185 19.4521 39.6185 19.6781C39.6185 19.7446 39.6051 19.8111 39.5918 19.8908C39.5785 19.9705 39.552 20.077 39.4988 20.2234L36.2941 30.5018C36.2144 30.7678 36.1213 30.9407 36.0149 31.0204C35.9085 31.1002 35.7356 31.1534 35.5098 31.1534H34.3662C34.1135 31.1534 33.9407 31.1136 33.8342 31.0204C33.7278 30.9274 33.6348 30.7545 33.5816 30.4886L31.5204 21.912L29.4727 30.4751C29.4064 30.7412 29.3265 30.914 29.2202 31.0071C29.1138 31.1002 28.9276 31.1401 28.6884 31.1401H27.5449ZM44.6315 31.4991C43.94 31.4991 43.2486 31.4193 42.5838 31.2598C41.9189 31.1002 41.4004 30.9272 41.0547 30.728C40.8418 30.6082 40.6955 30.4753 40.6425 30.3556C40.5908 30.2382 40.5636 30.1115 40.5626 29.9832V29.3051C40.5626 29.0259 40.669 28.8929 40.8685 28.8929C40.9499 28.8932 41.0308 28.9067 41.1079 28.9329C41.1876 28.9595 41.3072 29.0125 41.4403 29.0657C41.9099 29.2724 42.4002 29.4284 42.9029 29.5311C43.4237 29.6367 43.9538 29.6902 44.4853 29.6907C45.3229 29.6907 45.9745 29.5445 46.4266 29.2519C46.8787 28.9594 47.1181 28.534 47.1181 27.9887C47.1181 27.6165 46.9984 27.3106 46.759 27.0579C46.5196 26.8052 46.0676 26.5793 45.4161 26.3664L43.488 25.7682C42.5173 25.4623 41.7993 25.0102 41.3604 24.4118C40.9217 23.8267 40.6956 23.1752 40.6956 22.4838C40.6956 21.9253 40.8153 21.4333 41.0547 21.0077C41.2939 20.5823 41.6131 20.21 42.012 19.9175C42.4109 19.6116 42.863 19.3856 43.3949 19.226C43.9267 19.0665 44.4851 19 45.0702 19C45.3628 19 45.6687 19.0133 45.9612 19.0532C46.2671 19.093 46.5463 19.1462 46.8255 19.1994C47.0914 19.2659 47.3441 19.3324 47.5835 19.4122C47.8228 19.4919 48.0089 19.5717 48.1419 19.6515C48.3281 19.758 48.461 19.8643 48.5408 19.984C48.6206 20.0904 48.6605 20.2366 48.6605 20.4227V21.0477C48.6605 21.3269 48.5541 21.4733 48.3546 21.4733C48.2483 21.4733 48.0754 21.4199 47.8495 21.3136C47.0914 20.9678 46.2403 20.795 45.2964 20.795C44.5385 20.795 43.94 20.9147 43.5278 21.1674C43.1157 21.4199 42.9029 21.8056 42.9029 22.3507C42.9029 22.7231 43.0359 23.0422 43.3018 23.2949C43.5676 23.5476 44.0597 23.8002 44.7645 24.0262L46.6527 24.6246C47.61 24.9305 48.3014 25.3559 48.7137 25.901C49.1259 26.4461 49.3254 27.0712 49.3254 27.7627C49.3254 28.3344 49.2056 28.853 48.9796 29.3051C48.7403 29.7572 48.4211 30.1561 48.0089 30.4753C47.5967 30.8077 47.1047 31.0471 46.533 31.2199C45.9345 31.4061 45.3096 31.4991 44.6315 31.4991Z" fill="white"/>
<path d="M47.1453 37.9609C42.7707 41.1921 36.4146 42.9074 30.9497 42.9074C23.2906 42.9074 16.3895 40.0751 11.1772 35.3679C10.7649 34.9957 11.1372 34.4904 11.6291 34.7828C17.267 38.0541 24.2214 40.0352 31.4151 40.0352C36.2684 40.0352 41.6005 39.0247 46.5072 36.9504C47.2385 36.6178 47.8634 37.4291 47.1453 37.9609ZM48.9671 35.8865C48.4087 35.1686 45.2705 35.5408 43.8477 35.7137C43.4222 35.767 43.3557 35.3946 43.7414 35.1154C46.2412 33.3601 50.35 33.8655 50.8286 34.4504C51.3074 35.0489 50.6956 39.1576 48.3554 41.1256C47.9965 41.4315 47.6507 41.2719 47.8103 40.873C48.342 39.5565 49.5255 36.5913 48.9671 35.8865Z" fill="white"/>
</svg>
