<svg width="62" height="62" viewBox="0 0 62 62" fill="none" xmlns="http://www.w3.org/2000/svg">
<circle cx="31" cy="31" r="31" fill="#257AA1"/>
<path d="M23.1337 35.3461L24.3732 39.3681C24.6518 40.2813 24.7679 40.9188 24.7214 41.2821C25.3993 39.4664 25.873 37.4877 26.1425 35.3461H27.633C26.9921 38.8327 26.1469 41.3663 25.0976 42.9469C24.28 44.1648 23.3845 44.7738 22.4092 44.7738C22.1492 44.7738 21.8286 44.6953 21.4482 44.5393V43.6988C21.6341 43.7261 21.8521 43.7406 22.1029 43.7406C22.5578 43.7405 22.9247 43.6146 23.2035 43.3629C23.5376 43.0562 23.7048 42.7116 23.7048 42.3296C23.7048 42.0688 23.5744 41.5335 23.3147 40.7238L21.5876 35.3461H23.1337ZM13.6467 32.874L15.9171 39.8013H15.9311L18.2155 32.874H20.0819C20.4906 36.3095 20.732 39.4528 20.806 42.302H19.2325C19.1771 39.6386 19.0239 37.134 18.773 34.788H18.7593L16.3632 42.302H15.1649L12.7832 34.788H12.7692C12.5926 37.0411 12.4812 39.5457 12.4349 42.302H11C11.0927 38.9497 11.3248 35.8073 11.6962 32.874H13.6467Z" fill="#FBFBFB"/>
<path d="M39.0823 32.7345C41.5246 32.7345 42.7458 34.2948 42.7458 37.4139C42.7458 39.1088 42.3785 40.3891 41.6447 41.254C41.5125 41.4121 41.3663 41.5486 41.2124 41.6751L42.9407 42.5297L42.939 42.5296L42.3254 43.5893L40.0746 42.276C39.7015 42.3865 39.2912 42.4417 38.8437 42.4417C37.6446 42.4417 36.7488 42.0922 36.1566 41.3941C35.5065 40.6219 35.1817 39.4061 35.1817 37.7489C35.1817 36.0635 35.5483 34.7881 36.2823 33.9221C36.9508 33.1299 37.8843 32.7345 39.0823 32.7345ZM31.6034 32.7481C32.4763 32.7481 33.27 32.9817 33.9849 33.4471L33.6218 34.2563C33.0101 33.9963 32.4069 33.8657 31.8122 33.8657C31.3296 33.8657 30.9577 33.9818 30.6985 34.2156C30.4378 34.4472 30.2766 34.7453 30.2766 35.1088C30.2766 35.6672 30.6744 36.1515 31.409 36.5607C31.6496 36.6922 31.8895 36.8253 32.1284 36.9599L32.1832 36.9907L32.2107 37.0061L32.2656 37.037L32.293 37.0524L32.3478 37.0833C32.9039 37.3968 33.4271 37.696 33.4271 37.696C34.1616 38.2174 34.5278 38.7733 34.5278 39.6889C34.5278 40.4885 34.2348 41.1449 33.6507 41.6585C33.0662 42.1697 32.2809 42.4261 31.2975 42.4261C30.3778 42.4261 29.4864 42.131 28.623 41.5458L29.0269 40.7359C29.77 41.1084 30.4423 41.2944 31.0461 41.2944C31.6124 41.2944 32.0556 41.168 32.3763 40.9183C32.6963 40.6668 32.888 40.316 32.888 39.8713C32.888 39.3115 32.4986 38.8329 31.7843 38.4315C31.5607 38.308 31.3378 38.1832 31.1155 38.0573L31.0608 38.0263C30.9602 37.9695 30.859 37.912 30.7598 37.8557L30.706 37.8251C30.2237 37.5507 29.8066 37.311 29.8066 37.311C29.0925 36.7887 28.7344 36.2282 28.7344 35.3047C28.7344 34.541 29.0015 33.9237 29.5347 33.4541C30.0693 32.9834 30.7589 32.7481 31.6034 32.7481ZM45.616 32.8743V41.1425H48.5825V42.3022H44.1115V32.8743L45.616 32.8743ZM50.231 41.1461V41.342H49.9048V42.3012H49.6555V41.342H49.3166V41.1461H50.231ZM50.8332 41.1461L51.1464 41.9335L51.434 41.1461H51.7875V42.3012H51.5525V41.4221L51.2251 42.3012H51.0556L50.7277 41.4221H50.7151V42.3012H50.4927V41.1461H50.8332ZM38.9287 33.8939C37.4895 33.8939 36.7695 35.0817 36.7695 37.4557C36.7695 38.8156 36.9603 39.8016 37.3412 40.4162C37.6939 40.9851 38.2464 41.2689 38.9987 41.2689C40.4379 41.2689 41.1578 40.0719 41.1578 37.6789C41.1578 36.3381 40.967 35.3604 40.5866 34.7455C40.2335 34.178 39.6813 33.8939 38.9288 33.8939" fill="#F29111"/>
<path d="M35.1576 17.5842C35.6351 16.411 37.3044 17.2995 37.9523 17.7093C38.111 17.8118 38.2932 18.0284 38.4752 18.1085C38.7592 18.1196 39.043 18.1418 39.3274 18.1537C39.861 18.2791 40.3608 18.3815 40.7813 18.621C42.7353 19.7718 44.0073 20.9444 45.178 22.8814C45.4281 23.2917 45.5531 23.7356 45.7575 24.1796C46.0411 24.8414 46.3597 25.536 46.6889 26.1618C46.8363 26.4585 46.9503 26.7884 47.1549 27.0389C47.2348 27.1535 47.4618 27.1872 47.5975 27.2557C47.9725 27.4498 48.4269 27.5972 48.7797 27.825C49.4384 28.2358 50.0754 28.7252 50.6544 29.2263C50.8702 29.4198 51.0172 29.6936 51.2228 29.8981V30.0014C51.0403 30.0574 50.8585 30.1147 50.6764 30.1607C50.2788 30.2628 49.9266 30.2397 49.5409 30.3419C49.3025 30.4111 49.0066 30.5023 48.7566 30.5255L48.7797 30.5488C48.9268 30.969 49.7224 31.3107 50.0863 31.5621C50.5283 31.8811 50.9379 32.2679 51.2675 32.7122C51.3814 32.8256 51.4952 32.9287 51.6085 33.0418C51.6877 33.1563 51.71 33.3045 51.7901 33.4066V33.4412C51.7014 33.4099 51.6376 33.3502 51.5771 33.2877L51.541 33.25C51.5049 33.2126 51.4685 33.1758 51.427 33.1454C51.1762 32.9741 50.9272 32.7692 50.6764 32.61C50.2453 32.3364 49.7452 32.1777 49.3025 31.903C49.0522 31.7436 48.8136 31.5621 48.575 31.3797C48.3587 31.2198 48.1205 30.9127 47.9846 30.6849C47.9046 30.559 47.8936 30.4111 47.8021 30.32C47.8185 30.168 47.9578 30.1228 48.0984 30.0857L48.1307 30.0771C48.1793 30.0646 48.2267 30.052 48.2682 30.0353C48.8588 29.7845 49.563 29.6936 50.4722 29.7163C50.438 29.488 49.8698 29.2035 49.6884 29.0668C49.3244 28.8044 48.9389 28.5306 48.5526 28.2918C48.348 28.1667 47.9953 28.0754 47.7686 27.9732C47.4618 27.8478 46.78 27.7225 46.61 27.4837C46.3212 27.1072 46.1137 26.6581 45.9123 26.2045L45.8575 26.0807L45.8026 25.957C45.5645 25.4107 45.2688 24.8412 45.0302 24.2819C44.9055 24.009 44.8482 23.7696 44.7116 23.5079C43.8825 21.902 42.6554 20.5575 41.1677 19.612C40.6788 19.3043 40.1336 19.0196 39.5319 18.8261C39.1908 18.7231 38.7815 18.78 38.4181 18.701H38.179C37.9749 18.6435 37.8045 18.4271 37.6452 18.313C37.2935 18.0742 36.9413 17.9138 36.5206 17.7434C36.3732 17.6751 35.9524 17.5159 35.8055 17.6412C35.7145 17.6641 35.6684 17.6984 35.646 17.7897C35.5555 17.9259 35.6351 18.1312 35.6914 18.2568C35.862 18.6209 36.1004 18.8372 36.3168 19.1449C36.5092 19.4177 36.7483 19.7254 36.8848 20.0221C37.1792 20.6598 37.3163 21.3663 37.5892 22.004C37.6903 22.2437 37.8504 22.5166 37.9977 22.7329C38.1225 22.9046 38.3495 23.0287 38.4181 23.246C38.555 23.4738 38.2133 24.2256 38.1341 24.4644C37.8382 25.3986 37.8956 26.6972 38.2364 27.507L38.2545 27.5497L38.2727 27.593C38.3971 27.8896 38.5303 28.2089 38.8612 28.2919C38.8839 28.2692 38.8612 28.2811 38.9063 28.2692C38.9864 27.6424 39.0089 27.0388 39.225 26.5484C39.3498 26.2418 39.5991 26.025 39.77 25.7747C39.8839 25.8429 39.8839 26.0485 39.9518 26.1846C40.0996 26.5375 40.2584 26.9244 40.4407 27.2784C40.8148 28.0073 41.2357 28.714 41.7127 29.3516C41.8724 29.5794 42.099 29.8301 42.3035 30.0352C42.3945 30.1147 42.4965 30.1606 42.5649 30.2628H42.5872V30.2972C42.2464 30.1715 42.0304 29.819 41.7586 29.6131C41.2468 29.2262 40.6339 28.6451 40.2812 28.0875C40.1336 27.7674 39.9742 27.4606 39.8151 27.1421V27.1191C39.7472 27.2101 39.77 27.3004 39.736 27.4381C39.5884 28.0073 39.702 28.6566 39.1908 28.8614C38.6113 29.1012 38.1791 28.4745 37.9977 28.1897C37.418 27.2444 37.2593 25.6496 37.668 24.3623C37.7588 24.0774 37.7712 23.7356 37.9297 23.5081C37.8955 23.3024 37.7369 23.2462 37.6452 23.1201C37.4862 22.9047 37.3501 22.6538 37.2256 22.4146C36.9864 21.9472 36.8163 21.3889 36.6347 20.8877C36.5549 20.683 36.532 20.4776 36.4524 20.2838C36.3167 19.9881 36.0665 19.6915 35.8734 19.4298C35.6121 19.0538 34.8508 18.3251 35.1576 17.5842ZM38.8837 19.816C38.9141 19.8464 38.9507 19.873 38.9886 19.8992L39.0344 19.9306C39.0953 19.9728 39.1543 20.0173 39.1905 20.0778C39.2479 20.158 39.2585 20.2371 39.3272 20.3174C39.3272 20.5912 39.2479 20.7732 39.0876 20.8867C39.0876 20.8867 39.0767 20.8986 39.0655 20.9098C38.9747 20.7273 38.8951 20.5457 38.8036 20.3634C38.691 20.2042 38.5318 20.0779 38.44 19.896H38.4179V19.8732C38.555 19.8393 38.691 19.816 38.8837 19.816Z" fill="#FBFBFB"/>
</svg>
