<svg width="62" height="62" viewBox="0 0 62 62" fill="none" xmlns="http://www.w3.org/2000/svg">
<circle cx="31" cy="31" r="31" fill="#40C454"/>
<path d="M30.3292 42.931C30.1967 42.931 30.073 42.8957 29.9581 42.8338L28.7833 42.136C28.6066 42.0388 28.6949 42.0035 28.748 41.9858C28.9864 41.9063 29.0306 41.8886 29.278 41.7473C29.3045 41.7296 29.3399 41.7385 29.3663 41.7561L30.2674 42.295C30.3027 42.3126 30.3469 42.3126 30.3733 42.295L33.898 40.2544C33.9334 40.2367 33.9511 40.2013 33.9511 40.1572V36.0849C33.9511 36.0406 33.9334 36.0054 33.898 35.9876L30.3733 33.9559C30.338 33.9382 30.2938 33.9382 30.2674 33.9559L26.7427 35.9876C26.7074 36.0053 26.6896 36.0495 26.6896 36.0848V40.1572C26.6896 40.1925 26.7074 40.2366 26.7427 40.2544L27.7056 40.8109C28.2268 41.0759 28.5536 40.7667 28.5536 40.4575V36.4381C28.5536 36.3852 28.5978 36.3321 28.6596 36.3321H29.1101C29.1632 36.3321 29.2161 36.3763 29.2161 36.4381V40.4575C29.2161 41.1554 28.8363 41.5618 28.1737 41.5618C27.9706 41.5618 27.8116 41.5618 27.361 41.3409L26.4335 40.8109C26.2038 40.6784 26.0625 40.431 26.0625 40.166V36.0937C26.0625 35.8287 26.2038 35.5813 26.4335 35.4488L29.9581 33.4082C30.179 33.2845 30.4794 33.2845 30.7002 33.4082L34.2249 35.4488C34.4546 35.5813 34.596 35.8287 34.596 36.0937V40.166C34.596 40.431 34.4546 40.6784 34.2249 40.8109L30.7002 42.8515C30.5854 42.9045 30.4528 42.931 30.3292 42.931ZM31.4158 40.1307C29.8699 40.1307 29.5519 39.424 29.5519 38.8233C29.5519 38.7703 29.5961 38.7173 29.6579 38.7173H30.1173C30.1702 38.7173 30.2144 38.7526 30.2144 38.8057C30.2851 39.2738 30.4883 39.5035 31.4247 39.5035C32.1667 39.5035 32.4848 39.3356 32.4848 38.9381C32.4848 38.7084 32.3964 38.5407 31.2392 38.4258C30.2763 38.3286 29.6756 38.1166 29.6756 37.3481C29.6756 36.6325 30.2763 36.2085 31.2833 36.2085C32.414 36.2085 32.9706 36.5972 33.0413 37.4451C33.0413 37.4717 33.0325 37.4982 33.0148 37.5247C32.997 37.5424 32.9706 37.56 32.9441 37.56H32.4847C32.4405 37.56 32.3964 37.5247 32.3876 37.4805C32.2816 36.9947 32.0077 36.8357 31.2833 36.8357C30.4706 36.8357 30.3734 37.1184 30.3734 37.3303C30.3734 37.5866 30.4883 37.666 31.5836 37.8074C32.6702 37.9488 33.1826 38.1519 33.1826 38.9116C33.1738 39.689 32.5378 40.1307 31.4158 40.1307Z" fill="white"/>
<path d="M19.3921 27.0035C19.3921 26.8445 19.3038 26.6942 19.1624 26.6147L15.4169 24.4593C15.355 24.4239 15.2844 24.4063 15.2138 24.3974H15.1784C15.1077 24.3974 15.037 24.4239 14.9752 24.4593L11.2297 26.6147C11.0883 26.6942 11 26.8444 11 27.0035L11.0089 32.7984C11.0089 32.8779 11.053 32.9574 11.1237 32.9928C11.1944 33.037 11.2826 33.037 11.3446 32.9928L13.5707 31.7207C13.712 31.6412 13.8004 31.491 13.8004 31.332V28.62C13.8004 28.4611 13.8886 28.3109 14.03 28.2314L14.9752 27.6837C15.0459 27.6395 15.1254 27.6218 15.2049 27.6218C15.2844 27.6218 15.3639 27.6395 15.4258 27.6837L16.371 28.2314C16.5124 28.3109 16.6006 28.461 16.6006 28.62V31.332C16.6006 31.491 16.689 31.6412 16.8303 31.7207L19.0564 32.9928C19.0908 33.0144 19.1306 33.0259 19.1713 33.0259C19.2119 33.0259 19.2517 33.0144 19.2861 32.9928C19.3568 32.9574 19.401 32.8779 19.401 32.7984L19.3921 27.0035ZM37.3954 19.0265C37.3248 18.9912 37.2364 18.9912 37.1745 19.0265C37.1039 19.0707 37.0597 19.1413 37.0597 19.2208V24.9629C37.0597 25.0158 37.0333 25.0688 36.9802 25.1042C36.9272 25.1306 36.8742 25.1306 36.8212 25.1042L35.8849 24.5653C35.8162 24.5263 35.7386 24.5057 35.6596 24.5057C35.5806 24.5057 35.503 24.5263 35.4343 24.5653L31.6888 26.7296C31.5474 26.8091 31.4591 26.9593 31.4591 27.1183V31.438C31.4591 31.597 31.5474 31.7472 31.6888 31.8267L35.4343 33.991C35.503 34.0301 35.5806 34.0506 35.6596 34.0506C35.7386 34.0506 35.8162 34.0301 35.8849 33.991L39.6304 31.8267C39.7717 31.7472 39.8601 31.597 39.8601 31.438V20.6696C39.8601 20.5018 39.7717 20.3517 39.6304 20.2721L37.3954 19.0265ZM37.0509 30.0158C37.0509 30.06 37.0333 30.0953 36.9979 30.1129L35.717 30.8549C35.6991 30.8637 35.6795 30.8682 35.6596 30.8682C35.6397 30.8682 35.62 30.8637 35.6021 30.8549L34.3213 30.1129C34.2859 30.0953 34.2682 30.0511 34.2682 30.0158V28.5317C34.2682 28.4875 34.2859 28.4522 34.3213 28.4345L35.6021 27.6925C35.62 27.6837 35.6397 27.6792 35.6596 27.6792C35.6795 27.6792 35.6991 27.6837 35.717 27.6925L36.9979 28.4345C37.0333 28.4521 37.0509 28.4964 37.0509 28.5317V30.0158ZM49.8599 28.4964C50.0013 28.4169 50.0808 28.2667 50.0808 28.1076V27.0565C50.0808 26.8975 49.9924 26.7473 49.8599 26.6678L46.1409 24.5124C46.0722 24.4733 45.9946 24.4528 45.9156 24.4528C45.8366 24.4528 45.759 24.4733 45.6903 24.5124L41.9448 26.6766C41.8034 26.7561 41.7151 26.9063 41.7151 27.0652V31.385C41.7151 31.544 41.8035 31.6942 41.9448 31.7737L45.6638 33.8938C45.8052 33.9733 45.973 33.9733 46.1056 33.8938L48.3581 32.6395C48.4288 32.6041 48.473 32.5246 48.473 32.4451C48.473 32.3656 48.4288 32.2862 48.3581 32.2508L44.595 30.0865C44.5243 30.0423 44.4801 29.9717 44.4801 29.8922V28.5406C44.4801 28.4611 44.5243 28.3816 44.595 28.3463L45.7698 27.6749C45.8042 27.6532 45.844 27.6417 45.8847 27.6417C45.9253 27.6417 45.9651 27.6532 45.9995 27.6749L47.1744 28.3463C47.2451 28.3904 47.2892 28.4611 47.2892 28.5406V29.6007C47.2892 29.6802 47.3334 29.7597 47.4041 29.795C47.4385 29.8166 47.4783 29.8281 47.5189 29.8281C47.5596 29.8281 47.5994 29.8166 47.6338 29.795L49.8599 28.4964Z" fill="white"/>
<path d="M45.8573 28.2935C45.8704 28.2849 45.8858 28.2803 45.9015 28.2803C45.9172 28.2803 45.9326 28.2849 45.9457 28.2935L46.6612 28.7087C46.6877 28.7264 46.7054 28.7529 46.7054 28.7882V29.6186C46.7054 29.654 46.6878 29.6805 46.6612 29.6981L45.9457 30.1133C45.9326 30.122 45.9172 30.1266 45.9015 30.1266C45.8858 30.1266 45.8704 30.122 45.8573 30.1133L45.1418 29.6981C45.1153 29.6805 45.0977 29.654 45.0977 29.6186V28.7883C45.0977 28.7529 45.1152 28.7264 45.1418 28.7088L45.8573 28.2935Z" fill="white"/>
<path d="M25.656 24.5303C25.5874 24.4912 25.5097 24.4707 25.4308 24.4707C25.3518 24.4707 25.2742 24.4912 25.2055 24.5303L21.4865 26.6768C21.3451 26.7563 21.2656 26.9064 21.2656 27.0654V31.3675C21.2656 31.5265 21.354 31.6767 21.4865 31.7562L25.2055 33.9028C25.2742 33.9419 25.3518 33.9624 25.4308 33.9624C25.5097 33.9624 25.5874 33.9419 25.656 33.9028L29.3751 31.7562C29.5164 31.6767 29.596 31.5265 29.596 31.3675V27.0655C29.596 26.9065 29.5076 26.7563 29.3751 26.6768L25.656 24.5303Z" fill="white"/>
<mask id="mask0_411_3156" style="mask-type:luminance" maskUnits="userSpaceOnUse" x="21" y="24" width="9" height="10">
<path d="M25.656 24.5303C25.5874 24.4912 25.5097 24.4707 25.4308 24.4707C25.3518 24.4707 25.2742 24.4912 25.2055 24.5303L21.4865 26.6768C21.3451 26.7563 21.2656 26.9064 21.2656 27.0654V31.3675C21.2656 31.5265 21.354 31.6767 21.4865 31.7562L25.2055 33.9028C25.2742 33.9419 25.3518 33.9624 25.4308 33.9624C25.5097 33.9624 25.5874 33.9419 25.656 33.9028L29.3751 31.7562C29.5164 31.6767 29.596 31.5265 29.596 31.3675V27.0655C29.596 26.9065 29.5076 26.7563 29.3751 26.6768L25.656 24.5303Z" fill="white"/>
</mask>
<g mask="url(#mask0_411_3156)">
<path d="M29.3845 26.6761L25.6478 24.5295C25.6111 24.511 25.5726 24.4962 25.5329 24.4854L21.3457 31.6584C21.3804 31.7008 21.4223 31.7367 21.4694 31.7645L25.2061 33.9111C25.3121 33.9729 25.4358 33.9906 25.5506 33.9552L29.4817 26.7645C29.4552 26.7292 29.4198 26.7025 29.3845 26.6761Z" fill="white"/>
</g>
<mask id="mask1_411_3156" style="mask-type:luminance" maskUnits="userSpaceOnUse" x="21" y="24" width="9" height="10">
<path d="M25.656 24.5303C25.5874 24.4912 25.5097 24.4707 25.4308 24.4707C25.3518 24.4707 25.2742 24.4912 25.2055 24.5303L21.4865 26.6768C21.3451 26.7563 21.2656 26.9064 21.2656 27.0654V31.3675C21.2656 31.5265 21.354 31.6767 21.4865 31.7562L25.2055 33.9028C25.2742 33.9419 25.3518 33.9624 25.4308 33.9624C25.5097 33.9624 25.5874 33.9419 25.656 33.9028L29.3751 31.7562C29.5164 31.6767 29.596 31.5265 29.596 31.3675V27.0655C29.596 26.9065 29.5076 26.7563 29.3751 26.6768L25.656 24.5303Z" fill="white"/>
</mask>
<g mask="url(#mask1_411_3156)">
<path fill-rule="evenodd" clip-rule="evenodd" d="M29.3926 31.7568C29.4987 31.695 29.5782 31.589 29.6135 31.4741L25.5145 24.4778C25.4085 24.4601 25.2936 24.4689 25.1965 24.5307L21.4863 26.6686L25.488 33.9653C25.5462 33.9558 25.6027 33.9379 25.6558 33.9123L29.3926 31.7568Z" fill="white"/>
<path fill-rule="evenodd" clip-rule="evenodd" d="M29.3938 31.7564L25.6659 33.903C25.6133 33.9298 25.5565 33.9477 25.498 33.956L25.5687 34.0885L29.7029 31.6946V31.6416L29.5969 31.4648C29.5793 31.5885 29.4998 31.6945 29.3938 31.7564Z" fill="white"/>
<path fill-rule="evenodd" clip-rule="evenodd" d="M29.3938 31.7564L25.6659 33.903C25.6133 33.9298 25.5565 33.9477 25.498 33.956L25.5687 34.0885L29.7029 31.6946V31.6416L29.5969 31.4648C29.5793 31.5885 29.4998 31.6945 29.3938 31.7564Z" fill="white"/>
</g>
</svg>
