<svg width="62" height="62" viewBox="0 0 62 62" fill="none" xmlns="http://www.w3.org/2000/svg">
<circle cx="31" cy="31" r="31" fill="white"/>
<path fill-rule="evenodd" clip-rule="evenodd" d="M39.7872 23.3223C40.3648 24.9929 40.7807 26.6985 40.9174 28.4664C41.0873 30.6595 41.0096 32.8372 40.5472 34.9943C40.5346 35.0537 40.508 35.1095 40.4882 35.1671C40.3432 35.1674 40.1953 35.1494 40.0535 35.1714C38.8556 35.3596 37.6589 35.5546 36.4621 35.7485C35.225 35.949 33.9861 36.1415 32.7512 36.3556C32.3136 36.4311 31.7721 36.3408 31.5954 36.946C31.5904 36.9626 31.54 36.9655 31.5108 36.9748L31.5706 33.3582L31.5098 24.6317L32.0862 24.5327C33.029 24.3784 33.9717 24.2218 34.9152 24.0718C36.0411 23.893 37.168 23.7192 38.2947 23.5446C38.7916 23.4673 39.2892 23.3964 39.7872 23.3223Z" fill="#439934"/>
<path fill-rule="evenodd" clip-rule="evenodd" d="M30.3223 47.5181C29.7142 46.9953 29.0849 46.4955 28.5019 45.9456C25.3653 42.9871 23.0711 39.5051 21.9412 35.307C21.63 34.1516 21.4223 32.9775 21.3558 31.7836C21.309 30.948 21.2414 30.105 21.3004 29.2738C21.4576 27.063 21.7771 24.8734 22.4255 22.744L22.4612 22.6943C22.5241 22.7782 22.6148 22.8523 22.6468 22.9469C23.2797 24.8108 23.9084 26.6761 24.533 28.5426C26.497 34.4078 28.4584 40.2744 30.4256 46.1381C30.4641 46.2526 30.5637 46.3465 30.6354 46.4498L30.3223 47.5181Z" fill="#45A538"/>
<path fill-rule="evenodd" clip-rule="evenodd" d="M39.7878 23.3215C39.2898 23.3956 38.7918 23.4665 38.2949 23.5432C37.1683 23.7177 36.0413 23.8915 34.9154 24.0703C33.972 24.2204 33.0292 24.3769 32.0865 24.5313L31.51 24.6302L31.5057 24.2542C31.4866 23.9451 31.4539 23.6364 31.4503 23.3273C31.4255 21.3561 31.41 19.385 31.3855 17.4139C31.3704 16.18 31.3477 14.9465 31.3226 13.7131C31.3071 12.9466 31.2905 12.1798 31.256 11.4145C31.2373 11.0032 31.1711 10.5941 31.1441 10.1828C31.129 9.94639 31.1498 9.70819 31.1545 9.4707C31.4485 10.0403 31.736 10.6142 32.0383 11.1795C32.5157 12.0733 33.2764 12.7318 33.9612 13.4504C36.6681 16.2901 38.59 19.5919 39.7878 23.3215Z" fill="#46A037"/>
<path fill-rule="evenodd" clip-rule="evenodd" d="M31.5114 36.9727C31.5405 36.9634 31.5913 36.9605 31.5959 36.9439C31.7726 36.3387 32.3142 36.429 32.7517 36.3535C33.9866 36.1397 35.2255 35.9469 36.4626 35.7464C37.6594 35.5525 38.8562 35.3575 40.054 35.1693C40.1958 35.147 40.3437 35.1653 40.4887 35.165C40.2649 35.9638 40.0886 36.7799 39.8047 37.5567C39.4823 38.4379 39.0922 39.2979 38.6781 40.141C38.0585 41.3987 37.291 42.5781 36.3921 43.654C35.7016 44.4845 34.9319 45.252 34.1604 46.0101C33.734 46.4293 33.2314 46.7708 32.7636 47.1476L32.6423 47.0648L32.2055 46.6913L31.7536 45.7007C31.4448 44.5451 31.2764 43.3566 31.252 42.1607L31.2602 41.9589L31.3218 41.0859C31.3423 40.788 31.3696 40.4904 31.3822 40.1917C31.4286 39.1187 31.4689 38.0457 31.5114 36.9727Z" fill="#409433"/>
<path fill-rule="evenodd" clip-rule="evenodd" d="M31.5124 36.9739C31.4699 38.0469 31.4296 39.1199 31.3839 40.1933C31.3714 40.492 31.344 40.7895 31.3235 41.0875L31.0482 41.1915C30.4369 39.3916 29.8252 37.6108 29.2268 35.8254C28.2373 32.8715 27.2596 29.913 26.2715 26.9585C25.4735 24.5737 24.6699 22.1908 23.8607 19.8098C23.8229 19.6983 23.7142 19.6112 23.6387 19.5126L25.4004 16.2734C25.4608 16.3785 25.5407 16.4767 25.5789 16.5897C26.3948 19.0013 27.2066 21.4143 28.0142 23.8287C29.0634 26.97 30.1062 30.1138 31.1547 33.2555C31.1965 33.3811 31.2656 33.4969 31.3314 33.6376L31.5725 33.3569L31.5124 36.9739Z" fill="#4FAA41"/>
<path fill-rule="evenodd" clip-rule="evenodd" d="M23.6383 19.5137C23.7139 19.6123 23.8222 19.6993 23.8603 19.8109C24.6695 22.1919 25.4731 24.5748 26.2711 26.9596C27.2592 29.9141 28.2369 32.8726 29.2264 35.8264C29.8244 37.6115 30.4361 39.3927 31.0479 41.1925L31.3231 41.0885L31.2616 41.9615L31.2058 42.1626C31.1101 43.1183 31.0295 44.0762 30.9129 45.0297C30.8543 45.5076 30.7298 45.9768 30.6351 46.45C30.5639 46.3467 30.4639 46.2528 30.4253 46.1384C28.4582 40.2742 26.4968 34.408 24.5328 28.5428C23.908 26.6763 23.2793 24.811 22.6466 22.9471C22.6146 22.8525 22.5243 22.7784 22.4609 22.6945L23.6383 19.5137Z" fill="#4AA73C"/>
<path fill-rule="evenodd" clip-rule="evenodd" d="M31.5725 33.3577L31.3314 33.6384C31.2656 33.4977 31.1965 33.3815 31.1547 33.2563C30.1066 30.1146 29.0634 26.9708 28.0142 23.8295C27.2066 21.4151 26.3948 19.0021 25.5789 16.5905C25.5411 16.4775 25.4612 16.3789 25.4004 16.2742L27.5791 13.4082C27.6479 13.5 27.7457 13.5816 27.7814 13.6849C28.3859 15.4557 28.9859 17.2282 29.5816 19.0024C30.1382 20.6591 30.6866 22.3182 31.2497 23.9727C31.2875 24.0836 31.4189 24.162 31.5067 24.2555L31.511 24.6316C31.5318 27.5399 31.5524 30.4487 31.5725 33.3577Z" fill="#57AE47"/>
<path fill-rule="evenodd" clip-rule="evenodd" d="M31.5056 24.2538C31.4178 24.1602 31.2865 24.0818 31.2487 23.971C30.6856 22.3165 30.1372 20.6573 29.5806 19.0007C28.9849 17.2267 28.3849 15.4542 27.7803 13.6831C27.7447 13.5799 27.6469 13.4982 27.5781 13.4064C28.2866 12.7127 28.9732 11.9941 29.7101 11.3324C30.3653 10.7444 30.8921 10.114 30.9162 9.18495C30.9173 9.14645 30.9375 9.10795 30.9684 9L31.1552 9.46993C31.1505 9.70778 31.1293 9.94563 31.1447 10.182C31.1717 10.5933 31.2379 11.0024 31.2566 11.4137C31.2912 12.1791 31.3077 12.9459 31.3232 13.7123C31.348 14.9458 31.3707 16.1793 31.3862 17.4131C31.4103 19.3842 31.4261 21.3554 31.4509 23.3265C31.4538 23.6363 31.4862 23.9447 31.5056 24.2538Z" fill="#60B24F"/>
<path fill-rule="evenodd" clip-rule="evenodd" d="M30.6353 46.4491C30.7299 45.976 30.8544 45.5064 30.9131 45.0289C31.03 44.0757 31.1103 43.1175 31.206 42.1618L31.2297 42.1582L31.2535 42.1622C31.278 43.358 31.4464 44.5466 31.7551 45.7021C31.6918 45.7856 31.6022 45.8601 31.5687 45.9544C31.3071 46.692 31.0606 47.4354 30.7976 48.1731C30.7616 48.2738 30.6616 48.3523 30.5911 48.4408L30.3223 47.5175L30.6353 46.4491Z" fill="#A9AA88"/>
<path fill-rule="evenodd" clip-rule="evenodd" d="M30.5918 48.4408C30.6623 48.3523 30.7627 48.2738 30.7983 48.1731C31.0614 47.4354 31.3082 46.6924 31.5694 45.9544C31.6029 45.8601 31.6921 45.7856 31.7558 45.7021L32.2074 46.6931C32.1182 46.8198 31.9951 46.9338 31.9455 47.0749L31.0804 49.6149C31.0448 49.7167 30.9232 49.7887 30.8419 49.8747L30.5918 48.4408Z" fill="#B6B598"/>
<path fill-rule="evenodd" clip-rule="evenodd" d="M30.8398 49.873C30.9215 49.7874 31.0428 49.715 31.0784 49.6132L31.9434 47.0732C31.9927 46.9325 32.1162 46.8181 32.2054 46.6914L32.6426 47.0645C32.4314 47.2732 32.3141 47.5143 32.3846 47.8191L32.2518 48.2538C32.1914 48.3283 32.1039 48.393 32.074 48.4783C31.7722 49.343 31.4839 50.2123 31.1799 51.077C31.1414 51.1867 31.0345 51.2727 30.9589 51.3692C30.9196 50.8704 30.8799 50.3717 30.8398 49.873Z" fill="#C2C1A7"/>
<path fill-rule="evenodd" clip-rule="evenodd" d="M30.9603 51.3703C31.0355 51.2735 31.1424 51.1875 31.1812 51.0781C31.4853 50.2138 31.7735 49.3444 32.0754 48.4794C32.1053 48.3945 32.1923 48.3294 32.2532 48.2549L32.07 50.2501C32.0211 50.3066 31.9502 50.3559 31.9268 50.4218C31.7199 51.0025 31.5249 51.5876 31.3172 52.1684C31.2744 52.2882 31.1924 52.394 31.1283 52.5059C31.0715 52.4314 30.9696 52.3594 30.965 52.2817C30.9466 51.9791 30.9592 51.6743 30.9603 51.3703Z" fill="#CECDB7"/>
<path fill-rule="evenodd" clip-rule="evenodd" d="M31.127 52.5067C31.191 52.3945 31.273 52.2887 31.3159 52.1692C31.5238 51.5888 31.7185 51.0037 31.9254 50.4226C31.9488 50.3568 32.02 50.3078 32.0686 50.251L32.0729 51.5607L31.6347 52.6848L31.127 52.5067Z" fill="#DBDAC7"/>
<path fill-rule="evenodd" clip-rule="evenodd" d="M31.6328 52.6846L32.0711 51.5605L32.1614 52.8905L31.6328 52.6846Z" fill="#EBE9DC"/>
<path fill-rule="evenodd" clip-rule="evenodd" d="M32.3858 47.821C32.3153 47.5162 32.4322 47.2747 32.6438 47.0664L32.7651 47.1492L32.3858 47.821Z" fill="#CECDB7"/>
<path fill-rule="evenodd" clip-rule="evenodd" d="M31.2545 42.1634L31.2308 42.1595L31.207 42.1631L31.2628 41.9619L31.2545 42.1634Z" fill="#4FAA41"/>
</svg>
