<svg width="62" height="62" viewBox="0 0 62 62" fill="none" xmlns="http://www.w3.org/2000/svg">
<circle cx="31" cy="31" r="31" fill="#28AACE"/>
<path d="M29.7535 14H35.2105V39.0057C32.8814 39.4858 30.5102 39.7324 28.1322 39.7421C21.4682 39.7352 18 36.7583 18 31.0412C18 25.536 21.6788 21.9577 27.3808 21.9577C28.1804 21.943 28.9784 22.0355 29.7535 22.2329V14ZM29.7535 26.582C29.1602 26.3865 28.5379 26.2934 27.9134 26.3067C25.1608 26.3067 23.5602 27.9899 23.5602 30.9393C23.5602 33.8116 25.0837 35.3971 27.879 35.3971C28.5064 35.3988 29.133 35.3528 29.7535 35.2595V26.5889V26.582Z" fill="white"/>
<path d="M43.8833 22.3387V34.8629C43.8833 39.1748 43.5598 41.2475 42.6129 43.0353C41.6462 44.8528 40.0661 46.2685 38.1538 47.0307L33.0918 44.6456C34.9313 44.0168 36.4718 42.7274 37.4147 41.0273C38.1937 39.4845 38.44 37.6967 38.44 32.9939V22.3387H43.8833ZM38.4345 14.0273H43.8901V19.571H38.4345V14.0273Z" fill="white"/>
</svg>
