<svg width="62" height="62" viewBox="0 0 62 62" fill="none" xmlns="http://www.w3.org/2000/svg">
<circle cx="31" cy="31" r="31" fill="white"/>
<path d="M30.9995 18.8496C18.2995 18.9327 8.0351 24.3674 8.07845 30.9983C8.12181 37.6292 18.4564 42.9321 31.1564 42.8491C43.8565 42.7661 54.1208 37.3284 54.0775 30.6975C54.0341 24.0667 43.6995 18.7666 30.9995 18.8496ZM31.0073 20.0474C43.3265 19.9669 52.833 25.0514 52.87 30.7054C52.907 36.3595 43.4605 41.5708 31.1486 41.6513C18.8295 41.7318 9.3229 36.6445 9.28593 30.9904C9.24896 25.3364 18.6954 20.128 31.0073 20.0474ZM28.2299 22.4443L25.9818 34.3523L28.5765 34.3353L29.8716 27.5103C31.9833 27.4965 32.8567 27.4081 33.2432 27.8148C33.6441 28.2357 33.443 28.7019 32.3843 34.309L35.0149 34.2918C36.1155 28.4948 36.6106 27.2623 35.5521 26.3095C34.5442 25.3991 32.4695 25.5738 30.2285 25.5885L30.826 22.4273L28.2299 22.4443ZM17.3704 25.6811L15.1224 37.5977L17.7343 37.5806L18.3317 34.4151C21.2526 34.396 23.0695 34.5952 24.7369 33.0256C26.5816 31.3208 27.0463 28.3045 25.7125 26.8059C25.0174 26.0204 23.9037 25.6384 22.3987 25.6482L17.3704 25.6811ZM37.7709 25.5477L35.5186 37.4643L38.1348 37.4472L38.7323 34.2817C41.8041 34.2616 43.5058 34.4274 45.1374 32.8922C46.9821 31.1874 47.4483 28.1711 46.1145 26.6725C45.4194 25.887 44.3057 25.505 42.7992 25.5148L37.7709 25.5477ZM21.4766 27.5295C23.1084 27.5645 24.0435 27.9006 23.663 29.9353C23.1196 32.7966 21.1354 32.5144 18.696 32.5304L19.6381 27.5444C20.3137 27.54 20.9317 27.5174 21.4766 27.5295ZM41.8786 27.3961C43.5133 27.4311 44.4384 27.7673 44.0563 29.8019C43.5061 32.7047 41.4641 32.3815 39.0894 32.397L40.0314 27.4111C40.7114 27.4066 41.3351 27.384 41.8786 27.3961Z" fill="black"/>
</svg>
