<svg width="62" height="62" viewBox="0 0 62 62" fill="none" xmlns="http://www.w3.org/2000/svg">
<circle cx="31" cy="31" r="31" fill="white"/>
<path d="M41.0938 12H20.9062C15.9875 12 12 15.9875 12 20.9062V41.0938C12 46.0125 15.9875 50 20.9062 50H41.0938C46.0125 50 50 46.0125 50 41.0938V20.9062C50 15.9875 46.0125 12 41.0938 12Z" fill="#430098"/>
<path d="M22.3906 44.3594V36.7254L26.6848 40.5425L22.3906 44.3594ZM35.75 44.3594V32.961C35.7314 32.0702 35.3025 31 33.3645 31C29.4836 31 25.1302 32.952 25.0868 32.9714L22.3906 34.1929V17.6406H26.2075V28.4766C28.1132 27.8562 30.7769 27.1831 33.3645 27.1831C35.7237 27.1831 37.136 28.1105 37.9052 28.8888C39.5469 30.549 39.5693 32.6641 39.5671 32.9085V44.3594H35.75ZM36.7043 23.8432H32.8872C34.3873 21.875 35.3292 19.804 35.75 17.6406H39.5669C39.3094 19.8087 38.4305 21.887 36.7043 23.8432Z" fill="white"/>
</svg>
