<svg width="52" height="59" viewBox="0 0 52 59" fill="none" xmlns="http://www.w3.org/2000/svg">
<g clip-path="url(#clip0_2323_1311)">
<path d="M16.729 20.1994V43.4467C16.729 48.0961 9.00348 48.0961 9.00348 48.0961L1.91406 43.4467V15.5499L25.9994 1.60156L50.085 15.5499V43.4467L25.9994 57.395L19.9782 53.9079M41.4502 24.8488C41.4502 23.299 39.9051 20.1994 33.7248 20.1994C27.5445 20.1994 25.9994 23.299 25.9994 24.8488C25.9994 26.3987 25.9994 27.9485 29.0895 29.4983C32.1797 31.0481 35.2699 31.0481 38.36 32.5979C41.4502 34.1478 41.4502 37.2474 41.4502 37.2474C41.4502 38.7972 39.9051 41.8969 33.7248 41.8969C27.5445 41.8969 25.9994 38.7972 25.9994 37.2474" stroke="#64CF31" stroke-width="2" stroke-linecap="round" stroke-linejoin="round"/>
</g>
<defs>
<clipPath id="clip0_2323_1311">
<rect width="52" height="59" fill="white"/>
</clipPath>
</defs>
</svg>
