<svg width="73" height="68" viewBox="0 0 73 68" fill="none" xmlns="http://www.w3.org/2000/svg">
<path d="M62.102 32.5595C61.6392 31.9787 60.7947 31.8852 60.2158 32.3461L41.5218 47.2439L31.9747 39.8782C31.4272 39.455 30.6493 39.5184 30.1765 40.022L20.3362 50.5039C19.8289 51.0445 19.8559 51.894 20.3959 52.4014C20.6552 52.6444 20.9849 52.7649 21.3145 52.7649C21.6718 52.7649 22.029 52.6224 22.2927 52.3417L31.2998 42.7476L40.7149 50.0116C41.2047 50.3896 41.8878 50.384 42.3713 49.9991L61.8891 34.4451C62.4687 33.9836 62.5641 33.1391 62.102 32.5595Z" fill="#96CEB4"/>
<path d="M22.3501 56.9277H21.3254C20.1387 56.9277 19.168 57.8984 19.168 59.0852V64.9848C19.168 66.1715 20.1387 67.1422 21.3254 67.1422H22.3501C23.5368 67.1422 24.5075 66.1715 24.5075 64.9848V59.0852C24.5075 57.8984 23.5368 56.9277 22.3501 56.9277Z" fill="#71A58A"/>
<path d="M32.022 49.1836H30.9973C29.8106 49.1836 28.8398 50.1543 28.8398 51.341V64.9844C28.8398 66.1711 29.8106 67.1418 30.9973 67.1418H32.022C33.2087 67.1418 34.1794 66.1711 34.1794 64.9844V51.341C34.1788 50.1543 33.208 49.1836 32.022 49.1836Z" fill="#71A58A"/>
<path d="M41.701 54.3457H40.6763C39.4896 54.3457 38.5195 55.3164 38.5195 56.5031V64.984C38.5195 66.1707 39.4902 67.1414 40.6763 67.1414H41.701C42.8877 67.1414 43.8584 66.1707 43.8584 64.984V56.5031C43.8578 55.3164 42.8871 54.3457 41.701 54.3457Z" fill="#71A58A"/>
<path d="M51.3813 49.8291H50.3566C49.1699 49.8291 48.1992 50.7998 48.1992 51.9865V64.9844C48.1992 66.1711 49.1699 67.1418 50.3566 67.1418H51.3813C52.5681 67.1418 53.5388 66.1711 53.5388 64.9844V51.9859C53.5388 50.7998 52.5681 49.8291 51.3813 49.8291Z" fill="#71A58A"/>
<path d="M61.061 40.7949H60.0363C58.8496 40.7949 57.8789 41.7656 57.8789 42.9523V64.9849C57.8789 66.1716 58.8496 67.1423 60.0363 67.1423H61.061C62.2477 67.1423 63.2185 66.1716 63.2185 64.9849V42.9523C63.2178 41.7656 62.2471 40.7949 61.061 40.7949Z" fill="#71A58A"/>
<path d="M21.3175 54.1106C22.8024 54.1106 24.0061 52.9069 24.0061 51.422C24.0061 49.9371 22.8024 48.7334 21.3175 48.7334C19.8326 48.7334 18.6289 49.9371 18.6289 51.422C18.6289 52.9069 19.8326 54.1106 21.3175 54.1106Z" fill="#FF6F69"/>
<path d="M31.1847 43.6917C32.6696 43.6917 33.8733 42.4879 33.8733 41.0031C33.8733 39.5182 32.6696 38.3145 31.1847 38.3145C29.6998 38.3145 28.4961 39.5182 28.4961 41.0031C28.4961 42.4879 29.6998 43.6917 31.1847 43.6917Z" fill="#FF6F69"/>
<path d="M41.6378 51.5296C43.1227 51.5296 44.3264 50.3258 44.3264 48.841C44.3264 47.3561 43.1227 46.1523 41.6378 46.1523C40.1529 46.1523 38.9492 47.3561 38.9492 48.841C38.9492 50.3258 40.1529 51.5296 41.6378 51.5296Z" fill="#FF6F69"/>
<path d="M50.8722 44.0432C52.3571 44.0432 53.5608 42.8395 53.5608 41.3546C53.5608 39.8698 52.3571 38.666 50.8722 38.666C49.3873 38.666 48.1836 39.8698 48.1836 41.3546C48.1836 42.8395 49.3873 44.0432 50.8722 44.0432Z" fill="#FF6F69"/>
<path d="M60.5519 36.2571C62.0368 36.2571 63.2405 35.0534 63.2405 33.5685C63.2405 32.0836 62.0368 30.8799 60.5519 30.8799C59.067 30.8799 57.8633 32.0836 57.8633 33.5685C57.8633 35.0534 59.067 36.2571 60.5519 36.2571Z" fill="#FF6F69"/>
<path d="M65.3599 12.5254H27.8983C23.915 12.5254 20.6562 15.7841 20.6562 19.7674V21.0289C20.6562 25.0122 23.915 28.2709 27.8983 28.2709H65.3599C69.3432 28.2709 72.6019 25.0122 72.6019 21.0289V19.7674C72.6019 15.7841 69.3432 12.5254 65.3599 12.5254Z" fill="#99734A"/>
<path d="M64.6666 14.1748H28.5902C25.1676 14.1748 22.3672 16.9752 22.3672 20.3978C22.3672 23.8204 25.1676 26.6208 28.5902 26.6208H64.6673C68.0899 26.6208 70.8902 23.8204 70.8902 20.3978C70.8896 16.9745 68.0892 14.1748 64.6666 14.1748Z" fill="#FFEEAD"/>
<path d="M64.674 14.1748H59.5938V26.6208H64.674C68.0966 26.6208 70.897 23.8204 70.897 20.3978C70.897 16.9752 68.0966 14.1748 64.674 14.1748Z" fill="#96CEB4"/>
<path d="M16.5663 30.3013L15.5956 29.8266C14.5859 29.3331 13.3559 29.755 12.8618 30.7647L8.21038 40.2765C7.71686 41.2861 8.1388 42.5162 9.14844 43.0103L10.1192 43.485C11.1288 43.9785 12.3588 43.5566 12.853 42.5469L17.5044 33.0351C17.9979 32.0254 17.5759 30.7954 16.5663 30.3013Z" fill="#96CEB4"/>
<path d="M11.3765 40.2484L10.9181 40.0242C9.24418 39.2054 7.20543 39.9055 6.38667 41.5789L0.733181 53.1414C-0.0855828 54.8153 0.614511 56.8541 2.28846 57.6728L2.74681 57.897C4.42076 58.7158 6.4595 58.0157 7.27827 56.3417L12.9324 44.7798C13.7505 43.1059 13.0504 41.0665 11.3765 40.2484Z" fill="#FF6F69"/>
<path d="M21.6634 37.2877C31.9601 37.2877 40.3072 28.9405 40.3072 18.6438C40.3072 8.34713 31.9601 0 21.6634 0C11.3667 0 3.01953 8.34713 3.01953 18.6438C3.01953 28.9405 11.3667 37.2877 21.6634 37.2877Z" fill="#FF6F69"/>
<path d="M21.66 35.7018C31.0811 35.7018 38.7184 28.0645 38.7184 18.6434C38.7184 9.22227 31.0811 1.58496 21.66 1.58496C12.2389 1.58496 4.60156 9.22227 4.60156 18.6434C4.60156 28.0645 12.2389 35.7018 21.66 35.7018Z" fill="white"/>
<path d="M21.6613 34.5004C30.4187 34.5004 37.518 27.4011 37.518 18.6438C37.518 9.88637 30.4187 2.78711 21.6613 2.78711C12.9039 2.78711 5.80469 9.88637 5.80469 18.6438C5.80469 27.4011 12.9039 34.5004 21.6613 34.5004Z" fill="#99734A"/>
<path d="M30.8113 5.71191H12.4858C10.3912 7.19561 8.62748 9.20924 7.42006 11.6775C4.0571 18.5547 6.12473 26.6764 11.954 31.1815H31.3746C33.2438 29.7405 34.8028 27.8732 35.9098 25.6096C39.3763 18.5195 37.0645 10.0374 30.8113 5.71191Z" fill="#FFEEAD"/>
<path d="M13.779 18.189C13.2441 17.8117 12.3512 17.2365 11.7955 16.8598C11.0615 16.3631 10.526 15.9864 10.526 15.3315C10.526 14.816 10.9422 14.4587 11.459 14.4587C11.7566 14.4587 12.1528 14.5385 12.3519 15.054C12.3914 15.1927 12.4316 15.3516 12.4705 15.5104C12.689 16.1854 13.2642 16.4824 13.899 16.4824C14.5934 16.4824 15.4863 16.0655 15.4863 14.7363C15.4863 14.4186 15.4461 13.7442 14.9306 13.0692C14.0176 11.8599 12.4109 11.74 11.5777 11.74C8.84008 11.74 7.13286 13.2877 7.13286 15.8872C7.13286 18.1294 8.60149 19.0611 9.91063 19.9151C10.2484 20.1329 10.5649 20.3515 10.9027 20.5693C11.8345 21.1445 12.4109 21.5212 12.4109 22.2954C12.4109 22.8705 11.9745 23.4658 11.2003 23.4658C10.8826 23.4658 10.3275 23.3471 10.1097 22.6527C10.0494 22.4542 10.0306 22.2364 10.0105 22.0179C9.97028 21.7002 9.91126 21.3429 9.59418 21.0459C9.31602 20.7677 8.95875 20.629 8.52237 20.629C7.37146 20.629 6.81641 21.562 6.81641 22.6326C6.81641 24.0811 7.62952 25.1127 8.76097 25.6483C9.5339 26.0056 10.4669 26.1249 11.2807 26.1249C14.297 26.1249 15.9628 24.3392 15.9628 21.8785C15.9616 19.7361 14.7516 18.8433 13.779 18.189Z" fill="#E05858"/>
<path d="M24.9823 23.566C24.546 23.0895 23.9708 23.0895 23.4553 23.0895H20.7567V20.0743H23.0579C23.6136 20.0743 24.4863 20.0543 24.7839 19.1815C24.8436 18.9825 24.8637 18.8048 24.8637 18.6848C24.8637 18.3276 24.745 18.0105 24.546 17.7719C24.1498 17.3355 23.5344 17.316 23.0579 17.296H20.7567V14.7957H23.2965C23.773 14.7957 24.4273 14.7957 24.8637 14.3794C25.1217 14.1615 25.28 13.8237 25.28 13.3874C25.28 11.9395 23.8522 11.9395 23.2764 11.9395H19.6259C19.0507 11.9395 18.4354 11.9395 17.9199 12.3557C17.2656 12.8719 17.2656 13.6649 17.2656 14.2802V23.6659C17.2656 24.3597 17.2656 25.0146 17.7617 25.4704C18.2583 25.947 18.932 25.947 19.6064 25.947H23.4158C23.9325 25.947 24.5278 25.947 24.9641 25.4905C25.2216 25.2525 25.3409 24.8953 25.3409 24.5386C25.3402 24.3402 25.3202 23.9233 24.9823 23.566Z" fill="#E05858"/>
<path d="M35.5022 13.6257C34.5302 11.9788 32.6648 11.7207 31.3952 11.7207C30.3033 11.7207 29.1926 11.8997 28.2796 12.515C26.6729 13.6056 26.5938 15.3913 26.5938 18.2689C26.5938 22.1172 26.5938 23.6053 27.6455 24.7958C28.8359 26.1257 30.8395 26.1257 31.3757 26.1257C32.2887 26.1257 34.3318 26.0466 35.4237 24.4787C36.0378 23.5859 36.2167 22.6139 36.2167 19.4387C36.2161 15.4704 36.0183 14.5179 35.5022 13.6257ZM32.6252 21.8598C32.6051 22.2372 32.526 23.2481 31.4147 23.2481C30.2443 23.2481 30.2054 22.1172 30.1652 20.9469C30.1451 20.3114 30.1451 19.6773 30.1451 19.0419C30.1451 18.2482 30.1451 16.5422 30.2242 15.8478C30.2644 15.5113 30.363 14.6184 31.355 14.6184C32.1091 14.6184 32.4469 15.0749 32.5656 15.8685C32.6447 16.4437 32.6648 18.1496 32.6648 18.9037C32.6654 18.9621 32.6453 21.4033 32.6252 21.8598Z" fill="#E05858"/>
<path d="M13.7919 40.594L9.16059 38.3292C8.11956 37.82 6.85123 38.2557 6.34201 39.2968C5.83279 40.3378 6.26792 41.6061 7.30896 42.1153L11.9402 44.3801C12.9813 44.8893 14.2496 44.4536 14.7588 43.4126C15.268 42.3715 14.8329 41.1032 13.7919 40.594Z" fill="#E05858"/>
<path d="M32.9837 8.83784C27.2812 2.53323 17.5126 2.04348 11.2073 7.74469C10.8494 8.06931 10.727 8.5578 10.8526 8.99293C10.9028 9.16622 10.992 9.33136 11.1207 9.47452C11.5747 9.9762 12.3482 10.0145 12.8505 9.56116C18.1536 4.76537 26.3702 5.17726 31.1672 10.481C31.6212 10.9827 32.3954 11.0204 32.897 10.5677C33.3981 10.1137 33.4377 9.34078 32.9837 8.83784Z" fill="white"/>
</svg>
