<svg width="66" height="66" viewBox="0 0 66 66" fill="none" xmlns="http://www.w3.org/2000/svg">
<g clip-path="url(#clip0_123_4724)">
<path d="M11.6874 0.824951H54.3124C60.7673 0.824951 66 6.05767 66 12.5124V53.4874C66 59.9422 60.7673 65.175 54.3124 65.175H11.6874C5.23272 65.1748 0 59.9422 0 53.4874V12.5124C0 6.05755 5.23272 0.824951 11.6874 0.824951Z" fill="#00005B"/>
<path d="M26.514 39.3253H16.2864L14.2055 45.8018C14.1472 46.045 13.9241 46.2122 13.6742 46.2003H8.49404C8.19866 46.2003 8.0953 46.0379 8.1841 45.7132L17.0391 20.3162C17.1277 20.0506 17.2162 19.7909 17.3047 19.4512C17.4207 18.8605 17.48 18.2601 17.4818 17.6581C17.4605 17.5082 17.5647 17.3694 17.7146 17.3482C17.7402 17.3446 17.7661 17.3446 17.7917 17.3482H24.8316C25.0376 17.3482 25.1558 17.422 25.1858 17.5696L35.2362 45.7574C35.3247 46.0528 35.2362 46.2005 34.9706 46.2003H29.2147C29.0102 46.2229 28.8206 46.0903 28.7721 45.8903L26.514 39.3253ZM21.378 22.3971H21.3336L17.8803 33.8643H24.8758L21.378 22.3971Z" fill="#9999FF"/>
<path d="M51.5298 36.8049H42.8077C42.9145 37.6679 43.2011 38.499 43.649 39.2443C44.1441 39.9824 44.8443 40.5595 45.6634 40.9046C46.7736 41.3849 47.9742 41.6202 49.1834 41.5944C50.1428 41.576 51.0986 41.4711 52.0392 41.2809C52.8803 41.1674 53.7047 40.9524 54.4945 40.6409C54.6418 40.5234 54.7159 40.5967 54.7159 40.8623V45.0684C54.7232 45.183 54.7003 45.2976 54.6494 45.4005C54.5987 45.4811 54.5306 45.5491 54.4502 45.5998C53.5743 45.9877 52.6525 46.2623 51.7072 46.417C50.4229 46.6582 49.1175 46.7694 47.811 46.7491C45.7149 46.7491 43.9585 46.4244 42.5422 45.775C41.2033 45.1852 40.0208 44.2907 39.0889 43.1629C38.2183 42.1002 37.5708 40.8729 37.185 39.5545C36.8029 38.2531 36.609 36.9038 36.6094 35.5476C36.6053 34.0667 36.837 32.5946 37.2957 31.1866C37.7375 29.8131 38.4361 28.536 39.3545 27.4232C41.3783 24.971 44.1637 23.949 47.2797 23.949C49.9648 23.949 52.7191 24.8382 54.4522 26.9804C55.1775 27.9164 55.7321 28.973 56.0903 30.1017C56.4392 31.1894 56.6183 32.3243 56.6217 33.4667C56.6217 34.1162 56.5995 34.7066 56.5552 35.2377C56.511 35.7689 56.4741 36.1527 56.4446 36.3888C56.4208 36.5909 56.2495 36.7431 56.0461 36.7431C55.8691 36.7431 55.5665 36.7652 55.1386 36.8094C54.7104 36.8536 54.1791 36.8832 53.5448 36.898C52.9092 36.9129 52.2383 36.8049 51.5298 36.8049ZM42.8077 32.7715H48.6077C49.3161 32.7715 49.84 32.7642 50.1795 32.7494C50.4066 32.7267 50.6259 32.654 50.8217 32.5366V32.2708C50.8128 31.9246 50.7531 31.5815 50.6446 31.2526C50.1536 29.7 48.6856 28.667 47.0584 28.729C45.5358 28.6369 44.1029 29.4532 43.4057 30.8098C43.102 31.4274 42.9002 32.0898 42.8077 32.7715Z" fill="#9999FF"/>
</g>
<defs>
<clipPath id="clip0_123_4724">
<rect width="66" height="66" fill="white"/>
</clipPath>
</defs>
</svg>
