<svg width="40" height="59" viewBox="0 0 40 59" fill="none" xmlns="http://www.w3.org/2000/svg">
<path d="M20.3359 29.4988C20.3359 24.0683 24.7382 19.666 30.1687 19.666C35.5992 19.666 40.0014 24.0684 40.0014 29.4988C40.0014 34.9294 35.599 39.3315 30.1687 39.3315C24.7381 39.3315 20.3359 34.9292 20.3359 29.4988Z" fill="#00BCFF"/>
<path d="M0.667969 49.164C0.667969 43.7335 5.07026 39.3312 10.5007 39.3312L15.7407 36.5647L20.3335 39.3312V49.164C20.3335 54.5945 15.9312 58.9967 10.5007 58.9967C5.07026 58.9967 0.667969 54.5944 0.667969 49.164Z" fill="#00CF7F"/>
<path d="M20.3349 0L14.9844 9.29545L20.3349 19.6655H30.0297C35.4603 19.6655 39.8625 15.2632 39.8625 9.83275C39.8625 4.40229 35.4602 0 30.0297 0H20.3349Z" fill="#FF7361"/>
<path d="M0.53125 9.83275C0.53125 15.2632 4.93354 19.6655 10.364 19.6655L15.58 21.6802L20.3347 19.6655V0H10.3639C4.93354 0 0.53125 4.40229 0.53125 9.83275Z" fill="#FF4D12"/>
<path d="M0.667969 29.4979C0.667969 34.9285 5.07026 39.3307 10.5007 39.3307H20.3335V19.665H10.5007C5.07026 19.665 0.667969 24.0674 0.667969 29.4979Z" fill="#B659FF"/>
</svg>
