<svg width="74" height="73" viewBox="0 0 74 73" fill="none" xmlns="http://www.w3.org/2000/svg">
<path d="M13.1042 0H60.8959C68.1417 0 74 5.85829 74 13.1042V59.0459C74 66.2917 68.1417 72.1501 60.8958 72.1501H13.1042C5.85829 72.15 0 66.2917 0 59.0458V13.1042C0 5.85829 5.85829 0 13.1042 0Z" fill="#390000"/>
<path d="M35.8617 43.2897H24.3917L22.0485 50.5355C21.9867 50.813 21.7402 50.998 21.4627 50.9672H15.666C15.3267 50.9672 15.2342 50.7822 15.3267 50.4122L25.255 21.8297C25.3475 21.5214 25.44 21.1822 25.5633 20.8122C25.6866 20.1647 25.7483 19.4864 25.7483 18.808C25.7175 18.6538 25.8408 18.4997 25.995 18.4688H26.0875H33.9808C34.2275 18.4688 34.3508 18.5613 34.3816 18.7155L45.6358 50.4738C45.7283 50.813 45.6358 50.967 45.3275 50.967H38.8833C38.6675 50.9978 38.4516 50.8437 38.39 50.6278L35.8617 43.2897ZM26.18 37.0305H34.0117L30.065 24.173L26.18 37.0305Z" fill="#FF9A00"/>
<path d="M52.3568 23.7413C51.3393 23.7721 50.3526 23.3713 49.6126 22.6621C48.9034 21.8913 48.5334 20.8738 48.5643 19.8254C48.5335 18.7771 48.9343 17.7904 49.6743 17.0812C50.4143 16.372 51.401 16.002 52.4185 16.002C53.621 16.002 54.546 16.372 55.2243 17.0812C55.9026 17.8212 56.2726 18.8079 56.2418 19.8254C56.2726 20.8737 55.9026 21.8912 55.1626 22.6621C54.4535 23.4021 53.4051 23.8029 52.3568 23.7413Z" fill="#FF9A00"/>
<path d="M48.9062 50.5045V26.7628C48.9062 26.4545 49.0295 26.3311 49.307 26.3311H55.412C55.6895 26.3311 55.8128 26.4853 55.8128 26.7628V50.5045C55.8128 50.8437 55.6895 50.9978 55.412 50.9978H49.3688C49.0603 50.9978 48.9062 50.8128 48.9062 50.5045Z" fill="#FF9A00"/>
</svg>
