<svg width="72" height="67" viewBox="0 0 72 67" fill="none" xmlns="http://www.w3.org/2000/svg">
<path d="M0 47.025V1.4625C0 0.675 0.675 0 1.4625 0H70.5375C71.325 0 72 0.675 72 1.4625V47.025H0Z" fill="#FE9A81"/>
<path d="M72 47.0254V52.8754C72 53.6629 71.325 54.3379 70.5375 54.3379H1.4625C0.675 54.3379 0 53.6629 0 52.8754V47.0254H72Z" fill="#E2E2E2"/>
<path d="M51.4109 64.6875H20.5859V66.15H51.4109V64.6875Z" fill="#E2E2E2"/>
<path d="M46.2367 64.6879H25.7617L27.2242 54.3379H44.7742L46.2367 64.6879Z" fill="#C9C9C9"/>
<path d="M44.7769 54.3379H27.2269L26.4102 60.1148L45.0402 56.1975L44.7769 54.3379Z" fill="#AAAAAA"/>
<path d="M69.0758 2.9248H2.92578V44.0998H69.0758V2.9248Z" fill="#FFCA28"/>
<path d="M26.7245 29.1328C26.7245 29.3836 26.5422 29.5783 26.252 29.5783C25.9752 29.5783 25.793 29.3825 25.793 29.1328C25.793 28.8763 25.982 28.6816 26.2587 28.6816C26.5422 28.6816 26.7188 28.8763 26.7245 29.1328Z" fill="black"/>
<path d="M22.4974 16.4677V15.5227L25.9084 15.517V18.505C25.3842 18.9224 24.8453 19.2363 24.2884 19.4478C23.7316 19.6582 23.1601 19.7628 22.5751 19.7628C21.7842 19.7628 21.0653 19.594 20.4196 19.2543C19.7727 18.9157 19.2844 18.4263 18.9548 17.785C18.6252 17.1438 18.4609 16.4283 18.4609 15.6374C18.4609 14.8544 18.6252 14.122 18.9526 13.4425C19.2811 12.763 19.7524 12.259 20.3678 11.9294C20.9832 11.5998 21.6919 11.4355 22.4941 11.4355C23.0768 11.4355 23.6022 11.53 24.0724 11.7179C24.5438 11.9069 24.9128 12.169 25.1794 12.5065C25.4461 12.844 25.6497 13.2828 25.7892 13.825L24.8284 14.0883C24.7081 13.6788 24.5573 13.3559 24.3784 13.1219C24.1996 12.8879 23.9419 12.7 23.6089 12.5594C23.2759 12.4177 22.9058 12.3479 22.4997 12.3479C22.0126 12.3479 21.5907 12.421 21.2363 12.5707C20.8819 12.718 20.5951 12.9138 20.3768 13.1557C20.1586 13.3975 19.9887 13.663 19.8683 13.9522C19.6624 14.4494 19.5612 14.9905 19.5612 15.5722C19.5612 16.2899 19.6849 16.8907 19.9313 17.3744C20.1799 17.8582 20.5388 18.217 21.0113 18.451C21.4838 18.685 21.9856 18.802 22.5166 18.802C22.9778 18.802 23.4289 18.7132 23.8677 18.5365C24.3076 18.3588 24.6406 18.1687 24.8678 17.9673V16.4677H22.4974Z" fill="#E21B1B"/>
<path d="M26.9844 16.7099C26.9844 15.6299 27.2848 14.8289 27.8855 14.3091C28.3873 13.8771 28.9981 13.6611 29.7204 13.6611C30.5225 13.6611 31.1784 13.9233 31.6869 14.4498C32.1954 14.9751 32.4508 15.7008 32.4508 16.6278C32.4508 17.3781 32.3371 17.9688 32.1132 18.3985C31.8871 18.8294 31.5598 19.1635 31.1289 19.402C30.6991 19.6405 30.2289 19.7586 29.7204 19.7586C28.9036 19.7586 28.2444 19.4976 27.7404 18.9734C27.2364 18.4491 26.9844 17.6954 26.9844 16.7099ZM28.0014 16.7099C28.0014 17.4569 28.1645 18.016 28.4908 18.3873C28.817 18.7596 29.2265 18.9453 29.7215 18.9453C30.2131 18.9453 30.6204 18.7585 30.9466 18.385C31.2729 18.0115 31.436 17.4423 31.436 16.6761C31.436 15.9539 31.2718 15.4083 30.9433 15.0359C30.6159 14.6646 30.2086 14.479 29.7215 14.479C29.2276 14.479 28.817 14.6635 28.4908 15.0336C28.1645 15.4038 28.0014 15.9629 28.0014 16.7099Z" fill="#E21B1B"/>
<path d="M33.2422 16.7099C33.2422 15.6299 33.5426 14.8289 34.1433 14.3091C34.6451 13.8771 35.2559 13.6611 35.9782 13.6611C36.7803 13.6611 37.4362 13.9233 37.9447 14.4498C38.4532 14.9751 38.7086 15.7008 38.7086 16.6278C38.7086 17.3781 38.5949 17.9688 38.3711 18.3985C38.1449 18.8294 37.8176 19.1635 37.3867 19.402C36.9569 19.6405 36.4867 19.7586 35.9782 19.7586C35.1614 19.7586 34.5022 19.4976 33.9982 18.9734C33.4931 18.4491 33.2422 17.6954 33.2422 16.7099ZM34.2581 16.7099C34.2581 17.4569 34.4212 18.016 34.7474 18.3873C35.0737 18.7596 35.4832 18.9453 35.9782 18.9453C36.4698 18.9453 36.8771 18.7585 37.2033 18.385C37.5296 18.0115 37.6927 17.4423 37.6927 16.6761C37.6927 15.9539 37.5284 15.4083 37.1999 15.0359C36.8726 14.6646 36.4653 14.479 35.9782 14.479C35.4843 14.479 35.0737 14.6635 34.7474 15.0336C34.4212 15.4038 34.2581 15.9629 34.2581 16.7099Z" fill="#E21B1B"/>
<path d="M39.6835 20.1108L40.6443 20.2536C40.6848 20.5506 40.7961 20.7666 40.9795 20.9016C41.2248 21.085 41.56 21.1761 41.9852 21.1761C42.4431 21.1761 42.7964 21.085 43.045 20.9016C43.2936 20.7183 43.4624 20.4618 43.5501 20.1321C43.6019 19.9308 43.6244 19.5078 43.621 18.8631C43.189 19.3716 42.6513 19.627 42.0055 19.627C41.2034 19.627 40.5824 19.3379 40.1436 18.7596C39.7049 18.1814 39.4844 17.4873 39.4844 16.6773C39.4844 16.1204 39.5856 15.6074 39.787 15.136C39.9884 14.6658 40.2798 14.3024 40.6623 14.0459C41.0459 13.7894 41.4948 13.6611 42.0111 13.6611C42.6996 13.6611 43.2666 13.939 43.7144 14.4959V13.7928H44.6267V18.835C44.6267 19.744 44.5345 20.3864 44.35 20.7666C44.1644 21.1446 43.8708 21.445 43.4714 21.6644C43.0698 21.8838 42.5759 21.994 41.9909 21.994C41.2956 21.994 40.7331 21.8365 40.3045 21.5249C39.8759 21.211 39.67 20.7396 39.6835 20.1108ZM40.5025 16.6053C40.5025 17.3714 40.6544 17.9294 40.9581 18.2804C41.2619 18.6314 41.6421 18.808 42.1011 18.808C42.5545 18.808 42.9359 18.6336 43.2441 18.2838C43.5513 17.9328 43.7054 17.3849 43.7054 16.6379C43.7054 15.9235 43.5468 15.3858 43.2306 15.0224C42.9134 14.6601 42.532 14.479 42.0843 14.479C41.6444 14.479 41.2709 14.6579 40.9638 15.0145C40.6566 15.3734 40.5025 15.9021 40.5025 16.6053Z" fill="#E21B1B"/>
<path d="M46.1016 19.627V11.5742H47.0904V19.627H46.1016Z" fill="#E21B1B"/>
<path d="M52.6163 17.7484L53.6378 17.8744C53.4758 18.4707 53.1788 18.9342 52.7423 19.2638C52.3058 19.5934 51.7501 19.7577 51.0728 19.7577C50.219 19.7577 49.5428 19.4955 49.0433 18.969C48.5427 18.4437 48.293 17.7068 48.293 16.7584C48.293 15.7774 48.5461 15.0147 49.0512 14.4735C49.5563 13.9324 50.2122 13.6602 51.0177 13.6602C51.7973 13.6602 52.4352 13.9257 52.9291 14.4567C53.423 14.9877 53.6705 15.7347 53.6705 16.6977C53.6705 16.7562 53.6682 16.8439 53.6648 16.9609H49.3145C49.3505 17.601 49.5316 18.0927 49.8578 18.4335C50.1841 18.7744 50.5902 18.9443 51.0773 18.9443C51.4396 18.9443 51.7501 18.8487 52.0055 18.6585C52.2608 18.4684 52.4656 18.1658 52.6163 17.7484ZM49.3696 16.1498H52.6276C52.5837 15.6582 52.46 15.2903 52.2541 15.0462C51.9391 14.6648 51.5307 14.4747 51.029 14.4747C50.5756 14.4747 50.1931 14.6265 49.8826 14.9303C49.5732 15.2352 49.4022 15.6413 49.3696 16.1498Z" fill="#E21B1B"/>
<path d="M27.2773 34.4473L30.37 26.3945H31.5186L34.8148 34.4473H33.601L32.6616 32.0083H29.2945L28.4102 34.4473H27.2773ZM29.6005 31.1398H32.3308L31.4905 28.91C31.234 28.2317 31.0438 27.6759 30.919 27.2405C30.8166 27.7569 30.6715 28.2699 30.4847 28.7784L29.6005 31.1398Z" fill="white"/>
<path d="M39.3219 34.4473V33.7115C38.9518 34.2909 38.4084 34.5789 37.6907 34.5789C37.2261 34.5789 36.7974 34.4507 36.4082 34.1942C36.0167 33.9377 35.7163 33.5799 35.5003 33.1198C35.2877 32.6608 35.1797 32.132 35.1797 31.5358C35.1797 30.953 35.2764 30.4254 35.4711 29.9518C35.6657 29.477 35.9571 29.1137 36.3441 28.8605C36.7311 28.6074 37.1653 28.4814 37.6457 28.4814C37.9967 28.4814 38.3106 28.5557 38.5851 28.703C38.8596 28.8527 39.0823 29.045 39.2556 29.2835V26.3945H40.2388V34.4473H39.3219ZM36.1967 31.5358C36.1967 32.2828 36.3542 32.8408 36.6692 33.2109C36.9842 33.581 37.3554 33.7655 37.7841 33.7655C38.2161 33.7655 38.5839 33.5889 38.8854 33.2357C39.1892 32.8824 39.3388 32.3424 39.3388 31.6179C39.3388 30.8192 39.1847 30.2342 38.8776 29.8607C38.5704 29.4872 38.1913 29.3004 37.7402 29.3004C37.3003 29.3004 36.9336 29.4793 36.6388 29.8393C36.3441 30.197 36.1967 30.7629 36.1967 31.5358Z" fill="white"/>
<path d="M41.4023 32.7058L42.38 32.5517C42.4351 32.9443 42.5881 33.2436 42.8378 33.4528C43.0898 33.6621 43.4397 33.7656 43.8908 33.7656C44.3442 33.7656 44.6817 33.6733 44.9011 33.4888C45.1205 33.3032 45.2307 33.0872 45.2307 32.8374C45.2307 32.6147 45.134 32.4392 44.9393 32.3098C44.8043 32.2221 44.4668 32.1096 43.9291 31.9746C43.2035 31.7912 42.7017 31.6326 42.4205 31.4998C42.1415 31.3659 41.9277 31.1814 41.7837 30.9441C41.6397 30.7089 41.5677 30.4479 41.5677 30.1622C41.5677 29.9023 41.6273 29.6616 41.7466 29.4388C41.8647 29.2183 42.0267 29.0338 42.2326 28.8876C42.3867 28.7739 42.596 28.6772 42.8615 28.5996C43.127 28.5208 43.4116 28.4814 43.7165 28.4814C44.1743 28.4814 44.576 28.5478 44.9225 28.6794C45.2678 28.8111 45.5232 28.9888 45.6886 29.2161C45.8528 29.4399 45.9665 29.7426 46.0295 30.1194L45.0631 30.2511C45.0192 29.9507 44.8921 29.7156 44.6817 29.5479C44.4702 29.3803 44.1732 29.2948 43.7885 29.2948C43.3351 29.2948 43.0111 29.3691 42.8165 29.5198C42.6218 29.6706 42.5251 29.8461 42.5251 30.0474C42.5251 30.1757 42.5656 30.2916 42.6455 30.3939C42.7253 30.5008 42.8525 30.5886 43.0246 30.6572C43.1236 30.6932 43.415 30.7776 43.8976 30.9103C44.5973 31.0971 45.0856 31.2501 45.3623 31.3693C45.638 31.4874 45.8551 31.6607 46.0126 31.8879C46.1701 32.1152 46.2488 32.3964 46.2488 32.7339C46.2488 33.0636 46.1532 33.3729 45.9597 33.6654C45.7685 33.9557 45.4906 34.1818 45.1283 34.3404C44.7661 34.5013 44.3555 34.5801 43.8976 34.5801C43.1393 34.5801 42.5611 34.4226 42.1651 34.1076C41.7657 33.7914 41.5115 33.3246 41.4023 32.7058Z" fill="white"/>
</svg>
