<svg width="54" height="61" viewBox="0 0 54 61" fill="none" xmlns="http://www.w3.org/2000/svg">
<path d="M10.6075 18.7344V44.9703C10.6075 47.0194 11.838 48.6269 13.9468 48.6269H16.6998C16.6053 48.6269 16.3932 49.3221 16.3932 49.6635V57.0942C16.3932 59.0362 18.2552 60.6109 20.2503 60.6109C22.2463 60.6109 24.1074 59.0362 24.1074 57.0942V49.6635C24.1074 49.3221 23.7352 48.6269 23.6436 48.6269H30.3588C30.2672 48.6269 29.893 49.3221 29.893 49.6635V57.0942C29.893 59.0362 31.7512 60.6109 33.7463 60.6109C35.7462 60.6109 37.6072 59.0362 37.6072 57.0942V49.6635C37.6072 49.3221 37.396 48.6269 37.3015 48.6269H40.0584C42.1673 48.6269 43.3929 47.0194 43.3929 44.9703V18.7344H10.3867H10.6075Z" fill="#57C927"/>
<path d="M3.8571 19.1621C1.86008 19.1621 0 20.7377 0 22.6788V37.736C0 39.678 1.86008 41.2527 3.8571 41.2527C5.85314 41.2527 7.71419 39.678 7.71419 37.736V22.6798C7.71419 20.7377 5.85314 19.1621 3.8571 19.1621Z" fill="#57C927"/>
<path d="M35.2983 5.0693L35.9714 4.08188L36.6454 3.10604L38.1468 0.912315C38.3348 0.64039 38.2567 0.277823 37.98 0.0994323C37.7061 -0.0828155 37.3272 -0.00663787 37.1478 0.263359L34.8557 3.60264L34.1663 4.60838C31.988 3.78489 29.5609 3.32589 26.9969 3.32589C24.4387 3.32589 22.0068 3.78585 19.8285 4.60838L19.1429 3.6036L18.465 2.61715L16.8547 0.265287C16.6686 -0.00567358 16.2944 -0.0770298 16.0167 0.101361C15.7419 0.280716 15.6657 0.643283 15.8489 0.914244L17.3493 3.10893L18.0234 4.08574L18.7003 5.07026C13.5858 7.38934 10.125 11.9851 10.125 16.8064H43.8698C43.8698 11.9851 40.41 7.38934 35.2983 5.0693ZM19.7658 12.1249C18.7639 12.1249 17.9568 11.3371 17.9568 10.3641C17.9568 9.39118 18.7639 8.60722 19.7658 8.60722C20.7648 8.60722 21.5738 9.39118 21.5738 10.3641C21.5738 11.3371 20.7658 12.1249 19.7658 12.1249ZM34.2299 12.1249C33.229 12.1249 32.42 11.3371 32.42 10.3641C32.42 9.39118 33.229 8.60722 34.2299 8.60722C35.2289 8.60722 36.0379 9.39118 36.0379 10.3641C36.0379 11.3371 35.2289 12.1249 34.2299 12.1249Z" fill="#57C927"/>
<path d="M4.02874 27.0226C2.52543 27.0226 0.964274 25.6041 0 23.3545V37.7366C0 39.6787 1.86008 41.2533 3.8571 41.2533C5.85314 41.2533 7.71419 39.6787 7.71419 37.7366V24.1047C6.74992 25.9117 5.35558 27.0226 4.02874 27.0226Z" fill="#1CB71C"/>
<path d="M50.1423 19.1621C48.1452 19.1621 46.2852 20.7377 46.2852 22.6788V37.736C46.2852 39.678 48.1452 41.2527 50.1423 41.2527C52.1383 41.2527 53.9993 39.678 53.9993 37.736V22.6798C53.9993 20.7377 52.1383 19.1621 50.1423 19.1621Z" fill="#57C927"/>
<path d="M50.31 27.0226C48.8067 27.0226 47.2455 25.6041 46.2812 23.3545V37.7366C46.2812 39.6787 48.1413 41.2533 50.1383 41.2533C52.1344 41.2533 53.9954 39.6787 53.9954 37.7366V24.1047C53.0312 25.9117 51.6368 27.0226 50.31 27.0226Z" fill="#1CB71C"/>
<path d="M26.9942 21.6163C19.3668 21.6163 12.5301 20.734 10.6016 19.4814V44.9711C10.6016 47.0201 11.832 48.6276 13.9408 48.6276H16.6938C16.5993 48.6276 16.3872 49.3228 16.3872 49.6642V57.0949C16.3872 59.0369 18.2492 60.6116 20.2443 60.6116C22.2403 60.6116 24.1014 59.0369 24.1014 57.0949V49.6642C24.1014 49.3228 23.7292 48.6276 23.6376 48.6276H30.3528C30.2612 48.6276 29.887 49.3228 29.887 49.6642V57.0949C29.887 59.0369 31.7452 60.6116 33.7403 60.6116C35.7402 60.6116 37.6012 59.0369 37.6012 57.0949V49.6642C37.6012 49.3228 37.3901 48.6276 37.2956 48.6276H40.0524C42.1613 48.6276 43.3869 47.0201 43.3869 44.9711V19.4805C41.4583 20.7331 34.6226 21.6163 26.9942 21.6163Z" fill="#1CB71C"/>
<path d="M36.0379 10.3627C36.0379 11.3357 35.2289 12.1235 34.2299 12.1235C33.229 12.1235 32.42 11.3357 32.42 10.3627C32.42 9.83524 32.662 9.3695 33.039 9.04743C31.1327 8.72922 29.1048 8.55469 26.9969 8.55469C24.889 8.55469 22.8621 8.72922 20.9548 9.04743C21.3328 9.36854 21.5748 9.83524 21.5748 10.3627C21.5748 11.3357 20.7658 12.1235 19.7668 12.1235C18.7649 12.1235 17.9578 11.3357 17.9578 10.3627C17.9578 10.1139 18.0128 9.87767 18.1082 9.66264C15.2173 10.4225 12.7334 11.5314 10.8588 12.8939C10.3863 14.1349 10.125 15.8417 10.125 16.806H43.8698C43.8698 15.8417 43.6085 14.1359 43.1369 12.8958C41.2633 11.5314 38.7784 10.4206 35.8894 9.66071C35.9839 9.87574 36.0379 10.1149 36.0379 10.3627Z" fill="#1CB71C"/>
<path d="M27.002 31.6786C20.5057 31.6786 14.4665 30.3971 10.6094 28.2969V44.9711C10.6094 47.0202 11.8398 48.6276 13.9487 48.6276H16.7017C16.6072 48.6276 16.395 49.3229 16.395 49.6642V57.0949C16.395 59.037 18.257 60.6116 20.2521 60.6116C22.2482 60.6116 24.1092 59.037 24.1092 57.0949V49.6642C24.1092 49.3229 23.737 48.6276 23.6454 48.6276H30.3606C30.269 48.6276 29.8949 49.3229 29.8949 49.6642V57.0949C29.8949 59.037 31.753 60.6116 33.7481 60.6116C35.748 60.6116 37.609 59.037 37.609 57.0949V49.6642C37.609 49.3229 37.3979 48.6276 37.3034 48.6276H40.0602C42.1691 48.6276 43.3947 47.0202 43.3947 44.9711V28.2969C39.5376 30.398 33.4983 31.6786 27.002 31.6786Z" fill="#049E42"/>
</svg>
