<svg width="76" height="60" viewBox="0 0 76 60" fill="none" xmlns="http://www.w3.org/2000/svg">
<path d="M72.7301 48.7055H3.27452C1.80036 48.7055 0.605469 47.5106 0.605469 46.0364V3.27256C0.605469 1.7984 1.80036 0.603516 3.27452 0.603516H72.7301C74.2042 0.603516 75.3991 1.7984 75.3991 3.27256V46.0364C75.3991 47.5106 74.2042 48.7055 72.7301 48.7055Z" fill="#F4EFED"/>
<path d="M72.7268 0.603516H69.7109C71.1851 0.603516 72.38 1.7984 72.38 3.27256V46.0364C72.38 47.5106 71.1851 48.7055 69.7109 48.7055H72.7268C74.201 48.7055 75.3959 47.5106 75.3959 46.0364V3.27256C75.3959 1.7984 74.201 0.603516 72.7268 0.603516Z" fill="#D6D1CF"/>
<path d="M3.27452 48.7055H6.29039C4.81623 48.7055 3.62134 47.5106 3.62134 46.0364V3.27256C3.62134 1.7984 4.81623 0.603516 6.29039 0.603516H3.27452C1.80036 0.603516 0.605469 1.7984 0.605469 3.27256V46.0364C0.605469 47.5106 1.80036 48.7055 3.27452 48.7055Z" fill="white"/>
<path d="M62.399 58.6152H13.6016V55.0401C13.6016 53.566 14.7965 52.3711 16.2706 52.3711H59.7299C61.2041 52.3711 62.399 53.566 62.399 55.0401V58.6152Z" fill="#526FAA"/>
<path d="M59.7307 52.3711H56.7148C58.189 52.3711 59.3839 53.566 59.3839 55.0401V58.6155H62.3998V55.0401C62.3998 53.566 61.2049 52.3711 59.7307 52.3711Z" fill="#34518C"/>
<path d="M16.2706 52.3711H19.2865C17.8123 52.3711 16.6174 53.566 16.6174 55.0401V58.6155H13.6016V55.0401C13.6016 53.566 14.7965 52.3711 16.2706 52.3711Z" fill="#708DC8"/>
<path d="M23.6758 48.7051H52.3245V52.3712H23.6758V48.7051Z" fill="#34518C"/>
<path d="M3.01333 11.8234C2.68038 11.8234 2.41016 11.5532 2.41016 11.2203V7.60122C2.41016 7.26827 2.68038 6.99805 3.01333 6.99805C3.34628 6.99805 3.61651 7.26827 3.61651 7.60122V11.2203C3.61651 11.5532 3.34628 11.8234 3.01333 11.8234Z" fill="#690589"/>
<path d="M62.4006 59.218H13.6032C13.2702 59.218 13 58.9478 13 58.6148V55.0398C13 53.2354 14.4678 51.7676 16.2722 51.7676H59.7316C61.536 51.7676 63.0038 53.2354 63.0038 55.0398V58.6148C63.0038 58.9481 62.7336 59.218 62.4006 59.218ZM14.2063 58.0116H61.7974V55.0398C61.7974 53.9007 60.8707 52.9739 59.7316 52.9739H16.2722C15.1331 52.9739 14.2063 53.9007 14.2063 55.0398V58.0116Z" fill="#690589"/>
<path d="M52.3225 52.9747H23.6735C23.3405 52.9747 23.0703 52.7045 23.0703 52.3715V48.7057C23.0703 48.3728 23.3405 48.1025 23.6735 48.1025H52.3222C52.6551 48.1025 52.9253 48.3728 52.9253 48.7057V52.3715C52.9256 52.7045 52.6554 52.9747 52.3225 52.9747ZM24.2767 51.7683H51.719V49.3089H24.2767V51.7683Z" fill="#690589"/>
<path d="M72.7278 49.3083H3.27222C1.46783 49.3083 0 47.8405 0 46.0361V3.27222C0 1.46783 1.46783 0 3.27222 0H72.7278C74.5322 0 76 1.46783 76 3.27222V46.0361C76 47.8405 74.5322 49.3083 72.7278 49.3083ZM3.27222 1.20635C2.13313 1.20635 1.20635 2.13313 1.20635 3.27222V46.0361C1.20635 47.1752 2.13313 48.102 3.27222 48.102H72.7278C73.8669 48.102 74.7937 47.1752 74.7937 46.0361V3.27222C74.7937 2.13313 73.8669 1.20635 72.7278 1.20635H3.27222Z" fill="#690589"/>
<path d="M50.4632 39.898H25.5364C17.1176 39.898 10.293 33.0734 10.293 24.6546C10.293 16.2361 17.1176 9.41113 25.5364 9.41113H50.4635C58.8823 9.41113 65.7069 16.2358 65.7069 24.6546C65.7066 33.0734 58.882 39.898 50.4632 39.898Z" fill="#8852A8"/>
<path d="M50.4604 9.41113H47.7461C56.1649 9.41113 62.9895 16.2358 62.9895 24.6546C62.9895 33.0734 56.1649 39.898 47.7461 39.898H50.4604C58.8792 39.898 65.7038 33.0734 65.7038 24.6546C65.7038 16.2358 58.8792 9.41113 50.4604 9.41113Z" fill="#6A348A"/>
<path d="M25.5364 39.898H28.2507C19.8319 39.898 13.0073 33.0734 13.0073 24.6546C13.0073 16.2361 19.8319 9.41113 28.2507 9.41113H25.5364C17.1176 9.41113 10.293 16.2358 10.293 24.6546C10.293 33.0734 17.1176 39.898 25.5364 39.898Z" fill="#A670C6"/>
<path d="M50.4648 40.5005H25.538C16.8001 40.5005 9.69141 33.3918 9.69141 24.6542C9.69141 15.9163 16.8001 8.80762 25.538 8.80762H50.4648C59.2027 8.80762 66.3114 15.9163 66.3114 24.6542C66.3114 33.3921 59.2027 40.5005 50.4648 40.5005ZM25.538 10.0137C17.4654 10.0137 10.8978 16.5813 10.8978 24.6539C10.8978 32.7265 17.4654 39.2942 25.538 39.2942H50.4648C58.5374 39.2942 65.1051 32.7268 65.1051 24.6542C65.1051 16.5813 58.5374 10.014 50.4648 10.014L25.538 10.0137Z" fill="#690589"/>
<path d="M64.767 34.4648L61.0653 34.147L57.3633 33.8291L57.6812 37.5311L57.999 41.2328L60.0194 39.2124L65.4654 44.6582L68.1924 41.9312L62.7463 36.4855L64.767 34.4648Z" fill="#526FAA"/>
<path d="M65.4632 45.2609C65.3088 45.2609 65.1544 45.2021 65.0368 45.0841L60.0174 40.0648L58.4232 41.6587C58.258 41.8249 58.011 41.8795 57.7899 41.799C57.5695 41.7184 57.4156 41.5176 57.3957 41.2838L56.76 33.8802C56.7449 33.7029 56.8086 33.5279 56.9346 33.4022C57.0604 33.2764 57.2347 33.2134 57.4126 33.2275L64.8163 33.8633C65.05 33.8832 65.2509 34.037 65.3314 34.2575C65.4119 34.4779 65.357 34.7249 65.1912 34.8908L63.597 36.485L68.6163 41.5043C68.7294 41.6174 68.793 41.7709 68.793 41.9308C68.793 42.0906 68.7294 42.2441 68.6163 42.3572L65.8893 45.0841C65.772 45.2021 65.6173 45.2609 65.4632 45.2609ZM60.0174 38.6088C60.1719 38.6088 60.3263 38.6676 60.4439 38.7855L65.4632 43.8048L67.337 41.9311L62.3176 36.9117C62.2046 36.7986 62.1409 36.6451 62.1409 36.4853C62.1409 36.3255 62.2046 36.1719 62.3176 36.0589L63.4218 34.9547L58.0233 34.4912L58.4869 39.8896L59.591 38.7858C59.7086 38.6676 59.863 38.6088 60.0174 38.6088Z" fill="#690589"/>
<path d="M24.3791 26.6909H21.7734V31.288C21.7734 31.9235 21.2438 32.4531 20.5869 32.4531C19.9515 32.4531 19.4219 31.9238 19.4219 31.288V18.7891C19.4219 18.1322 19.9515 17.624 20.5869 17.624H20.608H24.3788C26.8997 17.624 28.9333 19.6576 28.9333 22.1786C28.9339 24.6573 26.9 26.6909 24.3791 26.6909ZM21.7734 24.3392H24.3791C25.6077 24.3392 26.5611 23.3647 26.5822 22.1786C26.5607 20.9499 25.6077 19.9752 24.3791 19.9752H21.7734V24.3392Z" fill="#F4EFED"/>
<path d="M36.7267 26.6909H34.121V31.288C34.121 31.9235 33.5914 32.4531 32.9346 32.4531C32.2991 32.4531 31.7695 31.9238 31.7695 31.288V18.7891C31.7695 18.1322 32.2991 17.624 32.9346 17.624H32.9557H36.7264C39.2474 17.624 41.281 19.6576 41.281 22.1786C41.2813 24.6573 39.2477 26.6909 36.7267 26.6909ZM34.121 24.3392H36.7267C37.9554 24.3392 38.9087 23.3647 38.9298 22.1786C38.9087 20.9499 37.9554 19.9752 36.7267 19.9752H34.121V24.3392Z" fill="#F4EFED"/>
<path d="M43.4609 24.8264C43.4824 20.632 46.9989 17.2213 51.2356 17.2002C53.0997 17.2002 54.7946 17.8145 56.1291 18.8526C56.6376 19.276 56.7223 20.0176 56.3411 20.5472C55.9174 21.0768 55.1336 21.1615 54.6462 20.7803C53.7143 20.0176 52.549 19.615 51.2356 19.615C49.7738 19.615 48.4178 20.2085 47.4223 21.1404C46.469 22.1149 45.8757 23.3861 45.8757 24.8264C45.8757 26.2668 46.469 27.5805 47.4223 28.5124C48.4178 29.4446 49.7738 30.0379 51.2356 30.0379C52.549 30.0379 53.6929 29.6352 54.6462 28.8725C55.1336 28.5124 55.9174 28.5975 56.3411 29.1054C56.7223 29.6349 56.6376 30.3977 56.1291 30.8003C54.7946 31.838 53.0997 32.4524 51.2356 32.4524C46.9989 32.4527 43.4824 29.042 43.4609 24.8264Z" fill="#F4EFED"/>
<path d="M62.1495 19.589C66.4216 19.589 69.8849 16.1257 69.8849 11.8536C69.8849 7.58143 66.4216 4.11816 62.1495 4.11816C57.8773 4.11816 54.4141 7.58143 54.4141 11.8536C54.4141 16.1257 57.8773 19.589 62.1495 19.589Z" fill="#FCC24C"/>
<path d="M62.1475 4.11816C61.8999 4.11816 61.6556 4.13113 61.4141 4.15375C65.3419 4.5235 68.416 7.82889 68.416 11.8536C68.416 15.8783 65.3419 19.1837 61.4141 19.5534C61.6556 19.576 61.9002 19.589 62.1475 19.589C66.4198 19.589 69.8829 16.1259 69.8829 11.8536C69.8829 7.58159 66.4198 4.11816 62.1475 4.11816Z" fill="#DEA42E"/>
<path d="M62.1495 19.589C62.3971 19.589 62.6414 19.576 62.8829 19.5534C58.9551 19.1837 55.881 15.8783 55.881 11.8536C55.881 7.82889 58.9551 4.5235 62.8829 4.15375C62.6414 4.13113 62.3968 4.11816 62.1495 4.11816C57.8772 4.11816 54.4141 7.58159 54.4141 11.8536C54.4141 16.1256 57.8772 19.589 62.1495 19.589Z" fill="#FCE06A"/>
<path d="M62.1472 20.1918C57.5492 20.1918 53.8086 16.4512 53.8086 11.8532C53.8086 7.25523 57.5492 3.51465 62.1472 3.51465C66.7452 3.51465 70.4858 7.25523 70.4858 11.8532C70.4858 16.4512 66.7452 20.1918 62.1472 20.1918ZM62.1472 4.721C58.2145 4.721 55.0149 7.92054 55.0149 11.8532C55.0149 15.7859 58.2145 18.9855 62.1472 18.9855C66.0802 18.9855 69.2794 15.7859 69.2794 11.8532C69.2794 7.92054 66.0799 4.721 62.1472 4.721Z" fill="#690589"/>
<path d="M62.1445 7.21875C62.4075 7.21875 62.6156 7.42685 62.6156 7.68983V7.9308C63.2619 8.0074 63.8096 8.2158 64.3135 8.53337C64.489 8.63199 64.6423 8.79635 64.6423 9.05904C64.6423 9.39862 64.3684 9.66161 64.0288 9.66161C63.9194 9.66161 63.8099 9.62873 63.7004 9.56299C63.3171 9.33288 62.9443 9.16881 62.5722 9.08105V11.1843C64.2372 11.6008 64.9493 12.2688 64.9493 13.4411C64.9493 14.6462 64.0071 15.4457 62.6159 15.5772V16.2347C62.6159 16.4977 62.4078 16.7058 62.1448 16.7058C61.8818 16.7058 61.6626 16.4977 61.6626 16.2347V15.5555C60.841 15.4678 60.0853 15.1722 59.417 14.7011C59.2306 14.5808 59.1211 14.4053 59.1211 14.1755C59.1211 13.8359 59.3841 13.5729 59.7237 13.5729C59.8552 13.5729 59.9863 13.6166 60.0853 13.6932C60.6001 14.0657 61.104 14.3175 61.7066 14.4273V12.2691C60.107 11.8529 59.3621 11.2504 59.3621 10.0124C59.3621 8.84008 60.2934 8.02942 61.6626 7.91994V7.68983C61.6623 7.42715 61.8815 7.21875 62.1445 7.21875ZM61.7063 10.9545V9.01561C61.0051 9.08135 60.6547 9.45381 60.6547 9.93575C60.6547 10.3957 60.8628 10.6807 61.7063 10.9545ZM62.5716 12.4772V14.471C63.2727 14.3944 63.6561 14.0437 63.6561 13.518C63.6564 13.0358 63.4151 12.7399 62.5716 12.4772Z" fill="#690589"/>
</svg>
