<svg width="72" height="58" viewBox="0 0 72 58" fill="none" xmlns="http://www.w3.org/2000/svg">
<path fill-rule="evenodd" clip-rule="evenodd" d="M44.4934 46.6152L22.0909 46.9025L17.1137 55.4433C16.895 55.8186 17.1907 56.23 17.5657 56.23H49.1857C49.5607 56.23 49.8563 55.8186 49.6378 55.4433L44.4934 46.6152Z" fill="#004960"/>
<path fill-rule="evenodd" clip-rule="evenodd" d="M62.2541 1.12891C64.1056 1.12891 65.6207 2.64397 65.6207 4.49548V43.7153C65.6207 45.567 64.1055 47.0819 62.2541 47.0819H4.49939C2.64802 47.0819 1.13281 45.5671 1.13281 43.7153V4.49548C1.13281 2.64369 2.64788 1.12891 4.49939 1.12891H62.2541Z" fill="#E6F8FF"/>
<path fill-rule="evenodd" clip-rule="evenodd" d="M65.6208 42.752H1.13281V45.0224C1.13281 46.8742 2.64788 48.3889 4.49939 48.3889H62.2541C64.1056 48.3889 65.6207 46.8742 65.6207 45.0224V42.752H65.6208Z" fill="#003748"/>
<path fill-rule="evenodd" clip-rule="evenodd" d="M7.72881 36.0811H11.5983C11.9093 36.0811 12.163 36.3348 12.163 36.6458V42.1866C12.163 42.4977 11.9093 42.7514 11.5983 42.7514H7.72881C7.41777 42.7514 7.16406 42.4977 7.16406 42.1866V36.6458C7.16406 36.3346 7.41777 36.0811 7.72881 36.0811Z" fill="#FC685B"/>
<path fill-rule="evenodd" clip-rule="evenodd" d="M15.8147 32.5068H19.6842C19.9953 32.5068 20.249 32.7605 20.249 33.0716V42.187C20.249 42.498 19.9953 42.7517 19.6842 42.7517H15.8147C15.5037 42.7517 15.25 42.498 15.25 42.187V33.0716C15.25 32.7605 15.5037 32.5068 15.8147 32.5068Z" fill="#FFDA2D"/>
<path fill-rule="evenodd" clip-rule="evenodd" d="M23.9046 28.9316H27.7741C28.0851 28.9316 28.3388 29.1854 28.3388 29.4964V42.1864C28.3388 42.4975 28.0851 42.7512 27.7741 42.7512H23.9046C23.5936 42.7512 23.3398 42.4975 23.3398 42.1864V29.4964C23.3398 29.1854 23.5936 28.9316 23.9046 28.9316Z" fill="#72D561"/>
<path fill-rule="evenodd" clip-rule="evenodd" d="M31.9905 25.3574H35.86C36.171 25.3574 36.4247 25.6111 36.4247 25.9222V42.1868C36.4247 42.4978 36.171 42.7515 35.86 42.7515H31.9905C31.6795 42.7515 31.4258 42.4978 31.4258 42.1868V25.9222C31.4258 25.6111 31.6795 25.3574 31.9905 25.3574Z" fill="#64B5F6"/>
<path fill-rule="evenodd" clip-rule="evenodd" d="M69.8865 47.3203L54.6094 51.4139L55.4556 54.572C55.5361 54.8721 55.8471 55.0518 56.1473 54.9713L70.3335 51.1702C70.6335 51.0898 70.8133 50.7785 70.7328 50.4785L69.8865 47.3203Z" fill="#64B5F6"/>
<path fill-rule="evenodd" clip-rule="evenodd" d="M21.9833 6.4834L23.3372 9.70399L26.8184 9.99638L24.1738 12.2791L24.9715 15.6802L21.9833 13.8705L18.9951 15.6802L19.7928 12.2791L17.1484 9.99638L20.6295 9.70399L21.9833 6.4834Z" fill="#FFDA2D"/>
<path fill-rule="evenodd" clip-rule="evenodd" d="M9.68271 6.4834L11.0365 9.70399L14.5178 9.99638L11.8732 12.2791L12.6709 15.6802L9.68271 13.8705L6.69451 15.6802L7.49221 12.2791L4.84766 9.99638L8.32888 9.70399L9.68271 6.4834Z" fill="#FFDA2D"/>
<path fill-rule="evenodd" clip-rule="evenodd" d="M34.2804 6.4834L35.6342 9.70399L39.1153 9.99638L36.4709 12.2791L37.2686 15.6802L34.2804 13.8705L31.2922 15.6802L32.0899 12.2791L29.4453 9.99638L32.9265 9.70399L34.2804 6.4834Z" fill="#FFDA2D"/>
<path fill-rule="evenodd" clip-rule="evenodd" d="M50.1001 4.37793L52.2653 9.52867L57.8328 9.99614L53.6033 13.6471L54.8792 19.0867L50.1001 16.1925L45.3209 19.0867L46.5967 13.6471L42.3672 9.99614L47.9349 9.52867L50.1001 4.37793Z" fill="#FFDA2D"/>
<path fill-rule="evenodd" clip-rule="evenodd" d="M69.2879 48.8126C69.2654 48.733 54.8453 52.3037 54.8224 52.2264C53.2565 46.9356 50.7056 47.0408 44.2065 40.4972C40.7935 37.0607 42.9913 32.4301 46.4008 34.9914L51.6332 38.9221L47.5095 23.5327C47.1884 22.3344 47.9061 21.0911 49.1045 20.77C50.3008 20.4494 51.5422 21.1642 51.8657 22.3596L55.0098 34.0936C54.6887 32.8952 55.4064 31.6521 56.6047 31.3309C57.8031 31.0098 59.0464 31.7276 59.3675 32.9258L59.5908 33.7595C59.2757 32.564 59.9928 31.3262 61.1882 31.0059C62.3866 30.6848 63.6299 31.4026 63.9509 32.601L64.2478 33.7089C63.9266 32.5105 64.6444 31.2672 65.8428 30.9461C67.0412 30.6251 68.2845 31.343 68.6055 32.5412L69.5083 35.9109C70.1966 38.4792 71.4177 44.5398 69.2879 48.8126Z" fill="#FFD6BD"/>
<path fill-rule="evenodd" clip-rule="evenodd" d="M29.4192 20.2501C29.579 20.5327 29.6123 20.8714 29.5125 21.179L28.2672 24.8287C28.1074 25.2989 27.6679 25.5954 27.1951 25.5954C27.0752 25.5954 26.9553 25.5757 26.8355 25.5346C26.2428 25.3327 25.9298 24.6918 26.1295 24.1015L26.4026 23.2954L10.3347 32.5728C10.1549 32.6746 9.96179 32.724 9.76865 32.724C9.38236 32.724 9.00286 32.5222 8.78981 32.1593C8.48343 31.6184 8.6633 30.9282 9.20263 30.616L25.2706 21.3401L24.4383 21.1749C23.8257 21.0533 23.4328 20.4591 23.5526 19.8478C23.6725 19.2349 24.265 18.8383 24.8778 18.9581L28.66 19.7081C28.9797 19.77 29.2593 19.9693 29.4192 20.2501ZM48.0242 10.6539C48.4438 10.6184 48.8101 10.3544 48.9765 9.96631L50.0953 7.29211L51.2207 9.96631C51.3871 10.3544 51.7467 10.6184 52.1662 10.6539L55.0561 10.8967L52.8653 12.7927C52.5457 13.0666 52.4059 13.4958 52.4991 13.9052L53.1651 16.729L50.6813 15.2267C50.3217 15.0093 49.8756 15.0078 49.5093 15.2267L47.0322 16.729L47.6914 13.9052C47.7913 13.4958 47.6515 13.0666 47.3318 12.7927L45.1344 10.8967L48.0242 10.6539ZM45.3407 14.055L44.2153 18.8284C44.1155 19.2719 44.2886 19.7333 44.6548 20.0002C45.0211 20.2686 45.5138 20.2884 45.9067 20.0525L50.0951 17.5125L54.2903 20.0525C54.4701 20.1625 54.6765 20.2164 54.8762 20.2164C55.1093 20.2164 55.3424 20.1444 55.5421 20.0002C55.9083 19.7334 56.0814 19.2719 55.975 18.8284L54.8563 14.055L58.5653 10.8514C58.9116 10.5549 59.0448 10.0791 58.905 9.64709C58.7652 9.21506 58.3789 8.90868 57.9261 8.8707L53.0384 8.45971L51.1406 3.9405C50.9607 3.52117 50.5547 3.24854 50.0951 3.24854C49.6423 3.24854 49.2295 3.52117 49.0563 3.9405L47.1585 8.45971L42.2709 8.8707C41.8181 8.90868 41.4318 9.21506 41.2921 9.64709C41.1523 10.0793 41.2854 10.5549 41.625 10.8514L45.3407 14.055ZM33.0217 10.8288C33.4345 10.7935 33.8007 10.5295 33.9672 10.1414L34.2802 9.39874L34.5932 10.1414C34.753 10.5295 35.1193 10.7935 35.5387 10.8288L36.3445 10.8967L35.7319 11.4248C35.4122 11.6987 35.2725 12.1279 35.3656 12.5373L35.5521 13.3223L34.8663 12.9042C34.5 12.6868 34.0539 12.6868 33.6943 12.9042L33.0018 13.3223L33.1883 12.5373C33.2815 12.1279 33.1417 11.6987 32.8287 11.4248L32.2161 10.8967L33.0217 10.8288ZM30.8309 12.687L30.1916 15.4231C30.085 15.8651 30.2582 16.3267 30.6245 16.5937C30.8243 16.7374 31.0574 16.8096 31.2903 16.8096C31.4901 16.8096 31.6965 16.7559 31.8764 16.646L34.2802 15.1916L36.684 16.646C37.0703 16.8816 37.563 16.8606 37.9293 16.5937C38.2955 16.3269 38.4688 15.8651 38.3688 15.4219L37.7229 12.6871L39.8538 10.8517C40.1933 10.5552 40.3266 10.0794 40.1867 9.64737C40.0469 9.21534 39.6606 8.90897 39.2079 8.87099L36.4045 8.63662L35.319 6.04558C35.146 5.62626 34.7331 5.35405 34.2802 5.35405C33.8208 5.35405 33.4146 5.6264 33.2347 6.04558L32.1493 8.63662L29.3459 8.87099C28.8931 8.90897 28.5068 9.21534 28.3671 9.64737C28.2273 10.0795 28.3604 10.5552 28.7067 10.8517L30.8309 12.687ZM8.42357 10.8288C8.8364 10.7935 9.20263 10.5295 9.36909 10.1414L9.6821 9.39874L9.98833 10.1414C10.1548 10.5295 10.521 10.7935 10.9405 10.8288L11.7396 10.8967L11.1336 11.4248C10.814 11.6987 10.6742 12.1279 10.7674 12.5373L10.9539 13.3223L10.2614 12.9042C9.90178 12.6868 9.45564 12.6868 9.09604 12.9042L8.40352 13.3223L8.58989 12.5373C8.68307 12.1279 8.54329 11.6987 8.22365 11.4248L7.61768 10.8967L8.42357 10.8288ZM6.23279 12.687L5.5935 15.4217C5.4869 15.8649 5.66014 16.3267 6.02638 16.5936C6.39261 16.8617 6.88535 16.8814 7.27827 16.6458L9.6821 15.1915L12.0859 16.6458C12.259 16.7558 12.4654 16.8094 12.6652 16.8094C12.8983 16.8094 13.1314 16.7374 13.3312 16.5936C13.6974 16.3267 13.8705 15.8649 13.7641 15.423L13.1248 12.6868L15.2491 10.8514C15.5952 10.5549 15.7285 10.0791 15.5886 9.64709C15.4487 9.21506 15.0625 8.90868 14.6098 8.8707L11.8064 8.63634L10.7209 6.0453C10.5411 5.62597 10.135 5.35377 9.6821 5.35377C9.22268 5.35377 8.81635 5.62611 8.63662 6.0453L7.55118 8.63634L4.7478 8.8707C4.29501 8.90868 3.90873 9.21506 3.76896 9.64709C3.62904 10.0793 3.76232 10.5549 4.10851 10.8514L6.23279 12.687ZM20.7161 10.8288C21.1355 10.7935 21.5018 10.5295 21.6684 10.1414L21.9814 9.39874L22.2944 10.1414C22.4542 10.5295 22.8204 10.7935 23.2399 10.8288L24.039 10.8967L23.433 11.4248C23.1134 11.6987 22.9735 12.1279 23.0668 12.5373L23.2533 13.3223L22.5608 12.9042C22.3811 12.7955 22.1813 12.7403 21.9815 12.7403C21.7751 12.7403 21.5753 12.7955 21.3954 12.9042L20.7029 13.3223L20.8894 12.5373C20.9826 12.1279 20.8428 11.6987 20.5232 11.4248L19.9172 10.8967L20.7161 10.8288ZM18.5318 12.687L17.8925 15.4217C17.7859 15.8649 17.9591 16.3267 18.3254 16.5936C18.6916 16.8617 19.1843 16.8814 19.5773 16.6458L21.9811 15.1915L24.3783 16.6458C24.5646 16.7558 24.7644 16.8094 24.9643 16.8094C25.1974 16.8094 25.4304 16.7374 25.6302 16.5936C25.9964 16.3267 26.1695 15.8649 26.0697 15.423L25.4238 12.6868L27.5479 10.8514C27.8942 10.5549 28.0274 10.0791 27.8876 9.64709C27.7478 9.21506 27.3615 8.90868 26.9087 8.8707L24.112 8.63634L23.0199 6.0453C22.8468 5.62597 22.434 5.35377 21.9811 5.35377C21.5215 5.35377 21.1155 5.62611 20.9356 6.0453L19.8502 8.63634L17.0468 8.8707C16.594 8.90868 16.2077 9.21506 16.0679 9.64709C15.9282 10.0793 16.0613 10.5549 16.4075 10.8514L18.5318 12.687ZM56.4012 53.7339L55.9884 52.2118L69.0865 48.7033L69.4926 50.2253L56.4012 53.7339ZM48.1308 55.099H18.6185L21.8746 49.518H44.8745L48.1308 55.099ZM2.25742 45.0227V43.8806H46.1265C47.2385 44.8758 48.1974 45.6666 49.0432 46.3584C49.4361 46.6817 49.7957 46.978 50.1286 47.2591H4.49479C3.26295 47.2591 2.25742 46.2552 2.25742 45.0227ZM8.29043 41.6214V37.2109H11.034V41.6214H8.29043ZM16.3811 41.6214V33.636H19.1178V41.6214H16.3811ZM24.465 41.6214H27.2083V30.0613H24.465V41.6214ZM32.5556 41.6214V26.4865H35.2924V41.6214H32.5556ZM4.49479 2.25883C3.2628 2.25883 2.25742 3.26139 2.25742 4.49522V41.6213H6.03301V36.0812C6.03301 35.4571 6.53916 34.9517 7.16504 34.9517H12.1592C12.7851 34.9517 13.2912 35.4571 13.2912 36.0812V41.6213H14.1235V32.5063C14.1235 31.8824 14.6297 31.377 15.2489 31.377H20.2497C20.8756 31.377 21.3817 31.8824 21.3817 32.5063V41.6213H22.2074V28.9318C22.2074 28.3078 22.7134 27.8023 23.3394 27.8023H28.3402C28.9595 27.8023 29.4656 28.3078 29.4656 28.9318V41.6214H30.2979V25.3568C30.2979 24.7343 30.8039 24.2273 31.4233 24.2273H36.4241C37.0501 24.2273 37.5561 24.7343 37.5561 25.3568V41.6216H43.7289C43.6223 41.5144 43.5159 41.4057 43.4026 41.2929C40.9454 38.822 40.8988 35.7202 42.2706 34.1472C43.1563 33.1236 44.9541 32.4939 47.0784 34.0879L49.6954 36.0534L46.4192 23.8251C46.1795 22.954 46.306 22.0421 46.7588 21.2571C47.2116 20.4736 47.9374 19.913 48.8098 19.6786C50.6076 19.1972 52.4655 20.2672 52.9516 22.0647L55.2689 30.7162C55.5819 30.5016 55.9349 30.3408 56.3077 30.2392C57.18 30.0061 58.0923 30.1276 58.878 30.5807C59.0246 30.667 59.171 30.7643 59.3043 30.8701C59.7171 30.4227 60.2632 30.0839 60.8957 29.9145C62.0544 29.6036 63.2397 29.9383 64.0653 30.6979C64.1985 30.5707 64.3384 30.4551 64.4916 30.3492V4.49536C64.4916 3.26139 63.486 2.25897 62.2542 2.25897L4.49479 2.25883ZM67.5149 32.8328C67.3485 32.234 66.7359 31.8755 66.1299 32.0366C65.5305 32.1974 65.1776 32.816 65.3374 33.416C65.4972 34.0186 65.1376 34.6385 64.5383 34.7995C63.9323 34.9604 63.3131 34.6031 63.1533 34.0018L62.8603 32.8933C62.6938 32.2932 62.0811 31.9361 61.4753 32.0972C60.8826 32.2566 60.523 32.8737 60.6829 33.4723C60.8428 34.0738 60.4832 34.6906 59.8772 34.8502C59.2779 35.0113 58.6586 34.6525 58.4988 34.0511L58.2725 33.2182C58.1992 32.93 58.0127 32.6873 57.7464 32.5361C57.4868 32.3849 57.1804 32.3441 56.8941 32.4216C56.6077 32.4979 56.3614 32.6856 56.2148 32.9471C56.0616 33.2082 56.0217 33.5103 56.095 33.7985L56.1016 33.801L56.4546 35.1424C56.621 35.7439 56.2614 36.3637 55.6554 36.5246C55.5621 36.5515 55.4623 36.5642 55.3691 36.5642C54.8698 36.5642 54.4102 36.231 54.2771 35.7269L50.7744 22.6517C50.6079 22.0558 49.9953 21.7 49.396 21.8609C49.103 21.9372 48.8633 22.1249 48.7101 22.3861C48.5637 22.6489 48.5236 22.9524 48.5969 23.2403L52.7188 38.6297C52.8453 39.0941 52.6656 39.5882 52.266 39.858C51.8598 40.1277 51.3404 40.1134 50.9542 39.8254L45.7203 35.8934C45.2742 35.5588 44.4552 35.0789 43.9691 35.6309C43.383 36.3072 43.4163 38.0973 45.0079 39.7012C47.272 41.98 49.0499 43.4398 50.4749 44.6132C52.6791 46.4202 54.164 47.6415 55.2428 50.0742L68.9601 46.3978C69.9056 42.597 68.9069 38.0466 68.4141 36.2026L67.5149 32.8328ZM71.9697 50.7323L71.0575 47.3241C72.2828 42.9191 71.1507 37.6968 70.5981 35.6184L69.6926 32.2483C69.3197 30.8475 68.1144 29.889 66.7493 29.7565V4.49536C66.7493 2.01599 64.7316 0 62.2545 0H4.49479C2.01769 0 0 2.01585 0 4.49536V45.0227C0 47.5006 2.01769 49.5181 4.49479 49.5181H19.2576L16.1346 54.8733C15.8348 55.3914 15.8282 56.0084 16.1279 56.5225C16.4209 57.0391 16.9736 57.3582 17.5663 57.3582H49.1829C49.7756 57.3582 50.3282 57.0389 50.6213 56.5225C50.9143 56.0084 50.9143 55.3914 50.6147 54.8733L47.4917 49.5181H52.3461C52.9121 50.3144 53.3516 51.2418 53.7377 52.5467V52.5451L54.5101 55.4098C54.6433 55.9138 55.1028 56.247 55.6022 56.247C55.6954 56.247 55.7954 56.2343 55.8885 56.209L71.1708 52.1145C71.4571 52.0367 71.7035 51.8477 71.8567 51.5894C72.0031 51.3295 72.043 51.0202 71.9697 50.7323Z" fill="black"/>
</svg>
