<svg width="68" height="70" viewBox="0 0 68 70" fill="none" xmlns="http://www.w3.org/2000/svg">
<path d="M66.2243 12.0167V15.0156H0.0703125V12.0167C0.0703125 5.38948 5.43831 0.0214844 12.0656 0.0214844H54.2291C60.8563 0.0214843 66.2243 5.38948 66.2243 12.0167Z" fill="#33527D"/>
<path d="M66.2282 15.0195V48.4786C66.2282 55.1146 60.853 60.4797 54.2274 60.4797H12.0645C5.43883 60.4797 0.0742188 55.1146 0.0742188 48.4786V15.0195H66.2282Z" fill="#E5E8EF"/>
<path d="M66.2243 48.4824V52.0201C66.2243 58.6473 60.8563 64.0153 54.2291 64.0153H12.0656C5.43831 64.0153 0.0703125 58.6473 0.0703125 52.0201V48.4824C0.0703125 55.1097 5.43831 60.4777 12.0656 60.4777H54.2291C60.8563 60.4777 66.2243 55.1097 66.2243 48.4824Z" fill="#CDD4DF"/>
<path d="M12.1422 7.51826C12.1422 8.78674 11.1377 9.81778 9.86918 9.81778C8.60071 9.81778 7.57031 8.78674 7.57031 7.51826C7.57031 6.24979 8.60071 5.21875 9.86918 5.21875C11.1377 5.21875 12.1422 6.24979 12.1422 7.51826Z" fill="#4CC66E"/>
<path d="M19.2913 7.51826C19.2913 8.78674 18.2603 9.81778 17.0183 9.81778C15.7498 9.81778 14.7188 8.78674 14.7188 7.51826C14.7188 6.24979 15.7498 5.21875 17.0183 5.21875C18.2603 5.21875 19.2913 6.24979 19.2913 7.51826Z" fill="#FFBE00"/>
<path d="M26.4391 7.51826C26.4391 8.78674 25.4081 9.81778 24.1667 9.81778C22.8976 9.81778 21.8672 8.78674 21.8672 7.51826C21.8672 6.24979 22.8976 5.21875 24.1667 5.21875C25.4081 5.21875 26.4391 6.24979 26.4391 7.51826Z" fill="#B244F1"/>
<path d="M18.6851 23.2289V30.8192C18.6851 31.7923 17.8982 32.5794 16.9249 32.5794H9.3344C8.36134 32.5794 7.57422 31.7923 7.57422 30.8192V23.2289C7.57422 22.2641 8.36134 21.4688 9.3344 21.4688H16.9249C17.8982 21.4688 18.6851 22.2641 18.6851 23.2289Z" fill="#ADB9CA"/>
<path d="M59.3757 24.2783V36.3937C59.3757 37.9469 58.1196 39.2032 56.5661 39.2032H26.9619C25.4087 39.2032 24.1523 37.9469 24.1523 36.3937V24.2783C24.1523 22.7383 25.4087 21.4688 26.9619 21.4688H56.5661C58.1196 21.4688 59.3757 22.7383 59.3757 24.2783Z" fill="#ADB9CA"/>
<path d="M18.6851 44.6879V52.2782C18.6851 53.2513 17.8982 54.0384 16.9249 54.0384H9.3344C8.36134 54.0384 7.57422 53.2513 7.57422 52.2782V44.6879C7.57422 43.7231 8.36134 42.9277 9.3344 42.9277H16.9249C17.8982 42.9277 18.6851 43.7231 18.6851 44.6879Z" fill="#ADB9CA"/>
<path d="M18.6843 37.7493V37.7576C18.6843 38.5571 18.0381 39.2037 17.2384 39.2037H9.01642C8.21695 39.2037 7.57031 38.5571 7.57031 37.7576V37.7493C7.57031 36.9499 8.21695 36.2949 9.01642 36.2949H17.2384C18.0381 36.2949 18.6843 36.9499 18.6843 37.7493Z" fill="#ADB9CA"/>
<path d="M35.2663 45.8362V45.8446C35.2663 46.644 34.6201 47.2907 33.8204 47.2907H25.5984C24.799 47.2907 24.1523 46.644 24.1523 45.8446V45.8362C24.1523 45.0368 24.799 44.3818 25.5984 44.3818H33.8204C34.6201 44.3818 35.2663 45.0368 35.2663 45.8362Z" fill="#ADB9CA"/>
<path d="M49.4304 45.8362V45.8446C49.4304 46.644 48.7841 47.2907 47.9845 47.2907H39.7625C38.963 47.2907 38.3164 46.644 38.3164 45.8446V45.8362C38.3164 45.0368 38.963 44.3818 39.7625 44.3818H47.9845C48.7841 44.3818 49.4304 45.0368 49.4304 45.8362Z" fill="#ADB9CA"/>
<path d="M59.3769 45.8362V45.8446C59.3769 46.644 58.7306 47.2907 57.931 47.2907H53.9227C53.1232 47.2907 52.4766 46.644 52.4766 45.8446V45.8362C52.4766 45.0368 53.1232 44.3818 53.9227 44.3818H57.931C58.7306 44.3818 59.3769 45.0368 59.3769 45.8362Z" fill="#ADB9CA"/>
<path d="M31.0526 52.5843V52.5926C31.0526 53.3921 30.4064 54.0387 29.6067 54.0387H25.5984C24.799 54.0387 24.1523 53.3921 24.1523 52.5926V52.5843C24.1523 51.7848 24.799 51.1299 25.5984 51.1299H29.6067C30.4064 51.1299 31.0526 51.7848 31.0526 52.5843Z" fill="#ADB9CA"/>
<path d="M40.9589 52.5843V52.5926C40.9589 53.3921 40.3127 54.0387 39.513 54.0387H35.5047C34.7052 54.0387 34.0586 53.3921 34.0586 52.5926V52.5843C34.0586 51.7848 34.7052 51.1299 35.5047 51.1299H39.513C40.3127 51.1299 40.9589 51.7848 40.9589 52.5843Z" fill="#ADB9CA"/>
<path d="M50.8612 52.5843V52.5926C50.8612 53.3921 50.215 54.0387 49.4153 54.0387H45.407C44.6076 54.0387 43.9609 53.3921 43.9609 52.5926V52.5843C43.9609 51.7848 44.6076 51.1299 45.407 51.1299H49.4153C50.215 51.1299 50.8612 51.7848 50.8612 52.5843Z" fill="#ADB9CA"/>
<path d="M20.125 54.8174L51.1817 23.7606L62.1612 34.7401L31.1045 65.7969L20.125 54.8174Z" fill="#008732"/>
<path d="M20.125 54.8164L51.1817 23.7597L56.6715 29.2494L25.6147 60.3061L20.125 54.8164Z" fill="#4CC66E"/>
<path d="M23.6836 58.3789L54.7403 27.3222L58.5953 31.1771L27.5386 62.2339L23.6836 58.3789Z" fill="#14A142"/>
<path d="M51.1836 23.7627L53.0384 21.9079L64.0179 32.8874L62.1631 34.7422L51.1836 23.7627Z" fill="#E5E8EF"/>
<path d="M53.0469 21.9043L55.8039 19.1474C57.4211 17.5302 60.0432 17.5303 61.6604 19.1475L66.7848 24.272C68.402 25.8892 68.402 28.5112 66.7848 30.1284L64.0278 32.8852L53.0469 21.9043Z" fill="#B244F1"/>
<path d="M61.6571 19.1463L65.4599 22.9488C63.8467 21.3359 61.2211 21.3359 59.6078 22.9487L56.8493 25.7071L53.0469 21.9046L55.8054 19.1462C57.4182 17.5333 60.0443 17.5333 61.6571 19.1463Z" fill="#8D30D6"/>
<path d="M31.1136 65.8003L23.8823 68.1847L17.75 62.0522L20.1344 54.8213L31.1136 65.8003Z" fill="#FFD80C"/>
<path d="M17.747 62.0518L16.4053 66.1253C15.7141 68.2236 17.7055 70.215 19.8039 69.5239L23.8775 68.1824L17.747 62.0518Z" fill="#435E88"/>
</svg>
