<svg width="66" height="66" viewBox="0 0 66 66" fill="none" xmlns="http://www.w3.org/2000/svg">
<g clip-path="url(#clip0_200_9949)">
<path d="M11.6875 0.825195H54.3125C60.7673 0.825195 66 6.05787 66 12.5127V53.4878C66 59.9426 60.7673 65.1752 54.3125 65.1752H11.6875C5.23268 65.1752 0 59.9426 0 53.4878V12.5127C0 6.05787 5.23268 0.825195 11.6875 0.825195Z" fill="#470137"/>
<path d="M34.6965 17.7484L26.4613 31.3408L35.272 45.7745C35.3285 45.8754 35.3443 45.9942 35.3164 46.1065C35.2866 46.2103 35.1836 46.1449 35.0065 46.174H28.7195C28.2766 46.174 27.9667 46.1585 27.7896 45.863C27.1988 44.7119 26.6085 43.5682 26.0186 42.4317C25.4278 41.2957 24.8006 40.1371 24.137 38.9561C23.4729 37.776 22.8161 36.5806 22.1667 35.3698H22.1224C21.5316 36.5507 20.9191 37.7314 20.2849 38.9118C19.6499 40.0927 19.0227 41.266 18.4033 42.4316C17.7834 43.5979 17.1488 44.7565 16.4995 45.9072C16.3812 46.1729 16.1743 46.2002 15.8795 46.2002H9.81385C9.69616 46.2002 9.62978 46.2468 9.61457 46.1285C9.59794 46.0205 9.62153 45.9103 9.68108 45.8187L18.226 31.7835L9.90241 17.7041C9.81385 17.5865 9.79916 17.4906 9.85807 17.4164C9.92432 17.3398 10.0228 17.2988 10.1239 17.3056H16.3665C16.5026 17.2982 16.6387 17.3209 16.7651 17.3722C16.8709 17.4321 16.9618 17.5154 17.0307 17.6157C17.5621 18.7965 18.1524 19.9772 18.8017 21.1576C19.4508 22.3385 20.1074 23.5044 20.772 24.6554C21.4361 25.8065 22.0487 26.9724 22.6095 28.1532H22.6539C23.2438 26.9432 23.8416 25.7626 24.447 24.6112C25.0517 23.4601 25.6715 22.3015 26.3064 21.1356C26.9409 19.9699 27.5534 18.8114 28.1439 17.66C28.1779 17.5507 28.2388 17.4518 28.3211 17.3723C28.4304 17.3169 28.5532 17.2938 28.6753 17.3058H34.4753C34.6113 17.2723 34.7488 17.3553 34.7824 17.4913C34.8056 17.5863 34.7723 17.6864 34.6965 17.7484Z" fill="#FF61F6"/>
<path d="M47.4037 46.7484C45.3658 46.7794 43.3466 46.3559 41.4929 45.5087C39.7662 44.7095 38.3226 43.4048 37.3534 41.7674C36.3495 40.1001 35.8478 38.0118 35.848 35.5024C35.8314 33.4704 36.3506 31.4699 37.3534 29.7023C38.3863 27.9021 39.9054 26.429 41.7366 25.4519C43.6549 24.3894 45.9719 23.858 48.6878 23.858C48.8351 23.858 49.0269 23.8654 49.2633 23.8802C49.4992 23.8954 49.7797 23.9174 50.1046 23.9466V15.2244C50.1046 15.0183 50.1932 14.9145 50.3704 14.9145H55.9489C56.0773 14.8962 56.1962 14.9854 56.2145 15.1138C56.2176 15.1358 56.2176 15.1581 56.2145 15.1802V41.3468C56.2145 41.849 56.2367 42.3951 56.2809 42.985C56.3253 43.5758 56.3621 44.1071 56.3917 44.5789C56.4027 44.7671 56.2973 44.9429 56.1259 45.0217C54.6867 45.6218 53.1877 46.0672 51.6542 46.3499C50.252 46.6087 48.8296 46.742 47.4037 46.7484ZM50.1044 41.2583V29.1713C49.8652 29.1064 49.6208 29.062 49.3739 29.0384C49.0723 29.0081 48.7694 28.9932 48.4662 28.9941C47.3918 28.9834 46.33 29.2262 45.367 29.7025C44.429 30.1687 43.6281 30.8705 43.0426 31.7391C42.4373 32.6246 42.1348 33.7905 42.1349 35.2369C42.1134 36.202 42.271 37.1628 42.5997 38.0704C42.8673 38.8018 43.2902 39.4665 43.8395 40.0186C44.3653 40.5266 45.0018 40.9054 45.6989 41.1254C46.4353 41.3639 47.205 41.4834 47.9791 41.4795C48.3921 41.4795 48.7758 41.4647 49.1302 41.4353C49.4604 41.4106 49.7868 41.3512 50.1044 41.2583Z" fill="#FF61F6"/>
</g>
<defs>
<clipPath id="clip0_200_9949">
<rect width="66" height="66" fill="white"/>
</clipPath>
</defs>
</svg>
