<svg width="74" height="69" viewBox="0 0 74 69" fill="none" xmlns="http://www.w3.org/2000/svg">
<path d="M0 13.083V63.958C0 66.511 2.072 68.583 4.625 68.583H69.375C71.928 68.583 74 66.511 74 63.958V13.083H0Z" fill="#ECEFF0"/>
<path d="M0 16.1667V5.375C0 2.822 2.072 0.75 4.625 0.75H69.375C71.928 0.75 74 2.822 74 5.375V16.1667H0Z" fill="#333333"/>
<path d="M9.2513 11.5417C10.9542 11.5417 12.3346 10.1612 12.3346 8.45833C12.3346 6.75546 10.9542 5.375 9.2513 5.375C7.54842 5.375 6.16797 6.75546 6.16797 8.45833C6.16797 10.1612 7.54842 11.5417 9.2513 11.5417Z" fill="#E33324"/>
<path d="M18.5013 11.5417C20.2042 11.5417 21.5846 10.1612 21.5846 8.45833C21.5846 6.75546 20.2042 5.375 18.5013 5.375C16.7984 5.375 15.418 6.75546 15.418 8.45833C15.418 10.1612 16.7984 11.5417 18.5013 11.5417Z" fill="#FFB202"/>
<path d="M27.7513 11.5417C29.4542 11.5417 30.8346 10.1612 30.8346 8.45833C30.8346 6.75546 29.4542 5.375 27.7513 5.375C26.0484 5.375 24.668 6.75546 24.668 8.45833C24.668 10.1612 26.0484 11.5417 27.7513 11.5417Z" fill="#3B9C00"/>
<path d="M0 16.167H74V19.2503H0V16.167Z" fill="#FFD259"/>
<path d="M0 16.167H12.3333V19.2503H0V16.167Z" fill="#F54F33"/>
<path d="M3.08203 22.333H49.332V50.083H3.08203V22.333Z" fill="#E33324"/>
<path d="M55.5 22.333H70.9167V34.6663H55.5V22.333Z" fill="#F54F33"/>
<path d="M55.5 37.75H70.9167V50.0833H55.5V37.75Z" fill="#F54F33"/>
<path opacity="0.15" d="M3.08203 50.083H49.332V22.333L3.08203 50.083Z" fill="black"/>
<path opacity="0.15" d="M55.5 22.333V34.6663L70.9167 22.333H55.5Z" fill="white"/>
<path opacity="0.15" d="M55.5 37.75V50.0833L70.9167 37.75H55.5Z" fill="white"/>
<path d="M48.5612 56.2497H3.85286C3.42736 56.2497 3.08203 55.9043 3.08203 55.4788C3.08203 55.0533 3.42736 54.708 3.85286 54.708H48.5612C48.9867 54.708 49.332 55.0533 49.332 55.4788C49.332 55.9043 48.9867 56.2497 48.5612 56.2497Z" fill="#C8CCD5"/>
<path d="M21.582 28.5V43.9167L33.9154 36.2083L21.582 28.5Z" fill="#ECEFF0"/>
<path d="M48.5612 60.8747H3.85286C3.42736 60.8747 3.08203 60.5293 3.08203 60.1038C3.08203 59.6783 3.42736 59.333 3.85286 59.333H48.5612C48.9867 59.333 49.332 59.6783 49.332 60.1038C49.332 60.5293 48.9867 60.8747 48.5612 60.8747Z" fill="#C8CCD5"/>
</svg>
