<svg width="62" height="62" viewBox="0 0 62 62" fill="none" xmlns="http://www.w3.org/2000/svg">
<path d="M30.539 55.2904C16.892 55.2904 5.78906 44.1878 5.78906 30.5405C5.78906 16.8935 16.892 5.79102 30.539 5.79102C44.1859 5.79102 55.2884 16.8935 55.2884 30.5405C55.2884 44.1878 44.1859 55.2904 30.539 55.2904ZM30.539 7.80631C18.003 7.80631 7.80482 18.0049 7.80482 30.5405C7.80482 43.0765 18.003 53.2746 30.539 53.2746C43.0745 53.2746 53.2731 43.0765 53.2731 30.5405C53.2731 18.0049 43.0745 7.80631 30.539 7.80631Z" fill="#FFD151"/>
<path d="M22.8251 11.4128C22.8251 17.7155 17.7153 22.8253 11.4125 22.8253C5.10932 22.8253 0 17.7155 0 11.4128C0 5.11003 5.10932 0.000244141 11.4125 0.000244141C17.7153 0.000244141 22.8251 5.11003 22.8251 11.4128Z" fill="#64E8FF"/>
<path d="M11.4107 0C10.7473 0 10.0974 0.05734 9.46484 0.16596C14.8408 1.08946 18.932 5.77269 18.932 11.4125C18.932 17.0524 14.8408 21.7356 9.46484 22.6591C10.0974 22.7677 10.7473 22.8251 11.4107 22.8251C17.7134 22.8251 22.8232 17.7153 22.8232 11.4125C22.8232 5.10979 17.7134 0 11.4107 0Z" fill="#0FD9FF"/>
<path d="M61.0785 11.4125C61.0785 17.7153 55.9692 22.8251 49.666 22.8251C43.3632 22.8251 38.2539 17.7153 38.2539 11.4125C38.2539 5.10979 43.3632 0 49.666 0C55.9692 0 61.0785 5.10979 61.0785 11.4125Z" fill="#6193FF"/>
<path d="M61.0745 11.0858C60.8941 4.78543 55.6402 -0.175643 49.3403 0.00476862C48.7398 0.0220173 48.152 0.0854176 47.5791 0.19124C52.7546 1.1497 56.7413 5.61197 56.898 11.0858C57.0616 16.7858 53.0161 21.6289 47.5781 22.6336C48.3594 22.7785 49.1673 22.8438 49.9934 22.8205C56.2938 22.6396 61.2549 17.3863 61.0745 11.0858Z" fill="#407BFF"/>
<path d="M22.8251 49.6908C22.8251 55.9941 17.7153 61.1034 11.4125 61.1034C5.10932 61.1034 0 55.9941 0 49.6908C0 43.3881 5.10932 38.2783 11.4125 38.2783C17.7153 38.2783 22.8251 43.3881 22.8251 49.6908Z" fill="#FF6969"/>
<path d="M11.4104 38.2783C10.5265 38.2783 9.66591 38.379 8.83984 38.5692C13.9049 39.7351 17.6819 44.272 17.6819 49.6908C17.6819 55.1102 13.9049 59.6466 8.83984 60.8125C9.66591 61.0027 10.5265 61.1034 11.4104 61.1034C17.7131 61.1034 22.8229 55.9941 22.8229 49.6908C22.8229 43.3881 17.7131 38.2783 11.4104 38.2783Z" fill="#FF4848"/>
<path d="M61.0785 49.6908C61.0785 55.9941 55.9692 61.1034 49.666 61.1034C43.3632 61.1034 38.2539 55.9941 38.2539 49.6908C38.2539 43.3881 43.3632 38.2783 49.666 38.2783C55.9692 38.2783 61.0785 43.3881 61.0785 49.6908Z" fill="#FF95C2"/>
<path d="M49.6678 38.2783C48.8795 38.2783 48.1103 38.3585 47.3672 38.5105C52.5674 39.5748 56.4791 44.176 56.4791 49.6908C56.4791 55.2057 52.5674 59.8069 47.3672 60.8712C48.1103 61.0232 48.8795 61.1034 49.6678 61.1034C55.9705 61.1034 61.0798 55.9941 61.0798 49.6908C61.0798 43.3881 55.9705 38.2783 49.6678 38.2783Z" fill="#FF758E"/>
<path d="M16.8053 6.9711C16.3699 7.23356 15.9032 7.441 15.4151 7.58785C14.507 6.54361 12.9248 6.43359 11.8806 7.34171C11.3249 7.82514 11.0098 8.5286 11.0195 9.26563V9.82458C9.12127 9.87399 7.31902 9.01622 6.1601 7.52585C6.08131 7.42469 5.92141 7.45033 5.87946 7.57107C5.49952 8.65866 4.46134 12.6408 8.78282 14.5614C7.81317 15.2192 6.68781 15.6015 5.52609 15.6728C5.3564 15.683 5.31119 15.9119 5.46549 15.9833C10.3748 18.2508 16.0529 15.4271 16.0529 9.24838C16.0524 9.09268 16.037 8.93744 16.0081 8.78453C16.4706 8.32814 16.823 7.77432 17.0412 7.16596C17.092 7.02377 16.9349 6.89324 16.8053 6.9711Z" fill="white"/>
<path d="M48.8633 18.6462C48.3067 18.6462 47.8555 18.1949 47.8555 17.6383V7.71612C47.8555 5.76609 49.4419 4.17969 51.3919 4.17969H52.5853C53.1419 4.17969 53.5932 4.63095 53.5932 5.18757C53.5932 5.74418 53.1419 6.19498 52.5853 6.19498H51.3919C50.5532 6.19498 49.8708 6.87747 49.8708 7.71612V17.6383C49.8708 18.1949 49.4195 18.6462 48.8633 18.6462Z" fill="white"/>
<path d="M51.2075 12.2257H46.6329C46.0763 12.2257 45.625 11.7745 45.625 11.2178C45.625 10.6612 46.0763 10.21 46.6329 10.21H51.2075C51.7641 10.21 52.2154 10.6612 52.2154 11.2178C52.2154 11.7745 51.7641 12.2257 51.2075 12.2257Z" fill="white"/>
<path d="M8.97266 49.5659V45.9409C8.97266 45.6738 9.26122 45.5074 9.49245 45.6407L12.6303 47.4532L15.7686 49.2657C15.9994 49.3995 15.9994 49.7328 15.7686 49.8666L12.6303 51.6791L9.49245 53.4916C9.26122 53.625 8.97266 53.4581 8.97266 53.1914V49.5659Z" fill="white"/>
<path d="M53.6731 56.3077H45.6609C44.2218 56.3077 43.0508 55.1366 43.0508 53.6976V45.6853C43.0508 44.2458 44.2218 43.0752 45.6609 43.0752H53.6731C55.1122 43.0752 56.2833 44.2458 56.2833 45.6853V53.6976C56.2833 55.1366 55.1122 56.3077 53.6731 56.3077ZM45.6609 45.0905C45.3327 45.0905 45.0661 45.3571 45.0661 45.6853V53.6976C45.0661 54.0253 45.3327 54.2919 45.6609 54.2919H53.6731C54.0009 54.2919 54.268 54.0253 54.268 53.6976V45.6853C54.268 45.3571 54.0009 45.0905 53.6731 45.0905H45.6609Z" fill="white"/>
<path d="M49.6656 52.564C48.0815 52.564 46.793 51.275 46.793 49.691C46.793 48.1069 48.0815 46.8184 49.6656 46.8184C51.2496 46.8184 52.5386 48.1069 52.5386 49.691C52.5386 51.275 51.2496 52.564 49.6656 52.564ZM49.6656 48.8337C49.1929 48.8337 48.8083 49.2182 48.8083 49.691C48.8083 50.1637 49.1929 50.5483 49.6656 50.5483C50.1387 50.5483 50.5229 50.1637 50.5229 49.691C50.5233 49.2182 50.1387 48.8337 49.6656 48.8337Z" fill="white"/>
<path d="M26.9766 39.7193L26.6115 32.6973C26.5826 32.1416 26.1095 31.7159 25.5528 31.7434C24.9972 31.7724 24.5701 32.2465 24.599 32.8021L24.9641 39.8242C24.992 40.3622 25.4368 40.7794 25.9696 40.7794C25.9873 40.7794 26.0046 40.7789 26.0228 40.778C26.5784 40.7491 27.0055 40.2755 26.9766 39.7193Z" fill="#83A7C5"/>
<path d="M28.1099 32.7494H23.8882C23.3758 32.7494 22.9609 32.334 22.9609 31.8217V26.979C22.9609 26.4671 23.3758 26.0518 23.8882 26.0518H28.1099C28.1896 26.0518 28.2544 26.1166 28.2544 26.1963V32.6048C28.2544 32.6846 28.1896 32.7494 28.1099 32.7494Z" fill="#FF95C2"/>
<path d="M37.2129 35.9704C35.9584 35.2016 34.3944 34.3765 32.5306 33.66C30.9671 33.0586 29.5168 32.6586 28.2539 32.3882C28.2539 30.3967 28.2539 28.4057 28.2539 26.4146C29.5205 26.1452 30.9787 25.7447 32.5525 25.1387C34.4098 24.4231 35.9664 23.5984 37.2129 22.832V35.9704Z" fill="#E5F4FF"/>
<path d="M37.211 37.914C36.6544 37.914 36.2031 37.4627 36.2031 36.9061V21.8956C36.2031 21.339 36.6544 20.8877 37.211 20.8877C37.7676 20.8877 38.2189 21.339 38.2189 21.8956V36.9061C38.2189 37.4627 37.7676 37.914 37.211 37.914Z" fill="#6464FF"/>
</svg>
