<svg width="68" height="67" viewBox="0 0 68 67" fill="none" xmlns="http://www.w3.org/2000/svg">
<path d="M12.0417 0H55.9584C62.6167 0 68 5.38329 68 12.0417V54.2584C68 60.9167 62.6167 66.3001 55.9583 66.3001H12.0417C5.38329 66.3 0 60.9167 0 54.2583V12.0417C0 5.38329 5.38329 0 12.0417 0Z" fill="#001834"/>
<path d="M15.3008 46.4941V17.3391C15.3008 17.1408 15.3858 17.0274 15.5841 17.0274C16.0658 17.0274 16.5191 17.0274 17.1708 16.9991C17.8508 16.9708 18.5591 16.9708 19.3241 16.9424C20.0891 16.914 20.9108 16.9141 21.7891 16.8857C22.6674 16.8574 23.5174 16.8574 24.3674 16.8574C26.6907 16.8574 28.6174 17.1407 30.2041 17.7357C31.6208 18.2174 32.9241 19.0107 34.0008 20.059C34.9075 20.9657 35.6158 22.0707 36.0691 23.289C36.4941 24.479 36.7208 25.6973 36.7208 26.9723C36.7208 29.409 36.1541 31.4206 35.0208 33.0073C33.8875 34.594 32.3008 35.784 30.4591 36.464C28.5324 37.1723 26.4074 37.4273 24.0841 37.4273C23.4041 37.4273 22.9508 37.4273 22.6674 37.399C22.3841 37.3707 21.9874 37.3707 21.4491 37.3707V46.4657C21.4774 46.664 21.3358 46.834 21.1374 46.8624C21.1091 46.8624 21.0806 46.8624 21.0241 46.8624H15.6408C15.4141 46.8624 15.3008 46.7491 15.3008 46.4941ZM21.4775 22.4958V32.0158C21.8742 32.0441 22.2425 32.0726 22.5825 32.0726H24.0842C26.0407 32.0726 28.3002 31.6128 29.6658 30.061C30.841 28.7254 30.8444 26.0769 29.8925 24.621C28.7625 22.8927 26.5029 22.392 24.5658 22.4393C23.8291 22.4393 23.1775 22.4393 22.6391 22.4676C22.0725 22.4391 21.6758 22.4674 21.4775 22.4958Z" fill="#00A9FF"/>
<path d="M54.398 30.2871C53.548 29.8338 52.6413 29.5221 51.678 29.3238C50.6297 29.0971 49.5813 28.9555 48.5047 28.9555C47.938 28.9272 47.343 29.0122 46.8047 29.1538C46.4364 29.2388 46.1247 29.4371 45.9264 29.7205C45.7847 29.9472 45.6997 30.2305 45.6997 30.4855C45.6997 30.7405 45.813 30.9955 45.983 31.2222C46.238 31.5339 46.578 31.7889 46.9463 31.9872C47.598 32.3272 48.278 32.6389 48.958 32.9222C50.488 33.4322 51.9613 34.1405 53.3213 34.9905C54.2563 35.5855 55.0213 36.3788 55.5596 37.3422C56.0128 38.2489 56.2396 39.2405 56.2113 40.2605C56.2396 41.5922 55.843 42.9238 55.1063 44.0288C54.313 45.1621 53.208 46.0405 51.933 46.5505C50.5447 47.1455 48.8447 47.4572 46.8047 47.4572C45.5014 47.4572 44.2264 47.3439 42.9514 47.0889C41.9597 46.9189 40.9681 46.6072 40.0614 46.1822C39.8631 46.0689 39.7214 45.8705 39.7497 45.6439V40.7139C39.7497 40.6289 39.778 40.5156 39.863 40.4589C39.948 40.4022 40.033 40.4306 40.118 40.4872C41.223 41.1389 42.3847 41.5922 43.6313 41.8755C44.708 42.1588 45.8413 42.3005 46.9746 42.3005C48.0513 42.3005 48.8163 42.1588 49.3263 41.9038C49.7796 41.7055 50.0913 41.2238 50.0913 40.7138C50.0913 40.3171 49.8646 39.9488 49.4113 39.5805C48.958 39.2122 48.023 38.7872 46.6346 38.2488C45.1896 37.7388 43.8578 37.0588 42.6113 36.2088C41.733 35.5855 40.9963 34.7638 40.458 33.8005C40.0047 32.8938 39.778 31.9022 39.8063 30.9105C39.8063 29.6922 40.1463 28.5305 40.7696 27.4822C41.4778 26.3489 42.5263 25.4422 43.7446 24.8755C45.0763 24.1955 46.7478 23.8838 48.7596 23.8838C49.9213 23.8838 51.1113 23.9688 52.2728 24.1388C53.1228 24.2521 53.9446 24.4788 54.7096 24.7905C54.8229 24.8188 54.9363 24.9322 54.9928 25.0455C55.0211 25.1588 55.0496 25.2722 55.0496 25.3855V30.0038C55.0496 30.1171 54.9928 30.2305 54.9078 30.2871C54.653 30.3438 54.5113 30.3438 54.398 30.2871Z" fill="#00A9FF"/>
</svg>
