<svg width="84" height="84" viewBox="0 0 84 84" fill="none" xmlns="http://www.w3.org/2000/svg">
<path d="M65.0333 63.6779C67.2742 63.6779 69.0978 61.8542 69.0978 59.6133C69.0978 57.3724 67.2742 55.5488 65.0333 55.5488C62.7924 55.5488 60.9688 57.3724 60.9688 59.6133C60.9688 61.8542 62.7924 63.6779 65.0333 63.6779ZM65.0333 58.2585C65.7798 58.2585 66.3881 58.8655 66.3881 59.6133C66.3881 60.3612 65.7798 60.9682 65.0333 60.9682C64.2868 60.9682 63.6784 60.3612 63.6784 59.6133C63.6784 58.8655 64.2868 58.2585 65.0333 58.2585Z" fill="white"/>
<path d="M78.7974 53.8928C78.3869 52.9092 78.605 51.7914 79.3515 51.0435L81.3228 49.0709L75.5729 43.321L73.5989 45.2936C72.8524 46.0415 71.7333 46.2583 70.6982 45.8247C69.7254 45.4237 69.0968 44.4834 69.0968 43.4294V40.6452H66.318C66.1947 38.4598 65.7896 36.3476 65.1176 34.3465L80.7958 18.6683C82.8619 16.6022 84 13.8559 84 10.9349C84 4.90587 79.0941 0 73.0651 0C70.1441 0 67.3978 1.13806 65.333 3.20284L49.6711 18.8661C47.6456 18.186 45.4982 17.7904 43.2803 17.6725C41.4106 14.406 37.8975 12.1935 33.871 12.1935C32.8399 12.1935 31.8455 12.348 30.8985 12.6176C28.56 8.22116 24.0172 5.41935 18.9677 5.41935C11.4972 5.41935 5.41935 11.4972 5.41935 18.9677C5.41935 20.0055 5.54671 21.0271 5.77839 22.027C2.43871 23.0377 0 26.1416 0 29.8065C0 34.2896 3.64587 37.9355 8.12903 37.9355H17.957C17.7321 39.2754 17.6129 40.6357 17.6129 42C17.6129 44.982 18.1643 47.4085 19.0545 49.4814L6.96794 61.5693L0.242516 79.0548C0.0812903 79.4721 0 79.9111 0 80.3596C0 82.3674 1.63394 84 3.64045 84C4.0889 84 4.52787 83.9174 4.94652 83.7575L22.4321 77.0321L31.2697 68.1931C31.2033 68.4844 31.1613 68.7852 31.1613 69.0968C31.1613 70.1414 31.5691 71.0857 32.2181 71.8064C31.5677 72.5272 31.1613 73.4715 31.1613 74.5161C31.1613 76.3994 32.4552 77.9737 34.1961 78.4316C35.3505 81.7374 38.4422 84 42 84C45.5578 84 48.6495 81.7374 49.8039 78.4316C51.5448 77.9737 52.8387 76.3994 52.8387 74.5161C52.8387 74.4145 52.8157 74.3197 52.8089 74.2208L54.4916 75.9035L56.4656 73.9308C57.2121 73.183 58.3272 72.9648 59.365 73.397C60.3377 73.8021 60.9677 74.7424 60.9677 75.7965V78.5806H69.0968V75.7965C69.0968 74.7424 69.7268 73.8008 70.7524 73.3767C71.736 72.9676 72.8537 73.183 73.6003 73.9308L75.5729 75.9035L81.3228 70.1535L79.3515 68.1809C78.605 67.433 78.3869 66.3153 78.8191 65.2802C79.2215 64.3074 80.1617 63.6774 81.2158 63.6774H84V55.5484H81.2158C80.1617 55.5484 79.2215 54.9184 78.7974 53.8928ZM58.4965 57.8868C59.9746 56.4439 61.4555 54.9699 62.7331 53.2655C63.4701 52.9972 64.237 52.8387 65.0323 52.8387C68.7675 52.8387 71.8064 55.8776 71.8064 59.6129C71.8064 63.3482 68.7675 66.3871 65.0323 66.3871C61.297 66.3871 58.2581 63.3482 58.2581 59.6129C58.2581 59.0263 58.3488 58.4491 58.4965 57.8868ZM60.1237 25.7934L66.3871 19.5286L71.2455 24.3871L64.0094 31.6233C62.9946 29.4935 61.6831 27.5344 60.1237 25.7934ZM61.5286 10.8387L63.6774 8.68994L75.3101 20.3226L73.1613 22.4714L61.5286 10.8387ZM73.0651 2.70968C77.5997 2.70968 81.2903 6.40026 81.2903 10.9349C81.2903 13.1311 80.4354 15.1972 78.8814 16.7512L77.2258 18.4068L65.5932 6.77419L67.2488 5.11858C68.8028 3.56594 70.8676 2.70968 73.0651 2.70968ZM59.6129 12.7545L64.4714 17.6129L58.2106 23.8736C56.471 22.3128 54.5133 21 52.3835 19.9839L59.6129 12.7545ZM63.6774 42C63.6774 49.0492 60.1277 52.5122 56.3694 56.177C53.7817 58.7011 51.1235 61.3105 49.5763 65.1135C49.3175 65.0607 49.0492 65.0323 48.7742 65.0323H43.3548V58.2581C43.3548 56.0172 41.5312 54.1936 39.2903 54.1936H36.5806C35.8341 54.1936 35.2258 53.5866 35.2258 52.8387C35.2258 52.0908 35.8341 51.4839 36.5806 51.4839H50.129C52.3699 51.4839 54.1936 49.6603 54.1936 47.4194C54.1936 45.1785 52.3699 43.3548 50.129 43.3548H39.2903C38.5438 43.3548 37.9355 42.7479 37.9355 42V37.9355H44.7097C48.445 37.9355 51.4839 34.8966 51.4839 31.1613C51.4839 27.426 48.445 24.3871 44.7097 24.3871C44.6717 24.3871 44.6365 24.3979 44.5986 24.3979C44.6568 23.9454 44.7097 23.4929 44.7097 23.0323C44.7097 22.1462 44.5905 21.2886 44.3899 20.4635C55.1907 21.6666 63.6774 30.9364 63.6774 42ZM33.871 69.0968C33.871 68.3489 34.4793 67.7419 35.2258 67.7419H48.7742C49.5207 67.7419 50.129 68.3489 50.129 69.0968C50.129 69.8446 49.5207 70.4516 48.7742 70.4516H35.2258C34.4793 70.4516 33.871 69.8446 33.871 69.0968ZM16.819 69.0968L26.7784 59.1374C28.4448 60.7903 29.9921 62.4621 31.1328 64.4985L21.6774 73.9552L16.819 69.0968ZM2.70968 29.8065C2.70968 26.8177 5.14026 24.3871 8.12903 24.3871C11.1178 24.3871 13.5484 26.8177 13.5484 29.8065H16.2581C16.2581 25.4412 12.7965 21.8779 8.47587 21.695C8.24555 20.809 8.12903 19.8945 8.12903 18.9677C8.12903 12.9915 12.9915 8.12903 18.9677 8.12903C22.9306 8.12903 26.5074 10.2832 28.4096 13.6852C25.5211 15.3801 23.4807 18.3648 23.1 21.8481C20.7345 22.4307 18.9677 24.5537 18.9677 27.0968H21.6774C21.6774 25.6024 22.8927 24.3871 24.3871 24.3871C25.8815 24.3871 27.0968 25.6024 27.0968 27.0968H29.8065C29.8065 24.6106 28.1156 22.5337 25.83 21.8969C26.3855 17.9516 29.7739 14.9032 33.871 14.9032C38.3541 14.9032 42 18.5491 42 23.0323C42 23.7449 41.8835 24.4426 41.7019 25.1228C39.48 26.2351 37.9355 28.5112 37.9355 31.1613H40.6452C40.6452 28.9204 42.4688 27.0968 44.7097 27.0968C46.9506 27.0968 48.7742 28.9204 48.7742 31.1613C48.7742 33.4022 46.9506 35.2258 44.7097 35.2258H8.12903C5.14026 35.2258 2.70968 32.7952 2.70968 29.8065ZM35.2258 37.9355V42C35.2258 44.2409 37.0494 46.0645 39.2903 46.0645H50.129C50.8755 46.0645 51.4839 46.6715 51.4839 47.4194C51.4839 48.1672 50.8755 48.7742 50.129 48.7742H36.5806C34.3397 48.7742 32.5161 50.5978 32.5161 52.8387C32.5161 55.0796 34.3397 56.9032 36.5806 56.9032H39.2903C40.0368 56.9032 40.6452 57.5102 40.6452 58.2581V65.0323H35.2258C34.9508 65.0323 34.6825 65.0607 34.4237 65.1135C32.8765 61.3105 30.2183 58.7011 27.6306 56.177C23.8723 52.5122 20.3226 49.0492 20.3226 42C20.3226 40.6303 20.4865 39.2727 20.7399 37.9355H35.2258ZM24.8437 57.2406L14.9032 67.181L10.0448 62.3226L20.3822 51.9852C21.6544 53.9822 23.2314 55.6486 24.8437 57.2406ZM8.64523 64.7545L19.2455 75.3548L10.271 78.8069L5.1931 73.729L8.64523 64.7545ZM3.9751 81.228C3.38845 81.4556 2.70968 80.9882 2.70968 80.3596C2.70968 80.2444 2.73135 80.1319 2.77065 80.0263L4.12819 76.4955L7.5031 79.8705L3.9751 81.228ZM42 81.2903C39.9989 81.2903 38.2146 80.2254 37.2255 78.5806H46.7744C45.7854 80.2254 44.0011 81.2903 42 81.2903ZM48.7742 75.871H35.2258C34.4793 75.871 33.871 75.264 33.871 74.5161C33.871 73.7683 34.4793 73.1613 35.2258 73.1613H48.7742C49.5207 73.1613 50.129 73.7683 50.129 74.5161C50.129 75.264 49.5207 75.871 48.7742 75.871ZM81.2903 60.9677H81.2158C79.0603 60.9677 77.1364 62.2548 76.2964 64.2898C75.4618 66.2909 75.9089 68.5697 77.4344 70.0966L77.4914 70.1535L75.5729 72.072L75.516 72.0151C73.9877 70.4868 71.7062 70.0384 69.6645 70.8946C67.6742 71.7184 66.3871 73.6409 66.3871 75.7965V75.871H63.6774V75.7965C63.6774 73.6409 62.3903 71.717 60.3554 70.8757C58.3516 70.0397 56.0727 70.4882 54.5472 72.0151L54.4903 72.072L52.6544 70.2362C52.7628 69.8717 52.8387 69.4951 52.8387 69.0968C52.8387 68.1348 52.4892 67.2623 51.9283 66.5646C52.771 64.2898 54.0919 62.4703 55.6297 60.7903C56.2123 65.4645 60.2023 69.0968 65.0323 69.0968C70.2619 69.0968 74.5161 64.8412 74.5161 59.6129C74.5161 54.3846 70.2619 50.129 65.0323 50.129C64.8995 50.129 64.7708 50.1426 64.6394 50.148C65.5566 48.2445 66.1866 46.0374 66.3451 43.3548H66.3871V43.4294C66.3871 45.5849 67.6742 47.5101 69.7078 48.3488C71.7076 49.1861 73.9891 48.739 75.516 47.2107L75.5729 47.1538L77.4914 49.0723L77.4344 49.1292C75.9089 50.6561 75.4618 52.9363 76.314 54.9794C77.1364 56.971 79.0603 58.2581 81.2158 58.2581H81.2903V60.9677Z" fill="white"/>
</svg>
