<svg width="96" height="92" viewBox="0 0 96 92" fill="none" xmlns="http://www.w3.org/2000/svg">
<path d="M17.5422 8.11426C14.0447 8.11426 11.1992 10.9588 11.1992 14.4548C11.1992 17.9509 14.0447 20.7954 17.5422 20.7954C21.0426 20.7954 23.8905 17.9509 23.8905 14.4548C23.8905 10.9588 21.0426 8.11426 17.5422 8.11426ZM17.5422 17.014C16.1298 17.014 14.9808 15.8659 14.9808 14.4548C14.9808 13.0437 16.1298 11.8959 17.5422 11.8959C18.9575 11.8959 20.1091 13.0439 20.1091 14.455C20.1091 15.8661 18.9575 17.014 17.5422 17.014Z" fill="white"/>
<path d="M73.0052 8.11426H56.2375C52.74 8.11426 49.8945 10.9588 49.8945 14.4548C49.8945 17.9509 52.74 20.7954 56.2375 20.7954H73.0052C76.5028 20.7954 79.3482 17.9509 79.3482 14.4548C79.3482 10.9588 76.5028 8.11426 73.0052 8.11426ZM73.0052 17.014H56.2375C54.8251 17.014 53.6761 15.8659 53.6761 14.4548C53.6761 13.0437 54.8253 11.8957 56.2375 11.8957H73.0052C74.4176 11.8957 75.5666 13.0437 75.5666 14.4548C75.5666 15.8659 74.4176 17.014 73.0052 17.014Z" fill="white"/>
<path d="M33.9797 8.11426C30.4822 8.11426 27.6367 10.9588 27.6367 14.4548C27.6367 17.9509 30.4822 20.7954 33.9797 20.7954C37.4801 20.7954 40.328 17.9509 40.328 14.4548C40.328 10.9588 37.4801 8.11426 33.9797 8.11426ZM33.9797 17.014C32.5673 17.014 31.4183 15.8659 31.4183 14.4548C31.4183 13.0437 32.5675 11.8957 33.9797 11.8957C35.395 11.8957 36.5466 13.0437 36.5466 14.4548C36.5466 15.8659 35.395 17.014 33.9797 17.014Z" fill="white"/>
<path d="M30.8981 39.4586C29.8828 39.2154 28.8623 39.8422 28.6197 40.8581L24.8686 56.555C24.626 57.5706 25.2524 58.5908 26.2681 58.8334C26.4158 58.8687 26.5638 58.8857 26.7093 58.8857C27.564 58.8857 28.3392 58.3019 28.5465 57.4339L32.2976 41.7371C32.5404 40.7214 31.9138 39.7014 30.8981 39.4586Z" fill="white"/>
<path d="M37.8404 56.9883C38.2007 57.3093 38.65 57.4672 39.0973 57.4672C39.618 57.4672 40.1364 57.2534 40.5101 56.834L45.8122 50.8821C46.687 49.9082 46.687 48.3831 45.8176 47.4155L40.5099 41.4574C39.8151 40.6774 38.6198 40.6088 37.8404 41.3031C37.0604 41.9978 36.9914 43.193 37.686 43.9727L42.2942 49.1455L37.686 54.3185C36.9916 55.0985 37.0606 56.2938 37.8404 56.9883Z" fill="white"/>
<path d="M19.3241 41.303C18.5441 40.6084 17.3492 40.6779 16.6545 41.4573L11.3531 47.4087C10.4771 48.3827 10.4771 49.9086 11.3471 50.8759L16.6547 56.834C17.0284 57.2536 17.5466 57.4671 18.0675 57.4671C18.5149 57.4671 18.9643 57.3093 19.3245 56.9883C20.1045 56.2936 20.1735 55.0983 19.4788 54.3187L14.8707 49.1458L19.4788 43.9728C20.1731 43.1928 20.1041 41.9975 19.3241 41.303Z" fill="white"/>
<path d="M91.7592 61.412H91.0573C90.6896 60.221 90.2132 59.0712 89.6319 57.9725L90.1329 57.4698C90.9329 56.6747 91.3745 55.6129 91.3762 54.48C91.3779 53.3445 90.9378 52.2784 90.1368 51.4776L89.1607 50.5021V10.2278C89.1607 4.58805 85.1809 0 80.2887 0H8.87197C3.97981 0 0 4.58805 0 10.2278V63.0743C0 68.714 3.97981 73.3021 8.87197 73.3021H19.9654C21.0096 73.3021 21.8561 72.4555 21.8561 71.4113C21.8561 70.3672 21.0096 69.5206 19.9654 69.5206H8.87197C6.11277 69.5206 3.78162 66.5685 3.78162 63.0745V28.7712H85.3789V47.8781C85.1635 47.8449 84.9452 47.8231 84.7231 47.8231C84.7208 47.8231 84.7186 47.8231 84.7165 47.8231C83.5836 47.825 82.5218 48.266 81.7328 49.0593L81.2217 49.5682C80.0999 48.9755 78.9316 48.4934 77.727 48.1254V47.4519C77.727 45.1149 75.8254 43.2139 73.4879 43.2139H70.0662C67.7317 43.2139 65.8326 45.1149 65.8326 47.4519V48.1715C64.6506 48.5429 63.5093 49.0208 62.4184 49.6013L61.9287 49.1131C61.1333 48.3138 60.0713 47.8724 58.9385 47.8707C58.9364 47.8707 58.9344 47.8707 58.9321 47.8707C57.7991 47.8707 56.7352 48.3104 55.9359 49.1092L53.5185 51.5254C52.7175 52.326 52.2775 53.3923 52.2792 54.5276C52.2809 55.6605 52.7222 56.7223 53.5163 57.5113L54.0384 58.0349C53.4716 59.1168 53.0061 60.2453 52.6459 61.4116H51.9278C49.5931 61.4116 47.6939 63.3102 47.6939 65.6441V69.0691C47.6939 69.2214 47.7024 69.3717 47.7181 69.5199H36.7167C35.6726 69.5199 34.826 70.3664 34.826 71.4106C34.826 72.4548 35.6726 73.3013 36.7167 73.3013H51.9276H52.653C53.0187 74.4786 53.4913 75.6161 54.0679 76.7051L53.557 77.2138C51.912 78.8675 51.9135 81.5523 53.5609 83.1983L55.9796 85.6161C56.775 86.4154 57.8369 86.8568 58.9698 86.8585H58.976C60.1092 86.8585 61.1731 86.4188 61.9724 85.6199L62.4788 85.1138C63.5775 85.693 64.72 86.1662 65.8959 86.5298V87.2616C65.8959 89.5985 67.7951 91.4996 70.1298 91.4996H73.5567C75.8912 91.4996 77.7904 89.5985 77.7904 87.2616V86.5343C78.9774 86.1681 80.1245 85.693 81.2219 85.1136L81.7261 85.6159C82.5213 86.4154 83.5831 86.8566 84.7159 86.8585H84.7225C85.8555 86.8585 86.9194 86.4188 87.7202 85.6185L90.1323 83.2023C90.9324 82.4071 91.3739 81.3453 91.3756 80.2124C91.3773 79.077 90.9373 78.0109 90.1361 77.2101L89.6315 76.7057C90.207 75.6158 90.6793 74.4775 91.0443 73.3015H91.7589C94.0964 73.3015 95.998 71.4029 95.998 69.0691V65.6441C95.9984 63.3105 94.0968 61.412 91.7592 61.412ZM3.78162 24.9896V10.2278C3.78162 6.73376 6.11277 3.78162 8.87197 3.78162H80.2887C83.048 3.78162 85.3791 6.73376 85.3791 10.2278V24.9898L3.78162 24.9896ZM92.2167 69.0695C92.2167 69.3097 92.003 69.5202 91.7591 69.5202H89.5968C88.7152 69.5202 87.9506 70.1294 87.7538 70.9887C87.3454 72.7709 86.644 74.461 85.6688 76.0125C85.1991 76.7597 85.3088 77.7324 85.9332 78.3562L87.4631 79.8853C87.5775 79.9996 87.5944 80.1361 87.5944 80.2074C87.5942 80.2925 87.5721 80.4161 87.4616 80.5256L85.0459 82.9456C84.9314 83.06 84.7947 83.0772 84.7227 83.0772C84.7225 83.0772 84.7223 83.0772 84.7223 83.0772C84.6364 83.0772 84.5125 83.0549 84.4017 82.9433L82.8661 81.4141C82.2415 80.7922 81.2707 80.6844 80.525 81.1531C78.9712 82.1305 77.274 82.8331 75.4802 83.2413C74.6198 83.4374 74.0091 84.2024 74.0091 85.0851V87.2621C74.0091 87.5051 73.7978 87.7185 73.5571 87.7185H70.1302C69.8892 87.7185 69.6779 87.5053 69.6779 87.2621V85.0797C69.6779 84.1962 69.0659 83.4303 68.2042 83.2355C66.4333 82.835 64.7391 82.1335 63.169 81.151C62.8596 80.9574 62.512 80.8629 62.1664 80.8629C61.678 80.8629 61.1939 81.0517 60.8292 81.4165L59.2994 82.9456C59.1849 83.06 59.0482 83.0772 58.9762 83.0772C58.976 83.0772 58.9758 83.0772 58.9756 83.0772C58.8899 83.0772 58.7658 83.0549 58.6572 82.9458L56.2346 80.5242C56.0649 80.3548 56.0668 80.0544 56.2324 79.8879L57.7678 78.3587C58.3951 77.7339 58.5048 76.7578 58.0321 76.0093C57.0555 74.4629 56.3531 72.7739 55.9444 70.9893C55.7475 70.13 54.9829 69.5206 54.1011 69.5206H51.928C51.6829 69.5206 51.4757 69.3142 51.4757 69.0699V65.6449C51.4757 65.4006 51.6829 65.1939 51.928 65.1939H54.0956C54.9782 65.1939 55.7435 64.5833 55.9395 63.7228C56.343 61.9497 57.0363 60.2677 58.0003 58.7231C58.4656 57.9774 58.3558 57.0093 57.7349 56.3868L56.1881 54.8355C56.0831 54.7313 56.061 54.6077 56.0608 54.5226C56.0608 54.4513 56.0777 54.3148 56.192 54.2006L58.6092 51.7846C58.7238 51.6702 58.8605 51.6529 58.9325 51.6529H58.9331C59.0187 51.6531 59.1429 51.6752 59.2537 51.7868L60.7784 53.3055C61.4048 53.9293 62.3792 54.0362 63.1251 53.563C64.6701 52.5835 66.3622 51.874 68.1543 51.4546C69.0093 51.2545 69.614 50.4918 69.614 49.6135V47.4524C69.614 47.2051 69.821 46.9961 70.066 46.9961H73.4877C73.7357 46.9961 73.9454 47.2051 73.9454 47.4524V49.5817C73.9454 50.4676 74.5603 51.2346 75.4253 51.4272C77.2243 51.8279 78.9407 52.5355 80.5267 53.5305C81.272 53.9978 82.2419 53.8898 82.8659 53.2684L84.4077 51.7328C84.5123 51.6276 84.6362 51.6055 84.7219 51.6053H84.7225C84.7945 51.6053 84.9312 51.6226 85.0455 51.7369L87.4629 54.1528C87.5773 54.2672 87.5942 54.4037 87.5942 54.4749C87.594 54.5601 87.5719 54.6836 87.4607 54.7941L85.9305 56.3287C85.3075 56.9537 85.1995 57.9264 85.6703 58.6726C86.6492 60.2245 87.3534 61.924 87.7637 63.7236C87.9598 64.5838 88.7248 65.1941 89.6073 65.1941H91.7591C92.0028 65.1941 92.2167 65.4051 92.2167 65.6451V69.0695Z" fill="white"/>
<path d="M71.8441 55.8096C65.4726 55.8096 60.2891 60.9909 60.2891 67.3596C60.2891 73.7253 65.4726 78.9043 71.8441 78.9043C78.2128 78.9043 83.3939 73.7255 83.3939 67.3596C83.3939 60.991 78.2128 55.8096 71.8441 55.8096ZM71.8441 75.1227C67.5579 75.1227 64.0707 71.6401 64.0707 67.3596C64.0707 63.076 67.5579 59.5912 71.8441 59.5912C76.1275 59.5912 79.6123 63.076 79.6123 67.3596C79.6123 71.6401 76.1273 75.1227 71.8441 75.1227Z" fill="white"/>
<path d="M28.3966 69.5205H28.3595C27.3153 69.5205 26.4688 70.3671 26.4688 71.4112C26.4688 72.4554 27.3153 73.3019 28.3595 73.3019H28.3966C29.4408 73.3019 30.2873 72.4554 30.2873 71.4112C30.2873 70.3671 29.4408 69.5205 28.3966 69.5205Z" fill="white"/>
</svg>
