<svg width="116" height="110" viewBox="0 0 116 110" fill="none" xmlns="http://www.w3.org/2000/svg">
<path d="M114.301 98.5713H106.919V36.7052C106.919 32.7639 103.713 29.5576 99.7716 29.5576H77.9785C77.0401 29.5576 76.2793 30.3184 76.2793 31.2568C76.2793 32.1953 77.0401 32.9561 77.9785 32.9561H99.7716C101.839 32.9561 103.521 34.6381 103.521 36.7052V98.5715H97.7046C97.7923 97.9299 97.8383 97.2842 97.8383 96.6385C97.8383 88.6916 91.3729 82.2262 83.426 82.2262C82.3575 82.2262 81.2906 82.3483 80.2389 82.59C78.4056 79.0574 74.7536 76.7775 70.7131 76.7775C69.395 76.7775 68.1147 77.0179 66.9093 77.4849C66.4143 73.0071 62.6076 69.5128 58 69.5128C53.3924 69.5128 49.5857 73.0071 49.0907 77.4849C47.8853 77.0179 46.605 76.7775 45.2869 76.7775C41.2464 76.7775 37.5942 79.0574 35.7611 82.59C34.7091 82.348 33.6425 82.2262 32.574 82.2262C24.6269 82.2262 18.1617 88.6916 18.1617 96.6385C18.1617 97.2844 18.2077 97.9299 18.2954 98.5715H12.4793V36.7052C12.4793 34.6378 14.1611 32.9561 16.2284 32.9561H38.0222C38.9606 32.9561 39.7214 32.1953 39.7214 31.2568C39.7214 30.3184 38.9606 29.5576 38.0222 29.5576H16.2284C12.2872 29.5576 9.08085 32.7642 9.08085 36.7052V98.5715H1.69922C0.760797 98.5715 0 99.3323 0 100.271V103.903C0 106.843 2.39182 109.234 5.33147 109.234H110.669C113.608 109.234 116 106.843 116 103.903V100.271C116 99.3321 115.239 98.5713 114.301 98.5713ZM112.602 103.903C112.602 104.969 111.734 105.836 110.669 105.836H5.33147C4.26549 105.836 3.39844 104.969 3.39844 103.903V101.97H25.3086C26.247 101.97 27.0078 101.209 27.0078 100.271C27.0078 99.3323 26.247 98.5715 25.3086 98.5715H21.7339C21.6186 97.931 21.5599 97.2844 21.5599 96.6385C21.5599 90.5655 26.5008 85.6246 32.5738 85.6246C33.7834 85.6246 34.9946 85.8317 36.1739 86.2399C36.6009 86.3879 37.069 86.3596 37.4753 86.1615C37.8813 85.9633 38.1916 85.6117 38.338 85.1842C39.3623 82.1888 42.1549 80.1762 45.2871 80.1762C47.0047 80.1762 48.6359 80.7841 50.0048 81.9343C50.5828 82.4199 51.4116 82.4661 52.0398 82.0476C52.6681 81.6292 52.9449 80.8466 52.7197 80.1264C52.5253 79.5042 52.4347 78.9802 52.4347 78.477C52.4347 75.4082 54.9314 72.9117 58 72.9117C61.0686 72.9117 63.5653 75.4084 63.5653 78.477C63.5653 78.9802 63.4747 79.5042 63.2803 80.1264C63.0551 80.8468 63.3321 81.6294 63.9602 82.0476C64.5884 82.4659 65.4172 82.4199 65.9952 81.9343C67.3641 80.7843 68.9955 80.1762 70.7129 80.1762C73.8451 80.1762 76.6377 82.1888 77.662 85.1842C77.8084 85.6117 78.1188 85.9633 78.5247 86.1615C78.931 86.3598 79.3993 86.3881 79.8261 86.2399C81.0054 85.8317 82.2164 85.6246 83.4262 85.6246C89.4994 85.6246 94.4401 90.5655 94.4401 96.6385C94.4401 97.2844 94.3812 97.931 94.2661 98.5715H32.5745C31.6361 98.5715 30.8753 99.3323 30.8753 100.271C30.8753 101.209 31.6361 101.97 32.5745 101.97H112.602V103.903Z" fill="white"/>
<path d="M36.1644 50.4473C35.0962 51.7292 34.5078 53.3544 34.5078 55.0232V60.3153C34.5078 60.9193 34.8286 61.478 35.3502 61.7827C35.6148 61.9372 35.9109 62.0145 36.207 62.0145C36.495 62.0145 36.783 61.9415 37.0421 61.7952L49.1428 54.9673C49.6039 55.8092 50.0928 56.6375 50.6092 57.4506L49.088 63.5354C48.9609 64.0431 49.0751 64.5807 49.397 64.9933C49.719 65.4059 50.2131 65.647 50.7365 65.647H65.2657C65.7891 65.647 66.283 65.4059 66.6051 64.9933C66.9271 64.581 67.0413 64.0431 66.9142 63.5354L65.393 57.4506C65.9094 56.6375 66.3983 55.8094 66.8594 54.9673L78.9601 61.7952C79.2195 61.9415 79.5072 62.0145 79.7952 62.0145C80.0913 62.0145 80.3874 61.937 80.652 61.7827C81.1736 61.4782 81.4944 60.9195 81.4944 60.3153V55.0232C81.4944 53.3544 80.906 51.7292 79.8378 50.4473L71.7712 40.7706C72.196 38.2465 72.4135 35.673 72.4135 33.0729C72.4135 26.8762 71.2139 20.8864 68.8479 15.2701C66.566 9.85345 63.3177 5.04806 59.1934 0.987379C58.532 0.336238 57.4706 0.336238 56.8093 0.987379C52.6849 5.04783 49.4367 9.85322 47.1548 15.2701C44.7888 20.8866 43.5891 26.8762 43.5891 33.0729C43.5891 35.6689 43.8059 38.2386 44.2294 40.7588L36.1644 50.4473ZM37.9062 57.4053V55.0232C37.9062 54.1478 38.2148 53.2954 38.7751 52.623L45.1442 44.9802C45.7807 47.3609 46.6078 49.6827 47.6219 51.9234L37.9062 57.4053ZM52.9126 62.2483L53.8791 58.3822H62.1226L63.0891 62.2483H52.9126ZM77.2264 52.623C77.7867 53.2954 78.0953 54.1478 78.0953 55.0232V57.4053L68.3796 51.9232C69.3935 49.6825 70.2209 47.3609 70.8573 44.9799L77.2264 52.623ZM58.0008 4.63549C60.8543 7.70292 63.2078 11.2201 64.9966 15.0284H51.005C52.7937 11.2201 55.1472 7.70292 58.0008 4.63549ZM49.5889 18.4266H66.4123C68.1113 23.0586 69.0144 28.0247 69.0144 33.0727C69.0144 40.8864 66.9124 48.4411 62.9262 54.9836H53.0751C49.0889 48.4411 46.9869 40.8864 46.9869 33.0727C46.9869 28.0247 47.8902 23.0589 49.5889 18.4266Z" fill="white"/>
<path d="M65.1468 31.257C65.1468 27.3157 61.9404 24.1094 57.9992 24.1094C54.0579 24.1094 50.8516 27.3159 50.8516 31.257C50.8516 35.198 54.0579 38.4046 57.9992 38.4046C61.9404 38.4046 65.1468 35.1982 65.1468 31.257ZM54.25 31.257C54.25 29.1896 55.9318 27.5078 57.9992 27.5078C60.0665 27.5078 61.7483 29.1898 61.7483 31.257C61.7483 33.3241 60.0665 35.0061 57.9992 35.0061C55.9318 35.0061 54.25 33.3244 54.25 31.257Z" fill="white"/>
</svg>
