<svg width="86" height="86" viewBox="0 0 86 86" fill="none" xmlns="http://www.w3.org/2000/svg">
<path d="M65.6708 73.9107C64.8165 74.3762 63.9503 74.8566 63.0731 75.3428C55.6508 79.4581 47.2381 84.1226 39.1526 83.4005L10.5187 80.8443C10.4814 80.841 10.4439 80.8393 10.4065 80.8393H2.5244V66.669H10.4063C10.7048 66.669 10.9937 66.5631 11.2215 66.3705C11.2438 66.3517 13.4994 64.4565 16.9334 62.6727C17.552 62.3513 17.7929 61.5893 17.4717 60.9706C17.1502 60.3522 16.3885 60.111 15.7697 60.4325C12.8743 61.9366 10.7738 63.5029 9.95985 64.1446H1.26228C0.565213 64.1446 0 64.7098 0 65.4068V82.1016C0 82.7986 0.565045 83.3638 1.26228 83.3638H10.35L38.928 85.9151C39.5735 85.9727 40.2175 86.0003 40.8617 86.0003C49.0572 86.0003 57.1215 81.5293 64.2971 77.551C65.1689 77.0677 66.0297 76.5903 66.8786 76.1276C67.4907 75.794 67.7166 75.0274 67.383 74.4153C67.0496 73.8029 66.2832 73.5772 65.6708 73.9107Z" fill="white"/>
<path d="M85.0242 59.9285C83.6821 58.1496 81.3438 57.5351 79.3257 58.38C79.2741 57.5728 79.0008 56.7863 78.5221 56.1161C77.26 54.3493 74.8606 53.78 72.9409 54.7919L69.939 56.374C69.9005 55.669 69.6925 54.9753 69.3218 54.3627C68.1242 52.3829 65.5934 51.6954 63.5602 52.7974L61.3165 54.0138C61.276 53.1416 60.9805 52.2913 60.4533 51.5736C59.1376 49.7832 56.7555 49.2325 54.789 50.2639L38.5905 58.7598C36.7689 58.0604 30.9619 56.1689 24.1772 57.432C23.0067 57.65 21.8009 57.9651 20.5929 58.3691C19.9318 58.5901 19.575 59.3052 19.7959 59.9663C20.0171 60.6274 20.7325 60.984 21.3932 60.7633C22.4911 60.3963 23.583 60.1106 24.6391 59.9139C31.8819 58.5653 38.0801 61.2746 38.14 61.3013C38.3028 61.3744 38.479 61.4122 38.6574 61.4122H55.518C56.716 61.4122 57.6905 62.3896 57.6905 63.5909C57.6905 64.6859 56.8735 65.6151 55.7903 65.7523L34.4205 68.459C33.7883 68.5391 33.315 69.0777 33.317 69.7148C33.3188 70.3521 33.7955 70.8879 34.4281 70.9642L43.5039 72.0582C52.2956 73.1176 61.0346 71.4028 68.777 67.0987L80.1183 60.7941C81.1161 60.2742 82.3298 60.5487 83.0087 61.4488C83.857 62.5194 83.4883 64.2364 82.2735 64.8617L70.1047 71.4931C68.6498 72.2577 69.8968 74.5159 71.3128 73.7098L83.4816 67.0784C84.7148 66.4065 85.5923 65.2331 85.8892 63.8591C86.1864 62.4838 85.8711 61.0512 85.0242 59.9285ZM55.9616 52.4994C56.8146 52.0521 57.8479 52.2913 58.4192 53.0685C59.121 53.9735 58.8023 55.4092 57.7821 55.93L52.3265 58.8878H43.7817L55.9616 52.4994ZM57.1097 59.1661L64.7633 55.0166C65.6097 54.5579 66.6631 54.8448 67.1619 55.6695C67.7056 56.5235 67.3653 57.7565 66.4592 58.208L59.8207 61.7068C59.305 60.5308 58.3231 59.605 57.1097 59.1661ZM67.5504 64.8923C60.6078 68.7519 52.8117 70.3958 44.935 69.6717L56.1076 68.2565C58.1803 67.9942 59.8009 66.3921 60.1461 64.3887L74.1178 57.025C74.9258 56.5992 75.9361 56.8391 76.4679 57.5833C77.1117 58.4388 76.8127 59.7738 75.864 60.2707L67.5504 64.8923Z" fill="white"/>
<path d="M29.3912 34.2965C30.8168 34.2965 32.1883 33.9881 33.4672 33.3799C34.0967 33.0806 34.3645 32.3274 34.065 31.6979C33.7656 31.0685 33.013 30.8006 32.3829 31.1001C31.4455 31.5459 30.4389 31.7719 29.3912 31.7719C25.5446 31.7719 22.415 28.6424 22.415 24.7957C22.415 20.9491 25.5446 17.8197 29.3912 17.8197C33.2379 17.8197 36.3675 20.9491 36.3675 24.7957C36.3675 25.9735 36.0688 27.137 35.504 28.1606C35.1672 28.771 35.3887 29.5388 35.9991 29.8756C36.6097 30.2124 37.3775 29.9906 37.7141 29.3804C38.4846 27.9843 38.8919 26.399 38.8919 24.7955C38.8919 19.5568 34.6298 15.2949 29.3912 15.2949C24.1527 15.2949 19.8906 19.5568 19.8906 24.7955C19.8906 30.0343 24.1527 34.2965 29.3912 34.2965Z" fill="white"/>
<path d="M9.68142 28.5486L12.2975 28.9418C12.7247 30.714 13.4202 32.3927 14.3733 33.9504L12.8006 36.0794C12.0575 37.0856 12.1601 38.4575 13.0446 39.3417L14.8456 41.1428C15.73 42.0272 17.1021 42.1298 18.1081 41.3867L20.2369 39.8142C21.7946 40.7673 23.4731 41.463 25.2455 41.8901L25.6389 44.5062C25.8249 45.743 26.8676 46.6406 28.1181 46.6406H30.665C31.9157 46.6406 32.9585 45.743 33.1442 44.5061L33.5375 41.8901C35.3099 41.463 36.9884 40.7673 38.5461 39.8142L40.6751 41.3869C41.6811 42.1298 43.0532 42.0274 43.9374 41.143L45.7383 39.3421C46.6229 38.4579 46.7255 37.0857 45.9824 36.0796L44.4099 33.9508C45.3629 32.393 46.0587 30.7145 46.4856 28.9421L49.1016 28.5489C50.3383 28.363 51.2361 27.3204 51.2361 26.0695V26.0581H58.7268V42.1465C58.7268 43.7695 60.0474 45.0901 61.6705 45.0901H67.0629C67.6402 47.663 69.9414 49.5918 72.686 49.5918C75.8643 49.5918 78.4502 47.0061 78.4502 43.8276C78.4502 40.6493 75.8645 38.0635 72.686 38.0635C69.9412 38.0635 67.6401 39.9924 67.0628 42.5655H61.6703C61.4392 42.5655 61.2512 42.3776 61.2512 42.1465V26.0581H67.0628C67.6401 28.6312 69.9412 30.5602 72.686 30.5602C75.8643 30.5602 78.4502 27.9745 78.4502 24.796C78.4502 21.6175 75.8645 19.0318 72.686 19.0318C69.9414 19.0318 67.6402 20.9606 67.0628 23.5335H61.2516V7.44553C61.2516 7.21441 61.4395 7.02645 61.6706 7.02645H67.0631C67.6404 9.59956 69.9416 11.5283 72.6863 11.5283C75.8646 11.5283 78.4505 8.94264 78.4505 5.76417C78.4505 2.5857 75.8645 0 72.6862 0C69.9416 0 67.6404 1.92878 67.0629 4.50189H61.6705C60.0474 4.50189 58.7268 5.82229 58.7268 7.44536V23.5334H51.2361V23.5223C51.2361 22.2718 50.3385 21.229 49.1017 21.0431L46.4856 20.6499C46.0585 18.8775 45.3629 17.199 44.4099 15.6412L45.9824 13.5124C46.7255 12.5063 46.623 11.1341 45.7385 10.2499L43.9376 8.44881C43.0534 7.56445 41.6812 7.46199 40.6751 8.20492L38.5463 9.77744C36.9884 8.82438 35.3099 8.12866 33.5376 7.70168L33.1444 5.08558C32.9586 3.84883 31.9159 2.95104 30.6652 2.95104H28.1181C26.8676 2.95104 25.8249 3.84866 25.6389 5.08558L25.2455 7.70168C23.4733 8.12883 21.7948 8.82438 20.2369 9.77744L18.1081 8.20492C17.1023 7.46183 15.73 7.56429 14.8456 8.44881L13.0446 10.2496C12.1601 11.134 12.0575 12.5061 12.8006 13.512L14.3731 15.6409C13.4201 17.1986 12.7243 18.8773 12.2974 20.6495L9.68125 21.0427C8.4445 21.2287 7.54688 22.2714 7.54688 23.5219V26.0689C7.54688 27.3201 8.44467 28.3626 9.68142 28.5486ZM72.6862 40.5877C74.4725 40.5877 75.9258 42.041 75.9258 43.8273C75.9258 45.6137 74.4725 47.0669 72.6862 47.0669C70.8998 47.0669 69.4466 45.6137 69.4466 43.8273C69.4466 42.041 70.8998 40.5877 72.6862 40.5877ZM72.6862 21.556C74.4725 21.556 75.9258 23.0093 75.9258 24.7957C75.9258 26.582 74.4725 28.0353 72.6862 28.0353C70.8998 28.0353 69.4466 26.582 69.4466 24.7957C69.4466 23.0093 70.8998 21.556 72.6862 21.556ZM72.6862 2.5244C74.4725 2.5244 75.9258 3.97766 75.9258 5.764C75.9258 7.55035 74.4725 9.00361 72.6862 9.00361C70.8998 9.00361 69.4466 7.55035 69.4466 5.764C69.4466 3.97783 70.8998 2.5244 72.6862 2.5244ZM10.0713 23.5371L13.536 23.0162C14.0674 22.9364 14.49 22.5288 14.5889 22.0007C14.9736 19.9493 15.7677 18.0332 16.9489 16.3057C17.2521 15.8623 17.2415 15.2754 16.9222 14.8432L14.8401 12.0242L16.62 10.2444L19.439 12.3267C19.871 12.6458 20.4578 12.6566 20.9014 12.3534C22.6291 11.1721 24.5451 10.3781 26.5963 9.99328C27.1244 9.89434 27.5319 9.47174 27.6119 8.94028L28.1327 5.4756H30.6499L31.1708 8.94028C31.2507 9.47174 31.6582 9.89434 32.1863 9.99328C34.2376 10.3779 36.1537 11.1721 37.8813 12.3534C38.3249 12.6568 38.9116 12.6458 39.3438 12.3267L42.1628 10.2444L43.9428 12.0242L41.8606 14.8434C41.5415 15.2754 41.5307 15.8623 41.8339 16.3059C43.0152 18.0334 43.8092 19.9494 44.194 22.001C44.2931 22.5291 44.7158 22.9366 45.247 23.0165L48.7117 23.5374V26.0546L45.247 26.5754C44.7158 26.6552 44.2931 27.0629 44.194 27.591C43.8092 29.6425 43.0152 31.5586 41.8339 33.2861C41.5307 33.7296 41.5413 34.3164 41.8606 34.7485L43.9429 37.5675L42.163 39.3474L39.344 37.2651C38.9119 36.946 38.3251 36.9352 37.8815 37.2386C36.1539 38.4199 34.2379 39.2139 32.1863 39.5987C31.6582 39.6978 31.2507 40.1204 31.1708 40.6517L30.6499 44.1164H28.1327L27.6119 40.6517C27.5319 40.1204 27.1244 39.6978 26.5963 39.5987C24.5448 39.2139 22.6288 38.4199 20.9012 37.2386C20.4578 36.9354 19.871 36.946 19.4389 37.2651L16.6199 39.3474L14.8399 37.5675L16.9222 34.7485C17.2413 34.3164 17.2521 33.7294 16.9489 33.2861C15.7676 31.5586 14.9736 29.6426 14.5889 27.5912C14.4898 27.0631 14.0674 26.6554 13.536 26.5756L10.0713 26.0547V23.5371Z" fill="white"/>
</svg>
