<svg width="114" height="114" viewBox="0 0 114 114" fill="none" xmlns="http://www.w3.org/2000/svg">
<path d="M105.073 33.8939C108.551 41.0986 110.347 48.9993 110.324 56.9995C110.331 67.2566 107.378 77.2978 101.819 85.9176C96.2595 94.5375 88.3305 101.37 78.9837 105.594C69.6368 109.818 59.2694 111.255 49.126 109.732C38.9826 108.21 29.4943 103.792 21.8001 97.0087L25.7938 93.0223C26.0298 92.7873 26.1975 92.4926 26.279 92.1697C26.3606 91.8468 26.3529 91.5078 26.2568 91.1889C26.1607 90.87 25.9798 90.5832 25.7334 90.3592C25.487 90.1351 25.1844 89.9821 24.8579 89.9166L11.8598 87.3111C11.5631 87.2517 11.2563 87.2665 10.9666 87.3541C10.6769 87.4417 10.4133 87.5995 10.1993 87.8134C9.98518 88.0273 9.8272 88.2907 9.73935 88.5803C9.65149 88.8699 9.63647 89.1767 9.69562 89.4735L12.2827 102.47C12.3478 102.796 12.5001 103.098 12.7234 103.344C12.9467 103.591 13.2325 103.772 13.5506 103.869C13.8687 103.965 14.2071 103.974 14.5297 103.894C14.8523 103.814 15.1472 103.648 15.3828 103.413L19.1946 99.6105C27.4043 106.908 37.5491 111.677 48.4068 113.342C59.2645 115.007 70.3719 113.496 80.391 108.993C90.4102 104.49 98.9136 97.1863 104.877 87.9614C110.84 78.7365 114.009 67.9841 114.002 56.9995C114.026 48.4465 112.105 40 108.386 32.2979L105.073 33.8939ZM15.2174 98.3822L13.8401 91.4593L20.7648 92.8476L15.2174 98.3822Z" fill="white"/>
<path d="M8.92914 80.1056C5.45125 72.9009 3.65558 65.0002 3.6777 57C3.67558 46.7431 6.63228 36.7033 12.1932 28.0848C17.7541 19.4662 25.6832 12.6347 35.0295 8.40967C44.3757 4.18461 54.7424 2.74533 64.8861 4.26445C75.0299 5.78357 84.5201 10.1966 92.2186 16.9743L88.2083 20.9772C87.9723 21.2122 87.8046 21.5069 87.7231 21.8298C87.6415 22.1527 87.6492 22.4917 87.7453 22.8106C87.8414 23.1294 88.0223 23.4162 88.2687 23.6403C88.5151 23.8644 88.8177 24.0173 89.1442 24.0828L102.142 26.6883C102.439 26.7477 102.746 26.733 103.036 26.6454C103.325 26.5577 103.589 26.4 103.803 26.1861C104.017 25.9722 104.175 25.7087 104.263 25.4192C104.351 25.1296 104.366 24.8228 104.306 24.526L101.719 11.5297C101.654 11.2037 101.502 10.9014 101.279 10.6551C101.055 10.4087 100.77 10.2275 100.451 10.1307C100.133 10.034 99.795 10.0252 99.4724 10.1055C99.1498 10.1857 98.8549 10.352 98.6192 10.5865L94.8241 14.3724C86.61 7.07968 76.4634 2.31619 65.6053 0.65528C54.7473 -1.00563 43.6407 0.50682 33.6221 5.0106C23.6036 9.51438 15.1001 16.8176 9.13513 26.0411C3.17017 35.2647 -0.00206469 46.0156 0.000216517 57C-0.0234708 65.5529 1.89671 73.9995 5.61573 81.7016L8.92914 80.1056ZM98.7847 15.6173L100.162 22.5401L93.2373 21.1445L98.7847 15.6173Z" fill="white"/>
<path d="M81.406 90.4248C81.4961 90.4248 81.5898 90.4248 81.6781 90.4248C83.4561 90.4232 85.1916 89.8809 86.6543 88.8699C88.1169 87.8589 89.2374 86.427 89.8672 84.7642C90.497 83.1015 90.6063 81.2865 90.1804 79.5602C89.7546 77.8339 88.8138 76.278 87.483 75.0989L70.8773 60.3724C71.5586 57.7865 71.5208 55.0636 70.768 52.4976C70.0152 49.9316 68.5759 47.6199 66.6056 45.812C64.6352 44.004 62.2086 42.7684 59.5875 42.2385C56.9664 41.7086 54.2503 41.9045 51.7324 42.8051C51.4401 42.9091 51.1789 43.0854 50.9731 43.3175C50.7673 43.5496 50.6235 43.8301 50.5553 44.1327C50.487 44.4353 50.4964 44.7503 50.5826 45.0483C50.6688 45.3463 50.8291 45.6177 51.0484 45.8371L55.3602 50.1508L50.1602 55.3508L45.8484 51.0389C45.629 50.8192 45.3575 50.6586 45.0593 50.5721C44.761 50.4857 44.4458 50.4761 44.1428 50.5444C43.8399 50.6127 43.5592 50.7566 43.327 50.9627C43.0947 51.1688 42.9184 51.4303 42.8145 51.7229C41.9141 54.2409 41.7184 56.957 42.2483 59.5781C42.7783 62.1992 44.0138 64.6258 45.8217 66.5963C47.6296 68.5667 49.9412 70.0061 52.5071 70.7592C55.073 71.5123 57.7958 71.5505 60.3818 70.8698L75.1101 87.4736C75.8996 88.3727 76.8664 89.0989 77.9498 89.6068C79.0332 90.1146 80.2099 90.3931 81.406 90.4248ZM60.9739 66.9293C60.7642 66.9298 60.556 66.9652 60.3579 67.0341C58.6477 67.6485 56.8119 67.8295 55.0147 67.5609C53.2175 67.2922 51.5148 66.5823 50.0591 65.4947C48.6033 64.4071 47.4398 62.9756 46.6726 61.3283C45.9054 59.681 45.5584 57.8692 45.6627 56.055L48.8603 59.2544C49.2116 59.5866 49.6767 59.7717 50.1602 59.7717C50.6438 59.7717 51.1089 59.5866 51.4602 59.2544L59.262 51.4527C59.6067 51.1078 59.8004 50.6402 59.8004 50.1527C59.8004 49.6651 59.6067 49.1975 59.262 48.8527L56.0626 45.6551C57.8768 45.5508 59.6886 45.8978 61.3359 46.665C62.9832 47.4322 64.4147 48.5957 65.5023 50.0515C66.5899 51.5073 67.2998 53.2099 67.5685 55.0071C67.8371 56.8043 67.6561 58.6401 67.0417 60.3503C66.9191 60.6956 66.9024 61.0696 66.9938 61.4244C67.0852 61.7792 67.2806 62.0986 67.5547 62.3417L85.0448 77.8515C85.5642 78.3119 85.9838 78.8737 86.278 79.5024C86.5721 80.1311 86.7345 80.8132 86.7552 81.507C86.7758 82.2008 86.6544 82.8914 86.3982 83.5365C86.142 84.1815 85.7565 84.7674 85.2655 85.2579C84.7785 85.7536 84.1932 86.142 83.5472 86.3982C82.9012 86.6544 82.2088 86.7726 81.5145 86.7454C80.8205 86.7275 80.1378 86.5663 79.509 86.2721C78.8803 85.9778 78.3192 85.5568 77.8609 85.0354L62.3493 67.5471C62.1767 67.3528 61.9649 67.1973 61.7278 67.0908C61.4907 66.9843 61.2338 66.9293 60.9739 66.9293Z" fill="white"/>
<path d="M82.9726 66.194C85.085 60.2719 85.1191 53.8072 83.0693 47.8631C81.0195 41.919 77.0078 36.8495 71.6941 33.4882C66.3803 30.127 60.0809 28.6742 53.8317 29.3687C47.5826 30.0633 41.7559 32.8639 37.3099 37.3099C32.8639 41.7559 30.0633 47.5826 29.3687 53.8317C28.6742 60.0809 30.127 66.3803 33.4882 71.6941C36.8495 77.0078 41.919 81.0195 47.8631 83.0693C53.8072 85.1191 60.2719 85.085 66.194 82.9726L63.5352 79.9736C58.425 81.4399 52.9724 81.167 48.0342 79.1976C43.096 77.2282 38.9519 73.6741 36.2532 69.0935C33.5545 64.513 32.454 59.1656 33.1247 53.8916C33.7954 48.6177 36.1992 43.716 39.9585 39.9567C43.7178 36.1974 48.6195 33.7936 53.8935 33.1229C59.1675 32.4522 64.5148 33.5526 69.0954 36.2514C73.6759 38.9501 77.2301 43.0941 79.1994 48.0324C81.1688 52.9706 81.4418 58.4232 79.9754 63.5334L82.9726 66.194Z" fill="white"/>
<path d="M82.6631 82.6616C82.92 82.4044 83.095 82.0768 83.1657 81.7201C83.2365 81.3635 83.2 80.9939 83.0608 80.658C82.9215 80.3222 82.6859 80.0351 82.3835 79.8332C82.0812 79.6312 81.7258 79.5234 81.3622 79.5234C80.9986 79.5234 80.6432 79.6312 80.3408 79.8332C80.0385 80.0351 79.8028 80.3222 79.6636 80.658C79.5244 80.9939 79.4878 81.3635 79.5586 81.7201C79.6294 82.0768 79.8043 82.4044 80.0613 82.6616C80.232 82.8326 80.4348 82.9682 80.6581 83.0608C80.8813 83.1533 81.1205 83.2009 81.3622 83.2009C81.6038 83.2009 81.8431 83.1533 82.0663 83.0608C82.2895 82.9682 82.4923 82.8326 82.6631 82.6616Z" fill="white"/>
<path d="M92.0474 66.1939C93.4804 66.1919 94.8541 65.6217 95.8672 64.6082C96.8802 63.5948 97.45 62.2209 97.4515 60.788V53.2123C97.45 51.7794 96.8802 50.4055 95.8672 49.3921C94.8541 48.3786 93.4804 47.8084 92.0474 47.8064C91.6701 47.8119 91.3007 47.6978 90.9922 47.4805C90.6837 47.2631 90.4519 46.9537 90.33 46.5966C89.7039 44.5967 88.8984 42.6575 87.9231 40.8027C87.7553 40.4633 87.6992 40.0794 87.7629 39.7061C87.8267 39.3329 88.007 38.9894 88.278 38.7249L88.3148 38.6863C89.3124 37.6686 89.8685 36.2985 89.8623 34.8733C89.8561 33.4481 89.2882 32.0829 88.2817 31.0739L82.9254 25.7158C81.8952 24.7311 80.525 24.1816 79.0999 24.1816C77.6748 24.1816 76.3046 24.7311 75.2744 25.7158C75.0102 25.9866 74.6669 26.1667 74.2939 26.2301C73.9209 26.2935 73.5374 26.2371 73.1985 26.0689C71.342 25.0931 69.4009 24.2875 67.3991 23.6619C67.0441 23.5399 66.7366 23.3093 66.5201 23.0027C66.3036 22.6961 66.1891 22.3291 66.1929 21.9537C66.1914 20.5208 65.6217 19.1469 64.6086 18.1335C63.5955 17.12 62.2218 16.5498 60.7888 16.5479H53.2095C52.4942 16.551 51.7866 16.6954 51.1273 16.973C50.468 17.2505 49.8701 17.6556 49.3679 18.1649C48.8657 18.6743 48.4691 19.2779 48.201 19.9411C47.9328 20.6042 47.7984 21.3139 47.8055 22.0291C47.8118 22.3832 47.706 22.7302 47.5032 23.0204C47.3005 23.3107 47.0111 23.5295 46.6765 23.6454C44.6479 24.274 42.6814 25.0877 40.8017 26.0762C40.4603 26.2435 40.0745 26.298 39.7001 26.2319C39.3257 26.1658 38.9819 25.9825 38.7184 25.7085C37.6887 24.725 36.3196 24.1762 34.8957 24.1762C33.4718 24.1762 32.1026 24.725 31.0729 25.7085L25.7167 31.0739C24.7109 32.0828 24.1433 33.4474 24.1368 34.872C24.1302 36.2966 24.6853 37.6663 25.6817 38.6845L25.7204 38.7249C25.9913 38.989 26.1717 39.3321 26.2357 39.705C26.2998 40.0778 26.2443 40.4614 26.0771 40.8008C25.1006 42.6568 24.2938 44.5972 23.6665 46.5984C23.5449 46.9552 23.3134 47.2643 23.0051 47.4814C22.6969 47.6984 22.3279 47.8122 21.9509 47.8064C20.518 47.8084 19.1443 48.3786 18.1312 49.3921C17.1181 50.4055 16.5483 51.7794 16.5469 53.2123V60.788C16.5483 62.2209 17.1181 63.5948 18.1312 64.6082C19.1443 65.6217 20.518 66.1919 21.9509 66.1939C22.3283 66.1884 22.6976 66.3025 23.0062 66.5198C23.3147 66.7372 23.5464 67.0466 23.6683 67.4037C24.2944 69.4036 25.1 71.3428 26.0752 73.1976C26.2431 73.537 26.2992 73.9209 26.2354 74.2942C26.1717 74.6674 25.9914 75.0109 25.7204 75.2754L25.6836 75.314C24.6859 76.3317 24.1298 77.7018 24.136 79.127C24.1422 80.5522 24.7102 81.9174 25.7167 82.9264L31.0729 88.2845C32.1031 89.2692 33.4733 89.8187 34.8984 89.8187C36.3235 89.8187 37.6937 89.2692 38.7239 88.2845C38.9886 88.0144 39.3319 87.8349 39.7047 87.7715C40.0775 87.7081 40.4608 87.7641 40.7999 87.9314C42.6563 88.9072 44.5974 89.7128 46.5993 90.3384C46.9542 90.4604 47.2618 90.691 47.4783 90.9976C47.6948 91.3042 47.8092 91.6712 47.8055 92.0466C47.8069 93.4795 48.3767 94.8534 49.3898 95.8668C50.4029 96.8803 51.7766 97.4505 53.2095 97.4524H60.7888C62.2218 97.4505 63.5955 96.8803 64.6086 95.8668C65.6217 94.8534 66.1914 93.4795 66.1929 92.0466C66.1875 91.67 66.3013 91.3013 66.5179 90.9933C66.7345 90.6852 67.0429 90.4534 67.3991 90.331C68.7468 89.8979 70.067 89.3833 71.3524 88.7901L68.8002 85.9143C67.9801 86.2508 67.1453 86.5579 66.305 86.8208C65.1969 87.171 64.2305 87.8678 63.5483 88.8086C62.866 89.7494 62.5039 90.8845 62.5154 92.0466C62.5149 92.5045 62.3329 92.9436 62.0093 93.2675C61.6856 93.5915 61.2468 93.774 60.7888 93.775H53.2095C52.7516 93.774 52.3127 93.5915 51.9891 93.2675C51.6654 92.9436 51.4834 92.5045 51.483 92.0466C51.4944 90.8845 51.1323 89.7494 50.4501 88.8086C49.7678 87.8678 48.8014 87.171 47.6933 86.8208C45.9049 86.2612 44.1706 85.5412 42.5117 84.6695C41.7411 84.2623 40.8826 84.0496 40.011 84.0499C39.2867 84.0524 38.5699 84.1979 37.9019 84.4781C37.2339 84.7583 36.6278 85.1676 36.1184 85.6827C35.7888 85.9967 35.351 86.172 34.8957 86.172C34.4404 86.172 34.0025 85.9967 33.6729 85.6827L28.3148 80.3264C27.9917 80.0015 27.8103 79.5619 27.8103 79.1037C27.8103 78.6454 27.9917 78.2058 28.3148 77.8809C28.3284 77.8694 28.3408 77.8564 28.3516 77.8423C29.1707 77.0252 29.7073 75.9678 29.883 74.8242C30.0586 73.6807 29.8641 72.511 29.328 71.4857C28.4559 69.8277 27.7359 68.094 27.1766 66.306C26.8265 65.1979 26.1297 64.2315 25.1889 63.5492C24.2481 62.867 23.113 62.5049 21.9509 62.5164C21.493 62.5154 21.0541 62.3329 20.7305 62.0089C20.4068 61.685 20.2248 61.2459 20.2244 60.788V53.2123C20.2248 52.7544 20.4068 52.3153 20.7305 51.9914C21.0541 51.6674 21.493 51.4849 21.9509 51.4839C23.1129 51.4958 24.2479 51.1341 25.1887 50.4522C26.1295 49.7702 26.8264 48.8041 27.1766 47.6961C27.7371 45.9068 28.4584 44.172 29.3316 42.5127C29.8663 41.4879 30.0601 40.3192 29.8848 39.1767C29.7096 38.0341 29.1744 36.9773 28.3571 36.1599L28.3167 36.1194C27.9935 35.7945 27.8121 35.3549 27.8121 34.8966C27.8121 34.4384 27.9935 33.9988 28.3167 33.6739L33.6729 28.3158C34.0018 27.9989 34.4408 27.8219 34.8975 27.8219C35.3542 27.8219 35.7932 27.9989 36.1221 28.3158C36.939 29.1463 38.001 29.6924 39.1516 29.8738C40.3023 30.0552 41.4808 29.8623 42.5136 29.3234C44.1939 28.4399 45.9518 27.7124 47.765 27.15C48.8628 26.8016 49.8182 26.1071 50.4884 25.1704C51.1586 24.2337 51.5075 23.1052 51.483 21.9537C51.4834 21.4958 51.6654 21.0567 51.9891 20.7328C52.3127 20.4088 52.7516 20.2263 53.2095 20.2253H60.7888C61.2468 20.2263 61.6856 20.4088 62.0093 20.7328C62.3329 21.0567 62.5149 21.4958 62.5154 21.9537C62.5039 23.1158 62.866 24.2509 63.5483 25.1917C64.2305 26.1325 65.1969 26.8293 66.305 27.1795C68.0935 27.7391 69.8277 28.4591 71.4866 29.3308C72.52 29.87 73.6994 30.0626 74.8506 29.8802C76.0018 29.6977 77.0639 29.1499 77.8799 28.3176C78.2095 28.0035 78.6474 27.8284 79.1027 27.8284C79.558 27.8284 79.9958 28.0035 80.3254 28.3176L85.6835 33.6739C86.0067 33.9988 86.1881 34.4384 86.1881 34.8966C86.1881 35.3549 86.0067 35.7945 85.6835 36.1194C85.6699 36.1309 85.6576 36.1439 85.6468 36.158C84.8276 36.975 84.291 38.0325 84.1154 39.1761C83.9397 40.3196 84.1342 41.4893 84.6704 42.5145C85.5424 44.1726 86.2625 45.9063 86.8217 47.6943C87.1719 48.8024 87.8687 49.7688 88.8095 50.4511C89.7503 51.1333 90.8853 51.4954 92.0474 51.4839C92.5053 51.4849 92.9442 51.6674 93.2679 51.9914C93.5915 52.3153 93.7735 52.7544 93.774 53.2123V60.788C93.7714 61.0206 93.7224 61.2504 93.6299 61.4639C93.5374 61.6773 93.4033 61.8702 93.2353 62.0312C93.0673 62.1922 92.8689 62.318 92.6516 62.4013C92.4344 62.4846 92.2027 62.5237 91.9702 62.5164C90.8316 62.5143 89.7217 62.8732 88.7999 63.5416C87.8782 64.2099 87.192 65.1533 86.8401 66.2361C86.5735 67.1022 86.2609 67.9572 85.9207 68.8012L88.7873 71.3423C89.3937 70.035 89.9169 68.6906 90.3539 67.3173C90.4784 66.9732 90.7103 66.6783 91.0152 66.476C91.3201 66.2737 91.682 66.1748 92.0474 66.1939Z" fill="white"/>
</svg>
