<svg width="66" height="66" viewBox="0 0 66 66" fill="none" xmlns="http://www.w3.org/2000/svg">
<g clip-path="url(#clip0_2323_1338)">
<path d="M32.6122 0.000539496C29.9204 0.0130434 27.3499 0.242625 25.0881 0.642879C18.425 1.82005 17.2153 4.28384 17.2153 8.82765V14.8286H32.9608V16.8289H17.2153H11.3061C6.73002 16.8289 2.72297 19.5793 1.46975 24.8118C0.0240622 30.8093 -0.0400042 34.5519 1.46975 40.8143C2.58904 45.4757 5.26191 48.7971 9.83795 48.7971H15.2516V41.6032C15.2516 36.4061 19.7483 31.8219 25.0881 31.8219H40.8153C45.1932 31.8219 48.688 28.2173 48.688 23.8207V8.82765C48.688 4.5606 45.0881 1.35509 40.8153 0.642879C38.1105 0.19261 35.3039 -0.0119644 32.6122 0.000539496ZM24.097 4.82705C25.7235 4.82705 27.0516 6.17695 27.0516 7.83662C27.0516 9.49049 25.7235 10.8279 24.097 10.8279C22.4648 10.8279 21.1425 9.49049 21.1425 7.83662C21.1425 6.17682 22.4648 4.82705 24.097 4.82705Z" fill="url(#paint0_linear_2323_1338)"/>
<path d="M50.6512 16.8284V23.8203C50.6512 29.241 46.0554 33.8034 40.8149 33.8034H25.0877C20.7797 33.8034 17.2148 37.4904 17.2148 41.8046V56.7977C17.2148 61.0648 20.9254 63.5747 25.0877 64.7989C30.0718 66.2645 34.8514 66.5294 40.8149 64.7989C44.7789 63.6513 48.6876 61.3415 48.6876 56.7977V50.7967H32.9604V48.7964H48.6876H56.5604C61.1364 48.7964 62.8417 45.6045 64.4332 40.8136C66.0771 35.8814 66.0071 31.1383 64.4332 24.811C63.3023 20.2555 61.1424 16.8281 56.5604 16.8281H50.6512V16.8284ZM41.8059 54.7975C43.4381 54.7975 44.7604 56.1349 44.7604 57.7887C44.7604 59.4485 43.4381 60.7984 41.8059 60.7984C40.1795 60.7984 38.8514 59.4485 38.8514 57.7887C38.8512 56.1349 40.1794 54.7975 41.8059 54.7975Z" fill="url(#paint1_linear_2323_1338)"/>
</g>
<defs>
<linearGradient id="paint0_linear_2323_1338" x1="-1.18187" y1="1.87695" x2="35.1338" y2="32.8466" gradientUnits="userSpaceOnUse">
<stop stop-color="#5A9FD4"/>
<stop offset="1" stop-color="#306998"/>
</linearGradient>
<linearGradient id="paint1_linear_2323_1338" x1="48.7973" y1="52.0972" x2="35.7741" y2="33.8339" gradientUnits="userSpaceOnUse">
<stop stop-color="#FFD43B"/>
<stop offset="1" stop-color="#FFE873"/>
</linearGradient>
<clipPath id="clip0_2323_1338">
<rect width="66" height="66" fill="white"/>
</clipPath>
</defs>
</svg>
