<svg width="54" height="64" viewBox="0 0 54 64" fill="none" xmlns="http://www.w3.org/2000/svg">
<g clip-path="url(#clip0_2323_1286)">
<path d="M34.0182 64C43.2287 62 53.6673 53.6522 53.6673 43.1304C53.6673 32.6087 44.0182 26.5217 39.6322 23.6522C39.9831 26.1739 37.5085 27.8261 35.4217 27.8261C33.3349 27.8261 31.2112 26 31.2112 23.6522C31.2112 18.3478 32.6147 19.2174 32.6147 13.913C32.6147 8.6087 32.0006 6 25.5971 0C27.8778 11.3043 18.0094 15.8696 10.1585 23.6522C2.30767 31.4348 0.333984 38.2609 0.333984 43.1304C0.333984 49.2765 2.08837 60.6087 17.1761 64C11.3281 58.6667 10.1585 55.8841 10.1585 52.8696C10.1585 49.8551 12.4977 45.1015 17.1761 41.7391C14.3691 48.8116 19.0474 50.087 21.3866 50.087C23.7258 50.087 25.5971 48 25.5971 44.5217C25.5971 41.0435 19.9831 38.913 19.9831 34.7826C19.9831 30.6522 22.7901 27.8261 22.7901 27.8261C22.7901 27.8261 21.8545 30.6667 25.5971 33.3913C29.3398 36.1159 42.4392 42.6667 42.4392 50.087C42.4392 57.5072 39.6322 60 34.0182 64Z" fill="#E78424"/>
<path opacity="0.2" d="M53.6483 43.4513C53.6506 43.3434 53.668 43.2389 53.668 43.1305C53.668 32.6089 44.0189 26.5218 39.6328 23.6523C39.6654 23.8859 39.6502 24.1037 39.6367 24.3216C43.9751 27.1598 53.4355 33.1496 53.6483 43.4513Z" fill="white"/>
<path opacity="0.2" d="M32.6066 14.161C32.6074 14.0695 32.6152 14.0083 32.6152 13.9129C32.6152 8.60872 32.0011 6 25.5977 0C25.6517 0.267741 25.6665 0.513997 25.707 0.774251C31.8195 6.52653 32.5698 9.17969 32.6066 14.161Z" fill="white"/>
<path opacity="0.1" d="M35.4281 62.9663C34.9714 63.3042 34.519 63.6395 34.0176 63.9967C43.228 61.9967 53.6667 53.6489 53.6667 43.1271C53.6667 43.0088 53.6494 42.8986 53.647 42.7812C53.4463 52.6185 44.1652 60.4938 35.4281 62.9663Z" fill="#010101"/>
<path opacity="0.1" d="M0.343424 42.9492C0.342936 43.007 0.333984 43.0723 0.333984 43.1296C0.333984 49.2756 2.08838 60.6079 17.1761 63.9992C16.8148 63.6696 16.5236 63.3776 16.1971 63.0669C2.4082 59.4992 0.434245 49.0402 0.343424 42.9492Z" fill="#010101"/>
<path opacity="0.1" d="M25.598 32.7238C23.3213 31.0664 22.7836 29.3747 22.7056 28.2969C22.6138 29.2135 22.7717 31.333 25.598 33.3905C29.3041 36.0884 42.1657 42.5395 42.417 49.8703C42.4198 49.7119 42.4401 49.5825 42.4401 49.4194C42.4401 41.9992 29.3407 35.4484 25.598 32.7238Z" fill="#010101"/>
<path d="M34.0182 64C43.2287 62 53.6673 53.6522 53.6673 43.1304C53.6673 32.6087 44.0182 26.5217 39.6322 23.6522C39.9831 26.1739 37.5085 27.8261 35.4217 27.8261C33.3349 27.8261 31.2112 26 31.2112 23.6522C31.2112 18.3478 32.6147 19.2174 32.6147 13.913C32.6147 8.6087 32.0006 6 25.5971 0C27.8778 11.3043 18.0094 15.8696 10.1585 23.6522C2.30767 31.4348 0.333984 38.2609 0.333984 43.1304C0.333984 49.2765 2.08837 60.6087 17.1761 64C11.3281 58.6667 10.1585 55.8841 10.1585 52.8696C10.1585 49.8551 12.4977 45.1015 17.1761 41.7391C14.3691 48.8116 19.0474 50.087 21.3866 50.087C23.7258 50.087 25.5971 48 25.5971 44.5217C25.5971 41.0435 19.9831 38.913 19.9831 34.7826C19.9831 30.6522 22.7901 27.8261 22.7901 27.8261C22.7901 27.8261 21.8545 30.6667 25.5971 33.3913C29.3398 36.1159 42.4392 42.6667 42.4392 50.087C42.4392 57.5072 39.6322 60 34.0182 64Z" fill="url(#paint0_linear_2323_1286)"/>
</g>
<defs>
<linearGradient id="paint0_linear_2323_1286" x1="6.51532" y1="25.44" x2="53.4087" y2="47.3067" gradientUnits="userSpaceOnUse">
<stop stop-color="white" stop-opacity="0.2"/>
<stop offset="1" stop-color="white" stop-opacity="0"/>
</linearGradient>
<clipPath id="clip0_2323_1286">
<rect width="54" height="64" fill="white"/>
</clipPath>
</defs>
</svg>
