<svg width="79" height="79" viewBox="0 0 79 79" fill="none" xmlns="http://www.w3.org/2000/svg">
<path d="M39.5 19.75C17.3504 19.75 0 28.426 0 39.5C0 50.574 17.3504 59.25 39.5 59.25C61.6496 59.25 79 50.574 79 39.5C79 28.426 61.6496 19.75 39.5 19.75Z" fill="#999BCD"/>
<path opacity="0.2" d="M39.4996 20.5729C54.9793 20.5729 68.208 24.6222 75.0167 30.7143C68.6516 24.1708 55.2893 19.75 39.4996 19.75C23.7098 19.75 10.3476 24.1708 3.98242 30.7143C10.7912 24.6222 24.0198 20.5729 39.4996 20.5729Z" fill="white"/>
<path opacity="0.1" d="M39.4996 58.4266C24.0198 58.4266 10.7912 54.3773 3.98242 48.2852C10.3476 54.8287 23.7098 59.2495 39.4996 59.2495C55.2893 59.2495 68.6515 54.8287 75.0167 48.2852C68.2079 54.3773 54.9793 58.4266 39.4996 58.4266Z" fill="#010101"/>
<path d="M31.5295 32.1388C30.2807 30.5411 28.4034 29.625 26.375 29.625H18.1892L12.4316 52.6667H15.823L17.4692 46.0833H23.2441C27.5949 46.0833 31.372 43.134 32.428 38.9134L32.7189 37.7497C33.2107 35.7824 32.7767 33.738 31.5295 32.1388ZM29.5269 36.9509L29.2359 38.1129C28.5464 40.8678 26.0825 42.7917 23.2441 42.7917H18.2921L20.7609 32.9167H26.375C27.3828 32.9167 28.315 33.3715 28.9354 34.1655C29.5542 34.9595 29.7695 35.9753 29.5269 36.9509Z" fill="white"/>
<path d="M66.092 32.1388C64.8432 30.5411 62.9659 29.625 60.9375 29.625H52.7517L46.9941 52.6667H50.3855L52.0317 46.0833H57.8066C62.1574 46.0833 65.9345 43.134 66.9905 38.9134L67.2814 37.7497C67.7732 35.7824 67.3392 33.738 66.092 32.1388ZM64.0894 36.9509L63.7984 38.1129C63.1089 40.8678 60.645 42.7917 57.8066 42.7917H52.8546L55.3234 32.9167H60.9375C61.9453 32.9167 62.8775 33.3715 63.4979 34.1655C64.1167 34.9595 64.332 35.9753 64.0894 36.9509Z" fill="white"/>
<path d="M48.3721 31.6354C47.3322 30.3592 45.7924 29.6263 44.145 29.6263H38.9278L40.1244 23.043H36.7805L32.5918 46.0846H35.9357L38.3293 32.918H44.145C44.7975 32.918 45.4067 33.2073 45.8181 33.7136C46.2296 34.2198 46.3903 34.8756 46.273 35.4478L43.5993 46.0846H46.9932L49.4811 36.1839C49.8154 34.5718 49.4104 32.9131 48.3721 31.6354Z" fill="white"/>
<path d="M39.5 19.75C17.3504 19.75 0 28.426 0 39.5C0 50.574 17.3504 59.25 39.5 59.25C61.6496 59.25 79 50.574 79 39.5C79 28.426 61.6496 19.75 39.5 19.75Z" fill="url(#paint0_linear_2323_1313)"/>
<defs>
<linearGradient id="paint0_linear_2323_1313" x1="6.14225" y1="23.9436" x2="72.8578" y2="55.0564" gradientUnits="userSpaceOnUse">
<stop stop-color="white" stop-opacity="0.2"/>
<stop offset="1" stop-color="white" stop-opacity="0"/>
</linearGradient>
</defs>
</svg>
