<svg width="24" height="16" viewBox="0 0 24 16" fill="none" xmlns="http://www.w3.org/2000/svg">
<path d="M22.2026 0H1.79742C0.804703 0 0 0.804703 0 1.79742V13.9268C0 14.9194 0.804703 15.7242 1.79742 15.7242H22.2026C23.1953 15.7242 24 14.9195 24 13.9268V1.79742C24 0.804703 23.1953 0 22.2026 0Z" fill="#2E42A5"/>
<path d="M23.9751 1.50033C23.8335 0.649125 23.094 0 22.2026 0H21.7349L14.069 5.02252V4.68493e-05H9.93103V5.02256L2.26509 4.68493e-05H1.79742C0.906 4.68493e-05 0.166547 0.649125 0.0248906 1.50037L6.57698 5.79319H0V9.93113H6.57698L0.0248906 14.2238C0.166547 15.075 0.906 15.7242 1.79742 15.7242H2.26509L9.93103 10.7017V15.7242H14.069V10.7017L21.7349 15.7242H22.2026C23.094 15.7242 23.8335 15.0751 23.9751 14.2238L17.423 9.93103H24V5.79309H17.423L23.9751 1.50033Z" fill="#F5F5F5"/>
<path d="M13.2414 0H10.7586V6.62067H0V9.10345H10.7586V15.7241H13.2414V9.10345H24V6.62067H13.2414V0Z" fill="#F50100"/>
<path d="M1.16217 15.6081L9.90825 9.93088H8.38819L0.432373 15.0952C0.627045 15.3224 0.877217 15.5004 1.16217 15.6081Z" fill="#F50100"/>
<path d="M16.2369 9.93088H14.7168L23.1879 15.4295C23.4249 15.2739 23.6227 15.0636 23.7638 14.8167L16.2369 9.93088Z" fill="#F50100"/>
<path d="M0.189697 0.993417L7.58329 5.79281H9.10335L0.725291 0.35437C0.500338 0.521808 0.31626 0.740714 0.189697 0.993417Z" fill="#F50100"/>
<path d="M15.5889 5.79324L23.5593 0.619414C23.3625 0.392961 23.1103 0.215961 22.8234 0.110352L14.0688 5.79324H15.5889Z" fill="#F50100"/>
</svg>
