<svg width="25" height="25" viewBox="0 0 25 25" fill="none" xmlns="http://www.w3.org/2000/svg">
<path d="M12.5 1.00001C10.4144 1.00022 8.36816 1.56758 6.58024 2.64137C4.79233 3.71515 3.33008 5.25494 2.35002 7.09589C1.36996 8.93685 0.908977 11.0097 1.01642 13.0925C1.12387 15.1753 1.7957 17.1897 2.96 18.92L1 24L6.23 22.13C7.72993 23.1091 9.43783 23.7242 11.2176 23.9265C12.9973 24.1287 14.7997 23.9124 16.481 23.2948C18.1624 22.6772 19.6763 21.6754 20.9019 20.3692C22.1276 19.0631 23.0312 17.4886 23.5408 15.7715C24.0503 14.0543 24.1517 12.2418 23.8369 10.4785C23.522 8.71519 22.7996 7.04981 21.7272 5.61509C20.6549 4.18038 19.2622 3.01599 17.6602 2.21474C16.0582 1.41349 14.2912 0.99753 12.5 1.00001Z" stroke="white" stroke-linecap="round" stroke-linejoin="round"/>
<path d="M10.0001 15C11.3001 16.3 14.1701 18 15.5001 18C16.0836 18.006 16.6511 17.8102 17.1067 17.4457C17.5623 17.0813 17.8779 16.5705 18.0001 16V15C18.0001 15 16.7701 14.4 16.0001 14C15.2301 13.6 14.0001 15 14.0001 15C13.0643 14.6951 12.2096 14.1823 11.5001 13.5C10.8178 12.7906 10.305 11.9359 10.0001 11C10.0001 11 11.4001 9.77 11.0001 9C10.6001 8.23 10.0001 7 10.0001 7H9.00013C8.42962 7.12219 7.91888 7.43782 7.5544 7.89341C7.18992 8.34901 6.99411 8.91658 7.00013 9.5C7.00013 10.83 8.70013 13.7 10.0001 15Z" stroke="white" stroke-linecap="round" stroke-linejoin="round"/>
</svg>
