<svg width="67" height="58" viewBox="0 0 67 58" fill="none" xmlns="http://www.w3.org/2000/svg">
<path d="M14.5664 10.6305C14.5664 11.4465 15.2284 12.1085 16.0444 12.1085C16.8605 12.1085 17.5224 11.4465 17.5224 10.6305C17.5224 9.81443 16.8605 9.15247 16.0444 9.15247C15.2284 9.15113 14.5664 9.81309 14.5664 10.6305Z" fill="#EDEDED"/>
<path d="M3.04682 45.2988C3.13928 44.9276 3.26122 44.5832 3.40996 44.263C4.60256 41.6888 7.4313 40.9492 9.50696 39.439C10.3927 38.7944 11.1056 37.8216 11.1699 36.7282C11.2476 35.4297 10.4383 34.2719 9.78032 33.149C8.94014 31.7152 8.29158 30.13 8.19644 28.4697C8.1013 26.8108 8.61586 25.0661 9.8165 23.9164C11.2007 22.5912 13.2603 22.2334 15.1752 22.3151C20.0474 22.5215 24.5404 24.5703 28.401 20.344C31.1359 17.3477 32.2883 12.3107 35.1157 9.33455C39.6034 4.61105 47.362 5.41237 52.2342 9.74325C56.6348 13.656 58.0619 19.8803 56.4941 25.4655C55.481 29.0714 54.263 32.735 56.7741 36.1359C58.9235 39.0464 62.3231 40.9867 63.5786 44.5283C64.7954 47.9627 64.3572 52.2105 61.44 54.6694C59.9352 55.9384 58.0069 56.591 56.0854 57.0158C56.0706 57.0184 56.0572 57.0211 56.0425 57.0251H17.0043C10.851 56.0979 1.09444 53.1579 3.04682 45.2988Z" fill="#EDEDED"/>
<path d="M22.1155 17.657C23.6072 17.0538 24.3274 15.3556 23.7242 13.864C23.121 12.3724 21.4229 11.6522 19.9313 12.2554C18.4397 12.8586 17.7194 14.5567 18.3226 16.0483C18.9258 17.5399 20.6239 18.2601 22.1155 17.657Z" fill="#EDEDED"/>
<path d="M57.3008 32.1866C57.3008 33.1635 58.0927 33.9554 59.0696 33.9554C60.0464 33.9554 60.8384 33.1635 60.8384 32.1866C60.8384 31.2098 60.0464 30.4178 59.0696 30.4178C58.0941 30.4178 57.3008 31.2098 57.3008 32.1866Z" fill="#EDEDED"/>
<path opacity="0.3" d="M52.1059 30.6429H17.5031C16.8063 30.6429 16.2422 30.0788 16.2422 29.382V12.2996C16.2422 11.6028 16.8063 11.0387 17.5031 11.0387H52.1073C52.8041 11.0387 53.3682 11.6028 53.3682 12.2996V29.3806C53.3669 30.0774 52.8027 30.6429 52.1059 30.6429Z" fill="#60A2F4"/>
<path d="M33.1739 12.7036H19.8047V21.7419H33.1739V12.7036Z" fill="#F9F9F9"/>
<path d="M22.8078 17.9847H21.7773V20.5683H22.8078V17.9847Z" fill="#FC8D2A"/>
<path d="M24.8156 16.6927H23.7852V20.568H24.8156V16.6927Z" fill="#60A2F4"/>
<path d="M26.8547 17.5396H25.8242V20.568H26.8547V17.5396Z" fill="#FFAA64"/>
<path d="M28.7375 14.7441H27.707V20.5691H28.7375V14.7441Z" fill="#F99595"/>
<path d="M30.6476 13.8762H29.6172V20.5695H30.6476V13.8762Z" fill="#60A2F4"/>
<path d="M50.1036 19.8086H36.7344V28.8469H50.1036V19.8086Z" fill="#F9F9F9"/>
<path d="M37.7188 27.9871L39.8507 25.2628L42.5803 26.2719L44.3518 24.1721L46.6606 24.9077L48.9748 21.4438" stroke="#60A2F4" stroke-width="0.122936" stroke-miterlimit="10"/>
<path d="M48.9284 21.6125C49.0313 21.6125 49.1147 21.5291 49.1147 21.4263C49.1147 21.3234 49.0313 21.24 48.9284 21.24C48.8256 21.24 48.7422 21.3234 48.7422 21.4263C48.7422 21.5291 48.8256 21.6125 48.9284 21.6125Z" fill="#60A2F4"/>
<path d="M37.7188 27.3141L39.97 26.2541L41.7347 23.9306L44.8837 25.1821L46.603 22.7031L48.881 23.6411" stroke="#FC8D2A" stroke-width="0.122936" stroke-miterlimit="10"/>
<path d="M48.8816 23.7901C48.9844 23.7901 49.0678 23.7067 49.0678 23.6039C49.0678 23.501 48.9844 23.4176 48.8816 23.4176C48.7787 23.4176 48.6953 23.501 48.6953 23.6039C48.6953 23.7067 48.7787 23.7901 48.8816 23.7901Z" fill="#FC8D2A"/>
<path d="M37.7188 20.7343V27.9863H48.9748" stroke="#D1D1D1" stroke-width="0.0922018" stroke-miterlimit="10"/>
<path opacity="0.3" d="M28.7371 23.1724H19.8047V24.0661H28.7371V23.1724Z" fill="#60A2F4"/>
<path d="M31.7588 24.5697H19.8047V25.4635H31.7588V24.5697Z" fill="#F7F7F7"/>
<path d="M30.5193 26.0858H19.8047V26.9796H30.5193V26.0858Z" fill="#F7F7F7"/>
<path opacity="0.3" d="M45.6668 14.7314H36.7344V15.6252H45.6668V14.7314Z" fill="#F99595"/>
<path d="M48.6885 16.1302H36.7344V17.024H48.6885V16.1302Z" fill="#F7F7F7"/>
<path d="M47.449 17.6449H36.7344V18.5387H47.449V17.6449Z" fill="#F7F7F7"/>
<path d="M63.18 27.8776L59.1051 27.887C58.8344 27.887 58.6146 27.6686 58.6133 27.3965C58.6133 27.1259 58.8317 26.9061 59.1037 26.9048L63.1787 26.8954C63.4493 26.8954 63.6691 27.1138 63.6704 27.3858C63.6704 27.6565 63.4507 27.8763 63.18 27.8776Z" fill="#B1DCFB"/>
<path d="M29.9463 9.63774L21.6129 9.64712C21.3422 9.64712 21.1224 9.4287 21.1211 9.15668C21.1211 8.886 21.3395 8.66624 21.6115 8.6649L29.945 8.65552C30.2157 8.65552 30.4354 8.87394 30.4368 9.14596C30.4368 9.41798 30.217 9.63774 29.9463 9.63774Z" fill="#B1DCFB"/>
<path d="M9.19526 18.8405L8.41806 18.8418C8.21304 18.8418 8.04822 18.677 8.04822 18.472L8.04688 17.7417C8.04688 17.538 8.2117 17.3718 8.41672 17.3718L9.19392 17.3705C9.39894 17.3705 9.56375 17.5353 9.56509 17.7403L9.56644 18.4706C9.5651 18.6743 9.40028 18.8405 9.19526 18.8405Z" fill="#B1DCFB"/>
<path d="M61.1822 32.8334L60.4988 32.8347C60.3193 32.8347 60.1732 32.69 60.1732 32.5104L60.1719 31.8686C60.1719 31.689 60.3166 31.543 60.4962 31.543L61.1796 31.5416C61.3591 31.5416 61.5052 31.6863 61.5052 31.8659L61.5065 32.5078C61.5065 32.6873 61.3618 32.8334 61.1822 32.8334Z" fill="white"/>
<path d="M53.4449 9.64742H49.3847C49.1181 9.64742 48.9023 9.43168 48.9023 9.16502C48.9023 8.89836 49.1181 8.68262 49.3847 8.68262H53.4449C53.7116 8.68262 53.9273 8.89836 53.9273 9.16502C53.9273 9.43034 53.7116 9.64742 53.4449 9.64742Z" fill="white"/>
<path d="M7.40845 33.3931H3.34959C3.08293 33.3931 2.86719 33.1774 2.86719 32.9107C2.86719 32.6441 3.08293 32.4283 3.34959 32.4283H7.40979C7.67645 32.4283 7.89219 32.6441 7.89219 32.9107C7.89219 33.1774 7.67511 33.3931 7.40845 33.3931Z" fill="#60A2F4"/>
<path d="M4.37378 11.6342L4.3711 12.1085C4.36976 12.3189 4.5185 12.4985 4.72486 12.536L5.28498 12.6378C5.3493 12.883 5.44444 13.1175 5.56906 13.3373L5.23942 13.805C5.11748 13.9751 5.13624 14.2083 5.28364 14.357L5.6173 14.6947C5.76336 14.8435 5.99652 14.8662 6.16804 14.747L6.62498 14.4307C6.8434 14.5594 7.0779 14.6572 7.32178 14.7255L7.41558 15.2857C7.45042 15.492 7.62864 15.6448 7.83768 15.6461L8.32008 15.6501C8.53046 15.6515 8.71002 15.5027 8.74754 15.2964L8.84938 14.7376C9.0946 14.6733 9.3291 14.5781 9.5502 14.4535L10.0138 14.7832C10.184 14.9051 10.4172 14.8863 10.5659 14.7389L10.9036 14.4053C11.0523 14.2592 11.0751 14.0261 10.9559 13.8545L10.6329 13.3855C10.7616 13.1671 10.8594 12.9326 10.9264 12.6901L11.4865 12.5963C11.6929 12.5614 11.8456 12.3832 11.847 12.1742L11.8496 11.6998C11.851 11.4894 11.7022 11.3099 11.4959 11.2724L10.9371 11.1705C10.8728 10.9253 10.7776 10.6908 10.653 10.4697L10.9827 10.0061C11.1046 9.83587 11.0858 9.60272 10.9384 9.45398L10.6048 9.11629C10.4574 8.96755 10.2256 8.94477 10.0527 9.06403L9.58638 9.37357C9.36796 9.24493 9.13346 9.14712 8.88958 9.07878L8.79578 8.51865C8.76094 8.31229 8.58272 8.15953 8.37368 8.15819L7.88994 8.15417C7.68358 8.15685 7.50804 8.30559 7.47186 8.50793L7.37136 9.08012C7.12614 9.14444 6.89164 9.23957 6.67054 9.36419L6.2069 9.03455C6.03806 8.91127 5.80624 8.92602 5.65482 9.0694L5.31714 9.40305C5.1684 9.54911 5.14562 9.78228 5.26488 9.95514L5.58782 10.4241C5.45918 10.6426 5.36136 10.8771 5.29302 11.1209L4.73156 11.2147C4.52654 11.2469 4.37512 11.4251 4.37378 11.6342ZM6.82866 11.8955C6.82866 11.8928 6.82866 11.8901 6.82866 11.8888C6.83402 11.1812 7.41156 10.6104 8.11908 10.6158C8.8266 10.6211 9.39744 11.1987 9.39208 11.9062C9.38672 12.6137 8.80918 13.1845 8.10166 13.1792C7.39682 13.1738 6.82732 12.6003 6.82866 11.8955Z" fill="white"/>
<path d="M11.9271 14.6951L11.9258 14.9323C11.9245 15.0368 11.9995 15.1279 12.1027 15.1467L12.3827 15.1976C12.4149 15.3196 12.4631 15.4375 12.5248 15.5474L12.36 15.7805C12.2997 15.8663 12.309 15.9815 12.3827 16.0566L12.5489 16.2254C12.6226 16.3004 12.7392 16.3112 12.8249 16.2509L13.0541 16.0927C13.1626 16.1571 13.2805 16.2066 13.4025 16.2401L13.4494 16.5202C13.4668 16.6234 13.5552 16.6998 13.6611 16.6998L13.9023 16.7011C14.0068 16.7024 14.0979 16.6274 14.1167 16.5242L14.1676 16.2455C14.2896 16.2133 14.4075 16.1651 14.5174 16.1035L14.7492 16.2683C14.8349 16.3286 14.9502 16.3192 15.0252 16.2455L15.1941 16.0793C15.2691 16.0056 15.2798 15.8891 15.2195 15.8033L15.0574 15.5688C15.1217 15.4603 15.1713 15.3423 15.2048 15.2204L15.4848 15.1735C15.588 15.1561 15.6644 15.0676 15.6644 14.9618L15.6657 14.7246C15.6671 14.6201 15.592 14.529 15.4889 14.5102L15.2101 14.4593C15.178 14.3373 15.1311 14.2194 15.0681 14.1095L15.2329 13.8777C15.2932 13.792 15.2838 13.6767 15.2101 13.6017L15.044 13.4328C14.9703 13.3578 14.8537 13.3471 14.7679 13.4074L14.5348 13.5615C14.4262 13.4972 14.3083 13.4476 14.1864 13.4141L14.1395 13.134C14.1221 13.0308 14.0336 12.9545 13.9278 12.9545L13.6852 12.9531C13.582 12.9545 13.4936 13.0282 13.4762 13.13L13.4266 13.4168C13.3047 13.4489 13.1867 13.4958 13.0769 13.5588L12.845 13.394C12.7606 13.3323 12.644 13.339 12.569 13.4114L12.4002 13.5776C12.3251 13.6513 12.3144 13.7678 12.3747 13.8536L12.5368 14.0881C12.4725 14.1966 12.4229 14.3146 12.3894 14.4365L12.1094 14.4834C12.0049 14.5022 11.9285 14.5906 11.9271 14.6951ZM13.1546 14.8264C13.1546 14.8251 13.1546 14.8238 13.1546 14.8224C13.1573 14.4687 13.4467 14.1832 13.8005 14.1859C14.1542 14.1886 14.4396 14.478 14.437 14.8318C14.4343 15.1856 14.1448 15.471 13.7911 15.4683C13.4387 15.4656 13.1546 15.1789 13.1546 14.8264Z" fill="white"/>
<path d="M11.491 8.34612L11.4883 8.64896C11.487 8.78296 11.5821 8.8982 11.7134 8.92098L12.0699 8.98664C12.1101 9.14208 12.1717 9.29216 12.2508 9.43286L12.0404 9.73034C11.9627 9.83888 11.9747 9.98762 12.0685 10.0814L12.2802 10.2972C12.374 10.3923 12.5214 10.4057 12.6313 10.3307L12.9234 10.1297C13.0628 10.2114 13.2115 10.2744 13.367 10.3173L13.4273 10.6737C13.4487 10.805 13.5626 10.9028 13.6966 10.9028L14.0035 10.9055C14.1375 10.9069 14.2527 10.8117 14.2755 10.6804L14.3412 10.3253C14.4966 10.2851 14.6467 10.2235 14.7874 10.1444L15.0822 10.3548C15.1907 10.4325 15.3395 10.4204 15.4333 10.3266L15.649 10.1149C15.7441 10.0211 15.7575 9.87372 15.6825 9.76384L15.4761 9.46502C15.5579 9.32566 15.6209 9.17692 15.6637 9.02148L16.0202 8.96118C16.1515 8.93974 16.2493 8.82584 16.2493 8.69184L16.252 8.389C16.2533 8.255 16.1582 8.13976 16.0269 8.11698L15.6718 8.05132C15.6316 7.89588 15.5699 7.7458 15.4909 7.6051L15.7013 7.3103C15.779 7.20176 15.7669 7.05302 15.6731 6.95922L15.4614 6.74348C15.3676 6.64834 15.2202 6.63494 15.1103 6.70998L14.8128 6.90696C14.6735 6.82522 14.5247 6.76224 14.3693 6.71936L14.309 6.36292C14.2876 6.2316 14.1737 6.13378 14.0397 6.13378L13.7315 6.1311C13.6001 6.13244 13.4876 6.22758 13.4648 6.35622L13.4005 6.7207C13.245 6.7609 13.095 6.82254 12.9543 6.9016L12.6595 6.69122C12.5523 6.61216 12.4035 6.62154 12.3084 6.714L12.0926 6.92572C11.9975 7.01952 11.9841 7.16692 12.0591 7.2768L12.2655 7.57562C12.1838 7.71498 12.1208 7.86372 12.0779 8.01916L11.7201 8.07946C11.5888 8.09956 11.4923 8.21346 11.491 8.34612ZM13.0548 8.51228C13.0548 8.51094 13.0548 8.5096 13.0548 8.50826C13.0574 8.05668 13.4259 7.69354 13.8775 7.69756C14.3291 7.70024 14.6922 8.06874 14.6882 8.52032C14.6855 8.9719 14.317 9.33504 13.8655 9.33102C13.4166 9.327 13.0548 8.96252 13.0548 8.51228Z" fill="white"/>
<path d="M61.5864 25.0659H53.533C52.4583 25.0659 51.5859 24.1949 51.5859 23.1189C51.5859 22.0442 52.4569 21.1719 53.533 21.1719H61.5864C62.661 21.1719 63.5334 22.0429 63.5334 23.1189C63.5334 24.1949 62.661 25.0659 61.5864 25.0659Z" fill="#FF901B"/>
<path d="M55.9214 23.1253C55.9227 23.4 55.7003 23.6238 55.4256 23.6251C55.1509 23.6265 54.9271 23.404 54.9258 23.1293C54.9244 22.8546 55.1469 22.6309 55.4216 22.6295C55.6963 22.6282 55.9201 22.8493 55.9214 23.1253Z" fill="white"/>
<path d="M58.0556 23.1184C58.0569 23.3931 57.8345 23.6168 57.5584 23.6182C57.2837 23.6195 57.0599 23.3971 57.0586 23.121C57.0573 22.8463 57.2797 22.6226 57.5557 22.6212C57.8318 22.6212 58.0542 22.8423 58.0556 23.1184Z" fill="white"/>
<path d="M60.1948 23.1118C60.1962 23.3865 59.9737 23.6103 59.699 23.6116C59.4243 23.6129 59.2006 23.3905 59.1992 23.1158C59.1979 22.8411 59.4203 22.6173 59.695 22.616C59.9711 22.6146 60.1948 22.8357 60.1948 23.1118Z" fill="white"/>
<path d="M53.2539 25.0652V26.6879L55.2934 24.7128L53.2539 25.0652Z" fill="#FF901B"/>
<path d="M14.239 21.6342V27.7875C14.239 28.2632 13.8531 28.6491 13.3774 28.6491H12.9727V30.2879L11.1677 28.6491H6.48441C5.87337 28.6491 5.37891 28.1546 5.37891 27.5449V21.6342C5.37891 21.1585 5.76483 20.7726 6.24187 20.7726H13.3774C13.8531 20.7726 14.239 21.1585 14.239 21.6342Z" fill="#60A2F4"/>
<path d="M9.07892 26.4113C9.83066 26.4247 10.5918 26.4341 11.2819 26.3872C11.5003 26.3724 11.6892 26.024 11.4239 25.9142C11.5351 25.8565 11.649 25.8016 11.6973 25.6756C11.7442 25.5564 11.6879 25.3956 11.5646 25.3648C11.8259 25.4291 11.9278 25.015 11.7241 24.8824C11.8313 24.7912 11.9211 24.6693 11.9438 24.5299C11.9666 24.3906 11.909 24.2325 11.7857 24.1655C11.704 24.1212 11.6075 24.1199 11.515 24.1186C11.2028 24.1159 10.8906 24.1132 10.577 24.1119C10.6615 23.6228 10.6869 23.0894 10.439 22.6606C10.364 22.5307 10.163 22.3766 10.0035 22.4757C9.85344 22.5695 9.89498 22.8013 9.90302 22.9474C9.93384 23.5558 9.58812 24.1681 9.05078 24.4549C9.05212 24.4536 9.08696 25.7493 9.07892 26.4113Z" fill="#F9F9F9"/>
<path d="M8.80819 24.4537H7.67188V26.4088H8.80819V24.4537Z" fill="#F9F9F9"/>
<path d="M35.8816 9.24273L39.5639 9.26819C40.0262 9.27087 40.4028 8.89969 40.4068 8.43739L40.4323 4.82341C40.4349 4.36111 40.0638 3.98457 39.6015 3.98055L35.9191 3.95509C35.4568 3.95241 35.0803 4.32359 35.0763 4.78589L35.0508 8.39987C35.0468 8.86351 35.4193 9.24005 35.8816 9.24273Z" fill="#FFAA64"/>
<path d="M37.7401 7.53659L36.648 8.11145L36.8571 6.89473L35.9727 6.03445L37.1934 5.85623L37.7401 4.75073L38.2855 5.85623L39.5076 6.03445L38.6232 6.89473L38.8322 8.11145L37.7401 7.53659Z" fill="white"/>
<path d="M62.7112 15.8795C63.2243 13.8039 61.9577 11.7053 59.882 11.1922C57.8064 10.6791 55.7079 11.9457 55.1947 14.0213C54.6816 16.0969 55.9482 18.1955 58.0238 18.7086C60.0995 19.2218 62.198 17.9551 62.7112 15.8795Z" fill="#F99595"/>
<path d="M60.8226 13.4047C60.3965 12.9786 59.7064 12.9786 59.2802 13.4047L58.9519 13.733L58.6236 13.4047C58.1975 12.9786 57.5074 12.9786 57.0813 13.4047C56.6552 13.8308 56.6552 14.5209 57.0813 14.947L57.4096 15.2753L58.9519 16.8177L60.4943 15.2753L60.8226 14.947C61.2487 14.5209 61.2487 13.8308 60.8226 13.4047Z" fill="white"/>
<mask id="mask0_200_22335" style="mask-type:luminance" maskUnits="userSpaceOnUse" x="0" y="0" width="67" height="58">
<path d="M67 0H0V57.0264H67V0Z" fill="white"/>
</mask>
<g mask="url(#mask0_200_22335)">
<path d="M9.64006 54.8975C9.64006 54.8975 8.7436 53.8335 6.76978 52.4774V51.8557L6.33428 52.1598C4.71422 50.8761 4.7906 49.5911 6.37314 49.4102C6.82472 49.3592 7.26156 49.4236 7.65686 49.6286L7.61934 50.2343L8.26656 50.0855C9.03974 50.8801 9.57306 52.4077 9.64006 54.8975Z" fill="#60A2F4"/>
<path d="M15.7634 48.2911C15.5799 48.551 15.2971 48.8431 14.9568 49.154L14.0134 48.8713L14.1621 49.82C12.459 51.16 10.189 52.5281 10.189 52.5281C10.0872 50.2193 10.5441 47.4589 12.53 46.2489L13.2255 46.5826L13.0097 45.9983C13.1531 45.9353 13.3059 45.8804 13.464 45.8308C16.2458 44.988 16.8555 46.7568 15.7634 48.2911Z" fill="#60A2F4"/>
<path d="M9.5942 47.2845C9.5942 47.2845 8.04114 46.5127 6.7735 45.4809V44.7251L6.24286 45.0173C5.43618 44.2454 4.90554 43.3825 5.29414 42.6106C5.735 41.7396 6.72392 41.6713 7.65388 42.2287L7.69274 42.959L8.23946 42.6736C9.20962 43.5781 9.93992 45.1982 9.5942 47.2845Z" fill="#60A2F4"/>
<path d="M15.3877 44.0538L14.447 43.7711V44.4156C12.9328 44.961 11.0742 45.493 11.0742 45.493C11.4106 43.7335 12.2266 42.155 13.9003 41.6472L14.2741 42.0036L14.5274 41.5118C14.6426 41.4957 14.7619 41.4864 14.8838 41.4797C17.2221 41.3644 16.9113 43.4093 15.3877 44.0538Z" fill="#60A2F4"/>
<path d="M10.3762 43.4857C10.3762 43.4857 8.78156 41.7128 6.90422 39.8422L7.16552 38.8854L6.16186 39.1132C6.14311 39.0945 6.12301 39.0757 6.10424 39.057C3.90262 36.9317 4.98668 34.0333 8.26968 35.309C8.58056 35.4296 8.8566 35.5783 9.10182 35.7539L8.98391 36.5646L9.7946 36.3904C11.3584 38.2677 10.9457 41.552 10.3762 43.4857Z" fill="#60A2F4"/>
<path d="M16.587 38.3506C16.4222 38.7057 16.1394 39.0488 15.787 39.3677L14.9133 39.4628L15.0031 39.9841C13.5519 40.9877 11.7188 41.6671 11.7188 41.6671C11.7188 41.6671 11.7563 38.9898 13.5505 37.2786C13.576 37.2532 13.6015 37.2304 13.6269 37.2089L14.3519 37.4528L14.2889 36.7252C15.862 35.8448 17.32 36.7748 16.587 38.3506Z" fill="#60A2F4"/>
<path d="M14.275 55.2747H5.29297L6.74151 64.5113V67.9377C6.74151 67.9497 6.74419 68.2351 6.96395 68.4388C7.10599 68.5701 7.29895 68.6358 7.54149 68.6358C7.57633 68.6358 7.61117 68.6345 7.64869 68.6318C8.38569 68.5768 8.36023 67.1296 8.33879 65.9665C8.33611 65.8459 8.33477 65.7307 8.33343 65.6195H11.7384C11.737 65.7307 11.7357 65.8473 11.733 65.9665C11.7129 67.1296 11.6861 68.5782 12.4231 68.6318C12.4593 68.6345 12.4955 68.6358 12.5303 68.6358C12.7728 68.6358 12.9658 68.5701 13.1078 68.4388C13.3276 68.2338 13.3303 67.9497 13.3303 67.9377V64.6493L14.275 55.2747ZM8.10697 65.9705C8.12439 66.9233 8.14985 68.3624 7.63127 68.4013C7.40883 68.4187 7.23597 68.3745 7.12341 68.2713C6.97735 68.1373 6.97333 67.939 6.97333 67.9377V65.6195H8.10161C8.10295 65.7307 8.10429 65.8486 8.10697 65.9705ZM12.9497 68.2686C12.8372 68.3732 12.6656 68.416 12.4405 68.4C11.9219 68.3611 11.9474 66.9219 11.9648 65.9692C11.9675 65.8473 11.9688 65.7307 11.9702 65.6181H13.0985V67.9363C13.0985 67.939 13.0944 68.1346 12.9497 68.2686Z" fill="#070707"/>
<path d="M14.7378 54.5497H4.76953V55.9982H14.7378V54.5497Z" fill="#252728"/>
<path d="M16.3054 37.2793C16.3054 37.2793 10.1039 39.8293 9.78627 48.8703C9.46735 57.9113 9.78627 59.3022 9.78627 59.3022" stroke="#252728" stroke-width="0.212667" stroke-miterlimit="10"/>
<path d="M5.60156 49.99C5.60156 49.99 9.16194 50.8784 9.64166 54.8971" stroke="#252728" stroke-width="0.212667" stroke-miterlimit="10"/>
<path d="M15.7617 46.1642C15.7617 46.1642 9.70227 49.2556 9.64062 55.6688" stroke="#252728" stroke-width="0.212667" stroke-miterlimit="10"/>
<path d="M5.60156 42.7837C5.60156 42.7837 9.70062 44.0795 9.7837 48.8686" stroke="#252728" stroke-width="0.212667" stroke-miterlimit="10"/>
<path d="M6.10547 35.7715C6.10547 35.7715 11.0246 39.1871 10.3774 44.8781" stroke="#252728" stroke-width="0.212667" stroke-miterlimit="10"/>
<path d="M16.3043 42.3792C16.3043 42.3792 10.1027 42.9969 9.78516 49.6419" stroke="#252728" stroke-width="0.212667" stroke-miterlimit="10"/>
</g>
<mask id="mask1_200_22335" style="mask-type:luminance" maskUnits="userSpaceOnUse" x="0" y="0" width="67" height="58">
<path d="M67 0H0V57.0264H67V0Z" fill="white"/>
</mask>
<g mask="url(#mask1_200_22335)">
<path d="M56.3242 49.6458C56.3242 49.6458 59.4143 48.6703 62.1613 47.2164L62.3033 46.0734L63.1998 46.6295C65.3196 45.3498 66.9142 43.7913 66.1116 42.2276C65.2942 40.641 63.4637 40.3489 61.6025 41.1381L61.4658 42.5264L60.5412 41.7036C58.4146 43.0758 56.5024 45.8348 56.3242 49.6458Z" fill="#FC8D2A"/>
<path d="M65.5209 42.5247C65.5209 42.5247 57.4568 43.3997 55.2578 52.7636" stroke="#080808" stroke-width="0.260341" stroke-miterlimit="10"/>
<path d="M54.6386 45.849C54.6386 45.849 57.4969 42.444 61.072 38.6264L60.3913 36.9433C60.3913 36.9433 61.486 37.068 62.3865 37.1872C65.502 33.4326 63.9476 30.7994 63.2776 30.0611C62.684 29.4085 59.6221 27.6719 56.4892 30.7445L56.6795 32.4021H55.1331C54.9656 32.646 54.8008 32.9046 54.64 33.182C50.9684 39.4277 54.6386 45.849 54.6386 45.849Z" fill="#FC8D2A"/>
<path d="M62.495 30.0642C62.495 30.0642 55.4479 35.5743 54.8811 42.5262C54.313 49.4781 54.2969 54.3973 54.2969 54.3973" stroke="#080808" stroke-width="0.260341" stroke-miterlimit="10"/>
<path d="M46.079 43.6988L47.1256 43.5205L46.8415 44.346C50.7128 47.5499 51.1751 47.2203 52.7321 49.2236C52.7321 49.2236 54.4942 42.8023 50.5131 39.195L49.3473 39.5917L49.5001 38.4192C44.5541 35.2367 41.9894 40.0272 46.079 43.6988Z" fill="#FC8D2A"/>
<path d="M44.9727 38.506C44.9727 38.506 52.6348 41.5572 53.2726 53.191" stroke="#080808" stroke-width="0.260341" stroke-miterlimit="10"/>
<path d="M47.5137 59.7884H47.5057V67.4867C47.5057 68.0803 47.8514 68.6271 48.3847 68.8803C48.6594 69.0103 48.918 69.0759 49.1592 69.0759C49.3897 69.0759 49.6014 69.013 49.789 68.891C50.3478 68.5158 50.6627 67.5939 50.7257 66.136C51.6677 66.8422 52.8456 67.2629 54.3156 67.2602C55.5805 67.2576 56.6284 66.9306 57.4913 66.3745C57.5771 67.6971 57.8853 68.5399 58.416 68.891C58.6009 69.013 58.8126 69.0759 59.0457 69.0759C59.2843 69.0759 59.5429 69.0103 59.8176 68.8803C60.3536 68.6284 60.7007 68.0803 60.7007 67.4867V61.3227C61.9321 56.8592 61.313 51.5099 61.313 51.5099H47.3154C47.3154 51.5099 46.7847 55.7215 47.5137 59.7884ZM57.7634 66.1842C59.0149 65.2704 59.8578 63.8432 60.4166 62.2339V67.4867C60.4166 67.9691 60.1325 68.418 59.6957 68.6244C59.2441 68.8401 58.8648 68.8481 58.5714 68.6552C58.2257 68.426 57.8397 67.7989 57.7634 66.1842ZM47.7884 61.0761C48.2762 62.9883 49.0963 64.7598 50.447 65.9122C50.4041 67.7306 49.9981 68.4126 49.6322 68.6565C49.3374 68.8495 48.9596 68.8414 48.5053 68.6257C48.0685 68.418 47.7871 67.9705 47.7871 67.4881V61.0761H47.7884Z" fill="#070707"/>
<path d="M46.5571 52.6929H62.0703V50.3278H46.5571V52.6929Z" fill="#2A2832"/>
</g>
<mask id="mask2_200_22335" style="mask-type:luminance" maskUnits="userSpaceOnUse" x="0" y="0" width="67" height="58">
<path d="M67 0H0V57.0264H67V0Z" fill="white"/>
</mask>
<g mask="url(#mask2_200_22335)">
<path d="M23.0253 46.7216L24.4618 45.5183L24.2018 42.8102H23.0253L22.6836 45.6282L23.0253 46.7216Z" fill="#BC610F"/>
<path d="M24.1249 46.0488L22.793 44.7664L23.6693 42.7966L24.2026 42.81L24.1249 46.0488Z" fill="#BC825B"/>
<path d="M24.2033 42.8088L22.5337 40.5964C22.1799 40.1274 21.6788 39.7898 21.1106 39.6397L17.8973 38.7874L15.8725 38.5958L12.619 39.3636C11.7547 39.5673 11.0526 40.1931 10.7524 41.0279L8.96484 45.9819L11.9463 46.6934L11.3996 53.9442H21.522L21.1669 46.94L21.6319 44.4235L23.0268 46.7216L23.0174 46.0864C22.9973 44.8844 23.4194 43.7186 24.2033 42.8088Z" fill="#FF901B"/>
<path d="M21.6328 44.4222L22.1259 41.6108L22.2184 42.2326C22.3189 42.9147 22.2452 43.6115 22.0027 44.2587L23.0291 46.7216L21.6328 44.4222Z" fill="#DD700E"/>
<path d="M11.9452 46.6942L12.5602 46.8241L13.4634 42.5562L12.5817 40.2997C13.2155 40.7915 13.5867 41.5486 13.5867 42.3512V42.5536C13.8882 43.1619 13.9726 43.8547 13.8292 44.518L13.1713 47.5451C13.1217 47.7755 13.0064 47.9873 12.8389 48.1534C12.6326 48.3598 12.5066 48.6318 12.4825 48.9226L12.1113 53.9449H11.3984L11.9452 46.6942Z" fill="#DD700E"/>
<path d="M11.4011 53.9458L11.3489 54.1723C10.9723 55.8205 10.7968 57.5102 10.8276 59.2013L10.9496 66.0393L10.1094 79.3817H13.4929L16.189 66.9143L16.7638 79.3817H20.2599L21.2783 66.0942L21.7848 59.1343C21.896 57.6067 21.8384 56.0724 21.6146 54.5568L21.5248 53.9458H11.4011Z" fill="#454F6B"/>
<path d="M16.1875 66.913L16.8334 57.2824L19.5388 56.6539L17.2541 57.7755L17.4458 64.1633L16.6793 66.8044L17.1992 69.1843L16.6793 70.2791L17.1175 71.4274L16.761 79.3803L16.1875 66.913Z" fill="#422C4F"/>
<path d="M17.6712 53.9458L17.8266 55.4292C17.8507 55.6556 17.8333 55.8848 17.7757 56.1059L17.5117 57.1256L18.0142 56.8616C18.2675 56.729 18.4591 56.5012 18.5462 56.2278L18.6641 55.858C18.699 55.7468 18.7083 55.6302 18.6909 55.5149L18.4511 53.9458H17.6712Z" fill="#566484"/>
<path d="M16.3264 37.8816C16.0839 37.6283 15.9164 37.3108 15.7998 36.9798C15.7784 36.9181 15.7596 36.8565 15.7409 36.7935L15.568 36.764L15.2812 39.2404L15.7328 39.5244C16.4819 39.9948 17.436 39.9908 18.181 39.5151L18.3016 38.3372C18.11 38.4082 17.9077 38.4484 17.704 38.4538C17.1934 38.4632 16.6815 38.2514 16.3264 37.8816Z" fill="#F0BF9C"/>
<path d="M15.7422 36.7933C15.7609 36.8563 15.7797 36.918 15.8011 36.9796C15.9177 37.3106 16.0852 37.6282 16.3278 37.8814C16.6815 38.2499 17.1934 38.463 17.7053 38.4523C17.909 38.4482 18.1113 38.4067 18.3029 38.3357L18.4155 37.2422L15.7422 36.7933Z" fill="#422C4F"/>
<path d="M17.5256 37.7777C15.9846 37.7777 14.7344 36.5288 14.7344 34.9865V33.1775C14.7344 31.6365 15.9833 30.3862 17.5256 30.3862C19.0666 30.3862 20.3168 31.6351 20.3168 33.1775V34.9865C20.3168 36.5288 19.0666 37.7777 17.5256 37.7777Z" fill="#F0BF9C"/>
<path d="M18.5177 29.4831C17.8825 29.0462 17.0812 28.8586 16.3188 28.9685C15.5563 29.0784 14.8394 29.4857 14.3543 30.0834C13.7982 30.7681 13.5584 31.6659 13.5222 32.5476C13.486 33.4294 13.5436 34.3406 13.695 35.2102H14.7228C15.1945 35.0601 15.5148 34.6233 15.5148 34.1275V32.9751C17.6065 32.9751 17.9629 32.3922 18.716 31.4823C19.91 31.4823 20.316 32.6615 20.316 33.7148V34.9864C20.316 34.9864 21.2165 32.4056 21.2325 31.7343C21.2486 31.0629 21.0141 30.3742 20.5344 29.9025C20.0547 29.4321 19.1609 29.2901 18.5177 29.4831Z" fill="#070707"/>
<path d="M15.1444 35.2123C15.1444 35.7832 14.6821 36.2455 14.1113 36.2455C13.5404 36.2455 13.0781 35.7832 13.0781 35.2123C13.0781 34.6415 13.5404 34.1792 14.1113 34.1792C14.6821 34.1792 15.1444 34.6415 15.1444 35.2123Z" fill="#F0BF9C"/>
<path d="M14.7233 35.2124C14.7233 35.5487 14.4499 35.8221 14.1136 35.8221C13.7773 35.8221 13.5039 35.5487 13.5039 35.2124C13.5039 34.876 13.7773 34.6027 14.1136 34.6027C14.4499 34.6013 14.7233 34.8747 14.7233 35.2124Z" fill="#EBA588"/>
<path d="M26.6383 37.7765L26.5204 45.1545C26.507 45.988 25.7606 46.6164 24.9379 46.4905C24.1647 46.3712 23.6474 45.6315 23.8002 44.8651L25.2434 37.6237L24.907 37.0462C24.7047 36.6991 24.5828 36.3118 24.5479 35.9125L24.4635 34.9249C24.7637 34.9129 25.0236 35.1313 25.0638 35.4288L25.0759 35.5145L25.2085 34.7373C25.2648 34.4064 25.3747 34.0874 25.5342 33.7926C25.7553 33.3813 26.2256 33.1709 26.6799 33.2794C27.2534 33.4161 27.5937 34.0057 27.4276 34.5712L27.2815 35.0697L27.2319 36.0733C27.2011 36.6844 26.9961 37.2766 26.6383 37.7765Z" fill="#F0BF9C"/>
<path d="M25.0742 35.5133C25.6973 35.7773 26.1248 36.3588 26.1918 37.0315L26.2172 37.2942L26.2682 37.0824C26.4544 36.2999 25.8782 35.5428 25.0742 35.5133Z" fill="#EBA588"/>
<path d="M9.56601 46.1292L12.2085 46.7523L11.5653 50.1411L15.2637 52.9471L16.8945 53.3424C17.5873 53.258 18.8227 54.003 18.745 54.2429H17.8593H13.8956L8.99651 50.8379C8.83303 50.31 8.80757 49.7485 8.92147 49.2071L9.56601 46.1292Z" fill="#F0BF9C"/>
<path d="M9.568 46.1292L12.2118 46.7523L12.0296 47.7104L9.51172 46.3998L9.568 46.1292Z" fill="#BC825B"/>
<path d="M17.4479 33.1748C17.1102 33.1748 16.8114 33.3369 16.6211 33.5862H18.2747C18.0844 33.3369 17.7856 33.1748 17.4479 33.1748Z" fill="#7C4756"/>
<path d="M17.6824 34.2279C17.6824 34.3566 17.5792 34.4597 17.4506 34.4597C17.3219 34.4597 17.2188 34.3566 17.2188 34.2279C17.2188 34.0993 17.3219 33.9961 17.4506 33.9961C17.5779 33.9961 17.6824 34.1006 17.6824 34.2279Z" fill="#422C4F"/>
<path d="M19.8202 33.1748C20.1003 33.1748 20.3495 33.3369 20.5063 33.5862H19.1328C19.2923 33.3369 19.5402 33.1748 19.8202 33.1748Z" fill="#7C4756"/>
<path d="M19.625 34.2279C19.625 34.3566 19.7108 34.4597 19.818 34.4597C19.9238 34.4597 20.0109 34.3566 20.0109 34.2279C20.0109 34.0993 19.9252 33.9961 19.818 33.9961C19.7108 33.9961 19.625 34.1006 19.625 34.2279Z" fill="#422C4F"/>
<path d="M18.8759 35.3994H18.0156C18.0907 35.5441 18.2595 35.6527 18.423 35.6647C18.5851 35.6755 18.7821 35.5334 18.8759 35.3994Z" fill="#EBA588"/>
<path d="M19.2961 36.0161C18.6247 36.1501 17.936 36.1876 17.2539 36.1287C17.4428 36.5066 17.8609 36.7866 18.283 36.7745C18.7065 36.7625 19.1299 36.4061 19.2961 36.0161Z" fill="white"/>
<path d="M50.3295 32.7528C50.0132 32.0466 49.9368 31.2265 50.1673 30.4895C50.3991 29.7512 50.9472 29.108 51.6614 28.8118C52.3756 28.5143 53.244 28.5867 53.8711 29.0396C54.801 28.7113 55.9548 28.6778 56.7976 29.1884C57.6418 29.6976 58.2381 30.598 58.3802 31.5736C58.4968 32.3789 58.3185 33.1936 58.214 34.0003C58.1095 34.807 58.0894 35.6726 58.4847 36.3842C58.7447 36.8518 59.1788 37.2431 59.2632 37.7724C59.3302 38.1918 59.1641 38.6809 59.6143 38.8792C60.0632 39.0776 60.4639 39.3134 60.7681 39.71C61.1178 40.1656 61.2893 40.7646 61.1928 41.3314C61.0964 41.8983 60.7198 42.4182 60.1932 42.6513C60.2294 43.1565 60.0217 43.6738 59.6451 44.0114C59.274 44.3451 58.687 44.5019 58.2127 44.6412C57.666 44.802 56.996 44.6345 56.539 44.3143C56.0164 43.9471 55.6466 43.3361 55.0355 43.1525C54.3414 42.9448 53.6326 43.3656 52.9197 43.4942C52.0326 43.6537 51.0732 43.3187 50.4782 42.642C49.8832 41.9653 49.6742 40.971 49.9449 40.112C50.1432 39.4836 50.5827 38.8578 50.3965 38.2253C50.2852 37.8488 49.961 37.5526 49.8913 37.1654C49.7921 36.612 50.2303 36.1269 50.4916 35.6284C50.9217 34.8123 50.706 33.5943 50.3295 32.7528Z" fill="#2A2832"/>
<path d="M48.2621 54.525L46.626 63.0085C46.3071 64.6647 46.161 66.3478 46.1918 68.0335C46.2401 70.6009 46.1945 75.0082 45.5781 79.8268H50.244C51.1244 73.4029 50.5495 66.3183 50.5495 66.3183L53.1022 59.1011L54.3337 66.9334C54.2895 73.1818 53.8526 79.8268 53.8526 79.8268H58.4904C58.7986 72.7865 58.0736 66.6694 58.0736 66.6694C59.0853 59.8488 59.5034 59.0716 59.5034 55.3048C55.6857 52.0661 48.2621 54.525 48.2621 54.525Z" fill="#454F6B"/>
<path d="M59.5039 55.7186C59.5052 55.5846 59.5052 55.4479 59.5052 55.3059C55.6862 52.0658 48.2626 54.5247 48.2626 54.5247L48.0469 55.6449C51.6676 57.1243 55.8618 57.143 59.5039 55.7186Z" fill="#422C4F"/>
<path d="M52.8432 57.4608L53.1018 59.101L50.7112 65.8613V62.9334C50.7112 62.5689 50.8426 62.2178 51.0824 61.9431C51.3598 61.6256 51.4911 61.2061 51.4442 60.7867L51.3973 60.3633C51.3303 59.7589 51.6332 59.1734 52.1651 58.8786L52.5403 58.6709L51.6117 58.2139C50.8077 57.8186 50.0922 57.2665 49.5039 56.5912L52.8432 57.4608Z" fill="#422C4F"/>
<path d="M52.8438 57.4611L57.1277 57.0109L56.6788 57.3298C55.6363 58.0681 54.2722 58.174 53.1292 57.6031L52.8438 57.4611Z" fill="#422C4F"/>
<path d="M38.1602 39.1356C38.7484 40.0173 39.9785 40.769 39.9785 40.769L40.946 38.6773L40.0254 38.0475L38.1602 39.1356Z" fill="#8C404C"/>
<path d="M40.0025 37.6088L40.4474 38.3069C40.5385 38.449 40.5077 38.6366 40.3777 38.7451L39.1274 39.7769C38.9894 39.8908 38.7871 39.8761 38.6665 39.7434L38.1024 39.1217C37.9737 38.9796 37.9898 38.7572 38.1399 38.6366L39.5094 37.5271C39.6648 37.4024 39.8953 37.44 40.0025 37.6088Z" fill="#BD6C67"/>
<path d="M39.2109 38.1453C39.2109 38.1453 39.3557 38.8273 40.1436 38.9225C40.9315 39.0163 40.6072 38.1453 40.6072 38.1453H39.2109Z" fill="#8C404C"/>
<path d="M39.9668 40.74L42.2662 46.8143C42.8103 48.4544 43.436 49.982 44.9395 49.982C45.9539 49.982 46.8624 49.4005 47.2818 48.4906C48.0282 46.8732 49.1136 44.5188 49.1136 44.5188L46.447 43.2539L45.3335 45.7543L41.3389 40.732L41.41 38.8547C41.4153 38.7207 41.3657 38.5907 41.2746 38.4929L40.8632 38.0547C40.7426 37.926 40.5644 37.8711 40.3929 37.9073L39.2539 38.1485C39.3249 38.5049 39.6532 38.7528 40.015 38.7247L40.4452 38.6912C39.1936 39.4402 39.9668 40.74 39.9668 40.74Z" fill="#BD6C67"/>
<path d="M46.4479 43.2555L49.1145 44.5204L47.6084 47.7833C46.5444 46.0762 47.0952 44.4253 47.1943 44.227L46.3555 43.4659L46.4479 43.2555Z" fill="#8C404C"/>
<path d="M45.3359 45.7564L46.2418 47.032C46.3691 45.5366 45.4096 45.5902 45.4096 45.5902L45.3359 45.7564Z" fill="#8C404C"/>
<path d="M49.8348 38.7378C49.0844 38.845 48.4211 39.2832 48.0258 39.9304L46.1016 43.0901L47.7055 43.8512L49.8348 38.7378Z" fill="#70B3FC"/>
<path d="M47.293 43.6574C47.9187 42.1057 48.3328 41.4115 48.909 40.9586L47.7043 43.853L47.293 43.6574Z" fill="#4190E5"/>
<path d="M52.0678 39.6919C52.4925 39.9881 53.0473 40.0658 53.5538 39.9573C54.0603 39.8474 54.5173 39.562 54.8844 39.1975C55.0694 39.0139 55.2328 38.8102 55.3802 38.5931L54.3712 38.3586V36.2964L52.3746 36.7252V38.3747L51.4219 38.5114C51.4272 38.9737 51.6845 39.4253 52.0678 39.6919Z" fill="#BD6C67"/>
<path d="M52.375 37.5667C52.9941 37.9794 53.8329 37.4662 54.3716 36.9811V36.2964L52.375 36.7252V37.5667Z" fill="#8C404C"/>
<path d="M57.4547 49.201C57.4547 46.6925 58.9073 41.2146 57.5539 39.1028L55.3777 38.5949C55.2303 38.8107 55.0669 39.0143 54.8819 39.1993C54.5148 39.5637 54.0578 39.8492 53.5513 39.959C53.0448 40.0689 52.49 39.9899 52.0653 39.6937C51.6834 39.4271 51.4247 38.9755 51.4194 38.5132L49.8315 38.7396L47.5213 44.2886C47.1917 45.0792 47.449 45.9931 48.1417 46.4956C48.6777 46.8855 48.9658 47.53 48.8935 48.1893C48.6898 50.076 48.2422 53.9326 47.8496 55.3074C53.9225 57.3201 59.4996 55.3074 59.4996 55.3074C59.5009 53.3912 57.4547 51.7082 57.4547 49.201Z" fill="#70B3FC"/>
<path d="M54.8649 46.9724H49.2383C49.2651 46.7941 49.4808 46.7285 49.6617 46.7352C49.8426 46.7432 50.0208 46.8075 50.1991 46.7821C50.4778 46.7419 50.6734 46.4967 50.8717 46.297C51.0701 46.0973 51.3662 45.9178 51.6208 46.0397C51.87 46.159 51.9277 46.4967 52.1447 46.6682C52.323 46.8089 52.5749 46.8102 52.7933 46.7539C53.0131 46.6977 53.2167 46.5918 53.4365 46.5369C53.9176 46.4149 54.5098 46.6253 54.8649 46.9724Z" fill="#4190E5"/>
<path d="M58.0862 40.9574H55.2521L55.8698 48.456L51.0847 49.8604C51.0847 49.8604 49.7527 48.5405 48.8496 48.5927C48.7933 49.1073 48.7236 49.7197 48.6445 50.3669C49.6871 52.1705 50.9413 51.7096 50.9413 51.7096L56.5505 53.0295C57.2929 53.2037 58.0165 53.075 58.6141 52.736C58.0607 51.6881 57.4537 50.5665 57.4537 49.2011C57.4537 47.2541 58.3274 43.5208 58.0862 40.9574Z" fill="#4190E5"/>
<path d="M57.267 39.0356C58.2854 39.2728 59.0747 40.0754 59.2958 41.0978L60.0488 44.5805L55.9779 44.9101L55.2503 40.9585C55.0908 40.0902 55.6362 39.2473 56.4952 39.0396C56.7498 38.9766 57.0137 38.9753 57.267 39.0356Z" fill="#70B3FC"/>
<path d="M56.2683 44.8862L56.9048 49.0684L50.986 50.2784L49.7411 48.8325C49.5375 48.5967 49.2561 48.4359 48.9465 48.3997C48.0326 48.2925 47.4886 49.0684 47.4886 49.0684C47.6427 49.2479 47.896 49.3136 48.1144 49.2198C48.4279 49.0844 48.7107 49.0844 48.7107 49.0844C48.1197 49.2841 47.7606 49.5226 47.5476 49.7156C47.36 49.8858 47.2662 50.135 47.2997 50.3856L47.3586 50.8439C47.4028 51.1815 47.8169 51.3209 48.0554 51.077C48.373 50.7514 48.6088 50.6804 48.6088 50.6804C49.3378 52.0378 50.8064 51.3946 50.8064 51.3946L56.9664 52.2415C58.5369 52.4572 59.8957 51.144 59.7322 49.5668L59.223 44.6477L56.2683 44.8862Z" fill="#BD6C67"/>
<path d="M56.9048 49.0686L58.4619 49.8605C57.9996 48.5902 57.4422 48.7764 56.8633 48.7898L56.9048 49.0686Z" fill="#8C404C"/>
<path d="M56.2695 44.8862L59.2229 44.6477L59.247 44.8862L56.4009 45.7559L56.2695 44.8862Z" fill="#8C404C"/>
<path d="M55.2026 34.2828C55.1021 33.9437 55.094 33.5752 55.2039 33.2496C54.8233 32.9816 54.4401 32.7109 54.1172 32.3773C53.7929 32.0436 53.5477 31.6363 53.4512 31.182C52.8964 31.8386 52.0897 32.2754 51.2388 32.3934C51.2308 32.4014 51.2228 32.4081 51.2147 32.4161L51.0271 33.3072C50.8583 34.1126 50.8663 34.9461 51.0512 35.7487L51.0673 35.8184C51.1397 36.1333 51.2844 36.4335 51.5068 36.668C51.9718 37.1571 52.6485 37.3272 53.2622 37.153L54.0059 36.9427C54.4361 36.8207 54.8233 36.5969 55.1409 36.2981C55.1342 36.0663 55.1664 35.8278 55.2347 35.6053C55.366 35.1752 55.3312 34.7156 55.2026 34.2828Z" fill="#BD6C67"/>
<path d="M54.6394 34.0796L53.3008 33.5838C53.4964 33.4203 53.8194 33.4136 54.0525 33.5168C54.287 33.62 54.5081 33.8612 54.6394 34.0796Z" fill="#422C4F"/>
<path d="M53.7543 34.4138C53.706 34.5451 53.5761 34.6188 53.4662 34.5773C53.3563 34.5357 53.3054 34.3964 53.355 34.265C53.4032 34.1337 53.5332 34.06 53.6431 34.1016C53.7529 34.1418 53.8039 34.2811 53.7543 34.4138Z" fill="#422C4F"/>
<path d="M51.2188 32.8124L51.9825 33.0951C51.9919 32.862 51.8713 32.6918 51.7306 32.6556C51.5886 32.6208 51.3809 32.7025 51.2188 32.8124Z" fill="#422C4F"/>
<path d="M51.3855 33.5344C51.3373 33.6658 51.348 33.7917 51.411 33.8145C51.474 33.8373 51.5651 33.7502 51.6133 33.6189C51.6616 33.4875 51.6509 33.3616 51.5879 33.3388C51.5249 33.3147 51.4338 33.4031 51.3855 33.5344Z" fill="#422C4F"/>
<path d="M52.3689 34.9764L51.6172 34.6976C51.6292 34.8558 51.7364 35.0085 51.8825 35.0688C52.0272 35.1305 52.247 35.0782 52.3689 34.9764Z" fill="#A64F5A"/>
<path d="M53.4426 35.7199C52.8463 35.681 52.2486 35.6435 51.6523 35.6046C51.7287 35.823 51.919 35.9946 52.1347 36.079C52.3505 36.1634 52.593 36.1634 52.8155 36.1004C53.0379 36.0374 53.267 35.8699 53.4426 35.7199Z" fill="white"/>
<path d="M55.3777 38.5939C55.2303 38.8097 55.0669 39.0134 54.8819 39.1983C54.5148 39.5628 54.0578 39.8482 53.5513 39.9581C53.0448 40.0679 52.49 39.9889 52.0653 39.6927C51.6834 39.4261 51.4247 38.9745 51.4194 38.5122H49.9159C49.8904 39.0924 50.1316 39.8817 50.4559 40.3641C50.7976 40.8706 51.3135 41.2579 51.8978 41.4401C52.0036 41.4736 52.1108 41.4991 52.218 41.5205C52.4083 41.1346 52.5972 40.75 52.7875 40.3641C52.742 40.7634 52.6991 41.1681 52.6549 41.5714C52.8478 41.5821 53.0408 41.5781 53.2337 41.562C54.015 41.4964 54.7855 41.2324 55.4179 40.7688C56.0437 40.3118 56.6481 39.54 56.8678 38.7963L55.3777 38.5939Z" fill="white"/>
<path d="M37.4723 41.9604C37.1748 39.6101 37.1722 37.2235 37.4643 34.8732C37.5795 33.9512 37.7376 33.0012 37.4951 32.1034C37.1346 30.7714 35.8536 29.7678 34.4788 29.6552C33.1039 29.5426 31.7143 30.2823 30.9666 31.4414C30.0809 32.8149 30.0916 34.5636 30.1599 36.1971C30.2296 37.8305 30.3073 39.5605 29.5234 40.9943C30.3609 42.2257 31.7117 43.2348 33.1897 43.4237C34.665 43.6126 36.3521 42.9426 37.4723 41.9604Z" fill="#2A2832"/>
<path d="M36.6836 39.5386C37.2625 39.7583 37.7154 40.2247 37.9164 40.8116L40.122 47.2154L41.4795 50.9741L42.2406 54.5546L41.2369 54.899C40.4704 55.4886 38.8624 50.9232 38.3519 50.1005L36.8189 46.3806L36.6836 39.5386Z" fill="#E68799"/>
<path d="M37.7175 46.3109C37.9306 45.519 38.291 44.7525 38.3084 43.9338C38.3245 43.1914 38.0538 42.4651 37.6626 41.834C37.3865 41.3891 37.0529 40.9844 36.7031 40.5945L36.817 46.3793L37.5875 47.608C37.5446 47.1806 37.6063 46.7263 37.7175 46.3109Z" fill="#E36B85"/>
<path d="M40.1212 47.2141L38.6914 47.7756L38.7999 47.6161C39.0787 47.2034 39.5637 46.9783 40.0582 47.0305L40.1212 47.2141Z" fill="#E36B85"/>
<path d="M43.9422 55.7204L42.2296 54.3657C41.9683 54.1593 41.624 54.0896 41.3037 54.1794C40.7449 54.3362 40.422 54.9178 40.5855 55.4752L40.9741 56.7991C41.0893 57.1931 41.3359 57.5375 41.6709 57.7746C41.971 57.9877 42.3636 58.0212 42.696 57.8644L43.0926 57.6768C43.3499 57.5562 43.4075 57.2159 43.2052 57.0162L42.7965 56.6129L42.7563 55.5703L43.248 55.8276C43.4799 55.9482 43.7613 55.904 43.9422 55.7204Z" fill="#F0BF9C"/>
<path d="M42.7578 55.57C42.2567 55.6343 41.7475 55.5298 41.312 55.2711L41.2383 55.2269L41.2798 55.2805C41.6322 55.7334 42.262 55.8567 42.7578 55.57Z" fill="#EBA588"/>
<path d="M33.4844 53.9037L34.4371 64.2525L34.0284 77.2934L34.3138 77.3657C35.1728 77.5855 36.0759 77.56 36.9215 77.2934L38.1945 64.2525L38.3513 53.9037H33.4844Z" fill="#454F6B"/>
<path d="M28.6179 53.9033C28.039 55.3036 27.8192 56.8259 27.9814 58.3334L28.6179 64.2521L25.418 76.5265C26.2354 77.0277 27.1761 77.293 28.1355 77.293H28.2011L32.0831 65.4648L35.0432 53.9047H28.6179V53.9033Z" fill="#454F6B"/>
<path d="M32.4134 38.6525L29.1961 39.9456V44.3032L29.8902 45.8898C30.4771 47.2311 30.5213 48.7467 30.0148 50.1188L28.6172 53.9017H38.3523L37.8002 50.3158L37.3151 47.1682C37.2253 46.5893 37.3218 45.9957 37.5912 45.4757L37.7252 45.2158C38.1258 44.4386 38.1794 43.5301 37.8726 42.7113L36.6853 39.5369L34.5065 38.6525L33.9196 39.6936L32.4134 38.6525Z" fill="#E68799"/>
<path d="M30.3571 42.1917L30.6144 43.0559C30.8502 43.8452 30.7135 44.6988 30.2459 45.3768L29.8894 45.8914L29.1953 44.3048L30.3571 42.1917Z" fill="#E36B85"/>
<path d="M29.3125 52.0362L29.9637 53.9042H32.0595C32.0595 53.9042 30.8374 53.671 29.6663 51.0687L29.3125 52.0362Z" fill="#E36B85"/>
<path d="M33.371 38.0799C33.6403 38.2367 33.9593 38.2956 34.2701 38.2916C34.3492 38.2903 34.4269 38.2863 34.5046 38.2782V36.287H32.5C32.5107 36.4987 32.5335 36.7077 32.5831 36.9141C32.6956 37.3818 32.9543 37.8374 33.371 38.0799Z" fill="#422C4F"/>
<path d="M34.2713 38.2916C33.9591 38.2956 33.6415 38.2367 33.3722 38.0799C32.9554 37.8374 32.6968 37.3831 32.5856 36.9141C32.536 36.7077 32.5132 36.4987 32.5025 36.287H32.4141V38.6534L33.9202 39.6946L34.5071 38.6534V38.2796C34.4281 38.2863 34.349 38.2903 34.2713 38.2916Z" fill="#F0BF9C"/>
<path d="M32.4141 38.6527L32.6928 40.4791C32.7182 40.6453 32.9219 40.711 33.0398 40.5917L33.9202 39.6952L32.4141 38.6527Z" fill="#E36B85"/>
<path d="M34.5088 38.6527L33.9219 39.6939L34.541 40.1629C34.6964 40.2808 34.9121 40.1347 34.8612 39.9458L34.5088 38.6527Z" fill="#E36B85"/>
<path d="M36.093 32.6313C34.8977 33.6256 33.4237 34.2782 31.8867 34.5073V35.2417C31.8867 36.5669 32.9614 37.6416 34.2867 37.6416C35.6119 37.6416 36.6866 36.5669 36.6866 35.2417V33.6846C36.6866 33.4166 36.641 33.1593 36.5593 32.9181C36.4173 32.8029 36.2618 32.705 36.093 32.6313Z" fill="#F0BF9C"/>
<path d="M34.414 33.9047C34.1339 33.9047 33.8847 34.0387 33.7266 34.2464H35.1001C34.9433 34.0387 34.694 33.9047 34.414 33.9047Z" fill="#2A2832"/>
<path d="M34.6047 34.7794C34.6047 34.8852 34.5189 34.9723 34.4117 34.9723C34.3059 34.9723 34.2188 34.8866 34.2188 34.7794C34.2188 34.6735 34.3045 34.5864 34.4117 34.5864C34.5176 34.5864 34.6047 34.6722 34.6047 34.7794Z" fill="#422C4F"/>
<path d="M36.2013 33.9047C36.3996 33.9047 36.5765 34.0387 36.6877 34.2464H35.7148C35.8261 34.0387 36.0029 33.9047 36.2013 33.9047Z" fill="#2A2832"/>
<path d="M36.0625 34.779C36.0625 34.8849 36.1241 34.972 36.1992 34.972C36.2742 34.972 36.3359 34.8862 36.3359 34.779C36.3359 34.6732 36.2742 34.5861 36.1992 34.5861C36.1241 34.5861 36.0625 34.6718 36.0625 34.779Z" fill="#422C4F"/>
<path d="M35.8009 35.5298C35.5865 35.5017 35.3681 35.499 35.1523 35.5218C35.2126 35.6263 35.3466 35.7134 35.4672 35.7174C35.5878 35.7214 35.7339 35.6303 35.8009 35.5298Z" fill="#EBA588"/>
<path d="M35.8508 36.063C35.3134 36.1501 34.7667 36.1769 34.2227 36.1407C34.2481 36.3846 34.4397 36.6218 34.6568 36.7383C34.8726 36.8549 35.1473 36.8549 35.3643 36.741C35.6136 36.6097 35.7315 36.3189 35.8508 36.063Z" fill="white"/>
<path d="M31.8867 34.5078V35.6226L32.1413 35.368C32.3383 35.1711 32.4495 34.9031 32.4495 34.6243V34.1888L31.8867 34.5078Z" fill="#2A2832"/>
<path d="M32.1089 35.1359C32.1089 35.562 31.7631 35.909 31.3357 35.909C30.9082 35.909 30.5625 35.5633 30.5625 35.1359C30.5625 34.7097 30.9082 34.3627 31.3357 34.3627C31.7618 34.364 32.1089 34.7097 32.1089 35.1359Z" fill="#F0BF9C"/>
<path d="M31.7928 35.1355C31.7928 35.3874 31.5878 35.5925 31.3358 35.5925C31.0839 35.5925 30.8789 35.3874 30.8789 35.1355C30.8789 34.8836 31.0839 34.6786 31.3358 34.6786C31.5878 34.6799 31.7928 34.8836 31.7928 35.1355Z" fill="#EBA588"/>
<path d="M30.8438 55.3488L31.767 56.0817L32.311 57.0439C31.9613 57.0948 31.6169 56.9206 31.4521 56.6084L30.8438 55.3488Z" fill="#F0BF9C"/>
<path d="M29.1719 55.2819L29.2952 57.1967C29.3086 57.4085 29.3769 57.6135 29.4935 57.7904L29.9129 58.4295C30.1166 58.7404 30.5052 58.8744 30.8576 58.7552L31.1939 58.6413C31.5343 58.526 31.7594 58.2017 31.7487 57.844L31.7259 57.0507C31.7192 56.8296 31.6522 56.6138 31.533 56.4262L30.5065 54.8223L29.1719 55.2819Z" fill="#F0BF9C"/>
<path d="M30.1126 55.8862C30.394 55.7683 30.6459 55.5807 30.8442 55.3489L30.5079 54.8223L29.1719 55.2819L29.2201 56.0323C29.523 56.0524 29.8312 56.0041 30.1126 55.8862Z" fill="#422C4F"/>
<path d="M29.1946 39.9471C28.8274 40.112 28.5514 40.4282 28.4388 40.8155L26.5441 47.3533C26.2921 48.223 26.3364 49.1529 26.67 49.9945L28.8864 55.589H29.1088C29.74 55.589 30.3497 55.3625 30.8267 54.9511L28.4911 48.4669L30.288 44.2418C30.4904 43.7661 30.5533 43.2435 30.4703 42.733C30.3041 41.7052 29.8632 40.7431 29.1946 39.9471Z" fill="#E68799"/>
</g>
<path d="M60.7424 57.494H5.83857C4.84697 57.494 4.04297 56.69 4.04297 55.6984C4.04297 54.7068 4.84697 53.9028 5.83857 53.9028H60.7424C61.734 53.9028 62.538 54.7068 62.538 55.6984C62.5366 56.6914 61.734 57.494 60.7424 57.494Z" fill="#DDDDE8"/>
<path d="M62.0341 56.2011H4.54413C4.26675 56.2011 4.04297 55.9759 4.04297 55.6999C4.04297 55.4225 4.26809 55.1987 4.54413 55.1987H62.0341C62.3115 55.1987 62.5353 55.4238 62.5353 55.6999C62.5353 55.9759 62.3115 56.2011 62.0341 56.2011Z" fill="#F7F7F7"/>
<path d="M48.0468 53.9583H39.2913C39.0956 53.9583 38.9375 53.8001 38.9375 53.6045C38.9375 53.4089 39.0956 53.2507 39.2913 53.2507H48.0468C48.2425 53.2507 48.4006 53.4089 48.4006 53.6045C48.4006 53.8001 48.2425 53.9583 48.0468 53.9583Z" fill="#454F6B"/>
<path d="M33.0938 46.835L36.295 53.9584H40.7425L37.8293 46.835H33.0938Z" fill="#60A2F4"/>
<path d="M37.2865 49.9951C37.4768 50.5177 37.4325 51.0108 37.1873 51.0979C36.9421 51.185 36.5897 50.8312 36.3994 50.3086C36.2091 49.786 36.2533 49.2929 36.4986 49.2058C36.7438 49.1187 37.0962 49.4725 37.2865 49.9951Z" fill="#F2F2F4"/>
<path d="M37.8281 46.8348H38.0063L40.9423 53.9583H40.7413L37.8281 46.8348Z" fill="#F2F2F4"/>
<path d="M40.9453 53.2522L41.0485 53.4063H45.9516L46.1258 53.2522H40.9453Z" fill="#5B6782"/>
</svg>
