<svg width="114" height="114" viewBox="0 0 114 114" fill="none" xmlns="http://www.w3.org/2000/svg">
<path d="M112.228 69.1L112.202 69.0547C110.994 67.2164 109.151 65.8881 107.026 65.3241C104.9 64.7602 102.641 65.0001 100.681 65.9981L88.5974 72.1774C87.1502 70.1456 85.021 68.7017 82.598 68.1088C80.1751 67.5158 77.6197 67.8134 75.3979 68.9472L60.1807 76.7463C59.387 77.1552 58.506 77.3658 57.6132 77.3603C56.7204 77.3547 55.8421 77.133 55.0536 76.7142L44.6825 71.2081C40.7577 69.1129 36.3291 68.1462 31.8881 68.4151C27.4472 68.6841 23.1676 70.1782 19.5242 72.7317L18.3533 67.1464C18.3022 66.9034 18.2036 66.6728 18.0631 66.4679C17.9227 66.263 17.7431 66.0879 17.5348 65.9527C17.3264 65.8174 17.0934 65.7246 16.8491 65.6797C16.6048 65.6347 16.3541 65.6385 16.1112 65.6907L1.48803 68.8454C1.00125 68.9504 0.575777 69.2437 0.304462 69.6613C0.0331475 70.0789 -0.0619767 70.5868 0.0398517 71.0742L8.55355 111.64C8.64036 112.065 8.87123 112.448 9.2072 112.723C9.54317 112.997 9.96366 113.148 10.3977 113.149C10.5308 113.148 10.6634 113.134 10.7937 113.107L25.4244 109.958C25.9116 109.853 26.3374 109.56 26.6088 109.142C26.8801 108.724 26.975 108.215 26.8726 107.727L26.1184 104.098L31.1172 103.021C32.5741 102.709 34.0739 102.652 35.5504 102.851L59.0606 105.429C63.9418 106.074 68.8906 104.913 72.9748 102.163L110.637 76.8952C111.868 76.0617 112.724 74.7791 113.022 73.3221C113.319 71.8651 113.034 70.3495 112.228 69.1ZM11.8534 109.012L4.12228 72.1378L15.059 69.7807L22.7902 106.656L11.8534 109.012ZM108.538 73.7688L70.8761 99.0365C67.5366 101.277 63.4923 102.216 59.5075 101.676L35.9973 99.0987C34.1053 98.8437 32.1834 98.9202 30.3177 99.325L25.3358 100.396L20.3652 76.7463L21.6531 75.8487C24.7285 73.6847 28.344 72.4165 32.0973 72.1855C35.8506 71.9544 39.5944 72.7695 42.9119 74.5401L53.283 80.0462C54.6084 80.7506 56.0845 81.1238 57.5854 81.134C59.0864 81.1442 60.5675 80.791 61.9023 80.1046L77.1232 72.2961C78.6447 71.5185 80.4067 71.3546 82.0456 71.8381C83.6844 72.3216 85.0753 73.4156 85.9311 74.8946C86.1823 75.3276 86.253 75.842 86.1282 76.3268C86.0033 76.8115 85.6927 77.2277 85.2635 77.4854L64.2801 89.9307C60.6115 92.1188 56.2414 92.8109 52.0762 91.8635L33.1518 87.338L32.2769 91.0074L51.2182 95.533C56.3307 96.7044 61.6981 95.8595 66.2034 93.174L87.1869 80.7288C88.0465 80.2128 88.7535 79.4777 89.2356 78.5987C89.7177 77.7197 89.9575 76.7283 89.9305 75.7261L102.391 69.3508C103.519 68.7778 104.819 68.6397 106.042 68.9627C107.266 69.2857 108.328 70.0473 109.026 71.1025L109.047 71.1346C109.319 71.5544 109.418 72.0631 109.323 72.5542C109.228 73.0452 108.947 73.4804 108.538 73.7688Z" fill="white"/>
<path d="M12.2064 74.259L8.51562 75.0342L9.29006 78.7213L12.9808 77.946L12.2064 74.259Z" fill="white"/>
<path d="M55.4594 71.2926C55.782 71.5277 56.1709 71.6544 56.5701 71.6544C56.9693 71.6544 57.3581 71.5277 57.6807 71.2926C76.6013 57.4915 88.249 44.3316 92.4803 32.056H102.173C102.617 33.3141 103.493 34.3745 104.644 35.0497C105.795 35.7249 107.147 35.9715 108.463 35.7458C109.778 35.5202 110.971 34.8368 111.831 33.8166C112.691 32.7963 113.163 31.5048 113.163 30.1704C113.163 28.8359 112.691 27.5444 111.831 26.5242C110.971 25.5039 109.778 24.8206 108.463 24.5949C107.147 24.3692 105.795 24.6158 104.644 25.291C103.493 25.9662 102.617 27.0266 102.173 28.2847H93.5288C93.85 26.8947 94.0737 25.484 94.1982 24.0628C94.5312 21.1992 94.2831 18.2979 93.4685 15.5325C92.654 12.7671 91.2898 10.1945 89.4577 7.96876C87.5981 5.49133 85.1869 3.48129 82.4152 2.09806C79.6435 0.714842 76.5877 -0.00350169 73.49 1.28342e-05C67.2641 0.243454 61.3025 2.58079 56.5701 6.63372C51.8377 2.58079 45.8761 0.243454 39.6502 1.28342e-05C36.552 -0.00335474 33.4956 0.715029 30.7234 2.09822C27.9511 3.4814 25.5392 5.49136 23.6787 7.96876C21.8475 10.195 20.484 12.7677 19.6698 15.533C18.8556 18.2983 18.6075 21.1994 18.9401 24.0628C20.0772 38.554 32.364 54.4462 55.4594 71.2926ZM107.483 28.2847C107.856 28.2847 108.22 28.3953 108.53 28.6025C108.84 28.8097 109.082 29.1042 109.225 29.4488C109.367 29.7933 109.405 30.1725 109.332 30.5382C109.259 30.904 109.08 31.24 108.816 31.5037C108.552 31.7674 108.216 31.947 107.85 32.0198C107.485 32.0925 107.106 32.0552 106.761 31.9125C106.416 31.7698 106.122 31.5281 105.915 31.218C105.708 30.9079 105.597 30.5433 105.597 30.1704C105.597 29.6703 105.796 29.1906 106.149 28.837C106.503 28.4834 106.982 28.2847 107.483 28.2847ZM26.4827 10.4899C26.5709 10.4026 26.6498 10.3066 26.7184 10.2032C28.2304 8.20487 30.185 6.5841 32.4287 5.46812C34.6724 4.35215 37.1442 3.77135 39.6502 3.77131C48.3883 3.77131 55.1691 10.4258 55.2369 10.4918C55.4121 10.6671 55.62 10.8062 55.8489 10.9011C56.0779 10.9959 56.3232 11.0448 56.571 11.0448C56.8188 11.0448 57.0642 10.9959 57.2931 10.9011C57.522 10.8062 57.73 10.6671 57.9051 10.4918C57.973 10.422 64.7048 3.77131 73.49 3.77131C75.9976 3.76185 78.4727 4.33847 80.7179 5.45518C82.9631 6.5719 84.9163 8.19781 86.4218 10.2032C86.4903 10.3066 86.5693 10.4026 86.6575 10.4899C88.1525 12.3309 89.2585 14.4561 89.9087 16.7369C90.5588 19.0176 90.7396 21.4065 90.4401 23.7592C90.3147 25.2873 90.056 26.8016 89.667 28.2847H74.6346L67.6351 16.028C67.4597 15.7184 67.2003 15.4647 66.8868 15.2963C66.5734 15.1279 66.2187 15.0516 65.8637 15.0762C65.5087 15.1009 65.168 15.2255 64.8808 15.4356C64.5936 15.6457 64.3718 15.9328 64.2409 16.2637L54.9164 39.5986L48.9426 20.1877C48.8356 19.8396 48.6299 19.5299 48.3505 19.2961C48.0712 19.0623 47.7301 18.9144 47.3685 18.8703C47.0069 18.8263 46.6403 18.8879 46.3129 19.0477C45.9856 19.2075 45.7116 19.4588 45.524 19.771L40.4158 28.2847H28.2854V32.056H41.4849C41.8103 32.056 42.1301 31.9717 42.4133 31.8114C42.6965 31.6512 42.9333 31.4204 43.1009 31.1415L46.5762 25.3393L52.8761 45.8099C52.9925 46.181 53.2207 46.507 53.5296 46.7433C53.8385 46.9796 54.2129 47.1146 54.6015 47.1299H54.6844C55.0616 47.13 55.43 47.0171 55.7423 46.8056C56.0546 46.5942 56.2963 46.294 56.4362 45.9438L66.2981 21.2852L71.9042 31.0906C72.0671 31.382 72.3045 31.6249 72.592 31.7945C72.8796 31.9642 73.207 32.0544 73.5409 32.056H88.4375C84.9472 40.9412 76.2657 52.8585 56.5701 67.4289C29.9994 47.7729 23.4751 32.9385 22.7114 23.91C22.3892 21.5341 22.5576 19.1174 23.2063 16.8091C23.8549 14.5009 24.9701 12.3502 26.4827 10.4899Z" fill="white"/>
<path d="M15.0852 28.2852H0V32.0565H15.0852V28.2852Z" fill="white"/>
</svg>
