<svg width="114" height="130" viewBox="0 0 114 130" fill="none" xmlns="http://www.w3.org/2000/svg">
<path d="M113.163 39.8165C113.153 33.5144 110.78 27.4451 106.512 22.8086C102.243 18.172 96.3908 15.3056 90.111 14.7761V12.5736C90.1077 9.23992 88.7819 6.0437 86.4246 3.68641C84.0673 1.32912 80.8711 0.00332872 77.5374 0H31.4341C28.1004 0.00332872 24.9041 1.32912 22.5469 3.68641C20.1896 6.0437 18.8638 9.23992 18.8604 12.5736V64.9638C18.3047 64.9638 17.7716 65.1846 17.3786 65.5776C16.9856 65.9706 16.7648 66.5036 16.7648 67.0594V70.2468C16.2221 70.4375 15.6919 70.6533 15.1764 70.8901L11.9596 67.6734C11.5666 67.2805 11.0337 67.0598 10.478 67.0598C9.92235 67.0598 9.38942 67.2805 8.99643 67.6734L2.70962 73.9602C2.31675 74.3532 2.09605 74.8861 2.09605 75.4418C2.09605 75.9975 2.31675 76.5304 2.70962 76.9234L5.92637 80.1401C5.68957 80.6557 5.47372 81.1879 5.28302 81.7286H2.09561C1.53982 81.7286 1.00679 81.9494 0.613789 82.3424C0.220787 82.7354 0 83.2684 0 83.8242V92.2066C0 92.7624 0.220787 93.2955 0.613789 93.6885C1.00679 94.0815 1.53982 94.3022 2.09561 94.3022H5.28302C5.47372 94.845 5.68957 95.3752 5.92637 95.8907L2.70962 99.1075C2.31675 99.5005 2.09605 100.033 2.09605 100.589C2.09605 101.145 2.31675 101.678 2.70962 102.071L8.99643 108.357C9.38942 108.75 9.92235 108.971 10.478 108.971C11.0337 108.971 11.5666 108.75 11.9596 108.357L15.1764 105.141C15.6919 105.378 16.2242 105.593 16.7648 105.784V108.971C16.7648 109.527 16.9856 110.06 17.3786 110.453C17.7716 110.846 18.3047 111.067 18.8604 111.067V117.354C18.8638 120.688 20.1896 123.884 22.5469 126.241C24.9041 128.598 28.1004 129.924 31.4341 129.928H77.5374C80.8711 129.924 84.0673 128.598 86.4246 126.241C88.7819 123.884 90.1077 120.688 90.111 117.354V64.8569C96.3908 64.3274 102.243 61.461 106.512 56.8244C110.78 52.1879 113.153 46.1186 113.163 39.8165ZM72.4786 4.19121L68.2874 8.38242H40.6841L36.4929 4.19121H72.4786ZM23.0517 12.5736C23.058 10.493 23.8396 8.48941 25.2439 6.95414C26.6482 5.41887 28.5743 4.46216 30.6461 4.27084L38.3349 11.9596C38.7278 12.3526 39.2608 12.5735 39.8165 12.5736H69.155C69.7107 12.5735 70.2437 12.3526 70.6366 11.9596L78.3253 4.27084C80.3972 4.46216 82.3233 5.41887 83.7276 6.95414C85.1319 8.48941 85.9135 10.493 85.9198 12.5736V14.7761C79.64 15.3056 73.7874 18.172 69.5191 22.8086C65.2507 27.4451 62.8774 33.5144 62.8682 39.8165C62.8682 40.5185 62.8996 41.2164 62.9583 41.9121H29.3385C28.7827 41.9121 28.2497 42.1329 27.8567 42.5259C27.4637 42.9189 27.2429 43.4519 27.2429 44.0077V60.7726H31.4341V46.1033H63.6813C64.0588 47.5424 64.5637 48.945 65.1901 50.2945H35.6253V54.4857H67.6336C67.7258 54.6136 67.8054 54.7477 67.8997 54.8734L63.4822 59.291C63.1761 59.5981 62.9728 59.9926 62.9003 60.4202C62.8279 60.8477 62.8898 61.2872 63.0777 61.678C63.2655 62.0689 63.5699 62.3918 63.949 62.6024C64.3281 62.8129 64.7632 62.9006 65.1943 62.8535L75.6597 61.6883C76.2675 62.0341 76.9066 62.317 77.5458 62.5999V83.8242H46.1033C46.1033 83.2684 45.8825 82.7354 45.4895 82.3424C45.0965 81.9494 44.5635 81.7286 44.0077 81.7286H40.8203C40.6296 81.1858 40.4137 80.6557 40.1769 80.1401L43.3937 76.9234C43.7866 76.5304 44.0073 75.9975 44.0073 75.4418C44.0073 74.8861 43.7866 74.3532 43.3937 73.9602L37.1069 67.6734C36.7139 67.2805 36.181 67.0598 35.6253 67.0598C35.0696 67.0598 34.5367 67.2805 34.1437 67.6734L30.9269 70.8901C30.4114 70.6533 29.8791 70.4375 29.3385 70.2468V67.0594C29.3385 66.5036 29.1177 65.9706 28.7247 65.5776C28.3317 65.1846 27.7987 64.9638 27.2429 64.9638H23.0517V12.5736ZM15.8092 100.761C15.4106 100.535 14.9489 100.445 14.4947 100.507C14.0405 100.568 13.6189 100.777 13.2945 101.1L10.478 103.913L7.1544 100.589L9.9667 97.7768C10.2905 97.4524 10.499 97.0308 10.5603 96.5766C10.6217 96.1224 10.5324 95.6606 10.3062 95.262C9.66922 94.1385 9.18371 92.9357 8.86232 91.6848C8.74668 91.235 8.4849 90.8364 8.1181 90.5515C7.75131 90.2667 7.30028 90.1117 6.83587 90.111H4.19121V85.9198H6.83587C7.29973 85.9194 7.75033 85.765 8.11705 85.481C8.48377 85.1969 8.74589 84.7992 8.86232 84.3502C9.18371 83.0993 9.66922 81.8965 10.3062 80.773C10.5324 80.3744 10.6217 79.9126 10.5603 79.4584C10.499 79.0042 10.2905 78.5827 9.9667 78.2583L7.1544 75.4418L10.478 72.1182L13.2903 74.9305C13.6147 75.2543 14.0363 75.4628 14.4905 75.5241C14.9447 75.5854 15.4064 75.4961 15.8051 75.27C16.9285 74.633 18.1314 74.1475 19.3823 73.8261C19.832 73.7104 20.2307 73.4487 20.5155 73.0819C20.8004 72.7151 20.9554 72.2641 20.9561 71.7996V69.155H25.1473V71.7996C25.1477 72.2635 25.3021 72.7141 25.5861 73.0808C25.8702 73.4475 26.2679 73.7097 26.7169 73.8261C27.9677 74.1475 29.1706 74.633 30.2941 75.27C30.6927 75.4961 31.1545 75.5854 31.6087 75.5241C32.0629 75.4628 32.4844 75.2543 32.8088 74.9305L35.6253 72.1182L38.9489 75.4418L36.1366 78.2541C35.8128 78.5785 35.6043 79 35.543 79.4542C35.4817 79.9084 35.5709 80.3702 35.7971 80.7688C36.4341 81.8923 36.9196 83.0952 37.241 84.346C37.3574 84.795 37.6195 85.1927 37.9863 85.4768C38.353 85.7608 38.8036 85.9152 39.2675 85.9156H41.9121V90.1068H39.2675C38.8036 90.1073 38.353 90.2616 37.9863 90.5457C37.6195 90.8297 37.3574 91.2274 37.241 91.6765C36.9196 92.9273 36.4341 94.1301 35.7971 95.2536C35.5709 95.6523 35.4817 96.114 35.543 96.5682C35.6043 97.0224 35.8128 97.444 36.1366 97.7684L38.9489 100.589L35.6253 103.913L32.813 101.1C32.4886 100.777 32.0671 100.568 31.6129 100.507C31.1587 100.445 30.6969 100.535 30.2983 100.761C29.1748 101.398 27.9719 101.883 26.7211 102.205C26.2721 102.321 25.8744 102.583 25.5903 102.95C25.3063 103.317 25.1519 103.767 25.1515 104.231V106.876H20.9561V104.231C20.9556 103.767 20.8012 103.317 20.5172 102.95C20.2332 102.583 19.8355 102.321 19.3864 102.205C18.1356 101.883 16.9327 101.398 15.8092 100.761ZM69.155 125.736H39.8165V123.641C39.8165 123.085 40.0373 122.552 40.4303 122.159C40.8233 121.766 41.3563 121.545 41.9121 121.545H67.0594C67.6152 121.545 68.1482 121.766 68.5412 122.159C68.9342 122.552 69.155 123.085 69.155 123.641V125.736ZM77.5374 125.736H73.3462V123.641C73.3462 121.973 72.6838 120.374 71.5048 119.195C70.3258 118.016 68.7267 117.354 67.0594 117.354H41.9121C40.2447 117.354 38.6457 118.016 37.4667 119.195C36.2877 120.374 35.6253 121.973 35.6253 123.641V125.736H31.4341C29.2109 125.736 27.0788 124.853 25.5068 123.281C23.9348 121.709 23.0517 119.577 23.0517 117.354V111.067H27.2429C27.7987 111.067 28.3317 110.846 28.7247 110.453C29.1177 110.06 29.3385 109.527 29.3385 108.971V105.784C29.8812 105.593 30.4114 105.378 30.9269 105.141L34.1437 108.357C34.5367 108.75 35.0696 108.971 35.6253 108.971C36.181 108.971 36.7139 108.75 37.1069 108.357L43.3937 102.071C43.7866 101.678 44.0073 101.145 44.0073 100.589C44.0073 100.033 43.7866 99.5005 43.3937 99.1075L40.1769 95.8907C40.4137 95.3752 40.6296 94.8429 40.8203 94.3022H44.0077C44.5635 94.3022 45.0965 94.0815 45.4895 93.6885C45.8825 93.2955 46.1033 92.7624 46.1033 92.2066V88.0154H79.633C80.1888 88.0154 80.7218 87.7946 81.1148 87.4016C81.5078 87.0086 81.7286 86.4756 81.7286 85.9198V64.1507C83.1042 64.4936 84.5062 64.72 85.9198 64.8276V117.354C85.9198 119.577 85.0367 121.709 83.4647 123.281C81.8927 124.853 79.7606 125.736 77.5374 125.736ZM88.0154 60.7726C84.2019 60.7666 80.4626 59.718 77.2021 57.7402C76.8748 57.5417 76.4994 57.4366 76.1166 57.4364C76.0396 57.4364 75.9626 57.4406 75.8861 57.4489L70.6722 58.0294L72.1999 56.4996C72.5762 56.1231 72.7952 55.6175 72.8123 55.0855C72.8294 54.5535 72.6434 54.0348 72.2921 53.6349C69.1383 50.036 67.3127 45.4652 67.1192 40.6839C66.9258 35.9026 68.3761 31.1992 71.2288 27.3573C74.0815 23.5153 78.1642 20.7665 82.7972 19.5688C87.4301 18.371 92.3335 18.7966 96.6908 20.7746C101.048 22.7526 104.596 26.1637 106.744 30.4397C108.893 34.7157 109.511 39.5985 108.497 44.275C107.482 48.9515 104.896 53.1394 101.17 56.1412C97.4432 59.143 92.8007 60.7775 88.0154 60.7726Z" fill="white"/>
<path d="M88.0152 29.3385C89.1268 29.3385 90.1929 29.78 90.9789 30.5661C91.7649 31.3521 92.2064 32.4181 92.2064 33.5297H96.3977C96.3907 31.6767 95.77 29.8783 94.6325 28.4155C93.4951 26.9527 91.905 25.9081 90.1108 25.4448V20.9561H85.9196V25.4448C83.9463 25.9527 82.2263 27.1633 81.0822 28.8494C79.9382 30.5356 79.4489 32.5812 79.7061 34.6025C79.9633 36.6238 80.9494 38.4818 82.4793 39.8276C84.0092 41.1734 85.9776 41.9146 88.0152 41.9121C88.8442 41.9121 89.6545 42.1579 90.3437 42.6185C91.033 43.079 91.5702 43.7336 91.8874 44.4994C92.2046 45.2653 92.2876 46.108 92.1259 46.921C91.9642 47.734 91.565 48.4808 90.9789 49.067C90.3927 49.6531 89.6459 50.0523 88.8329 50.214C88.0199 50.3757 87.1772 50.2927 86.4113 49.9755C85.6455 49.6583 84.9909 49.1211 84.5304 48.4318C84.0698 47.7426 83.824 46.9323 83.824 46.1033H79.6328C79.6398 47.9563 80.2605 49.7547 81.3979 51.2175C82.5354 52.6803 84.1255 53.7249 85.9196 54.1882V58.677H90.1108V54.1882C92.0841 53.6803 93.8042 52.4697 94.9482 50.7836C96.0923 49.0974 96.5816 47.0518 96.3244 45.0305C96.0672 43.0092 95.0811 41.1512 93.5512 39.8054C92.0213 38.4596 90.0528 37.7184 88.0152 37.7209C86.9037 37.7209 85.8376 37.2793 85.0516 36.4933C84.2656 35.7073 83.824 34.6413 83.824 33.5297C83.824 32.4181 84.2656 31.3521 85.0516 30.5661C85.8376 29.78 86.9037 29.3385 88.0152 29.3385Z" fill="white"/>
<path d="M73.3464 67.0596H46.1035V71.2508H73.3464V67.0596Z" fill="white"/>
<path d="M73.3464 75.4414H46.1035V79.6326H73.3464V75.4414Z" fill="white"/>
<path d="M33.5303 88.0151C33.5303 85.9428 32.9158 83.917 31.7644 82.1939C30.6131 80.4708 28.9766 79.1278 27.062 78.3347C25.1474 77.5417 23.0406 77.3341 21.0081 77.7384C18.9756 78.1427 17.1085 79.1407 15.6432 80.6061C14.1778 82.0714 13.1799 83.9384 12.7756 85.971C12.3713 88.0035 12.5788 90.1103 13.3718 92.0249C14.1649 93.9395 15.5079 95.576 17.231 96.7273C18.9541 97.8786 20.9799 98.4932 23.0523 98.4932C25.8302 98.4898 28.4934 97.3848 30.4577 95.4205C32.422 93.4563 33.527 90.7931 33.5303 88.0151ZM16.7654 88.0151C16.7654 86.7717 17.1342 85.5562 17.825 84.5224C18.5158 83.4885 19.4976 82.6827 20.6464 82.2069C21.7952 81.731 23.0592 81.6065 24.2788 81.8491C25.4983 82.0917 26.6185 82.6905 27.4977 83.5697C28.3769 84.4489 28.9757 85.5691 29.2183 86.7886C29.4608 88.0082 29.3363 89.2722 28.8605 90.421C28.3847 91.5698 27.5789 92.5516 26.545 93.2424C25.5112 93.9332 24.2957 94.302 23.0523 94.302C21.3849 94.302 19.7858 93.6396 18.6068 92.4606C17.4278 91.2816 16.7654 89.6825 16.7654 88.0151Z" fill="white"/>
<path d="M58.6786 58.6768H35.627V62.868H58.6786V58.6768Z" fill="white"/>
</svg>
