<svg width="114" height="114" viewBox="0 0 114 114" fill="none" xmlns="http://www.w3.org/2000/svg">
<path d="M34.4375 67.7647H28.0153V71.0865H34.4375C37.1848 71.0865 39.4202 68.8512 39.4202 66.1038C39.4202 63.3565 37.1848 61.1211 34.4375 61.1211H32.2229C31.307 61.1211 30.562 60.3762 30.562 59.4602C30.562 58.5443 31.307 57.7993 32.2229 57.7993H38.6451V54.4775H32.2229C29.4756 54.4775 27.2402 56.7129 27.2402 59.4602C27.2402 62.2076 29.4756 64.4429 32.2229 64.4429H34.4375C35.3534 64.4429 36.0984 65.1879 36.0984 66.1038C36.0984 67.0198 35.3534 67.7647 34.4375 67.7647Z" fill="white"/>
<path d="M54.9202 71.1973V60.5675C54.9202 57.2096 52.1881 54.4775 48.8302 54.4775C45.4723 54.4775 42.7402 57.2096 42.7402 60.5675V71.1973H46.062V67.9862H51.5984V71.1973H54.9202ZM46.062 64.6644V60.5675C46.062 59.041 47.3037 57.7993 48.8302 57.7993C50.3567 57.7993 51.5984 59.041 51.5984 60.5675V64.6644H46.062Z" fill="white"/>
<path d="M70.4221 71.1973V60.5675C70.4221 57.2096 67.6901 54.4775 64.3322 54.4775C60.9743 54.4775 58.2422 57.2096 58.2422 60.5675V71.1973H61.564V67.9862H67.1003V71.1973H70.4221ZM61.564 64.6644V60.5675C61.564 59.041 62.8057 57.7993 64.3322 57.7993C65.8586 57.7993 67.1003 59.041 67.1003 60.5675V64.6644H61.564Z" fill="white"/>
<path d="M78.7268 57.7993H85.149V54.4775H78.7268C75.9795 54.4775 73.7441 56.7129 73.7441 59.4602C73.7441 62.2076 75.9795 64.4429 78.7268 64.4429H80.9414C81.8573 64.4429 82.6023 65.1879 82.6023 66.1038C82.6023 67.0198 81.8573 67.7647 80.9414 67.7647H74.5192V71.0865H80.9414C83.6887 71.0865 85.9241 68.8512 85.9241 66.1038C85.9241 63.3565 83.6887 61.1211 80.9414 61.1211H78.7268C77.8109 61.1211 77.0659 60.3762 77.0659 59.4602C77.0659 58.5443 77.8109 57.7993 78.7268 57.7993Z" fill="white"/>
<path d="M4.87816 53.752L1.80859 55.0213C4.02911 60.3902 8.12046 64.7597 13.3288 67.3246L14.7964 64.3445C10.3124 62.1364 6.79019 58.3746 4.87816 53.752Z" fill="white"/>
<path d="M53.9255 3.3218C62.5586 3.3218 70.8209 7.02362 76.593 13.4781L77.2601 14.2235L78.2309 13.9828C79.409 13.6909 80.6195 13.5428 81.8286 13.5428C85.4089 13.5428 88.8722 14.8325 91.5803 17.1746L93.7532 14.662C90.4416 11.7982 86.2068 10.221 81.8286 10.221C80.6826 10.221 79.5357 10.3297 78.4076 10.5449C72.0444 3.83092 63.1778 0 53.9255 0C47.9414 0 42.0616 1.59136 36.9219 4.6018L38.6009 7.46807C43.2317 4.75571 48.5309 3.3218 53.9255 3.3218Z" fill="white"/>
<path d="M3.3218 45.8779C3.3218 34.714 12.3684 25.4933 23.4878 25.3235L24.6659 25.3055L25.0384 24.1874C27.0468 18.1559 30.8263 12.9726 35.968 9.19832L34.0022 6.52051C28.6153 10.475 24.5769 15.8255 22.27 22.0482C16.4279 22.42 10.9894 24.904 6.85 29.1169C2.43267 33.6122 0 39.5649 0 45.8779C0 47.8238 0.234298 49.7595 0.696249 51.6312L3.92105 50.8353C3.52332 49.2238 3.3218 47.5558 3.3218 45.8779Z" fill="white"/>
<path d="M100.093 28.1938C100.019 24.2116 98.6972 20.4545 96.2581 17.3076L93.6328 19.3426C95.6881 21.9945 96.7744 25.1767 96.7744 28.5459C96.7744 28.7521 96.7688 28.972 96.7569 29.2378L96.7022 30.4529L97.8438 30.8719C105.019 33.5049 109.84 40.428 109.84 48.0992C109.84 55.5863 105.377 62.252 98.47 65.0815L99.7292 68.1555C107.889 64.8129 113.162 56.9402 113.162 48.0992C113.162 39.4399 107.957 31.5869 100.093 28.1938Z" fill="white"/>
<path d="M20.5952 72.7473V52.8165C20.5952 51.2901 21.8369 50.0484 23.3634 50.0484H79.2013V46.7266H23.3634C20.0055 46.7266 17.2734 49.4586 17.2734 52.8165V72.7473C17.2734 76.1052 20.0055 78.8373 23.3634 78.8373H31.1143V75.5155H23.3634C21.8369 75.5155 20.5952 74.2738 20.5952 72.7473Z" fill="white"/>
<path d="M89.7989 46.7266H82.5226V50.0484H89.7989C91.3254 50.0484 92.5671 51.2901 92.5671 52.8165V72.7473C92.5671 74.2738 91.3254 75.5155 89.7989 75.5155H34.4355V78.8373H45.176V85.1253L39.4182 90.883V96.7859C36.8653 97.5109 34.9892 99.8617 34.9892 102.644C34.9892 106.002 37.7213 108.734 41.0791 108.734C44.437 108.734 47.1691 106.002 47.1691 102.644C47.1691 99.8617 45.293 97.5109 42.74 96.7859V92.2589L48.4978 86.5011V78.8373H54.92V101.215C52.3671 101.94 50.4909 104.291 50.4909 107.073C50.4909 110.431 53.223 113.163 56.5809 113.163C59.9388 113.163 62.6709 110.431 62.6709 107.073C62.6709 104.291 60.7947 101.94 58.2418 101.215V78.8373H64.6639V86.5009L70.4217 92.2587V96.7857C67.8688 97.5107 65.9927 99.8614 65.9927 102.644C65.9927 106.001 68.7247 108.734 72.0826 108.734C75.4405 108.734 78.1726 106.001 78.1726 102.644C78.1726 99.8614 76.2964 97.5107 73.7435 96.7857V90.8828L67.9857 85.125V78.8373H89.7989C93.1568 78.8373 95.8889 76.1052 95.8889 72.7473V52.8165C95.8889 49.4586 93.1568 46.7266 89.7989 46.7266ZM43.8473 102.644C43.8473 104.17 42.6056 105.412 41.0791 105.412C39.5527 105.412 38.311 104.17 38.311 102.644C38.311 101.117 39.5527 99.8754 41.0791 99.8754C42.6056 99.8754 43.8473 101.117 43.8473 102.644ZM59.3491 107.073C59.3491 108.599 58.1074 109.841 56.5809 109.841C55.0544 109.841 53.8127 108.599 53.8127 107.073C53.8127 105.546 55.0544 104.304 56.5809 104.304C58.1074 104.304 59.3491 105.546 59.3491 107.073ZM74.8508 102.644C74.8508 104.17 73.6091 105.412 72.0826 105.412C70.5561 105.412 69.3145 104.17 69.3145 102.644C69.3145 101.117 70.5561 99.8754 72.0826 99.8754C73.6091 99.8754 74.8508 101.117 74.8508 102.644Z" fill="white"/>
<path d="M54.9219 17.3838H58.2437V36.2073H54.9219V17.3838Z" fill="white"/>
<path d="M54.9219 39.5293H58.2437V42.8511H54.9219V39.5293Z" fill="white"/>
<path d="M45.1777 39.5293H48.4995V42.8511H45.1777V39.5293Z" fill="white"/>
<path d="M48.4976 31.3125L42.7398 25.5547V21.8135H39.418V26.9304L45.1758 32.6882V36.2079H48.4976V31.3125Z" fill="white"/>
<path d="M64.666 39.5293H67.9878V42.8511H64.666V39.5293Z" fill="white"/>
<path d="M67.9878 32.6882L73.7456 26.9304V21.8135H70.4238V25.5547L64.666 31.3125V36.2079H67.9878V32.6882Z" fill="white"/>
<path d="M54.9219 10.7402H58.2437V14.062H54.9219V10.7402Z" fill="white"/>
<path d="M39.418 15.1699H42.7398V18.4917H39.418V15.1699Z" fill="white"/>
<path d="M70.4219 15.1699H73.7437V18.4917H70.4219V15.1699Z" fill="white"/>
</svg>
