<svg width="114" height="119" viewBox="0 0 114 119" fill="none" xmlns="http://www.w3.org/2000/svg">
<path d="M99.7085 23.5073H73.9059V19.084C73.9059 17.9782 73.1687 17.241 72.0629 17.241H62.8477L74.8274 3.04957C75.5647 2.31235 75.3804 1.02222 74.6431 0.469312C73.9059 -0.267905 72.6158 -0.0836008 72.0629 0.653615L58.793 16.5038L45.7074 5.26122C44.9702 4.524 43.8644 4.7083 43.1271 5.44552C42.3899 6.18274 42.5742 7.28856 43.3115 8.02578L54.0011 17.4253H40.7312C39.6254 17.4253 38.8882 18.1625 38.8882 19.2683V23.6916H13.0856C5.89773 23.6916 0 29.5893 0 36.7772V95.3859C0 102.574 5.89773 108.471 13.0856 108.471H29.673L24.3281 115.291C23.7752 116.028 23.7752 117.318 24.6967 117.871C25.434 118.424 26.7241 118.424 27.277 117.502L34.6492 108.471H78.5135L85.8857 117.502C86.4386 118.24 87.7287 118.424 88.466 117.871C89.2032 117.318 89.3875 116.028 88.8345 115.291L83.4897 108.471H100.077C107.265 108.471 113.163 102.574 113.163 95.3859V36.5929C112.61 29.405 106.896 23.5073 99.7085 23.5073ZM42.5742 21.1114H70.2198V23.6916H42.5742V21.1114ZM108.924 95.2016C108.924 100.362 104.685 104.601 99.5242 104.601H13.0856C7.92507 104.601 3.68608 100.362 3.68608 95.2016V36.5929C3.68608 31.4324 7.92507 27.1934 13.0856 27.1934H99.5242C104.685 27.1934 108.924 31.4324 108.924 36.5929V95.2016Z" fill="white"/>
<path d="M101.367 32.9072H11.427C10.3212 32.9072 9.58398 33.6444 9.58398 34.7503V97.045C9.58398 98.1509 10.3212 98.8881 11.427 98.8881H101.552C102.658 98.8881 103.395 98.1509 103.395 97.045V34.7503C103.21 33.8287 102.473 32.9072 101.367 32.9072ZM99.5244 95.202H13.2701V36.5933H99.7087V95.202H99.5244Z" fill="white"/>
<path d="M56.3967 86.723C67.8235 86.723 77.223 77.3235 77.223 65.8967C77.223 54.4698 67.8235 45.0703 56.3967 45.0703C44.9698 45.0703 35.5703 54.4698 35.5703 65.8967C35.5703 77.3235 44.9698 86.723 56.3967 86.723ZM56.3967 48.9407C65.7962 48.9407 73.5369 56.6815 73.5369 66.081C73.5369 75.4805 65.7962 83.2212 56.3967 83.2212C46.9972 83.2212 39.2564 75.4805 39.2564 66.081C39.2564 56.4972 46.9972 48.9407 56.3967 48.9407Z" fill="white"/>
<path d="M51.4203 79.1665C51.9732 79.5351 52.8947 79.3508 53.4476 78.9822L67.4547 67.371C67.8233 67.0024 68.1919 66.4495 68.1919 65.8966C68.1919 65.3437 68.0076 64.7908 67.4547 64.4222L53.4476 52.811C52.8947 52.4424 52.1575 52.2581 51.4203 52.6267C50.6831 52.9953 50.3145 53.5482 50.3145 54.2854V77.5077C50.4988 78.245 50.8674 78.9822 51.4203 79.1665ZM54.1848 58.1558L63.5843 65.8966L54.1848 73.6374V58.1558Z" fill="white"/>
</svg>
