<svg width="114" height="114" viewBox="0 0 114 114" fill="none" xmlns="http://www.w3.org/2000/svg">
<path d="M98.7855 70.2528C100.212 65.8493 100.937 61.2566 100.937 56.5767C100.937 51.9141 100.217 47.3378 98.7994 42.9481C101.918 41.777 104.753 39.9021 107.107 37.4089C111.176 33.1021 113.323 27.4679 113.153 21.5462C112.803 9.32006 102.572 -0.339398 90.3446 0.0094997C84.422 0.178767 78.9208 2.64437 74.8524 6.95204C72.7979 9.12747 71.2347 11.6414 70.2113 14.3601C65.8208 12.9429 61.2445 12.2235 56.5802 12.2235C51.9132 12.2235 47.3335 12.9446 42.9403 14.3635C39.7717 5.97876 31.6625 0 22.1818 0C9.95049 0 0 9.95049 0 22.1809C0 31.6607 5.97962 39.7692 14.3644 42.9369C12.9446 47.3309 12.2244 51.9106 12.2244 56.5767C12.2244 61.2566 12.9489 65.8493 14.3756 70.2528C5.9848 73.4179 0 81.5298 0 91.0139C0 94.3526 0.723704 97.5627 2.15125 100.554C2.54592 101.381 3.53561 101.731 4.36208 101.337C5.18769 100.942 5.53832 99.9523 5.14451 99.1258C3.93114 96.5833 3.31626 93.8543 3.31626 91.0139C3.31626 80.6126 11.7796 72.1501 22.1818 72.1501C32.5848 72.1501 41.0482 80.6126 41.0482 91.0139C41.0482 101.416 32.5848 109.879 22.1818 109.879C17.4371 109.879 12.9023 108.111 9.41333 104.901C8.73885 104.281 7.68957 104.325 7.07036 104.998C6.45029 105.673 6.49347 106.721 7.16795 107.341C11.271 111.116 16.6029 113.195 22.1818 113.195C31.6763 113.195 39.7959 107.198 42.9541 98.7942C47.3421 100.21 51.9175 100.93 56.5802 100.93C61.2436 100.93 65.8199 100.21 70.2079 98.795C73.3661 107.199 81.4857 113.195 90.9803 113.195C103.212 113.195 113.162 103.244 113.162 91.0139C113.162 81.5298 107.177 73.4171 98.7855 70.2528ZM77.2636 9.22852C80.7232 5.56509 85.4031 3.46825 90.4405 3.32403C90.6236 3.31885 90.8049 3.31626 90.988 3.31626C101.142 3.31626 109.546 11.4264 109.838 21.6403C109.982 26.6769 108.157 31.4682 104.697 35.1324C101.237 38.7959 96.5574 40.8927 91.52 41.0369C91.3369 41.0421 91.1547 41.0447 90.9725 41.0447C80.8182 41.0447 72.4144 32.9346 72.1225 22.7207C71.9774 17.6841 73.804 12.8919 77.2636 9.22852ZM69.2778 95.6101C65.1921 96.9383 60.9284 97.6136 56.5802 97.6136C52.2336 97.6136 47.97 96.9383 43.8842 95.6101C44.1977 94.1264 44.3644 92.5891 44.3644 91.0139C44.3644 78.7835 34.4131 68.8339 22.1818 68.8339C20.5971 68.8339 19.0512 69.0023 17.5597 69.3192C16.2203 65.2188 15.5406 60.9396 15.5406 56.5767C15.5406 52.2276 16.2168 47.9622 17.5477 43.8722C19.0426 44.1917 20.5927 44.361 22.1818 44.361C25.9817 44.361 29.7306 43.3834 33.0252 41.5344C33.8232 41.0862 34.1073 40.0757 33.6591 39.2769C33.2109 38.4781 32.2005 38.1948 31.4017 38.643C28.6018 40.2139 25.4134 41.0447 22.1818 41.0447C11.7788 41.0447 3.31626 32.5822 3.31626 22.18C3.31626 11.7788 11.7796 3.31626 22.1818 3.31626C32.5848 3.31626 41.0482 11.7788 41.0482 22.1809C41.0482 26.5326 39.5308 30.7781 36.7759 34.1367C36.1947 34.844 36.2983 35.889 37.0065 36.4702C37.7138 37.0505 38.7587 36.9477 39.3399 36.2396C42.5793 32.2903 44.3644 27.2969 44.3644 22.18C44.3644 20.5919 44.1943 19.0417 43.8756 17.5468C47.9648 16.216 52.231 15.5398 56.5802 15.5398C60.9284 15.5398 65.1929 16.2151 69.2804 17.5442C68.9185 19.2559 68.7562 21.0219 68.8071 22.8157C69.1517 34.8259 79.0314 44.3618 90.9716 44.361C91.1849 44.361 91.4 44.3584 91.615 44.3515C92.9743 44.3126 94.3112 44.1511 95.6144 43.8756C96.9443 47.9639 97.6205 52.2293 97.6205 56.5767C97.6205 60.9396 96.94 65.2188 95.6014 69.3192C94.11 69.0014 92.5641 68.8339 90.9803 68.8339C78.749 68.8339 68.7985 78.7835 68.7985 91.0139C68.7985 92.59 68.9643 94.1272 69.2778 95.6101ZM90.9803 109.879C80.5772 109.879 72.1147 101.416 72.1147 91.0148C72.1147 80.6126 80.5772 72.1501 90.9803 72.1501C101.383 72.1501 109.846 80.6126 109.846 91.0148C109.846 101.416 101.383 109.879 90.9803 109.879Z" fill="white"/>
<path d="M33.4727 12.393C32.901 12.0044 32.1488 12.0104 31.584 12.4094C31.0192 12.8075 30.4147 13.14 29.7791 13.4034C27.5009 11.6209 24.1993 11.6417 21.9375 13.6081C20.7622 14.6306 20.0272 16.0443 19.8562 17.5712C17.4235 17.2093 15.2247 15.8699 13.7825 13.8162C13.4388 13.3274 12.8584 13.0623 12.2651 13.1193C11.6701 13.1771 11.1528 13.5502 10.9101 14.096C10.8626 14.2031 9.74684 16.7525 9.88934 19.8727C9.99815 22.2606 10.8523 25.3385 13.9673 27.7151C12.8455 28.077 11.6606 28.2445 10.48 28.197C9.71143 28.1668 9.02486 28.6668 8.8176 29.4061C8.61033 30.1453 8.93764 30.9303 9.60866 31.3034C12.2099 32.7482 14.9967 33.4719 17.7197 33.4719C20.3355 33.4719 22.8918 32.8035 25.1666 31.4658C28.0191 29.7878 30.0917 27.2186 31.217 24.0811C31.2524 24.0016 31.2818 23.9187 31.3051 23.8332C31.8837 22.1293 32.1868 20.2631 32.1868 18.2837C32.1868 18.1973 32.1842 18.1101 32.1808 18.0237C33.1273 16.9079 33.8026 15.5858 34.1515 14.1565C34.3139 13.4846 34.0445 12.7816 33.4727 12.393ZM28.8196 17.7664C28.8524 17.9391 28.8697 18.1178 28.8697 18.2888C28.8697 19.9142 28.6279 21.4194 28.1676 22.7796C28.1426 22.8418 28.1218 22.9066 28.1046 22.9731C27.2435 25.3825 25.6761 27.3179 23.4851 28.6072C21.4798 29.7878 19.1783 30.2904 16.8327 30.1203C17.3699 29.8543 17.8889 29.552 18.3855 29.2152C18.883 28.8767 19.1593 28.2955 19.1058 27.6953C19.0522 27.0951 18.6774 26.5717 18.1273 26.3273C15.0313 24.9516 13.3757 22.7632 13.2073 19.8243C13.1728 19.2224 13.203 18.6446 13.2678 18.1153C15.5486 20.0212 18.4701 21.061 21.5195 20.9824C22.4186 20.9591 23.1354 20.2242 23.1354 19.3252V18.3191C23.1354 18.3122 23.1354 18.3044 23.1354 18.2966C23.1241 17.4581 23.4799 16.6609 24.1138 16.1108C25.2987 15.0805 27.1002 15.2058 28.1305 16.3906C28.3377 16.6281 28.602 16.7965 28.8904 16.8855C28.7894 17.1636 28.7626 17.4667 28.8196 17.7664Z" fill="white"/>
<path d="M85.5234 23.4887H87.8741V33.3762C87.8741 34.2916 88.6168 35.0343 89.5322 35.0343C90.4485 35.0343 91.1904 34.2916 91.1904 33.3762V23.4887H93.751C94.6664 23.4887 95.4091 22.746 95.4091 21.8306C95.4091 20.9152 94.6664 20.1725 93.751 20.1725H91.1904V15.5331C91.1904 13.9407 92.4866 12.6444 94.08 12.6444H96.2269C97.1423 12.6444 97.885 11.9017 97.885 10.9863C97.885 10.07 97.1423 9.32812 96.2269 9.32812H94.08C90.6584 9.32812 87.8741 12.1115 87.8741 15.5331V20.1725H85.5234C84.6079 20.1725 83.8652 20.9152 83.8652 21.8306C83.8652 22.746 84.6079 23.4887 85.5234 23.4887Z" fill="white"/>
<path d="M18.4203 99.5899C18.815 99.5899 19.2097 99.488 19.5612 99.2851L30.8476 92.7657C31.5515 92.3598 31.9885 91.6024 31.9885 90.7898C31.9885 89.978 31.5515 89.2206 30.8476 88.8147L19.5612 82.2953C18.8582 81.8885 17.9842 81.8885 17.2804 82.2953C16.5765 82.7012 16.1387 83.4586 16.1387 84.2712V97.3091C16.1387 98.1218 16.5765 98.8792 17.2804 99.2851C17.6319 99.4889 18.0257 99.5899 18.4203 99.5899ZM19.4549 86.0641L27.6385 90.7906L19.4549 95.5171V86.0641Z" fill="white"/>
<path d="M98.1856 79.2705H83.7755C81.2727 79.2705 79.2363 81.3069 79.2363 83.8105V98.2181C79.2363 100.722 81.2727 102.758 83.7755 102.758H98.1856C100.688 102.758 102.725 100.722 102.725 98.2181V83.8105C102.725 81.3069 100.688 79.2705 98.1856 79.2705ZM99.4085 98.2181C99.4085 98.8934 98.8601 99.4418 98.1856 99.4418H83.7755C83.101 99.4418 82.5526 98.8934 82.5526 98.2181V83.8105C82.5526 83.136 83.101 82.5868 83.7755 82.5868H98.1856C98.8601 82.5868 99.4085 83.136 99.4085 83.8105V98.2181Z" fill="white"/>
<path d="M90.9811 86.002C88.2176 86.002 85.9688 88.2508 85.9688 91.0143C85.9688 93.7779 88.2176 96.0259 90.9811 96.0259C93.7447 96.0259 95.9935 93.7779 95.9935 91.0143C95.9935 88.2508 93.7447 86.002 90.9811 86.002ZM90.9811 92.7096C90.0458 92.7096 89.285 91.9488 89.285 91.0143C89.285 90.079 90.0458 89.3182 90.9811 89.3182C91.9164 89.3182 92.6773 90.079 92.6773 91.0143C92.6773 91.9488 91.9164 92.7096 90.9811 92.7096Z" fill="white"/>
<path d="M68.581 39.374C67.6647 39.374 66.9229 40.1167 66.9229 41.0322V41.7757C64.586 43.1532 62.129 44.3424 59.603 45.3156C57.5804 46.0946 55.4913 46.7423 53.3781 47.2493C53.0534 46.9997 52.6492 46.8486 52.2087 46.8486H44.6168C42.7825 46.8486 41.291 48.3409 41.291 50.1743V58.8821C41.291 60.7164 42.7825 62.2078 44.6168 62.2078H46.1341L46.7093 73.2637C46.7551 74.1489 47.4874 74.8355 48.364 74.8355C48.3925 74.8355 48.4218 74.8346 48.4512 74.8329C49.3658 74.7854 50.0687 74.0056 50.0212 73.091L49.4547 62.2078H52.2087C52.6483 62.2078 53.0534 62.0576 53.3772 61.808C54.7227 62.1327 56.0613 62.5144 57.3697 62.9488C58.2393 63.2364 59.1772 62.7657 59.4656 61.8969C59.7541 61.0273 59.2826 60.0885 58.4138 59.8009C57.0087 59.3346 55.5716 58.9244 54.126 58.5764V50.4818C56.3903 49.9394 58.6279 49.2442 60.7947 48.41C62.8899 47.6025 64.9418 46.6568 66.922 45.586V63.4747C66.1932 63.0809 65.4565 62.7053 64.7147 62.3486C63.889 61.9513 62.8985 62.2985 62.5021 63.1241C62.1048 63.9497 62.452 64.9403 63.2776 65.3375C64.5126 65.9317 65.7337 66.5863 66.922 67.2841V68.0242C66.922 68.9405 67.6647 69.6824 68.5802 69.6824C69.4956 69.6824 70.2383 68.9405 70.2383 68.0242V41.0322C70.2392 40.1167 69.4965 39.374 68.581 39.374ZM50.8106 58.8907L44.6073 58.8821L44.6168 50.1648H50.8106V58.8907Z" fill="white"/>
</svg>
