<svg width="114" height="114" viewBox="0 0 114 114" fill="none" xmlns="http://www.w3.org/2000/svg">
<path d="M56.5813 3.77208C58.4066 3.77209 60.2307 3.8653 62.0465 4.05135L62.4324 0.299068C57.2308 -0.234647 51.9806 -0.0533835 46.8281 0.837806L47.4741 4.55417C50.4819 4.0333 53.5288 3.77164 56.5813 3.77208Z" fill="white"/>
<path d="M25.6256 13.7915L23.4119 10.7373C16.1582 15.9789 10.2531 22.8685 6.18287 30.8387C2.11262 38.8089 -0.00641187 47.6319 0.000225314 56.5813C-0.0244626 65.2864 1.97998 73.8774 5.8545 81.6726L9.23428 79.998C5.61897 72.7228 3.74886 64.7052 3.77231 56.5813C3.76558 48.2279 5.74335 39.9924 9.54272 32.5531C13.3421 25.1137 18.8544 18.6833 25.6256 13.7915Z" fill="white"/>
<path d="M58.4043 109.359L58.5318 113.129C63.8382 112.952 69.093 112.028 74.1413 110.384L72.9715 106.798C68.2603 108.332 63.3563 109.194 58.4043 109.359Z" fill="white"/>
<path d="M22.6328 54.6953H26.4049V98.0743H22.6328V54.6953Z" fill="white"/>
<path d="M33.9492 54.6953H37.7213V98.0743H33.9492V54.6953Z" fill="white"/>
<path d="M45.2656 54.6953H49.0377V98.0743H45.2656V54.6953Z" fill="white"/>
<path d="M112.094 58.4014L78.1013 42.0501C76.7487 41.4014 75.194 41.3158 73.7783 41.8119C72.3627 42.3081 71.2016 43.3455 70.5498 44.6965L60.3535 65.8941V47.151C60.3506 44.6509 59.3562 42.2539 57.5883 40.486C55.8204 38.7181 53.4234 37.7237 50.9233 37.7208H43.3791V7.54416C43.3791 5.54333 42.5843 3.62444 41.1695 2.20963C39.7547 0.794829 37.8358 0 35.8349 0C33.8341 0 31.9152 0.794829 30.5004 2.20963C29.0856 3.62444 28.2908 5.54333 28.2908 7.54416V37.7208H20.7466C18.2464 37.7237 15.8495 38.7181 14.0816 40.486C12.3137 42.2539 11.3192 44.6509 11.3164 47.151V96.1881C11.3187 98.125 11.9163 100.014 13.0284 101.6C14.1404 103.186 15.713 104.392 17.5332 105.054C17.1294 105.893 16.9391 106.819 16.979 107.749C17.0189 108.68 17.2879 109.586 17.7621 110.388C18.2363 111.189 18.901 111.861 19.6972 112.345C20.4934 112.828 21.3966 113.107 22.3266 113.157C23.2565 113.207 24.1845 113.027 25.0283 112.633C25.872 112.239 26.6053 111.642 27.1632 110.896C27.7211 110.151 28.0863 109.279 28.2264 108.358C28.3665 107.437 28.2772 106.496 27.9663 105.618H43.7036C43.393 106.496 43.3039 107.437 43.4442 108.357C43.5844 109.278 43.9497 110.15 44.5075 110.895C45.0654 111.64 45.7986 112.237 46.6421 112.631C47.4857 113.025 48.4135 113.205 49.3432 113.155C50.2729 113.104 51.1759 112.825 51.972 112.343C52.768 111.86 53.4326 111.188 53.9068 110.386C54.3809 109.585 54.65 108.679 54.6901 107.749C54.7302 106.819 54.5401 105.893 54.1367 105.054C55.6193 104.513 56.9431 103.609 57.9875 102.426C59.032 101.243 59.764 99.8173 60.1169 98.279L86.7502 111.09C86.9734 111.198 87.2156 111.26 87.4629 111.274C87.7103 111.288 87.9579 111.253 88.1917 111.171C88.4255 111.089 88.6409 110.962 88.8254 110.797C89.01 110.631 89.1602 110.431 89.2674 110.208L112.976 60.9185C113.193 60.4678 113.222 59.9493 113.056 59.4773C112.891 59.0052 112.545 58.6182 112.094 58.4014ZM75.6519 45.2634C75.9339 45.2633 76.2123 45.3269 76.4663 45.4494L108.759 60.983L107.124 64.3823L74.8311 48.849C74.3811 48.6318 74.0355 48.2451 73.87 47.7737C73.7045 47.3022 73.7326 46.7843 73.9482 46.3335L73.9491 46.3316C74.1036 46.0113 74.3453 45.7411 74.6466 45.5521C74.9478 45.3632 75.2963 45.2631 75.6519 45.2634ZM32.0629 7.54416C32.0629 6.54375 32.4603 5.5843 33.1677 4.8769C33.8751 4.1695 34.8345 3.77208 35.8349 3.77208C36.8354 3.77208 37.7948 4.1695 38.5022 4.8769C39.2096 5.5843 39.607 6.54375 39.607 7.54416V37.7208H32.0629V7.54416ZM24.5187 107.504C24.5187 107.877 24.4081 108.242 24.2008 108.552C23.9936 108.862 23.699 109.104 23.3544 109.247C23.0098 109.39 22.6306 109.427 22.2647 109.354C21.8988 109.281 21.5628 109.102 21.299 108.838C21.0353 108.574 20.8556 108.238 20.7829 107.872C20.7101 107.506 20.7474 107.127 20.8902 106.783C21.0329 106.438 21.2747 106.143 21.5848 105.936C21.895 105.729 22.2596 105.618 22.6327 105.618C23.1327 105.619 23.6121 105.818 23.9657 106.171C24.3192 106.525 24.5181 107.004 24.5187 107.504ZM49.0372 109.39C48.6642 109.39 48.2996 109.28 47.9894 109.073C47.6792 108.865 47.4375 108.571 47.2948 108.226C47.152 107.881 47.1147 107.502 47.1874 107.136C47.2602 106.771 47.4398 106.434 47.7036 106.171C47.9674 105.907 48.3034 105.727 48.6693 105.655C49.0351 105.582 49.4144 105.619 49.759 105.762C50.1036 105.905 50.3982 106.146 50.6054 106.457C50.8127 106.767 50.9233 107.131 50.9233 107.504C50.9227 108.004 50.7238 108.484 50.3702 108.837C50.0167 109.191 49.5373 109.39 49.0372 109.39ZM50.9233 101.846H20.7466C19.2465 101.844 17.8083 101.248 16.7476 100.187C15.6869 99.1264 15.0902 97.6882 15.0885 96.1881V47.151C15.0902 45.6509 15.6869 44.2128 16.7476 43.152C17.8083 42.0913 19.2465 41.4946 20.7466 41.4929H28.2908V50.9231H32.0629V41.4929H39.607V50.9231H43.3791V41.4929H50.9233C52.4234 41.4946 53.8615 42.0913 54.9223 43.152C55.983 44.2128 56.5797 45.6509 56.5814 47.151V73.7361L50.1111 87.1875C49.789 87.8571 49.602 88.5836 49.5607 89.3255C49.5193 90.0673 49.6245 90.8101 49.8703 91.5113C50.116 92.2126 50.4974 92.8585 50.9928 93.4123C51.4882 93.9661 52.0878 94.4169 52.7574 94.739L56.5669 96.5714C56.4683 98.0016 55.8311 99.3412 54.7837 100.32C53.7364 101.299 52.3568 101.844 50.9233 101.846ZM86.6856 106.873L54.3925 91.3399C53.9417 91.123 53.5956 90.736 53.4302 90.2639C53.2647 89.7918 53.2936 89.2734 53.5105 88.8226L71.6371 51.1382C72.0896 51.5944 72.6169 51.9698 73.1961 52.2481L105.489 67.7814L86.6856 106.873Z" fill="white"/>
<path d="M86.8574 63.0057C84.5044 61.874 81.8686 61.4655 79.2834 61.8317C76.6983 62.198 74.2797 63.3226 72.3337 65.0634C70.3876 66.8041 69.0015 69.0829 68.3505 71.6114C67.6995 74.1399 67.8129 76.8048 68.6764 79.2688C69.5399 81.7329 71.1147 83.8856 73.2016 85.4548C75.2885 87.0239 77.7938 87.9389 80.4008 88.0842C83.0077 88.2295 85.5992 87.5984 87.8476 86.2709C90.0959 84.9434 91.9001 82.979 93.032 80.6261C94.5458 77.47 94.7458 73.8424 93.5882 70.5391C92.4306 67.2358 90.01 64.5265 86.8574 63.0057ZM90.2792 77.2091L86.8978 75.5827C87.6533 73.4981 88.0244 71.2937 87.993 69.0766L87.983 68.423C89.0717 69.5775 89.8526 70.9873 90.2538 72.5226C90.6551 74.058 90.6638 75.6695 90.2792 77.2091ZM78.5543 80.9157L78.0574 81.3004L78.0477 80.6721C78.0254 79.0409 78.2775 77.4176 78.7935 75.87L81.8405 77.3357C80.9535 78.7048 79.8426 79.915 78.5543 80.9157ZM80.4285 72.4709C81.3155 71.1017 82.4265 69.8914 83.7149 68.8906L84.2117 68.5059L84.2214 69.1342C84.2437 70.7654 83.9916 72.3889 83.4755 73.9365L80.4285 72.4709ZM81.1495 65.4735C81.4061 65.4735 81.6634 65.4876 81.9208 65.5089L81.4056 65.9077C79.6539 67.2672 78.1633 68.9332 77.0062 70.8247L73.6287 69.2C74.5111 68.0421 75.6488 67.1035 76.9532 66.4571C78.2577 65.8108 79.6937 65.4742 81.1495 65.4735ZM71.9885 72.5967L75.3712 74.2239C74.6157 76.3084 74.2447 78.5127 74.2761 80.7297L74.2862 81.3895C73.1951 80.2351 72.4125 78.8243 72.0109 77.2875C71.6093 75.7506 71.6016 74.1373 71.9885 72.5967ZM80.3468 84.2986L80.8635 83.8986C82.6152 82.5392 84.1057 80.8733 85.2627 78.9818L88.6442 80.6084C87.6814 81.8698 86.4169 82.8689 84.967 83.5137C83.5171 84.1586 81.9283 84.4285 80.3468 84.2986Z" fill="white"/>
<path d="M62.7773 91.1797L64.4106 87.7812L81.4038 95.9478L79.7706 99.3462L62.7773 91.1797Z" fill="white"/>
<path d="M81.4897 26.0134C80.3848 24.9112 78.8878 24.2922 77.327 24.2922C75.7663 24.2922 74.2693 24.9112 73.1644 26.0134C72.7674 26.4094 72.2296 26.6318 71.6689 26.6318C71.1082 26.6318 70.5704 26.4094 70.1735 26.0134L69.702 25.5419C67.2203 23.0662 63.8581 21.6758 60.3527 21.6758C56.8473 21.6758 53.485 23.0662 51.0034 25.5419C50.4986 26.0495 49.8981 26.4519 49.2368 26.7258C48.5754 26.9998 47.8662 27.1398 47.1504 27.1379V30.9099C48.3618 30.9133 49.5618 30.6763 50.681 30.2127C51.8002 29.7492 52.8163 29.0682 53.6706 28.2094C55.4442 26.4397 57.8473 25.4459 60.3527 25.4459C62.8581 25.4459 65.2612 26.4397 67.0347 28.2094L67.5063 28.6809C68.6112 29.7831 70.1082 30.4021 71.6689 30.4021C73.2296 30.4021 74.7266 29.7831 75.8316 28.6809C76.2284 28.2847 76.7663 28.0622 77.327 28.0622C77.8878 28.0622 78.4256 28.2847 78.8225 28.6809L82.2987 32.1571C89.0591 38.955 98.1371 42.9493 107.716 43.3407C108.527 46.4848 109.046 49.6973 109.266 52.9369L113.029 52.6805C112.531 45.2059 110.539 37.9072 107.171 31.2157L103.8 32.9088C104.869 35.0378 105.792 37.2369 106.563 39.491C98.4004 38.8435 90.7394 35.2957 84.9659 29.4897L81.4897 26.0134Z" fill="white"/>
<path d="M65.0276 9.15346L96.442 28.3512C97.5245 29.0162 98.7999 29.2963 100.061 29.1462C101.323 28.9961 102.497 28.4246 103.393 27.5242L110.724 20.1941C111.077 19.8404 111.276 19.3606 111.276 18.8604C111.276 18.3602 111.077 17.8804 110.724 17.5267L106.951 13.7546C106.643 13.4464 106.238 13.2545 105.804 13.2115C105.37 13.1686 104.935 13.2773 104.572 13.5191L99.9598 16.5936L91.3486 10.8528L95.8105 4.90365C96.0829 4.54045 96.2151 4.09117 96.1829 3.63831C96.1507 3.18544 95.9563 2.75938 95.6353 2.43836L93.7492 0.552316C93.4693 0.272436 93.1084 0.0877216 92.7177 0.0243379C92.327 -0.0390459 91.9262 0.0221147 91.5722 0.199155L81.1819 5.39427L77.6903 3.29918C75.8877 2.21483 73.7738 1.76534 71.6859 2.02238C69.598 2.27942 67.6563 3.2282 66.1705 4.71739L64.6774 6.21043C64.4757 6.41219 64.3223 6.6571 64.2289 6.92671C64.1355 7.19632 64.1045 7.4836 64.1382 7.76694C64.1719 8.05027 64.2695 8.32226 64.4235 8.56242C64.5776 8.80259 64.7841 9.00467 65.0276 9.15346ZM75.7496 6.5339L80.1289 9.16152C80.401 9.32471 80.7099 9.41663 81.027 9.42878C81.344 9.44094 81.659 9.37293 81.9428 9.23104L91.3941 4.50535L87.1347 10.1847C86.9808 10.3898 86.8704 10.6243 86.8102 10.8736C86.75 11.1229 86.7412 11.3819 86.7845 11.6347C86.8279 11.8875 86.9223 12.1288 87.062 12.3439C87.2018 12.5589 87.3839 12.7432 87.5974 12.8855L98.9136 20.4296C99.2234 20.6361 99.5874 20.7463 99.9598 20.7463C100.332 20.7463 100.696 20.6361 101.006 20.4296L105.378 17.5152L106.723 18.8604L100.726 24.857C100.427 25.1571 100.036 25.3476 99.6155 25.3976C99.195 25.4476 98.7699 25.3542 98.409 25.1325L69.0448 7.18776C69.9439 6.37318 71.0815 5.86976 72.2891 5.752C73.4966 5.63424 74.71 5.9084 75.7496 6.5339Z" fill="white"/>
</svg>
