<svg width="114" height="114" viewBox="0 0 114 114" fill="none" xmlns="http://www.w3.org/2000/svg">
<path d="M106.712 94.9599C105.732 93.2315 104.121 91.983 102.211 91.4939V65.4482C105.351 64.6323 107.687 61.7996 107.687 58.4065V52.6353L96.2266 18.252H79.6465C77.1642 7.80457 67.7771 0 56.5813 0C45.3855 0 35.9985 7.80457 33.5162 18.252H16.9361L5.47561 52.6353V58.4065C5.47561 61.7996 7.81188 64.6323 10.9512 65.4482V91.4939C9.04206 91.9812 7.43041 93.2315 6.45027 94.9599C2.82359 95.3834 0 98.4734 0 102.211V113.163H113.163V102.211C113.163 98.4734 110.339 95.3834 106.712 94.9599ZM104.037 58.4065C104.037 60.4198 102.399 62.057 100.386 62.057C98.3731 62.057 96.7358 60.4198 96.7358 58.4065V54.7561H104.037V58.4065ZM93.5947 21.9025L103.33 51.1057H96.3745L89.884 21.9025H93.5947ZM86.146 21.9025L92.6364 51.1057H85.5054L80.6375 21.9025H86.146ZM93.0854 54.7561V58.4065C93.0854 60.4198 91.4482 62.057 89.435 62.057C87.4218 62.057 85.7846 60.4198 85.7846 58.4065V54.7561H93.0854ZM81.8057 51.1057H74.6417L73.4517 40.3881C75.7077 38.1048 77.4872 35.3597 78.6754 32.3189L81.8057 51.1057ZM82.1342 54.7561V58.4065C82.1342 60.4198 80.497 62.057 78.4838 62.057C76.4706 62.057 74.8334 60.4198 74.8334 58.4065V54.7561H82.1342ZM56.5813 3.65041C67.6512 3.65041 76.6586 12.6578 76.6586 23.7277C76.6586 30.7583 73.0191 36.9458 67.5326 40.5341V28.9441C70.6719 28.1282 73.0082 25.2955 73.0082 21.9025V12.7764H69.3578V21.9025C69.3578 23.2476 68.6186 24.4121 67.5326 25.0455V12.7764H63.8822V25.0455C62.7962 24.4121 62.057 23.2476 62.057 21.9025V12.7764H58.4065V21.9025C58.4065 25.2955 60.7428 28.1282 63.8822 28.9441V42.4105C61.6153 43.2993 59.1585 43.8049 56.5813 43.8049C54.0042 43.8049 51.5474 43.2993 49.2805 42.4105V28.9441C52.4199 28.1282 54.7561 25.2955 54.7561 21.9025C54.7561 18.1407 51.9125 10.9512 47.4553 10.9512C42.9982 10.9512 40.1545 18.1407 40.1545 21.9025C40.1545 25.2955 42.4908 28.1282 45.6301 28.9441V40.5341C40.1436 36.9458 36.5041 30.7583 36.5041 23.7277C36.5041 12.6578 45.5115 3.65041 56.5813 3.65041ZM63.8822 54.7561H71.183V58.4065C71.183 60.4198 69.5458 62.057 67.5326 62.057C65.5194 62.057 63.8822 60.4198 63.8822 58.4065V54.7561ZM63.7836 51.1057L63.5226 46.415C65.8935 45.6867 68.1002 44.5934 70.0915 43.2081L70.9694 51.1057H63.7836ZM60.2318 54.7561V58.4065C60.2318 60.4198 58.5945 62.057 56.5813 62.057C54.5681 62.057 52.9309 60.4198 52.9309 58.4065V54.7561H60.2318ZM53.035 51.1057L53.2522 47.1943C54.3436 47.3476 55.4479 47.4553 56.5813 47.4553C57.7148 47.4553 58.819 47.3476 59.9105 47.1943L60.1277 51.1057H53.035ZM42.1933 51.1057L43.0712 43.2081C45.0625 44.5934 47.2691 45.6867 49.6401 46.415L49.3791 51.1057H42.1933ZM49.2805 54.7561V58.4065C49.2805 60.4198 47.6433 62.057 45.6301 62.057C43.6169 62.057 41.9797 60.4198 41.9797 58.4065V54.7561H49.2805ZM47.4553 25.5529C45.4421 25.5529 43.8049 23.9157 43.8049 21.9025C43.8049 19.1738 46.0901 14.6016 47.4553 14.6016C48.8206 14.6016 51.1057 19.1738 51.1057 21.9025C51.1057 23.9157 49.4685 25.5529 47.4553 25.5529ZM34.4872 32.3207C35.6736 35.3615 37.455 38.1048 39.711 40.39L38.5209 51.1057H31.357L34.4872 32.3207ZM38.3293 54.7561V58.4065C38.3293 60.4198 36.6921 62.057 34.6789 62.057C32.6657 62.057 31.0285 60.4198 31.0285 58.4065V54.7561H38.3293ZM32.5251 21.9025L27.6573 51.1057H20.5263L27.0167 21.9025H32.5251ZM27.3781 54.7561V58.4065C27.3781 60.4198 25.7409 62.057 23.7277 62.057C21.7145 62.057 20.0773 60.4198 20.0773 58.4065V54.7561H27.3781ZM19.568 21.9025H23.2787L16.7882 51.1057H9.83238L19.568 21.9025ZM9.12602 58.4065V54.7561H16.4268V58.4065C16.4268 60.4198 14.7896 62.057 12.7764 62.057C10.7632 62.057 9.12602 60.4198 9.12602 58.4065ZM32.8537 109.512H3.65041V105.862H32.8537V109.512ZM3.65041 102.211C3.65041 100.198 5.28762 98.5611 7.23146 98.5611L8.8997 98.6578L9.3487 97.3692C9.86158 95.8981 11.2396 94.9106 12.7764 94.9106C13.0301 94.9106 13.3021 94.949 13.6306 95.0256L14.7367 95.2921L15.4631 94.4178C16.8722 92.7204 19.6301 92.7204 21.041 94.4178L21.7674 95.2921L22.8735 95.0256C23.202 94.949 23.474 94.9106 23.7277 94.9106C25.2645 94.9106 26.6425 95.8981 27.1536 97.3692L27.6026 98.6578L28.966 98.5921C29.07 98.5866 29.1704 98.5738 29.2033 98.5611C31.2165 98.5611 32.8537 100.198 32.8537 102.211H3.65041ZM69.3578 109.512H43.8049V73.0082H69.3578V109.512ZM76.6586 102.211V109.512H73.0082V69.3578H40.1545V109.512H36.5041V102.211C36.5041 98.4734 33.6805 95.3834 30.0538 94.9599C28.6721 92.5233 26.0475 91.0102 23.0834 91.2913C20.7854 89.2361 17.2409 88.9641 14.6016 90.4571V65.4518C16.0326 65.0795 17.3029 64.3056 18.252 63.2287C19.5899 64.7491 21.5502 65.7074 23.7277 65.7074C25.9051 65.7074 27.8654 64.7491 29.2033 63.2306C30.5411 64.7491 32.5014 65.7074 34.6789 65.7074C36.8564 65.7074 38.8166 64.7491 40.1545 63.2306C41.4924 64.7491 43.4526 65.7074 45.6301 65.7074C47.8076 65.7074 49.7679 64.7491 51.1057 63.2306C52.4436 64.7491 54.4039 65.7074 56.5813 65.7074C58.7588 65.7074 60.7191 64.7491 62.057 63.2306C63.3948 64.7491 65.3551 65.7074 67.5326 65.7074C69.71 65.7074 71.6703 64.7491 73.0082 63.2306C74.3461 64.7491 76.3063 65.7074 78.4838 65.7074C80.6613 65.7074 82.6215 64.7491 83.9594 63.2306C85.2973 64.7491 87.2576 65.7074 89.435 65.7074C91.6125 65.7074 93.5728 64.7491 94.9106 63.2306C95.8597 64.3074 97.1301 65.0831 98.5611 65.4537V90.459C95.9218 88.9641 92.3773 89.2361 90.0793 91.2931C87.1225 91.0084 84.4887 92.5251 83.1089 94.9617C79.4822 95.3834 76.6586 98.4734 76.6586 102.211ZM109.512 109.512H80.309V105.862H109.512V109.512ZM80.309 102.211C80.309 100.198 81.9462 98.5611 83.8901 98.5611L85.5583 98.6578L86.0073 97.3692C86.5202 95.8981 87.8982 94.9106 89.435 94.9106C89.6887 94.9106 89.9607 94.949 90.2892 95.0256L91.3953 95.2921L92.1217 94.4178C93.5308 92.7204 96.2887 92.7204 97.6996 94.4178L98.426 95.2921L99.5321 95.0256C99.8606 94.949 100.133 94.9106 100.386 94.9106C101.923 94.9106 103.301 95.8981 103.812 97.3692L104.261 98.6578L105.625 98.5921C105.729 98.5866 105.829 98.5738 105.862 98.5611C107.875 98.5611 109.512 100.198 109.512 102.211H80.309Z" fill="white"/>
<path d="M51.1055 89.4355H47.4551V93.086H51.1055V89.4355Z" fill="white"/>
<path d="M20.0762 71.1826V85.7843H34.6778V71.1826H20.0762ZM31.0274 82.1338H23.7266V74.833H31.0274V82.1338Z" fill="white"/>
<path d="M78.4863 71.1826V85.7843H93.088V71.1826H78.4863ZM89.4376 82.1338H82.1367V74.833H89.4376V82.1338Z" fill="white"/>
</svg>
