<svg width="114" height="114" viewBox="0 0 114 114" fill="none" xmlns="http://www.w3.org/2000/svg">
<path d="M6.24377 113.155C5.26675 113.155 4.47461 112.363 4.47461 111.386V66.6549C4.47461 65.6779 5.26675 64.8857 6.24377 64.8857C7.2208 64.8857 8.01294 65.6779 8.01294 66.6549V111.386C8.01294 112.363 7.2208 113.155 6.24377 113.155Z" fill="white"/>
<path d="M106.918 113.155C105.941 113.155 105.148 112.363 105.148 111.386V66.6549C105.148 65.6779 105.941 64.8857 106.918 64.8857C107.895 64.8857 108.687 65.6779 108.687 66.6549V111.386C108.687 112.363 107.895 113.155 106.918 113.155Z" fill="white"/>
<path d="M111.393 113.155H1.76917C0.792144 113.155 0 112.362 0 111.385C0 110.408 0.792144 109.616 1.76917 109.616H111.393C112.37 109.616 113.162 110.408 113.162 111.385C113.162 112.362 112.37 113.155 111.393 113.155Z" fill="white"/>
<path d="M38.3993 52.753H1.76916C1.20037 52.753 0.666523 52.4797 0.33392 52.0181C0.00153757 51.5568 -0.0891324 50.9637 0.0908802 50.4241L6.80265 30.2937C7.04348 29.5712 7.71952 29.084 8.48093 29.084H28.6384C29.6154 29.084 30.4075 29.8761 30.4075 30.8532C30.4075 31.8302 29.6154 32.6223 28.6384 32.6223H9.75583L4.22387 49.2144H38.3993C39.3763 49.2144 40.1684 50.0066 40.1684 50.9836C40.1684 51.9606 39.3763 52.753 38.3993 52.753Z" fill="white"/>
<path d="M111.393 52.7528H74.7633C73.7863 52.7528 72.9941 51.9606 72.9941 50.9836C72.9941 50.0066 73.7863 49.2144 74.7633 49.2144H108.939L103.407 32.6223H84.5242C83.5472 32.6223 82.7551 31.8302 82.7551 30.8531C82.7551 29.8761 83.5472 29.084 84.5242 29.084H104.682C105.443 29.084 106.119 29.5712 106.36 30.2937L113.072 50.4241C113.251 50.9635 113.161 51.5568 112.829 52.0181C112.496 52.4792 111.962 52.7528 111.393 52.7528Z" fill="white"/>
<path d="M8.62048 68.4233C3.86695 68.4233 0 64.5562 0 59.8029V50.984C0 50.007 0.792144 49.2148 1.76917 49.2148H15.472C16.449 49.2148 17.2412 50.007 17.2412 50.984V59.8029C17.2412 64.5562 13.374 68.4233 8.62048 68.4233ZM3.53833 52.7532V59.8029C3.53833 62.6052 5.81834 64.885 8.62048 64.885C11.4228 64.885 13.7029 62.605 13.7029 59.8029V52.7532H3.53833Z" fill="white"/>
<path d="M22.3238 68.4233C17.5703 68.4233 13.7031 64.5562 13.7031 59.8029V50.984C13.7031 50.007 14.4953 49.2148 15.4723 49.2148H29.1754C30.1524 49.2148 30.9445 50.007 30.9445 50.984V59.8029C30.9445 64.5562 27.0774 68.4233 22.3238 68.4233ZM17.2415 52.7532V59.8029C17.2415 62.6052 19.5215 64.885 22.3238 64.885C25.1262 64.885 27.4062 62.605 27.4062 59.8029V52.7532H17.2415Z" fill="white"/>
<path d="M36.0281 68.4227C31.273 68.4227 27.4062 64.5562 27.4062 59.8031V50.984C27.4062 50.007 28.1984 49.2148 29.1754 49.2148H38.3994C39.3764 49.2148 40.1686 50.007 40.1686 50.984C40.1686 51.961 39.3764 52.7532 38.3994 52.7532H30.9446V59.8031C30.9446 62.6048 33.2242 64.8843 36.0258 64.8843C38.83 64.8843 41.1093 62.6048 41.1093 59.8031V54.1185C41.1093 53.1415 41.9015 52.3494 42.8785 52.3494C43.8555 52.3494 44.6477 53.1415 44.6477 54.1185V59.8033C44.6474 64.5562 40.7807 68.4227 36.0281 68.4227Z" fill="white"/>
<path d="M49.7331 68.4229C44.9781 68.4229 41.1113 64.5564 41.1113 59.8033V54.1188C41.1113 53.1418 41.9035 52.3496 42.8805 52.3496C43.8575 52.3496 44.6497 53.1418 44.6497 54.1188V59.8035C44.6497 62.6052 46.9292 64.8848 49.7309 64.8848C52.5351 64.8848 54.8144 62.6052 54.8144 59.8035V57.7004C54.8144 56.7234 55.6065 55.9313 56.5836 55.9313C57.5606 55.9313 58.3527 56.7234 58.3527 57.7004V59.8035C58.3527 64.5564 54.486 68.4229 49.7331 68.4229Z" fill="white"/>
<path d="M63.4363 68.4229C58.681 68.4229 54.8145 64.5564 54.8145 59.8033V57.7002C54.8145 56.7232 55.6066 55.9311 56.5836 55.9311C57.5606 55.9311 58.3528 56.7232 58.3528 57.7002V59.8033C58.3528 62.605 60.6324 64.8846 63.434 64.8846C66.2382 64.8846 68.5175 62.605 68.5175 59.8033V54.1188C68.5175 53.1418 69.3097 52.3496 70.2867 52.3496C71.2637 52.3496 72.0559 53.1418 72.0559 54.1188V59.8035C72.0559 64.5564 68.1891 68.4229 63.4363 68.4229Z" fill="white"/>
<path d="M77.1374 68.4225C72.3821 68.4225 68.5156 64.5559 68.5156 59.8029V54.1183C68.5156 53.1413 69.3078 52.3491 70.2848 52.3491C71.2618 52.3491 72.054 53.1413 72.054 54.1183V59.8031C72.054 62.6048 74.3335 64.8843 77.1352 64.8843C79.9394 64.8843 82.2187 62.6048 82.2187 59.8031V52.7532H74.7637C73.7866 52.7532 72.9945 51.961 72.9945 50.984C72.9945 50.007 73.7866 49.2148 74.7637 49.2148H83.9879C84.9649 49.2148 85.757 50.007 85.757 50.984V59.8031C85.757 64.5559 81.8903 68.4225 77.1374 68.4225Z" fill="white"/>
<path d="M90.8412 68.4233C86.0879 68.4233 82.2207 64.5562 82.2207 59.8029V50.984C82.2207 50.007 83.0128 49.2148 83.9899 49.2148H97.6929C98.67 49.2148 99.4621 50.007 99.4621 50.984V59.8029C99.4621 64.5562 95.5947 68.4233 90.8412 68.4233ZM85.759 52.7532V59.8029C85.759 62.6052 88.039 64.885 90.8412 64.885C93.6438 64.885 95.9235 62.605 95.9235 59.8029V52.7532H85.759Z" fill="white"/>
<path d="M104.544 68.4233C99.791 68.4233 95.9238 64.5562 95.9238 59.8029V50.984C95.9238 50.007 96.716 49.2148 97.693 49.2148H111.396C112.373 49.2148 113.165 50.007 113.165 50.984V59.8029C113.165 64.5562 109.298 68.4233 104.544 68.4233ZM99.4622 52.7532V59.8029C99.4622 62.6052 101.742 64.885 104.544 64.885C107.347 64.885 109.627 62.605 109.627 59.8029V52.7532H99.4622Z" fill="white"/>
<path d="M39.8045 113.154H15.1949C14.2179 113.154 13.4258 112.362 13.4258 111.385V80.0719C13.4258 79.0949 14.2179 78.3027 15.1949 78.3027H39.8045C40.7815 78.3027 41.5736 79.0949 41.5736 80.0719V111.385C41.5736 112.362 40.7815 113.154 39.8045 113.154ZM16.9641 109.616H38.0353V81.8411H16.9641V109.616Z" fill="white"/>
<path d="M97.9726 104.207H48.7535C47.7765 104.207 46.9844 103.415 46.9844 102.438V75.6012C46.9844 74.6242 47.7765 73.832 48.7535 73.832H97.9726C98.9496 73.832 99.7418 74.6242 99.7418 75.6012V102.438C99.7418 103.415 98.9496 104.207 97.9726 104.207ZM50.5227 100.669H96.2034V77.3704H50.5227V100.669Z" fill="white"/>
<path d="M57.7008 104.207C56.7238 104.207 55.9316 103.415 55.9316 102.438V75.6012C55.9316 74.6242 56.7238 73.832 57.7008 73.832C58.6778 73.832 59.47 74.6242 59.47 75.6012V102.438C59.47 103.415 58.6778 104.207 57.7008 104.207Z" fill="white"/>
<path d="M89.0211 104.207C88.0441 104.207 87.252 103.415 87.252 102.438V75.6012C87.252 74.6242 88.0441 73.832 89.0211 73.832C89.9981 73.832 90.7903 74.6242 90.7903 75.6012V102.438C90.7903 103.415 89.9981 104.207 89.0211 104.207Z" fill="white"/>
<path d="M24.1422 97.5028C23.1652 97.5028 22.373 96.7107 22.373 95.7337V93.4996C22.373 92.5226 23.1652 91.7305 24.1422 91.7305C25.1192 91.7305 25.9114 92.5226 25.9114 93.4996V95.7337C25.9114 96.7107 25.1195 97.5028 24.1422 97.5028Z" fill="white"/>
<path d="M56.5842 59.469C40.1885 59.469 26.8496 46.1301 26.8496 29.7344C26.8496 13.3386 40.1885 0 56.5842 0C72.9799 0 86.3188 13.3388 86.3188 29.7346C86.3188 46.1303 72.9799 59.469 56.5842 59.469ZM56.5842 3.53833C42.1396 3.53833 30.3879 15.2898 30.3879 29.7346C30.3879 44.1794 42.1396 55.9306 56.5842 55.9306C71.0288 55.9306 82.7804 44.1792 82.7804 29.7344C82.7804 15.2896 71.0288 3.53833 56.5842 3.53833Z" fill="white"/>
<path d="M63.2942 42.6907H54.3453C53.3683 42.6907 52.5762 41.8985 52.5762 40.9215C52.5762 39.9445 53.3683 39.1523 54.3453 39.1523H63.2942C64.2712 39.1523 65.0634 39.9445 65.0634 40.9215C65.0634 41.8985 64.2712 42.6907 63.2942 42.6907Z" fill="white"/>
<path d="M68.4185 38.2631C68.2161 38.2631 68.0102 38.2282 67.8092 38.1543C66.8921 37.8179 66.4213 36.8013 66.7577 35.884L70.8272 24.7922H45.7692C44.7921 24.7922 44 24.0001 44 23.0231C44 22.0461 44.7921 21.2539 45.7692 21.2539H73.3608C73.9387 21.2539 74.4803 21.5363 74.8116 22.0102C75.1424 22.4841 75.2211 23.0899 75.0219 23.6323L70.0797 37.1028C69.817 37.819 69.1396 38.2631 68.4185 38.2631Z" fill="white"/>
<path d="M49.5023 38.2315C48.7274 38.2315 48.0162 37.7185 47.7986 36.9356L44.0767 23.5399L43.0019 20.3176H39.8024C38.8253 20.3176 38.0332 19.5255 38.0332 18.5485C38.0332 17.5714 38.8253 16.7793 39.8024 16.7793H44.2768C45.0382 16.7793 45.7143 17.2665 45.9551 17.9887L47.4474 22.4632C47.4569 22.4917 47.4657 22.5205 47.4737 22.5494L51.2075 35.9885C51.4691 36.9299 50.9178 37.9051 49.9766 38.1667C49.8185 38.2105 49.6591 38.2315 49.5023 38.2315Z" fill="white"/>
<path d="M67.769 47.1649C64.3262 47.1649 61.5254 44.3641 61.5254 40.9213C61.5254 37.4785 64.3262 34.6777 67.769 34.6777C71.2116 34.6777 74.0124 37.4788 74.0124 40.9213C74.0124 44.3639 71.2116 47.1649 67.769 47.1649ZM67.769 38.2158C66.2774 38.2158 65.0637 39.4295 65.0637 40.9211C65.0637 42.4127 66.2774 43.6264 67.769 43.6264C69.2606 43.6264 70.474 42.4127 70.474 40.9211C70.474 39.4295 69.2606 38.2158 67.769 38.2158Z" fill="white"/>
<path d="M49.8725 47.1649C46.4297 47.1649 43.6289 44.3641 43.6289 40.9213C43.6289 37.4785 46.4297 34.6777 49.8725 34.6777C53.3153 34.6777 56.1161 37.4788 56.1161 40.9213C56.1161 44.3639 53.3153 47.1649 49.8725 47.1649ZM49.8725 38.2158C48.3809 38.2158 47.1672 39.4295 47.1672 40.9211C47.1672 42.4127 48.3809 43.6264 49.8725 43.6264C51.3641 43.6264 52.5778 42.4127 52.5778 40.9211C52.5778 39.4295 51.3644 38.2158 49.8725 38.2158Z" fill="white"/>
</svg>
