<svg width="114" height="114" viewBox="0 0 114 114" fill="none" xmlns="http://www.w3.org/2000/svg">
<path d="M51.6602 6.63672H64.9343V9.95527H51.6602V6.63672Z" fill="white"/>
<path d="M56.6367 99.5566H59.9553V102.875H56.6367V99.5566Z" fill="white"/>
<path d="M102.854 50.8244L95.3529 50.1432V8.29637C95.3529 3.72164 91.6313 0 87.0566 0H29.5351C24.9603 0 21.2387 3.72164 21.2387 8.29637V22.3449H6.63709V28.982H0V76.7691H21.2387V101.216C21.2387 105.79 24.9603 109.512 29.5351 109.512H79.2027V113.162H82.5212V106.387L80.2518 101.394C76.6954 93.5706 79.3474 84.4975 86.557 79.8203L87.3132 79.3296V65.3805C87.3132 63.1639 89.1165 61.3606 91.3328 61.3606C93.5494 61.3606 95.3527 63.1639 95.3527 65.3805V85.7756H98.6713V65.3805C98.6713 62.8174 97.3494 60.5584 95.3527 59.2456V53.4755L100.463 53.9394L109.622 78.8637L101.326 100.914V113.162H104.645V101.517L113.163 78.8772L102.854 50.8244ZM9.95564 25.6634H30.42C34.3846 25.6634 37.6102 28.8888 37.6102 32.8536V60.8192C35.7288 59.0507 33.1996 57.964 30.42 57.964H9.95564V25.6634ZM9.95564 61.2825H30.42C33.8136 61.2825 36.6635 63.6464 37.4149 66.8134H9.95564V61.2825ZM3.31855 73.4505V32.3005H6.63709V70.132H71.9019V32.3005H75.2204V73.4505H44.8811C44.5462 73.8722 43.4969 77.8752 39.2695 77.8752C35.0394 77.8752 33.9979 73.8784 33.6578 73.4505H3.31855ZM48.1189 57.964C45.3393 57.964 42.8101 59.0507 40.9288 60.8192V32.8536C40.9288 28.8888 44.1544 25.6634 48.1189 25.6634H68.5833V57.964H48.1189ZM68.5833 61.2825V66.8134H41.1241C41.8754 63.6464 44.7254 61.2825 48.1189 61.2825H68.5833ZM78.7878 106.194H29.5351C26.7902 106.194 24.5573 103.96 24.5573 101.216V96.2379H75.4897C75.9525 101.04 77.7965 103.712 78.7878 106.194ZM92.0344 58.0763C91.8034 58.0544 91.5698 58.042 91.3331 58.042C87.2866 58.042 83.9949 61.334 83.9949 65.3805V77.5511C80.2553 80.2212 77.5082 84.0791 76.2144 88.5059C75.7912 89.9536 75.5337 91.4337 75.4361 92.9193H24.5573V76.7691H31.6231C35.0036 82.6699 43.5391 82.6637 46.9161 76.7691H78.539V28.982H71.9019V22.3449H48.1189C44.4061 22.3449 41.1394 24.282 39.2695 27.197C37.3996 24.282 34.1328 22.3449 30.42 22.3449H24.5573V16.5927H92.0344V58.0763ZM92.0344 13.2742H24.5573V8.29637C24.5573 5.55171 26.7902 3.31855 29.5351 3.31855H87.0566C89.8014 3.31855 92.0344 5.55171 92.0344 8.29637V13.2742Z" fill="white"/>
<path d="M14.9336 34.5127H32.6325V37.8312H14.9336V34.5127Z" fill="white"/>
<path d="M14.9336 41.1504H25.9954V44.4689H14.9336V41.1504Z" fill="white"/>
<path d="M45.9062 34.5127H63.6052V37.8312H45.9062V34.5127Z" fill="white"/>
<path d="M45.9062 41.1504H56.9681V44.4689H45.9062V41.1504Z" fill="white"/>
</svg>
