<svg width="114" height="114" viewBox="0 0 114 114" fill="none" xmlns="http://www.w3.org/2000/svg">
<path d="M67.5323 94.9102C64.5134 94.9102 62.0566 97.3669 62.0566 100.386C62.0566 103.405 64.5134 105.861 67.5323 105.861C70.5511 105.861 73.0079 103.405 73.0079 100.386C73.0079 97.3669 70.5511 94.9102 67.5323 94.9102ZM67.5323 102.211C66.5266 102.211 65.707 101.393 65.707 100.386C65.707 99.3783 66.5266 98.5606 67.5323 98.5606C68.5379 98.5606 69.3575 99.3783 69.3575 100.386C69.3575 101.393 68.5379 102.211 67.5323 102.211Z" fill="white"/>
<path d="M23.7276 94.9102C20.7087 94.9102 18.252 97.3669 18.252 100.386C18.252 103.405 20.7087 105.861 23.7276 105.861C26.7465 105.861 29.2032 103.405 29.2032 100.386C29.2032 97.3669 26.7465 94.9102 23.7276 94.9102ZM23.7276 102.211C22.7219 102.211 21.9024 101.393 21.9024 100.386C21.9024 99.3783 22.7219 98.5606 23.7276 98.5606C24.7333 98.5606 25.5528 99.3783 25.5528 100.386C25.5528 101.393 24.7333 102.211 23.7276 102.211Z" fill="white"/>
<path d="M27.378 29.2032C30.3968 29.2032 32.8536 26.7465 32.8536 23.7276C32.8536 20.7087 30.3968 18.252 27.378 18.252C24.3591 18.252 21.9023 20.7087 21.9023 23.7276C21.9023 26.7465 24.3591 29.2032 27.378 29.2032ZM27.378 21.9024C28.3836 21.9024 29.2032 22.7201 29.2032 23.7276C29.2032 24.7351 28.3836 25.5528 27.378 25.5528C26.3723 25.5528 25.5528 24.7351 25.5528 23.7276C25.5528 22.7201 26.3723 21.9024 27.378 21.9024Z" fill="white"/>
<path d="M100.386 65.707C97.3669 65.707 94.9102 68.1638 94.9102 71.1826C94.9102 74.2015 97.3669 76.6583 100.386 76.6583C103.405 76.6583 105.861 74.2015 105.861 71.1826C105.861 68.1638 103.405 65.707 100.386 65.707ZM100.386 73.0078C99.3801 73.0078 98.5606 72.1902 98.5606 71.1826C98.5606 70.1751 99.3801 69.3574 100.386 69.3574C101.391 69.3574 102.211 70.1751 102.211 71.1826C102.211 72.1902 101.391 73.0078 100.386 73.0078Z" fill="white"/>
<path d="M102.131 58.5398C102.159 57.8864 102.211 57.2329 102.211 56.5813C102.211 48.2621 99.9409 40.1746 95.6772 33.091C97.5444 29.8056 98.5611 26.0584 98.5611 22.2602V21.9025C98.5611 9.82508 88.736 0 76.6586 0C68.5583 0 61.4857 4.4316 57.6965 10.9877C50.6202 10.8253 43.4362 12.3347 37.0224 15.3737C34.6771 12.6706 31.2274 10.9512 27.3781 10.9512C20.3328 10.9512 14.6016 16.6842 14.6016 23.7277C14.6016 26.4764 15.5106 29.1978 17.1569 31.3917L17.9126 32.3992C13.6945 39.1324 11.3327 46.7964 11.0188 54.7561H7.30082C5.28762 54.7561 3.65041 56.3933 3.65041 58.4065V94.9106C1.63721 94.9106 0 96.5479 0 98.5611V102.211C0 104.225 1.63721 105.862 3.65041 105.862H12.2015C14.2567 110.171 18.6445 113.163 23.7277 113.163C28.8109 113.163 33.1986 110.171 35.2538 105.862H56.0064C58.0616 110.171 62.4494 113.163 67.5326 113.163C72.6158 113.163 77.0036 110.171 79.0587 105.862H83.9594C85.9726 105.862 87.6098 104.225 87.6098 102.211V97.1848C87.6098 96.7395 87.5551 96.2942 87.4474 95.8561L86.2792 91.1836C88.9988 88.8491 91.4245 86.2172 93.5217 83.3224L100.386 92.4776L110.607 78.8488C112.256 76.6531 113.163 73.9299 113.163 71.183C113.163 64.7327 108.351 59.3958 102.131 58.5398ZM76.6586 3.65041C86.7228 3.65041 94.9106 11.8383 94.9106 21.9025V22.2584C94.9106 26.3286 93.5253 30.3349 91.0102 33.5345L76.6586 51.803L62.307 33.5345C59.7919 30.3349 58.4065 26.3304 58.4065 22.2584V21.9025C58.4065 11.8383 66.5944 3.65041 76.6586 3.65041ZM27.3781 14.6016C32.4102 14.6016 36.5041 18.6956 36.5041 23.7277C36.5041 25.6898 35.8561 27.6354 34.6789 29.2014L27.3781 38.9371L20.0773 29.2014C18.9 27.6354 18.252 25.6898 18.252 23.7277C18.252 18.6956 22.346 14.6016 27.3781 14.6016ZM7.30082 58.4065H21.9025V72.311L31.0285 67.7479L40.1545 72.311V58.4065H54.7561V94.9106H35.2538C33.1986 90.6013 28.8109 87.6098 23.7277 87.6098C18.6445 87.6098 14.2567 90.6013 12.2015 94.9106H7.30082V58.4065ZM25.5529 58.4065H36.5041V66.4046L31.0285 63.6668L25.5529 66.4046V58.4065ZM58.4065 69.3578H75.6328C76.4706 69.3578 77.2007 69.9272 77.4033 70.7395L77.9709 73.0082H69.3578C67.3446 73.0082 65.7074 74.6454 65.7074 76.6586V80.309C65.7074 82.3222 67.3446 83.9594 69.3578 83.9594H80.7087L83.4465 94.9106H79.0587C77.0036 90.6013 72.6158 87.6098 67.5326 87.6098C63.9588 87.6098 60.7282 89.0882 58.4065 91.4628V69.3578ZM79.7961 80.309H69.3578V76.6586H78.8835L79.7961 80.309ZM3.65041 102.211V98.5611H11.0972C11.0115 99.1597 10.9512 99.7657 10.9512 100.386C10.9512 101.007 11.0115 101.613 11.0972 102.211H3.65041ZM23.7277 109.512C18.6956 109.512 14.6016 105.418 14.6016 100.386C14.6016 95.3542 18.6956 91.2602 23.7277 91.2602C28.7597 91.2602 32.8537 95.3542 32.8537 100.386C32.8537 105.418 28.7597 109.512 23.7277 109.512ZM36.3581 102.211C36.4439 101.613 36.5041 101.007 36.5041 100.386C36.5041 99.7657 36.4439 99.1597 36.3581 98.5611H54.9022C54.8164 99.1597 54.7561 99.7657 54.7561 100.386C54.7561 101.007 54.8164 101.613 54.9022 102.211H36.3581ZM67.5326 109.512C62.5005 109.512 58.4065 105.418 58.4065 100.386C58.4065 95.3542 62.5005 91.2602 67.5326 91.2602C72.5647 91.2602 76.6586 95.3542 76.6586 100.386C76.6586 105.418 72.5647 109.512 67.5326 109.512ZM80.163 102.211C80.2488 101.613 80.309 101.007 80.309 100.386C80.309 99.7657 80.2488 99.1597 80.163 98.5611H83.9594V102.211H80.163ZM85.2827 87.1992L80.946 69.8542C80.3346 67.4139 78.1498 65.7074 75.6328 65.7074H58.4065V58.4065C58.4065 56.3933 56.7693 54.7561 54.7561 54.7561H14.6673C14.9594 47.9554 16.8649 41.392 20.2652 35.5386L27.3781 45.0223L37.5992 31.3935C39.2474 29.1978 40.1545 26.4746 40.1545 23.7277C40.1545 21.8495 39.7365 20.07 39.0046 18.4619C44.3525 15.9851 50.0654 14.6929 56.0265 14.6181C55.2197 16.9014 54.7561 19.3453 54.7561 21.9025V22.2584C54.7561 27.1444 56.4189 31.952 59.436 35.7904L76.6586 57.7093L93.3957 36.4074C96.7778 42.5692 98.5611 49.4868 98.5611 56.5813C98.5611 57.2402 98.5099 57.9028 98.4807 58.5653C92.3389 59.4907 87.6098 64.7875 87.6098 71.183C87.6098 73.9317 88.5188 76.6531 90.1651 78.847L91.2183 80.2524C89.4898 82.7767 87.5131 85.1093 85.2827 87.1992ZM107.687 76.6568L100.386 86.3924L93.0854 76.6568C91.9082 75.0907 91.2602 73.1451 91.2602 71.183C91.2602 66.1509 95.3542 62.057 100.386 62.057C105.418 62.057 109.512 66.1509 109.512 71.183C109.512 73.1451 108.864 75.0907 107.687 76.6568Z" fill="white"/>
<path d="M76.6583 36.5041C84.7093 36.5041 91.2599 29.9534 91.2599 21.9024C91.2599 13.8514 84.7093 7.30078 76.6583 7.30078C68.6073 7.30078 62.0566 13.8514 62.0566 21.9024C62.0566 29.9534 68.6073 36.5041 76.6583 36.5041ZM76.6583 10.9512C82.6979 10.9512 87.6095 15.8628 87.6095 21.9024C87.6095 27.942 82.6979 32.8536 76.6583 32.8536C70.6187 32.8536 65.707 27.942 65.707 21.9024C65.707 15.8628 70.6187 10.9512 76.6583 10.9512Z" fill="white"/>
<path d="M43.8047 47.4551H47.4551V51.1055H43.8047V47.4551Z" fill="white"/>
<path d="M51.1055 47.4551H54.7559V51.1055H51.1055V47.4551Z" fill="white"/>
<path d="M58.4062 47.4551H62.0567V51.1055H58.4062V47.4551Z" fill="white"/>
</svg>
