<svg width="380" height="135" viewBox="0 0 380 135" fill="none" xmlns="http://www.w3.org/2000/svg">
<path d="M99.7116 112.205C99.7116 112.205 87.4638 131.228 59.4012 133.847C31.2097 136.467 12.9883 114.695 12.9883 114.695C12.9883 114.695 12.9883 114.695 13.0313 114.695C13.504 114.695 19.2626 114.524 29.1469 110.358C39.5038 106.021 51.7516 106.365 62.3234 110.874C72.9382 115.382 76.4191 115.554 78.396 115.554C78.0952 115.855 72.3795 121.738 62.0656 119.376C57.983 118.431 55.2756 118.045 53.4706 117.959H53.4277H53.3847C52.6971 117.916 52.1384 117.916 51.7086 117.959H51.6227C50.9351 118.002 50.5484 118.088 50.3764 118.174C50.2045 118.217 50.1615 118.303 50.1615 118.303C50.1615 118.303 64.4291 127.32 80.4158 118.904C96.4025 110.444 99.7116 112.205 99.7116 112.205Z" fill="#3D3D5A"/>
<path opacity="0.5" d="M78.439 115.554C78.0951 115.769 71.7779 119.032 59.4871 114.352C42.2972 107.825 40.664 117.959 25.7088 117.615C19.3486 117.487 15.4378 116.155 13.0312 114.695C13.504 114.695 19.2625 114.524 29.1468 110.358C39.5038 106.021 51.7516 106.365 62.3235 110.874C72.9383 115.382 76.4192 115.554 78.439 115.554Z" fill="url(#paint0_linear_2976_3126)"/>
<path opacity="0.5" d="M51.708 117.917C52.2667 117.874 52.8684 117.874 53.3841 117.917C52.6965 117.917 52.1378 117.917 51.708 117.917Z" fill="black"/>
<path opacity="0.5" d="M99.7111 112.207C99.7111 112.207 96.9607 111.563 88.4948 118.734C80.0287 125.905 59.2288 134.236 43.0703 121.74C43.0703 121.74 46.5942 118.991 50.3761 118.176C50.204 118.219 50.1611 118.304 50.1611 118.304C50.1611 118.304 64.4288 127.322 80.4155 118.906C96.402 110.446 99.7111 112.207 99.7111 112.207Z" fill="url(#paint1_linear_2976_3126)"/>
<path d="M62.3669 39.8924C62.3669 39.8924 58.2413 35.8558 57.3387 28.8994C57.3387 28.8994 71.2626 17.7346 56.0065 0C56.0065 0 41.7389 14.9435 53.2132 27.4393C53.2132 27.4393 51.1074 19.4952 53.686 11.9806C53.686 11.9806 50.6778 30.0159 62.3669 39.8924Z" fill="url(#paint2_linear_2976_3126)"/>
<path d="M74.0999 33.7962C74.0999 33.7962 67.3099 17.908 87.2932 11.4668C87.2932 11.4668 91.8486 31.0049 74.0999 33.7962Z" fill="url(#paint3_linear_2976_3126)"/>
<path d="M86.3037 43.1994C86.3037 43.1994 87.8937 28.3848 105.642 31.9917C105.642 31.9489 100.829 48.5671 86.3037 43.1994Z" fill="url(#paint4_linear_2976_3126)"/>
<path d="M92.3643 56.9832C92.3643 56.9832 99.8848 46.7202 111.488 56.9832C111.488 56.9403 100.787 67.1601 92.3643 56.9832Z" fill="url(#paint5_linear_2976_3126)"/>
<path d="M94.3828 69.1364C94.3828 69.1364 104.525 64.7134 108.737 77.467C108.737 77.467 96.2308 80.4729 94.3828 69.1364Z" fill="url(#paint6_linear_2976_3126)"/>
<path d="M89.1405 79.2695C89.1405 79.2695 98.7238 80.4719 96.1884 91.8943C96.1453 91.9373 85.4445 88.5878 89.1405 79.2695Z" fill="url(#paint7_linear_2976_3126)"/>
<path d="M97.9072 47.923C97.9072 47.923 100.314 42.2547 106.889 45.7759C106.889 45.7759 102.978 51.7447 97.9072 47.923Z" fill="url(#paint8_linear_2976_3126)"/>
<path d="M87.9368 30.9597C87.9368 30.9597 86.6476 23.4879 95.8442 22.7578C95.8442 22.7578 95.8013 31.5608 87.9368 30.9597Z" fill="url(#paint9_linear_2976_3126)"/>
<path d="M69.2871 17.0476C69.2871 17.0476 63.2706 9.57593 72.94 3.13477C72.983 3.13477 78.3548 12.8824 69.2871 17.0476Z" fill="url(#paint10_linear_2976_3126)"/>
<path d="M38.0435 33.7513C38.0435 33.7513 44.8336 17.863 24.8503 11.4219C24.8503 11.4219 20.2949 30.9601 38.0435 33.7513Z" fill="url(#paint11_linear_2976_3126)"/>
<path d="M25.8378 43.1564C25.8378 43.1564 24.2476 28.3417 6.49902 31.9488C6.49902 31.9058 11.3122 48.524 25.8378 43.1564Z" fill="url(#paint12_linear_2976_3126)"/>
<path d="M19.7792 56.9402C19.7792 56.9402 12.2585 46.6772 0.655273 56.9402C0.655273 56.8973 11.356 67.1173 19.7792 56.9402Z" fill="url(#paint13_linear_2976_3126)"/>
<path d="M17.7599 69.0914C17.7599 69.0914 7.61779 64.6685 3.40625 77.422C3.40625 77.422 15.912 80.4279 17.7599 69.0914Z" fill="url(#paint14_linear_2976_3126)"/>
<path d="M23.0013 79.2246C23.0013 79.2246 13.4179 80.427 15.9534 91.8492C15.9964 91.8922 26.6541 88.5429 23.0013 79.2246Z" fill="url(#paint15_linear_2976_3126)"/>
<path d="M14.2347 47.8779C14.2347 47.8779 11.8281 42.2098 5.25293 45.731C5.25293 45.731 9.12067 51.6998 14.2347 47.8779Z" fill="url(#paint16_linear_2976_3126)"/>
<path d="M24.2053 30.9165C24.2053 30.9165 25.4944 23.4448 16.2979 22.7148C16.2979 22.7148 16.3408 31.5177 24.2053 30.9165Z" fill="url(#paint17_linear_2976_3126)"/>
<path d="M42.8574 17.0048C42.8574 17.0048 48.8739 9.53296 39.2046 3.0918C39.1616 3.0918 33.7898 12.8394 42.8574 17.0048Z" fill="url(#paint18_linear_2976_3126)"/>
<path d="M82.6944 108.169C82.6944 108.169 63.6566 108.598 57.2533 88.9742C57.2533 88.9312 57.2533 88.9312 57.2104 88.8884C57.2104 88.8884 54.417 105.292 33.6602 103.66C34.2189 103.531 50.4633 100.01 48.6583 70.0372C48.6583 70.0372 48.4005 72.6565 47.4981 74.546C47.4981 74.546 41.8253 65.9578 54.374 60.9337C66.9657 55.9096 69.4583 39.8496 69.4583 39.8496C69.4583 39.8496 70.3177 49.9837 66.3211 60.4613C62.3674 70.9819 66.0631 100.139 82.6944 108.169Z" fill="url(#paint19_linear_2976_3126)"/>
<path d="M59.2299 52.7743C58.5423 56.1237 55.7919 58.3566 53.0845 57.7984C50.3771 57.2402 48.7012 54.1055 49.3888 50.7561C50.0764 47.4066 52.8267 45.1738 55.5342 45.732C58.2416 46.2902 59.8745 49.4248 59.2299 52.7743Z" fill="url(#paint20_linear_2976_3126)"/>
<path d="M52.784 85.3242C49.26 103.531 34.1759 103.703 33.6602 103.703C54.417 105.335 57.2104 88.9313 57.2104 88.9313C57.2104 88.9743 57.2104 88.9743 57.2533 89.0172C57.5542 87.7289 57.7261 86.4836 57.855 85.3242H52.784Z" fill="url(#paint21_linear_2976_3126)"/>
<path d="M86.6912 104.389C86.6912 104.389 86.6482 104.389 86.5193 104.346C65.0319 98.678 67.9971 69.4782 67.9971 69.4782C69.7592 69.3493 71.3492 68.9628 72.7675 68.3616C81.6203 64.7117 85.1012 53.7617 85.1012 53.7617C84.8434 62.5216 82.8236 68.5334 81.3623 71.8399C79.6004 75.7474 78.7408 80.0416 78.784 84.3356C78.9129 98.0768 86.6912 104.389 86.6912 104.389Z" fill="url(#paint22_linear_2976_3126)"/>
<path d="M74.0992 65.0992C76.2591 65.0992 78.01 62.9075 78.01 60.2038C78.01 57.5003 76.2591 55.3086 74.0992 55.3086C71.9394 55.3086 70.1885 57.5003 70.1885 60.2038C70.1885 62.9075 71.9394 65.0992 74.0992 65.0992Z" fill="url(#paint23_linear_2976_3126)"/>
<path d="M86.5193 104.346C65.0319 98.6778 67.9971 69.4778 67.9971 69.4778C69.7592 69.349 71.3492 68.9625 72.7675 68.3613C69.7592 97.5613 84.8004 103.702 86.5193 104.346Z" fill="url(#paint24_linear_2976_3126)"/>
<path d="M29.3622 101.856C29.3192 101.856 29.2763 101.899 29.2333 101.899C29.577 101.641 36.8398 95.6295 35.6365 83.8637C35.2498 80.1277 33.9605 76.4778 31.8978 73.2573C30.1787 70.552 25.9242 64.3683 26.4828 54.0195C26.4828 54.0195 29.3622 66.859 39.805 69.3066C39.934 69.3496 40.1059 69.3926 40.2348 69.3926C41.567 69.6932 42.9852 69.8219 44.4893 69.736C44.5753 69.8219 51.4083 96.9178 29.3622 101.856Z" fill="url(#paint25_linear_2976_3126)"/>
<path d="M35.7651 64.1117C36.7534 66.4734 39.1601 67.7187 41.0939 66.9029C43.0708 66.0869 43.8443 63.5105 42.8988 61.1487C41.9104 58.787 39.5038 57.5416 37.5699 58.3575C35.593 59.1735 34.7766 61.7499 35.7651 64.1117Z" fill="url(#paint26_linear_2976_3126)"/>
<path d="M29.3622 101.856C29.3192 101.856 29.2763 101.899 29.2333 101.899C29.577 101.641 36.8398 95.6295 35.6365 83.8637C35.2498 80.1277 33.9605 76.4778 31.8978 73.2573C30.1787 70.552 25.9242 64.3683 26.4828 54.0195C26.4828 54.0195 29.3622 66.859 39.805 69.3066C39.934 69.3496 40.1059 69.3926 40.2348 69.3926C41.3952 74.4595 44.962 94.8566 29.3622 101.856Z" fill="url(#paint27_linear_2976_3126)"/>
<path d="M154.049 19.5762V26.2321H146.958V46.3285H138.535V26.2321H131.487V19.5762H154.049Z" fill="white"/>
<path d="M176.997 27.3048C178.374 28.9365 179.06 31.1695 179.06 33.9606V46.3277H170.724V35.0342C170.724 34.0465 170.466 33.2307 169.907 32.6295C169.348 32.0283 168.661 31.7277 167.715 31.7277C166.77 31.7277 166.04 32.0283 165.523 32.6295C165.008 33.2307 164.751 34.0036 164.751 35.0342V46.3277H156.37V18.373H164.751V28.2495C165.395 27.2619 166.297 26.403 167.372 25.8019C168.489 25.1577 169.777 24.8571 171.283 24.8571C173.689 24.8571 175.623 25.673 176.997 27.3048Z" fill="white"/>
<path d="M206.737 25.0291L193.114 56.505H183.917L189.289 45.2544L180.393 24.9863H189.719L193.715 35.8074L197.454 24.9863H206.737V25.0291Z" fill="white"/>
<path d="M228.911 27.3048C230.286 28.9366 230.974 31.1695 230.974 33.9607V46.3277H222.636V35.0342C222.636 34.0466 222.379 33.2306 221.82 32.6294C221.261 32.0283 220.573 31.7277 219.628 31.7277C218.684 31.7277 217.952 32.0283 217.437 32.6294C216.921 33.2306 216.663 34.0037 216.663 35.0342V46.3277H208.283V25.0289H216.663V28.2925C217.307 27.3048 218.21 26.446 219.284 25.8448C220.402 25.2006 221.691 24.9 223.195 24.9C225.645 24.8572 227.536 25.6731 228.911 27.3048Z" fill="white"/>
<path d="M248.25 46.3277L243.007 37.8253V46.3277H234.626V18.373H243.007V32.9731L248.336 24.986H258.092L250.098 35.7213L258.263 46.2848H248.25V46.3277Z" fill="white"/>
<path d="M133.034 70.0313C134.066 68.1848 135.527 66.7248 137.332 65.6514C139.18 64.6207 141.286 64.1055 143.606 64.1055C146.485 64.1055 148.935 64.8783 150.955 66.3813C153.018 67.8842 154.35 69.9454 155.037 72.5648H148.548C148.076 71.5773 147.388 70.8042 146.485 70.246C145.583 69.7307 144.595 69.4731 143.477 69.4731C141.672 69.4731 140.211 70.1173 139.094 71.3624C137.977 72.6078 137.418 74.3254 137.418 76.4295C137.418 78.5336 137.977 80.2083 139.094 81.4966C140.211 82.7419 141.672 83.386 143.477 83.386C144.595 83.386 145.626 83.1284 146.485 82.613C147.388 82.0977 148.033 81.3249 148.548 80.2942H155.037C154.35 82.9136 152.975 84.9747 150.955 86.4777C148.935 87.9806 146.442 88.7107 143.606 88.7107C141.286 88.7107 139.18 88.1955 137.332 87.1648C135.484 86.1343 134.066 84.6742 133.034 82.8278C132.003 80.9813 131.487 78.8342 131.487 76.4725C131.487 74.1107 132.003 71.8778 133.034 70.0313Z" fill="#EB3426"/>
<path d="M158.691 73.6805C159.421 72.1776 160.453 71.0612 161.742 70.2453C163.03 69.4295 164.449 69.043 166.04 69.043C167.372 69.043 168.575 69.3006 169.606 69.8588C170.638 70.417 171.412 71.1471 171.971 72.0059V69.3006H177.858V88.4952H171.971V85.7899C171.412 86.6917 170.594 87.4218 169.564 87.937C168.532 88.4952 167.372 88.753 165.996 88.753C164.449 88.753 163.03 88.3665 161.742 87.5506C160.453 86.7346 159.421 85.5752 158.691 84.0723C157.96 82.5693 157.573 80.8517 157.573 78.8765C157.573 76.9011 157.917 75.1835 158.691 73.6805ZM170.724 75.4411C169.906 74.5823 168.918 74.153 167.758 74.153C166.598 74.153 165.61 74.5823 164.793 75.3983C163.977 76.2142 163.589 77.3736 163.589 78.8335C163.589 80.2935 163.977 81.4529 164.793 82.3117C165.61 83.1705 166.598 83.6 167.758 83.6C168.918 83.6 169.906 83.1705 170.724 82.3117C171.539 81.4529 171.927 80.2935 171.927 78.8335C171.927 77.4165 171.539 76.2571 170.724 75.4411Z" fill="#EB3426"/>
<path d="M190.534 70.0307C191.566 69.4295 192.726 69.1289 193.973 69.1289V75.3124H192.34C190.878 75.3124 189.761 75.613 189.031 76.2571C188.3 76.9013 187.913 77.9747 187.913 79.5636V88.4524H182.025V69.3008H187.913V72.4784C188.643 71.4477 189.504 70.6319 190.534 70.0307Z" fill="#EB3426"/>
<path d="M214.815 80.2934H201.493C201.579 81.4957 201.966 82.3975 202.653 83.0416C203.341 83.6858 204.157 83.9864 205.145 83.9864C206.607 83.9864 207.639 83.3852 208.196 82.1399H214.471C214.171 83.3852 213.569 84.5446 212.753 85.5323C211.936 86.5198 210.861 87.3358 209.614 87.894C208.369 88.4523 206.951 88.7528 205.404 88.7528C203.512 88.7528 201.837 88.3663 200.376 87.5505C198.914 86.7346 197.754 85.6181 196.938 84.1153C196.121 82.6123 195.691 80.8945 195.691 78.8763C195.691 76.9011 196.077 75.1405 196.895 73.6376C197.712 72.1346 198.872 71.0182 200.332 70.2022C201.794 69.3864 203.47 69 205.404 69C207.251 69 208.928 69.3864 210.346 70.1594C211.764 70.9323 212.924 72.0487 213.741 73.5087C214.557 74.9687 214.945 76.6435 214.945 78.5758C214.901 79.134 214.857 79.6922 214.815 80.2934ZM208.884 77.0298C208.884 76.0423 208.54 75.2263 207.854 74.6253C207.166 74.0241 206.307 73.7235 205.274 73.7235C204.286 73.7235 203.47 74.0241 202.782 74.5823C202.094 75.1405 201.708 75.9564 201.535 77.0298H208.884Z" fill="#EB3426"/>
<path d="M117.289 26.7949V113.923" stroke="black" stroke-miterlimit="10"/>
<path d="M137.353 113.065L134.581 109.091C134.465 109.104 134.29 109.111 134.058 109.111H130.995V113.065H128.476V99.4971H134.058C135.234 99.4971 136.254 99.6909 137.12 100.079C137.999 100.466 138.671 101.022 139.136 101.745C139.601 102.469 139.834 103.328 139.834 104.323C139.834 105.344 139.582 106.223 139.078 106.959C138.587 107.696 137.876 108.245 136.946 108.607L140.066 113.065H137.353ZM137.295 104.323C137.295 103.458 137.01 102.792 136.442 102.327C135.873 101.862 135.04 101.629 133.941 101.629H130.995V107.037H133.941C135.04 107.037 135.873 106.804 136.442 106.339C137.01 105.861 137.295 105.189 137.295 104.323ZM152.15 107.948C152.15 108.116 152.137 108.355 152.112 108.665H143.99C144.132 109.427 144.501 110.035 145.095 110.487C145.702 110.926 146.452 111.146 147.343 111.146C148.481 111.146 149.417 110.771 150.154 110.022L151.453 111.514C150.987 112.07 150.399 112.49 149.689 112.774C148.978 113.058 148.177 113.201 147.285 113.201C146.148 113.201 145.147 112.974 144.281 112.522C143.415 112.07 142.743 111.443 142.265 110.642C141.8 109.828 141.567 108.911 141.567 107.89C141.567 106.882 141.794 105.977 142.246 105.176C142.711 104.362 143.351 103.729 144.165 103.277C144.979 102.824 145.896 102.598 146.917 102.598C147.925 102.598 148.823 102.824 149.611 103.277C150.412 103.716 151.033 104.343 151.472 105.157C151.924 105.958 152.15 106.888 152.15 107.948ZM146.917 104.537C146.142 104.537 145.483 104.769 144.94 105.234C144.41 105.687 144.087 106.294 143.971 107.056H149.844C149.74 106.307 149.424 105.699 148.894 105.234C148.364 104.769 147.705 104.537 146.917 104.537ZM164.75 102.715V111.495C164.75 115.139 162.889 116.961 159.168 116.961C158.173 116.961 157.23 116.831 156.338 116.573C155.447 116.328 154.71 115.966 154.129 115.488L155.214 113.666C155.666 114.04 156.235 114.338 156.92 114.557C157.617 114.79 158.322 114.906 159.032 114.906C160.169 114.906 161.003 114.648 161.533 114.131C162.062 113.614 162.327 112.826 162.327 111.766V111.223C161.914 111.676 161.41 112.018 160.816 112.251C160.221 112.483 159.569 112.6 158.858 112.6C157.876 112.6 156.984 112.393 156.183 111.979C155.395 111.553 154.768 110.959 154.303 110.196C153.851 109.434 153.625 108.562 153.625 107.58C153.625 106.598 153.851 105.732 154.303 104.982C154.768 104.22 155.395 103.632 156.183 103.219C156.984 102.805 157.876 102.598 158.858 102.598C159.607 102.598 160.286 102.721 160.893 102.967C161.513 103.212 162.03 103.587 162.444 104.091V102.715H164.75ZM159.226 110.545C160.144 110.545 160.893 110.274 161.475 109.731C162.069 109.175 162.366 108.458 162.366 107.58C162.366 106.714 162.069 106.01 161.475 105.467C160.893 104.924 160.144 104.653 159.226 104.653C158.296 104.653 157.533 104.924 156.939 105.467C156.358 106.01 156.067 106.714 156.067 107.58C156.067 108.458 156.358 109.175 156.939 109.731C157.533 110.274 158.296 110.545 159.226 110.545ZM167.935 102.715H170.358V113.065H167.935V102.715ZM169.156 101.009C168.717 101.009 168.349 100.873 168.052 100.602C167.754 100.318 167.606 99.9687 167.606 99.5553C167.606 99.1418 167.754 98.7993 168.052 98.528C168.349 98.2437 168.717 98.1016 169.156 98.1016C169.596 98.1016 169.964 98.2372 170.261 98.5086C170.558 98.767 170.707 99.0965 170.707 99.4971C170.707 99.9235 170.558 100.285 170.261 100.583C169.977 100.867 169.609 101.009 169.156 101.009ZM176.737 113.201C175.897 113.201 175.076 113.091 174.275 112.871C173.474 112.651 172.834 112.374 172.356 112.038L173.287 110.196C173.752 110.506 174.307 110.758 174.953 110.952C175.612 111.133 176.259 111.223 176.892 111.223C178.339 111.223 179.063 110.842 179.063 110.08C179.063 109.718 178.875 109.466 178.5 109.324C178.139 109.182 177.551 109.046 176.737 108.917C175.884 108.788 175.186 108.639 174.643 108.471C174.114 108.303 173.648 108.012 173.248 107.599C172.86 107.173 172.666 106.585 172.666 105.835C172.666 104.853 173.073 104.071 173.887 103.49C174.714 102.895 175.826 102.598 177.221 102.598C177.932 102.598 178.643 102.682 179.353 102.85C180.064 103.005 180.645 103.219 181.098 103.49L180.167 105.331C179.289 104.814 178.3 104.556 177.202 104.556C176.491 104.556 175.948 104.666 175.574 104.885C175.212 105.092 175.031 105.37 175.031 105.719C175.031 106.107 175.225 106.384 175.612 106.552C176.013 106.707 176.627 106.856 177.454 106.998C178.281 107.127 178.959 107.276 179.489 107.444C180.019 107.612 180.471 107.896 180.846 108.297C181.233 108.697 181.427 109.266 181.427 110.002C181.427 110.972 181.007 111.747 180.167 112.328C179.327 112.91 178.184 113.201 176.737 113.201ZM189.736 112.503C189.452 112.735 189.103 112.91 188.689 113.026C188.289 113.142 187.862 113.201 187.41 113.201C186.273 113.201 185.394 112.903 184.774 112.309C184.154 111.715 183.844 110.849 183.844 109.712V104.73H182.138V102.792H183.844V100.427H186.266V102.792H189.038V104.73H186.266V109.654C186.266 110.157 186.389 110.545 186.635 110.816C186.88 111.075 187.235 111.204 187.701 111.204C188.243 111.204 188.696 111.062 189.057 110.778L189.736 112.503ZM201.118 107.948C201.118 108.116 201.105 108.355 201.079 108.665H192.958C193.1 109.427 193.469 110.035 194.063 110.487C194.67 110.926 195.42 111.146 196.311 111.146C197.448 111.146 198.385 110.771 199.122 110.022L200.42 111.514C199.955 112.07 199.367 112.49 198.657 112.774C197.946 113.058 197.145 113.201 196.253 113.201C195.116 113.201 194.115 112.974 193.249 112.522C192.383 112.07 191.711 111.443 191.233 110.642C190.768 109.828 190.535 108.911 190.535 107.89C190.535 106.882 190.761 105.977 191.214 105.176C191.679 104.362 192.319 103.729 193.133 103.277C193.947 102.824 194.864 102.598 195.885 102.598C196.893 102.598 197.791 102.824 198.579 103.277C199.38 103.716 200 104.343 200.44 105.157C200.892 105.958 201.118 106.888 201.118 107.948ZM195.885 104.537C195.11 104.537 194.451 104.769 193.908 105.234C193.378 105.687 193.055 106.294 192.939 107.056H198.812C198.708 106.307 198.392 105.699 197.862 105.234C197.332 104.769 196.673 104.537 195.885 104.537ZM205.751 104.226C206.448 103.141 207.676 102.598 209.433 102.598V104.905C209.227 104.866 209.039 104.847 208.871 104.847C207.928 104.847 207.191 105.124 206.662 105.68C206.132 106.223 205.867 107.011 205.867 108.045V113.065H203.444V102.715H205.751V104.226ZM221.124 107.948C221.124 108.116 221.111 108.355 221.085 108.665H212.964C213.106 109.427 213.475 110.035 214.069 110.487C214.676 110.926 215.426 111.146 216.317 111.146C217.454 111.146 218.391 110.771 219.128 110.022L220.426 111.514C219.961 112.07 219.373 112.49 218.663 112.774C217.952 113.058 217.151 113.201 216.259 113.201C215.122 113.201 214.121 112.974 213.255 112.522C212.389 112.07 211.717 111.443 211.239 110.642C210.774 109.828 210.541 108.911 210.541 107.89C210.541 106.882 210.767 105.977 211.22 105.176C211.685 104.362 212.325 103.729 213.139 103.277C213.953 102.824 214.87 102.598 215.891 102.598C216.899 102.598 217.797 102.824 218.585 103.277C219.386 103.716 220.006 104.343 220.446 105.157C220.898 105.958 221.124 106.888 221.124 107.948ZM215.891 104.537C215.116 104.537 214.457 104.769 213.914 105.234C213.384 105.687 213.061 106.294 212.945 107.056H218.818C218.714 106.307 218.398 105.699 217.868 105.234C217.338 104.769 216.679 104.537 215.891 104.537ZM233.589 98.683V113.065H231.263V111.727C230.862 112.218 230.365 112.587 229.77 112.832C229.189 113.078 228.543 113.201 227.832 113.201C226.837 113.201 225.939 112.981 225.138 112.542C224.35 112.102 223.729 111.482 223.277 110.681C222.825 109.867 222.599 108.936 222.599 107.89C222.599 106.843 222.825 105.919 223.277 105.118C223.729 104.317 224.35 103.697 225.138 103.257C225.939 102.818 226.837 102.598 227.832 102.598C228.517 102.598 229.144 102.715 229.712 102.947C230.281 103.18 230.765 103.529 231.166 103.994V98.683H233.589ZM228.123 111.127C228.704 111.127 229.228 110.997 229.693 110.739C230.158 110.468 230.526 110.086 230.798 109.595C231.069 109.104 231.205 108.536 231.205 107.89C231.205 107.244 231.069 106.675 230.798 106.184C230.526 105.693 230.158 105.318 229.693 105.06C229.228 104.789 228.704 104.653 228.123 104.653C227.541 104.653 227.018 104.789 226.553 105.06C226.088 105.318 225.719 105.693 225.448 106.184C225.177 106.675 225.041 107.244 225.041 107.89C225.041 108.536 225.177 109.104 225.448 109.595C225.719 110.086 226.088 110.468 226.553 110.739C227.018 110.997 227.541 111.127 228.123 111.127ZM254.404 99.4971V113.065H252.33L244.848 103.878V113.065H242.348V99.4971H244.422L251.904 108.684V99.4971H254.404ZM258.04 99.4971H263.971C265.418 99.4971 266.704 99.7814 267.828 100.35C268.952 100.906 269.824 101.7 270.444 102.734C271.065 103.755 271.375 104.937 271.375 106.281C271.375 107.625 271.065 108.814 270.444 109.847C269.824 110.868 268.952 111.663 267.828 112.231C266.704 112.787 265.418 113.065 263.971 113.065H258.04V99.4971ZM263.854 110.933C264.849 110.933 265.722 110.745 266.471 110.371C267.233 109.983 267.815 109.44 268.215 108.743C268.629 108.032 268.836 107.211 268.836 106.281C268.836 105.351 268.629 104.537 268.215 103.839C267.815 103.128 267.233 102.585 266.471 102.211C265.722 101.823 264.849 101.629 263.854 101.629H260.559V110.933H263.854ZM274.053 99.4971H276.573V113.065H274.053V99.4971ZM284.448 113.259C283.402 113.259 282.387 113.11 281.405 112.813C280.436 112.516 279.667 112.122 279.099 111.631L279.971 109.673C280.527 110.112 281.205 110.474 282.006 110.758C282.82 111.03 283.634 111.165 284.448 111.165C285.456 111.165 286.206 111.004 286.697 110.681C287.201 110.358 287.453 109.931 287.453 109.402C287.453 109.014 287.31 108.697 287.026 108.452C286.755 108.193 286.406 107.993 285.98 107.851C285.553 107.709 284.972 107.547 284.235 107.366C283.201 107.121 282.361 106.875 281.715 106.63C281.082 106.384 280.533 106.003 280.068 105.486C279.616 104.956 279.389 104.246 279.389 103.354C279.389 102.605 279.59 101.926 279.99 101.319C280.404 100.699 281.018 100.208 281.832 99.846C282.659 99.4842 283.667 99.3033 284.855 99.3033C285.682 99.3033 286.496 99.4067 287.298 99.6134C288.099 99.8201 288.79 100.117 289.371 100.505L288.577 102.463C287.982 102.114 287.362 101.849 286.716 101.668C286.07 101.487 285.443 101.397 284.836 101.397C283.841 101.397 283.098 101.565 282.607 101.901C282.129 102.236 281.89 102.682 281.89 103.238C281.89 103.626 282.025 103.942 282.297 104.188C282.581 104.433 282.936 104.627 283.363 104.769C283.789 104.911 284.371 105.073 285.107 105.254C286.115 105.486 286.942 105.732 287.588 105.99C288.234 106.236 288.784 106.617 289.236 107.134C289.701 107.651 289.934 108.348 289.934 109.227C289.934 109.977 289.727 110.655 289.313 111.262C288.913 111.87 288.299 112.354 287.472 112.716C286.645 113.078 285.637 113.259 284.448 113.259ZM303.37 99.4971C304.546 99.4971 305.567 99.6909 306.433 100.079C307.312 100.466 307.983 101.022 308.449 101.745C308.914 102.469 309.146 103.328 309.146 104.323C309.146 105.305 308.914 106.165 308.449 106.901C307.983 107.625 307.312 108.18 306.433 108.568C305.567 108.956 304.546 109.15 303.37 109.15H300.308V113.065H297.788V99.4971H303.37ZM303.254 107.017C304.352 107.017 305.186 106.785 305.754 106.32C306.323 105.855 306.607 105.189 306.607 104.323C306.607 103.458 306.323 102.792 305.754 102.327C305.186 101.862 304.352 101.629 303.254 101.629H300.308V107.017H303.254ZM313.642 104.226C314.339 103.141 315.567 102.598 317.324 102.598V104.905C317.117 104.866 316.93 104.847 316.762 104.847C315.819 104.847 315.082 105.124 314.553 105.68C314.023 106.223 313.758 107.011 313.758 108.045V113.065H311.335V102.715H313.642V104.226ZM323.937 113.201C322.89 113.201 321.947 112.974 321.107 112.522C320.267 112.07 319.608 111.443 319.13 110.642C318.665 109.828 318.432 108.911 318.432 107.89C318.432 106.869 318.665 105.958 319.13 105.157C319.608 104.356 320.267 103.729 321.107 103.277C321.947 102.824 322.89 102.598 323.937 102.598C324.996 102.598 325.946 102.824 326.786 103.277C327.626 103.729 328.279 104.356 328.744 105.157C329.222 105.958 329.461 106.869 329.461 107.89C329.461 108.911 329.222 109.828 328.744 110.642C328.279 111.443 327.626 112.07 326.786 112.522C325.946 112.974 324.996 113.201 323.937 113.201ZM323.937 111.127C324.828 111.127 325.565 110.829 326.146 110.235C326.728 109.641 327.019 108.859 327.019 107.89C327.019 106.921 326.728 106.139 326.146 105.544C325.565 104.95 324.828 104.653 323.937 104.653C323.045 104.653 322.309 104.95 321.727 105.544C321.159 106.139 320.874 106.921 320.874 107.89C320.874 108.859 321.159 109.641 321.727 110.235C322.309 110.829 323.045 111.127 323.937 111.127ZM341.186 102.715L336.747 113.065H334.247L329.808 102.715H332.328L335.545 110.39L338.86 102.715H341.186ZM342.699 102.715H345.122V113.065H342.699V102.715ZM343.92 101.009C343.481 101.009 343.113 100.873 342.815 100.602C342.518 100.318 342.37 99.9687 342.37 99.5553C342.37 99.1418 342.518 98.7993 342.815 98.528C343.113 98.2437 343.481 98.1016 343.92 98.1016C344.36 98.1016 344.728 98.2372 345.025 98.5086C345.322 98.767 345.471 99.0965 345.471 99.4971C345.471 99.9235 345.322 100.285 345.025 100.583C344.741 100.867 344.372 101.009 343.92 101.009ZM358.439 98.683V113.065H356.113V111.727C355.713 112.218 355.215 112.587 354.621 112.832C354.039 113.078 353.393 113.201 352.683 113.201C351.688 113.201 350.79 112.981 349.989 112.542C349.2 112.102 348.58 111.482 348.128 110.681C347.676 109.867 347.449 108.936 347.449 107.89C347.449 106.843 347.676 105.919 348.128 105.118C348.58 104.317 349.2 103.697 349.989 103.257C350.79 102.818 351.688 102.598 352.683 102.598C353.368 102.598 353.994 102.715 354.563 102.947C355.131 103.18 355.616 103.529 356.016 103.994V98.683H358.439ZM352.973 111.127C353.555 111.127 354.078 110.997 354.543 110.739C355.009 110.468 355.377 110.086 355.648 109.595C355.92 109.104 356.055 108.536 356.055 107.89C356.055 107.244 355.92 106.675 355.648 106.184C355.377 105.693 355.009 105.318 354.543 105.06C354.078 104.789 353.555 104.653 352.973 104.653C352.392 104.653 351.869 104.789 351.403 105.06C350.938 105.318 350.57 105.693 350.299 106.184C350.027 106.675 349.892 107.244 349.892 107.89C349.892 108.536 350.027 109.104 350.299 109.595C350.57 110.086 350.938 110.468 351.403 110.739C351.869 110.997 352.392 111.127 352.973 111.127ZM371.338 107.948C371.338 108.116 371.325 108.355 371.3 108.665H363.178C363.32 109.427 363.689 110.035 364.283 110.487C364.89 110.926 365.64 111.146 366.531 111.146C367.669 111.146 368.605 110.771 369.342 110.022L370.641 111.514C370.175 112.07 369.587 112.49 368.877 112.774C368.166 113.058 367.365 113.201 366.473 113.201C365.336 113.201 364.335 112.974 363.469 112.522C362.603 112.07 361.931 111.443 361.453 110.642C360.988 109.828 360.755 108.911 360.755 107.89C360.755 106.882 360.982 105.977 361.434 105.176C361.899 104.362 362.539 103.729 363.353 103.277C364.167 102.824 365.084 102.598 366.105 102.598C367.113 102.598 368.011 102.824 368.799 103.277C369.6 103.716 370.221 104.343 370.66 105.157C371.112 105.958 371.338 106.888 371.338 107.948ZM366.105 104.537C365.33 104.537 364.671 104.769 364.128 105.234C363.598 105.687 363.275 106.294 363.159 107.056H369.032C368.928 106.307 368.612 105.699 368.082 105.234C367.552 104.769 366.893 104.537 366.105 104.537ZM375.972 104.226C376.67 103.141 377.898 102.598 379.655 102.598V104.905C379.448 104.866 379.261 104.847 379.093 104.847C378.15 104.847 377.413 105.124 376.883 105.68C376.354 106.223 376.089 107.011 376.089 108.045V113.065H373.666V102.715H375.972V104.226Z" fill="#2B2B2B"/>
<defs>
<linearGradient id="paint0_linear_2976_3126" x1="67.3845" y1="113.617" x2="29.1489" y2="112.226" gradientUnits="userSpaceOnUse">
<stop offset="0.027933" stop-color="#757589"/>
<stop offset="1" stop-color="#3D3D5A"/>
</linearGradient>
<linearGradient id="paint1_linear_2976_3126" x1="83.6889" y1="113.333" x2="53.976" y2="125.68" gradientUnits="userSpaceOnUse">
<stop offset="0.027933" stop-color="#757589"/>
<stop offset="1" stop-color="#3D3D5A"/>
</linearGradient>
<linearGradient id="paint2_linear_2976_3126" x1="62.7421" y1="3.39694" x2="35.8998" y2="91.1664" gradientUnits="userSpaceOnUse">
<stop stop-color="#D6DE23"/>
<stop offset="0.7791" stop-color="#85C442"/>
</linearGradient>
<linearGradient id="paint3_linear_2976_3126" x1="84.3181" y1="9.99672" x2="57.4758" y2="97.7661" gradientUnits="userSpaceOnUse">
<stop offset="0.027933" stop-color="#A6E427"/>
<stop offset="0.3994" stop-color="#00CDE4"/>
<stop offset="0.6564" stop-color="#BB49F4"/>
<stop offset="1" stop-color="#F81264"/>
</linearGradient>
<linearGradient id="paint4_linear_2976_3126" x1="102.619" y1="15.5932" x2="75.7771" y2="103.362" gradientUnits="userSpaceOnUse">
<stop offset="0.027933" stop-color="#A6E427"/>
<stop offset="0.3994" stop-color="#00CDE4"/>
<stop offset="0.6564" stop-color="#BB49F4"/>
<stop offset="1" stop-color="#F81264"/>
</linearGradient>
<linearGradient id="paint5_linear_2976_3126" x1="113.567" y1="18.9406" x2="86.7246" y2="106.71" gradientUnits="userSpaceOnUse">
<stop offset="0.027933" stop-color="#A6E427"/>
<stop offset="0.3994" stop-color="#00CDE4"/>
<stop offset="0.6564" stop-color="#BB49F4"/>
<stop offset="1" stop-color="#F81264"/>
</linearGradient>
<linearGradient id="paint6_linear_2976_3126" x1="117.805" y1="20.2379" x2="90.9623" y2="108.007" gradientUnits="userSpaceOnUse">
<stop offset="0.027933" stop-color="#A6E427"/>
<stop offset="0.3994" stop-color="#00CDE4"/>
<stop offset="0.6564" stop-color="#BB49F4"/>
<stop offset="1" stop-color="#F81264"/>
</linearGradient>
<linearGradient id="paint7_linear_2976_3126" x1="82.2934" y1="71.0499" x2="96.0799" y2="90.3188" gradientUnits="userSpaceOnUse">
<stop stop-color="#FDC60B"/>
<stop offset="0.1697" stop-color="#F28F3F"/>
<stop offset="0.728" stop-color="#ED693C"/>
<stop offset="0.9186" stop-color="#E83E39"/>
</linearGradient>
<linearGradient id="paint8_linear_2976_3126" x1="111.154" y1="18.2032" x2="84.3111" y2="105.973" gradientUnits="userSpaceOnUse">
<stop offset="0.027933" stop-color="#A6E427"/>
<stop offset="0.3994" stop-color="#00CDE4"/>
<stop offset="0.6564" stop-color="#BB49F4"/>
<stop offset="1" stop-color="#F81264"/>
</linearGradient>
<linearGradient id="paint9_linear_2976_3126" x1="95.8371" y1="13.5175" x2="68.9948" y2="101.287" gradientUnits="userSpaceOnUse">
<stop offset="0.027933" stop-color="#A6E427"/>
<stop offset="0.3994" stop-color="#00CDE4"/>
<stop offset="0.6564" stop-color="#BB49F4"/>
<stop offset="1" stop-color="#F81264"/>
</linearGradient>
<linearGradient id="paint10_linear_2976_3126" x1="72.2985" y1="6.31919" x2="45.4562" y2="94.0886" gradientUnits="userSpaceOnUse">
<stop offset="0.027933" stop-color="#A6E427"/>
<stop offset="0.3994" stop-color="#00CDE4"/>
<stop offset="0.6564" stop-color="#BB49F4"/>
<stop offset="1" stop-color="#F81264"/>
</linearGradient>
<linearGradient id="paint11_linear_2976_3126" x1="39.5246" y1="-3.70426" x2="12.6822" y2="84.0651" gradientUnits="userSpaceOnUse">
<stop offset="0.027933" stop-color="#A6E427"/>
<stop offset="0.3994" stop-color="#00CDE4"/>
<stop offset="0.6564" stop-color="#BB49F4"/>
<stop offset="1" stop-color="#F81264"/>
</linearGradient>
<linearGradient id="paint12_linear_2976_3126" x1="29.7157" y1="-6.70276" x2="2.87343" y2="81.0667" gradientUnits="userSpaceOnUse">
<stop offset="0.027933" stop-color="#A6E427"/>
<stop offset="0.3994" stop-color="#00CDE4"/>
<stop offset="0.6564" stop-color="#BB49F4"/>
<stop offset="1" stop-color="#F81264"/>
</linearGradient>
<linearGradient id="paint13_linear_2976_3126" x1="29.7075" y1="-6.70569" x2="2.8652" y2="81.0637" gradientUnits="userSpaceOnUse">
<stop offset="0.027933" stop-color="#A6E427"/>
<stop offset="0.3994" stop-color="#00CDE4"/>
<stop offset="0.6564" stop-color="#BB49F4"/>
<stop offset="1" stop-color="#F81264"/>
</linearGradient>
<linearGradient id="paint14_linear_2976_3126" x1="34.675" y1="-5.18792" x2="7.83271" y2="82.5815" gradientUnits="userSpaceOnUse">
<stop offset="0.027933" stop-color="#A6E427"/>
<stop offset="0.3994" stop-color="#00CDE4"/>
<stop offset="0.6564" stop-color="#BB49F4"/>
<stop offset="1" stop-color="#F81264"/>
</linearGradient>
<linearGradient id="paint15_linear_2976_3126" x1="46.3047" y1="-1.63154" x2="19.4624" y2="86.1379" gradientUnits="userSpaceOnUse">
<stop offset="0.027933" stop-color="#A6E427"/>
<stop offset="0.3994" stop-color="#00CDE4"/>
<stop offset="0.6564" stop-color="#BB49F4"/>
<stop offset="1" stop-color="#F81264"/>
</linearGradient>
<linearGradient id="paint16_linear_2976_3126" x1="26.4448" y1="-7.70498" x2="-0.397611" y2="80.0645" gradientUnits="userSpaceOnUse">
<stop offset="0.027933" stop-color="#A6E427"/>
<stop offset="0.3994" stop-color="#00CDE4"/>
<stop offset="0.6564" stop-color="#BB49F4"/>
<stop offset="1" stop-color="#F81264"/>
</linearGradient>
<linearGradient id="paint17_linear_2976_3126" x1="30.4311" y1="-6.48574" x2="3.58883" y2="81.2837" gradientUnits="userSpaceOnUse">
<stop offset="0.027933" stop-color="#A6E427"/>
<stop offset="0.3994" stop-color="#00CDE4"/>
<stop offset="0.6564" stop-color="#BB49F4"/>
<stop offset="1" stop-color="#F81264"/>
</linearGradient>
<linearGradient id="paint18_linear_2976_3126" x1="44.8806" y1="-2.06595" x2="18.0383" y2="85.7035" gradientUnits="userSpaceOnUse">
<stop offset="0.027933" stop-color="#A6E427"/>
<stop offset="0.3994" stop-color="#00CDE4"/>
<stop offset="0.6564" stop-color="#BB49F4"/>
<stop offset="1" stop-color="#F81264"/>
</linearGradient>
<linearGradient id="paint19_linear_2976_3126" x1="76.2452" y1="57.4352" x2="58.1945" y2="105.029" gradientUnits="userSpaceOnUse">
<stop offset="0.2793" stop-color="#6C2976"/>
<stop offset="1" stop-color="#222E62"/>
</linearGradient>
<linearGradient id="paint20_linear_2976_3126" x1="55.1648" y1="49.4427" x2="37.1145" y2="97.0358" gradientUnits="userSpaceOnUse">
<stop offset="0.2793" stop-color="#6C2976"/>
<stop offset="1" stop-color="#222E62"/>
</linearGradient>
<linearGradient id="paint21_linear_2976_3126" x1="42.2655" y1="101.877" x2="52.4481" y2="88.4737" gradientUnits="userSpaceOnUse">
<stop offset="0.2793" stop-color="#6C2976"/>
<stop offset="1" stop-color="#222E62" stop-opacity="0"/>
</linearGradient>
<linearGradient id="paint22_linear_2976_3126" x1="74.5628" y1="94.2826" x2="84.8029" y2="67.0122" gradientUnits="userSpaceOnUse">
<stop offset="0.027933" stop-color="#00E3AE"/>
<stop offset="1" stop-color="#00BAFF"/>
</linearGradient>
<linearGradient id="paint23_linear_2976_3126" x1="62.9097" y1="89.9079" x2="73.1498" y2="62.6376" gradientUnits="userSpaceOnUse">
<stop offset="0.027933" stop-color="#00E3AE"/>
<stop offset="1" stop-color="#00BAFF"/>
</linearGradient>
<linearGradient id="paint24_linear_2976_3126" x1="80.5562" y1="92.4263" x2="67.0143" y2="72.7925" gradientUnits="userSpaceOnUse">
<stop offset="0.027933" stop-color="#93ED39"/>
<stop offset="1" stop-color="#00C5E9"/>
</linearGradient>
<linearGradient id="paint25_linear_2976_3126" x1="29.082" y1="95.9931" x2="36.0238" y2="68.7255" gradientUnits="userSpaceOnUse">
<stop offset="0.027933" stop-color="#00E3AE"/>
<stop offset="1" stop-color="#00BAFF"/>
</linearGradient>
<linearGradient id="paint26_linear_2976_3126" x1="30.7166" y1="96.4103" x2="37.6584" y2="69.1425" gradientUnits="userSpaceOnUse">
<stop offset="0.027933" stop-color="#00E3AE"/>
<stop offset="1" stop-color="#00BAFF"/>
</linearGradient>
<linearGradient id="paint27_linear_2976_3126" x1="30.3652" y1="96.379" x2="33.4887" y2="71.892" gradientUnits="userSpaceOnUse">
<stop offset="0.027933" stop-color="#93ED39"/>
<stop offset="1" stop-color="#00C5E9"/>
</linearGradient>
</defs>
</svg>
