<svg width="424" height="90" viewBox="0 0 424 90" fill="none" xmlns="http://www.w3.org/2000/svg">
<path fill-rule="evenodd" clip-rule="evenodd" d="M53.6918 1.06503C53.7605 0.497016 54.1933 0 54.9814 0H56.1247C56.7008 0 57.1276 0.284009 57.3455 0.710023L73.1067 34.2261H73.3216L89.0827 0.710023C89.3007 0.284009 89.6589 0 90.3036 0H91.4469C92.238 0 92.6678 0.497016 92.7395 1.06503L101.193 48.7815C101.408 49.7756 100.835 50.4175 99.9036 50.4175H93.3842C92.7395 50.4175 92.1663 49.8466 92.023 49.3495L87.7962 22.4397H87.5813L75.041 50.3436C74.8977 50.7696 74.4679 51.1276 73.8231 51.1276H72.5336C71.8918 51.1276 71.5336 50.7696 71.3156 50.3436L58.6351 22.4397H58.4202L54.262 49.3495C54.1933 49.8466 53.6202 50.4175 52.9754 50.4175H46.5277C45.5933 50.4175 45.0232 49.7756 45.1665 48.7815L53.6918 1.06503Z" fill="white"/>
<path fill-rule="evenodd" clip-rule="evenodd" d="M117.451 2.05998C117.451 1.34996 118.096 0.710938 118.812 0.710938H125.475C126.191 0.710938 126.839 1.34996 126.839 2.05998V49.0665C126.839 49.7765 126.191 50.4185 125.475 50.4185H118.812C118.096 50.4185 117.451 49.7765 117.451 49.0665V2.05998Z" fill="white"/>
<path fill-rule="evenodd" clip-rule="evenodd" d="M166.886 23.3607C170.683 23.3607 173.978 20.0946 173.978 16.1184C173.978 12.3553 170.683 9.23121 166.886 9.23121H155.208V23.3607H166.886ZM145.82 2.05998C145.82 1.34996 146.396 0.710938 147.182 0.710938H167.674C176.274 0.710938 183.292 7.52716 183.292 15.9764C183.292 22.5086 178.922 27.8338 172.689 30.3189L182.504 48.3535C183.005 49.2795 182.504 50.4185 181.286 50.4185H173.764C173.119 50.4185 172.761 50.0575 172.617 49.7765L163.089 30.9609H155.134V49.0635C155.134 49.7765 154.492 50.4185 153.773 50.4185H147.182C146.396 50.4185 145.82 49.7765 145.82 49.0635V2.05998Z" fill="white"/>
<path fill-rule="evenodd" clip-rule="evenodd" d="M224.914 33.448L217.753 17.8245H217.535L210.514 33.448H224.914ZM193.962 48.5685L216.245 0.781025C216.46 0.355011 216.818 0 217.463 0H218.179C218.896 0 219.182 0.355011 219.397 0.781025L241.466 48.5685C241.893 49.4945 241.323 50.4175 240.248 50.4175H234.015C232.938 50.4175 232.439 49.9915 231.938 48.9975L228.427 41.3293H207.003L203.49 48.9975C203.206 49.7075 202.562 50.4175 201.415 50.4175H195.179C194.108 50.4175 193.532 49.4945 193.962 48.5685Z" fill="white"/>
<path fill-rule="evenodd" clip-rule="evenodd" d="M276.366 0C283.604 0 288.834 2.27207 293.706 6.60321C294.348 7.17123 294.348 8.02326 293.777 8.59128L289.404 13.0674C288.903 13.6324 288.189 13.6324 287.616 13.0674C284.607 10.4373 280.592 8.87529 276.58 8.87529C267.41 8.87529 260.604 16.4725 260.604 25.4218C260.604 34.2971 267.479 41.8263 276.652 41.8263C280.951 41.8263 284.607 40.1903 287.616 37.7762C288.189 37.2792 288.977 37.3531 289.404 37.7762L293.846 42.3233C294.422 42.8203 294.279 43.7433 293.777 44.2403C288.903 48.9265 282.745 51.1276 276.366 51.1276C262.037 51.1276 250.5 39.8382 250.5 25.6348C250.5 11.4314 262.037 0 276.366 0Z" fill="white"/>
<path fill-rule="evenodd" clip-rule="evenodd" d="M309.533 2.05998C309.533 1.34996 310.106 0.710938 310.894 0.710938H317.485C318.202 0.710938 318.847 1.34996 318.847 2.05998V41.8952H337.118C337.906 41.8952 338.479 42.5372 338.479 43.2472V49.0665C338.479 49.7765 337.906 50.4185 337.118 50.4185H310.894C310.106 50.4185 309.533 49.7765 309.533 49.0665V2.05998Z" fill="white"/>
<path fill-rule="evenodd" clip-rule="evenodd" d="M352.518 2.05998C352.518 1.34996 353.091 0.710938 353.879 0.710938H383.04C383.828 0.710938 384.401 1.34996 384.401 2.05998V7.88217C384.401 8.59219 383.828 9.23121 383.04 9.23121H361.831V20.8756H379.529C380.246 20.8756 380.891 21.5146 380.891 22.2246V28.1178C380.891 28.9018 380.246 29.4669 379.529 29.4669H361.831V41.8952H383.04C383.828 41.8952 384.401 42.5372 384.401 43.2472V49.0665C384.401 49.7765 383.828 50.4185 383.04 50.4185H353.879C353.091 50.4185 352.518 49.7765 352.518 49.0665V2.05998Z" fill="white"/>
<mask id="mask0_2976_2794" style="mask-type:luminance" maskUnits="userSpaceOnUse" x="0" y="8" width="27" height="34">
<path d="M10.7194 20.3436L0 17.1367L8.00594 25.2694L0 33.414L10.7194 30.207L13.4358 41.5437L16.1462 30.207L26.8656 33.414L18.8686 25.2694L26.8656 17.1367L16.1462 20.3436L13.4358 8.99805L10.7194 20.3436Z" fill="white"/>
</mask>
<g mask="url(#mask0_2976_2794)">
<path fill-rule="evenodd" clip-rule="evenodd" d="M-14.9258 56.3321H41.7904V-5.79492H-14.9258V56.3321Z" fill="white"/>
</g>
<mask id="mask1_2976_2794" style="mask-type:luminance" maskUnits="userSpaceOnUse" x="397" y="8" width="27" height="34">
<path d="M407.734 20.3436L397.012 17.1367L405.015 25.2694L397.012 33.414L407.734 30.207L410.447 41.5437L413.161 30.207L423.877 33.414L415.877 25.2694L423.877 17.1367L413.161 20.3436L410.447 8.99805L407.734 20.3436Z" fill="white"/>
</mask>
<g mask="url(#mask1_2976_2794)">
<path fill-rule="evenodd" clip-rule="evenodd" d="M382.086 56.3321H438.802V-5.79492H382.086V56.3321Z" fill="white"/>
</g>
<mask id="mask2_2976_2794" style="mask-type:luminance" maskUnits="userSpaceOnUse" x="156" y="69" width="24" height="21">
<path d="M156.049 69.5488H179.114V89.3579H156.049V69.5488Z" fill="white"/>
</mask>
<g mask="url(#mask2_2976_2794)">
<path fill-rule="evenodd" clip-rule="evenodd" d="M179.114 89.3585H174.338V78.8028L168.729 89.3585H166.464L160.825 78.7436V89.3585H156.049V69.5488H160.885L167.598 82.1162L174.311 69.5488H179.114V89.3585Z" fill="white"/>
</g>
<mask id="mask3_2976_2794" style="mask-type:luminance" maskUnits="userSpaceOnUse" x="188" y="69" width="23" height="21">
<path d="M188.322 69.5488H210.071V89.3576H188.322V69.5488Z" fill="white"/>
</mask>
<g mask="url(#mask3_2976_2794)">
<path fill-rule="evenodd" clip-rule="evenodd" d="M199.212 75.0485L196.674 81.5512H201.776L199.212 75.0485ZM204.821 89.3585L203.418 85.7492H195.006L193.603 89.3585H188.322L196.674 69.5488H201.716L210.071 89.3585H204.821Z" fill="white"/>
</g>
<mask id="mask4_2976_2794" style="mask-type:luminance" maskUnits="userSpaceOnUse" x="219" y="69" width="20" height="21">
<path d="M219.271 69.5488H238.128V89.3599H219.271V69.5488Z" fill="white"/>
</mask>
<g mask="url(#mask4_2976_2794)">
<path fill-rule="evenodd" clip-rule="evenodd" d="M227 85.1309C230.728 85.1309 233.176 82.8854 233.176 79.4536C233.176 76.0248 230.728 73.7764 227 73.7764H224.197V85.1309H227ZM227.179 69.5488C233.773 69.5488 238.128 73.5723 238.128 79.4536C238.128 85.338 233.773 89.3614 227.179 89.3614H219.271V69.5488H227.179Z" fill="white"/>
</g>
<mask id="mask5_2976_2794" style="mask-type:luminance" maskUnits="userSpaceOnUse" x="248" y="69" width="16" height="21">
<path d="M248.379 69.5488H263.955V89.3579H248.379V69.5488Z" fill="white"/>
</mask>
<g mask="url(#mask5_2976_2794)">
<path fill-rule="evenodd" clip-rule="evenodd" d="M263.955 89.3585H248.379V69.5488H263.865V73.7468H253.304V77.4715H263V81.4328H253.304V85.1605H263.955V89.3585Z" fill="white"/>
</g>
</svg>
