<svg width="313" height="135" viewBox="0 0 313 135" fill="none" xmlns="http://www.w3.org/2000/svg">
<path d="M29.564 0H0.100586V57.9914H29.5016C49.4557 57.9914 62.2387 46.7049 62.2387 28.9957C62.2387 11.2865 49.518 0 29.564 0ZM29.564 49.1056H10.3582V8.88578H29.5016C43.3759 8.88578 51.7005 16.7115 51.7005 28.9957C51.7005 41.2799 43.3759 49.0121 29.564 49.0121V49.1056Z" fill="white"/>
<path d="M90.5174 14.7188C77.0173 14.7188 66.292 23.6045 66.292 36.7929C66.292 49.9813 77.0173 58.8359 90.5174 58.8359C104.018 58.8359 114.681 49.9501 114.681 36.7929C114.681 23.6357 104.049 14.7188 90.5174 14.7188ZM90.5174 50.5113C82.1929 50.5113 75.5519 45.4293 75.5519 36.7929C75.5519 28.1566 82.1929 23.0433 90.5174 23.0433C98.842 23.0433 105.389 28.1254 105.389 36.7929C105.389 45.4604 98.8732 50.5737 90.5174 50.5737V50.5113Z" fill="white"/>
<path d="M168.463 52.4421V15.5895H158.766V20.9521C156.608 18.8691 154.051 17.2432 151.249 16.1717C148.447 15.1003 145.458 14.6053 142.46 14.7165C127.837 14.7165 119.17 24.5688 119.17 36.0424C119.17 47.5159 127.837 57.5242 142.46 57.5242C145.461 57.6629 148.458 57.1807 151.264 56.1077C154.07 55.0348 156.624 53.3941 158.766 51.2885V53.2215C158.766 61.1408 151.658 65.5058 142.928 65.5058C135.414 65.5058 129.272 62.1073 127.183 56.7759L119.419 61.7955C122.755 68.9665 131.454 73.3315 143.177 73.3315C157.426 73.425 168.463 65.1004 168.463 52.4421ZM143.738 49.3243C135.414 49.3243 128.492 44.3046 128.492 35.98C128.492 27.6554 135.414 22.6669 143.738 22.6669C152.063 22.6669 159.327 27.749 159.327 35.8241V36.0735C159.109 44.4293 152.032 49.449 143.52 49.449L143.738 49.3243Z" fill="white"/>
<path d="M210.678 0H200.67V9.94584H210.678V0Z" fill="white"/>
<path d="M210.522 15.5898H200.825V57.9922H210.522V15.5898Z" fill="white"/>
<path d="M239.362 32.1455C230.008 31.0231 226.89 30.6178 226.89 27.6247C226.89 24.6316 230.226 22.7921 237.241 22.7921C240.234 22.6062 243.229 23.1145 245.993 24.2773C248.757 25.4401 251.214 27.2259 253.174 29.4954L259.409 23.5092C255.761 18.6766 247.873 14.7793 237.584 14.7793C225.3 14.7793 217.537 20.5161 217.537 28.5289C217.537 37.477 225.955 39.3477 237.023 40.7195C247.125 41.9355 250.742 41.9979 250.742 45.7392C250.742 49.4806 246.221 50.8836 239.517 50.8836C236.124 51.075 232.736 50.4369 229.645 49.0244C226.554 47.612 223.853 45.4678 221.777 42.7773L214.887 49.013C219.595 55.2486 228.886 58.8653 239.829 58.8653C250.773 58.8653 260.5 54.2509 260.5 44.7104C260.5 35.1698 250.773 33.4238 239.362 32.1455Z" fill="white"/>
<path d="M49.9235 99.1781H10.5142V75.5762H0.163086V133.599H10.5142V108.22H49.9235V133.599H60.2746V75.5762H49.9235V99.1781Z" fill="white"/>
<path d="M103.8 112.833C103.8 120.659 99.4346 125.678 91.3282 125.678C83.2219 125.678 79.8858 121.22 79.8858 113.706V91.1953H70.1895V114.766C70.1895 126.645 77.0486 134.471 88.5846 134.471C91.4322 134.612 94.2761 134.127 96.9158 133.05C99.5555 131.972 101.927 130.329 103.862 128.235V133.722H113.558V91.1953H103.862L103.8 112.833Z" fill="white"/>
<path d="M179.5 90.3829C176.21 90.3155 172.948 90.9927 169.957 92.3641C166.966 93.7355 164.323 95.7655 162.227 98.3022C160.715 95.7437 158.527 93.6512 155.904 92.2542C153.28 90.8572 150.323 90.2098 147.355 90.3829C144.568 90.2474 141.786 90.737 139.213 91.816C136.64 92.8949 134.34 94.5358 132.484 96.6186V91.1936H122.787V133.596H132.484V112.27C132.484 104.444 136.381 99.2688 144.768 99.2688C153.155 99.2688 155.992 104.6 155.992 112.114V133.596H165.688V112.27C165.688 104.444 169.648 99.2688 177.972 99.2688C186.297 99.2688 189.197 104.6 189.197 112.114V133.596H198.893V110.898C198.955 98.614 192.657 90.3829 179.5 90.3829Z" fill="white"/>
<path d="M249.526 123.843V105.884C249.526 95.7823 242.106 90.2949 229.011 90.2949C218.753 90.2949 209.462 94.9716 206.781 102.08L214.794 105.635C216.415 101.519 222.152 98.526 228.699 98.526C236.619 98.526 240.142 101.644 240.142 105.635V105.946L221.747 108.129C211.551 109.345 205.409 113.803 205.409 121.224C205.409 129.954 213.266 134.381 223.025 134.381C229.745 134.651 236.303 132.278 241.295 127.771C242.667 131.98 246.783 135.347 255.824 133.508V125.994C250.555 127.21 249.526 126.181 249.526 123.843ZM240.173 117.295C240.173 123.531 231.131 126.649 223.867 126.649C218.286 126.649 214.887 124.778 214.887 121.224C214.887 117.669 217.725 116.298 223.399 115.674L240.173 113.647V117.295Z" fill="white"/>
<path d="M304.587 123.215V110.93V110.494C304.587 98.6151 297.946 90.3841 286.161 90.3841C283.268 90.2532 280.381 90.7418 277.692 91.8172C275.004 92.8926 272.576 94.53 270.572 96.6197V91.1947H260.906V133.597H270.572V112.271C270.572 104.445 275.03 99.2699 283.261 99.2699C291.492 99.2699 294.984 104.601 294.984 112.115V125.99C294.984 132.225 299.848 136.029 312.101 134.189V126.333C305.647 127.424 304.587 126.52 304.587 123.215Z" fill="white"/>
</svg>
