<svg width="370" height="60" viewBox="0 0 370 60" fill="none" xmlns="http://www.w3.org/2000/svg">
<path d="M353.255 10.4077V1.89231H350.102V0H358.302V1.89231H355.148V10.4077H353.255ZM359.563 10.4077V0H362.717L364.609 6.93846L366.502 0H369.655V10.0923H367.763V2.20769L365.555 10.4077H363.663L361.455 2.20769V10.4077H359.563Z" fill="white"/>
<path d="M18.3168 58.3462V9.77692H0.655273V0H47.963V9.77692H30.3014V58.3462H18.3168Z" fill="white"/>
<path d="M63.7318 58.3483H52.3779V16.0868H63.101V22.0791C64.3625 19.8714 65.9395 17.9791 67.8318 16.4022C69.4087 15.456 70.9856 15.1406 72.8779 15.1406C75.401 15.1406 78.2395 15.7714 80.4472 17.3483L76.9779 27.1252C75.401 25.8637 73.5087 25.2329 71.6164 25.2329C70.0395 25.2329 68.7779 25.5483 67.5164 26.4945C66.2548 27.756 65.3087 29.3329 64.9933 31.2252C64.0472 35.956 63.7318 40.6868 64.0472 45.4176V58.3483H63.7318Z" fill="white"/>
<path d="M115.77 58.3475V52.0398C114.193 54.2475 111.986 56.1398 109.463 57.4013C106.939 58.6629 104.101 59.2936 101.263 59.2936C98.4241 59.2936 95.901 58.6629 93.378 57.4013C91.1703 56.1398 89.278 54.5629 88.3318 52.0398C87.0703 48.8859 86.7549 45.7321 86.7549 42.5782V16.0859H98.4241V35.6398C98.1087 39.4244 98.4241 42.8936 99.0549 46.6782C99.3703 47.9398 100.316 49.2013 101.263 49.8321C102.524 50.7782 104.101 51.0936 105.363 51.0936C107.255 51.0936 109.147 50.4629 110.724 49.5167C112.301 48.5705 113.247 47.309 113.878 45.7321C114.509 41.9475 114.824 38.1629 114.824 34.3782V16.0859H126.178V58.3475H115.77Z" fill="white"/>
<path d="M151.724 58.3475L134.693 16.0859H146.678L154.878 37.5321L157.401 44.7859C158.032 42.8936 158.347 41.6321 158.663 41.3167C158.978 40.0552 159.293 38.7936 159.924 37.8475L168.124 16.0859H179.793L162.763 58.3475H151.724Z" fill="white"/>
<path d="M188.31 10.4077V0H199.663V10.4077H188.31ZM188.31 58.3462V16.0846H199.663V58.3462H188.31Z" fill="white"/>
<path d="M233.093 16.0848V24.9156H225.209V42.2617C225.209 44.154 225.209 46.3617 225.524 48.254C225.839 48.8848 226.155 49.2002 226.47 49.8309C227.101 50.1463 227.732 50.4617 228.362 50.4617C229.939 50.4617 231.516 50.1463 233.093 49.5156L234.039 58.3463C231.201 59.6079 228.047 59.9233 225.209 59.9233C223.316 59.9233 221.424 59.6079 219.532 58.9771C217.955 58.3463 217.009 57.4002 215.747 56.454C214.801 55.1925 214.485 53.6156 214.17 52.0386C213.855 49.5156 213.855 46.6771 213.855 44.154V25.5463H208.493V16.0848H213.855V7.56941L225.209 1.26172V16.0848H233.093Z" fill="white"/>
<path d="M251.702 29.0163L241.294 27.124C242.24 23.3394 244.132 20.1855 247.286 17.9779C251.071 15.7702 255.486 14.824 259.902 15.1394C263.686 14.824 267.786 15.4548 271.255 17.0317C273.463 17.9779 275.355 19.5548 276.617 21.4471C277.878 24.6009 278.509 28.0702 278.194 31.5394V44.4702C278.194 47.3086 278.194 49.8317 278.825 52.6702C279.14 54.5625 280.086 56.4548 280.717 58.3471H269.363C269.048 57.4009 268.732 56.1394 268.417 55.1932C268.102 54.5625 268.102 53.9317 268.102 53.9317C266.209 55.824 264.002 57.0855 261.794 58.0317C259.586 58.9779 257.063 59.6086 254.855 59.6086C251.071 59.924 247.286 58.6625 244.448 56.1394C241.925 53.9317 240.663 50.4625 240.663 46.9932C240.663 44.7855 241.294 42.5779 242.555 40.6855C243.817 38.7932 245.394 37.2163 247.602 36.2702C250.44 35.0086 253.594 34.0625 256.748 33.7471C260.532 33.1163 264.317 32.1702 267.786 30.9086V29.6471C268.102 28.0702 267.471 26.1779 266.209 24.9163C264.317 23.6548 262.109 23.3394 260.217 23.6548C258.64 23.6548 256.748 23.9702 255.486 24.9163C252.963 25.8625 252.017 27.4394 251.702 29.0163ZM266.84 38.1625C265.263 38.4779 263.055 39.1086 259.902 39.7394C257.694 40.0548 255.486 40.6855 253.594 41.6317C252.332 42.5779 251.386 43.8394 251.386 45.7317C251.386 47.3086 252.017 48.8855 252.963 49.8317C254.225 51.0932 255.802 51.724 257.378 51.4086C259.586 51.4086 261.478 50.7779 263.371 49.5163C264.632 48.5702 265.578 47.3086 266.209 45.7317C266.525 43.8394 266.84 42.2625 266.84 40.3702V38.1625Z" fill="white"/>
<path d="M291.44 58.3462V0H302.794V58.3462H291.44Z" fill="white"/>
<path d="M312.255 46.3623L323.609 44.7854C323.924 46.6777 324.87 48.57 326.447 49.8315C328.339 51.0931 330.547 51.7238 332.755 51.4084C334.963 51.7238 337.486 51.0931 339.378 49.8315C340.324 49.2008 340.955 47.9392 340.955 46.6777C340.955 46.0469 340.64 45.1008 340.009 44.47C338.747 43.8392 337.486 43.2084 336.224 42.8931C330.232 41.9469 324.239 40.0546 318.878 37.5315C315.724 35.6392 313.516 31.8546 313.832 28.07C313.832 24.6008 315.409 21.1315 318.247 18.9238C322.032 16.0854 327.078 14.8238 331.809 15.1392C336.224 14.8238 340.955 15.77 345.055 17.9777C348.209 19.87 350.101 23.0238 351.047 26.4931L340.324 28.3854C340.009 26.8084 339.063 25.5469 337.801 24.6008C336.224 23.6546 334.332 23.0238 332.44 23.3392C330.232 23.0238 328.024 23.6546 325.816 24.6008C324.87 25.2315 324.555 25.8623 324.555 26.8084C324.555 27.7546 324.87 28.3854 325.816 28.7008C329.286 30.2777 332.755 31.2238 336.539 31.8546C340.955 32.4854 345.37 34.3777 349.155 36.9007C351.678 39.1084 352.94 41.9469 352.624 45.1007C352.624 48.8854 350.732 52.67 347.893 54.8777C343.793 58.0315 338.432 59.2931 333.386 58.9777C328.655 59.2931 323.609 58.0315 319.509 55.5084C315.724 53.6161 313.516 50.4623 312.255 46.3623Z" fill="white"/>
</svg>
