<svg width="343" height="120" viewBox="0 0 343 120" fill="none" xmlns="http://www.w3.org/2000/svg">
<path d="M100.056 115.832V105.873H101.292V117.607H99.8248L92.9539 107.494V117.607H91.7188V105.873H93.1855L100.056 115.832Z" fill="white"/>
<path d="M112.565 116.527H118.896V117.607H111.407V105.873H118.664V106.954H112.565V110.968H118.278V112.049H112.565V116.527Z" fill="white"/>
<path d="M131.013 115.986L133.946 105.873H135.413L138.346 115.986L141.28 105.873H142.515L139.041 117.607H137.652L134.718 107.494H134.641L131.707 117.607H130.318L126.844 105.873H128.079L131.013 115.986Z" fill="white"/>
<path d="M169.533 106.877L162.662 116.527H169.61V117.607H161.118V116.604L167.989 106.954H161.35V105.873H169.533V106.877Z" fill="white"/>
<path d="M179.882 116.527H186.136V117.607H178.648V105.873H185.905V106.954H179.882V110.968H185.519V112.049H179.882V116.527Z" fill="white"/>
<path d="M195.398 117.607H194.084L199.179 105.873H200.338L205.355 117.607H204.043L202.731 114.519H196.632L195.398 117.607ZM197.096 113.439H202.268L199.644 107.185L197.096 113.439Z" fill="white"/>
<path d="M215.24 116.527H220.721V117.607H214.006V105.873H215.24V116.527Z" fill="white"/>
<path d="M229.368 117.607H228.056L233.151 105.873H234.308L239.327 117.607H238.013L236.701 114.519H230.603L229.368 117.607ZM231.143 113.439H236.314L233.69 107.185L231.143 113.439Z" fill="white"/>
<path d="M256.386 115.832V105.873H257.622V117.607H256.155L249.283 107.494V117.607H248.049V105.873H249.514L256.386 115.832Z" fill="white"/>
<path d="M267.729 105.873H271.668C274.602 105.873 277.843 107.803 277.843 111.74C277.843 115.677 274.602 117.607 271.668 117.607H267.729V105.873ZM268.889 116.527H271.281C274.833 116.527 276.531 114.133 276.531 111.74C276.531 109.347 274.833 106.954 271.281 106.954H268.889V116.527Z" fill="white"/>
<path d="M341.61 117.606C330.108 108.728 317.138 101.935 303.706 96.6851C290.195 91.4355 276.145 87.8843 261.942 85.2596C233.455 80.1644 204.504 79.0836 175.709 80.0873C146.914 81.0909 118.273 84.3331 89.8636 89.0424C75.6591 91.4355 61.5315 94.1375 47.4813 97.3027C40.4561 98.8467 33.431 100.545 26.483 102.398C23.0091 103.324 19.5352 104.251 16.0611 105.254C12.5872 106.258 9.19042 107.261 5.63924 108.497C4.48124 108.882 3.86365 110.195 4.24964 111.353C4.63565 112.511 5.94804 113.129 7.10602 112.743H7.18323C10.4256 111.662 13.8996 110.658 17.2963 109.732C20.7704 108.805 24.167 107.879 27.6411 107.03C34.5889 105.254 41.5369 103.71 48.562 102.166C62.5351 99.0782 76.5854 96.3762 90.7128 94.0604C118.891 89.3511 147.377 86.1088 175.941 84.7964C204.504 83.5612 233.224 84.3331 261.324 89.1195C275.374 91.5128 289.269 94.9094 302.625 99.9274C315.981 104.868 328.796 111.276 340.222 119.768C340.761 120.154 341.534 120.077 341.92 119.536C342.228 118.764 342.152 117.992 341.61 117.606Z" fill="white"/>
<path d="M9.11515 81.2449C12.2032 82.403 15.5227 82.7117 18.6879 82.3257C21.8531 81.9398 24.9411 81.0135 27.7201 79.5467C29.1098 78.7746 30.4221 78.0026 31.7345 76.9991C33.047 75.9955 34.1278 74.8374 35.2086 73.6795C37.0614 71.5179 38.6053 69.2019 39.995 66.8088C42.4653 68.1983 45.09 69.5108 47.8693 70.4371C50.7256 71.4406 53.8908 72.2127 57.2103 72.0582C60.5299 71.9038 63.8494 70.6687 66.3198 68.5843C67.7866 67.3491 69.0218 65.9596 69.9482 64.4155C70.2569 65.1875 70.7974 65.9596 71.415 66.5772C72.3413 67.4264 73.4221 68.044 74.4257 68.3527C75.5065 68.7386 76.6646 68.8932 77.7454 68.8159C80.0612 68.7386 82.0686 67.7351 83.6897 66.5772C85.3108 65.342 86.7005 63.9523 87.7812 62.4084C88.3217 61.6363 88.862 60.8644 89.3252 60.0924C89.4796 61.4819 89.7885 62.9487 90.9464 64.4155C91.564 65.1875 92.4904 65.8051 93.494 66.1139C94.4976 66.4228 95.424 66.4999 96.2732 66.3456C97.9716 66.1139 99.3612 65.4964 100.596 64.8015C101.832 64.0296 102.99 63.1804 103.993 62.2539C104.997 61.3276 105.923 60.2468 106.695 59.3205C107.544 58.3167 108.316 57.3132 109.088 56.3869C110.632 54.3796 112.176 52.3725 113.643 50.3652C114.029 49.8249 114.415 49.3616 114.801 48.8213C114.338 50.6741 114.106 52.5268 114.029 54.3796C114.029 56.8499 114.106 59.3976 115.264 62.0995C115.882 63.412 116.808 64.8015 118.198 65.728C119.587 66.6543 121.209 67.0404 122.598 67.1175C125.686 67.4264 128.079 66.6543 130.395 65.8823C130.936 65.6507 131.553 65.4964 132.094 65.2647C132.634 65.0331 133.175 64.8015 133.792 64.4928C134.95 63.8752 135.954 63.2576 136.957 62.64C138.733 61.4819 140.431 60.324 142.052 59.0116C142.67 60.6327 143.751 62.1768 145.14 63.2576C147.379 65.1104 150.313 65.728 152.86 65.5736C154.173 65.4964 155.485 65.2647 156.643 64.8788C157.801 64.4928 159.036 63.9523 160.04 63.3347C162.201 62.1768 164.131 60.6327 165.753 58.9343C167.76 56.9272 169.458 54.6885 170.848 52.3725C170.925 53.0673 171.079 53.762 171.234 54.3796C171.851 56.5412 173.009 58.5484 174.553 60.2468C176.097 61.9452 178.104 63.3347 180.651 63.7979C183.123 64.1839 185.284 63.8752 187.445 63.3347C189.606 62.7944 191.615 61.8679 193.468 60.6327C195.319 59.3976 196.865 57.8537 198.177 56.1553C198.408 55.8464 198.64 55.5377 198.795 55.2288C199.489 58.0851 200.57 60.8644 202.191 63.3347C204.043 66.2683 206.669 68.8932 209.834 70.6687C212.921 72.4444 216.473 73.4479 219.946 73.6795C223.42 73.9111 226.895 73.6023 230.213 72.7531C236.854 71.1319 242.875 67.8124 248.047 63.5663C250.518 61.5592 252.834 59.2432 254.919 56.7729C254.995 56.7729 255.072 56.7729 255.15 56.7729C258.469 57.0045 261.789 56.5412 264.954 55.6148C265.803 55.3832 266.653 55.0745 267.502 54.7656C267.116 55.7693 266.806 56.8499 266.729 58.008C266.421 60.5557 266.884 63.2576 268.504 65.6507C268.737 65.9596 268.969 66.2683 269.2 66.4999L269.585 66.8859L269.971 67.1948C270.434 67.5807 270.975 67.9667 271.516 68.2756C272.597 68.9703 273.909 69.5108 275.221 69.7424C276.533 69.9738 277.924 70.0511 279.159 69.8967C280.393 69.6651 281.629 69.3562 282.788 68.8932C285.102 68.044 287.034 66.7315 288.809 65.4191C289.426 64.956 290.044 64.4928 290.583 63.9523C291.201 64.8788 291.896 65.8051 292.745 66.6543C293.594 67.5035 294.675 68.1983 295.834 68.6616C296.991 69.1248 298.305 69.2792 299.538 69.1248C300.388 68.9703 301.237 68.7386 302.01 68.4299C301.933 68.8159 301.778 69.1248 301.7 69.5108C301.547 70.1284 301.392 70.6687 301.315 71.2863L301.16 72.2127L301.084 72.4444C301.084 72.5987 301.005 72.9074 301.084 73.2163C301.16 73.8339 301.623 74.3742 301.855 74.6058C302.396 74.2198 303.014 73.8339 303.708 73.2163C304.402 72.676 305.02 71.8268 305.406 71.2863C306.101 70.4371 306.795 69.5108 307.568 68.6616C309.111 66.9632 310.656 65.342 312.355 63.7979C312.508 63.7207 312.586 63.5663 312.739 63.4892C312.818 66.1139 313.357 68.6616 314.285 71.2092C315.597 74.6058 317.682 77.9254 320.923 80.1643C322.545 81.2449 324.475 82.0941 326.405 82.403C328.411 82.7117 330.42 82.4803 332.271 81.9398C335.978 80.7046 338.833 78.2343 340.842 75.3779C340.918 75.2234 340.918 74.9918 340.842 74.8374C340.687 74.6058 340.455 74.6058 340.224 74.7604C337.366 76.6902 334.511 78.3886 331.422 78.9291C329.955 79.1605 328.411 79.2378 327.023 78.8518C325.632 78.543 324.32 77.9254 323.085 77.0762C320.692 75.3779 318.762 72.7531 317.217 69.8967C316.06 67.7351 315.134 65.4191 314.285 62.9487C316.215 65.1104 318.762 66.7315 321.773 67.5035C325.632 68.507 330.11 67.7351 333.43 65.1875C335.05 63.8752 336.517 62.1768 337.058 59.7835C337.29 58.6256 337.211 57.2361 336.672 56.078C336.517 55.7693 336.362 55.5377 336.286 55.3061C336.131 55.0745 335.978 54.8428 335.823 54.6112C335.513 54.148 335.129 53.762 334.666 53.4533C332.889 52.0636 330.728 51.6776 328.874 51.7549L329.106 51.6005C331.036 50.2881 333.044 48.8986 334.974 47.1229C336.827 45.3474 338.37 43.1858 339.375 40.6381C339.837 39.3257 340.224 37.9362 340.069 36.315C339.992 35.4658 339.759 34.6166 339.22 33.7674C338.678 32.9182 337.908 32.2234 337.058 31.8374C335.36 31.0654 333.738 31.2198 332.426 31.3743C331.036 31.6058 329.802 31.9919 328.643 32.5322C327.486 32.9955 326.327 33.5358 325.246 34.1534C324.165 34.771 323.085 35.4658 322.081 36.1607C318.066 39.0943 314.748 42.7998 312.045 46.814C309.343 50.8284 307.105 55.0745 305.175 59.4748C304.247 61.7136 303.398 63.8752 302.704 66.1912V66.2683C301.547 66.6543 300.466 66.9632 299.385 66.9632C297.532 67.0404 295.91 66.2683 294.598 64.8788C293.825 64.1068 293.286 63.1031 292.745 62.0995C293.131 61.7136 293.441 61.4049 293.825 61.0187C294.598 60.1695 295.371 59.1659 295.989 58.0851C296.297 57.5448 296.606 56.9272 296.759 56.1553C296.914 55.4604 297.069 54.6112 296.914 53.6077C296.759 52.6041 295.989 51.6005 295.139 51.06C294.212 50.5197 293.286 50.4425 292.437 50.5197C292.127 50.5968 291.819 50.6741 291.433 50.7513C290.738 49.13 289.734 47.6632 288.346 46.428C287.418 45.6561 286.337 45.0385 285.18 44.6526C284.021 44.2666 282.709 44.112 281.474 44.2666C279.004 44.4209 276.765 45.4245 274.758 46.5826C272.75 47.7405 270.899 49.2845 269.432 51.2144C268.969 51.7549 268.583 52.3725 268.273 53.0673C267.039 53.4533 265.725 53.8393 264.491 54.0709C261.865 54.6112 259.241 54.7656 256.617 54.6112C258.161 52.5268 259.473 50.3652 260.63 48.0494C263.642 42.0277 265.341 35.2342 265.186 28.4407C265.107 25.0439 264.644 21.7244 263.874 18.4048C263.024 15.1623 261.789 11.92 259.859 8.90919C257.929 5.97566 255.303 3.35089 251.985 1.72969C248.664 0.10851 244.881 -0.35469 241.408 0.262916C234.924 1.3437 229.211 5.51247 226.046 11.0708C224.347 11.3025 222.649 11.6112 221.027 12.1517C217.785 13.1552 214.775 14.9307 212.072 17.0151C209.37 19.0995 207.132 21.6471 205.202 24.5034C203.272 27.2826 201.727 30.2935 200.57 33.4587C198.485 39.0943 197.559 45.1929 198.177 51.2917C197.328 52.2181 196.631 53.1444 195.782 53.9936C194.549 55.3061 193.082 56.464 191.46 57.3132C189.916 58.1624 188.218 58.8572 186.443 59.2432C184.744 59.6292 182.813 59.8608 181.348 59.5519C179.957 59.3205 178.413 58.4713 177.101 57.3132C175.789 56.1553 174.785 54.7656 174.09 53.1444C173.704 52.2952 173.55 51.3689 173.55 50.4425C175.016 51.06 176.561 51.446 178.104 51.6776C180.267 51.9865 182.428 51.832 184.59 51.2917C186.751 50.6741 188.912 49.5933 190.456 47.6632C191.228 46.6597 191.77 45.5018 192.001 44.1893C192.232 43.0314 192.232 41.6417 191.77 40.3294C191.305 39.017 190.303 37.8589 189.144 37.1642C187.986 36.4694 186.751 36.1607 185.594 36.0061C183.199 35.7745 180.961 36.315 178.953 37.2413C177.95 37.7046 176.946 38.3221 176.097 39.017C175.248 39.7119 174.476 40.6381 173.781 41.4101C172.546 43.0314 171.543 44.8842 171.002 46.8913C169.921 46.351 168.995 45.6561 168.069 44.8069C167.837 44.6525 167.605 44.5753 167.374 44.7296C167.142 44.8842 167.065 45.2701 167.219 45.5018C168.146 46.814 169.304 47.8948 170.616 48.744C170.616 48.8986 170.616 48.9757 170.616 49.13C168.455 51.832 166.216 54.3025 163.668 56.3869C160.349 59.0889 156.334 61.1732 152.474 61.3276C150.544 61.3276 148.769 60.7873 147.456 59.7065C146.298 58.78 145.604 57.3132 145.372 55.7693C151.548 50.5968 157.184 44.6526 161.507 37.7818C163.977 33.7674 166.139 29.4443 167.065 24.5807C167.297 23.3455 167.374 21.956 167.142 20.5663C166.911 19.1767 166.216 17.6327 164.981 16.552C163.745 15.4712 161.97 15.008 160.503 15.1623C158.959 15.3167 157.647 15.8572 156.566 16.6291C154.25 18.0959 152.706 20.2576 151.471 22.1876C150.158 24.1947 149 26.2018 147.997 28.2862C145.912 32.455 144.214 36.8553 142.902 41.333C142.284 43.5717 141.744 45.8877 141.358 48.2808C141.126 49.9021 141.049 51.5233 140.972 53.1444C140.508 53.5304 139.968 53.9164 139.505 54.3025C137.729 55.6148 135.876 56.8499 134.024 58.008C133.097 58.5484 132.171 59.1659 131.322 59.5519C130.936 59.7065 130.395 59.9381 129.932 60.1695L128.465 60.71C126.458 61.4049 124.451 61.9452 122.753 61.8679C121.054 61.7136 120.205 61.1732 119.433 59.7065C118.738 58.2397 118.507 56.1553 118.507 54.0709C118.507 51.9865 118.738 49.9792 119.356 47.8948C120.437 43.8806 122.598 39.8662 124.76 35.9291L130.704 25.4299C131.013 25.4299 131.399 25.3526 131.708 25.3526L135.799 24.8896C138.501 24.5807 141.203 24.4263 143.982 24.1174H144.06C144.677 24.0404 145.14 23.4999 145.14 22.8823C145.14 22.1876 144.6 21.6471 143.905 21.57C141.126 21.4927 138.347 21.4927 135.568 21.57C134.641 21.6471 133.715 21.6471 132.789 21.7244C133.174 21.0295 133.56 20.3347 133.869 19.64C135.336 17.0924 136.726 14.5447 137.884 11.8428C138.038 11.6112 137.961 11.3795 137.729 11.2252C137.498 11.0708 137.266 11.1479 137.112 11.3795L137.034 11.4568C134.641 14.9307 132.248 18.4048 129.855 21.8787C128.928 21.956 128.079 22.0331 127.153 22.1103C121.595 22.6507 116.113 23.5771 110.71 24.735C109.397 25.0439 108.085 25.3526 106.772 25.7388C108.007 23.5771 109.32 21.3384 110.632 19.1767C110.71 19.0224 110.71 18.7908 110.555 18.6364C110.401 18.4819 110.092 18.4819 109.937 18.7135C107.699 21.2611 105.614 23.9631 103.607 26.6651C100.596 27.5143 97.6628 28.4407 94.7292 29.5986C89.5569 31.6058 84.4616 33.9218 79.8298 37.0097C79.6753 37.1642 79.5982 37.3186 79.6753 37.5502C79.7525 37.7818 80.0612 37.8589 80.2158 37.7818C85.1565 35.4658 90.3288 33.7674 95.5784 32.2234C97.2768 31.7603 98.9752 31.2971 100.674 30.8338C97.8944 35.0026 95.2697 39.3257 93.108 43.9577C92.0272 46.2737 91.0237 48.667 90.2517 51.2144C89.9428 52.3725 89.6341 53.6077 89.4025 54.8428C88.0128 56.6956 86.6233 58.394 85.0792 59.9381C83.844 61.096 82.6089 62.2539 81.2966 63.026C79.9842 63.7979 78.5945 64.4155 77.2822 64.4155C76.6646 64.4155 75.9697 64.3385 75.3522 64.1839C74.6573 63.9523 74.117 63.7207 73.731 63.3347C73.3451 62.9487 73.0362 62.5628 72.8046 62.0224C72.5729 61.4819 72.4958 60.71 72.4958 60.0152C72.5729 56.9272 73.731 53.5304 74.9662 50.2108C75.0435 50.0565 74.9662 49.9021 74.8889 49.7476C74.7346 49.5933 74.4257 49.5933 74.2713 49.7476C72.9591 51.1373 71.9553 52.6041 71.0291 54.3025C70.1026 56.0007 69.4079 57.7764 69.099 59.7835C69.0218 60.4011 69.0218 61.096 69.0218 61.7908C67.4006 63.2576 65.7795 64.5699 64.0038 65.4964C61.688 66.7315 59.2947 67.2719 56.7471 67.2719C54.1995 67.2719 51.652 66.6543 49.1044 65.728C47.0973 65.1104 44.704 63.9523 42.2337 62.7944C43.0056 61.2503 43.7776 59.7065 44.4724 58.1624C47.9463 50.3652 50.8028 42.3366 53.7364 34.4623C59.5263 33.999 65.4706 32.2234 70.1799 28.3635C72.5729 26.4334 74.6573 23.9631 76.1241 21.1839C77.5909 18.4048 78.5174 15.2396 78.4401 11.92C78.363 10.2989 78.0541 8.36888 76.7417 6.74773C75.5065 5.12646 73.4221 4.20008 71.5694 4.20008C67.7095 4.12288 64.6214 6.28446 62.537 8.60049C60.3755 10.9165 58.7544 13.4639 57.2103 16.0888C55.7435 18.7135 54.4311 21.3384 53.2732 24.0404C52.1924 26.5107 51.1888 28.9811 50.1853 31.4514C45.476 31.5287 40.844 30.7566 36.4438 29.0583C33.8189 28.0546 31.3486 26.8194 28.9553 25.2755C26.6395 23.7315 24.4006 21.956 22.5478 19.9487L22.4707 19.8716C22.0075 19.3311 21.1583 19.254 20.6178 19.7943C20.0774 20.2576 20.0002 21.1068 20.4634 21.6471C22.5478 24.0404 24.8638 25.8931 27.3341 27.5915C29.8045 29.29 32.5065 30.6795 35.2857 31.7603C39.6088 33.4587 44.2408 34.385 48.8728 34.5393C46.0165 41.8733 43.3145 49.13 40.072 56.1553C39.3774 57.6221 38.6825 59.0889 37.9106 60.5557C36.6752 59.8608 35.363 59.2432 34.1278 58.5484C31.5029 57.1588 28.9553 55.9237 26.099 54.6885C20.0002 52.3725 13.0524 53.4533 7.87996 57.0816C5.25519 58.9343 3.09361 61.4819 1.85842 64.4928C1.24081 66.0367 0.854827 67.658 0.700421 69.2792C0.546034 70.9003 0.777633 72.8303 1.54963 74.4515C2.24441 76.0726 3.40241 77.5394 4.71479 78.6202C6.10438 79.8554 7.57117 80.7046 9.11515 81.2449ZM328.953 54.148C330.496 54.3796 331.885 54.9972 332.734 55.9237C333.12 56.3869 333.507 57.0045 333.662 57.5448C333.816 58.008 333.738 58.4713 333.583 59.0116C333.275 60.0924 332.349 61.1732 331.19 61.8679C330.033 62.64 328.721 63.1804 327.254 63.412C325.864 63.6436 324.397 63.6436 322.853 63.4892C320.461 63.1804 318.144 62.3312 315.597 61.2503C318.066 59.2432 320.692 57.3904 323.395 55.6148L325.709 54.0709C326.868 53.9936 327.949 54.0709 328.953 54.148ZM315.365 49.13C318.066 45.5018 321.078 42.1049 324.628 39.5573C325.556 38.9397 326.405 38.3994 327.407 37.8589C328.411 37.3186 329.416 36.8553 330.341 36.4694C331.345 36.0834 332.349 35.7745 333.275 35.6202C334.201 35.4658 335.129 35.5431 335.513 35.7745C335.746 35.8518 335.823 36.0061 335.978 36.1607C336.054 36.315 336.209 36.5466 336.209 36.9326C336.286 37.6275 336.131 38.5538 335.746 39.4802C335.05 41.333 333.816 43.0314 332.349 44.5753C329.261 47.5089 325.091 49.9021 321.31 52.6041C317.45 55.3061 313.667 58.3167 310.192 61.6363C308.803 63.026 307.491 64.4928 306.256 65.9596C306.95 64.2612 307.644 62.64 308.417 61.0187C310.425 56.7729 312.663 52.8357 315.365 49.13ZM292.976 54.3796C293.21 54.3796 293.363 54.4569 293.363 54.4569C293.363 54.534 293.286 54.4569 293.363 54.5341C293.363 54.6885 293.21 55.4604 292.745 56.1553C292.437 56.6956 292.05 57.1588 291.588 57.6221C291.588 57.4675 291.511 57.3132 291.511 57.1588C291.433 56.6956 291.433 56.2324 291.511 55.9237C291.511 55.692 291.664 55.3832 291.819 55.1517C292.05 54.6112 292.592 54.3796 292.976 54.3796ZM276.92 49.6705C278.542 48.5124 280.24 47.5861 282.091 47.2772C283.868 46.8913 285.72 47.2002 287.342 48.2808C288.577 49.0529 289.734 50.2108 290.583 51.446C289.813 51.9092 289.117 52.6041 288.732 53.4533C288.346 54.148 288.114 54.9201 288.114 55.692C288.114 56.3869 288.114 57.0045 288.267 57.6221C288.422 58.5484 288.654 59.3976 288.963 60.2468C288.114 60.9416 287.265 61.5592 286.416 62.1768C284.794 63.3347 283.019 64.3383 281.321 65.0331C279.622 65.728 277.845 65.9596 276.302 65.6507C275.529 65.4964 274.758 65.1875 274.064 64.7244L273.523 64.4155L272.982 64.0296L272.75 63.8752L272.597 63.7207C272.519 63.6436 272.366 63.4892 272.287 63.3347C271.438 62.2539 270.975 60.4011 271.207 58.7027C271.362 57.0045 271.979 55.2288 272.982 53.762C273.909 52.1409 275.298 50.8284 276.92 49.6705ZM242.181 4.74047C244.96 4.35447 247.739 4.74047 250.208 5.97567C252.679 7.1337 254.685 9.21808 256.231 11.6112C259.241 16.4748 260.553 22.7279 260.63 28.6722C260.63 34.6939 259.163 40.6381 256.384 45.965C254.995 48.744 253.22 51.3689 251.212 53.8393C249.669 53.376 248.202 52.8357 246.735 52.1409C244.032 50.7513 241.563 48.9757 239.402 46.814C235.001 42.5682 231.835 37.1642 229.364 31.5287C228.746 30.0619 228.207 28.7494 227.897 27.2827C227.513 25.8931 227.281 24.4263 227.281 22.9595C227.203 20.1032 227.744 17.1696 229.056 14.622C229.133 14.4677 229.211 14.3904 229.211 14.236C229.829 14.1588 230.445 14.1588 231.141 14.1588C232.684 14.1588 234.151 14.3131 235.695 14.5447C237.238 14.7764 238.705 15.1623 240.172 15.6256C243.106 16.552 245.962 17.9416 248.741 19.4856C248.896 19.5627 249.206 19.5627 249.282 19.4084C249.437 19.254 249.359 18.9451 249.206 18.7908C244.11 14.8536 238.011 11.7657 231.217 11.2252H231.141C233.92 7.82837 237.935 5.35806 242.181 4.74047ZM204.97 35.2342C206.977 29.5214 210.374 24.3491 214.851 20.4119C217.091 18.4819 219.638 16.8607 222.417 15.7799C223.112 15.5483 223.806 15.2396 224.502 15.0853C223.653 17.6327 223.188 20.4119 223.343 23.1139C223.42 24.8896 223.73 26.5878 224.192 28.2862C224.655 29.9846 225.273 31.6058 225.967 33.0726C228.67 39.017 232.222 44.8069 237.238 49.2845C239.71 51.5233 242.565 53.376 245.577 54.7656C246.811 55.3061 248.047 55.692 249.359 56.078C248.047 57.4675 246.658 58.8573 245.113 60.0152C240.404 63.7979 235.001 66.8088 229.211 68.1983C223.498 69.6651 217.322 69.5108 212.382 66.7315C209.911 65.342 207.903 63.3347 206.359 60.9416C204.816 58.5484 203.811 55.8464 203.272 52.9128C202.113 47.0456 202.886 40.8698 204.97 35.2342ZM176.406 43.5717C177.024 42.8769 177.564 42.1822 178.259 41.719C178.953 41.1786 179.726 40.7925 180.498 40.4065C182.118 39.7119 183.895 39.4802 185.515 39.6346C187.137 39.8662 188.373 40.6381 188.757 41.719C188.99 42.2593 188.99 43.0314 188.912 43.8033C188.836 44.4982 188.526 45.1929 188.063 45.8105C187.214 47.0456 185.67 47.9721 183.972 48.5124C182.273 49.13 180.42 49.2845 178.645 49.2073C177.101 49.13 175.557 48.8213 174.013 48.3581C174.322 46.6597 175.171 44.9613 176.406 43.5717ZM147.07 42.7998C148.228 38.5538 149.695 34.3077 151.625 30.2935C152.552 28.2862 153.555 26.2791 154.79 24.5034C155.948 22.6507 157.184 21.0295 158.805 20.026C160.349 18.9451 162.201 18.7908 163.051 19.64C164.054 20.4892 164.286 22.419 163.823 24.3491C162.973 28.4407 160.966 32.455 158.573 36.0834C156.103 39.7119 153.169 43.0314 150.004 46.1193C148.614 47.4318 147.225 48.744 145.835 49.9792C146.067 47.5861 146.53 45.1929 147.07 42.7998ZM94.7292 52.7585C95.3468 50.4425 96.196 48.2037 97.1225 45.965C99.3612 40.6381 101.986 35.4658 104.842 30.3706C107.158 29.8303 109.474 29.2899 111.79 28.8267C114.492 28.3635 117.117 27.8232 119.819 27.437C121.131 27.2827 122.521 26.974 123.833 26.8194L127.23 26.3564C124.76 29.6759 122.289 32.9182 119.742 36.2378C116.731 40.1749 113.643 44.112 110.555 48.0494C109.011 49.9792 107.467 51.9865 105.846 53.8393C104.225 55.692 102.758 57.7764 101.137 59.2432C100.288 60.0152 99.4384 60.6327 98.512 61.1732C97.5855 61.7136 96.6592 62.0995 95.8873 62.1768C95.5011 62.1768 95.1924 62.1768 94.9608 62.0995C94.7292 62.0225 94.5748 61.9452 94.4205 61.7136C94.1116 61.3276 93.8029 60.4784 93.7256 59.4748C93.6484 57.3905 94.1116 55.0745 94.7292 52.7585ZM60.8388 18.0188C62.151 15.5483 63.6178 13.1552 65.4706 11.2252C66.3971 10.2216 67.3235 9.4497 68.3271 8.83211C69.3306 8.29161 70.4885 7.90564 71.4923 7.98291C72.4958 7.98291 73.3451 8.36888 73.8854 9.06354C74.4257 9.7584 74.7346 10.762 74.8119 12.0744C74.9662 14.5447 74.1943 17.1696 73.0362 19.5627C71.801 21.8787 70.1026 24.0404 68.0182 25.7388C64.3899 28.7494 59.835 30.4479 55.0487 31.1427C55.7435 29.367 56.5155 27.5143 57.2103 25.7388C58.3682 23.1139 59.5263 20.4892 60.8388 18.0188ZM5.25519 65.9596C6.18159 63.6436 7.87996 61.5592 9.96434 60.0152C14.1332 56.9272 20.0774 56.0007 24.8638 58.0851C26.0219 58.6256 27.3341 59.3205 28.5693 60.0152C29.8045 60.71 31.0397 61.4049 32.275 62.1768C33.5102 62.9487 34.7454 63.6436 35.9806 64.4155C34.6681 66.5772 33.2786 68.6616 31.6574 70.5143C30.8082 71.5179 29.8818 72.4444 28.8782 73.2163C27.8747 73.9882 26.7166 74.7604 25.5587 75.3007C23.2427 76.5358 20.695 77.385 18.1474 77.771C15.6 78.0799 12.8978 78.0026 10.582 77.2307C8.18875 76.4586 6.18159 74.9918 5.17799 72.9847C4.6376 71.9811 4.48319 70.9003 4.56039 69.6651C4.56039 68.4299 4.79199 67.1948 5.25519 65.9596Z" fill="white"/>
<path d="M79.1348 45.7333C79.1348 46.5052 78.4399 47.1228 77.668 47.1228C76.8188 47.1228 76.2012 46.5052 76.2012 45.7333C76.2012 44.9613 76.8958 44.3438 77.668 44.3438C78.4399 44.3438 79.1348 44.9613 79.1348 45.7333Z" fill="white"/>
</svg>
