<svg width="358" height="82" viewBox="0 0 358 82" fill="none" xmlns="http://www.w3.org/2000/svg">
<path d="M222.018 30.7643H222.029C227.763 28.8084 230.92 24.4385 230.92 18.4536C230.92 9.87016 225.209 5.14258 214.843 5.14258H198.14V45.3214H202.499V31.8316H216.123L226.802 45.0923L226.981 45.3158H232.479L220.957 31.1051L222.018 30.7643ZM226.282 18.5933C226.282 24.5055 222.158 28.0317 215.251 28.0317H202.493V9.01517H214.698C222.063 9.01517 226.282 12.5078 226.282 18.5933Z" fill="white"/>
<path d="M277.353 25.3003C277.353 12.9002 268.719 4.24414 256.364 4.24414C244.086 4.24414 235.514 12.9058 235.514 25.3003C235.514 37.6557 244.086 46.2894 256.364 46.2894C268.719 46.2894 277.353 37.6557 277.353 25.3003ZM240.007 25.3003C240.007 15.4652 246.886 8.32349 256.358 8.32349C265.914 8.32349 272.849 15.4652 272.849 25.3003C272.849 35.0572 265.914 42.1374 256.358 42.1374C246.886 42.1374 240.007 35.0572 240.007 25.3003Z" fill="white"/>
<path d="M313.05 28.5514C313.05 36.9336 308.216 42.1417 300.432 42.1417C292.603 42.1417 287.741 36.9336 287.741 28.5514V5.14258H283.382V28.5514C283.382 39.3253 290.071 46.2882 300.432 46.2882C310.949 46.2882 317.481 39.493 317.481 28.5514V5.14258H313.055V28.5514H313.05Z" fill="white"/>
<path d="M341.728 5.14258H324.958V45.3214H329.317V32.2507H341.382C351.776 32.2507 357.738 27.2214 357.738 18.4536C357.738 9.87016 352.049 5.14258 341.728 5.14258ZM353.173 18.5933C353.173 25.042 349.144 28.4508 341.521 28.4508H329.317V9.01517H341.521C348.926 9.01517 353.173 12.5078 353.173 18.5933Z" fill="white"/>
<path d="M172.709 28.2077L172.754 31.8791L186.976 31.7338L186.467 32.9185C183.768 38.8587 178.057 42.4072 171.189 42.4072C161.482 42.4072 154.436 35.1594 154.436 25.1734C154.436 15.1035 161.482 7.79978 171.189 7.79978C177.347 7.79978 182.578 10.6386 185.534 15.5897L185.707 15.8803H190.53L190.116 15.0253C186.685 7.96743 179.789 3.91602 171.189 3.91602C158.794 3.91602 150.133 12.6559 150.133 25.1734C150.133 37.6405 158.789 46.3469 171.189 46.3469C180.935 46.3469 188.44 41.1275 191.273 32.3541L191.318 32.1809C191.664 31.0968 191.932 29.9456 192.111 28.7498L192.217 28.0624H184.662L172.709 28.2077Z" fill="white"/>
<path d="M45.3994 9.73091C45.9638 9.73091 46.2432 9.4515 45.3994 9.16651C42.3036 6.63507 35.5531 5.22686 28.8026 4.66804C22.0521 4.38863 8.54554 5.23245 8.54554 5.23245C8.54554 5.23245 0.107422 5.51185 0.107422 8.60769C0.38683 11.4185 8.26613 10.5747 12.7646 10.2953C16.9836 9.73091 22.8903 9.4515 22.8903 9.4515C22.8903 9.4515 23.1697 13.6706 23.1697 22.6731C23.1697 31.6756 22.3259 38.9905 21.4821 41.2369C20.3589 43.7684 18.9507 45.1766 18.3863 45.1766C17.8219 45.1766 18.3863 45.456 18.3863 45.456C18.3863 45.456 26.545 50.5188 27.9532 35.3302C29.0764 22.9525 25.9862 10.0103 25.7012 9.4515C25.7068 9.4515 30.2052 8.60769 45.3994 9.73091Z" fill="white"/>
<path d="M82.5329 26.8929C81.1247 26.6135 74.3742 25.2053 74.3742 25.2053C74.3742 25.2053 73.8098 24.3615 73.8098 24.0821C72.966 22.6739 67.9031 14.8002 65.6511 10.5811C63.399 6.36207 60.0238 -1.23223 59.4594 0.170392C59.4594 0.170392 54.9609 12.5482 52.1445 21.5507C51.8651 22.1151 51.3007 24.0821 51.3007 24.0821C50.1775 24.0821 44.5502 24.3615 41.7338 23.8027C38.9229 23.2383 34.9833 21.5507 36.1065 25.4903C37.2297 29.43 49.8925 29.145 49.8925 29.145C49.8925 29.145 50.4569 28.5806 48.2049 33.9284C46.2434 39.2707 42.3038 48.8376 42.3038 48.8376C42.3038 48.8376 40.8955 51.3691 42.8682 49.6814C45.3996 47.7144 50.4625 40.9583 54.4021 30.5532C54.6815 29.43 54.9665 28.8656 54.9665 28.8656C55.5309 28.8656 69.5963 28.5862 69.5963 28.5862C69.5963 28.5862 71.2839 31.9614 72.4072 35.0572C73.251 37.8681 73.251 40.3995 74.9386 39.5557C76.6262 38.7119 78.0344 35.901 75.503 28.5862V28.3067C75.503 28.3067 79.722 28.8711 81.4097 28.3067C82.5329 28.3012 83.9355 27.4573 82.5329 26.8929ZM56.9335 24.0821C56.6541 24.0821 56.3691 24.0821 56.3691 24.0821L60.5882 8.04969C60.5882 8.04969 60.5882 8.04969 61.1526 9.17291C61.1526 9.17291 65.0923 19.863 68.1825 24.6465C67.3387 24.6409 58.0568 23.7971 56.9335 24.0821Z" fill="white"/>
<path d="M120.225 9.73274C115.442 5.23428 107.847 2.41785 98.5655 5.7931C98.2861 6.0725 98.2861 6.0725 98.5655 6.0725C107.568 5.22869 112.067 7.48072 116.85 11.6998C120.505 15.3544 123.042 21.2667 122.477 26.8884C121.913 33.9239 117.979 40.11 109.535 41.7976C97.7217 43.2058 91.53 35.8909 90.6862 28.0116C90.1218 22.1049 92.3739 15.9132 96.8723 13.1024C100.527 10.571 98.5599 8.88334 98.5599 8.88334C98.5599 8.88334 96.5929 7.19572 92.0889 11.6942C87.5904 15.6338 85.6178 22.1049 86.4616 28.5704C87.5848 38.4167 95.4641 47.4193 110.653 45.7316C122.466 43.4796 126.685 35.0415 126.97 26.6034C127.261 19.5791 124.45 13.6724 120.225 9.73274Z" fill="white"/>
<path d="M92.5687 73.9463H85.5947V68.0508H83.3706V81.7026H85.5947V76.0307H92.5687V81.7026H94.8151V68.0508H92.5687V73.9463Z" fill="white"/>
<path d="M111.479 67.7656C107.4 67.7656 104.55 70.6994 104.55 74.8961C104.55 79.0146 107.461 82.0098 111.479 82.0098C115.519 82.0098 118.453 79.0202 118.453 74.8961C118.453 70.6994 115.581 67.7656 111.479 67.7656ZM116.184 74.8961C116.184 77.7908 114.251 79.8137 111.479 79.8137C108.78 79.8137 106.819 77.7461 106.819 74.8961C106.819 72.0238 108.78 69.9338 111.479 69.9338C114.251 69.9394 116.184 71.9791 116.184 74.8961Z" fill="white"/>
<path d="M132.893 73.5994C130.138 72.8338 129.658 72.3421 129.658 71.5988C129.658 70.3583 131.077 69.9168 132.402 69.9168C134.654 69.9168 135.928 70.9338 135.939 70.9394L136.14 71.1015L137.353 69.2294L137.207 69.0953C137.146 69.0395 135.682 67.7598 132.402 67.7598C129.222 67.7598 127.328 69.2015 127.328 71.6156C127.328 73.9403 129.038 74.8902 131.994 75.7508C134.765 76.5499 135.229 77.0864 135.229 77.9917C135.229 79.5284 133.665 79.8525 132.357 79.8525C130.027 79.8525 128.646 78.6455 128.635 78.6343L128.445 78.4667L127.216 80.1934L127.344 80.3275C127.411 80.3946 128.982 82.004 132.379 82.004C135.637 82.004 137.582 80.4784 137.582 77.9246C137.587 75.7564 136.269 74.5438 132.893 73.5994Z" fill="white"/>
<path d="M152.938 68.0508H147.283V81.7026H149.507V77.5451H152.832C156.291 77.5451 158.358 75.7401 158.358 72.7225C158.358 69.7552 156.38 68.0508 152.938 68.0508ZM156.067 72.7672C156.067 74.5554 154.994 75.4607 152.871 75.4607H149.501V70.1575H152.871C154.067 70.1575 156.067 70.4984 156.067 72.7672Z" fill="white"/>
<path d="M170.06 68.0508H167.836V81.7026H170.06V68.0508Z" fill="white"/>
<path d="M179.252 70.1575H183.712V81.7026H185.936V70.1575H190.418V68.0508H179.252V70.1575Z" fill="white"/>
<path d="M202.935 68.0508L196.291 81.7026H198.806L199.862 79.5456H206.663L207.719 81.7026H210.256L203.589 68.0508H202.935ZM205.646 77.4836H200.879L203.254 72.1637L205.646 77.4836Z" fill="white"/>
<path d="M221.169 68.0508H218.945V81.7026H228.557V79.5959H221.169V68.0508Z" fill="white"/>
<path d="M239.912 68.0508H237.688V81.7026H239.912V68.0508Z" fill="white"/>
<path d="M249.11 70.1575H253.569V81.7026H255.793V70.1575H260.275V68.0508H249.11V70.1575Z" fill="white"/>
<path d="M274.083 73.7675L273.843 74.276L273.603 73.7451L270.155 68.0508H267.551L272.681 76.5001V81.7026H274.927V76.4777L280.085 68.0508H277.498L274.083 73.7675Z" fill="white"/>
</svg>
