<svg width="507" height="100" viewBox="0 0 507 100" fill="none" xmlns="http://www.w3.org/2000/svg">
<path d="M0 31.8188L16.4706 31.6753L22.9922 31.6152C23.0917 31.6152 23.1889 31.5967 23.2885 31.5874H26.4428C26.6187 31.5874 26.6418 31.4416 26.7043 31.356C27.3407 30.3979 27.9633 29.4328 28.5951 28.4724C29.4915 27.1116 30.3894 25.7516 31.2889 24.3923L34.1771 19.9952C35.1413 18.528 36.1079 17.0623 37.0768 15.5981C37.3291 15.2117 37.6022 14.8367 37.822 14.441C38.1206 13.8902 38.6459 13.6958 39.1782 13.5153C39.3684 13.4579 39.5615 13.4108 39.7568 13.3741C39.995 13.344 40.236 13.344 40.4742 13.3741C41.408 13.5738 42.2334 14.1153 42.7885 14.8923C43.0168 15.2514 43.1586 15.6586 43.2027 16.0818C43.2351 16.3199 43.2351 16.5612 43.2027 16.7992V16.9196C43.2104 16.9337 43.2127 16.9501 43.2093 16.9658C43.2059 16.9815 43.197 16.9955 43.1842 17.0052C42.7032 17.0819 42.2356 17.2269 41.7956 17.4357C41.5125 17.5813 41.273 17.7993 41.1014 18.0675C39.3055 20.8191 37.4934 23.5592 35.6883 26.3062C33.8184 29.1551 31.9392 31.9947 30.0831 34.8505C30.0047 34.9943 29.8862 35.1122 29.742 35.1899C29.5977 35.2676 29.4341 35.3016 29.2708 35.2879C27.3778 35.2347 25.487 35.3758 23.5939 35.3434C22.6127 35.3272 21.6291 35.3087 20.6479 35.3434C18.2642 35.4337 15.8805 35.3434 13.4991 35.4106C11.3538 35.48 9.21078 35.3967 7.06777 35.4661C5.86666 35.5054 4.66556 35.5078 3.46446 35.517C3.42777 35.5162 3.39216 35.5294 3.36494 35.554C3.51557 35.8326 3.68089 36.103 3.86019 36.364C5.27653 38.524 6.68977 40.6879 8.09993 42.8556C10.3648 46.3316 12.632 49.8145 14.9016 53.3045C15.6699 54.4778 16.4382 55.6534 17.195 56.8337C17.269 56.9471 17.3824 57.0513 17.3338 57.2109C17.3199 57.2385 17.3036 57.2648 17.2852 57.2896C16.9543 57.7895 16.9543 57.7895 16.6187 57.2734L0.233741 32.1752C0.166627 32.0711 0.12497 31.9438 0.00231421 31.8767L0 31.8188Z" fill="#5D17EA"/>
<path d="M44.9773 99.5155C44.806 99.5409 44.7945 99.3812 44.7459 99.284C43.9104 98.0089 43.0842 96.7383 42.2557 95.4516C42.1308 95.4238 42.0891 95.3128 42.0243 95.2202C40.6172 93.0633 39.2263 90.8971 37.8285 88.7402C37.3009 87.9233 36.7709 87.1087 36.2456 86.2917C36.1727 86.2044 36.1328 86.0942 36.1328 85.9805C36.1328 85.8667 36.1727 85.7566 36.2456 85.6692C37.4999 83.7854 38.7404 81.8923 39.9877 80.0016L45.1648 72.1446L50.108 64.6395C51.7882 62.0876 53.4699 59.5358 55.1531 56.9839L60.0964 49.4857L65.2549 41.6542C66.5833 39.6385 67.9209 37.6274 69.2285 35.5978C69.3051 35.4533 69.4225 35.3346 69.5662 35.2564C69.7098 35.1782 69.8732 35.144 70.0362 35.1581C72.0473 35.209 74.0607 35.2205 76.0741 35.2414C76.8031 35.2414 77.5344 35.2645 78.2634 35.29C78.3724 35.2987 78.4816 35.2756 78.5778 35.2234C78.6739 35.1712 78.7528 35.0922 78.8049 34.9961C80.5406 32.2999 82.3087 29.627 84.056 26.9378C84.7271 25.9041 85.4006 24.8719 86.0763 23.8413C88.2888 20.4764 90.4734 17.0975 92.6905 13.7303C94.2951 11.2849 95.8958 8.83561 97.4926 6.38249C97.9555 5.66043 98.4438 4.94533 98.8997 4.21402C99.0358 4.0029 99.2412 3.84579 99.4806 3.76968C100.06 3.57075 100.675 3.49201 101.286 3.53825C101.369 3.53413 101.45 3.55865 101.517 3.60768C102.091 3.71229 102.64 3.92176 103.137 4.22559C104.475 5.09344 104.757 6.52597 104.422 7.83584C104.384 7.94915 104.329 8.05607 104.26 8.1529L76.9905 50.1545L45.1092 99.2817C45.0604 99.3568 45.0163 99.4349 44.9773 99.5155Z" fill="#EF6B19"/>
<path d="M47.6217 56.4599C46.7632 57.7629 45.9022 59.0658 45.0506 60.371C40.8386 66.8278 36.629 73.2854 32.4217 79.7438C32.2319 80.0354 32.2296 80.0354 32.0329 79.7438L29.6561 76.1659C29.6006 76.0849 29.5381 76.0062 29.4802 75.9345C29.3599 75.8998 29.3182 75.791 29.2488 75.7031C27.4159 72.9768 25.6154 70.2344 23.7894 67.4967C23.7158 67.4039 23.6777 67.2879 23.682 67.1696C23.6862 67.0512 23.7325 66.9382 23.8126 66.851C25.4557 64.3955 27.085 61.9285 28.7373 59.4777C32.1069 54.4766 35.4209 49.4385 38.7859 44.435C40.7576 41.5036 42.7217 38.5629 44.678 35.613C44.7468 35.4919 44.8486 35.3929 44.9715 35.3273C45.0944 35.2618 45.2334 35.2324 45.3723 35.2428H53.3982C53.5403 35.2526 53.6821 35.22 53.8057 35.1491C53.9293 35.0783 54.0291 34.9723 54.0924 34.8447C54.8191 33.6876 55.5759 32.5304 56.3211 31.3733C58.4301 28.121 60.5377 24.8664 62.6436 21.6094C63.8332 19.775 65.0235 17.932 66.2146 16.0806C67.1842 14.5833 68.1261 13.0721 69.1259 11.5956C69.6952 10.7555 70.5607 10.4153 71.5837 10.538C71.6369 10.5634 71.6739 10.6166 71.7318 10.6328C72.4284 10.868 73.0826 11.2142 73.6688 11.6581C74.3631 12.2065 74.6501 12.9795 74.7519 13.8358C74.7843 14.0537 74.7843 14.2752 74.7519 14.493C74.7357 14.9559 74.4395 15.2776 74.2103 15.6293C72.4608 18.3185 70.7058 21.0046 68.9454 23.6876C66.8764 26.8551 64.809 30.0249 62.7432 33.1969C60.9797 35.9062 59.217 38.6092 57.4551 41.3061L52.1647 49.4292C50.702 51.6771 49.2363 53.9243 47.7675 56.1707C47.7143 56.2655 47.6657 56.3604 47.6217 56.4599Z" fill="#EF6B19"/>
<path d="M17.3342 57.2088C16.4733 55.885 15.617 54.5543 14.7515 53.2305L3.31441 35.7046C3.26118 35.6236 3.21258 35.5403 3.12695 35.3991H6.17484C10.6136 35.3621 15.0508 35.3227 19.4865 35.2811C22.7913 35.251 26.0984 35.214 29.4031 35.1908C29.4998 35.1975 29.5964 35.1759 29.681 35.1286C29.7657 35.0814 29.8348 35.0105 29.8799 34.9247C33.5487 29.3303 37.2184 23.7429 40.8888 18.1625C41.3794 17.4103 42.076 17.1442 42.8698 16.9753C42.967 16.9544 43.0689 16.9475 43.1661 16.9336C43.3072 16.9683 43.453 16.9197 43.5942 16.9614C44.5107 17.1481 45.3227 17.6748 45.8668 18.4356C46.1174 18.8076 46.2709 19.2364 46.3135 19.6829C46.3459 19.921 46.3459 20.1623 46.3135 20.4004C46.2949 21.4487 45.6562 22.2217 45.1239 23.0386C43.1398 26.0734 41.1557 29.1066 39.1716 32.1383C37.3295 34.9571 35.492 37.7813 33.6591 40.6108C33.396 40.9713 33.1594 41.3503 32.9509 41.7448C32.2288 42.8395 31.5045 43.9295 30.7871 45.0265L20.2919 61.1129C20.1021 61.4068 20.0998 61.4068 19.9054 61.1129L17.3342 57.2088Z" fill="#EF6B19"/>
<path d="M101.522 3.61172C100.852 3.55398 100.178 3.62789 99.5363 3.82926C99.2943 3.90408 99.0873 4.06343 98.9531 4.27822L78.893 35.0094C78.8273 35.1328 78.7259 35.2335 78.602 35.2983C78.4781 35.3632 78.3376 35.3891 78.1987 35.3727C75.4216 35.3218 72.6445 35.2917 69.8674 35.2431C69.7708 35.2341 69.6738 35.254 69.5886 35.3001C69.5033 35.3462 69.4336 35.4166 69.3883 35.5023C58.3616 52.2576 47.3303 69.009 36.2943 85.7566C36.2405 85.8217 36.2111 85.9035 36.2111 85.988C36.2111 86.0725 36.2405 86.1543 36.2943 86.2194C38.2074 89.1663 40.1159 92.1162 42.0198 95.0692C42.1008 95.1965 42.1772 95.3237 42.2512 95.4533C41.9064 95.9509 41.9064 95.9509 41.557 95.4279C38.7968 91.1635 36.0382 86.9014 33.2811 82.6416C33.2174 82.5642 33.1835 82.4666 33.1856 82.3663C33.1878 82.2661 33.2258 82.17 33.2927 82.0954C38.5384 74.139 43.784 66.181 49.0297 58.2214C49.0829 58.1404 49.1663 58.071 49.1686 57.9622C50.1884 56.4194 51.2082 54.8696 52.228 53.3129L55.2366 48.7422L58.6455 43.6207C59.7702 41.9236 60.8942 40.2188 62.0174 38.5062C63.1406 36.7937 64.2514 35.1042 65.3499 33.438C65.704 32.8964 66.072 32.3642 66.4191 31.818C66.45 31.7586 66.4982 31.7101 66.5573 31.6787C66.6164 31.6473 66.6836 31.6345 66.75 31.6421H68.8213C69.3837 31.6976 69.946 31.6421 70.5084 31.6676C70.6559 31.6567 70.8041 31.6622 70.9504 31.6838L73.3341 31.7023C73.8942 31.7578 74.4542 31.7023 75.012 31.7277C75.1819 31.7154 75.3526 31.7216 75.5211 31.7462C75.697 31.7902 75.7109 31.6143 75.7525 31.5356C76.463 30.4618 77.155 29.3787 77.8585 28.2957C78.8228 26.8454 79.7786 25.3967 80.7259 23.9495L83.6349 19.4829L86.6018 14.9447L89.5525 10.4342C90.5338 8.9299 91.5165 7.42563 92.5009 5.92135L95.4516 1.40854C95.5353 1.30107 95.6082 1.18556 95.6691 1.06371C95.9561 0.318516 96.5948 0.138003 97.2706 0.0500613C98.6591 -0.139708 99.8834 0.198174 100.835 1.26736C101.427 1.92462 101.596 2.73692 101.522 3.61172Z" fill="#5D17EA"/>
<path d="M71.6168 10.5976C70.8045 10.468 70.1334 10.8059 69.49 11.2433C69.3801 11.3305 69.2902 11.4401 69.2262 11.565C64.1857 19.3579 59.1483 27.1492 54.114 34.939C54.0518 35.059 53.955 35.1574 53.8362 35.2218C53.7174 35.2862 53.582 35.3134 53.4475 35.3001C50.7213 35.2862 47.9974 35.3001 45.2712 35.2885C45.1788 35.2792 45.0856 35.2973 45.0033 35.3405C44.921 35.3837 44.8532 35.4501 44.8084 35.5315C37.8239 45.9981 30.8341 56.4632 23.8388 66.9268C23.7837 66.9913 23.7535 67.0734 23.7535 67.1582C23.7535 67.2431 23.7837 67.3251 23.8388 67.3897C25.6671 70.1298 27.49 72.8737 29.3074 75.6215C29.3676 75.7118 29.4185 75.809 29.4764 75.9015C29.0945 76.4639 29.0968 76.4639 28.7219 75.9015C26.0682 71.9102 23.4122 67.9135 20.7539 63.9113C20.6835 63.8328 20.6445 63.731 20.6445 63.6255C20.6445 63.52 20.6835 63.4182 20.7539 63.3397C25.2096 56.687 29.6592 50.0288 34.1026 43.3653C34.186 43.2794 34.2458 43.1733 34.2762 43.0575L38.0739 37.3713C39.2796 35.5662 40.4923 33.7657 41.6934 31.9583C41.731 31.8912 41.7874 31.8366 41.8556 31.8012C41.9239 31.7658 42.0011 31.7512 42.0775 31.7592H50.4945C50.5625 31.7654 50.6308 31.7523 50.6917 31.7217C50.7526 31.691 50.8038 31.6439 50.8394 31.5857C51.7496 30.1508 52.6638 28.7198 53.5818 27.2927C54.3825 26.0569 55.2017 24.8303 55.9978 23.5899C56.9235 22.1574 57.8493 20.7132 58.775 19.2784C59.5502 18.0727 60.3417 16.8785 61.1193 15.6751C62.0635 14.2148 62.9962 12.7475 63.9381 11.278C64.6787 10.1209 65.4123 8.97992 66.1829 7.85519C66.4676 7.44325 66.9675 7.29745 67.4234 7.12388C67.5568 7.08224 67.6929 7.04976 67.8307 7.02668C67.9884 6.99892 68.1497 6.99892 68.3074 7.02668C69.1022 7.21365 69.8473 7.56964 70.4921 8.07042C71.228 8.61196 71.5243 9.40575 71.6261 10.2875C71.6588 10.3888 71.6555 10.4984 71.6168 10.5976Z" fill="#5D17EA"/>
<path d="M132.016 51.0507L120.936 25.1055H128.867L138.205 47.5654H133.537L143.097 25.117H150.354L139.246 51.06L132.016 51.0507Z" fill="white"/>
<path d="M152.619 51.0527V25.1074H159.958V51.0503L152.619 51.0527Z" fill="white"/>
<path d="M165.887 51.0527V25.1074H177.745C180.118 25.1074 182.163 25.4931 183.88 26.2646C185.505 26.9536 186.891 28.1073 187.863 29.5809C188.803 31.025 189.272 32.736 189.272 34.7139C189.272 36.6641 188.803 38.3566 187.863 39.7914C186.884 41.2585 185.5 42.4104 183.88 43.1078C182.161 43.8792 180.116 44.2649 177.745 44.2649H169.962L173.225 41.0759V51.0457L165.887 51.0527ZM173.225 41.8627L169.962 38.4885H177.301C178.833 38.4885 179.975 38.1553 180.728 37.4887C181.481 36.8222 181.858 35.8965 181.86 34.7116C181.86 33.5005 181.483 32.5617 180.728 31.8952C179.974 31.2287 178.831 30.8946 177.301 30.8931H169.962L173.225 27.5212V41.8627Z" fill="white"/>
<path d="M205.393 51.0527V25.1074H211.433L225.737 42.3788H222.884V25.1074H230.074V51.0503H224.034L209.727 33.779H212.581V51.0503L205.393 51.0527Z" fill="white"/>
<path d="M247.939 51.571C244.108 51.571 241.118 50.5211 238.969 48.4213C236.82 46.3215 235.747 43.3446 235.75 39.4906V25.1074H243.089V39.2661C243.089 41.4878 243.527 43.0808 244.403 44.0451C245.279 45.0093 246.484 45.4915 248.018 45.4915C249.547 45.4915 250.745 45.0093 251.612 44.0451C252.479 43.0808 252.911 41.4878 252.908 39.2661V25.1074H260.135V39.4883C260.135 43.3454 259.061 46.3223 256.912 48.419C254.762 50.5157 251.772 51.5664 247.939 51.571Z" fill="white"/>
<path d="M265.801 51.0527V25.1074H271.853L282.6 42.7491H279.411L289.853 25.1074H295.895L295.97 51.0503H289.223L289.149 35.3735H290.307L282.487 48.4931H279.224L271.181 35.3735H272.591V51.0503L265.801 51.0527Z" fill="white"/>
<path d="M301.861 51.0527V25.1074H315.129C318.539 25.1074 321.084 25.7315 322.766 26.9797C324.448 28.2278 325.288 29.8648 325.286 31.8905C325.311 33.1399 324.941 34.3653 324.229 35.392C323.472 36.4352 322.448 37.2547 321.264 37.7641C319.991 38.3458 318.478 38.6358 316.724 38.6343L317.466 36.8569C319.099 36.822 320.723 37.1049 322.248 37.6901C323.512 38.1739 324.612 39.0099 325.416 40.0992C326.169 41.1499 326.545 42.4282 326.545 43.934C326.545 46.1834 325.637 47.9315 323.821 49.1781C322.005 50.4247 319.356 51.0488 315.872 51.0503L301.861 51.0527ZM309.126 45.753H315.277C316.536 45.753 317.493 45.537 318.149 45.105C318.805 44.673 319.132 44.0119 319.13 43.1217C319.13 42.233 318.803 41.5719 318.149 41.1383C317.495 40.7048 316.538 40.4888 315.277 40.4903H308.605V35.4128H314.159C315.394 35.4128 316.319 35.203 316.936 34.7834C317.241 34.575 317.486 34.2913 317.648 33.9599C317.811 33.6286 317.884 33.2609 317.862 32.8926C317.862 32.0533 317.554 31.4292 316.936 31.0204C316.319 30.6115 315.394 30.4079 314.159 30.4094H309.121L309.126 45.753Z" fill="white"/>
<path d="M338.331 45.3827H351.895V51.0527H331.066V25.1074H351.413V30.7774H338.331V45.3827ZM337.81 35.1536H349.844V40.6385H337.81V35.1536Z" fill="white"/>
<path d="M356.674 51.0527V25.1074H368.534C370.907 25.1074 372.952 25.4931 374.667 26.2646C376.293 26.9535 377.68 28.1072 378.652 29.5809C379.589 31.025 380.058 32.736 380.059 34.7139C380.059 36.6641 379.59 38.3504 378.652 39.7729C377.672 41.2268 376.286 42.3607 374.667 43.0337C372.95 43.7882 370.906 44.1646 368.534 44.1631H360.752L364.012 41.0759V51.0457L356.674 51.0527ZM364.012 41.8627L360.752 38.4885H368.09C369.622 38.4885 370.765 38.1553 371.518 37.4887C372.27 36.8222 372.648 35.8965 372.649 34.7116C372.649 33.5005 372.272 32.5617 371.518 31.8952C370.763 31.2287 369.621 30.8946 368.09 30.8931H360.752L364.012 27.5212V41.8627ZM372.723 51.0527L366.276 41.6012H374.096L380.576 51.0527H372.723Z" fill="white"/>
<path d="M405.407 51.569C403.337 51.5757 401.275 51.308 399.274 50.7729C397.31 50.2407 395.71 49.5549 394.475 48.7156L396.884 43.3048C398.139 44.0892 399.491 44.7061 400.906 45.14C402.372 45.6131 403.903 45.8567 405.444 45.8621C406.269 45.885 407.092 45.7915 407.89 45.5844C408.399 45.4606 408.866 45.2052 409.244 44.8438C409.523 44.5482 409.676 44.1555 409.67 43.7491C409.673 43.4631 409.599 43.1817 409.455 42.9342C409.312 42.6866 409.105 42.4822 408.855 42.3421C408.2 41.9488 407.487 41.6607 406.743 41.4881C405.877 41.2659 404.92 41.0438 403.871 40.8216C402.806 40.5954 401.754 40.3111 400.721 39.9699C399.71 39.6419 398.745 39.187 397.849 38.6161C396.984 38.0621 396.261 37.3141 395.736 36.4314C395.193 35.5289 394.921 34.3856 394.919 33.0017C394.904 31.4962 395.351 30.0223 396.199 28.7782C397.05 27.5161 398.329 26.5025 400.033 25.7372C401.738 24.972 403.864 24.5863 406.409 24.5801C408.1 24.5788 409.785 24.7713 411.431 25.154C412.972 25.4971 414.454 26.0656 415.828 26.8411L413.57 32.2889C412.407 31.6515 411.175 31.1476 409.899 30.7869C408.754 30.4628 407.57 30.2946 406.379 30.2871C405.552 30.2622 404.727 30.3685 403.933 30.6018C403.417 30.7465 402.954 31.0365 402.598 31.4373C402.33 31.7735 402.186 32.1921 402.19 32.6222C402.189 32.8988 402.263 33.1707 402.403 33.4091C402.544 33.6474 402.746 33.8433 402.989 33.976C403.644 34.3585 404.357 34.6335 405.099 34.7906C405.976 35.002 406.939 35.218 407.99 35.4386C409.041 35.6592 410.091 35.937 411.142 36.2718C412.154 36.5886 413.12 37.0376 414.014 37.6071C414.872 38.1607 415.586 38.9103 416.097 39.7941C416.629 40.6966 416.895 41.8268 416.895 43.1845C416.901 44.6706 416.454 46.1233 415.615 47.3501C414.764 48.623 413.492 49.642 411.799 50.4073C410.107 51.1725 407.976 51.5598 405.407 51.569Z" fill="white"/>
<path d="M428.311 51.0527H420.973V25.1074H428.311V51.0527ZM438.836 40.9347H427.793V34.8574H438.836V40.9347ZM438.318 25.1074H445.654V51.0503H438.318V25.1074Z" fill="white"/>
<path d="M464.631 51.5676C462.67 51.588 460.723 51.2491 458.884 50.5678C457.187 49.9355 455.631 48.9718 454.309 47.7328C453.022 46.5255 451.995 45.0688 451.289 43.4514C450.579 41.7489 450.213 39.9225 450.213 38.0777C450.213 36.233 450.579 34.4065 451.289 32.704C451.995 31.0866 453.022 29.6299 454.309 28.4226C455.632 27.1844 457.187 26.2209 458.884 25.5876C462.605 24.2546 466.673 24.2546 470.393 25.5876C472.079 26.2218 473.622 27.1856 474.932 28.4226C476.211 29.6373 477.238 31.0921 477.954 32.704C479.065 35.2167 479.37 38.0115 478.829 40.7048C478.288 43.3982 476.926 45.858 474.932 47.7467C473.619 48.9743 472.077 49.9307 470.393 50.5609C468.551 51.2475 466.597 51.5888 464.631 51.5676ZM464.631 45.4903C465.576 45.4977 466.514 45.3216 467.392 44.9719C468.231 44.6335 468.988 44.1217 469.616 43.47C470.26 42.791 470.763 41.991 471.097 41.1164C471.813 39.1475 471.813 36.9895 471.097 35.0206C470.76 34.1529 470.257 33.3596 469.616 32.6855C468.988 32.0337 468.231 31.5219 467.392 31.1835C465.616 30.4924 463.646 30.4924 461.87 31.1835C461.03 31.5208 460.272 32.0328 459.646 32.6855C459.003 33.3589 458.499 34.1523 458.162 35.0206C457.447 36.9895 457.447 39.1475 458.162 41.1164C458.496 41.9916 459 42.7917 459.646 43.47C460.272 44.1227 461.03 44.6347 461.87 44.9719C462.748 45.3223 463.686 45.4984 464.631 45.4903Z" fill="white"/>
<path d="M483.607 51.0527V25.1074H495.466C497.839 25.1074 499.883 25.4931 501.599 26.2646C503.227 26.9507 504.617 28.1029 505.593 29.5763C506.531 31.0204 507 32.7314 507 34.7093C507 36.6595 506.531 38.352 505.593 39.7868C504.613 41.254 503.229 42.4058 501.608 43.1031C499.891 43.8746 497.846 44.2603 495.475 44.2603H487.681L490.941 41.0759V51.0457L483.607 51.0527ZM490.944 41.8627L487.683 38.4885H495.021C496.553 38.4885 497.696 38.1553 498.449 37.4887C499.202 36.8222 499.579 35.8965 499.58 34.7116C499.58 33.5005 499.203 32.5617 498.449 31.8952C497.694 31.2287 496.551 30.8946 495.019 30.8931H487.681L490.941 27.5212L490.944 41.8627Z" fill="white"/>
<path d="M146.141 75.9363L152.204 62.5645H154.095L160.17 75.9363H158.163L152.759 63.6336H153.523L148.108 75.9363H146.141ZM148.719 72.5945L149.235 71.0647H156.761L157.314 72.5945H148.719Z" fill="white"/>
<path d="M162.531 75.9352V62.5634H167.745C168.776 62.5346 169.801 62.7239 170.754 63.1188C171.537 63.4488 172.203 64.0079 172.663 64.7226C173.121 65.4759 173.35 66.3457 173.323 67.2266C173.348 68.1049 173.115 68.9713 172.654 69.7191C172.189 70.4305 171.525 70.9891 170.745 71.3252C169.793 71.7249 168.767 71.9166 167.736 71.8876H163.57L164.429 70.9896V75.9375L162.531 75.9352ZM164.441 71.1794L163.582 70.2352H167.687C168.912 70.2352 169.838 69.9744 170.465 69.453C171.091 68.9315 171.407 68.1894 171.413 67.2266C171.413 66.2716 171.098 65.5334 170.467 65.0119C169.836 64.4904 168.91 64.2289 167.69 64.2274H163.582L164.441 63.2739V71.1794Z" fill="white"/>
<path d="M176.504 75.9363V62.5645H178.413V75.9363H176.504ZM178.184 72.7079L178.089 70.3774L185.673 62.5645H187.851L181.986 68.7528L180.915 69.9377L178.184 72.7079ZM185.992 75.9363L180.51 69.5558L181.79 68.1418L188.226 75.9363H185.992Z" fill="white"/>
<path d="M188.074 75.9343L194.128 62.5625H196.019L202.094 75.9343H200.088L194.684 63.6317H195.447L190.041 75.9343H188.074ZM190.652 72.5925L191.168 71.0628H198.694L199.247 72.5925H190.652Z" fill="white"/>
<path d="M209.977 75.9343V62.5625H211.543L220.386 73.546H219.565V62.5625H221.476V75.9343H219.909L211.064 64.9508H211.886V75.9343H209.977Z" fill="white"/>
<path d="M231.408 76.0871C229.652 76.0871 228.27 75.5841 227.263 74.5782C226.255 73.5722 225.752 72.1011 225.754 70.1649V62.5625H227.663V70.0885C227.663 71.5789 227.991 72.6681 228.647 73.3562C229.302 74.0443 230.228 74.3876 231.424 74.3861C232.633 74.3861 233.566 74.0428 234.222 73.3562C234.878 72.6697 235.206 71.5804 235.208 70.0885V62.5625H237.059V70.1649C237.059 72.1027 236.559 73.5738 235.559 74.5782C234.56 75.5826 233.176 76.0855 231.408 76.0871Z" fill="white"/>
<path d="M241.359 75.9343V62.5625H242.922L248.92 72.6689H248.08L254 62.5625H255.567L255.585 75.9343H253.752L253.734 65.4484H254.173L248.899 74.3097H248.022L242.699 65.4484H243.178V75.9343H241.359Z" fill="white"/>
<path d="M259.986 75.9343V62.5625H265.985C267.528 62.5625 268.712 62.8711 269.537 63.4882C269.936 63.7752 270.258 64.1562 270.475 64.5974C270.691 65.0387 270.795 65.5265 270.778 66.0177C270.8 66.6639 270.631 67.3022 270.292 67.8529C269.968 68.3471 269.515 68.7432 268.982 68.9985C268.429 69.2665 267.821 69.4035 267.207 69.3988L267.549 68.8249C268.246 68.8111 268.936 68.9485 269.574 69.2276C270.138 69.4801 270.62 69.8868 270.963 70.4009C271.322 70.9755 271.502 71.6444 271.479 72.3218C271.502 72.8381 271.396 73.3521 271.171 73.8172C270.945 74.2823 270.607 74.6839 270.188 74.9855C269.33 75.6165 268.054 75.932 266.36 75.932L259.986 75.9343ZM261.896 74.3861H266.293C267.348 74.3861 268.156 74.2079 268.718 73.8515C269.28 73.4951 269.56 72.935 269.558 72.1713C269.558 71.3999 269.278 70.8329 268.718 70.4703C268.158 70.1078 267.351 69.9296 266.297 69.9357H261.731V68.3829H265.818C266.786 68.3829 267.537 68.2047 268.072 67.8483C268.321 67.6614 268.524 67.419 268.663 67.1405C268.802 66.8619 268.875 66.5548 268.875 66.2433C268.875 65.9319 268.802 65.6248 268.663 65.3462C268.524 65.0676 268.321 64.8253 268.072 64.6384C267.537 64.282 266.786 64.1038 265.818 64.1038H261.9L261.896 74.3861Z" fill="white"/>
<path d="M276.735 74.2727H284.53V75.9343H274.826V62.5625H284.261V64.2172H276.735V74.2727ZM276.564 68.332H283.44V69.9519H276.564V68.332Z" fill="white"/>
<path d="M288.006 75.9353V62.5635H293.222C294.253 62.5341 295.278 62.7234 296.231 63.1189C297.014 63.4496 297.681 64.0084 298.142 64.7227C298.602 65.4748 298.834 66.3435 298.811 67.2244C298.835 68.1026 298.602 68.9686 298.142 69.7169C297.677 70.4269 297.012 70.9827 296.231 71.3138C295.278 71.7073 294.253 71.8958 293.222 71.8669H289.057L289.917 70.9874V75.9353H288.006ZM289.917 71.1795L289.057 70.2422H293.164C294.386 70.2422 295.312 69.9784 295.941 69.4508C296.571 68.9231 296.886 68.181 296.886 67.2244C296.886 66.2694 296.571 65.5312 295.941 65.0097C295.312 64.4882 294.386 64.2267 293.164 64.2252H289.057L289.917 63.2717V71.1795ZM296.946 75.9353L293.546 71.0754H295.59L299.029 75.9353H296.946Z" fill="white"/>
<path d="M301.283 78.7648L302.237 74.9046L302.487 76.0131C302.145 76.0224 301.813 75.8988 301.561 75.6683C301.437 75.5494 301.339 75.4053 301.275 75.2456C301.211 75.086 301.181 74.9145 301.189 74.7426C301.183 74.5721 301.212 74.4023 301.274 74.2434C301.336 74.0846 301.43 73.94 301.55 73.8185C301.669 73.6971 301.813 73.6013 301.97 73.5369C302.128 73.4726 302.298 73.4411 302.468 73.4443C302.636 73.4375 302.803 73.4674 302.958 73.5317C303.113 73.5961 303.253 73.6934 303.366 73.8169C303.598 74.0686 303.721 74.4009 303.711 74.7426C303.711 74.8673 303.702 74.9919 303.683 75.1152C303.663 75.2355 303.63 75.3767 303.586 75.5364C303.542 75.6961 303.475 75.8882 303.387 76.1173L302.489 78.7741L301.283 78.7648Z" fill="white"/>
<path d="M310.5 75.9343L316.556 62.5625H318.447L324.52 75.9343H322.516L317.11 63.6317H317.873L312.467 75.9343H310.5ZM313.078 72.5925L313.594 71.0628H321.12L321.676 72.5925H313.078Z" fill="white"/>
<path d="M326.879 75.9352V62.5634H332.093C333.124 62.5346 334.149 62.7239 335.101 63.1188C335.885 63.4495 336.55 64.0083 337.011 64.7226C337.468 65.4759 337.697 66.3457 337.67 67.2266C337.695 68.1049 337.463 68.9713 337.002 69.7191C336.536 70.4299 335.872 70.9884 335.092 71.3252C334.141 71.7249 333.115 71.9166 332.084 71.8876H327.918L328.777 70.9896V75.9375L326.879 75.9352ZM328.788 71.1794L327.93 70.2236H332.035C333.257 70.2236 334.183 69.9629 334.812 69.4414C335.442 68.9199 335.757 68.1809 335.759 67.2243C335.759 66.2693 335.443 65.5311 334.812 65.0096C334.181 64.4881 333.255 64.2266 332.035 64.225H327.93L328.788 63.2716V71.1794Z" fill="white"/>
<path d="M340.863 75.9363V62.5645H342.773V75.9363H340.863ZM342.543 72.7079L342.449 70.3774L350.032 62.5645H352.208L346.346 68.7528L345.274 69.9377L342.543 72.7079ZM350.338 75.9363L344.855 69.5558L346.142 68.1534L352.578 75.9478L350.338 75.9363Z" fill="white"/>
<path d="M354.979 75.9363V62.5645H356.89V75.9363H354.979Z" fill="white"/>
<path d="M366.803 75.9352V62.5634H372.017C373.048 62.5346 374.073 62.7239 375.025 63.1188C375.809 63.4488 376.474 64.0079 376.935 64.7226C377.395 65.4742 377.627 66.3433 377.603 67.2243C377.628 68.1026 377.396 68.9689 376.935 69.7168C376.47 70.4282 375.806 70.9868 375.025 71.3229C374.074 71.7226 373.048 71.9143 372.017 71.8853H367.851L368.71 70.9873V75.9352H366.803ZM368.712 71.1794L367.853 70.2236H371.959C373.181 70.2236 374.107 69.9629 374.736 69.4414C375.366 68.9199 375.681 68.1809 375.683 67.2243C375.683 66.2693 375.367 65.5311 374.736 65.0096C374.105 64.4881 373.179 64.2266 371.959 64.225H367.853L368.712 63.2716V71.1794Z" fill="white"/>
<path d="M382.706 74.2727H390.5V75.9343H380.785V62.5625H390.22V64.2172H382.706V74.2727ZM382.535 68.332H389.41V69.9519H382.535V68.332Z" fill="white"/>
<path d="M395.874 75.9343H393.965V62.5625H395.874V75.9343ZM403.726 69.9751H395.684V68.3135H403.726V69.9751ZM403.553 62.5694H405.464V75.9413H403.553V62.5694Z" fill="white"/>
<path d="M415.837 76.0875C414.875 76.0972 413.92 75.9253 413.023 75.5807C412.188 75.2602 411.428 74.7728 410.789 74.1481C410.158 73.5299 409.654 72.793 409.308 71.9797C408.595 70.2289 408.595 68.2688 409.308 66.518C409.655 65.7028 410.162 64.9654 410.798 64.3495C411.443 63.7264 412.207 63.2393 413.043 62.917C414.874 62.2349 416.89 62.2415 418.716 62.9355C419.569 63.2741 420.331 63.8074 420.942 64.493L419.699 65.6964C419.217 65.1809 418.631 64.7738 417.98 64.5023C417.331 64.2388 416.636 64.1058 415.936 64.1112C415.224 64.1056 414.517 64.2352 413.853 64.493C413.23 64.7342 412.662 65.0977 412.182 65.5622C411.707 66.0252 411.333 66.5815 411.083 67.1961C410.562 68.5149 410.562 69.9828 411.083 71.3016C411.333 71.9162 411.707 72.4725 412.182 72.9355C412.662 73.4 413.23 73.7635 413.853 74.0047C414.517 74.2625 415.224 74.392 415.936 74.3865C416.636 74.3918 417.331 74.2589 417.98 73.9954C418.635 73.7227 419.222 73.3086 419.699 72.7827L420.942 73.9861C420.331 74.673 419.569 75.2093 418.716 75.5529C417.8 75.9177 416.822 76.0994 415.837 76.0875Z" fill="white"/>
<path d="M425.96 75.9343H424.051V62.5625H425.96V75.9343ZM433.812 69.9751H425.77V68.3135H433.812V69.9751ZM433.639 62.5694H435.55V75.9413H433.639V62.5694Z" fill="white"/>
<path d="M437.916 75.9363L443.97 62.5645H445.861L451.936 75.9363H449.932L444.526 63.6336H445.289L439.883 75.9363H437.916ZM440.494 72.5945L441.01 71.0647H448.536L449.089 72.5945H440.494Z" fill="white"/>
<path d="M452.529 75.9363L458.583 62.5645H460.465L466.54 75.9363H464.536L459.13 63.6336H459.893L454.487 75.9363H452.529ZM455.107 72.5945L455.623 71.0647H463.149L463.703 72.5945H455.107Z" fill="white"/>
<path d="M468.92 75.9363V62.5645H470.484L479.329 73.548H478.517V62.5645H480.429V75.9363H478.862L470.017 64.9528H470.838V75.9363H468.92Z" fill="white"/>
</svg>
