<svg width="288" height="133" viewBox="0 0 288 133" fill="none" xmlns="http://www.w3.org/2000/svg">
<path d="M10.4696 108.85C8.8302 108.859 7.21765 108.434 5.79542 107.618C4.37319 106.803 3.19184 105.626 2.37112 104.207C1.5504 102.788 1.11949 101.177 1.12208 99.5373C1.12467 97.8979 1.56067 96.2883 2.38588 94.8717C3.21108 93.4551 4.39615 92.2819 5.82095 91.471C7.24576 90.6601 8.85963 90.2403 10.499 90.2542C12.1383 90.2681 13.7448 90.7152 15.1557 91.5502C16.5665 92.3852 17.7315 93.5783 18.5326 95.0087C16.9667 95.8291 16.8388 95.8908 15.0921 96.773C14.6202 95.9663 13.945 95.2974 13.1339 94.833C12.3228 94.3687 11.4042 94.1251 10.4696 94.1265C9.05225 94.1668 7.70651 94.7582 6.71827 95.775C5.73003 96.7918 5.17718 98.1538 5.17718 99.5717C5.17718 100.99 5.73003 102.352 6.71827 103.368C7.70651 104.385 9.05225 104.977 10.4696 105.017C11.4506 105.026 12.4152 104.765 13.2578 104.262C14.1004 103.76 14.7884 103.035 15.2465 102.167C17.0108 103.05 17.0461 103.169 18.687 103.932C17.8988 105.425 16.7157 106.674 15.2666 107.541C13.8176 108.408 12.1583 108.861 10.4696 108.85Z" fill="#0DAF4B"/>
<path d="M19.4365 108.802L27.7554 90.4883H31.8133L40.0087 108.802H36.0919L34.2922 104.744H25.0295L23.1019 108.802H19.4365ZM29.8373 93.9287L26.7497 101.017H32.8366L29.8593 93.9287H29.8373Z" fill="#0DAF4B"/>
<path d="M41.9102 90.4609H50.1805C54.7766 90.4609 56.5233 93.3633 56.5233 96.345C56.5233 99.3267 54.7589 102.225 50.1805 102.225H45.9417V108.801H41.9102V90.4609ZM45.9417 99.0929H49.0778C50.9259 99.0929 52.6064 98.6783 52.6064 96.345C52.6064 94.0117 50.9127 93.597 49.0778 93.597H45.9417V99.0929Z" fill="#0DAF4B"/>
<path d="M59.0283 90.4609H63.0598V108.801H59.0283V90.4609Z" fill="#0DAF4B"/>
<path d="M71.088 93.8538H65.2568V90.4883H80.8977V93.8802H75.1195V108.802H71.088V93.8538Z" fill="#0DAF4B"/>
<path d="M81.4658 108.802L89.7891 90.4883H93.847L102.038 108.802H98.1344L96.3348 104.744H87.072L85.1489 108.802H81.4658ZM91.8666 93.9287L88.779 101.017H94.8615L91.8842 93.9287H91.8666Z" fill="#0DAF4B"/>
<path d="M103.578 108.676V90.3887H107.548V105.284H116.947V108.676H103.578Z" fill="#0DAF4B"/>
<path d="M138.075 102.031L143.213 108.836H138.282L133.66 102.22H131.679V108.836H127.621V90.4609H135.891C140.514 90.4609 142.287 93.3633 142.287 96.345C142.287 98.8327 140.964 101.351 137.92 102.017L138.075 102.031ZM131.679 93.6103V99.1282H134.815C136.738 99.1282 138.344 98.6871 138.344 96.3582C138.344 94.0293 136.747 93.6103 134.815 93.6103H131.679Z" fill="#0DAF4B"/>
<path d="M149.61 105.386H159.962V108.777H145.706V90.3887H159.089V93.7762H149.61V97.9136H157.99V101.482H149.61V105.386Z" fill="#0DAF4B"/>
<path d="M165.612 103.355C166.022 105.772 168.179 106.103 169.67 106.103C171.081 106.103 173.238 105.693 173.238 103.818C173.238 99.9145 162.326 102.433 162.326 95.5742C162.326 91.7985 165.854 90.0254 169.18 90.0254C173.009 90.0254 176.528 91.6971 176.528 95.9315L172.625 95.3669C172.135 93.2365 170.261 93.1615 169.004 93.1615C167.747 93.1615 166.212 93.6996 166.212 95.239C166.212 96.602 167.094 96.9107 171.681 98.0134C173.044 98.3486 177.124 99.1955 177.124 103.355C177.124 106.72 174.508 109.239 169.498 109.239C165.387 109.239 161.69 107.232 161.69 102.715L165.612 103.355Z" fill="#0DAF4B"/>
<path d="M187.701 109.031C185.824 109.029 183.989 108.471 182.429 107.426C180.868 106.382 179.653 104.898 178.937 103.162C178.22 101.427 178.034 99.518 178.402 97.6769C178.771 95.8358 179.677 94.1453 181.006 92.8193C182.335 91.4932 184.028 90.5911 185.869 90.227C187.711 89.863 189.62 90.0534 191.354 90.7741C193.087 91.4948 194.568 92.7135 195.609 94.276C196.65 95.8385 197.205 97.6747 197.202 99.5522C197.203 100.799 196.957 102.034 196.48 103.185C196.002 104.337 195.302 105.383 194.419 106.264C193.537 107.145 192.489 107.842 191.336 108.317C190.183 108.792 188.948 109.035 187.701 109.031ZM182.09 99.5522C182.1 100.652 182.435 101.724 183.052 102.634C183.669 103.544 184.542 104.251 185.561 104.666C186.579 105.082 187.697 105.186 188.775 104.968C189.853 104.749 190.841 104.216 191.617 103.437C192.393 102.657 192.921 101.666 193.135 100.587C193.348 99.5084 193.238 98.3906 192.818 97.3743C192.398 96.358 191.687 95.4886 190.774 94.8754C189.861 94.2623 188.788 93.9328 187.688 93.9284C186.203 93.9412 184.782 94.5386 183.735 95.5913C182.687 96.6439 182.096 98.067 182.09 99.5522Z" fill="#0DAF4B"/>
<path d="M215.106 101.863C215.106 106.821 212.177 109.238 207.272 109.238C202.367 109.238 199.465 106.874 199.465 101.863V90.4609H203.496V101.863C203.496 103.87 204.012 105.833 207.272 105.833C210.148 105.833 211.074 104.602 211.074 101.863V90.4609H215.106V101.863Z" fill="#0DAF4B"/>
<path d="M228.978 102.031L234.112 108.836H229.181L224.558 102.22H222.582V108.836H218.524V90.4609H226.795C231.417 90.4609 233.19 93.3633 233.19 96.345C233.19 98.8327 231.867 101.351 228.824 102.017L228.978 102.031ZM222.582 93.6103V99.1282H225.714C227.642 99.1282 229.243 98.6871 229.243 96.3582C229.243 94.0293 227.65 93.6103 225.714 93.6103H222.582Z" fill="#0DAF4B"/>
<path d="M245.39 108.85C243.751 108.859 242.139 108.434 240.716 107.618C239.294 106.803 238.113 105.626 237.292 104.207C236.471 102.788 236.04 101.177 236.043 99.5373C236.046 97.8979 236.482 96.2883 237.307 94.8717C238.132 93.4551 239.317 92.2819 240.742 91.471C242.167 90.6601 243.781 90.2403 245.42 90.2542C247.059 90.2681 248.666 90.7152 250.077 91.5502C251.487 92.3852 252.652 93.5783 253.453 95.0087C251.888 95.8291 251.76 95.8908 250.013 96.773C249.541 95.9663 248.866 95.2974 248.055 94.833C247.244 94.3687 246.325 94.1251 245.39 94.1265C243.973 94.1668 242.627 94.7582 241.639 95.775C240.651 96.7918 240.098 98.1538 240.098 99.5717C240.098 100.99 240.651 102.352 241.639 103.368C242.627 104.385 243.973 104.977 245.39 105.017C246.371 105.025 247.336 104.764 248.178 104.262C249.021 103.759 249.709 103.035 250.167 102.167C251.932 103.05 251.967 103.169 253.608 103.932C252.82 105.425 251.637 106.674 250.188 107.541C248.738 108.408 247.079 108.861 245.39 108.85Z" fill="#0DAF4B"/>
<path d="M259.545 105.386H269.893V108.777H255.642V90.3887H269.02V93.7762H259.545V97.9136H267.926V101.482H259.545V105.386Z" fill="#0DAF4B"/>
<path d="M275.547 103.355C275.957 105.772 278.114 106.103 279.605 106.103C281.017 106.103 283.173 105.693 283.173 103.818C283.173 99.9145 272.257 102.433 272.257 95.5742C272.257 91.7985 275.785 90.0254 279.115 90.0254C282.944 90.0254 286.46 91.6971 286.46 95.9315L282.556 95.3669C282.071 93.2365 280.196 93.1615 278.935 93.1615C277.673 93.1615 276.16 93.6996 276.16 95.239C276.16 96.602 277.042 96.9107 281.634 98.0134C282.993 98.3486 287.077 99.1955 287.077 103.355C287.077 106.72 284.457 109.239 279.451 109.239C275.34 109.239 271.644 107.232 271.644 102.715L275.547 103.355Z" fill="#0DAF4B"/>
<path d="M67.5762 60.6312L86.8207 18.2871H96.2069L115.174 60.6312H106.127L101.967 51.2449H80.5264L76.0714 60.6312H67.5762ZM91.6329 26.2266L84.505 42.6217H98.5844L91.6946 26.2398L91.6329 26.2266Z" fill="white"/>
<path d="M119.554 18.2246H128.878V60.6348H119.554V18.2246Z" fill="white"/>
<path d="M161.254 44.9499L173.133 60.6877H161.726L151.039 45.4218H146.465V60.6877H137.101V18.2246H156.226C166.918 18.2246 171.016 24.9379 171.016 31.8276C171.016 37.5882 167.985 43.4105 160.919 44.9543L161.254 44.9499ZM146.465 25.4672V38.2586H153.712C158.167 38.2586 161.845 37.2486 161.845 31.8453C161.845 26.3185 158.167 25.4893 153.712 25.4893L146.465 25.4672Z" fill="white"/>
<path d="M198.852 61.1662C194.51 61.1609 190.268 59.8685 186.662 57.4522C183.055 55.0359 180.246 51.6044 178.59 47.5916C176.934 43.5788 176.505 39.165 177.357 34.9084C178.209 30.6517 180.305 26.7434 183.379 23.6778C186.452 20.6121 190.366 18.5268 194.625 17.6856C198.884 16.8443 203.296 17.2849 207.305 18.9517C211.313 20.6184 214.737 23.4364 217.144 27.0492C219.551 30.6621 220.832 34.9076 220.826 39.2487C220.828 42.1323 220.26 44.9878 219.156 47.6515C218.052 50.3152 216.432 52.7346 214.39 54.7709C212.349 56.8072 209.925 58.4204 207.259 59.5179C204.592 60.6153 201.735 61.1755 198.852 61.1662ZM185.906 39.2487C185.906 40.9413 186.239 42.6172 186.887 44.1809C187.535 45.7446 188.484 47.1654 189.681 48.3622C190.877 49.5591 192.298 50.5084 193.862 51.1561C195.426 51.8038 197.102 52.1372 198.794 52.1372C200.487 52.1372 202.163 51.8038 203.726 51.1561C205.29 50.5084 206.711 49.5591 207.908 48.3622C209.105 47.1654 210.054 45.7446 210.702 44.1809C211.349 42.6172 211.683 40.9413 211.683 39.2487C211.683 32.1914 205.922 26.2412 198.856 26.2412C195.424 26.2826 192.146 27.6682 189.724 30.1003C187.303 32.5323 185.932 35.8169 185.906 39.2487Z" fill="white"/>
<path d="M232.538 48.0388C233.491 53.6229 238.479 54.3948 241.924 54.3948C245.188 54.3948 250.181 53.4421 250.181 49.1018C250.181 40.0728 224.933 45.8951 224.933 30.0382C224.933 21.3047 233.133 17.207 240.812 17.207C249.661 17.207 257.799 21.0665 257.799 30.8806L248.77 29.5574C247.645 24.6261 243.309 24.4496 240.389 24.4496C237.469 24.4496 233.962 25.7244 233.962 29.253C233.962 32.398 235.983 33.1125 246.617 35.6664C249.762 36.4383 259.21 38.4011 259.21 48.0167C259.21 55.7975 253.15 61.6198 241.567 61.6198C232.061 61.6198 223.509 56.984 223.509 46.5303L232.538 48.0388Z" fill="white"/>
<path d="M36.687 32.6277V18.1602H27.1816V60.6277H36.687V56.4109V42.2169V32.6277Z" fill="#0DAF4B"/>
<path d="M48.8614 34.1891L60.6957 18.1602H49.1128L36.6875 34.1891V48.3876L42.2099 40.726L67.5766 79.3782L74.1355 70.3889L48.8614 34.1891Z" fill="#0DAF4B"/>
<path d="M67.5765 79.3774H287.413V0H0.655273V79.3774H60.4089L55.4114 70.3882H8.34777V8.12476H279.513V70.3882H74.1354" fill="#0DAF4B"/>
<path d="M36.9301 124.338H1.69629V126.239H36.9301V124.338Z" fill="white"/>
<path d="M287.656 124.338H252.422V126.239H287.656V124.338Z" fill="white"/>
<path d="M56.6285 118.229H57.6166L56.2536 127.932H61.1937L61.0747 128.815H55.1465L56.6285 118.229Z" fill="white"/>
<path d="M70.1565 127.523C69.7729 128.019 69.2708 128.41 68.6965 128.661C68.1449 128.892 67.5523 129.009 66.9542 129.005C66.4745 129.013 65.9983 128.922 65.556 128.736C65.1646 128.568 64.8196 128.307 64.5503 127.977C64.282 127.64 64.0935 127.246 63.999 126.826C63.8919 126.342 63.8784 125.842 63.9593 125.353C64.0847 124.364 64.553 123.451 65.2825 122.772C65.6328 122.447 66.0394 122.189 66.4823 122.009C66.9352 121.822 67.4212 121.727 67.9114 121.731C68.3794 121.72 68.844 121.815 69.2699 122.009C69.6311 122.177 69.9471 122.428 70.1918 122.741C70.4262 123.049 70.5903 123.404 70.6726 123.782C70.7571 124.171 70.7691 124.572 70.7078 124.965L70.6196 125.591H64.8282C64.7953 125.832 64.7953 126.077 64.8282 126.319C64.8661 126.622 64.9652 126.915 65.1193 127.179C65.2909 127.471 65.5299 127.717 65.8162 127.898C66.1946 128.116 66.6282 128.22 67.0645 128.198C67.5451 128.193 68.0185 128.08 68.4495 127.867C68.8882 127.669 69.2715 127.366 69.5654 126.985L70.1565 127.523ZM69.8433 124.784C69.8856 124.489 69.8646 124.188 69.7816 123.902C69.7051 123.637 69.5676 123.394 69.3802 123.191C69.1837 122.984 68.9464 122.818 68.6833 122.706C68.4044 122.587 68.1043 122.526 67.8011 122.525C67.3603 122.514 66.9241 122.617 66.5352 122.825C66.2045 123.003 65.9063 123.236 65.653 123.513C65.4468 123.74 65.2731 123.993 65.137 124.268C65.0532 124.426 64.9909 124.595 64.9517 124.77L69.8433 124.784Z" fill="white"/>
<path d="M73.6719 121.912H74.6908L76.1728 127.854L79.2604 121.912H80.1735L76.4904 128.824H75.5641L73.6719 121.912Z" fill="white"/>
<path d="M88.3997 127.523C88.016 128.019 87.514 128.41 86.9397 128.661C86.3881 128.892 85.7954 129.009 85.1974 129.005C84.7177 129.013 84.2415 128.922 83.7992 128.736C83.4078 128.568 83.0628 128.307 82.7935 127.977C82.5234 127.641 82.3347 127.247 82.2421 126.826C82.135 126.342 82.1216 125.842 82.2024 125.353C82.3279 124.364 82.7962 123.451 83.5257 122.772C83.876 122.447 84.2825 122.189 84.7254 122.009C85.1783 121.822 85.6644 121.727 86.1545 121.731C86.6226 121.72 87.0872 121.815 87.5131 122.009C87.8742 122.177 88.1903 122.428 88.435 122.741C88.6694 123.049 88.8335 123.404 88.9157 123.782C89.0003 124.171 89.0122 124.572 88.951 124.965L88.8628 125.591H83.0714C83.0385 125.832 83.0385 126.077 83.0714 126.319C83.1093 126.622 83.2083 126.915 83.3625 127.179C83.5341 127.471 83.7731 127.717 84.0594 127.898C84.4378 128.116 84.8713 128.22 85.3077 128.198C85.7883 128.193 86.2617 128.08 86.6927 127.867C87.1314 127.669 87.5146 127.366 87.8086 126.985L88.3997 127.523ZM88.0865 124.784C88.1288 124.489 88.1077 124.188 88.0247 123.902C87.9482 123.637 87.8108 123.394 87.6233 123.191C87.4268 122.984 87.1896 122.818 86.9264 122.706C86.6408 122.584 86.3329 122.523 86.0222 122.525C85.5814 122.514 85.1452 122.617 84.7563 122.825C84.4256 123.003 84.1274 123.236 83.8741 123.513C83.6679 123.74 83.4942 123.993 83.3581 124.268C83.2743 124.426 83.212 124.595 83.1728 124.77L88.0865 124.784Z" fill="white"/>
<path d="M92.6212 123.857C92.6212 123.725 92.6609 123.57 92.6786 123.385C92.6962 123.2 92.7183 123.015 92.7315 122.825C92.7447 122.635 92.7624 122.454 92.78 122.291C92.7976 122.128 92.8065 122 92.8153 121.912H93.6975C93.6754 122.168 93.6489 122.419 93.6225 122.657C93.597 122.81 93.5866 122.965 93.5916 123.12C93.8674 122.726 94.2145 122.386 94.6149 122.119C95.0232 121.856 95.5009 121.721 95.9867 121.731C96.1583 121.734 96.3289 121.759 96.4939 121.806L96.269 122.688C96.1645 122.649 96.0541 122.628 95.9426 122.626C95.588 122.621 95.2357 122.685 94.906 122.816C94.6159 122.936 94.3521 123.111 94.1297 123.332C93.9087 123.555 93.7307 123.817 93.6048 124.104C93.4724 124.406 93.3819 124.726 93.3358 125.052L92.8109 128.824H91.9287L92.6212 123.857Z" fill="white"/>
<path d="M104.191 125.921C104.138 126.261 104.099 126.565 104.063 126.834C104.028 127.103 104.002 127.35 103.98 127.58C103.958 127.809 103.944 128.021 103.936 128.224C103.927 128.427 103.936 128.625 103.936 128.824H103.097C103.084 128.644 103.084 128.465 103.097 128.285C103.106 128.09 103.125 127.896 103.155 127.703H103.124C102.843 128.117 102.466 128.456 102.026 128.691C101.28 129.024 100.443 129.094 99.6526 128.89C99.3869 128.821 99.1378 128.7 98.9204 128.532C98.7086 128.367 98.5455 128.148 98.4484 127.897C98.3391 127.595 98.3103 127.27 98.3646 126.953C98.4082 126.479 98.6157 126.034 98.9513 125.696C99.2645 125.39 99.6387 125.152 100.05 124.999C100.467 124.844 100.903 124.743 101.346 124.699C101.787 124.655 102.189 124.633 102.528 124.633H103.578L103.64 124.214C103.698 123.986 103.694 123.746 103.628 123.519C103.562 123.293 103.437 123.088 103.265 122.926C102.881 122.651 102.414 122.514 101.942 122.538C101.132 122.539 100.346 122.813 99.7099 123.314L99.2689 122.701C99.6591 122.377 100.108 122.131 100.592 121.978C101.056 121.821 101.541 121.738 102.03 121.731C102.722 121.685 103.407 121.895 103.953 122.322C104.394 122.713 104.556 123.348 104.438 124.227L104.191 125.921ZM102.467 125.352C102.101 125.347 101.736 125.366 101.373 125.41C101.033 125.45 100.701 125.536 100.385 125.665C100.106 125.773 99.8512 125.935 99.6349 126.142C99.4305 126.342 99.3013 126.607 99.2689 126.892C99.2364 127.08 99.2578 127.275 99.3306 127.452C99.3954 127.611 99.5002 127.751 99.6349 127.858C99.7768 127.964 99.9366 128.045 100.107 128.096C100.287 128.15 100.474 128.178 100.663 128.18C101.076 128.191 101.487 128.119 101.871 127.968C102.178 127.844 102.456 127.658 102.687 127.421C102.9 127.201 103.068 126.942 103.181 126.658C103.295 126.382 103.373 126.093 103.415 125.798L103.472 125.335L102.467 125.352Z" fill="white"/>
<path d="M114.68 128.372C114.602 129.106 114.372 129.815 114.005 130.454C113.723 130.934 113.346 131.352 112.898 131.681C112.516 131.96 112.08 132.159 111.618 132.263C111.228 132.357 110.829 132.408 110.428 132.413C109.768 132.422 109.115 132.293 108.509 132.033C107.968 131.821 107.505 131.447 107.186 130.962L107.988 130.304C108.221 130.738 108.588 131.084 109.034 131.292C109.499 131.504 110.005 131.611 110.516 131.606C110.917 131.616 111.318 131.555 111.698 131.425C112.005 131.319 112.292 131.161 112.545 130.957C112.768 130.772 112.963 130.555 113.123 130.313C113.265 130.092 113.382 129.855 113.471 129.607C113.554 129.391 113.617 129.169 113.661 128.941C113.7 128.734 113.731 128.562 113.749 128.434L113.886 127.477H113.855C113.538 127.892 113.13 128.23 112.664 128.465C112.163 128.71 111.611 128.832 111.054 128.822C110.574 128.828 110.097 128.733 109.656 128.544C109.248 128.372 108.883 128.112 108.588 127.781C108.296 127.455 108.078 127.07 107.949 126.652C107.813 126.207 107.78 125.736 107.852 125.276C107.921 124.789 108.088 124.321 108.341 123.9C108.597 123.468 108.925 123.083 109.312 122.762C109.695 122.442 110.127 122.184 110.591 121.999C111.059 121.811 111.559 121.715 112.064 121.716C112.591 121.699 113.113 121.822 113.577 122.074C113.975 122.302 114.294 122.647 114.49 123.062H114.521L114.684 121.897H115.566L114.68 128.372ZM114.238 125.285C114.288 124.927 114.264 124.562 114.168 124.213C114.091 123.889 113.94 123.587 113.727 123.331C113.504 123.087 113.232 122.893 112.928 122.762C112.605 122.614 112.252 122.54 111.896 122.546C111.52 122.544 111.146 122.618 110.798 122.762C110.448 122.903 110.123 123.102 109.836 123.349C109.551 123.599 109.31 123.898 109.126 124.231C108.938 124.561 108.817 124.925 108.769 125.303C108.719 125.661 108.742 126.025 108.835 126.374C108.922 126.699 109.081 127 109.298 127.257C109.516 127.505 109.784 127.704 110.083 127.843C110.41 127.989 110.763 128.062 111.12 128.059C111.497 128.058 111.869 127.985 112.218 127.843C112.567 127.702 112.891 127.503 113.175 127.257C113.463 127.007 113.703 126.708 113.886 126.374C114.076 126.035 114.199 125.662 114.247 125.276L114.238 125.285Z" fill="white"/>
<path d="M119.426 121.912H120.308L119.351 128.824H118.469L119.426 121.912ZM119.589 119.173C119.619 118.988 119.71 118.818 119.849 118.692C119.987 118.567 120.166 118.497 120.352 118.498C120.435 118.497 120.518 118.514 120.594 118.547C120.67 118.581 120.738 118.63 120.793 118.692C120.85 118.757 120.891 118.834 120.914 118.918C120.936 119.001 120.938 119.088 120.921 119.173C120.913 119.265 120.887 119.355 120.844 119.437C120.8 119.518 120.741 119.591 120.67 119.649C120.53 119.776 120.347 119.845 120.158 119.843C120.075 119.847 119.992 119.831 119.915 119.797C119.839 119.763 119.771 119.713 119.717 119.649C119.664 119.583 119.625 119.507 119.603 119.425C119.581 119.343 119.576 119.257 119.589 119.173Z" fill="white"/>
<path d="M124.093 123.856C124.115 123.723 124.132 123.569 124.155 123.384L124.207 122.823C124.207 122.634 124.234 122.453 124.252 122.29C124.269 122.126 124.278 121.999 124.287 121.91H125.169C125.147 122.166 125.125 122.418 125.094 122.656C125.069 122.809 125.058 122.964 125.063 123.119H125.107C125.366 122.713 125.721 122.377 126.139 122.14C126.367 122.012 126.608 121.912 126.858 121.84C127.121 121.765 127.393 121.728 127.666 121.729C128.109 121.709 128.55 121.795 128.954 121.981C129.25 122.129 129.497 122.361 129.664 122.647C129.823 122.94 129.913 123.266 129.928 123.6C129.946 123.969 129.931 124.34 129.884 124.707L129.315 128.822H128.433L129.002 124.751C129.041 124.481 129.055 124.208 129.046 123.935C129.042 123.689 128.986 123.448 128.883 123.225C128.787 123.019 128.634 122.844 128.442 122.722C128.183 122.585 127.892 122.521 127.599 122.537C127.273 122.536 126.948 122.594 126.642 122.709C126.33 122.824 126.044 123.003 125.804 123.234C125.54 123.487 125.323 123.786 125.165 124.116C124.98 124.511 124.856 124.932 124.799 125.364L124.309 128.822H123.427L124.093 123.856Z" fill="white"/>
<path d="M140.228 128.373C140.15 129.106 139.921 129.815 139.553 130.455C139.27 130.934 138.894 131.351 138.446 131.681C138.064 131.96 137.628 132.158 137.167 132.263C136.777 132.357 136.377 132.408 135.976 132.413C135.315 132.422 134.66 132.293 134.053 132.034C133.513 131.819 133.051 131.445 132.729 130.962L133.572 130.305C133.804 130.739 134.171 131.086 134.617 131.293C135.083 131.504 135.588 131.611 136.099 131.606C136.501 131.616 136.901 131.555 137.281 131.425C137.589 131.32 137.875 131.162 138.128 130.958C138.351 130.773 138.544 130.556 138.702 130.314C138.845 130.092 138.964 129.856 139.055 129.608C139.134 129.391 139.196 129.168 139.24 128.942C139.28 128.735 139.31 128.563 139.333 128.435L139.465 127.477H139.438C139.12 127.892 138.713 128.229 138.247 128.466C137.747 128.71 137.195 128.833 136.638 128.823C136.157 128.828 135.681 128.734 135.239 128.545C134.831 128.372 134.465 128.111 134.167 127.782C133.878 127.455 133.662 127.07 133.532 126.653C133.395 126.207 133.362 125.737 133.435 125.276C133.505 124.79 133.67 124.323 133.92 123.9C134.174 123.475 134.496 123.095 134.873 122.776C135.256 122.454 135.688 122.197 136.152 122.012C136.621 121.825 137.121 121.729 137.626 121.73C138.153 121.713 138.675 121.836 139.138 122.087C139.535 122.318 139.853 122.662 140.051 123.075H140.078L140.246 121.911H141.128L140.228 128.373ZM139.787 125.285C139.841 124.927 139.819 124.562 139.721 124.213C139.637 123.887 139.479 123.585 139.258 123.331C139.031 123.073 138.752 122.868 138.438 122.729C138.124 122.59 137.783 122.522 137.44 122.529C137.062 122.528 136.687 122.601 136.338 122.745C135.989 122.887 135.666 123.085 135.38 123.331C135.095 123.582 134.854 123.881 134.67 124.213C134.482 124.544 134.361 124.908 134.313 125.285C134.259 125.643 134.281 126.009 134.379 126.357C134.463 126.683 134.621 126.985 134.842 127.239C135.06 127.487 135.328 127.687 135.627 127.826C135.952 127.972 136.304 128.046 136.66 128.042C137.038 128.041 137.412 127.967 137.762 127.826C138.111 127.683 138.434 127.485 138.719 127.239C139.005 126.988 139.246 126.69 139.43 126.357C139.62 126.024 139.743 125.657 139.791 125.276L139.787 125.285Z" fill="white"/>
<path d="M152.812 118.229H153.831L156.808 128.815H155.701L154.938 126H149.327L147.739 128.815H146.707L152.812 118.229ZM153.129 119.305L149.834 125.109H154.686L153.129 119.305Z" fill="white"/>
<path d="M159.834 127.054C159.963 127.414 160.218 127.715 160.553 127.901C160.893 128.096 161.28 128.197 161.673 128.192C161.87 128.193 162.067 128.163 162.255 128.104C162.449 128.047 162.634 127.961 162.802 127.848C162.972 127.744 163.122 127.609 163.243 127.451C163.36 127.296 163.434 127.114 163.459 126.922C163.498 126.724 163.464 126.519 163.362 126.344C163.26 126.193 163.118 126.072 162.952 125.996C162.754 125.897 162.546 125.821 162.33 125.771C162.096 125.709 161.854 125.652 161.607 125.599C161.361 125.544 161.118 125.476 160.879 125.396C160.657 125.322 160.449 125.21 160.266 125.065C160.09 124.926 159.953 124.744 159.869 124.536C159.775 124.274 159.755 123.992 159.812 123.72C159.85 123.403 159.965 123.1 160.147 122.838C160.317 122.592 160.533 122.381 160.782 122.216C161.031 122.053 161.303 121.929 161.589 121.85C161.876 121.77 162.173 121.73 162.471 121.73C162.967 121.712 163.458 121.82 163.9 122.044C164.292 122.257 164.588 122.609 164.73 123.032L163.848 123.508C163.751 123.2 163.55 122.935 163.28 122.758C163.01 122.581 162.687 122.503 162.365 122.538C162.194 122.54 162.023 122.566 161.858 122.613C161.681 122.661 161.511 122.73 161.351 122.82C161.195 122.908 161.057 123.024 160.945 123.164C160.835 123.303 160.763 123.469 160.738 123.645C160.707 123.768 160.71 123.896 160.747 124.017C160.783 124.139 160.852 124.248 160.945 124.333C161.155 124.498 161.397 124.618 161.655 124.686C161.951 124.77 162.268 124.84 162.612 124.902C162.939 124.956 163.256 125.053 163.556 125.193C163.831 125.321 164.064 125.523 164.231 125.775C164.408 126.108 164.463 126.492 164.386 126.86C164.348 127.194 164.234 127.514 164.05 127.795C163.88 128.057 163.662 128.283 163.406 128.461C163.148 128.645 162.86 128.782 162.555 128.867C161.705 129.105 160.798 129.031 159.997 128.66C159.543 128.443 159.187 128.064 159 127.597L159.834 127.054Z" fill="white"/>
<path d="M169.084 130.962C168.882 131.373 168.593 131.736 168.237 132.025C167.877 132.292 167.437 132.429 166.989 132.413C166.841 132.412 166.693 132.401 166.547 132.378C166.408 132.353 166.269 132.321 166.133 132.281L166.327 131.442C166.446 131.482 166.574 131.517 166.702 131.553C166.834 131.589 166.971 131.606 167.108 131.606C167.261 131.607 167.412 131.57 167.549 131.5C167.681 131.43 167.802 131.339 167.906 131.231C168.013 131.118 168.109 130.996 168.193 130.865C168.276 130.732 168.351 130.591 168.422 130.454L169.278 128.853L167.434 121.906H168.44L169.922 127.729L172.956 121.906H173.918L169.084 130.962Z" fill="white"/>
<path d="M176.563 123.851C176.563 123.723 176.603 123.564 176.625 123.383C176.647 123.203 176.66 123.009 176.674 122.819C176.687 122.629 176.705 122.453 176.722 122.29C176.74 122.126 176.749 121.998 176.758 121.906H177.64C177.618 122.166 177.596 122.417 177.565 122.656C177.539 122.809 177.529 122.964 177.534 123.119H177.578C177.704 122.923 177.852 122.743 178.019 122.581C178.197 122.409 178.395 122.261 178.61 122.14C178.837 122.012 179.079 121.912 179.329 121.84C179.592 121.765 179.863 121.728 180.136 121.729C180.567 121.72 180.989 121.842 181.349 122.078C181.533 122.212 181.687 122.384 181.8 122.581C181.913 122.779 181.983 122.998 182.006 123.225C182.262 122.739 182.659 122.343 183.144 122.087C183.584 121.856 184.073 121.734 184.569 121.729C185.011 121.709 185.451 121.796 185.853 121.981C186.149 122.131 186.396 122.362 186.567 122.647C186.725 122.941 186.814 123.266 186.827 123.6C186.845 123.969 186.831 124.34 186.783 124.707L186.214 128.822H185.332L185.901 124.751C185.942 124.481 185.957 124.208 185.945 123.935C185.942 123.689 185.886 123.447 185.782 123.225C185.686 123.018 185.533 122.844 185.341 122.722C185.08 122.586 184.788 122.522 184.494 122.537C184.121 122.52 183.749 122.598 183.413 122.762C183.133 122.909 182.886 123.112 182.686 123.357C182.496 123.589 182.347 123.852 182.245 124.133C182.145 124.389 182.077 124.655 182.042 124.927L181.504 128.818H180.621L181.204 124.658C181.309 124.142 181.263 123.606 181.071 123.114C180.985 122.926 180.842 122.769 180.663 122.665C180.484 122.56 180.277 122.514 180.07 122.532C179.742 122.532 179.416 122.59 179.109 122.704C178.796 122.82 178.511 122.999 178.27 123.229C178.009 123.484 177.794 123.782 177.635 124.111C177.45 124.506 177.327 124.927 177.269 125.36L176.788 128.818H175.906L176.563 123.851Z" fill="white"/>
<path d="M190.81 123.851C190.833 123.723 190.85 123.564 190.872 123.383C190.894 123.203 190.908 123.009 190.921 122.819C190.934 122.629 190.952 122.453 190.969 122.29C190.987 122.126 190.996 121.998 191.005 121.906H191.887C191.865 122.166 191.843 122.417 191.812 122.656C191.786 122.809 191.776 122.964 191.781 123.119H191.825C192.084 122.713 192.438 122.377 192.857 122.14C193.084 122.012 193.326 121.912 193.576 121.84C193.839 121.765 194.11 121.728 194.383 121.729C194.814 121.72 195.236 121.842 195.596 122.078C195.78 122.212 195.934 122.384 196.047 122.581C196.16 122.779 196.23 122.998 196.253 123.225C196.509 122.739 196.906 122.343 197.391 122.087C197.831 121.856 198.32 121.734 198.816 121.729C199.258 121.709 199.698 121.796 200.1 121.981C200.397 122.129 200.645 122.36 200.814 122.647C200.972 122.941 201.061 123.266 201.074 123.6C201.095 123.969 201.08 124.34 201.03 124.707L200.461 128.822H199.579L200.148 124.751C200.189 124.481 200.204 124.208 200.192 123.935C200.189 123.689 200.133 123.447 200.029 123.225C199.933 123.018 199.78 122.844 199.588 122.722C199.327 122.586 199.035 122.522 198.741 122.537C198.373 122.525 198.008 122.603 197.678 122.766C197.399 122.915 197.151 123.117 196.95 123.361C196.761 123.594 196.612 123.856 196.509 124.138C196.41 124.393 196.342 124.66 196.306 124.932L195.764 128.822H194.882L195.468 124.663C195.57 124.145 195.522 123.61 195.332 123.119C195.245 122.93 195.102 122.773 194.923 122.669C194.744 122.565 194.537 122.519 194.33 122.537C194.002 122.536 193.677 122.595 193.369 122.709C193.056 122.825 192.771 123.003 192.531 123.233C192.269 123.488 192.054 123.787 191.896 124.116C191.711 124.511 191.587 124.932 191.529 125.364L191.053 128.822H190.171L190.81 123.851Z" fill="white"/>
<path d="M210.655 127.523C210.271 128.018 209.769 128.41 209.195 128.661C208.637 128.895 208.036 129.012 207.431 129.005C206.951 129.013 206.475 128.922 206.033 128.736C205.641 128.568 205.296 128.307 205.027 127.977C204.757 127.641 204.568 127.247 204.476 126.826C204.368 126.342 204.355 125.842 204.436 125.353C204.562 124.363 205.03 123.449 205.759 122.768C206.112 122.446 206.518 122.188 206.959 122.005C207.413 121.821 207.898 121.728 208.388 121.731C208.856 121.72 209.32 121.814 209.746 122.005C210.107 122.175 210.423 122.427 210.668 122.741C210.921 123.043 211.103 123.397 211.202 123.778C211.287 124.167 211.298 124.567 211.237 124.96L211.149 125.591H205.327C205.294 125.832 205.294 126.077 205.327 126.319C205.366 126.622 205.465 126.914 205.618 127.179C205.791 127.47 206.029 127.716 206.315 127.898C206.694 128.115 207.127 128.217 207.563 128.193C208.043 128.19 208.517 128.078 208.948 127.867C209.387 127.669 209.77 127.366 210.064 126.985L210.655 127.523ZM210.342 124.784C210.384 124.489 210.363 124.188 210.28 123.902C210.202 123.641 210.064 123.403 209.879 123.205C209.684 122.995 209.446 122.83 209.182 122.719C208.904 122.598 208.603 122.537 208.3 122.539C207.859 122.525 207.422 122.629 207.034 122.839C206.703 123.017 206.405 123.249 206.152 123.527C205.945 123.753 205.772 124.007 205.636 124.281C205.551 124.439 205.489 124.608 205.45 124.784H210.342Z" fill="white"/>
<path d="M218.423 122.717H216.447L215.821 127.22C215.788 127.343 215.784 127.472 215.809 127.596C215.833 127.72 215.886 127.838 215.962 127.939C216.047 128.028 216.151 128.096 216.267 128.14C216.382 128.183 216.505 128.201 216.628 128.191C216.806 128.189 216.984 128.167 217.157 128.125C217.339 128.081 217.518 128.024 217.691 127.953L217.647 128.76C217.45 128.827 217.25 128.883 217.047 128.927C216.85 128.973 216.649 128.998 216.447 129.002C216.173 129.011 215.901 128.961 215.649 128.857C215.45 128.777 215.277 128.646 215.146 128.477C215.024 128.312 214.944 128.12 214.912 127.917C214.875 127.686 214.875 127.451 214.912 127.22L215.543 122.717H214.043L214.149 121.905H215.644L215.931 119.916H216.813L216.531 121.905H218.507L218.423 122.717Z" fill="white"/>
<path d="M221.347 123.853C221.347 123.725 221.387 123.566 221.409 123.385C221.431 123.204 221.444 123.01 221.457 122.821C221.47 122.631 221.488 122.454 221.506 122.291C221.523 122.128 221.532 122 221.541 121.907H222.423C222.423 122.168 222.375 122.419 222.348 122.657C222.322 122.81 222.312 122.965 222.317 123.12C222.592 122.725 222.939 122.385 223.341 122.119C223.749 121.856 224.227 121.721 224.712 121.731C224.884 121.732 225.055 121.757 225.22 121.806L224.995 122.688C224.89 122.649 224.78 122.628 224.668 122.626C224.313 122.619 223.961 122.683 223.632 122.816C223.341 122.936 223.078 123.111 222.855 123.332C222.634 123.553 222.456 123.814 222.33 124.1C222.201 124.405 222.11 124.725 222.061 125.052L221.536 128.824H220.654L221.347 123.853Z" fill="white"/>
<path d="M228.779 130.962C228.579 131.375 228.29 131.738 227.932 132.025C227.572 132.292 227.132 132.429 226.684 132.413C226.536 132.412 226.389 132.4 226.243 132.378C226.103 132.353 225.964 132.321 225.828 132.281L226.027 131.442L226.397 131.553C226.529 131.588 226.666 131.606 226.803 131.606C226.956 131.607 227.108 131.571 227.244 131.5C227.378 131.432 227.499 131.341 227.601 131.231C227.71 131.119 227.806 130.997 227.888 130.865C227.972 130.732 228.051 130.591 228.122 130.454L228.973 128.853L227.134 121.906H228.135L229.617 127.729L232.656 121.906H233.613L228.779 130.962Z" fill="white"/>
</svg>
