<svg width="243" height="98" viewBox="0 0 243 98" fill="none" xmlns="http://www.w3.org/2000/svg">
<path d="M61.3013 17.9752C61.3013 16.3644 61.6176 14.9359 62.2504 13.6895C62.9024 12.4431 63.7845 11.4843 64.8966 10.8132C66.0088 10.1421 67.2456 9.80649 68.607 9.80649C69.6425 9.80649 70.63 10.0366 71.5696 10.4968C72.5092 10.9378 73.257 11.5323 73.8131 12.2801V4.71546H77.8974V26H73.8131V23.6414C73.3146 24.4276 72.6147 25.0604 71.7134 25.5398C70.8122 26.0192 69.7671 26.2589 68.5783 26.2589C67.236 26.2589 66.0088 25.9137 64.8966 25.2234C63.7845 24.5331 62.9024 23.5647 62.2504 22.3184C61.6176 21.0528 61.3013 19.6051 61.3013 17.9752ZM73.8419 18.0327C73.8419 17.0547 73.6501 16.2206 73.2666 15.5303C72.8831 14.8208 72.3654 14.2839 71.7134 13.9196C71.0615 13.5361 70.3616 13.3443 69.6137 13.3443C68.8659 13.3443 68.1756 13.5265 67.5428 13.8908C66.91 14.2552 66.3923 14.7921 65.9896 15.5015C65.6061 16.1919 65.4143 17.0164 65.4143 17.9752C65.4143 18.9339 65.6061 19.7776 65.9896 20.5063C66.3923 21.2158 66.91 21.7623 67.5428 22.1458C68.1948 22.5293 68.8851 22.721 69.6137 22.721C70.3616 22.721 71.0615 22.5389 71.7134 22.1745C72.3654 21.791 72.8831 21.2541 73.2666 20.5638C73.6501 19.8543 73.8419 19.0106 73.8419 18.0327ZM83.8725 8.16701C83.163 8.16701 82.5686 7.94649 82.0892 7.50546C81.629 7.04526 81.3989 6.47959 81.3989 5.80845C81.3989 5.13732 81.629 4.58123 82.0892 4.1402C82.5686 3.68 83.163 3.44989 83.8725 3.44989C84.582 3.44989 85.1668 3.68 85.627 4.1402C86.1064 4.58123 86.3461 5.13732 86.3461 5.80845C86.3461 6.47959 86.1064 7.04526 85.627 7.50546C85.1668 7.94649 84.582 8.16701 83.8725 8.16701ZM85.8571 10.0654V26H81.8303V10.0654H85.8571ZM96.0772 9.80649C97.266 9.80649 98.3111 10.0462 99.2123 10.5256C100.114 10.9858 100.823 11.5898 101.341 12.3376V10.0654H105.396V26.1151C105.396 27.5915 105.099 28.9051 104.505 30.0556C103.91 31.2253 103.019 32.1457 101.83 32.8168C100.641 33.5071 99.2027 33.8523 97.5153 33.8523C95.2526 33.8523 93.3926 33.3249 91.9353 32.2703C90.4972 31.2157 89.6822 29.7775 89.4905 27.9559H93.4885C93.6994 28.6845 94.15 29.2598 94.8404 29.6816C95.5498 30.1227 96.4031 30.3432 97.4003 30.3432C98.5699 30.3432 99.5191 29.9885 100.248 29.279C100.976 28.5887 101.341 27.534 101.341 26.1151V23.6414C100.823 24.3893 100.104 25.0125 99.1836 25.511C98.2823 26.0096 97.2469 26.2589 96.0772 26.2589C94.7349 26.2589 93.5077 25.9137 92.3955 25.2234C91.2833 24.5331 90.4013 23.5647 89.7493 22.3184C89.1165 21.0528 88.8002 19.6051 88.8002 17.9752C88.8002 16.3644 89.1165 14.9359 89.7493 13.6895C90.4013 12.4431 91.2738 11.4843 92.3667 10.8132C93.4789 10.1421 94.7157 9.80649 96.0772 9.80649ZM101.341 18.0327C101.341 17.0547 101.149 16.2206 100.766 15.5303C100.382 14.8208 99.8643 14.2839 99.2123 13.9196C98.5604 13.5361 97.8605 13.3443 97.1126 13.3443C96.3648 13.3443 95.6745 13.5265 95.0417 13.8908C94.4089 14.2552 93.8912 14.7921 93.4885 15.5015C93.105 16.1919 92.9132 17.0164 92.9132 17.9752C92.9132 18.9339 93.105 19.7776 93.4885 20.5063C93.8912 21.2158 94.4089 21.7623 95.0417 22.1458C95.6937 22.5293 96.384 22.721 97.1126 22.721C97.8605 22.721 98.5604 22.5389 99.2123 22.1745C99.8643 21.791 100.382 21.2541 100.766 20.5638C101.149 19.8543 101.341 19.0106 101.341 18.0327ZM111.371 8.16701C110.662 8.16701 110.067 7.94649 109.588 7.50546C109.128 7.04526 108.898 6.47959 108.898 5.80845C108.898 5.13732 109.128 4.58123 109.588 4.1402C110.067 3.68 110.662 3.44989 111.371 3.44989C112.081 3.44989 112.666 3.68 113.126 4.1402C113.605 4.58123 113.845 5.13732 113.845 5.80845C113.845 6.47959 113.605 7.04526 113.126 7.50546C112.666 7.94649 112.081 8.16701 111.371 8.16701ZM113.356 10.0654V26H109.329V10.0654H113.356ZM122.023 13.3731V21.0815C122.023 21.6185 122.147 22.0115 122.397 22.2608C122.665 22.4909 123.106 22.606 123.72 22.606H125.589V26H123.058C119.664 26 117.967 24.3509 117.967 21.0528V13.3731H116.069V10.0654H117.967V6.12484H122.023V10.0654H125.589V13.3731H122.023ZM127.45 17.9752C127.45 16.3644 127.767 14.9359 128.399 13.6895C129.051 12.4431 129.924 11.4843 131.017 10.8132C132.129 10.1421 133.366 9.80649 134.727 9.80649C135.916 9.80649 136.952 10.0462 137.834 10.5256C138.735 11.0049 139.454 11.609 139.991 12.3376V10.0654H144.046V26H139.991V23.6702C139.473 24.418 138.754 25.0412 137.834 25.5398C136.932 26.0192 135.887 26.2589 134.699 26.2589C133.356 26.2589 132.129 25.9137 131.017 25.2234C129.924 24.5331 129.051 23.5647 128.399 22.3184C127.767 21.0528 127.45 19.6051 127.45 17.9752ZM139.991 18.0327C139.991 17.0547 139.799 16.2206 139.416 15.5303C139.032 14.8208 138.514 14.2839 137.862 13.9196C137.21 13.5361 136.511 13.3443 135.763 13.3443C135.015 13.3443 134.325 13.5265 133.692 13.8908C133.059 14.2552 132.541 14.7921 132.139 15.5015C131.755 16.1919 131.563 17.0164 131.563 17.9752C131.563 18.9339 131.755 19.7776 132.139 20.5063C132.541 21.2158 133.059 21.7623 133.692 22.1458C134.344 22.5293 135.034 22.721 135.763 22.721C136.511 22.721 137.21 22.5389 137.862 22.1745C138.514 21.791 139.032 21.2541 139.416 20.5638C139.799 19.8543 139.991 19.0106 139.991 18.0327ZM152.006 4.71546V26H147.979V4.71546H152.006ZM22.2965 41.8353C24.2524 41.8353 25.8248 42.4393 27.0136 43.6473C28.2217 44.8362 28.8257 46.5044 28.8257 48.6521V58H24.7989V49.1986C24.7989 47.9522 24.4825 47.003 23.8497 46.351C23.2169 45.6799 22.3541 45.3443 21.2611 45.3443C20.1681 45.3443 19.2956 45.6799 18.6436 46.351C18.0109 47.003 17.6945 47.9522 17.6945 49.1986V58H13.6677V49.1986C13.6677 47.9522 13.3513 47.003 12.7185 46.351C12.0857 45.6799 11.2228 45.3443 10.1298 45.3443C9.01767 45.3443 8.1356 45.6799 7.48364 46.351C6.85086 47.003 6.53447 47.9522 6.53447 49.1986V58H2.50766V42.0654H6.53447V43.9925C7.0522 43.3213 7.71375 42.794 8.51911 42.4105C9.34364 42.027 10.2449 41.8353 11.2228 41.8353C12.4692 41.8353 13.5814 42.1037 14.5593 42.6406C15.5373 43.1583 16.2947 43.9062 16.8316 44.8841C17.3493 43.9637 18.0972 43.2255 19.0751 42.6694C20.0722 42.1133 21.146 41.8353 22.2965 41.8353ZM31.6114 49.9752C31.6114 48.3644 31.9278 46.9359 32.5606 45.6895C33.2126 44.4431 34.085 43.4843 35.178 42.8132C36.2902 42.1421 37.527 41.8065 38.8884 41.8065C40.0773 41.8065 41.1128 42.0462 41.9948 42.5256C42.8961 43.0049 43.6151 43.609 44.1521 44.3376V42.0654H48.2076V58H44.1521V55.6702C43.6343 56.418 42.9153 57.0412 41.9948 57.5398C41.0936 58.0192 40.0486 58.2589 38.8597 58.2589C37.5174 58.2589 36.2902 57.9137 35.178 57.2234C34.085 56.5331 33.2126 55.5647 32.5606 54.3184C31.9278 53.0528 31.6114 51.6051 31.6114 49.9752ZM44.1521 50.0327C44.1521 49.0547 43.9603 48.2206 43.5768 47.5303C43.1933 46.8208 42.6756 46.2839 42.0236 45.9196C41.3716 45.5361 40.6717 45.3443 39.9239 45.3443C39.1761 45.3443 38.4858 45.5265 37.853 45.8908C37.2202 46.2552 36.7025 46.7921 36.2998 47.5015C35.9163 48.1919 35.7245 49.0164 35.7245 49.9752C35.7245 50.9339 35.9163 51.7776 36.2998 52.5063C36.7025 53.2158 37.2202 53.7623 37.853 54.1458C38.5049 54.5293 39.1953 54.721 39.9239 54.721C40.6717 54.721 41.3716 54.5389 42.0236 54.1745C42.6756 53.791 43.1933 53.2541 43.5768 52.5638C43.9603 51.8543 44.1521 51.0106 44.1521 50.0327ZM56.1673 44.539C56.685 43.6953 57.3562 43.0337 58.1807 42.5543C59.0244 42.0749 59.9832 41.8353 61.057 41.8353V46.0634H59.9928C58.7272 46.0634 57.7684 46.3606 57.1165 46.9551C56.4837 47.5495 56.1673 48.5849 56.1673 50.0614V58H52.1405V42.0654H56.1673V44.539ZM73.2035 58L67.7961 51.212V58H63.7692V36.7155H67.7961V48.8246L73.1459 42.0654H78.3808L71.3626 50.0614L78.4383 58H73.2035ZM95.3792 49.6875C95.3792 50.2628 95.3409 50.7805 95.2642 51.2407H83.6152C83.7111 52.3912 84.1137 53.2925 84.8232 53.9444C85.5327 54.5964 86.4052 54.9224 87.4407 54.9224C88.9363 54.9224 90.0005 54.28 90.6333 52.9953H94.9765C94.5163 54.5293 93.6343 55.7948 92.3303 56.792C91.0264 57.7699 89.4253 58.2589 87.5269 58.2589C85.9929 58.2589 84.6123 57.9233 83.3851 57.2522C82.177 56.5619 81.2279 55.5935 80.5376 54.3471C79.8664 53.1007 79.5309 51.6626 79.5309 50.0327C79.5309 48.3836 79.8664 46.9359 80.5376 45.6895C81.2087 44.4431 82.1483 43.4843 83.3563 42.8132C84.5644 42.1421 85.9546 41.8065 87.5269 41.8065C89.0418 41.8065 90.3936 42.1325 91.5825 42.7844C92.7905 43.4364 93.7205 44.3664 94.3725 45.5744C95.0436 46.7633 95.3792 48.1343 95.3792 49.6875ZM91.2086 48.537C91.1894 47.5015 90.8155 46.677 90.0868 46.0634C89.3582 45.4306 88.4665 45.1142 87.4119 45.1142C86.4148 45.1142 85.5711 45.421 84.8808 46.0346C84.2096 46.6291 83.7974 47.4632 83.6439 48.537H91.2086ZM103.007 45.3731V53.0815C103.007 53.6185 103.131 54.0115 103.381 54.2608C103.649 54.4909 104.09 54.606 104.704 54.606H106.573V58H104.042C100.648 58 98.9512 56.3509 98.9512 53.0528V45.3731H97.0529V42.0654H98.9512V38.1248H103.007V42.0654H106.573V45.3731H103.007ZM111.512 40.167C110.802 40.167 110.208 39.9465 109.729 39.5055C109.268 39.0453 109.038 38.4796 109.038 37.8085C109.038 37.1373 109.268 36.5812 109.729 36.1402C110.208 35.68 110.802 35.4499 111.512 35.4499C112.221 35.4499 112.806 35.68 113.266 36.1402C113.746 36.5812 113.985 37.1373 113.985 37.8085C113.985 38.4796 113.746 39.0453 113.266 39.5055C112.806 39.9465 112.221 40.167 111.512 40.167ZM113.496 42.0654V58H109.47V42.0654H113.496ZM126.305 41.8353C128.204 41.8353 129.738 42.4393 130.907 43.6473C132.077 44.8362 132.662 46.5044 132.662 48.6521V58H128.635V49.1986C128.635 47.933 128.319 46.9646 127.686 46.2935C127.053 45.6032 126.19 45.258 125.097 45.258C123.985 45.258 123.103 45.6032 122.451 46.2935C121.818 46.9646 121.502 47.933 121.502 49.1986V58H117.475V42.0654H121.502V44.05C122.039 43.3597 122.719 42.8228 123.544 42.4393C124.388 42.0366 125.308 41.8353 126.305 41.8353ZM142.733 41.8065C143.921 41.8065 144.966 42.0462 145.868 42.5256C146.769 42.9858 147.478 43.5898 147.996 44.3376V42.0654H152.052V58.1151C152.052 59.5915 151.755 60.9051 151.16 62.0556C150.566 63.2253 149.674 64.1457 148.485 64.8168C147.296 65.5071 145.858 65.8523 144.171 65.8523C141.908 65.8523 140.048 65.3249 138.591 64.2703C137.153 63.2157 136.338 61.7775 136.146 59.9559H140.144C140.355 60.6845 140.805 61.2598 141.496 61.6816C142.205 62.1227 143.059 62.3432 144.056 62.3432C145.225 62.3432 146.175 61.9885 146.903 61.279C147.632 60.5887 147.996 59.534 147.996 58.1151V55.6414C147.478 56.3893 146.759 57.0125 145.839 57.511C144.938 58.0096 143.902 58.2589 142.733 58.2589C141.39 58.2589 140.163 57.9137 139.051 57.2234C137.939 56.5331 137.057 55.5647 136.405 54.3184C135.772 53.0528 135.456 51.6051 135.456 49.9752C135.456 48.3644 135.772 46.9359 136.405 45.6895C137.057 44.4431 137.929 43.4843 139.022 42.8132C140.134 42.1421 141.371 41.8065 142.733 41.8065ZM147.996 50.0327C147.996 49.0547 147.804 48.2206 147.421 47.5303C147.037 46.8208 146.52 46.2839 145.868 45.9196C145.216 45.5361 144.516 45.3443 143.768 45.3443C143.02 45.3443 142.33 45.5265 141.697 45.8908C141.064 46.2552 140.547 46.7921 140.144 47.5015C139.76 48.1919 139.569 49.0164 139.569 49.9752C139.569 50.9339 139.76 51.7776 140.144 52.5063C140.547 53.2158 141.064 53.7623 141.697 54.1458C142.349 54.5293 143.039 54.721 143.768 54.721C144.516 54.721 145.216 54.5389 145.868 54.1745C146.52 53.791 147.037 53.2541 147.421 52.5638C147.804 51.8543 147.996 51.0106 147.996 50.0327ZM77.4867 81.6875C77.4867 82.2628 77.4483 82.7805 77.3716 83.2407H65.7227C65.8185 84.3912 66.2212 85.2925 66.9307 85.9444C67.6402 86.5964 68.5127 86.9224 69.5481 86.9224C71.0438 86.9224 72.108 86.28 72.7408 84.9953H77.084C76.6238 86.5293 75.7417 87.7948 74.4378 88.792C73.1339 89.7699 71.5328 90.2589 69.6344 90.2589C68.1004 90.2589 66.7198 89.9233 65.4926 89.2522C64.2845 88.5619 63.3353 87.5935 62.645 86.3471C61.9739 85.1007 61.6383 83.6626 61.6383 82.0327C61.6383 80.3836 61.9739 78.9359 62.645 77.6895C63.3162 76.4431 64.2557 75.4843 65.4638 74.8132C66.6718 74.1421 68.062 73.8065 69.6344 73.8065C71.1493 73.8065 72.5011 74.1325 73.69 74.7844C74.898 75.4364 75.828 76.3664 76.48 77.5744C77.1511 78.7633 77.4867 80.1343 77.4867 81.6875ZM73.3161 80.537C73.2969 79.5015 72.923 78.677 72.1943 78.0634C71.4656 77.4306 70.574 77.1142 69.5194 77.1142C68.5222 77.1142 67.6785 77.421 66.9882 78.0346C66.3171 78.6291 65.9048 79.4632 65.7514 80.537H73.3161ZM89.2273 90L85.9484 85.0528L83.0433 90H78.7289L83.935 82.0039L78.6713 74.0654H83.2159L86.4661 78.9838L89.3999 74.0654H93.7143L88.4795 82.0039L93.7719 90H89.2273ZM99.9858 76.3664C100.504 75.6377 101.213 75.0337 102.114 74.5543C103.035 74.0558 104.08 73.8065 105.249 73.8065C106.611 73.8065 107.838 74.1421 108.931 74.8132C110.043 75.4843 110.916 76.4431 111.548 77.6895C112.2 78.9167 112.526 80.3453 112.526 81.9752C112.526 83.6051 112.2 85.0528 111.548 86.3184C110.916 87.5647 110.043 88.5331 108.931 89.2234C107.838 89.9137 106.611 90.2589 105.249 90.2589C104.08 90.2589 103.044 90.0192 102.143 89.5398C101.261 89.0604 100.542 88.4564 99.9858 87.7277V97.5934H95.959V74.0654H99.9858V76.3664ZM108.413 81.9752C108.413 81.0164 108.212 80.1919 107.809 79.5015C107.426 78.7921 106.908 78.2552 106.256 77.8908C105.623 77.5265 104.933 77.3443 104.185 77.3443C103.456 77.3443 102.766 77.5361 102.114 77.9196C101.481 78.2839 100.964 78.8208 100.561 79.5303C100.178 80.2398 99.9858 81.0739 99.9858 82.0327C99.9858 82.9914 100.178 83.8256 100.561 84.5351C100.964 85.2445 101.481 85.791 102.114 86.1745C102.766 86.5389 103.456 86.721 104.185 86.721C104.933 86.721 105.623 86.5293 106.256 86.1458C106.908 85.7623 107.426 85.2158 107.809 84.5063C108.212 83.7968 108.413 82.9531 108.413 81.9752ZM130.265 81.6875C130.265 82.2628 130.227 82.7805 130.15 83.2407H118.501C118.597 84.3912 119 85.2925 119.709 85.9444C120.419 86.5964 121.291 86.9224 122.327 86.9224C123.823 86.9224 124.887 86.28 125.52 84.9953H129.863C129.403 86.5293 128.521 87.7948 127.217 88.792C125.913 89.7699 124.312 90.2589 122.413 90.2589C120.879 90.2589 119.499 89.9233 118.271 89.2522C117.063 88.5619 116.114 87.5935 115.424 86.3471C114.753 85.1007 114.417 83.6626 114.417 82.0327C114.417 80.3836 114.753 78.9359 115.424 77.6895C116.095 76.4431 117.035 75.4843 118.243 74.8132C119.451 74.1421 120.841 73.8065 122.413 73.8065C123.928 73.8065 125.28 74.1325 126.469 74.7844C127.677 75.4364 128.607 76.3664 129.259 77.5744C129.93 78.7633 130.265 80.1343 130.265 81.6875ZM126.095 80.537C126.076 79.5015 125.702 78.677 124.973 78.0634C124.244 77.4306 123.353 77.1142 122.298 77.1142C121.301 77.1142 120.457 77.421 119.767 78.0346C119.096 78.6291 118.684 79.4632 118.53 80.537H126.095ZM137.231 76.539C137.749 75.6953 138.42 75.0337 139.245 74.5543C140.089 74.0749 141.047 73.8353 142.121 73.8353V78.0634H141.057C139.791 78.0634 138.833 78.3606 138.181 78.9551C137.548 79.5495 137.231 80.5849 137.231 82.0614V90H133.205V74.0654H137.231V76.539ZM149.522 77.3731V85.0815C149.522 85.6185 149.646 86.0115 149.896 86.2608C150.164 86.4909 150.605 86.606 151.219 86.606H153.088V90H150.557C147.163 90 145.466 88.3509 145.466 85.0528V77.3731H143.568V74.0654H145.466V70.1248H149.522V74.0654H153.088V77.3731H149.522Z" fill="white"/>
<circle cx="174" cy="13" r="13" fill="#FF7B00"/>
<circle cx="174" cy="42" r="13" fill="#FFC300"/>
<circle cx="174" cy="71" r="13" fill="#FFC300"/>
<circle cx="202" cy="13" r="13" fill="#FF7B00"/>
<circle cx="202" cy="42" r="13" fill="#FFC300"/>
<circle cx="230" cy="13" r="13" fill="#FF7B00"/>
</svg>
