<svg width="113" height="130" viewBox="0 0 113 130" fill="none" xmlns="http://www.w3.org/2000/svg">
<path d="M108.383 8.37764H104.569C102.806 8.37764 101.308 9.52806 100.78 11.1172C91.6892 10.4881 85.5183 8.04295 79.1858 4.58865C77.6446 3.7477 75.9372 3.49253 74.3027 3.82239C74.2709 3.78594 74.2416 3.74821 74.2084 3.71278C73.0432 2.47034 70.2683 1.09025 64.5779 5.29756C63.0571 1.96103 60.6072 0 57.8924 0C55.1776 0 52.7279 1.96077 51.2071 5.29756C45.5162 1.08923 42.742 2.47034 41.5768 3.71252C39.1641 6.28483 40.614 11.4995 45.1644 16.8407C44.1524 17.5264 43.4858 18.6852 43.4858 19.9972V21.7368C43.4858 22.5356 43.7341 23.2772 44.156 23.8902C40.3124 26.9507 36.7743 30.7884 33.8963 35.0301C30.2988 31.5674 25.4154 29.4315 20.0399 29.4315C9.01141 29.4315 0.0390625 38.4039 0.0390625 49.4321C0.0390625 60.4603 9.01141 69.4326 20.0399 69.4326C22.6642 69.4326 25.1697 68.9195 27.4682 67.9965C29.2103 74.3149 32.7592 79.1666 38.0514 82.4315C43.1873 85.6003 49.8632 87.207 57.8929 87.207C78.3196 87.207 89.5691 76.8329 89.5691 57.9958C89.5691 54.1199 88.8574 50.1106 87.4967 46.1384H91.6183C94.9768 46.1384 98.2914 45.2441 101.204 43.5892C101.914 44.7012 103.156 45.4422 104.57 45.4422H108.384C110.586 45.4422 112.377 43.6509 112.377 41.4488V12.3711C112.376 10.1689 110.585 8.37764 108.383 8.37764ZM44.3515 6.33963C44.5855 6.20784 46.247 6.23945 49.5532 8.84515C50.3393 9.46509 51.3916 9.6731 52.3695 9.40086C53.3221 9.13575 54.0623 8.46967 54.3996 7.57391C55.2586 5.29552 56.6295 3.82341 57.8921 3.82341C59.1547 3.82341 60.5256 5.29552 61.3849 7.57391C61.7226 8.47018 62.4629 9.136 63.4158 9.40086C64.3931 9.67285 65.4456 9.46484 66.2308 8.84541C69.5372 6.23945 71.1987 6.20784 71.4182 6.32689C71.8811 6.89024 71.2884 10.3899 67.2106 14.9332C66.8239 15.3642 66.4227 15.7833 66.0136 16.1868H49.7712C49.3623 15.7836 48.9608 15.3642 48.5736 14.9329C44.4963 10.3904 43.9036 6.89075 44.3515 6.33963ZM47.3095 21.7368L47.3082 20.0108L68.4755 19.9972L68.4893 21.723L47.3095 21.7368ZM3.86247 49.4323C3.86247 40.5122 11.1195 33.2554 20.0396 33.2554C28.9595 33.2554 36.2163 40.5125 36.2163 49.4323C36.2163 58.3522 28.9595 65.6092 20.0396 65.6092C11.1195 65.6092 3.86247 58.3522 3.86247 49.4323ZM57.8924 83.3839C47.4224 83.3839 34.4105 80.3576 30.9439 66.1858C36.4143 62.6127 40.0399 56.4398 40.0399 49.4323C40.0399 45.2084 38.7203 41.2889 36.4765 38.0569C39.6629 33.1231 43.8169 28.7323 48.3113 25.5469H65.6947C62.0724 27.8493 60.8718 32.6352 63.0377 36.3873C64.5305 38.9728 67.2486 40.4197 70.0391 40.4197C71.407 40.4197 72.7924 40.072 74.0596 39.3404L78.4655 36.7964C83.1701 43.587 85.7447 51.0574 85.7447 57.996C85.7449 78.9793 70.5986 83.3839 57.8924 83.3839ZM85.9802 42.3149C84.8382 39.7832 83.4339 37.2899 81.7862 34.8792L90.4093 29.9005C91.3237 29.3726 91.6369 28.2033 91.109 27.289C90.5808 26.3746 89.4113 26.0611 88.4975 26.5892L72.148 36.0288C70.1215 37.1991 67.5198 36.5022 66.3493 34.4752C65.1792 32.4481 65.8764 29.847 67.9032 28.6765L78.9554 22.2953C79.8698 21.7673 80.183 20.5981 79.6551 19.6837C79.1269 18.7691 77.9574 18.4558 77.0436 18.984L72.2992 21.7232V19.997C72.2992 18.685 71.6326 17.5259 70.6203 16.8402C73.4855 13.4771 75.1197 10.1658 75.3362 7.53134C76.0147 7.45767 76.7129 7.59481 77.3545 7.94481C84.1479 11.6504 90.7743 14.2704 100.576 14.9352V39.4684C97.9381 41.3318 94.8608 42.3147 91.6178 42.3147H85.9802V42.3149ZM108.553 41.449C108.553 41.5377 108.472 41.6188 108.383 41.6188H104.569C104.48 41.6188 104.399 41.538 104.399 41.449V12.3711C104.399 12.2821 104.48 12.2013 104.569 12.2013H108.383C108.472 12.2013 108.553 12.2821 108.553 12.3711V41.449ZM91.0032 91.1263C89.057 90.6048 87.0297 90.8693 85.2945 91.8714L69.4712 101.007C69.4498 100.374 69.3593 99.7331 69.1882 99.0951C67.9754 94.5696 63.3077 91.8742 58.7815 93.0868L52.0569 94.8888C49.5843 95.5515 47.3039 95.2513 45.0872 93.9714L36.1227 88.7956C32.3936 86.6424 28.7249 88.0194 24.4776 89.6137C22.2099 90.4648 19.6825 91.4118 16.7322 92.0055L16.6371 91.6512C16.4201 90.8423 15.9004 90.1653 15.1734 89.7454C14.4459 89.3256 13.5998 89.2134 12.791 89.4301L7.84596 90.7551C6.17349 91.2033 5.1773 92.9285 5.62543 94.6015L14.4882 127.677C14.7048 128.486 15.2249 129.163 15.9521 129.583C16.437 129.863 16.9748 130.006 17.5188 130.006C17.7908 130.006 18.0648 129.97 18.3343 129.898L23.2793 128.573C24.8419 128.154 25.8136 126.62 25.5684 125.056C32.5703 123.572 37.0447 124.846 43.053 126.559C44.1657 126.877 45.3163 127.205 46.547 127.534C47.6381 127.827 48.7143 127.973 49.7734 127.973C51.828 127.973 53.8166 127.423 55.7141 126.328L92.8192 104.904C94.5544 103.903 95.7971 102.28 96.3184 100.334C96.8394 98.3885 96.5748 96.3614 95.573 94.626C94.572 92.8908 92.949 91.6478 91.0032 91.1263ZM18.0052 126.028L9.496 94.2719L13.1208 93.3004L21.63 125.057L18.0052 126.028ZM92.6252 99.3444C92.3683 100.303 91.7588 101.102 90.9082 101.593L53.8028 123.016C51.8102 124.167 49.761 124.437 47.5374 123.841C46.3362 123.519 45.2006 123.195 44.1022 122.882C37.7386 121.067 32.6174 119.609 24.5959 121.353L17.7235 95.7048C20.8862 95.044 23.5821 94.0341 25.8218 93.1934C29.9118 91.658 32.1425 90.9127 34.2111 92.1067L43.1756 97.2824C46.2722 99.0703 49.5935 99.5073 53.047 98.5819L59.7716 96.78C62.259 96.1126 64.8282 97.5954 65.4951 100.084C66.1619 102.574 64.6796 105.141 62.1907 105.808L52.3572 108.443C50.7411 108.876 49.1655 108.891 47.6743 108.489C46.6541 108.214 45.6054 108.817 45.3306 109.837C45.0556 110.856 45.6592 111.906 46.6786 112.181C47.727 112.463 48.7974 112.605 49.8828 112.605C51.0238 112.605 52.1816 112.449 53.347 112.136L63.1805 109.502C65.0798 108.992 66.6547 107.873 67.7556 106.413L87.2066 95.1827C88.0575 94.6915 89.0545 94.5625 90.0134 94.8197C90.9727 95.0766 91.7713 95.6867 92.2622 96.5373C92.7532 97.3884 92.8822 98.3851 92.6252 99.3444ZM66.1313 61.6525C66.1313 65.4298 63.3974 68.5804 59.8044 69.2297V71.3608C59.8044 72.4166 58.9487 73.2726 57.8926 73.2726C56.8365 73.2726 55.9808 72.4166 55.9808 71.3608V69.1122C52.6572 68.2598 50.193 65.2386 50.193 61.653C50.193 60.5972 51.0488 59.7412 52.1049 59.7412C53.161 59.7412 54.0167 60.5972 54.0167 61.653C54.0167 63.7902 55.7552 65.5287 57.8924 65.5287H58.432C60.5692 65.5287 62.3077 63.7899 62.3077 61.6527C62.3077 59.5158 60.5692 57.7771 58.432 57.7771H57.353C53.1077 57.7771 49.6536 54.323 49.6536 50.0775C49.6536 46.3002 52.3878 43.1495 55.9808 42.5005V40.3692C55.9808 39.3134 56.8365 38.4574 57.8926 38.4574C58.9487 38.4574 59.8044 39.3134 59.8044 40.3692V42.6183C63.1282 43.4707 65.5919 46.4917 65.5919 50.0775C65.5919 51.1333 64.7362 51.9893 63.6801 51.9893C62.624 51.9893 61.7683 51.1333 61.7683 50.0775C61.7683 47.9406 60.0295 46.2018 57.8924 46.2018H57.353C55.2158 46.2018 53.4773 47.9406 53.4773 50.0775C53.4773 52.2147 55.2158 53.9534 57.353 53.9534H58.432C62.6773 53.9532 66.1313 57.4069 66.1313 61.6525ZM28.2478 43.9278L14.5351 57.6404C14.1616 58.0136 13.6722 58.2005 13.183 58.2005C12.6936 58.2005 12.2044 58.0139 11.831 57.6404C11.0844 56.8938 11.0844 55.6832 11.831 54.9369L25.5437 41.2242C26.29 40.4778 27.5004 40.4773 28.2475 41.2242C28.9944 41.9706 28.9944 43.1811 28.2478 43.9278ZM19.4212 43.3608C19.4212 40.3539 16.9748 37.9075 13.9679 37.9075C10.961 37.9075 8.51459 40.3539 8.51459 43.3608C8.51459 46.3678 10.961 48.8142 13.9679 48.8142C16.9748 48.8142 19.4212 46.3678 19.4212 43.3608ZM12.3385 43.3608C12.3385 42.4623 13.0696 41.7312 13.9682 41.7312C14.8667 41.7312 15.5978 42.4623 15.5978 43.3608C15.5978 44.2594 14.8667 44.9905 13.9682 44.9905C13.0696 44.9905 12.3385 44.2594 12.3385 43.3608ZM26.1111 50.0505C23.1039 50.0505 20.6575 52.4969 20.6575 55.5038C20.6575 56.9603 21.225 58.33 22.2551 59.3598C23.2851 60.3897 24.6545 60.9571 26.1111 60.9568C29.118 60.9568 31.5644 58.5105 31.5644 55.5035C31.5644 52.4966 29.118 50.0505 26.1111 50.0505ZM26.1111 57.1332C25.6757 57.1332 25.2666 56.9637 24.9586 56.6557C24.6507 56.348 24.4812 55.9389 24.4812 55.5035C24.4812 54.605 25.2123 53.8739 26.1111 53.8739C27.0094 53.8739 27.7407 54.605 27.7407 55.5035C27.7407 56.4021 27.0094 57.1332 26.1111 57.1332Z" fill="white"/>
</svg>
