<svg width="110" height="110" viewBox="0 0 110 110" fill="none" xmlns="http://www.w3.org/2000/svg">
<path d="M26.1094 29.7754H57.7262C59.8096 29.7754 59.8096 26.5527 57.7262 26.5527H26.1094C24.026 26.5527 24.026 29.7754 26.1094 29.7754Z" fill="white"/>
<path d="M26.1094 41.5977H50.4215C52.5048 41.5977 52.5048 38.375 50.4215 38.375H26.1094C24.026 38.375 24.026 41.5977 26.1094 41.5977Z" fill="white"/>
<path d="M26.1094 53.419H46.984C49.0673 53.419 49.0673 50.1963 46.984 50.1963H26.1094C24.026 50.1963 24.026 53.419 26.1094 53.419Z" fill="white"/>
<path d="M55.7952 92.8948H54.7276V77.1469C54.7276 76.257 54.0064 75.5356 53.1163 75.5356H46.6499V69.8555C46.6499 68.9656 45.9286 68.2441 45.0385 68.2441H36.9803C36.0902 68.2441 35.369 68.9656 35.369 69.8555V79.6604H28.9152C28.0251 79.6604 27.3039 80.3818 27.3039 81.2717V92.8948H26.2363C25.3462 92.8948 24.625 93.6163 24.625 94.5062C24.625 95.3961 25.3462 96.1175 26.2363 96.1175H55.795C56.6851 96.1175 57.4063 95.3961 57.4063 94.5062C57.4063 93.6163 56.6851 92.8948 55.7952 92.8948ZM30.5268 92.8948V82.883H35.3625V92.8948H30.5268ZM38.5919 92.8948V71.4668H43.4274V92.8948H38.5919ZM46.6692 92.8948V78.7582H51.5049V92.8948H46.6692Z" fill="white"/>
<path d="M109.987 50.1885C109.777 43.4054 107.014 37.0223 102.207 32.2152C99.9007 29.9086 97.2718 28.1166 94.4649 26.8365C94.4178 26.8095 94.3691 26.7843 94.3186 26.7616C94.267 26.7383 94.2148 26.7182 94.1624 26.701C90.5321 25.1002 86.6149 24.3491 82.7152 24.4496V15.5718C82.7152 13.508 81.0366 11.8289 78.973 11.8289H76.649V9.81714C76.649 7.75333 74.9705 6.07432 72.9069 6.07432H70.5764V3.74282C70.5767 1.67902 68.8979 0 66.8345 0H3.74217C1.67859 0 0 1.67902 0 3.74282V94.4292C0 96.493 1.67859 98.172 3.74217 98.172H6.0726V100.504C6.0726 102.567 7.75119 104.246 9.80812 104.246L12.139 104.256V106.258C12.139 108.322 13.8176 110.001 15.8811 110.001H66.2149C66.6362 110.001 67.053 109.829 67.3516 109.532L82.241 94.7128C82.5448 94.4103 82.7156 93.9993 82.7156 93.5707V77.5961C82.9328 77.6015 83.1501 77.6066 83.3673 77.6066C87.9091 77.6066 92.4316 76.4458 96.3871 74.2295C98.2049 73.2111 96.6294 70.4003 94.8119 71.418C86.2088 76.2389 75.4418 75.051 68.0671 68.6347L83.8906 52.8111L105.523 58.5436C104.57 61.3626 103.063 64.0376 100.994 66.3975C99.6209 67.9641 102.044 70.0885 103.417 68.5221C107.863 63.4515 110.196 56.9406 109.987 50.1885ZM91.4998 29.0997L82.058 50.0854L65.7852 66.3584C57.7919 57.1903 58.1573 43.2211 66.8845 34.4938C73.5284 27.85 83.2106 26.0528 91.4998 29.0997ZM9.81435 101.023C9.52796 101.023 9.29506 100.79 9.29506 100.503V9.81714C9.29506 9.53032 9.52796 9.297 9.81435 9.297H21.0546C23.138 9.297 23.138 6.07432 21.0546 6.07432H9.81435C7.75097 6.07432 6.07239 7.75333 6.07239 9.81714V94.9491H3.74217C3.45579 94.9491 3.22268 94.7158 3.22268 94.429V3.74282C3.22268 3.456 3.45579 3.22268 3.74217 3.22268H66.8345C67.1209 3.22268 67.354 3.456 67.354 3.74282V6.07453H30.0783C27.995 6.07453 27.995 9.29721 30.0783 9.29721H72.9071C73.1935 9.29721 73.4266 9.53053 73.4266 9.81735V11.8292H15.8809C13.8176 11.8292 12.1388 13.5082 12.1388 15.572V101.033L9.81435 101.023ZM15.3614 106.258V15.5718C15.3614 15.2849 15.5945 15.0516 15.8809 15.0516H78.9733C79.2596 15.0516 79.4927 15.2849 79.4927 15.5718V24.7283C74.041 25.5331 68.793 28.0281 64.6057 32.2154C54.239 42.5821 54.239 59.45 64.6057 69.817C68.6832 73.8943 73.8234 76.478 79.4927 77.3164V91.821H68.3455C66.2821 91.821 64.6033 93.5 64.6033 95.5638V106.778H15.8809C15.5945 106.778 15.3614 106.545 15.3614 106.258ZM67.826 104.487V95.5638C67.826 95.277 68.0591 95.0437 68.3455 95.0437H77.2263L67.826 104.487ZM85.6551 49.9449L94.4402 30.4189C96.4133 31.4744 98.2661 32.832 99.9282 34.494C105.576 40.1419 107.744 48.0516 106.342 55.4268L85.6551 49.9449Z" fill="white"/>
</svg>
