<svg width="118" height="122" viewBox="0 0 118 122" fill="none" xmlns="http://www.w3.org/2000/svg">
<path d="M115.357 67.7544C113.653 66.0503 111.383 65.1106 108.972 65.1106C106.74 65.1106 104.652 65.9448 102.998 67.418C99.5892 64.3899 94.4608 64.3899 91.0544 67.418C87.6461 64.3899 82.5177 64.3899 79.1093 67.418C75.5676 64.2705 70.1445 64.36 66.7521 67.7544L53.6822 80.8244C51.9203 78.0173 48.8185 76.13 45.2649 76.13H21.3746C20.8471 76.13 20.3394 76.339 19.9671 76.7133L0.0585938 96.6218L2.87366 99.4369L22.1988 80.1117H45.2649C48.5577 80.1117 51.2374 82.7913 51.2374 86.0842C51.2374 89.3771 48.5577 92.0568 45.2649 92.0568H31.3289V96.0385H45.2649C50.0708 96.0385 54.0923 92.6122 55.018 88.0751H87.0727C87.6003 88.0751 88.108 87.866 88.4803 87.4917L105.403 70.5695C107.369 68.6026 110.575 68.6026 112.542 70.5695C114.511 72.5365 114.511 75.7417 112.542 77.7087L90.2302 100.02H47.2557C46.7281 100.02 46.2205 100.229 45.8482 100.603L27.9305 118.521L30.7456 121.336L48.0799 104.002H91.0544C91.582 104.002 92.0897 103.793 92.462 103.419L115.357 80.5238C117.063 78.8196 118.003 76.55 118.003 74.1391C118.003 71.7282 117.063 69.4586 115.357 67.7544ZM56.0433 84.0934L69.5672 70.5695C71.3351 68.8036 74.3034 68.6961 76.2505 70.2012L62.3583 84.0934H56.0433ZM67.9884 84.0934L81.5123 70.5695C83.3379 68.7439 86.2187 68.6344 88.1976 70.1992L74.3034 84.0934H67.9884ZM86.2485 84.0934H79.9335L93.4574 70.5695C95.283 68.7439 98.1638 68.6344 100.143 70.1992L86.2485 84.0934Z" fill="white"/>
<path d="M102.997 8.44094H81.0979V2.46839C81.0979 1.36745 80.206 0.477539 79.107 0.477539H43.2717C42.1727 0.477539 41.2808 1.36745 41.2808 2.46839V8.44094H19.3815C18.2825 8.44094 17.3906 9.33085 17.3906 10.4318V56.2214C17.3906 57.3223 18.2825 58.2122 19.3815 58.2122H55.2168C56.3157 58.2122 57.2076 57.3223 57.2076 56.2214V50.2488H65.1711V56.2214C65.1711 57.3223 66.063 58.2122 67.1619 58.2122H102.997C104.096 58.2122 104.988 57.3223 104.988 56.2214V10.4318C104.988 9.33085 104.096 8.44094 102.997 8.44094ZM53.2259 54.2305H21.3723V12.4226H41.2808V17.5113C40.1042 16.8264 38.7564 16.4043 37.2991 16.4043C32.9073 16.4043 29.3357 19.9759 29.3357 24.3678C29.3357 28.7596 32.9073 32.3312 37.2991 32.3312C38.7564 32.3312 40.1042 31.9091 41.2808 31.2242V36.3129H27.3449V40.2946H41.2808V44.2763H27.3449V48.258H41.2808C41.2808 49.3589 42.1727 50.2488 43.2717 50.2488H53.2259V54.2305ZM41.2808 24.3678C41.2808 26.5637 39.495 28.3495 37.2991 28.3495C35.1032 28.3495 33.3174 26.5637 33.3174 24.3678C33.3174 22.1718 35.1032 20.3861 37.2991 20.3861C39.495 20.3861 41.2808 22.1718 41.2808 24.3678ZM55.2168 46.2671H45.2625V10.4318V4.45924H77.1162V10.4318V46.2671H67.1619H55.2168ZM101.006 54.2305H69.1528V50.2488H79.107C80.206 50.2488 81.0979 49.3589 81.0979 48.258H95.0338V44.2763H81.0979V40.2946H95.0338V36.3129H81.0979V31.2242C82.2745 31.9091 83.6223 32.3312 85.0796 32.3312C89.4714 32.3312 93.043 28.7596 93.043 24.3678C93.043 19.9759 89.4714 16.4043 85.0796 16.4043C83.6223 16.4043 82.2745 16.8264 81.0979 17.5113V12.4226H101.006V54.2305ZM81.0979 24.3678C81.0979 22.1718 82.8837 20.3861 85.0796 20.3861C87.2755 20.3861 89.0613 22.1718 89.0613 24.3678C89.0613 26.5637 87.2755 28.3495 85.0796 28.3495C82.8837 28.3495 81.0979 26.5637 81.0979 24.3678Z" fill="white"/>
<path d="M61.1939 8.44141C56.8021 8.44141 53.2305 12.013 53.2305 16.4048C53.2305 20.7966 56.8021 24.3682 61.1939 24.3682C65.5857 24.3682 69.1573 20.7966 69.1573 16.4048C69.1573 12.013 65.5857 8.44141 61.1939 8.44141ZM61.1939 20.3865C58.998 20.3865 57.2122 18.6007 57.2122 16.4048C57.2122 14.2089 58.998 12.4231 61.1939 12.4231C63.3898 12.4231 65.1756 14.2089 65.1756 16.4048C65.1756 18.6007 63.3898 20.3865 61.1939 20.3865Z" fill="white"/>
<path d="M71.1429 28.3496H51.2344V32.3313H71.1429V28.3496Z" fill="white"/>
<path d="M71.1429 36.3135H51.2344V40.2952H71.1429V36.3135Z" fill="white"/>
</svg>
