<svg width="88" height="131" viewBox="0 0 88 131" fill="none" xmlns="http://www.w3.org/2000/svg">
<path d="M64.1346 40.202C62.6717 39.8363 61.782 38.3543 62.1477 36.8942C62.5653 35.2266 62.7754 33.3734 62.7754 31.3865C62.7754 17.0906 51.1433 5.45852 36.8474 5.45852C22.5516 5.45852 10.9195 17.0906 10.9195 31.3865C10.9195 38.2179 13.5477 44.6535 18.3239 49.5034C19.3802 50.5787 19.3665 52.3063 18.2939 53.3653C17.7617 53.8866 17.0712 54.1486 16.378 54.1486C15.6738 54.1486 14.967 53.8756 14.432 53.3352C8.64599 47.4564 5.46094 39.6616 5.46094 31.3865C5.46094 14.0803 19.5412 0 36.8474 0C54.1537 0 68.234 14.0803 68.234 31.3865C68.234 33.8183 67.9665 36.1136 67.4425 38.2151C67.0768 39.6807 65.5784 40.5759 64.1346 40.202Z" fill="white"/>
<path d="M16.3789 31.3865C16.3789 20.0982 25.5601 10.917 36.8484 10.917C48.1366 10.917 57.3178 20.0982 57.3178 31.3865C57.3178 32.893 56.0951 34.1157 54.5886 34.1157C53.082 34.1157 51.8593 32.893 51.8593 31.3865C51.8593 23.1086 45.1262 16.3755 36.8484 16.3755C28.5705 16.3755 21.8374 23.1086 21.8374 31.3865C21.8374 32.893 20.6147 34.1157 19.1082 34.1157C17.6016 34.1157 16.3789 32.893 16.3789 31.3865Z" fill="white"/>
<path d="M1.28377 80.2626L12.8395 98.8107C15.626 103.284 19.125 107.22 23.2352 110.511L28.9994 115.121C29.649 115.639 30.0229 116.42 30.0229 117.25V122.815C30.0229 127.329 33.6965 131.002 38.2107 131.002H68.2326C72.7468 131.002 76.4203 127.329 76.4203 122.815V116.469C76.4203 115.293 76.666 114.155 77.1518 113.087L83.8167 98.3958C86.1174 93.3576 87.3374 87.7572 87.3374 82.2031C87.3374 82.1458 87.3374 82.0939 87.3319 82.0394C87.3347 81.982 87.3374 81.9302 87.3374 81.8729V60.7211C87.3374 55.4536 83.0525 51.1687 77.785 51.1687C75.7217 51.1687 73.8084 51.8264 72.2446 52.9427C70.5552 50.2407 67.553 48.4394 64.1387 48.4394C62.0754 48.4394 60.1621 49.0972 58.5983 50.2134C56.9089 47.5115 53.9067 45.7101 50.4924 45.7101C49.0268 45.7101 47.6403 46.0431 46.3985 46.6326V31.3815C46.3985 26.114 42.1135 21.8291 36.8461 21.8291C31.5786 21.8291 27.2936 26.114 27.2936 31.3815V82.6725L17.3782 71.0814C14.155 67.3969 8.8793 66.3597 4.52613 68.535C2.45462 69.5721 0.912591 71.4444 0.295778 73.6769C-0.321035 75.9094 0.0364968 78.303 1.27831 80.2571L1.28377 80.2626ZM5.56052 75.1371C5.77068 74.3838 6.27013 73.7724 6.97155 73.4231C9.09765 72.3559 11.6823 72.869 13.2516 74.6567L27.9487 91.8401C28.691 92.7053 29.8973 93.0137 30.9672 92.6262C32.0398 92.2277 32.7494 91.2069 32.7494 90.0661V31.387C32.7494 29.1299 34.5862 27.2931 36.8433 27.2931C39.1004 27.2931 40.9372 29.1299 40.9372 31.387V70.9613C40.9372 72.4706 42.1599 73.6905 43.6665 73.6905C45.173 73.6905 46.3957 72.4706 46.3957 70.9613V55.268C46.3957 53.0109 48.2325 51.1741 50.4896 51.1741C52.7467 51.1741 54.5835 53.0109 54.5835 55.268V70.9613C54.5835 72.4706 55.8062 73.6905 57.3128 73.6905C58.8193 73.6905 60.042 72.4706 60.042 70.9613V57.9973C60.042 55.7402 61.8788 53.9034 64.1359 53.9034C66.393 53.9034 68.2298 55.7402 68.2298 57.9973V70.9613C68.2298 72.4706 69.4525 73.6905 70.9591 73.6905C72.4657 73.6905 73.6884 72.4706 73.6884 70.9613V60.7265C73.6884 58.4694 75.5252 56.6327 77.7823 56.6327C80.0394 56.6327 81.8762 58.4694 81.8762 60.7265V81.8783C81.8762 81.9356 81.8761 81.9875 81.8816 82.0448C81.8789 82.0994 81.8762 82.1513 81.8762 82.2086C81.8762 86.9848 80.8281 91.8019 78.8467 96.1387L72.1791 110.836C71.3712 112.618 70.9591 114.515 70.9591 116.472V122.817C70.9591 124.324 69.7337 125.547 68.2298 125.547H38.208C36.7041 125.547 35.4787 124.324 35.4787 122.817V117.252C35.4787 114.755 34.3597 112.424 32.4083 110.86L26.6413 106.248C23.0142 103.347 19.9274 99.8723 17.4683 95.9258L5.89895 77.3559C5.465 76.6736 5.34764 75.8931 5.55779 75.1371H5.56052Z" fill="white"/>
</svg>
