<svg width="122" height="122" viewBox="0 0 122 122" fill="none" xmlns="http://www.w3.org/2000/svg">
<path d="M57.0648 35.4189H29.5165C28.9946 35.4189 28.4941 35.6263 28.1251 35.9953C27.7561 36.3643 27.5488 36.8648 27.5488 37.3867V62.9672H25.581C25.0591 62.9672 24.5586 63.1746 24.1896 63.5436C23.8206 63.9126 23.6133 64.4131 23.6133 64.935V92.4833C23.6133 93.0051 23.8206 93.5056 24.1896 93.8747C24.5586 94.2437 25.0591 94.451 25.581 94.451H80.6776C81.1995 94.451 81.7 94.2437 82.069 93.8747C82.438 93.5056 82.6453 93.0051 82.6453 92.4833V64.935C82.6453 64.4131 82.438 63.9126 82.069 63.5436C81.7 63.1746 81.1995 62.9672 80.6776 62.9672H59.0325V37.3867C59.0325 36.8648 58.8252 36.3643 58.4562 35.9953C58.0872 35.6263 57.5867 35.4189 57.0648 35.4189ZM41.3229 39.3544H45.2584V45.2576H41.3229V39.3544ZM51.1616 90.5155H27.5488V66.9027H33.452V74.7737C33.452 75.2955 33.6593 75.796 34.0283 76.1651C34.3973 76.5341 34.8978 76.7414 35.4197 76.7414H43.2906C43.8125 76.7414 44.313 76.5341 44.682 76.1651C45.0511 75.796 45.2584 75.2955 45.2584 74.7737V66.9027H51.1616V90.5155ZM37.3874 72.8059V66.9027H41.3229V72.8059H37.3874ZM31.4842 62.9672V39.3544H37.3874V47.2254C37.3874 47.7472 37.5947 48.2477 37.9638 48.6168C38.3328 48.9858 38.8333 49.1931 39.3552 49.1931H47.2261C47.748 49.1931 48.2485 48.9858 48.6175 48.6168C48.9865 48.2477 49.1938 47.7472 49.1938 47.2254V39.3544H55.097V62.9672H31.4842ZM64.9357 66.9027H68.8712V72.8059H64.9357V66.9027ZM61.0003 66.9027V74.7737C61.0003 75.2955 61.2076 75.796 61.5766 76.1651C61.9456 76.5341 62.4461 76.7414 62.968 76.7414H70.8389C71.3608 76.7414 71.8613 76.5341 72.2303 76.1651C72.5993 75.796 72.8067 75.2955 72.8067 74.7737V66.9027H78.7099V90.5155H55.097V66.9027H61.0003Z" fill="white"/>
<path d="M88.2139 49.8383V49.3995C89.0739 49.0302 89.8935 48.5732 90.6598 48.0359L91.1734 48.3192C91.9355 48.7447 92.8328 48.8582 93.6768 48.6358C94.5208 48.4134 95.2457 47.8725 95.6992 47.1268L97.9149 43.455C98.1425 43.0822 98.2917 42.667 98.3536 42.2347C98.4156 41.8023 98.3888 41.3619 98.275 40.9402C98.1579 40.5119 97.9563 40.1113 97.6818 39.7622C97.4074 39.413 97.0658 39.1225 96.6772 38.9076L96.2521 38.6734C96.3413 37.8178 96.3413 36.9552 96.2521 36.0996L96.6772 35.8655C97.0658 35.6506 97.4074 35.36 97.6818 35.0109C97.9563 34.6617 98.1579 34.2612 98.275 33.8328C98.3887 33.4115 98.4156 32.9716 98.354 32.5396C98.2924 32.1076 98.1437 31.6927 97.9168 31.32L95.6972 27.6443C95.2429 26.8994 94.5171 26.36 93.6728 26.1397C92.8286 25.9195 91.9318 26.0356 91.1714 26.4636L90.6598 26.745C89.893 26.2085 89.0735 25.7516 88.2139 25.3814V24.9426C88.2067 24.0609 87.8496 23.2183 87.2212 22.5998C86.5928 21.9814 85.7445 21.6378 84.8629 21.6446H80.4237C79.5444 21.6394 78.6988 21.9826 78.0719 22.5991C77.4451 23.2157 77.0879 24.0554 77.0785 24.9347V25.3833C76.2186 25.7527 75.399 26.2097 74.6326 26.747L74.119 26.4636C73.3572 26.0372 72.4595 25.9231 71.6153 26.1456C70.771 26.368 70.0461 26.9096 69.5933 27.6561L67.3776 31.3279C67.15 31.7006 67.0007 32.1158 66.9388 32.5482C66.8769 32.9805 66.9037 33.421 67.0175 33.8426C67.1345 34.271 67.3362 34.6716 67.6106 35.0207C67.8851 35.3698 68.2267 35.6604 68.6153 35.8753L69.0403 36.1095C68.9511 36.9651 68.9511 37.8276 69.0403 38.6833L68.6153 38.9174C68.2267 39.1323 67.8851 39.4229 67.6106 39.772C67.3362 40.1211 67.1345 40.5217 67.0175 40.9501C66.9038 41.3713 66.8769 41.8113 66.9385 42.2433C67 42.6752 67.1488 43.0902 67.3756 43.4629L69.5952 47.1386C70.0496 47.8835 70.7754 48.4229 71.6196 48.6431C72.4639 48.8634 73.3607 48.7472 74.121 48.3192L74.6326 48.0379C75.3995 48.5743 76.219 49.0312 77.0785 49.4015V49.8403C77.0884 50.7192 77.4458 51.5584 78.0726 52.1746C78.6995 52.7907 79.5447 53.1336 80.4237 53.1284H84.8629C85.7432 53.1352 86.5903 52.7927 87.2184 52.176C87.8466 51.5593 88.2046 50.7186 88.2139 49.8383ZM84.2785 49.1929H81.0081V48.9509C81.0002 48.2848 80.7922 47.6365 80.4111 47.0901C80.03 46.5438 79.4935 46.1246 78.8711 45.8871C78.1016 45.5797 77.3743 45.1757 76.7066 44.6848C76.1799 44.2972 75.5539 44.067 74.9015 44.021C74.2491 43.975 73.597 44.1152 73.0211 44.4251L72.6708 44.6219L71.0966 42.0264L71.2934 41.9123C71.8736 41.5983 72.3449 41.1158 72.6453 40.5284C72.9456 39.9411 73.0609 39.2764 72.9758 38.6222C72.9206 38.2127 72.8962 37.7997 72.903 37.3865C72.9025 36.9743 72.9321 36.5626 72.9915 36.1547C73.0778 35.5009 72.9635 34.8362 72.6638 34.2487C72.3641 33.6612 71.8931 33.1786 71.3131 32.8647L71.1163 32.7486L72.6905 30.1531L73.0407 30.3499C73.6175 30.6612 74.2711 30.8017 74.9248 30.755C75.5786 30.7083 76.2055 30.4763 76.7322 30.0862C77.3999 29.5965 78.1273 29.1938 78.8967 28.8879C79.5191 28.6503 80.0556 28.2312 80.4367 27.6848C80.8178 27.1385 81.0258 26.4902 81.0337 25.8241V25.5801H84.3041V25.8221C84.312 26.4882 84.52 27.1365 84.901 27.6829C85.2821 28.2292 85.8187 28.6484 86.441 28.8859C87.2105 29.1934 87.9379 29.5974 88.6055 30.0882C89.1325 30.4754 89.7584 30.7053 90.4107 30.7513C91.063 30.7973 91.715 30.6574 92.2911 30.3479L92.6413 30.1511L94.2155 32.7466L94.0188 32.8607C93.4386 33.1747 92.9672 33.6572 92.6668 34.2446C92.3665 34.832 92.2513 35.4966 92.3363 36.1508C92.383 36.5609 92.3988 36.974 92.3836 37.3865C92.3841 37.7987 92.3545 38.2104 92.295 38.6183C92.2087 39.2722 92.323 39.9368 92.6227 40.5243C92.9225 41.1118 93.3935 41.5944 93.9735 41.9084L94.1703 42.0245L92.5961 44.6199L92.2458 44.4231C91.6687 44.113 91.0154 43.9731 90.3619 44.0198C89.7084 44.0665 89.0815 44.2978 88.5544 44.6868C87.8867 45.1765 87.1593 45.5792 86.3898 45.8852C85.7675 46.1227 85.231 46.5418 84.8499 47.0882C84.4688 47.6345 84.2608 48.2828 84.2529 48.9489L84.2785 49.1929Z" fill="white"/>
<path d="M89.5359 37.3871C89.5359 36.0249 89.1319 34.6934 88.3752 33.5608C87.6184 32.4282 86.5428 31.5455 85.2844 31.0243C84.0259 30.503 82.6412 30.3666 81.3052 30.6323C79.9692 30.8981 78.7421 31.554 77.7789 32.5172C76.8157 33.4804 76.1598 34.7075 75.8941 36.0435C75.6283 37.3794 75.7647 38.7642 76.286 40.0226C76.8072 41.2811 77.69 42.3567 78.8225 43.1135C79.9551 43.8702 81.2867 44.2741 82.6488 44.2741C84.4754 44.2741 86.2271 43.5486 87.5187 42.257C88.8103 40.9654 89.5359 39.2136 89.5359 37.3871ZM82.6488 40.3387C82.065 40.3387 81.4944 40.1656 81.009 39.8412C80.5236 39.5169 80.1453 39.0559 79.9219 38.5166C79.6985 37.9773 79.64 37.3838 79.7539 36.8112C79.8678 36.2387 80.1489 35.7128 80.5617 35.3C80.9745 34.8872 81.5004 34.6061 82.073 34.4922C82.6455 34.3783 83.239 34.4368 83.7783 34.6602C84.3177 34.8836 84.7786 35.2619 85.103 35.7473C85.4273 36.2326 85.6004 36.8033 85.6004 37.3871C85.6004 38.1699 85.2894 38.9206 84.7359 39.4742C84.1824 40.0277 83.4316 40.3387 82.6488 40.3387Z" fill="white"/>
<path d="M60.9998 122C71.7059 122.005 82.2248 119.193 91.4997 113.845L89.532 110.439C77.3102 117.549 62.894 119.897 49.0476 117.034C35.2011 114.17 22.899 106.296 14.4999 94.922C6.10079 83.5475 2.19591 69.473 3.53394 55.397C4.87197 41.321 11.3587 28.2343 21.7505 18.646C32.1423 9.05775 45.7076 3.64278 59.8456 3.43938C73.9836 3.23597 87.6991 8.25844 98.3624 17.5438C109.026 26.8291 115.886 39.7238 117.629 53.7555C119.371 67.7872 115.873 81.9682 107.804 93.5796L103.184 90.0377C102.911 89.8277 102.587 89.6932 102.245 89.6478C101.903 89.6024 101.555 89.6476 101.236 89.7789C100.917 89.9103 100.639 90.1231 100.428 90.3961C100.217 90.6691 100.082 90.9927 100.036 91.3344L97.8988 107.045C97.8609 107.323 97.883 107.606 97.9636 107.875C98.0442 108.144 98.1815 108.393 98.3663 108.605C98.551 108.816 98.7789 108.986 99.0346 109.102C99.2903 109.218 99.5679 109.278 99.8488 109.278C100.111 109.278 100.37 109.225 100.61 109.123L115.237 102.981C115.554 102.848 115.831 102.634 116.04 102.36C116.249 102.086 116.382 101.761 116.426 101.42C116.47 101.078 116.424 100.731 116.292 100.413C116.16 100.095 115.947 99.8167 115.673 99.6068L110.927 95.9665C118.151 85.7396 122.021 73.521 122 60.9998C122 48.9352 118.422 37.1415 111.719 27.1102C105.017 17.0788 95.4897 9.26029 84.3434 4.64336C73.1972 0.0264302 60.9321 -1.18157 49.0993 1.17212C37.2665 3.52581 26.3974 9.33548 17.8665 17.8665C9.33548 26.3974 3.52581 37.2666 1.17212 49.0994C-1.18157 60.9322 0.0264302 73.1972 4.64336 84.3434C9.26029 95.4897 17.0788 105.017 27.1102 111.719C37.1415 118.422 48.9352 122 60.9998 122ZM102.263 104.17L103.477 95.2227L110.589 100.673L102.263 104.17Z" fill="white"/>
</svg>
