<svg width="131" height="132" viewBox="0 0 131 132" fill="none" xmlns="http://www.w3.org/2000/svg">
<path d="M23.2149 46.5784C21.8026 46.5784 20.6562 47.7237 20.6562 49.136C20.6562 50.5482 21.8026 51.6946 23.2149 51.6946C24.6271 51.6946 25.7735 50.5482 25.7735 49.136C25.7735 47.7237 24.6271 46.5784 23.2149 46.5784Z" fill="white"/>
<path d="M94.9039 77.1497C94.4252 76.67 93.7735 76.4001 93.0949 76.4001C93.0689 76.4051 92.0855 76.3501 91.2859 77.1497L89.4779 78.9577L83.5991 73.0799C96.572 54.8948 94.5991 29.8095 78.6228 13.8342C60.6266 -4.16199 31.4965 -4.16498 13.4983 13.8342C-4.49792 31.8294 -4.50092 60.9605 13.4983 78.9587C29.4346 94.896 54.5099 96.9409 72.743 83.935L78.6218 89.8138L76.8138 91.6218C75.8153 92.6203 75.8143 94.2414 76.8138 95.2408L109.16 127.584C114.158 132.585 122.249 132.588 127.248 127.585C132.25 122.588 132.252 114.496 127.248 109.497L94.9039 77.1497ZM82.2398 86.1958L76.7618 80.7178C77.3985 80.1471 78.0211 79.5614 78.6228 78.9587C79.2255 78.357 79.8111 77.7344 80.3818 77.0987L85.8598 82.5767L82.2398 86.1958ZM17.1163 75.3407C1.11902 59.3444 1.11702 33.4505 17.1163 17.4522C33.1126 1.45495 59.0065 1.45295 75.0048 17.4522C90.9661 33.4125 91.047 59.3004 75.0048 75.3407C58.7816 91.5658 32.8947 91.1201 17.1163 75.3407ZM93.0949 82.5767L100.33 89.8128L89.4769 100.666L82.2408 93.4308L93.0949 82.5767ZM123.63 123.967C120.632 126.969 115.78 126.97 112.779 123.967L93.0949 104.284L103.948 93.4308L123.631 113.116C126.632 116.113 126.635 120.966 123.63 123.967Z" fill="white"/>
<path d="M71.3889 21.071C57.3975 7.07962 34.7309 7.07163 20.7335 21.069C6.77112 35.0344 6.77112 57.758 20.7335 71.7244C34.7329 85.7228 57.3865 85.7238 71.3869 71.7244C85.3523 57.758 85.3533 35.0354 71.3889 21.071ZM67.7689 68.1054C55.7704 80.1038 36.353 80.1068 24.3515 68.1064C12.3841 56.1349 12.3841 36.6575 24.3515 24.686C36.344 12.6946 55.7744 12.6916 67.7709 24.689C79.7404 36.6585 79.7394 56.1349 67.7689 68.1054Z" fill="white"/>
<path d="M46.0591 20.8154C39.2208 20.8154 32.7963 23.476 27.9689 28.3063C25.1705 31.1048 23.1106 34.411 21.8473 38.135C21.3935 39.4723 22.1091 40.9255 23.4474 41.3792C24.7877 41.834 26.2389 41.1144 26.6926 39.7791C27.7011 36.8057 29.3482 34.1632 31.587 31.9234C35.4489 28.0605 40.5881 25.9326 46.0591 25.9326C47.4723 25.9326 48.6177 24.7873 48.6177 23.374C48.6177 21.9608 47.4723 20.8154 46.0591 20.8154Z" fill="white"/>
</svg>
