<svg width="67" height="67" viewBox="0 0 67 67" fill="none" xmlns="http://www.w3.org/2000/svg">
<circle cx="33.1897" cy="33.8615" r="31.8537" fill="white"/>
<path d="M19.8987 21.1424H16.236L26.2216 49.3694L31.8119 33.3944L27.4777 21.1424H23.6132V18.4528H40.7265V21.1424H36.719L46.7045 49.3694L50.2939 39.1119C55.0024 25.9701 46.4347 21.8764 46.4347 18.9435C46.4347 16.0106 48.8123 13.6331 51.7451 13.6331C51.9037 13.6331 52.0578 13.6417 52.2088 13.6557C47.2395 8.96465 40.5388 6.08789 33.1656 6.08789C23.5314 6.08789 15.0451 10.9987 10.0703 18.4528H19.8984V21.1424H19.8987Z" fill="#00769D"/>
<path d="M5.41406 33.8369C5.41406 44.4603 11.3851 53.6878 20.1532 58.3506L7.63093 22.9531C6.20448 26.295 5.41406 29.9735 5.41406 33.8369Z" fill="#00769D"/>
<path d="M57.3097 20.1641C57.7066 22.5011 57.5865 25.1278 56.9774 27.7647H57.0878L56.6682 28.9635C56.4196 29.8292 56.1065 30.7148 55.7509 31.5849L46.2031 58.3333C54.9528 53.6649 60.9086 44.4473 60.9086 33.8373C60.9086 28.8656 59.5998 24.2 57.3097 20.1641Z" fill="#00769D"/>
<path d="M24.6055 60.2385C27.3012 61.1118 30.1766 61.5854 33.1633 61.5854C36.0121 61.5854 38.7602 61.1555 41.3473 60.3579L33.2307 37.4141L24.6055 60.2385Z" fill="#00769D"/>
<path d="M56.6127 10.387C50.349 4.12336 42.021 0.673828 33.1628 0.673828C24.3047 0.673828 15.9768 4.12336 9.71317 10.387C3.44954 16.6506 0 24.9785 0 33.8368C0 42.695 3.44954 51.0229 9.71317 57.2865C15.9768 63.5501 24.3048 66.9997 33.163 66.9997C42.0211 66.9997 50.349 63.5501 56.6128 57.2865C62.8765 51.0229 66.326 42.6948 66.326 33.8368C66.3258 24.9785 62.8763 16.6506 56.6127 10.387ZM33.1628 64.6603C16.1667 64.6603 2.3394 50.8329 2.3394 33.8368C2.3394 16.8407 16.1667 3.01323 33.1628 3.01323C50.159 3.01323 63.9863 16.8407 63.9863 33.8368C63.9863 50.8329 50.1591 64.6603 33.1628 64.6603Z" fill="#00769D"/>
</svg>
