<svg width="91" height="51" viewBox="0 0 91 51" fill="none" xmlns="http://www.w3.org/2000/svg">
<path d="M44.7505 29.5352C44.4698 29.5352 44.1967 29.5934 43.955 29.7307L36.3074 34.1659C35.8125 34.4524 35.5117 34.9931 35.5117 35.5686V44.4228C35.5117 44.9978 35.8125 45.5379 36.3074 45.825L38.3046 46.9829C39.275 47.4631 39.6327 47.4556 40.0744 47.4556C41.511 47.4556 42.3313 46.5802 42.3313 45.0588V36.3185C42.3313 36.195 42.2248 36.1066 42.1041 36.1066H41.1461C41.0233 36.1066 40.9188 36.195 40.9188 36.3185V45.0588C40.9188 45.733 40.2193 46.4113 39.0841 45.8413L37.0057 44.6184C36.9321 44.5783 36.8757 44.5074 36.8757 44.4228V35.5683C36.8757 35.4845 36.9314 35.399 37.0057 35.3564L44.637 30.9378C44.6715 30.9175 44.7107 30.9069 44.7507 30.9069C44.7906 30.9069 44.8298 30.9175 44.8643 30.9378L52.4959 35.3567C52.5685 35.4006 52.6259 35.482 52.6259 35.5688V44.4231C52.6259 44.5076 52.5834 44.5942 52.5121 44.635L44.8643 49.0538C44.7988 49.0931 44.7086 49.0931 44.637 49.0538L42.6723 47.8799C42.6424 47.8636 42.609 47.8551 42.5749 47.8551C42.5409 47.8551 42.5075 47.8636 42.4776 47.8799C41.9353 48.1886 41.8333 48.2244 41.3246 48.4016C41.1994 48.4456 41.0091 48.5138 41.3896 48.728L43.955 50.2441C44.1969 50.3843 44.4715 50.4575 44.7508 50.4562C45.03 50.458 45.3046 50.3848 45.5463 50.2443L53.1941 45.8252C53.689 45.5363 53.9896 44.998 53.9896 44.4231V35.5686C53.9896 34.9934 53.689 34.4535 53.1941 34.1664L45.5463 29.7312C45.3066 29.5936 45.0317 29.5354 44.7508 29.5354L44.7505 29.5352Z" fill="#83CD29"/>
<path d="M46.7969 35.8613C44.6192 35.8613 43.3222 36.7921 43.3222 38.34C43.3222 40.0189 44.6095 40.4803 46.6997 40.6879C49.2001 40.9338 49.3949 41.3025 49.3949 41.7968C49.3949 42.6542 48.7143 43.0197 47.1057 43.0197C45.0843 43.0197 44.6402 42.513 44.4915 41.5033C44.4739 41.395 44.3906 41.3075 44.2802 41.3075H43.2898C43.1679 41.3075 43.0625 41.4131 43.0625 41.536C43.0625 42.8285 43.7625 44.3569 47.1057 44.3569C49.5256 44.3569 50.9213 43.403 50.9213 41.7316C50.9213 40.0749 49.7939 39.63 47.4464 39.3184C45.0746 39.0031 44.8485 38.8488 44.8485 38.2911C44.8485 37.8305 45.0403 37.2145 46.7969 37.2145C48.3663 37.2145 48.9462 37.5545 49.1839 38.6172C49.2046 38.7169 49.2922 38.7964 49.3949 38.7964H50.3856C50.4465 38.7964 50.5056 38.7588 50.5478 38.7149C50.5894 38.6679 50.6187 38.6151 50.6128 38.5519C50.4594 36.7221 49.2444 35.8613 46.7969 35.8613Z" fill="#83CD29"/>
<path d="M61.1493 0.382918C61.0638 0.382975 60.9798 0.405392 60.9055 0.447961C60.8318 0.491309 60.7705 0.553209 60.7278 0.627563C60.6851 0.701917 60.6624 0.786159 60.662 0.87199V13.3463C60.662 13.4687 60.6054 13.5783 60.4998 13.6398C60.448 13.67 60.3892 13.686 60.3293 13.686C60.2694 13.686 60.2105 13.67 60.1588 13.6398L58.1291 12.4658C57.981 12.3798 57.813 12.3345 57.642 12.3345C57.4709 12.3345 57.3029 12.3798 57.1548 12.4658L49.0525 17.1619C48.7496 17.3375 48.5655 17.6749 48.5655 18.0262V27.4185C48.5655 27.7694 48.7499 28.0907 49.0525 28.2664L57.1548 32.9627C57.3028 33.0489 57.4709 33.0943 57.642 33.0943C57.813 33.0943 57.9811 33.0489 58.1291 32.9627L66.2314 28.2664C66.3797 28.1806 66.5029 28.0571 66.5885 27.9082C66.674 27.7593 66.7189 27.5904 66.7186 27.4185V4.00291C66.7184 3.827 66.6717 3.6543 66.5833 3.50244C66.4949 3.35058 66.3679 3.22501 66.2154 3.13854L61.3927 0.431644C61.3171 0.389263 61.2332 0.381785 61.1493 0.382918ZM9.02782 12.1071C8.87346 12.1132 8.72813 12.1404 8.58957 12.221L0.487006 16.9173C0.338584 17.0029 0.215357 17.1265 0.129826 17.2754C0.0442965 17.4243 -0.000492432 17.5933 4.08365e-06 17.7652L0.0162525 30.3702C0.0162525 30.5454 0.106296 30.7083 0.259754 30.794C0.333325 30.8384 0.417537 30.8619 0.503368 30.8619C0.589198 30.8619 0.67341 30.8384 0.746982 30.794L5.55314 28.0221C5.85757 27.8403 6.05639 27.5244 6.05639 27.174V21.2875C6.05639 20.9362 6.24031 20.6139 6.54362 20.4394L8.58934 19.2491C8.73725 19.1628 8.90547 19.1177 9.07657 19.1186C9.24357 19.1186 9.41508 19.1605 9.56357 19.2491L11.6095 20.4394C11.7581 20.525 11.8814 20.6485 11.967 20.7975C12.0526 20.9464 12.0974 21.1155 12.0968 21.2875V27.1738C12.0968 27.5242 12.2976 27.8423 12.6 28.0218L17.4062 30.794C17.4797 30.8384 17.5639 30.8619 17.6498 30.8619C17.7356 30.8619 17.8198 30.8384 17.8934 30.794C17.9674 30.751 18.0289 30.6891 18.0717 30.6147C18.1145 30.5403 18.137 30.4559 18.1371 30.37L18.1529 17.7652C18.1539 17.5932 18.1093 17.424 18.0237 17.275C17.9381 17.126 17.8146 17.0026 17.6659 16.9173L9.56357 12.221C9.42659 12.1404 9.2808 12.1134 9.12531 12.1071H9.02782ZM81.8353 12.221C81.6661 12.221 81.5002 12.2641 81.3483 12.3516L73.246 17.0479C73.0976 17.1336 72.9744 17.2571 72.8889 17.406C72.8033 17.5549 72.7584 17.7238 72.7588 17.8957V27.288C72.7588 27.6413 72.9569 27.9613 73.262 28.1361L81.2996 32.7344C81.5963 32.9044 81.9588 32.9173 82.2576 32.7503L87.1287 30.0273C87.2833 29.9412 87.3878 29.7803 87.3885 29.6035C87.3893 29.5174 87.3672 29.4327 87.3243 29.3581C87.2815 29.2836 87.2196 29.2219 87.145 29.1795L78.9939 24.4832C78.8413 24.3957 78.7341 24.2187 78.7341 24.0429V21.108C78.7341 20.9323 78.8425 20.7714 78.9939 20.6839L81.5268 19.2163C81.6009 19.1732 81.6849 19.1506 81.7705 19.1506C81.856 19.1506 81.94 19.1732 82.0141 19.2163L84.5468 20.6839C84.621 20.7268 84.6826 20.7885 84.7254 20.8629C84.7682 20.9373 84.7907 21.0218 84.7905 21.1077V23.4232C84.7903 23.5092 84.8127 23.5936 84.8555 23.6681C84.8982 23.7425 84.9598 23.8042 85.034 23.847C85.1859 23.9352 85.3696 23.9354 85.521 23.847L90.3762 21.0103C90.5243 20.9242 90.6472 20.8006 90.7328 20.6517C90.8183 20.5029 90.8633 20.3341 90.8634 20.1622V17.8959C90.8634 17.5458 90.6783 17.2237 90.3762 17.0479L82.3226 12.3516C82.1745 12.2656 82.0064 12.2204 81.8353 12.221ZM57.6093 19.2328C57.6518 19.2328 57.7014 19.2432 57.7393 19.2652L60.516 20.8795C60.5914 20.9233 60.646 21.0042 60.646 21.0914V24.32C60.646 24.4077 60.5918 24.4884 60.516 24.5322L57.7393 26.1465C57.7022 26.1677 57.6603 26.1789 57.6176 26.1789C57.5749 26.1789 57.5329 26.1677 57.4958 26.1465L54.7194 24.5322C54.6438 24.4882 54.5894 24.4077 54.5894 24.32V21.0914C54.5894 21.004 54.644 20.9237 54.7194 20.8795L57.4958 19.2655C57.53 19.2441 57.5694 19.2329 57.6096 19.233L57.6093 19.2328Z" fill="white"/>
<path d="M33.3656 12.1719C33.1968 12.1719 33.0298 12.2149 32.8786 12.3024L24.7763 16.9824C24.4732 17.1576 24.2891 17.4957 24.2891 17.8465V27.2388C24.2891 27.5901 24.4734 27.911 24.7763 28.0869L32.8786 32.7829C33.0266 32.8693 33.1946 32.9147 33.3657 32.9147C33.5368 32.9147 33.7049 32.8693 33.8529 32.7829L41.9552 28.0869C42.1035 28.0011 42.2267 27.8775 42.3122 27.7286C42.3977 27.5797 42.4425 27.4107 42.4422 27.2388V17.8465C42.4422 17.4952 42.258 17.1576 41.9552 16.9824L33.8529 12.3024C33.7048 12.2165 33.5367 12.1715 33.3656 12.1719ZM81.8174 20.5534C81.7851 20.5534 81.7492 20.5534 81.7201 20.5697L80.1614 21.4828C80.1323 21.4991 80.108 21.5227 80.0909 21.5513C80.0738 21.5799 80.0645 21.6126 80.0639 21.646V23.4396C80.0639 23.5071 80.1027 23.569 80.1614 23.6027L81.7201 24.4995C81.7786 24.5335 81.8409 24.5335 81.8986 24.4995L83.4573 23.6025C83.4863 23.5862 83.5105 23.5626 83.5276 23.534C83.5447 23.5055 83.5541 23.4729 83.5548 23.4396V21.6458C83.5541 21.6125 83.5447 21.5799 83.5276 21.5513C83.5105 21.5227 83.4863 21.4991 83.4573 21.4828L81.8986 20.5695C81.8697 20.5525 81.8499 20.5534 81.8174 20.5534Z" fill="#83CD29"/>
</svg>
