<svg width="72" height="51" viewBox="0 0 72 51" fill="none" xmlns="http://www.w3.org/2000/svg">
<path d="M49.5343 36.4847C56.3564 29.6625 65.8334 23.6212 70.4941 16.8665C71.6153 15.2413 70.8298 12.9894 68.9261 12.4655C66.4577 11.7863 62.4098 11.0983 56.1389 11.0983C43.7554 11.0983 5.57255 13.484 0 0.320312C0 0.320312 3.30231 14.6069 27.4503 15.8452C51.5983 17.0835 50.253 15.4399 57.6906 16.8772C64.6782 18.2276 61.8147 22.553 58.822 25.5457C55.8292 28.5387 50.979 32.5632 49.5343 36.4847Z" fill="#24C2F1"/>
<path d="M41.6911 50.7259C44.4264 50.7259 46.6438 48.5084 46.6438 45.7731C46.6438 43.0377 44.4264 40.8203 41.6911 40.8203C38.9557 40.8203 36.7383 43.0377 36.7383 45.7731C36.7383 48.5084 38.9557 50.7259 41.6911 50.7259Z" fill="#24C2F1"/>
<path d="M18.3707 50.7259C21.1061 50.7259 23.3235 48.5084 23.3235 45.7731C23.3235 43.0377 21.1061 40.8203 18.3707 40.8203C15.6354 40.8203 13.418 43.0377 13.418 45.7731C13.418 48.5084 15.6354 50.7259 18.3707 50.7259Z" fill="#24C2F1"/>
</svg>
