<svg width="62" height="62" viewBox="0 0 62 62" fill="none" xmlns="http://www.w3.org/2000/svg">
<path d="M31 62C48.1208 62 62 48.1208 62 31C62 13.8792 48.1208 0 31 0C13.8792 0 0 13.8792 0 31C0 48.1208 13.8792 62 31 62Z" fill="#A2DBEB"/>
<path d="M51.2744 54.4528C49.5571 55.9368 47.6763 57.2366 45.6593 58.3195C45.0703 58.6378 44.469 58.9373 43.8551 59.2163C39.9389 61.0039 35.5864 62.0002 31.0004 62.0002C26.4145 62.0002 22.062 61.004 18.1459 59.2163C17.5341 58.9373 16.9329 58.6397 16.3417 58.3216C14.3267 57.2388 12.4439 55.9368 10.7266 54.4528C15.7878 49.0319 22.9983 45.6426 31.0006 45.6426C39.0026 45.6426 46.2132 49.0318 51.2744 54.4528Z" fill="#525353"/>
<path d="M46.5591 57.8178C45.9081 58.1982 45.2427 58.5516 44.5647 58.8823C40.4665 60.8807 35.8641 62.0008 30.9992 62.0008C26.1322 62.0008 21.5277 60.8786 17.4316 58.8802C16.7537 58.5496 16.0903 58.1942 15.4414 57.8158C19.6761 53.8892 25.0948 51.5332 30.9993 51.5332C36.9058 51.5332 42.3246 53.8892 46.5591 57.8178Z" fill="black"/>
<path d="M24.1824 46.5352H20.669L17.8789 55.2751H21.3922L24.1824 46.5352Z" fill="#BFB098"/>
<path d="M37.8203 46.5352H41.3336L44.1238 55.2751H40.6104L37.8203 46.5352Z" fill="#BFB098"/>
<path d="M52.8524 31.2064C52.8524 31.2869 52.8524 31.3676 52.8503 31.4482C52.8152 34.8356 52.0093 38.0367 50.5997 40.8867C49.1757 43.7717 47.1359 46.2951 44.6497 48.2896C40.9009 51.2987 36.1413 53.0967 30.9643 53.0967C21.6457 53.0967 13.6891 47.2748 10.5312 39.0701C9.58887 36.6294 9.07422 33.9779 9.07422 31.2065C9.07422 19.1186 18.8743 9.31836 30.9643 9.31836C39.1379 9.31836 46.2679 13.801 50.0252 20.4432C50.7506 21.7247 51.352 23.0865 51.8087 24.5125C52.4866 26.6227 52.8524 28.8711 52.8524 31.2064Z" fill="#525353"/>
<path d="M45.0528 47.7083L44.6498 48.2913C40.901 51.3003 36.1414 53.0983 30.9644 53.0983C21.6457 53.0983 13.6891 47.2765 10.5312 39.0718C10.7133 36.3314 11.4799 33.7502 12.7074 31.45C15.8964 25.4753 22.1914 21.4102 29.4351 21.4102C32.5185 21.4102 35.4904 22.5427 38.268 24.3097L39.4027 26.7649L40.5745 29.7967L45.0528 47.7083Z" fill="white"/>
<path d="M52.8544 31.2074C52.8544 31.2879 52.8544 31.3686 52.8524 31.4492C52.8172 34.8366 52.0114 38.0377 50.6017 40.8876L47.2929 38.6825L42.9674 31.4491L41.1445 28.4007C41.6095 24.7323 44.5029 21.3223 47.3961 21.3223C47.5511 21.3223 47.7061 21.3367 47.8611 21.3656C48.5989 21.5 49.3409 21.9423 50.0498 22.5602C50.6738 23.1037 51.2692 23.7836 51.8106 24.5132C52.4886 26.6236 52.8544 28.8721 52.8544 31.2074Z" fill="white"/>
<path d="M41.3477 27.3667C41.3477 27.3667 41.8127 19.1517 46.2561 18.5833C50.6995 18.0149 52.1977 28.2967 52.1977 28.2967L41.3477 27.3667Z" fill="black"/>
<path d="M50.0499 22.5604V31.4491H42.9674L41.1445 28.4007C41.6095 24.7323 44.5029 21.3223 47.3961 21.3223C48.2829 21.3225 49.1922 21.8123 50.0499 22.5604Z" fill="#BCBEBF"/>
<path d="M41.0594 50.6338C47.9063 49.681 54.6953 42.4704 54.6953 42.4704C52.1119 38.8351 47.1871 31.3062 41.0264 26.3049H41.0243C40.4704 25.8544 39.9062 25.4246 39.3337 25.0216C38.9823 24.7736 38.6248 24.536 38.2674 24.3086C38.224 26.2739 38.1124 29.1405 37.8438 31.449C37.8355 31.5192 37.8272 31.5874 37.819 31.6556C37.4614 34.5552 34.9628 39.6349 33.6815 42.5366V42.5387C33.227 43.5659 32.9271 44.3201 32.9271 44.6074C32.9271 45.709 32.3071 50.7372 39.6087 50.7372C39.7017 50.7372 39.7927 50.7351 39.8857 50.7331C40.2761 50.7225 40.6688 50.6895 41.0594 50.6338Z" fill="#F9B138"/>
<path d="M38.2667 24.3081C34.4248 16.7234 27.4038 17.1523 24.3498 18.2734C20.2682 19.7718 17.0648 23.6468 17.3232 27.16" fill="black"/>
<path d="M32.4457 21.7616C34.4586 22.2245 36.4054 23.1235 38.2675 24.3077C38.2469 25.2893 38.2076 26.4983 38.1394 27.7487C38.0731 29.001 37.9782 30.2948 37.8438 31.4481H32.7144H12.707C15.8959 25.4733 22.191 21.4082 29.4347 21.4082C30.4515 21.4082 31.4579 21.5322 32.4457 21.7616Z" fill="#BCBEBF"/>
<path d="M34.9947 43.8493C31.9635 43.2293 26.0391 39.5781 26.0391 39.5781C26.0391 39.5781 30.1725 45.1581 35.7525 46.7425L34.9947 43.8493Z" fill="black"/>
<path d="M46.9124 40.1973L41.0595 50.6339L39.8855 50.7331C39.7925 50.7351 39.7017 50.7372 39.6087 50.7372C32.3071 50.7372 32.9271 45.709 32.9271 44.6074C32.9271 44.3201 33.2267 43.5658 33.6814 42.5388V42.5366C34.8574 39.943 42.006 34.7267 42.2891 29.2646C42.5724 23.8026 46.9124 40.1973 46.9124 40.1973Z" fill="black"/>
<path d="M54.6949 42.4701L54.6928 42.4722L54.6908 42.4763C54.482 42.6933 47.7984 49.6953 41.059 50.6335C38.6431 48.7776 37.8391 47.0105 38.2649 44.8076C38.5439 43.3692 39.3478 41.7427 40.5733 39.7835C43.6733 34.8235 43.1215 29.8635 41.0239 26.3047H41.026C47.1867 31.306 52.1117 38.8349 54.6949 42.4701Z" fill="#E1006D"/>
<path d="M54.6928 42.4727L54.6908 42.4768C54.482 42.6938 47.7984 49.6958 41.059 50.634C38.6431 48.7781 37.8391 47.011 38.2649 44.8081H38.267C48.9784 46.3642 54.5481 42.5718 54.6928 42.4727Z" fill="#9D1D54"/>
<path d="M38.271 24.3078C38.2503 25.2894 38.2111 26.4984 38.1428 27.7488C38.0767 29.0012 37.9816 30.2948 37.8472 31.4483H32.7178L32.4492 28.4867V21.7617C34.4622 22.2247 36.4089 23.1235 38.271 24.3078Z" fill="#E2DEDC"/>
<path d="M52.8563 31.2066C52.8563 31.2872 52.8563 31.3678 52.8543 31.4485H47.8633V21.3652C48.6011 21.4996 49.343 21.9419 50.0519 22.5598C50.6759 23.1033 51.2713 23.7832 51.8128 24.5128C52.4905 26.6229 52.8563 28.8714 52.8563 31.2066Z" fill="#E2DEDC"/>
<path d="M34.857 30.8293L32.377 23.0449L30.4565 29.2546L22.457 31.4493L33.1347 33.7227L34.857 30.8293Z" fill="#919494"/>
<path d="M32.4466 34.4107C34.0825 34.4107 35.4088 33.0845 35.4088 31.4485C35.4088 29.8125 34.0825 28.4863 32.4466 28.4863C30.8106 28.4863 29.4844 29.8125 29.4844 31.4485C29.4844 33.0845 30.8106 34.4107 32.4466 34.4107Z" fill="black"/>
<path d="M50.0495 25.7656L48.8945 30.8462L51.2104 30.8818L50.0495 25.7656Z" fill="#919494"/>
<path d="M50.0508 33.6099C50.7153 33.6099 51.254 32.6418 51.254 31.4475C51.254 30.2533 50.7153 29.2852 50.0508 29.2852C49.3863 29.2852 48.8477 30.2533 48.8477 31.4475C48.8477 32.6418 49.3863 33.6099 50.0508 33.6099Z" fill="black"/>
<path d="M50.0478 31.1681C50.305 31.1681 50.5135 30.7934 50.5135 30.3311C50.5135 29.8689 50.305 29.4941 50.0478 29.4941C49.7905 29.4941 49.582 29.8689 49.582 30.3311C49.582 30.7934 49.7905 31.1681 50.0478 31.1681Z" fill="white"/>
<path d="M32.4481 31.0524C33.0278 31.0524 33.4977 30.5825 33.4977 30.0028C33.4977 29.4231 33.0278 28.9531 32.4481 28.9531C31.8684 28.9531 31.3984 29.4231 31.3984 30.0028C31.3984 30.5825 31.8684 31.0524 32.4481 31.0524Z" fill="#E2DEDC"/>
<path d="M44.5668 55.2754V58.8818C40.4685 60.8802 35.8661 62.0003 31.0012 62.0003C26.1342 62.0003 21.5297 60.8782 17.4336 58.8797V55.2755H44.5668V55.2754Z" fill="#BFB098"/>
<path d="M44.5656 55.2754V58.8818C40.4674 60.8802 35.8649 62.0003 31 62.0003V55.2754H44.5656Z" fill="#AA9676"/>
<path d="M45.6576 58.3196C45.0686 58.6379 44.4673 58.9374 43.8534 59.2164L43.591 55.8354H18.4064L18.144 59.2164C17.5323 58.9374 16.931 58.6398 16.3398 58.3216L16.687 54.3887H45.3104L45.6576 58.3196Z" fill="#8A7460"/>
</svg>
