<svg width="50" height="53" viewBox="0 0 50 53" fill="none" xmlns="http://www.w3.org/2000/svg">
<path d="M35.1759 22.3765V50.5736C31.9146 51.8526 28.3624 52.5546 24.6465 52.5546C20.9307 52.5546 17.3797 51.8526 14.1172 50.5736V22.3765L20.9718 18.418V46.6022L24.6465 48.7245L28.3212 46.6022V18.418L35.1759 22.3765Z" fill="#F36306"/>
<path d="M49.29 14.2263V38.7147C47.6046 41.4766 45.467 43.9322 42.9818 45.9791C42.7239 46.1912 42.4624 46.3996 42.1974 46.6022V18.3215L24.645 8.18787L7.0926 18.3215V46.6034C4.27062 44.4386 1.86096 41.7627 0 38.7158V14.2263L24.645 0L49.29 14.2263Z" fill="#F36306"/>
</svg>
