<svg width="57" height="64" viewBox="0 0 57 64" fill="none" xmlns="http://www.w3.org/2000/svg">
<path d="M49.1716 12.2492C49.1276 11.9281 48.8463 11.7504 48.6144 11.731C48.3824 11.7116 43.8542 11.6428 43.8542 11.6428C43.8542 11.6428 40.0671 7.96478 39.693 7.59043C39.3189 7.21608 38.5881 7.32964 38.3044 7.41313C38.3002 7.41437 37.5937 7.63316 36.4014 8.0023C36.2024 7.35598 35.909 6.56218 35.4908 5.76452C34.1422 3.19216 32.1681 1.83056 29.782 1.82708C29.7792 1.82708 29.7768 1.82708 29.7739 1.82708C29.6085 1.82708 29.4436 1.84261 29.2787 1.85765C29.2086 1.77316 29.1376 1.68942 29.063 1.60953C28.0242 0.497664 26.6901 -0.0440432 25.0935 0.00279704C22.0112 0.0911351 18.9432 2.31673 16.4547 6.26921C14.703 9.05105 13.3722 12.5457 12.9938 15.2504C9.45552 16.3461 6.97995 17.1128 6.9264 17.1296C5.14038 17.69 5.08422 17.7462 4.85002 19.4288C4.67272 20.7027 0 56.8403 0 56.8403L39.1662 63.6131L56.141 59.3939C56.141 59.3939 49.2155 12.5704 49.1716 12.2492ZM15.1879 14.5707C16.247 9.61885 20.3963 2.18988 25.1527 2.05308C25.8763 2.03793 26.4858 2.19671 27.0062 2.53925C26.1738 2.9715 25.3685 3.59273 24.6133 4.4028C22.6557 6.50279 21.1562 9.76347 20.5582 12.9077C18.692 13.4856 16.867 14.0508 15.1879 14.5707ZM29.3511 10.1852C27.2993 10.8204 25.0593 11.5141 22.8122 12.2098C23.4449 9.78981 24.6423 7.38033 26.1139 5.8018C26.6613 5.21462 27.4272 4.55935 28.3339 4.18525C29.187 5.96282 29.3717 8.48275 29.3511 10.1852ZM31.3999 9.55076C31.3771 7.99012 31.1908 5.81944 30.4638 3.94297C32.8022 4.38603 33.9536 7.03194 34.4395 8.6096C33.5384 8.88853 32.5119 9.20635 31.3999 9.55076Z" fill="#95BF47"/>
<path d="M48.6152 11.7301C48.3832 11.7108 43.855 11.6419 43.855 11.6419C43.855 11.6419 40.0679 7.96391 39.6938 7.58956C39.5542 7.44991 39.365 7.37847 39.168 7.34766L39.169 63.6119L56.1418 59.393C56.1418 59.393 49.2164 12.5695 49.1724 12.2484C49.1284 11.9272 48.8471 11.7495 48.6152 11.7301Z" fill="#5E8E3E"/>
<path d="M29.7592 20.4589L27.7876 27.8342C27.7876 27.8342 25.5885 26.8328 22.9812 26.9974C19.1583 27.2388 19.1177 29.6503 19.1558 30.2546C19.3641 33.5532 28.0416 34.2739 28.5293 41.9997C28.9131 48.078 25.3053 52.2358 20.1068 52.564C13.8686 52.9579 10.4336 49.2769 10.4336 49.2769L11.7554 43.6529C11.7554 43.6529 15.2123 46.2611 17.9795 46.0864C19.787 45.9722 20.4328 44.5021 20.3672 43.4625C20.0955 39.1596 13.0294 39.4131 12.583 32.3432C12.2073 26.3928 16.1146 20.3649 24.7362 19.8204C28.0581 19.6108 29.7592 20.4589 29.7592 20.4589Z" fill="white"/>
</svg>
