<svg width="95" height="95" viewBox="0 0 95 95" fill="none" xmlns="http://www.w3.org/2000/svg">
<path d="M40.0871 7.09766C21.8891 7.09766 7.13672 21.85 7.13672 40.0481C7.13672 58.2461 21.8891 72.9985 40.0871 72.9985C58.2852 72.9985 73.0376 58.2461 73.0376 40.0481C73.0177 21.8583 58.2769 7.11747 40.0871 7.09766ZM40.0871 10.2358C49.7793 10.2434 58.8616 14.9671 64.4328 22.8982L60.5101 26.8208C59.5555 26.2432 58.4627 25.9341 57.3469 25.9265C53.8806 25.9265 51.0706 28.7365 51.0706 32.2027C51.0761 33.3197 51.3834 34.4143 51.9603 35.3707L41.686 45.6449C39.7406 44.4587 37.2956 44.4587 35.3501 45.6449L28.214 38.5088C28.7908 37.5525 29.0982 36.4579 29.1037 35.3409C29.108 31.8815 26.3072 29.0736 22.8478 29.0693C19.9868 29.0658 17.4871 31.001 16.7739 33.7718H10.9527C13.9235 20.0529 26.0503 10.2564 40.0871 10.2358ZM60.485 32.2027C60.485 33.936 59.0801 35.3409 57.3469 35.3409C55.6137 35.3409 54.2087 33.936 54.2087 32.2027C54.2087 30.4695 55.6137 29.0646 57.3469 29.0646C59.0801 29.0646 60.485 30.4695 60.485 32.2027ZM41.6562 51.0315C41.6562 52.7648 40.2513 54.1697 38.5181 54.1697C36.7848 54.1697 35.3799 52.7648 35.3799 51.0315C35.3799 49.2983 36.7848 47.8934 38.5181 47.8934C40.2513 47.8934 41.6562 49.2983 41.6562 51.0315ZM25.9655 35.3409C25.9655 37.0741 24.5606 38.479 22.8274 38.479C21.0942 38.479 19.6893 37.0741 19.6893 35.3409C19.6893 33.6076 21.0942 32.2027 22.8274 32.2027C24.5606 32.2027 25.9655 33.6076 25.9655 35.3409ZM54.5724 66.1154C50.1413 68.5757 45.1556 69.8647 40.0871 69.8602C23.6335 69.8713 10.286 56.5423 10.2749 40.0887C10.2741 39.0268 10.3302 37.9655 10.4427 36.9097H16.7739C17.4873 39.6723 19.9742 41.6062 22.8274 41.6169C23.9444 41.6115 25.039 41.3041 25.9953 40.7273L33.1315 47.8634C32.5546 48.8198 32.2473 49.9144 32.2418 51.0314C32.2418 54.4976 35.0518 57.3076 38.5181 57.3076C41.9843 57.3076 44.7943 54.4976 44.7943 51.0314C44.7888 49.9144 44.4815 48.8198 43.9047 47.8634L54.1789 37.5891C55.1353 38.166 56.2299 38.4733 57.3469 38.4788C60.8131 38.4788 63.6232 35.6688 63.6232 32.2025C63.6177 31.0856 63.3103 29.9909 62.7335 29.0346L66.1541 25.6156C74.1396 39.9977 68.9543 58.13 54.5724 66.1154Z" fill="white"/>
<path d="M79.3093 16.5121C82.1625 16.5013 84.6494 14.5677 85.3628 11.8049H95V8.66678H85.3628C84.6494 5.90405 82.1625 3.97037 79.3093 3.95958C75.8431 3.95958 73.0331 6.76958 73.0331 10.2358C73.0385 11.3528 73.3459 12.4475 73.9227 13.4038L71.1659 16.1606C57.9749 -1.02476 33.35 -4.26292 16.1646 8.92803C-1.02085 22.119 -4.25901 46.7441 8.93194 63.9295C21.3833 80.1511 44.2075 84.0862 61.3717 72.9703L66.1072 77.7057L68.3259 79.9244L80.9568 92.5554C84.1693 95.7679 89.3774 95.7679 92.5899 92.5554C95.8024 89.3429 95.8024 84.1348 92.5899 80.9223L79.9589 68.2913L77.7403 66.0727L73.0048 61.3372C81.4109 48.3893 81.4109 31.7072 73.0048 18.759L76.1429 15.6209C77.0987 16.1979 78.1929 16.5058 79.3093 16.5121ZM79.3093 7.09771C81.0426 7.09771 82.4475 8.50262 82.4475 10.2358C82.4475 11.9691 81.0426 13.374 79.3093 13.374C77.5761 13.374 76.1712 11.9691 76.1712 10.2358C76.1712 8.50262 77.5763 7.09771 79.3093 7.09771ZM90.3712 83.141C92.3808 85.1055 92.4175 88.3272 90.453 90.3367C88.4886 92.3463 85.2669 92.383 83.2573 90.4185C83.2296 90.3917 83.2026 90.3644 83.1755 90.3367L70.5445 77.7057L77.7403 70.51L90.3712 83.141ZM75.5216 68.2913L68.3259 75.4871L63.9827 71.1439C64.2039 70.9744 64.411 70.7877 64.6291 70.6136C64.8472 70.4394 65.0998 70.2307 65.3336 70.0346C65.6773 69.7459 66.0162 69.454 66.3488 69.1543C66.5199 68.9974 66.683 68.8405 66.8509 68.6836C67.4942 68.0811 68.1172 67.4582 68.7197 66.8148C68.8766 66.647 69.0335 66.4838 69.1904 66.3128C69.4901 65.9801 69.7819 65.6412 70.0707 65.2976C70.2674 65.0653 70.4604 64.8306 70.6496 64.5931C70.8222 64.3765 71.009 64.1694 71.1784 63.9482L75.5216 68.2913ZM69.4368 61.003C68.9425 61.6934 68.4325 62.3697 67.8944 63.0209C67.7374 63.2107 67.5696 63.3943 67.408 63.581C66.9278 64.1396 66.432 64.6815 65.9205 65.2066C65.6977 65.4366 65.4711 65.6632 65.2411 65.886C64.718 66.3975 64.1763 66.8933 63.6155 67.3734C63.4288 67.5303 63.2452 67.7014 63.0554 67.8599C62.4042 68.398 61.7279 68.908 61.0375 69.4022C44.7945 81.0065 22.2198 77.246 10.6155 61.003C-0.988686 44.76 2.77178 22.1853 19.0148 10.581C35.2578 -1.02319 57.8325 2.73708 69.4368 18.9803C78.4159 31.5489 78.4159 48.4344 69.4368 61.003Z" fill="white"/>
</svg>
