<svg width="107" height="107" viewBox="0 0 107 107" fill="none" xmlns="http://www.w3.org/2000/svg">
<path d="M92.194 16.5674H104.583C105.734 16.5674 106.667 15.6348 106.667 14.4841V2.08333C106.667 0.932617 105.734 0 104.583 0H92.194C91.0433 0 90.1107 0.932617 90.1107 2.08333V6.20036H61.6113V2.08333C61.6113 0.932617 60.6787 0 59.528 0H47.1387C45.988 0 45.0553 0.932617 45.0553 2.08333V6.20036H16.556V2.08333C16.556 0.932617 15.6234 0 14.4727 0H2.08333C0.932617 0 0 0.932617 0 2.08333V14.4841C0 15.6348 0.932617 16.5674 2.08333 16.5674H14.4727C15.6234 16.5674 16.556 15.6348 16.556 14.4841V10.367H33.8867C27.784 13.134 22.2819 17.1981 17.7987 22.3372C10.769 30.3955 6.70492 40.5925 6.23535 51.25H2.08333C0.932617 51.25 0 52.1826 0 53.3333V65.7341C0 66.8848 0.932617 67.8174 2.08333 67.8174H14.4727C15.6234 67.8174 16.556 66.8848 16.556 65.7341V53.3333C16.556 52.1826 15.6234 51.25 14.4727 51.25H10.4069C11.3672 31.617 25.8097 14.8991 45.0553 11.141V14.4849C45.0553 15.6356 45.988 16.5682 47.1387 16.5682H59.528C60.6787 16.5682 61.6113 15.6356 61.6113 14.4849V11.141C80.8569 14.8991 95.2995 31.617 96.2598 51.25H92.194C91.0433 51.25 90.1107 52.1826 90.1107 53.3333V65.7341C90.1107 66.8848 91.0433 67.8174 92.194 67.8174H104.583C105.734 67.8174 106.667 66.8848 106.667 65.7341V53.3333C106.667 52.1826 105.734 51.25 104.583 51.25H100.431C99.9618 40.5925 95.8976 30.3955 88.868 22.3372C84.3848 17.1981 78.8827 13.134 72.78 10.367H90.1107V14.4849C90.1107 15.6348 91.0433 16.5674 92.194 16.5674ZM12.3893 12.4007H4.16667V4.16667H12.3893V12.4007ZM12.3893 63.6507H4.16667V55.4167H12.3893V63.6507ZM102.5 63.6507H94.2774V55.4167H102.5V63.6507ZM57.4447 12.4007H49.222V4.16667H57.4447V12.4007ZM94.2774 4.16667H102.5V12.4007H94.2774V4.16667Z" fill="white"/>
<path d="M55.1564 22.9533C54.7902 22.2884 54.0912 21.875 53.3319 21.875C52.5726 21.875 51.8736 22.2884 51.5074 22.9533L42.8542 38.6629C42.2992 39.6712 42.6662 40.9383 43.6745 41.4925C44.6812 42.0475 45.9491 41.6813 46.5041 40.673L51.2486 32.0589V47.4227C48.3563 48.3146 46.2486 51.0124 46.2486 54.1935C46.2486 58.099 49.4265 61.2769 53.3319 61.2769C57.2373 61.2769 60.4152 58.099 60.4152 54.1935C60.4152 51.0124 58.3075 48.3146 55.4152 47.4227V32.0589L69.708 58.0094C65.0124 62.7588 61.8117 68.8509 60.5682 75.4167H46.0956C44.8513 68.8509 41.6506 62.7588 36.9558 58.0094L39.3435 53.6743C39.8985 52.6668 39.5314 51.3997 38.524 50.8447C37.5165 50.2897 36.2486 50.6559 35.6935 51.6642L32.536 57.3983C32.0721 58.2397 32.2447 59.2904 32.9535 59.9398C37.44 64.0487 40.5552 69.4914 41.8443 75.4167H39.9042C36.4577 75.4167 33.6542 78.221 33.6542 81.6667C33.6542 84.0983 35.0498 86.2077 37.0819 87.2404V104.583C37.0819 105.734 38.0145 106.667 39.1652 106.667C40.3159 106.667 41.2486 105.734 41.2486 104.583V87.9167H65.4152V104.583C65.4152 105.734 66.3479 106.667 67.4986 106.667C68.6493 106.667 69.5819 105.734 69.5819 104.583V87.2404C71.614 86.2077 73.0096 84.0975 73.0096 81.6667C73.0096 78.2202 70.2061 75.4167 66.7596 75.4167H64.8195C66.1086 69.4906 69.2238 64.0487 73.7103 59.939C74.4191 59.2896 74.5917 58.2397 74.1278 57.3975L55.1564 22.9533ZM53.3319 57.1102C51.7238 57.1102 50.4152 55.8016 50.4152 54.1935C50.4152 52.5846 51.7238 51.2769 53.3319 51.2769C54.94 51.2769 56.2486 52.5846 56.2486 54.1935C56.2486 55.8016 54.94 57.1102 53.3319 57.1102ZM68.843 81.6667C68.843 82.8158 67.9087 83.75 66.7596 83.75H39.9042C38.7551 83.75 37.8208 82.8158 37.8208 81.6667C37.8208 80.5176 38.7551 79.5833 39.9042 79.5833H66.7596C67.9087 79.5833 68.843 80.5176 68.843 81.6667Z" fill="white"/>
<path d="M40.9661 48.3581C41.5146 48.3581 42.0518 48.1367 42.4391 47.7493C42.8265 47.3595 43.0495 46.8249 43.0495 46.2747C43.0495 45.7262 42.8265 45.1916 42.4391 44.8018C42.0518 44.4144 41.5146 44.1914 40.9661 44.1914C40.416 44.1914 39.8789 44.4144 39.4915 44.8018C39.1042 45.1916 38.8828 45.7262 38.8828 46.2747C38.8828 46.8249 39.1042 47.3595 39.4915 47.7493C39.8789 48.1367 40.416 48.3581 40.9661 48.3581Z" fill="white"/>
</svg>
