<svg width="110" height="110" viewBox="0 0 110 110" fill="none" xmlns="http://www.w3.org/2000/svg">
<path d="M65.7431 69.3183C67.1046 69.3183 68.378 68.7816 69.3287 67.807L77.7744 59.1479C79.702 57.1714 79.6621 53.9951 77.6853 52.0673C75.7085 50.1399 72.5316 50.1799 70.604 52.1562L65.6495 57.2356L64.7815 56.3917C62.8019 54.4675 59.6252 54.5116 57.7 56.4909C55.7754 58.4703 55.8199 61.6466 57.7995 63.5714L62.2523 67.9009C63.1923 68.8149 64.4321 69.3183 65.7431 69.3183ZM60.0156 58.7421C60.6996 58.0387 61.8282 58.0241 62.5306 58.7071L64.5542 60.6748C65.1927 61.2959 66.2136 61.282 66.8358 60.6445L72.9159 54.411C73.6009 53.7087 74.729 53.6952 75.4307 54.3792C76.1328 55.0639 76.1468 56.1919 75.4625 56.8938L67.0167 65.5527C66.364 66.2507 65.1751 66.2655 64.5037 65.5862L60.0508 61.2566C59.3481 60.573 59.3319 59.4448 60.0156 58.7421Z" fill="white"/>
<path d="M53.2646 70.417C52.7274 69.7052 51.7153 69.5634 51.0029 70.1005C50.2909 70.6377 50.1495 71.65 50.6864 72.3618C51.2744 73.141 51.925 73.8883 52.6194 74.5826C56.5895 78.5523 61.868 80.7384 67.4826 80.7384C73.0971 80.7384 78.3754 78.5523 82.3455 74.5826C86.3159 70.6132 88.5021 65.3353 88.5021 59.7216C88.5021 54.1077 86.3156 48.83 82.3455 44.8606C74.1498 36.6662 60.8151 36.6664 52.6194 44.8606C47.0319 50.4472 45.0547 58.5969 47.4594 66.1293C47.7306 66.9788 48.6398 67.4472 49.4887 67.1765C50.3382 66.9054 50.8072 65.9968 50.5358 65.1475C48.5002 58.7713 50.1736 51.8727 54.9032 47.1439C61.8392 40.2085 73.1259 40.2085 80.0619 47.1439C83.4221 50.5037 85.2728 54.9705 85.2728 59.7218C85.2728 64.4731 83.4221 68.9399 80.0619 72.2997C76.702 75.6592 72.2345 77.5097 67.4826 77.5097C62.7308 77.5097 58.2631 75.6594 54.903 72.2997C54.3139 71.7102 53.7626 71.077 53.2646 70.417Z" fill="white"/>
<path d="M107.779 89.2179L97.5924 79.0323C96.9616 78.4019 95.9394 78.4017 95.3086 79.0323L95.2463 79.0946L91.326 75.175C93.9613 71.1123 95.5314 66.4181 95.8404 61.519C95.8964 60.6291 95.2203 59.8623 94.3304 59.806C93.4412 59.7519 92.6738 60.4261 92.6173 61.3158C92.2316 67.4322 89.6296 73.19 85.2906 77.5284C80.387 82.4316 73.9475 84.886 67.506 84.8922C67.4978 84.892 67.4899 84.8909 67.4815 84.8909H67.3532C60.9465 84.8587 54.5498 82.4051 49.6723 77.5284C44.9153 72.7721 42.2954 66.4482 42.2954 59.7216C42.2954 52.995 44.9153 46.6711 49.6723 41.9148C59.4923 32.096 75.4707 32.096 85.2906 41.9148C88.9481 45.5719 91.3617 50.1849 92.2707 55.2554C92.4282 56.133 93.2678 56.7161 94.145 56.5597C95.0229 56.4025 95.6068 55.5635 95.4496 54.6856C94.4235 48.9628 91.7003 43.7571 87.5742 39.6315C85.5297 37.5872 83.2481 35.9215 80.8176 34.6318V21.6195C80.8163 21.1945 80.6446 20.7786 80.3447 20.4778L60.3362 0.471897C60.0352 0.172403 59.6195 9.76619e-05 59.1941 -0.000976562H4.84432C2.17337 -0.000976562 0.000214845 2.17175 0.000214845 4.84249V18.4127C0.000214845 19.3043 0.722953 20.0273 1.61499 20.0273C2.50681 20.0273 3.22976 19.3046 3.22976 18.4127V4.84249C3.22976 3.95217 3.95401 3.22793 4.84454 3.22793H57.5799V18.3906C57.5799 21.0613 59.7531 23.2341 62.424 23.2341H77.5886V33.1696C74.4382 31.9759 71.1167 31.3627 67.7898 31.3268C67.7739 31.3247 67.7584 31.3215 67.7419 31.3215H31.6909C30.7991 31.3215 30.0761 32.0444 30.0761 32.936C30.0761 33.8276 30.7991 34.5506 31.6909 34.5506H54.2982C51.9948 35.755 49.8236 37.2967 47.8573 39.1751H31.6909C30.7991 39.1751 30.0761 39.8981 30.0761 40.7897C30.0761 41.6813 30.7991 42.4042 31.6909 42.4042H44.9511C42.3154 45.8183 40.5142 49.7504 39.652 53.9479H31.6911C30.7993 53.9479 30.0764 54.6708 30.0764 55.5624C30.0764 56.454 30.7993 57.177 31.6911 57.177H39.1804C39.1061 58.0185 39.0667 58.8672 39.0667 59.722C39.0667 60.4233 39.0923 61.1207 39.1424 61.8131H31.6913C30.7995 61.8131 30.0766 62.5361 30.0766 63.4277C30.0766 64.3193 30.7995 65.0422 31.6913 65.0422H39.5633C40.3868 69.4124 42.2228 73.5073 44.9561 77.0456H31.6913C30.7995 77.0456 30.0766 77.7684 30.0766 78.6602C30.0766 79.552 30.7995 80.2747 31.6913 80.2747H47.8638C49.8273 82.1497 51.995 83.6888 54.2943 84.8918H31.6905C30.7987 84.8918 30.0757 85.6147 30.0757 86.5063C30.0757 87.3979 30.7987 88.1209 31.6905 88.1209H67.4815C70.9108 88.1204 74.3404 87.5045 77.5882 86.2741V105.157C77.5882 106.047 76.864 106.772 75.9734 106.772H4.84432C3.95401 106.772 3.22955 106.047 3.22955 105.157V24.8716C3.22955 23.98 2.5066 23.2571 1.61477 23.2571C0.722953 23.2571 0 23.9798 0 24.8716V105.157C0.000214845 107.827 2.17337 110 4.84432 110H75.9737C78.6446 110 80.8178 107.827 80.8178 105.156V84.811C81.5384 84.4286 82.2456 84.0126 82.9376 83.564L86.8571 87.4828C86.1788 88.0749 86.1425 89.2033 86.7945 89.8285L96.9816 100.014C99.8234 102.976 104.938 102.976 107.779 100.014C110.741 97.1727 110.741 92.0592 107.779 89.2179ZM62.4238 20.0052C61.5335 20.0052 60.8091 19.2809 60.8091 18.3906V5.5113L75.3048 20.0052H62.4238ZM85.5716 81.6311C86.2607 81.0615 86.9297 80.4561 87.5742 79.8117C88.2149 79.1711 88.8212 78.5023 89.3935 77.8094L92.9625 81.3778L89.1404 85.1992L85.5716 81.6311ZM105.496 97.7309C103.856 99.44 100.905 99.4395 99.2652 97.7309L90.2198 88.6868L96.4505 82.4569L105.496 91.501C107.205 93.1409 107.205 96.0912 105.496 97.7309Z" fill="white"/>
<path d="M14.6508 43.9995H21.7149C23.7065 43.9995 25.3269 42.3796 25.3269 40.3884V33.3252C25.3269 31.3338 23.7067 29.7139 21.7149 29.7139H14.6508C12.6594 29.7139 11.0391 31.3338 11.0391 33.3252V40.3884C11.0391 42.3796 12.6594 43.9995 14.6508 43.9995ZM14.2686 33.3252C14.2686 33.1144 14.4403 32.943 14.6508 32.943H21.7149C21.9259 32.943 22.0973 33.1144 22.0973 33.3252V40.3884C22.0973 40.5992 21.9257 40.7706 21.7149 40.7706H14.6508C14.4401 40.7706 14.2686 40.5992 14.2686 40.3884V33.3252Z" fill="white"/>
<path d="M11.0391 63.0259C11.0391 65.0171 12.6592 66.637 14.6508 66.637H21.7149C23.7065 66.637 25.3269 65.0171 25.3269 63.0259V55.9627C25.3269 53.9715 23.7067 52.3516 21.7149 52.3516H14.6508C12.6594 52.3516 11.0391 53.9715 11.0391 55.9627V63.0259ZM14.2686 55.9627C14.2686 55.7519 14.4403 55.5805 14.6508 55.5805H21.7149C21.9259 55.5805 22.0973 55.7519 22.0973 55.9627V63.0259C22.0973 63.2367 21.9257 63.4081 21.7149 63.4081H14.6508C14.4401 63.4081 14.2686 63.2367 14.2686 63.0259V55.9627Z" fill="white"/>
<path d="M11.0391 86.1238C11.0391 88.115 12.6592 89.7349 14.6508 89.7349H21.7149C23.7065 89.7349 25.3269 88.115 25.3269 86.1238V79.0605C25.3269 77.0691 23.7067 75.4492 21.7149 75.4492H14.6508C12.6594 75.4492 11.0391 77.0691 11.0391 79.0605V86.1238ZM14.2686 79.0605C14.2686 78.8498 14.4403 78.6783 14.6508 78.6783H21.7149C21.9259 78.6783 22.0973 78.8498 22.0973 79.0605V86.1238C22.0973 86.3345 21.9257 86.506 21.7149 86.506H14.6508C14.4401 86.506 14.2686 86.3345 14.2686 86.1238V79.0605Z" fill="white"/>
</svg>
