<svg width="94" height="94" viewBox="0 0 94 94" fill="none" xmlns="http://www.w3.org/2000/svg">
<path d="M17.2303 0C14.6536 0 12.5333 2.12031 12.5333 4.697V54.8304C12.5333 56.9213 15.6697 56.9213 15.6697 54.8304V15.6729H78.3272V54.8304C78.2798 56.9667 81.5085 56.9667 81.4606 54.8304V4.697C81.4606 2.12031 79.3434 0 76.7667 0H17.2303ZM17.2303 3.13645H76.7667C77.6617 3.13645 78.3272 3.80194 78.3272 4.697V12.5364H15.6697V4.697C15.6697 3.80194 16.3353 3.13645 17.2303 3.13645ZM20.3667 6.26676C19.5014 6.26676 18.8 6.96824 18.8 7.83345C18.8 8.69873 19.5014 9.39996 20.3667 9.39996C21.2319 9.39996 21.9333 8.69873 21.9333 7.83345C21.9333 6.96824 21.2319 6.26676 20.3667 6.26676ZM26.6333 6.26676C25.7681 6.26676 25.0667 6.96824 25.0667 7.83345C25.0667 8.69873 25.7681 9.39996 26.6333 9.39996C27.4986 9.39996 28.2 8.69873 28.2 7.83345C28.2 6.96824 27.4986 6.26676 26.6333 6.26676ZM32.9 6.26676C32.0348 6.26676 31.3333 6.96824 31.3333 7.83345C31.3333 8.69873 32.0348 9.39996 32.9 9.39996C33.7653 9.39996 34.4667 8.69873 34.4667 7.83345C34.4667 6.96824 33.7653 6.26676 32.9 6.26676ZM54.7538 6.26984C52.6385 6.41372 52.7829 9.45503 54.8273 9.40322H73.6333C75.6764 9.35585 75.6764 6.31513 73.6333 6.26984H54.7538ZM4.70613 9.40322C2.12943 9.40322 0 11.5205 0 14.0971V70.5C0 73.0768 2.12943 75.197 4.70613 75.197H89.3031C91.8798 75.197 94 73.0768 94 70.5V14.097C94 11.5203 91.8798 9.40304 89.3031 9.40304H86.1697C84.034 9.35567 84.034 12.5838 86.1697 12.5364H89.3031C90.1981 12.5364 90.8636 13.2019 90.8636 14.097V59.5364H3.13333V14.097C3.13333 13.2019 3.81112 12.5364 4.70613 12.5364H7.82721C9.96295 12.5838 9.96295 9.35567 7.82721 9.40304L4.70613 9.40322ZM51.7184 21.9089C51.0296 21.9042 50.4187 22.3502 50.2129 23.0076L40.8098 51.2044C40.1469 53.1873 43.1211 54.1817 43.7841 52.1988L53.1871 23.9928C53.5417 22.9783 52.793 21.916 51.7184 21.9089ZM58.5297 30.9663L66.4854 37.6031L58.5297 44.2309C56.8298 45.5617 58.9288 48.0729 60.5401 46.6361L69.9309 38.8057C70.6808 38.1794 70.6808 37.0271 69.9309 36.4007L60.5401 28.5582C60.2593 28.3178 59.9028 28.1845 59.4538 28.1851C57.9729 28.3148 57.4359 30.0811 58.5297 30.9663ZM34.4269 28.188C34.0741 28.1998 33.7355 28.3301 33.4661 28.558L24.0661 36.4005C23.3162 37.0269 23.3162 38.1792 24.0661 38.8055L33.4661 46.6359C35.0828 48.1416 37.2418 45.5467 35.4673 44.2307L27.5115 37.6029L35.4673 30.9661C36.6248 30.0183 35.9223 28.1424 34.4269 28.188ZM3.13333 62.6729H90.8636V70.5C90.8636 71.3951 90.1981 72.0606 89.3031 72.0606H4.70613C3.81112 72.0606 3.13333 71.3951 3.13333 70.5V62.6729ZM50.219 65.8032L43.7902 65.8063C41.7932 66.0449 41.9273 68.8739 43.8637 68.9274H50.1333C52.2849 69.1174 52.464 65.8464 50.219 65.8032ZM38.212 78.2079C37.5831 78.196 37.0072 78.5584 36.7494 79.132C35.9949 80.7501 34.6433 82.6397 32.3095 84.597H29.7667C27.19 84.597 25.0728 86.7296 25.0728 89.3063V92.4274C25.0697 93.2926 25.7681 93.9966 26.6333 94H67.3636C68.2336 94.0031 68.9397 93.2974 68.9364 92.4274V89.3063C68.9364 86.7296 66.807 84.597 64.2303 84.597H61.6906C59.3569 82.6398 58.005 80.75 57.2507 79.132C56.9854 78.5434 56.3867 78.178 55.7421 78.2109C54.6229 78.2702 53.9239 79.4478 54.4111 80.4571C55.0218 81.767 55.9544 83.172 57.2109 84.597H36.7891C38.0456 83.172 38.9782 81.767 39.5889 80.4571C40.0863 79.4296 39.3533 78.2322 38.212 78.2079ZM29.7667 87.7334H64.2303C65.1252 87.7334 65.8031 88.4112 65.8031 89.3063V90.8668H28.2061V89.3063C28.2061 88.4112 28.8716 87.7334 29.7667 87.7334Z" fill="white"/>
</svg>
