<svg width="92" height="92" viewBox="0 0 92 92" fill="none" xmlns="http://www.w3.org/2000/svg">
<g clip-path="url(#clip0_200_15619)">
<path d="M83.9141 0.179688H8.08594C3.62735 0.179688 0 3.80704 0 8.26562V83.7344C0 88.193 3.62735 91.8203 8.08594 91.8203H83.9141C88.3727 91.8203 92 88.193 92 83.7344V8.26562C92 3.80704 88.3727 0.179688 83.9141 0.179688ZM8.08594 5.57031H83.9141C85.4003 5.57031 86.6094 6.77943 86.6094 8.26562V21.7422H5.39062V8.26562C5.39062 6.77943 6.59974 5.57031 8.08594 5.57031ZM83.9141 86.4297H8.08594C6.59974 86.4297 5.39062 85.2206 5.39062 83.7344V27.1328H86.6094V83.7344C86.6094 85.2206 85.4003 86.4297 83.9141 86.4297Z" fill="white"/>
<path d="M55.1484 35.4364C53.7803 34.85 52.1956 35.4838 51.6093 36.8519L35.4374 74.5863C34.8509 75.9545 35.4849 77.5391 36.853 78.1254C38.2217 78.7119 39.806 78.0776 40.3921 76.7099L56.564 38.9755C57.1505 37.6072 56.5166 36.0227 55.1484 35.4364Z" fill="white"/>
<path d="M31.9321 44.3163C31.002 43.1539 29.3056 42.9656 28.1438 43.8954L14.6672 54.6767C13.3197 55.7543 13.3188 57.8076 14.6672 58.8861L28.1438 69.6673C29.3062 70.5974 31.0026 70.4087 31.9321 69.2465C32.862 68.0841 32.6737 66.3878 31.5111 65.4581L20.6655 56.7814L31.5111 48.1048C32.6737 47.1749 32.862 45.4789 31.9321 44.3163Z" fill="white"/>
<path d="M77.3322 54.6765L63.8557 43.8953C62.6933 42.9652 60.997 43.1537 60.0673 44.3161C59.1374 45.4785 59.3257 47.1748 60.4883 48.1045L71.3339 56.7812L60.4883 65.4578C59.3257 66.3877 59.1374 68.0837 60.0673 69.2461C60.9985 70.4098 62.6949 70.5959 63.8557 69.667L77.3322 58.8857C78.6797 57.8081 78.6806 55.755 77.3322 54.6765Z" fill="white"/>
<path d="M13.6562 16.3516C15.1448 16.3516 16.3516 15.1448 16.3516 13.6562C16.3516 12.1677 15.1448 10.9609 13.6562 10.9609C12.1677 10.9609 10.9609 12.1677 10.9609 13.6562C10.9609 15.1448 12.1677 16.3516 13.6562 16.3516Z" fill="white"/>
<path d="M24.4375 16.3516C25.9261 16.3516 27.1328 15.1448 27.1328 13.6562C27.1328 12.1677 25.9261 10.9609 24.4375 10.9609C22.9489 10.9609 21.7422 12.1677 21.7422 13.6562C21.7422 15.1448 22.9489 16.3516 24.4375 16.3516Z" fill="white"/>
<path d="M35.2188 16.3516C36.7073 16.3516 37.9141 15.1448 37.9141 13.6562C37.9141 12.1677 36.7073 10.9609 35.2188 10.9609C33.7302 10.9609 32.5234 12.1677 32.5234 13.6562C32.5234 15.1448 33.7302 16.3516 35.2188 16.3516Z" fill="white"/>
<path d="M62.1719 16.3516H78.3438C79.8323 16.3516 81.0391 15.1448 81.0391 13.6562C81.0391 12.1677 79.8323 10.9609 78.3438 10.9609H62.1719C60.6833 10.9609 59.4766 12.1677 59.4766 13.6562C59.4766 15.1448 60.6833 16.3516 62.1719 16.3516Z" fill="white"/>
</g>
<defs>
<clipPath id="clip0_200_15619">
<rect width="92" height="92" fill="white"/>
</clipPath>
</defs>
</svg>
