<svg width="238" height="165" viewBox="0 0 238 165" fill="none" xmlns="http://www.w3.org/2000/svg">
<g filter="url(#filter0_d_5015_2749)">
<rect x="8" y="8" width="221.762" height="148.232" rx="10.0633" fill="#111616"/>
</g>
<path d="M145.396 58.9792C145.341 58.5756 144.988 58.3524 144.696 58.328C144.405 58.3037 138.715 58.2172 138.715 58.2172C138.715 58.2172 133.956 53.5957 133.486 53.1253C133.016 52.655 132.098 52.7976 131.742 52.9026C131.736 52.9041 130.849 53.179 129.35 53.6429C129.101 52.8307 128.732 51.8333 128.206 50.8311C126.512 47.5989 124.031 45.888 121.033 45.8836C121.03 45.8836 121.027 45.8836 121.023 45.8836C120.815 45.8836 120.608 45.9032 120.401 45.922C120.313 45.8159 120.224 45.7107 120.13 45.6103C118.824 44.2132 117.148 43.5325 115.142 43.5914C111.269 43.7024 107.414 46.4989 104.287 51.4652C102.086 54.9606 100.414 59.3517 99.9386 62.7501C95.4928 64.1269 92.3822 65.0903 92.3149 65.1114C90.0708 65.8156 90.0002 65.8861 89.7059 68.0004C89.4831 69.6011 83.6118 115.008 83.6118 115.008L132.824 123.518L154.154 118.217C154.154 118.217 145.452 59.3827 145.396 58.9792ZM102.696 61.8962C104.026 55.6741 109.24 46.3395 115.216 46.1676C116.126 46.1486 116.891 46.3481 117.545 46.7785C116.499 47.3216 115.488 48.1022 114.539 49.1201C112.079 51.7587 110.195 55.8558 109.443 59.8066C107.098 60.5327 104.805 61.2428 102.696 61.8962ZM120.492 56.3856C117.914 57.1838 115.099 58.0554 112.276 58.9297C113.071 55.8889 114.575 52.8613 116.424 50.8779C117.112 50.1401 118.074 49.3168 119.214 48.8467C120.286 51.0802 120.518 54.2465 120.492 56.3856ZM123.066 55.5885C123.037 53.6276 122.803 50.9001 121.89 48.5423C124.828 49.099 126.275 52.4236 126.885 54.4059C125.753 54.7564 124.463 55.1558 123.066 55.5885Z" fill="#95BF47"/>
<path d="M144.697 58.3269C144.406 58.3026 138.716 58.2161 138.716 58.2161C138.716 58.2161 133.958 53.5946 133.487 53.1243C133.312 52.9488 133.074 52.859 132.827 52.8203L132.828 123.517L154.155 118.216C154.155 118.216 145.453 59.3817 145.397 58.9781C145.342 58.5745 144.989 58.3513 144.697 58.3269Z" fill="#5E8E3E"/>
<path d="M121.005 69.2953L118.527 78.5624C118.527 78.5624 115.764 77.3041 112.488 77.511C107.684 77.8143 107.633 80.8444 107.681 81.6037C107.943 85.7484 118.846 86.654 119.459 96.3615C119.941 103.999 115.408 109.223 108.876 109.636C101.038 110.131 96.7217 105.505 96.7217 105.505L98.3826 98.4388C98.3826 98.4388 102.726 101.716 106.203 101.496C108.474 101.353 109.286 99.5058 109.203 98.1995C108.862 92.7929 99.9834 93.1114 99.4225 84.228C98.9504 76.7513 103.86 69.1771 114.693 68.493C118.867 68.2297 121.005 69.2953 121.005 69.2953Z" fill="white"/>
<path d="M178.698 65.5224H169.829V74.3914C169.829 74.8618 169.642 75.313 169.31 75.6456C168.977 75.9783 168.526 76.1652 168.055 76.1652C167.585 76.1652 167.134 75.9783 166.801 75.6456C166.469 75.313 166.282 74.8618 166.282 74.3914V65.5224H157.413C156.942 65.5224 156.491 65.3355 156.158 65.0029C155.826 64.6702 155.639 64.219 155.639 63.7486C155.639 63.2782 155.826 62.827 156.158 62.4943C156.491 62.1617 156.942 61.9748 157.413 61.9748H166.282V53.1058C166.282 52.6354 166.469 52.1842 166.801 51.8516C167.134 51.5189 167.585 51.332 168.055 51.332C168.526 51.332 168.977 51.5189 169.31 51.8516C169.642 52.1842 169.829 52.6354 169.829 53.1058V61.9748H178.698C179.169 61.9748 179.62 62.1617 179.953 62.4943C180.285 62.827 180.472 63.2782 180.472 63.7486C180.472 64.219 180.285 64.6702 179.953 65.0029C179.62 65.3355 179.169 65.5224 178.698 65.5224Z" fill="white"/>
<defs>
<filter id="filter0_d_5015_2749" x="0.200954" y="0.200954" width="237.36" height="163.831" filterUnits="userSpaceOnUse" color-interpolation-filters="sRGB">
<feFlood flood-opacity="0" result="BackgroundImageFix"/>
<feColorMatrix in="SourceAlpha" type="matrix" values="0 0 0 0 0 0 0 0 0 0 0 0 0 0 0 0 0 0 127 0" result="hardAlpha"/>
<feOffset/>
<feGaussianBlur stdDeviation="3.89952"/>
<feComposite in2="hardAlpha" operator="out"/>
<feColorMatrix type="matrix" values="0 0 0 0 0.223529 0 0 0 0 0.419608 0 0 0 0 0.858824 0 0 0 1 0"/>
<feBlend mode="normal" in2="BackgroundImageFix" result="effect1_dropShadow_5015_2749"/>
<feBlend mode="normal" in="SourceGraphic" in2="effect1_dropShadow_5015_2749" result="shape"/>
</filter>
</defs>
</svg>
