<svg width="353" height="152" viewBox="0 0 353 152" fill="none" xmlns="http://www.w3.org/2000/svg">
<path d="M6.70139 103.308C9.00251 102.582 11.021 101.896 13.0799 101.371C15.4618 100.765 17.8437 100.16 20.2659 99.7559C21.5174 99.554 22.9707 99.5944 23.213 101.371C23.4552 102.986 22.0826 104.964 20.6292 105.125C15.8251 105.69 11.4247 107.386 7.10509 109.445C5.20767 110.333 4.0773 110.212 2.90655 108.476C2.09914 107.305 1.37246 105.933 1.21098 104.56C-0.080877 92.7314 2.30099 81.6698 9.44659 72.0616C14.2507 65.6427 20.7907 61.0808 28.2997 58.2549C33.346 56.3575 38.5942 54.8637 43.7212 53.1682C44.246 52.9259 44.6094 52.4819 44.8112 51.9571C47.2738 42.5507 49.7365 33.1444 52.1587 23.738C53.4909 18.6109 54.8232 13.4839 56.1958 8.19531L60.0713 9.16421C60.0713 9.56791 60.1924 9.97162 60.0713 10.2138C59.0621 12.192 59.9098 13.3628 61.6054 14.4528C63.9873 15.9868 66.4499 16.6328 69.2758 16.0676C72.7881 15.3813 76.1792 14.0087 79.8529 14.4124C84.213 14.8968 87.5637 17.198 90.3493 20.3872C90.6319 20.8313 90.753 21.3965 90.6319 21.9213C88.573 29.9551 86.5141 37.9485 84.4148 45.9418C84.3341 46.1841 84.213 46.3859 84.0515 46.5878C83.4459 45.9015 82.9211 45.2555 82.3559 44.6903C80.2566 42.47 78.117 40.1688 74.9277 39.8459C72.667 39.6036 70.2447 40.0074 67.984 40.4514C64.4314 41.2185 60.9595 42.0259 57.4069 40.6937C55.9132 40.1285 54.5002 39.3211 52.7239 38.4733C51.5531 42.914 50.3824 47.4355 49.1713 52.1993C50.7861 52.0782 52.0779 51.9167 53.3698 51.9167C60.9191 51.9974 68.5088 51.5937 75.8966 53.4508C84.5359 55.6308 92.5293 59.0623 98.6253 65.8849C101.532 69.1549 103.752 72.9901 105.125 77.1483C107.022 82.5984 103.752 88.008 98.0601 88.9769C93.7808 89.7036 89.4208 90.1073 85.1011 90.6321C83.6478 90.7936 82.1944 90.834 80.7814 91.0762C78.5207 91.4799 77.1481 89.7843 76.2599 88.2906C75.6544 87.2813 76.0177 86.5547 77.1481 86.3528C78.6822 86.0702 80.2566 85.8684 81.7907 85.6665C86.4333 85.1417 91.1567 84.7784 95.7993 84.0921C99.7556 83.5269 100.967 80.8624 99.5134 77.1079C96.4856 69.5183 90.8741 64.6334 83.567 61.4441C77.1077 58.6182 70.3255 57.6493 63.3413 57.2456C55.6709 56.7208 48.0005 57.4878 40.5723 59.5064C31.4486 61.969 23.0111 65.8042 16.2288 72.6672C10.3751 78.6017 7.75102 85.9895 6.74176 94.0232C6.41879 96.4455 6.5399 98.9484 6.45916 101.371C6.49953 102.017 6.58027 102.663 6.70139 103.308ZM58.1335 17.4806C56.7609 22.648 55.4287 27.6943 54.1368 32.781C54.0965 33.3058 54.258 33.8307 54.6617 34.2344C57.4069 36.6566 60.5154 37.8677 64.2295 36.9392L67.6206 36.0914C70.4062 35.4051 73.1918 34.7188 76.0177 35.6877C77.9959 36.374 79.8933 37.2622 81.9118 38.1099C82.0329 37.7466 82.1944 37.3429 82.2752 36.8988C83.2844 33.0636 84.2533 29.2284 85.2626 25.3932C86.2719 21.6791 85.9893 21.0735 82.477 19.4183C82.1541 19.2569 81.8715 19.1761 81.5485 19.055C78.6014 17.8843 75.6948 18.732 72.8284 19.4587C69.5988 20.3065 66.3691 20.9524 63.0991 19.7413C61.5247 19.1761 59.9502 18.288 58.1335 17.4806Z" fill="#FFD15B"/>
<path d="M100.805 97.6562C100.765 98.1003 100.765 98.9077 100.684 99.6747C100.24 102.783 99.554 103.308 96.4051 103.833C88.008 105.206 79.6513 106.578 71.2946 108.193C62.413 109.929 53.5719 111.867 44.7307 113.845C35.5666 115.904 26.4428 118.164 17.3191 120.304C16.2694 120.546 15.2198 120.667 14.2105 120.99C11.9094 121.757 10.2138 120.829 9.08347 118.932C8.15494 117.397 7.50901 115.742 6.74197 114.127C6.21715 113.037 6.74197 112.351 7.50901 111.665C8.51828 110.817 9.32569 109.646 10.4157 109C11.7883 108.233 13.4031 107.386 14.8565 107.507C17.198 107.668 19.2569 107.103 21.3965 106.497C31.4084 103.55 41.4607 100.603 51.513 97.737C62.0093 94.7495 72.7479 92.6906 83.6076 91.6814C88.1695 91.2373 92.7314 90.7125 97.2932 90.3088C99.8366 90.0665 100.24 90.4702 100.442 92.9732C100.604 94.4266 100.684 95.8799 100.805 97.6562ZM13.9683 115.217L14.0894 115.54C14.3316 115.5 14.6142 115.5 14.8565 115.419C27.2906 112.553 39.6844 109.566 52.1185 106.82C60.3541 105.004 68.6705 103.389 76.9465 101.814C82.558 100.724 88.1695 99.7958 93.8214 98.8673C95.3151 98.6251 95.194 97.737 95.1536 96.7277C95.1132 95.5569 94.3058 95.7992 93.5791 95.8395C82.3965 96.7277 71.3349 98.2214 60.4753 101.007C55.2674 102.339 50.1 103.752 44.9326 105.206C35.0014 107.951 25.0299 110.494 15.5024 114.491C14.9776 114.652 14.4528 114.935 13.9683 115.217Z" fill="#FFD15B"/>
<path d="M13.8471 128.54C13.8471 128.055 13.8471 127.53 13.8471 127.046C13.8875 123.937 13.9278 123.816 16.9556 123.493C23.6168 122.807 29.9953 121.071 36.4143 119.335C44.1251 117.236 51.8762 115.258 59.6677 113.522C68.9934 111.463 78.3997 109.646 87.7657 107.789C91.7624 107.063 95.8398 107.063 99.7961 107.87C101.976 108.274 102.784 109 102.461 111.1C101.976 114.45 101.33 117.801 100.563 121.112C100.079 123.13 99.0291 123.736 96.8894 123.897C89.3401 124.462 81.7908 124.704 74.3223 125.673C67.2978 126.602 60.3944 128.459 53.4103 129.67C47.7988 130.639 42.1065 131.123 36.4546 132.052C30.6816 132.98 24.9086 134.07 19.176 135.322C16.2693 135.928 14.0086 134.636 13.7664 131.608C13.6856 130.599 13.7664 129.589 13.7664 128.58L13.8471 128.54ZM96.8087 112.674C94.8305 112.674 93.1753 112.432 91.6009 112.714C83.9305 114.047 76.2601 115.177 68.6704 116.953C55.994 119.9 43.4388 123.332 30.7624 126.4C27.3309 127.248 23.7379 127.53 20.2257 128.176C19.8623 128.257 19.6201 128.782 19.3375 129.105L19.7008 129.549L21.9616 129.186C27.0887 128.338 32.2157 127.49 37.3428 126.642C44.0039 125.552 50.7458 124.785 57.3666 123.332C64.3507 121.717 71.4156 120.546 78.5208 119.86C83.6479 119.416 88.7749 119.093 93.902 118.649C94.4268 118.609 95.1939 118.286 95.3554 117.882C95.9609 116.307 96.2839 114.652 96.8087 112.674Z" fill="#FFD15B"/>
<path d="M208.595 20.5078C208.675 15.0577 209.443 9.76919 212.026 4.92472C214.045 1.04914 217.153 -0.161977 221.473 0.241729C226.923 0.766547 233.261 7.06436 232.979 12.9585C232.817 16.7129 233.907 20.5078 233.786 24.3026C233.625 29.5508 232.777 34.799 229.789 39.3608C226.156 44.932 220.262 45.6183 215.417 41.016C211.461 37.2616 209.967 32.3767 209.16 27.2093C208.837 24.9485 208.756 22.7282 208.595 20.5078ZM227.69 24.1008C227.367 20.5885 227.125 17.0763 226.681 13.6044C226.479 12.2318 226.035 10.8996 225.308 9.72882C224.178 7.87177 222.724 5.93398 220.221 6.21658C217.718 6.49917 216.871 8.59844 216.063 10.617C213.924 16.067 214.045 21.7189 215.094 27.3304C215.579 29.8738 216.669 32.3364 217.678 34.7182C218.526 36.656 220.302 37.3423 222.401 37.3019C224.339 37.2616 225.187 35.9697 225.873 34.3953C227.327 31.0041 227.609 27.5726 227.69 24.1008Z" fill="#FFD15B"/>
<path d="M266.769 21.0736C266.487 28.1788 265.881 33.9518 262.732 39.0789C259.22 44.7711 253.608 45.6593 248.562 41.2589C245.09 38.2311 243.395 34.1536 242.506 29.7532C240.972 22.2847 241.134 14.8565 243.596 7.54941C243.879 6.74199 244.202 5.97495 244.606 5.24828C247.956 -1.04954 256.031 -1.77621 261.359 3.59309C264.064 6.29792 265.8 9.32571 265.881 13.3224C265.921 16.3098 266.527 19.2973 266.769 21.0736ZM260.391 22.4058C260.189 20.145 260.108 16.9558 259.543 13.8069C259.22 11.9498 258.453 10.2139 257.363 8.67978C254.537 4.8042 251.025 5.36939 249.127 9.81016C249.046 9.97164 249.006 10.1331 248.966 10.2946C246.745 16.1887 246.745 22.2443 248.199 28.2999C248.764 30.8432 249.773 33.2655 251.186 35.4859C253.124 38.3522 256.959 37.7466 258.493 34.6785C260.31 31.0855 260.35 27.2099 260.391 22.4058Z" fill="#FFD15B"/>
<path d="M175.087 5.57038C175.087 4.7226 175.047 3.87482 175.087 3.06741C175.168 1.33147 176.298 0.160722 177.873 0.0799804C179.447 -0.000760861 180.658 1.21036 180.78 2.94629C181.022 6.45854 181.183 9.97078 181.466 13.483C182.071 21.1534 182.798 28.8642 183.404 36.5346C183.484 37.7458 183.807 38.2302 185.14 38.0284C189.096 37.3421 193.093 36.7769 197.049 36.0502C198.866 35.7272 200.359 36.3328 200.803 37.9072C201.247 39.4817 200.561 41.1773 198.704 41.4599C193.052 42.4287 187.36 43.2765 181.668 43.9225C179.649 44.1647 178.478 43.0343 178.236 40.9754C177.59 35.3639 177.025 29.7524 176.541 24.1409C176.016 17.9642 175.572 11.7471 175.087 5.57038Z" fill="#FFD15B"/>
<path d="M280.979 12.1101C279.284 12.6753 277.992 13.1597 276.66 13.4827C275.771 13.6846 274.601 13.9671 273.914 13.6038C273.067 13.1194 272.098 11.989 272.098 11.1412C272.098 10.2127 272.945 8.75934 273.793 8.43637C279.728 6.09488 285.703 3.99561 291.718 1.89633C292.889 1.57337 294.14 1.41189 295.351 1.45226C296.804 1.33115 298.096 2.46152 298.217 3.91487C298.217 3.95524 298.217 4.03598 298.217 4.07635C298.258 5.69117 297.329 6.70044 295.674 7.06377C293.171 7.62896 290.709 8.31526 288.246 8.96119C287.196 9.24379 286.752 9.80897 286.752 10.9797C286.591 20.9513 286.348 30.8824 286.106 40.854C286.066 42.8321 284.936 44.0029 283.2 43.9625C281.504 43.9221 280.414 42.7918 280.454 40.854C280.616 32.3358 280.858 23.8579 281.06 15.3397C280.979 14.4112 280.979 13.402 280.979 12.1101Z" fill="#FFD15B"/>
<path d="M51.5935 65.9256C50.8668 67.4193 50.5034 68.6708 49.7768 69.68C48.6464 71.1334 47.3949 72.506 46.103 73.8382C45.8205 74.1612 45.4167 74.4034 45.013 74.5245C42.9138 74.8879 41.7027 73.4749 40.5319 72.1427C39.4823 70.9719 38.796 69.6397 39.7649 68.0249C40.1282 67.4193 40.4915 66.7734 40.8549 66.1274C42.5101 63.3419 45.1342 62.4133 48.2427 63.463C48.8483 63.5841 49.4134 63.8263 49.9383 64.1493C50.5034 64.7145 51.0686 65.32 51.5935 65.9256Z" fill="#FFD15B"/>
<path d="M25.5144 81.5484C25.0299 83.8899 23.9399 86.0699 21.881 87.604C21.4773 87.8866 20.3066 87.7655 19.9836 87.4022C18.8129 86.1507 17.8036 84.7377 16.9962 83.244C16.7136 82.7595 17.0769 81.5484 17.521 81.064C19.0551 79.4491 21.0736 78.8032 23.3344 79.0454C24.707 79.2069 25.4336 80.0143 25.5144 81.5484Z" fill="#FFD15B"/>
<path d="M44.4071 88.534C44.3264 91.1581 41.9849 93.6207 39.603 93.9841C37.8267 94.2667 35.6467 92.7729 35.0815 90.5526C34.92 89.9066 35.3238 88.534 35.6871 88.4533C38.1497 87.9285 40.6527 87.5651 43.1557 87.3633C43.6401 87.3633 44.1649 88.2918 44.4071 88.534Z" fill="#FFD15B"/>
<path d="M64.1484 76.704C62.9777 78.3189 62.0492 79.6511 61.0803 80.9833C60.8784 81.1852 60.5958 81.3063 60.3132 81.3063C59.2636 81.3467 57.0836 78.7226 57.0028 77.1885C56.8817 75.3718 58.4158 75.3718 59.5462 75.17C60.5555 75.0085 61.5647 75.0488 62.5336 75.2507C63.0584 75.3718 63.4621 76.0581 64.1484 76.704Z" fill="#FFD15B"/>
<path d="M141.822 148.442H136.856L135.564 151.267H133.667L139.4 138.914L144.971 151.267H143.033L141.822 148.442ZM141.095 146.786L139.359 142.83L137.543 146.786H141.095Z" fill="#FFD15B"/>
<path d="M162.734 143.922L161.038 144.81C160.796 144.285 160.433 144.003 160.029 144.003C159.868 144.003 159.666 144.084 159.545 144.205C159.424 144.326 159.343 144.487 159.343 144.689C159.343 145.012 159.747 145.375 160.514 145.698C161.321 145.981 162.048 146.425 162.694 146.99C163.097 147.434 163.299 147.999 163.259 148.565C163.259 149.372 162.936 150.179 162.33 150.704C161.725 151.229 160.917 151.552 160.11 151.512C158.616 151.512 157.566 150.785 156.961 149.332L158.697 148.524C158.858 148.807 159.02 149.089 159.262 149.332C159.504 149.574 159.827 149.695 160.15 149.695C160.837 149.695 161.2 149.372 161.2 148.767C161.2 148.403 160.917 148.08 160.392 147.757L159.141 147.152C158.657 146.95 158.253 146.667 157.889 146.264C157.566 145.86 157.405 145.335 157.445 144.851C157.445 144.124 157.728 143.438 158.253 142.953C158.778 142.469 159.504 142.186 160.231 142.226C161.361 142.186 162.209 142.751 162.734 143.922Z" fill="#FFD15B"/>
<path d="M168.143 142.428H170.202V143.236C170.484 142.913 170.848 142.63 171.211 142.388C171.574 142.227 171.938 142.146 172.341 142.146C173.31 142.146 174.198 142.63 174.723 143.438C175.329 142.59 176.298 142.106 177.307 142.146C178.155 142.065 178.962 142.428 179.527 143.074C180.012 143.68 180.294 144.609 180.294 145.779V151.27H178.236V146.344C178.276 145.739 178.195 145.093 177.913 144.528C177.711 144.164 177.307 143.963 176.863 144.003C176.379 143.963 175.894 144.205 175.652 144.649C175.369 145.295 175.208 145.981 175.248 146.708V151.27H173.189V146.385C173.189 144.81 172.745 144.043 171.817 144.043C171.292 144.003 170.807 144.245 170.565 144.689C170.242 145.335 170.121 146.021 170.161 146.708V151.27H168.103L168.143 142.428Z" fill="#FFD15B"/>
<path d="M192.325 142.428H194.384V151.27H192.325V150.341C190.831 151.875 188.328 151.916 186.794 150.422C186.714 150.341 186.673 150.26 186.593 150.22C185.785 149.291 185.341 148.08 185.381 146.869C185.341 145.658 185.785 144.487 186.552 143.559C187.279 142.711 188.409 142.227 189.54 142.227C190.589 142.227 191.599 142.711 192.325 143.478V142.428ZM187.481 146.829C187.44 147.596 187.683 148.323 188.167 148.888C188.611 149.413 189.257 149.695 189.943 149.695C190.63 149.735 191.316 149.453 191.76 148.928C192.689 147.717 192.689 146.021 191.76 144.81C191.316 144.285 190.63 144.003 189.943 144.003C189.257 144.003 188.611 144.285 188.167 144.81C187.723 145.375 187.44 146.102 187.481 146.829Z" fill="#FFD15B"/>
<path d="M205.083 143.921L203.387 144.809C203.145 144.284 202.781 144.001 202.378 144.001C202.216 144.001 202.014 144.082 201.893 144.203C201.772 144.324 201.691 144.486 201.691 144.688C201.691 145.011 202.095 145.374 202.862 145.697C203.67 145.979 204.396 146.424 205.042 146.989C205.446 147.433 205.648 147.998 205.607 148.563C205.607 149.371 205.284 150.178 204.679 150.703C204.073 151.228 203.266 151.551 202.458 151.51C200.965 151.51 199.915 150.784 199.31 149.33L201.046 148.523C201.207 148.805 201.368 149.088 201.611 149.33C201.853 149.572 202.176 149.694 202.499 149.694C203.185 149.694 203.548 149.371 203.548 148.765C203.548 148.402 203.266 148.079 202.741 147.756L201.53 147.191C201.046 146.989 200.642 146.706 200.278 146.302C199.955 145.899 199.794 145.374 199.794 144.889C199.794 144.163 200.077 143.477 200.601 142.992C201.126 142.508 201.853 142.225 202.58 142.265C203.67 142.185 204.517 142.75 205.083 143.921Z" fill="#FFD15B"/>
<path d="M210.452 135.928H212.511V143.154C213.157 142.549 214.045 142.185 214.933 142.185C215.821 142.145 216.71 142.508 217.315 143.154C217.84 143.719 218.082 144.607 218.082 145.859V151.269H216.023V146.02C216.064 145.496 215.943 144.93 215.66 144.486C215.337 144.163 214.893 143.961 214.449 144.002C213.884 143.961 213.278 144.204 212.955 144.648C212.673 145.092 212.511 145.859 212.511 146.949V151.228H210.452V135.928Z" fill="#FFD15B"/>
<path d="M223.451 146.223H228.013V148.241H223.451V146.223Z" fill="#FFD15B"/>
<path d="M235.764 144.324V151.228H233.706V144.324H232.817V142.427H233.706V139.197H235.764V142.427H237.339V144.324H235.764Z" fill="#FFD15B"/>
<path d="M248.4 142.427H250.459V151.268H248.4V150.34C246.866 151.874 244.404 151.914 242.87 150.38C242.789 150.299 242.748 150.259 242.668 150.178C241.86 149.25 241.416 148.039 241.457 146.787C241.416 145.576 241.86 144.365 242.668 143.477C243.394 142.629 244.484 142.145 245.655 142.145C246.705 142.145 247.714 142.629 248.441 143.436V142.427H248.4ZM243.556 146.828C243.516 147.595 243.758 148.321 244.242 148.886C244.686 149.411 245.332 149.694 246.019 149.694C246.705 149.734 247.391 149.452 247.835 148.927C248.764 147.716 248.764 146.02 247.835 144.809C247.391 144.284 246.705 144.002 246.019 144.002C245.332 144.002 244.686 144.284 244.242 144.809C243.798 145.374 243.556 146.101 243.556 146.828Z" fill="#FFD15B"/>
<path d="M261.158 143.921L259.462 144.809C259.22 144.284 258.857 144.002 258.453 144.002C258.291 144.002 258.09 144.082 257.968 144.203C257.847 144.325 257.767 144.486 257.767 144.688C257.767 145.011 258.17 145.374 258.937 145.697C259.745 145.98 260.471 146.424 261.117 146.989C261.521 147.433 261.723 147.998 261.683 148.563C261.683 149.371 261.36 150.178 260.754 150.703C260.148 151.228 259.341 151.551 258.534 151.511C257.04 151.511 255.99 150.784 255.385 149.33L257.121 148.523C257.282 148.806 257.444 149.088 257.686 149.33C257.928 149.573 258.251 149.694 258.574 149.653C259.26 149.653 259.624 149.33 259.624 148.725C259.624 148.362 259.341 148.039 258.816 147.716L257.565 147.11C257.08 146.908 256.677 146.626 256.313 146.222C255.99 145.818 255.829 145.293 255.869 144.809C255.869 144.082 256.152 143.396 256.677 142.912C257.201 142.427 257.928 142.145 258.655 142.145C259.745 142.185 260.593 142.79 261.158 143.921Z" fill="#FFD15B"/>
<path d="M268.625 144.324V151.228H266.567V144.324H265.719V142.427H266.607V139.197H268.666V142.427H270.24V144.324H268.625Z" fill="#FFD15B"/>
<path d="M274.277 138.754C274.277 138.39 274.439 138.067 274.681 137.825C275.206 137.3 276.054 137.3 276.578 137.825C276.821 138.067 276.982 138.39 276.982 138.754C276.982 139.117 276.821 139.44 276.578 139.682C276.336 139.925 276.013 140.086 275.65 140.086C274.883 140.086 274.277 139.521 274.277 138.754ZM276.619 142.428V151.269H274.6V142.428H276.619Z" fill="#FFD15B"/>
<path d="M289.094 142.831V145.536C288.73 145.092 288.327 144.689 287.842 144.366C287.439 144.123 286.994 144.043 286.55 144.043C285.824 144.043 285.137 144.325 284.613 144.85C284.088 145.415 283.846 146.142 283.846 146.869C283.805 147.636 284.088 148.362 284.572 148.927C285.057 149.452 285.743 149.735 286.47 149.735C286.914 149.735 287.358 149.654 287.762 149.412C288.246 149.089 288.69 148.685 289.053 148.201V150.906C288.286 151.309 287.439 151.552 286.55 151.552C285.259 151.592 284.047 151.107 283.119 150.219C282.231 149.372 281.706 148.16 281.746 146.909C281.706 145.657 282.231 144.446 283.159 143.558C284.088 142.67 285.299 142.186 286.591 142.186C287.479 142.186 288.327 142.387 289.094 142.831Z" fill="#FFD15B"/>
<path d="M301.245 135.807H303.264V143.033C303.91 142.427 304.798 142.064 305.686 142.064C306.574 142.024 307.462 142.387 308.068 143.033C308.593 143.598 308.835 144.486 308.835 145.738V151.147H306.776V145.899C306.816 145.374 306.695 144.809 306.413 144.365C306.09 144.042 305.646 143.84 305.201 143.881C304.636 143.84 304.031 144.083 303.708 144.527C303.425 144.971 303.264 145.738 303.264 146.828V151.107H301.245V135.807Z" fill="#FFD15B"/>
<path d="M322.481 147.192H316.142C316.142 147.838 316.425 148.444 316.869 148.928C317.313 149.372 317.878 149.574 318.484 149.574C318.928 149.574 319.372 149.453 319.735 149.211C320.179 148.847 320.543 148.363 320.866 147.878L322.602 148.847C322.359 149.251 322.077 149.655 321.754 150.018C321.471 150.341 321.148 150.583 320.785 150.825C320.462 151.027 320.058 151.189 319.695 151.27C319.291 151.35 318.847 151.431 318.403 151.431C317.192 151.471 316.062 151.027 315.214 150.139C314.366 149.211 313.962 148 314.003 146.748C313.962 145.497 314.366 144.285 315.174 143.357C315.981 142.509 317.111 142.025 318.282 142.065C319.453 142.025 320.583 142.469 321.391 143.317C322.158 144.124 322.521 145.295 322.521 146.748L322.481 147.192ZM320.381 145.537C320.22 144.568 319.332 143.841 318.322 143.922C318.08 143.922 317.838 143.962 317.636 144.043C317.192 144.205 316.829 144.487 316.586 144.891C316.465 145.093 316.344 145.335 316.304 145.577L320.381 145.537Z" fill="#FFD15B"/>
<path d="M327.365 138.592C327.365 137.865 327.971 137.26 328.697 137.26C329.061 137.26 329.384 137.421 329.626 137.663C329.868 137.906 330.03 138.229 330.03 138.592C330.03 138.955 329.868 139.278 329.626 139.521C329.384 139.763 329.061 139.924 328.697 139.924C327.971 139.965 327.365 139.399 327.365 138.592C327.365 138.632 327.365 138.632 327.365 138.592ZM329.707 142.266V151.107H327.648V142.266H329.707Z" fill="#FFD15B"/>
<path d="M340.405 143.8L338.709 144.688C338.427 144.164 338.104 143.881 337.7 143.881C337.539 143.881 337.337 143.962 337.216 144.083C337.094 144.204 337.014 144.365 337.014 144.567C337.014 144.89 337.417 145.254 338.184 145.577C338.992 145.859 339.719 146.303 340.364 146.828C340.768 147.272 340.97 147.837 340.93 148.403C340.93 149.21 340.607 150.017 340.001 150.542C339.396 151.067 338.588 151.39 337.781 151.35C336.287 151.35 335.237 150.623 334.632 149.17L336.368 148.362C336.529 148.645 336.691 148.927 336.933 149.17C337.175 149.412 337.498 149.533 337.821 149.533C338.507 149.533 338.871 149.21 338.871 148.604C338.871 148.241 338.588 147.918 338.063 147.595L336.812 146.99C336.327 146.788 335.924 146.505 335.56 146.101C335.237 145.698 335.076 145.173 335.076 144.688C335.076 143.962 335.358 143.275 335.883 142.791C336.408 142.307 337.135 142.024 337.861 142.064C339.032 142.024 339.88 142.63 340.405 143.8Z" fill="#FFD15B"/>
<path d="M347.914 144.203V151.147H345.855V144.203H344.967V142.306H345.855V139.076H347.914V142.306H349.488V144.203H347.914Z" fill="#FFD15B"/>
<path d="M164.55 82.1146C164.914 81.2668 165.196 80.419 165.398 79.5712C165.842 77.916 166.125 76.2205 166.246 74.4845C166.488 70.8512 166.084 67.2178 166.084 63.5845C165.317 52.8055 153.368 51.6348 153.368 51.6348H133.586V52.1192V126.845C133.586 126.845 152.6 126.563 153.489 126.442C166.084 124.746 166.084 113.604 166.084 113.604V98.7473C166.084 95.0735 166.448 91.1576 165.196 87.6453C164.712 86.3131 164.146 84.9809 163.501 83.689C163.541 83.8101 164.51 82.2357 164.55 82.1146ZM144.082 90.3502C144.082 89.3005 144.446 88.9372 145.415 88.9776C147.029 89.0179 148.644 88.9372 150.259 89.0583C153.004 89.2602 154.781 90.9557 154.861 93.7009C154.942 99.5547 154.982 105.449 154.861 111.303C154.821 114.209 152.883 115.864 149.936 115.905C148.039 115.945 146.141 115.905 144.082 115.905C144.123 107.265 144.123 98.7876 144.082 90.3502ZM154.902 73.7982C154.781 76.5434 153.206 78.1583 150.38 78.5216C149.048 78.6023 147.716 78.6427 146.383 78.6023C145.737 78.6023 145.051 78.6023 144.284 78.6023V62.4541C146.666 62.4541 149.008 62.2522 151.309 62.5348C153.489 62.8174 154.821 64.5534 154.942 66.9352C154.982 69.196 154.982 71.4971 154.902 73.7982Z" fill="#FFD15B"/>
<path d="M238.994 82.1146C239.357 81.2668 239.64 80.419 239.842 79.5712C240.286 77.916 240.568 76.2205 240.689 74.4845C240.932 70.8512 240.528 67.2178 240.528 63.5845C239.761 52.8055 227.811 51.6348 227.811 51.6348H208.474V54.1377V126.442H218.889V124.383C218.889 113.967 218.889 103.551 218.889 93.1357C218.889 88.9776 218.889 88.9776 223.007 88.9776C228.538 88.9776 229.83 90.2694 229.83 95.8406C229.83 105.368 229.83 114.855 229.83 124.383V126.442H239.075H240.528V98.7069C240.528 95.0332 240.891 91.1172 239.64 87.605C239.155 86.2727 238.63 84.9809 237.985 83.7294V83.6083C238.348 83.2046 238.711 82.6798 238.994 82.1146ZM229.749 73.8386C229.507 76.9875 227.932 78.4005 224.783 78.562C223.29 78.6427 221.756 78.5216 220.262 78.6023C219.212 78.6427 218.93 78.1583 218.93 77.1894C218.97 74.8882 218.93 72.6275 218.93 70.3264C218.93 68.1463 218.97 65.9663 218.889 63.7863C218.849 62.6559 219.212 62.1311 220.423 62.2119C222.079 62.2926 223.774 62.2119 225.429 62.333C228.013 62.5752 229.426 63.8671 229.668 66.4508C229.87 68.9134 229.91 71.376 229.749 73.8386Z" fill="#FFD15B"/>
<path d="M261.925 78.5622V89.0182L267.294 89.1393V90.8348C267.254 97.4556 267.294 104.076 267.254 110.697C267.213 114.29 265.396 115.945 261.723 115.905C258.13 115.865 256.394 114.25 256.394 110.697C256.353 96.3253 256.353 81.9129 256.394 67.5006C256.394 64.271 257.928 62.5754 260.875 62.2928C263.983 61.9699 265.881 62.9791 266.809 65.3206C266.85 65.4014 266.89 65.4821 266.931 65.6436C266.971 65.8051 266.971 65.8051 267.011 65.8858L267.052 65.9665C267.092 66.1684 267.173 66.3299 267.213 66.5317V66.5721C267.213 66.5721 267.213 66.5721 267.213 66.6125C267.294 67.0969 267.375 67.541 267.375 67.541L268.101 67.5814H268.142H268.465H268.626C271.573 67.6621 274.561 67.6217 277.508 67.6217C278.154 60.9202 275.166 55.5106 270.443 53.4113C265.396 51.1909 260.189 51.2313 255.021 52.6846C250.863 53.8554 247.997 56.6409 246.866 60.8395C246.261 63.0599 245.938 65.361 245.897 67.6621C245.817 81.7111 245.817 95.7601 245.897 109.849C245.897 111.868 246.099 113.886 246.463 115.865C247.351 120.507 250.015 123.737 254.537 125.352C258.897 126.926 263.338 126.926 267.738 125.836C271.694 124.867 274.843 122.607 276.297 118.731C277.144 116.551 277.588 114.209 277.669 111.868C277.75 104.642 277.75 97.4153 277.75 90.2293V78.5622H261.925Z" fill="#FFD15B"/>
<path d="M315.173 62.2516V51.7148H299.751L288.649 51.7552H283.441V126.441H314.971V115.823H293.857V88.9769H312.468V78.5209H293.857V62.2516H315.173Z" fill="#FFD15B"/>
<path d="M202.943 53.6116C202.943 53.0868 202.903 52.5216 202.862 51.7949H194.748C194.344 51.7949 193.981 51.7949 193.698 51.7949H192.487V54.096C192.487 72.1417 192.487 90.147 192.487 108.193C192.527 109.363 192.487 110.534 192.366 111.705C192.043 114.49 190.307 115.903 187.279 115.944C183.767 115.984 182.193 114.854 181.789 111.866C181.668 110.897 181.587 109.929 181.587 108.96L181.627 108.919V51.7949H176.904C175.007 51.7949 173.109 51.7949 171.091 51.7949V54.2575C171.091 66.3687 171.091 78.4395 171.091 90.5507C171.091 98.0193 170.889 105.447 171.212 112.876C171.414 118.406 173.674 123.049 179.245 125.189C184.292 127.126 189.419 127.086 194.506 125.31C198.422 123.937 201.005 121.152 202.055 117.155C202.58 115.177 202.903 113.118 202.943 111.059C202.943 91.9233 202.943 72.7473 202.943 53.6116Z" fill="#FFD15B"/>
<path d="M300.277 29.5508C299.268 29.7526 298.258 29.8737 297.209 29.9141C297.007 29.9141 296.805 29.9141 296.644 29.9141V30.883C297.855 30.9638 299.106 30.8426 300.277 30.5197V29.5508Z" fill="#FFD15B"/>
<path d="M305.808 26.2419C305.404 24.7886 302.416 24.2637 299.146 25.1519C295.876 26.0401 293.495 27.9375 293.858 29.3908C294.06 30.0771 294.786 30.5616 295.876 30.7634V29.7945C293.656 29.3504 294.988 27.5338 294.988 27.5338C295.029 30.279 300.438 28.7449 300.438 28.7449C304.516 27.453 304.193 25.3538 304.193 25.3538C304.718 25.5152 305.041 26.0804 304.879 26.6052C304.879 26.686 304.839 26.7264 304.798 26.8071C304.516 27.1301 304.233 27.4127 303.951 27.6953L304.718 28.4219C305.565 27.7356 305.969 26.9282 305.808 26.2419Z" fill="#FFD15B"/>
<path d="M301.326 30.2373C302.134 29.9951 302.901 29.6317 303.627 29.228L303.345 28.2188C302.739 28.6628 302.053 29.0262 301.326 29.2684V30.2373Z" fill="#FFD15B"/>
<path d="M303.506 39.32C302.537 38.7548 301.649 38.0685 300.842 37.3015C300.68 37.14 300.519 37.0189 300.398 36.8574L299.671 37.6245C300.559 38.5934 301.609 39.4411 302.779 40.0871L303.506 39.32Z" fill="#FFD15B"/>
<path d="M310.369 40.8547C311.177 39.4014 309.199 36.7773 305.929 34.9606C302.659 33.1439 299.389 32.8613 298.581 34.3147C298.218 35.001 298.46 35.9295 299.146 36.9387L299.873 36.1717C298.46 34.1532 300.882 33.7495 300.882 33.7495C298.864 35.9699 304.273 38.8362 304.273 38.8362C308.432 40.8951 309.804 38.9976 309.804 38.9976C310.127 39.5225 309.925 40.2088 309.401 40.4914C309.32 40.5317 309.279 40.5721 309.199 40.5721C308.755 40.6125 308.311 40.6528 307.826 40.6125L307.907 41.7429C309.078 41.8236 310.006 41.541 310.369 40.8547Z" fill="#FFD15B"/>
<path d="M303.829 40.6525C304.637 41.0562 305.525 41.3791 306.413 41.581L306.938 40.6121C306.13 40.491 305.323 40.2487 304.556 39.9258L303.829 40.6525Z" fill="#FFD15B"/>
<path d="M352.637 63.5845C351.87 52.8055 339.921 51.6348 339.921 51.6348H320.704V126.482H331.322V97.8591C331.322 95.6387 331.322 93.378 331.322 91.1576C331.322 89.0179 331.322 89.0179 333.542 89.0179C334.511 89.0179 335.439 89.0179 336.408 89.0179C340.486 89.0583 342.181 90.7539 342.222 94.8717C342.222 101.21 342.222 107.508 342.222 113.846V126.563H349.569C350.013 126.563 350.457 126.563 350.901 126.603C351.103 126.603 351.345 126.603 351.547 126.563H352.678V119.336C352.678 111.504 352.678 103.672 352.678 95.881C352.678 94.9121 352.678 93.9835 352.637 93.0146C352.637 92.8935 352.637 92.7724 352.637 92.6513C352.597 90.9557 352.274 89.2602 351.749 87.6453C351.709 87.5242 351.668 87.4031 351.628 87.282C351.426 86.7572 351.224 86.2324 351.022 85.7076C350.942 85.4653 350.821 85.2635 350.699 85.0213L350.336 84.2946L350.054 83.7294C350.377 83.3257 350.659 82.8816 350.901 82.4375C350.982 82.2761 351.063 82.1549 351.103 82.1146C351.144 81.9935 351.184 81.8724 351.265 81.7512C351.668 80.9035 351.911 80.0153 352.072 79.0868V79.1271C352.476 77.5931 352.718 76.059 352.799 74.4845C353.041 70.8512 352.637 67.2178 352.637 63.5845ZM341.939 74.6056C341.697 77.0682 340.243 78.2794 337.781 78.4812C335.722 78.6427 333.663 78.5216 331.402 78.5216V62.333C333.623 62.333 335.762 62.2119 337.862 62.3733C340.203 62.5752 341.697 63.7863 341.939 66.1278C342.222 68.9134 342.222 71.7797 341.939 74.6056Z" fill="#FFD15B"/>
</svg>
