<svg width="295" height="129" viewBox="0 0 295 129" fill="none" xmlns="http://www.w3.org/2000/svg">
<path d="M117.147 128.246H11.6325C5.57746 128.246 0.655273 123.363 0.655273 117.308V11.7937C0.655273 5.73859 5.57746 0.816406 11.6325 0.816406H117.147C123.202 0.816406 128.124 5.73859 128.124 11.7937V117.308C128.085 123.363 123.202 128.246 117.147 128.246Z" fill="#295CD3"/>
<path d="M0.655273 13.9844C1.08499 14.0234 1.5147 14.0234 1.98348 14.0234C25.2271 14.0234 48.5098 14.0234 71.7535 14.0234C76.9882 14.0234 82.2229 14.5703 87.2622 16.0548C94.6064 18.2034 100.857 21.9536 105.154 28.5165C108.201 33.1262 109.568 38.2828 109.881 43.7519C110.154 48.3615 109.49 52.7759 107.342 56.9167C105.974 59.5341 104.138 61.7999 101.873 63.714C101.013 64.4563 101.013 64.4563 101.873 65.0813C107.185 69.105 110.701 74.4178 112.108 80.8635C114.178 90.3954 112.42 99.2241 106.17 106.92C102.732 111.139 98.1223 113.795 93.0439 115.67C87.0669 117.858 80.8556 118.678 74.5271 118.835C71.6753 118.913 68.8627 118.874 66.0109 118.913C65.2296 118.913 64.9952 118.678 64.9952 117.897C65.0343 110.397 65.0343 102.857 64.9952 95.3566C64.9952 94.6144 65.2296 94.38 65.9718 94.38C69.2533 94.4191 72.5348 94.4581 75.8162 94.38C79.0195 94.3019 81.9494 93.3643 84.3324 91.1767C86.6763 89.0281 87.106 86.2154 86.4809 83.2856C85.7778 80.1604 83.6292 78.2462 80.6603 77.4258C78.9023 76.918 77.0272 76.6836 75.2302 76.6836C66.089 76.6055 56.9088 76.6445 47.7676 76.6445C46.6347 76.6445 46.5956 76.6836 46.5956 77.8165C46.5956 91.1376 46.5956 104.459 46.6347 117.741C46.6347 118.6 46.4394 118.913 45.5409 118.913C37.5716 118.874 29.6415 118.874 21.6722 118.913C20.8128 118.913 20.5784 118.6 20.5784 117.78C20.5784 96.5676 20.5784 75.3554 20.5784 54.1431C20.5784 53.3228 20.8518 53.1274 21.6331 53.1274C39.1733 53.1665 56.6744 53.1665 74.2146 53.1274C76.4022 53.1274 78.5898 52.854 80.6212 51.9164C82.8088 50.9007 83.9027 49.1819 83.8636 46.7598C83.8245 45.666 83.8245 44.5722 83.6683 43.5175C83.2385 40.9392 81.5588 39.3375 79.0977 38.7515C77.4179 38.3218 75.66 38.0484 73.902 38.0484C49.9552 38.0093 25.9694 38.0093 2.02255 38.0093C1.59283 38.0093 1.16312 37.9702 0.694338 37.9702C0.655273 30.0401 0.655273 21.9927 0.655273 13.9844Z" fill="white"/>
<path d="M141.955 23.9062H152.034C155.472 23.9062 158.011 24.7266 159.573 26.3283C161.136 27.9299 161.956 30.391 161.956 33.7115V35.4304C161.956 37.618 161.605 39.415 160.902 40.7823C160.198 42.1496 159.105 43.1653 157.659 43.7512V43.8684C160.98 45.0013 162.659 47.9702 162.659 52.7362V56.3692C162.659 59.6507 161.8 62.1508 160.081 63.8697C158.362 65.5885 155.823 66.448 152.503 66.448H141.994V23.9062H141.955ZM151.253 41.2511C152.581 41.2511 153.596 40.8995 154.261 40.2354C154.925 39.5322 155.276 38.3993 155.276 36.7586V34.3757C155.276 32.8521 155.003 31.7192 154.456 31.0161C153.909 30.3129 153.05 30.0004 151.878 30.0004H148.635V41.2511H151.253ZM152.464 60.432C153.635 60.432 154.495 60.1194 155.081 59.4944C155.667 58.8694 155.94 57.7755 155.94 56.252V52.5408C155.94 50.5876 155.589 49.2594 154.925 48.4781C154.261 47.7359 153.167 47.3452 151.604 47.3452H148.635V60.432H152.464Z" fill="white"/>
<path d="M168.632 64.2994C166.874 62.4243 166.015 59.807 166.015 56.4083V34.0241C166.015 30.6255 166.874 27.969 168.632 26.133C170.39 24.2579 172.89 23.3203 176.172 23.3203C179.453 23.3203 181.953 24.2579 183.711 26.133C185.469 28.0081 186.328 30.6255 186.328 34.0241V56.4083C186.328 59.807 185.469 62.4634 183.711 64.2994C181.953 66.1745 179.453 67.1121 176.172 67.1121C172.89 67.1121 170.39 66.1745 168.632 64.2994ZM179.648 56.838V33.5944C179.648 30.7817 178.476 29.4144 176.172 29.4144C173.867 29.4144 172.695 30.8208 172.695 33.5944V56.838C172.695 59.6507 173.867 61.018 176.172 61.018C178.476 61.018 179.648 59.6116 179.648 56.838Z" fill="white"/>
<path d="M190.865 23.9062H200.788C204.225 23.9062 206.765 24.7266 208.327 26.3283C209.89 27.9299 210.71 30.391 210.71 33.7115V36.3289C210.71 40.7432 209.265 43.5559 206.335 44.7279V44.8451C207.976 45.3138 209.109 46.3295 209.773 47.814C210.437 49.2985 210.788 51.3298 210.788 53.83V61.3305C210.788 62.5415 210.827 63.5181 210.906 64.2994C210.984 65.0416 211.179 65.7839 211.531 66.5261H204.733C204.499 65.8229 204.343 65.1979 204.265 64.5728C204.186 63.9478 204.147 62.854 204.147 61.2914V53.5175C204.147 51.5642 203.835 50.1969 203.21 49.4547C202.585 48.6734 201.491 48.2828 199.967 48.2828H197.545V66.5261H190.865V23.9062ZM199.967 42.1496C201.296 42.1496 202.311 41.798 202.975 41.1339C203.639 40.4307 203.991 39.2978 203.991 37.6571V34.3757C203.991 32.8521 203.718 31.7192 203.171 31.0161C202.624 30.3129 201.764 30.0004 200.592 30.0004H197.545V42.1496H199.967Z" fill="white"/>
<path d="M215.356 23.9062H225.279C228.717 23.9062 231.256 24.7266 232.818 26.3283C234.381 27.9299 235.201 30.391 235.201 33.7115V36.3289C235.201 40.7432 233.756 43.5559 230.826 44.7279V44.8451C232.467 45.3138 233.6 46.3295 234.264 47.814C234.928 49.2985 235.28 51.3298 235.28 53.83V61.3305C235.28 62.5415 235.319 63.5181 235.397 64.2994C235.475 65.0416 235.67 65.7839 236.022 66.5261H229.185C228.951 65.8229 228.795 65.1979 228.717 64.5728C228.639 63.9478 228.599 62.854 228.599 61.2914V53.5175C228.599 51.5642 228.287 50.1969 227.662 49.4547C227.037 48.6734 225.943 48.2828 224.42 48.2828H222.115V66.5261H215.435V23.9062H215.356ZM224.498 42.1496C225.826 42.1496 226.842 41.798 227.506 41.1339C228.17 40.4307 228.521 39.2978 228.521 37.6571V34.3757C228.521 32.8521 228.248 31.7192 227.701 31.0161C227.154 30.3129 226.295 30.0004 225.123 30.0004H222.076V42.1496H224.498Z" fill="white"/>
<path d="M241.996 64.2994C240.238 62.4243 239.379 59.807 239.379 56.4083V34.0241C239.379 30.6255 240.238 27.969 241.996 26.133C243.754 24.2579 246.254 23.3203 249.536 23.3203C252.817 23.3203 255.317 24.2579 257.075 26.133C258.833 28.0081 259.693 30.6255 259.693 34.0241V56.4083C259.693 59.807 258.833 62.4634 257.075 64.2994C255.317 66.1745 252.817 67.1121 249.536 67.1121C246.254 67.1121 243.754 66.1745 241.996 64.2994ZM253.013 56.838V33.5944C253.013 30.7817 251.841 29.4144 249.536 29.4144C247.231 29.4144 246.059 30.8208 246.059 33.5944V56.838C246.059 59.6507 247.231 61.018 249.536 61.018C251.841 61.018 253.013 59.6116 253.013 56.838Z" fill="white"/>
<path d="M262.622 23.9062H269.068L272.037 56.6427H272.154L275.318 23.9062H282.623L285.788 56.6427H285.905L288.874 23.9062H294.655L290.319 66.487H281.998L278.951 37.7743H278.834L275.787 66.487H266.919L262.622 23.9062Z" fill="white"/>
<path d="M165.32 93.9892H158.015L156.804 97.466H152.937L159.539 79.1055H163.797L170.399 97.466H166.531L165.32 93.9892ZM164.343 91.0593L161.687 83.4026L159.031 91.0593H164.343Z" fill="#295CD3"/>
<path d="M192.08 89.612C192.744 90.4323 193.096 91.409 193.096 92.5028C193.096 93.4794 192.861 94.3388 192.392 95.0811C191.924 95.8233 191.22 96.4093 190.322 96.839C189.423 97.2687 188.33 97.464 187.08 97.464H179.188V79.1426H186.728C187.978 79.1426 189.033 79.3379 189.931 79.7286C190.83 80.1192 191.533 80.7052 191.963 81.4083C192.431 82.1115 192.666 82.9319 192.666 83.8304C192.666 84.8851 192.392 85.7836 191.806 86.5258C191.22 87.229 190.478 87.7369 189.541 88.0494C190.556 88.2838 191.377 88.7916 192.08 89.612ZM182.782 86.7212H186.142C187.001 86.7212 187.705 86.5258 188.173 86.1352C188.642 85.7445 188.877 85.1586 188.877 84.4554C188.877 83.7522 188.642 83.1663 188.173 82.7366C187.705 82.3459 187.041 82.1506 186.142 82.1506H182.782V86.7212ZM188.603 93.8701C189.111 93.4403 189.345 92.8544 189.345 92.0731C189.345 91.2918 189.072 90.6667 188.564 90.237C188.056 89.8073 187.314 89.5729 186.455 89.5729H182.822V94.4951H186.533C187.392 94.4951 188.095 94.2607 188.603 93.8701Z" fill="#295CD3"/>
<path d="M199.614 79.1426V90.4714C199.614 91.7215 199.927 92.659 200.591 93.3231C201.255 93.9873 202.154 94.2998 203.326 94.2998C204.498 94.2998 205.435 93.9873 206.099 93.3231C206.763 92.659 207.076 91.7215 207.076 90.4714V79.1426H210.787V90.4714C210.787 92.034 210.435 93.3622 209.771 94.417C209.107 95.4717 208.209 96.2921 207.076 96.839C205.943 97.3859 204.693 97.6594 203.326 97.6594C201.958 97.6594 200.708 97.3859 199.614 96.839C198.521 96.2921 197.622 95.4717 196.958 94.417C196.294 93.3232 195.981 92.034 195.981 90.4714V79.1426H199.614Z" fill="#295CD3"/>
<path d="M225.747 80.2755C227.192 81.0177 228.325 82.1115 229.145 83.4788C229.927 84.8851 230.356 86.4868 230.356 88.3228C230.356 90.1589 229.966 91.7606 229.145 93.1278C228.364 94.4951 227.231 95.5498 225.747 96.3311C224.301 97.0734 222.583 97.464 220.668 97.464H214.262V79.1426H220.668C222.622 79.1426 224.301 79.5332 225.747 80.2755ZM225.005 92.7762C226.059 91.7215 226.567 90.237 226.567 88.3228C226.567 86.4087 226.059 84.9242 225.005 83.8304C223.95 82.7366 222.465 82.2287 220.551 82.2287H217.973V94.3388H220.551C222.465 94.3388 223.95 93.831 225.005 92.7762Z" fill="#295CD3"/>
<path d="M244.577 80.2755C246.022 81.0177 247.155 82.1115 247.976 83.4788C248.757 84.8851 249.187 86.4868 249.187 88.3228C249.187 90.1589 248.796 91.7606 247.976 93.1278C247.194 94.4951 246.061 95.5498 244.577 96.3311C243.131 97.0734 241.413 97.464 239.498 97.464H233.092V79.1426H239.498C241.413 79.1426 243.092 79.5332 244.577 80.2755ZM243.835 92.7762C244.889 91.7215 245.397 90.237 245.397 88.3228C245.397 86.4087 244.889 84.9242 243.835 83.8304C242.78 82.7366 241.295 82.2287 239.381 82.2287H236.803V94.3388H239.381C241.295 94.3388 242.78 93.831 243.835 92.7762Z" fill="#295CD3"/>
<path d="M266.456 79.1426L260.245 91.0964V97.464H256.573V91.0964L250.361 79.1426H254.502L258.487 87.5415L262.393 79.1816H266.456V79.1426Z" fill="#295CD3"/>
<path d="M271.456 96.9953C270.441 96.5656 269.62 95.9405 269.034 95.1202C268.448 94.2998 268.136 93.3232 268.097 92.1903H272.042C272.081 92.9325 272.355 93.5185 272.824 93.9873C273.292 94.417 273.956 94.6514 274.816 94.6514C275.675 94.6514 276.339 94.4561 276.847 94.0263C277.355 93.5966 277.589 93.0888 277.589 92.4247C277.589 91.8778 277.433 91.4481 277.082 91.0965C276.73 90.7449 276.339 90.4714 275.832 90.2761C275.324 90.0808 274.66 89.8464 273.761 89.612C272.589 89.2604 271.613 88.9088 270.87 88.5572C270.128 88.2057 269.503 87.6978 268.956 86.9946C268.409 86.2915 268.175 85.393 268.175 84.221C268.175 83.1272 268.448 82.1897 268.995 81.3693C269.542 80.5489 270.284 79.963 271.261 79.5332C272.238 79.1035 273.37 78.9082 274.621 78.9082C276.496 78.9082 278.058 79.377 279.23 80.2755C280.402 81.213 281.066 82.4631 281.183 84.1038H277.16C277.121 83.4788 276.847 82.971 276.378 82.5412C275.871 82.1115 275.207 81.9162 274.386 81.9162C273.683 81.9162 273.097 82.1115 272.667 82.4631C272.238 82.8147 272.042 83.3616 272.042 84.0648C272.042 84.5726 272.199 84.9633 272.511 85.2758C272.824 85.5883 273.253 85.8618 273.722 86.0571C274.191 86.2524 274.894 86.4868 275.753 86.7603C276.925 87.1118 277.902 87.4634 278.683 87.815C279.426 88.1666 280.09 88.6744 280.637 89.3776C281.183 90.0808 281.457 90.9793 281.457 92.1512C281.457 93.1278 281.183 94.0263 280.715 94.8858C280.207 95.7061 279.465 96.4093 278.488 96.8781C277.511 97.3859 276.339 97.6203 275.011 97.6203C273.644 97.6594 272.511 97.425 271.456 96.9953Z" fill="#295CD3"/>
</svg>
