<svg width="394" height="43" viewBox="0 0 394 43" fill="none" xmlns="http://www.w3.org/2000/svg">
<path d="M65.415 14.0585C65.087 13.5796 64.7322 13.1096 64.4218 12.6218C63.4641 11.0965 62.8787 9.45581 62.9674 7.62894C63.0472 6.03264 63.668 4.65804 64.7411 3.51401C67.0291 1.06635 69.9025 0.0908309 73.2015 0.285935C74.7889 0.383486 76.3054 0.764824 77.7332 1.49204C79.3207 2.29905 80.5357 3.46967 81.0678 5.21673C81.2451 5.80204 81.3072 6.4317 81.3249 7.04362C81.3604 8.64879 81.3337 10.254 81.3337 11.8591V12.205H86.4774V12.613H81.3516C81.3427 12.7282 81.3337 12.808 81.3337 12.8967C81.3337 20.0978 81.3249 27.3079 81.3516 34.5089C81.3516 35.9544 81.5201 37.3911 82.0166 38.7746C82.5577 40.2645 83.471 41.3996 85.0762 41.8252C85.9098 42.047 86.7523 42.0204 87.5949 41.9584C87.7456 41.9495 87.8875 41.9228 88.0561 41.8963C88.0738 42.0116 88.0914 42.1002 88.1091 42.2598C87.5682 42.2954 87.045 42.3396 86.5218 42.3486C84.3047 42.3751 82.2827 41.781 80.5267 40.4064C78.8506 39.0938 77.9106 37.3556 77.7509 35.2183C77.7332 34.9345 77.7332 34.6419 77.7332 34.3492C77.7332 27.2546 77.7332 20.1599 77.7332 13.0652V12.6307H74.5406C74.5318 12.6129 74.5229 12.5863 74.5229 12.5686C74.6204 12.5243 74.718 12.4799 74.8244 12.4445C76.27 11.8591 77.6534 11.1585 78.8596 10.1564C79.7819 9.38487 80.5002 8.47143 80.7928 7.28307C81.1475 5.83753 80.7041 4.60483 79.7552 3.53175C78.5758 2.20149 77.0592 1.44769 75.3653 1.01314C73.0153 0.410087 70.6828 0.463301 68.4214 1.39448C66.4882 2.19263 64.9007 3.41646 63.9695 5.34976C63.1625 7.01701 63.2335 8.7286 63.8365 10.4313C64.3597 11.9123 65.2821 13.1451 66.3374 14.2979C67.4017 15.4597 68.5367 16.5682 69.4946 17.8009C71.9156 20.9226 73.033 24.47 72.6871 28.4429C72.2792 33.0101 70.2484 36.6994 66.6212 39.4929C64.3332 41.2489 61.7258 42.2687 58.8348 42.4727C53.5227 42.8451 49.1328 40.9563 45.7096 36.8945C43.7586 34.571 42.6145 31.8572 42.3219 28.8332C41.9583 25.0641 42.8362 21.5878 45.0091 18.4749C47.5188 14.8833 50.9596 12.7194 55.2874 12.0809C58.7905 11.5576 62.1339 12.1695 65.2111 13.9964C65.2732 14.0319 65.3353 14.0674 65.3974 14.094C65.3885 14.0851 65.3974 14.0762 65.415 14.0585ZM45.8338 24.2216C45.9224 25.0995 45.9756 25.9865 46.1176 26.8644C46.7915 31.1213 48.645 34.7927 51.7046 37.8256C53.5315 39.6349 55.6511 40.9473 58.2317 41.4174C60.0763 41.7543 61.8677 41.5593 63.5616 40.7434C65.7344 39.6969 67.1532 37.9409 68.0579 35.7504C69.0955 33.2319 69.2728 30.6069 68.9181 27.9375C68.4835 24.6295 67.242 21.641 65.2821 18.9449C63.6769 16.7367 61.7169 14.9186 59.1984 13.7836C57.265 12.9056 55.252 12.6041 53.1679 13.083C50.4808 13.6949 48.6184 15.371 47.3502 17.7477C46.2772 19.7697 45.9047 21.9513 45.8338 24.2216Z" fill="white"/>
<path d="M39.1644 33.3917C38.5435 34.2252 37.9671 35.1032 37.3019 35.8925C34.6857 38.9786 31.3423 40.8853 27.4226 41.79C23.9373 42.588 20.4343 42.6679 16.9403 41.8254C13.5968 41.0183 10.6171 39.4842 8.02751 37.2228C4.24071 33.9149 1.81966 29.791 0.986032 24.8247C-0.0604348 18.608 1.37624 12.9678 5.29605 8.01923C8.41771 4.08169 12.4794 1.56308 17.4103 0.490016C21.7025 -0.441161 25.8883 -0.04209 29.9323 1.66064C33.2846 3.07071 36.0869 5.21684 38.4459 7.9749C38.783 8.37398 39.1023 8.79079 39.4658 9.24307C39.315 9.25195 39.2264 9.26081 39.1465 9.26081C37.2221 9.26081 35.2977 9.26082 33.3733 9.26968C33.1781 9.26968 33.0452 9.2076 32.921 9.05684C31.3158 7.15015 29.4979 5.47403 27.3427 4.17924C25.2587 2.91995 23.0151 2.12178 20.6029 1.80252C18.6341 1.54535 16.6653 1.51875 14.7231 2.0065C11.4063 2.84013 8.79905 4.67587 6.95443 7.57582C5.61531 9.68649 4.87037 12.01 4.55111 14.4843C4.26732 16.666 4.34714 18.8386 4.60432 21.0114C4.91471 23.725 5.62419 26.3235 6.87462 28.7624C8.70149 32.3274 11.3975 35.0411 14.9714 36.8769C17.5256 38.1895 20.2481 38.9254 23.1125 39.1827C25.6933 39.4133 28.2474 39.3068 30.7482 38.5707C33.8343 37.6751 36.4772 36.0964 38.4459 33.507C38.6321 33.2585 38.845 33.2941 39.0756 33.3118C39.1023 33.3384 39.1377 33.365 39.1644 33.3917Z" fill="white"/>
<path d="M142.88 42.2161H132.85C132.947 42.1096 133.009 42.021 133.089 41.9501C134.012 40.9834 134.943 40.0344 135.865 39.059C135.972 38.9526 136.043 38.7664 136.043 38.6244C136.051 31.3701 136.051 24.1157 136.051 16.8615C136.051 16.6574 135.989 16.5421 135.821 16.4268C134.907 15.8327 134.012 15.2297 133.107 14.6266C133.027 14.5734 132.947 14.5113 132.823 14.4315C135.111 13.7043 137.355 12.9949 139.652 12.2677V16.6309C139.785 16.5244 139.856 16.4624 139.927 16.4003C141.177 15.2563 142.472 14.1655 143.971 13.3496C146.064 12.2144 148.29 11.8331 150.64 12.1258C152.449 12.3563 154.09 12.986 155.527 14.1211C157.389 15.5933 158.479 17.5444 158.923 19.859C159.091 20.7635 159.171 21.6948 159.171 22.617C159.197 27.9203 159.188 33.2236 159.18 38.5179C159.18 38.7664 159.251 38.9437 159.428 39.1211C160.35 40.0611 161.255 41.0099 162.169 41.9589C162.231 42.0299 162.293 42.1008 162.382 42.2072H152.37C152.458 42.1008 152.529 42.021 152.6 41.9501C153.512 41.0011 154.426 40.0522 155.34 39.1122C155.508 38.9437 155.579 38.7752 155.579 38.5358C155.57 33.1437 155.57 27.7518 155.579 22.3598C155.579 20.4176 155.216 18.5731 154.204 16.897C152.626 14.2896 150.347 12.8263 147.252 12.8707C145.408 12.8973 143.811 13.6955 142.401 14.8218C141.497 15.5489 140.663 16.3738 139.812 17.163C139.723 17.2429 139.67 17.4024 139.67 17.5265C139.661 24.5592 139.661 31.5917 139.67 38.6332C139.67 38.7752 139.749 38.9437 139.847 39.0412C140.769 40.0079 141.701 40.9657 142.632 41.9234C142.685 42.0122 142.756 42.0919 142.88 42.2161Z" fill="white"/>
<path d="M115.894 42.5258C107.486 42.5435 100.622 35.6174 100.613 27.3432C100.604 18.7852 107.442 11.8768 115.858 11.9122C124.363 11.9477 131.112 18.9094 131.121 27.0948C131.129 35.6706 124.327 42.5525 115.894 42.5258ZM127.511 30.3229C127.422 29.4184 127.387 28.5138 127.245 27.618C126.518 23.0863 124.514 19.2197 121.108 16.1247C119.139 14.3333 116.878 13.1095 114.164 12.9055C111.965 12.737 109.969 13.3046 108.24 14.6792C106.626 15.9562 105.588 17.6589 104.959 19.61C104.232 21.8625 104.125 24.1683 104.445 26.4918C104.959 30.2343 106.431 33.5687 108.843 36.4776C110.466 38.4374 112.399 40.0249 114.812 40.9296C116.568 41.5858 118.377 41.8075 120.212 41.364C122.891 40.7167 124.78 39.0671 126.03 36.655C127.05 34.6595 127.449 32.5399 127.511 30.3229Z" fill="white"/>
<path d="M90.7601 12.6232H87.2217C89.6249 10.6987 91.9663 8.83638 94.343 6.92969V12.2063H99.5575V12.6143H94.3695C94.3606 12.7207 94.3518 12.7828 94.3518 12.8537C94.3518 20.0726 94.343 27.3003 94.3695 34.5192C94.3783 35.9647 94.538 37.4013 95.0435 38.7759C95.5845 40.2658 96.5068 41.3921 98.1208 41.809C98.9545 42.0306 99.797 42.004 100.64 41.9331C100.781 41.9243 100.914 41.8976 101.074 41.8799C101.092 41.9863 101.11 42.0749 101.136 42.2169C100.835 42.2523 100.56 42.2967 100.276 42.3144C98.3781 42.4297 96.5688 42.1282 94.8662 41.2414C93.1368 40.3368 91.8775 38.9977 91.1948 37.1707C90.8666 36.3016 90.7601 35.3793 90.7601 34.4393C90.769 27.318 90.7601 20.1967 90.7601 13.0666V12.6232Z" fill="white"/>
<path d="M262.098 42.3226H252.095C252.174 42.225 252.227 42.1541 252.28 42.092C253.22 41.1165 254.16 40.1499 255.092 39.1565C255.198 39.0413 255.278 38.8462 255.278 38.6954C255.287 33.2681 255.287 27.8406 255.287 22.4131C255.287 20.4976 254.905 18.6707 253.912 17.0124C252.599 14.8219 250.711 13.4118 248.139 13.0393C246.533 12.8087 245.035 13.1812 243.624 13.9439C242.02 14.804 240.725 16.0368 239.474 17.3227C239.394 17.4025 239.377 17.571 239.377 17.7041C239.368 22.0317 239.377 26.3684 239.377 30.6962C239.377 33.3211 239.377 35.9551 239.368 38.5801C239.368 38.8462 239.439 39.0413 239.625 39.2364C240.529 40.1498 241.417 41.0811 242.303 42.0034C242.383 42.0832 242.454 42.1629 242.561 42.2872H232.584C232.672 42.1896 232.735 42.1097 232.806 42.0388C233.728 41.0811 234.642 40.1321 235.564 39.1832C235.705 39.0413 235.767 38.8906 235.767 38.6865C235.758 31.45 235.758 24.2134 235.767 16.9768C235.767 16.7728 235.715 16.6576 235.537 16.5424C234.543 15.8949 233.569 15.2298 232.53 14.5381C234.819 13.8108 237.062 13.1014 239.35 12.3742V16.7728C239.625 16.5245 239.838 16.3295 240.051 16.1433C241.159 15.141 242.312 14.1922 243.634 13.4738C245.744 12.321 247.988 11.9308 250.356 12.2411C252.44 12.5072 254.284 13.3053 255.819 14.7598C257.256 16.1166 258.151 17.7927 258.577 19.7171C258.79 20.7015 258.879 21.7037 258.879 22.7146C258.879 28.018 258.879 33.3301 258.87 38.6333C258.87 38.8727 258.932 39.0413 259.101 39.2098C260.014 40.1409 260.918 41.0811 261.823 42.0211C261.894 42.1097 261.965 42.1896 262.098 42.3226Z" fill="white"/>
<path d="M175.106 42.3129C175.541 41.8606 175.923 41.4615 176.304 41.0624C176.907 40.4327 177.528 39.812 178.123 39.1645C178.229 39.0492 178.308 38.8542 178.308 38.7035C178.317 35.6172 178.317 32.5311 178.317 29.4449C178.317 20.9844 178.317 12.5241 178.326 4.06365C178.326 3.80648 178.246 3.62024 178.069 3.434C177.155 2.50282 176.25 1.56278 175.346 0.622738C175.276 0.551791 175.205 0.471967 175.089 0.347811C175.248 0.338942 175.337 0.330078 175.435 0.330078C180.64 0.330078 185.855 0.330078 191.061 0.330078C193.207 0.330078 195.22 0.817833 197.029 2.0328C199.149 3.45173 200.416 5.42052 200.789 7.93913C201.065 9.77487 200.78 11.5131 199.707 13.065C199.015 14.0583 198.121 14.8387 197.136 15.5393C195.434 16.7631 193.553 17.6854 191.717 18.6876C189.926 19.672 188.098 20.5853 186.432 21.7649C185.066 22.7316 183.868 23.849 183.008 25.2945C182.317 26.4474 181.935 27.7066 181.926 29.0369C181.9 32.2738 181.918 35.5108 181.926 38.7389C181.926 38.8809 181.998 39.0494 182.095 39.1557C183.008 40.1224 183.939 41.0802 184.87 42.0468C184.941 42.1267 185.012 42.2064 185.12 42.3217L175.106 42.3129ZM181.926 26.7754C181.98 26.6602 181.998 26.6159 182.015 26.5804C182.601 24.8954 183.665 23.5563 185.012 22.4123C186.307 21.3126 187.762 20.4347 189.251 19.6365C191.3 18.5368 193.163 17.2331 194.653 15.424C196.718 12.9231 197.651 10.1207 196.905 6.87492C196.382 4.60463 195.149 2.9019 193.039 1.85543C191.691 1.1903 190.236 0.862181 188.747 0.808971C186.521 0.738025 184.286 0.764623 182.06 0.746886C182.015 0.746886 181.971 0.764626 181.918 0.782362V26.7754H181.926Z" fill="white"/>
<path d="M209.162 12.3286V19.8224C209.17 19.8224 209.189 19.8224 209.198 19.8312C209.286 19.441 209.366 19.0419 209.472 18.6518C209.881 17.1707 210.634 15.9025 211.831 14.927C212.728 14.191 213.747 13.6855 214.846 13.3307C216.478 12.7986 218.163 12.5148 219.91 12.2754C219.893 12.3996 219.876 12.4971 219.848 12.5947C219.6 13.7387 219.333 14.8916 219.103 16.0355C219.05 16.3016 218.934 16.3549 218.686 16.3549C216.717 16.3193 214.758 16.4525 212.887 17.1087C211.636 17.5431 210.502 18.1728 209.756 19.3257C209.349 19.9554 209.179 20.6648 209.179 21.3921C209.17 27.1831 209.17 32.983 209.179 38.774C209.179 38.8981 209.259 39.0578 209.349 39.1554C210.271 40.1221 211.193 41.0798 212.124 42.0376C212.195 42.1174 212.266 42.1972 212.372 42.3124H202.378C202.475 42.1972 202.546 42.1174 202.617 42.0465C203.548 41.0798 204.488 40.1132 205.41 39.1377C205.5 39.0401 205.571 38.8804 205.571 38.7475C205.58 31.4577 205.58 24.1767 205.58 16.8869C205.58 16.7007 205.509 16.6031 205.367 16.5055C204.462 15.9114 203.557 15.2996 202.662 14.6964C202.573 14.6344 202.484 14.5723 202.352 14.4748C204.63 13.7564 206.883 13.0469 209.162 12.3286Z" fill="white"/>
<path d="M275.204 42.0029C275.221 42.1182 275.24 42.2069 275.266 42.3487C274.689 42.3843 274.131 42.4463 273.581 42.4463C271.692 42.4463 269.909 42.0117 268.313 40.9564C266.22 39.5729 265.015 37.6574 264.908 35.1122C264.89 34.7752 264.89 34.4383 264.89 34.1013C264.89 27.1306 264.89 20.169 264.89 13.1985C264.89 13.0566 264.89 12.9236 264.89 12.7551H261.466C261.458 12.7285 261.449 12.7107 261.432 12.6841C263.764 10.8218 266.097 8.95942 268.482 7.05273V12.3117H273.687V12.7462H268.509C268.5 12.8792 268.491 12.9768 268.491 13.0743C268.491 20.2576 268.491 27.45 268.5 34.6333C268.5 36.0789 268.668 37.5156 269.164 38.89C269.75 40.4776 270.752 41.6658 272.499 41.9675C273.226 42.0916 273.98 42.0296 274.725 42.0384C274.885 42.0472 275.036 42.0207 275.204 42.0029Z" fill="white"/>
<path d="M228.078 12.3301V12.7823C228.078 21.3846 228.078 29.9869 228.069 38.5893C228.069 38.8641 228.14 39.0682 228.343 39.2722C229.248 40.1855 230.136 41.1167 231.022 42.039C231.093 42.1189 231.164 42.1987 231.27 42.314H221.285C221.382 42.1987 221.454 42.1189 221.525 42.039C222.447 41.0813 223.378 40.1235 224.3 39.1569C224.397 39.0593 224.468 38.8819 224.468 38.74C224.477 31.4592 224.477 24.1871 224.477 16.9061C224.477 16.7111 224.423 16.6046 224.264 16.4982C223.36 15.9041 222.456 15.3009 221.551 14.6979C221.462 14.6359 221.374 14.5738 221.249 14.4851C223.529 13.7667 225.781 13.0573 228.078 12.3301Z" fill="white"/>
<path d="M223.104 5.42947C223.104 3.96618 224.345 2.72461 225.808 2.72461C227.263 2.72461 228.549 3.98392 228.504 5.42947C228.459 7.00802 227.325 8.08997 225.799 8.11657C224.319 8.14318 223.095 6.89273 223.104 5.42947Z" fill="white"/>
<path d="M369.865 37.7375C369.359 39.0235 368.862 40.2917 368.366 41.5597C368.251 41.8524 368.197 42.2604 367.976 42.4023C367.754 42.5531 367.364 42.4467 367.045 42.4555C366.805 42.4555 366.566 42.4555 366.282 42.4555C366.282 42.3047 366.282 42.1717 366.282 42.0387C366.282 29.9245 366.282 17.8103 366.29 5.68731C366.29 5.41238 366.202 5.26162 365.98 5.11972C365.023 4.49894 364.073 3.86042 363.045 3.17756C365.351 2.45035 367.585 1.74087 369.865 1.01367V17.1718C369.997 17.03 370.068 16.9589 370.131 16.888C371.656 15.1233 373.492 13.793 375.673 12.9505C377.145 12.3829 378.671 12.1701 380.24 12.2676C382.511 12.4095 384.621 13.0303 386.573 14.2098C389.021 15.6819 390.82 17.7394 392.053 20.2935C393.322 22.9185 393.809 25.6943 393.613 28.5942C393.428 31.4144 392.568 34.0217 391.006 36.3807C389.18 39.1476 386.724 41.1252 383.522 42.1185C382.183 42.5353 380.8 42.6861 379.388 42.624C377.899 42.5531 376.436 42.3225 375.044 41.7638C373.563 41.1696 372.277 40.2738 371.159 39.1388C370.734 38.6953 370.316 38.2253 369.865 37.7375ZM369.874 27.4059C369.874 30.4655 369.874 33.5251 369.874 36.5847C369.874 36.7265 369.9 36.8951 369.98 37.0015C370.441 37.5779 370.885 38.1632 371.398 38.6953C373.341 40.6818 375.699 41.8081 378.494 41.9766C379.761 42.0476 380.994 41.8967 382.164 41.3647C384.125 40.469 385.534 38.9791 386.644 37.1877C388.107 34.8287 388.913 32.2302 389.215 29.49C389.579 26.1998 389.118 23.0161 387.84 19.9565C387.051 18.0676 385.961 16.3825 384.444 14.9902C382.334 13.048 379.895 12.3741 377.102 13.0658C374.156 13.793 371.824 15.4248 369.988 17.8103C369.9 17.9256 369.865 18.103 369.865 18.245C369.865 21.2956 369.874 24.3463 369.874 27.4059Z" fill="white"/>
<path d="M322.09 33.551C321.497 34.3668 320.974 35.165 320.379 35.9011C318.278 38.4729 315.625 40.2821 312.505 41.3728C309.595 42.3927 306.581 42.7653 303.502 42.5968C300.142 42.4016 297.011 41.4349 294.11 39.7411C290.652 37.7102 287.983 34.9079 286.068 31.396C284.906 29.2675 284.143 26.9973 283.805 24.6029C283.132 19.8405 283.904 15.3176 286.281 11.1052C288.648 6.91046 292.063 3.86861 296.47 1.94418C298.625 1.00413 300.886 0.47204 303.228 0.31241C306.243 0.0995691 309.169 0.507512 311.998 1.56284C315.013 2.68913 317.657 4.39185 319.918 6.67988C320.715 7.48691 321.416 8.38261 322.161 9.23397C322.215 9.29605 322.25 9.35812 322.321 9.46455C322.206 9.48229 322.127 9.49116 322.047 9.49116C320.114 9.49116 318.179 9.49115 316.246 9.50002C316.033 9.50002 315.918 9.41134 315.802 9.26944C314.41 7.60219 312.841 6.12118 311.031 4.90621C308.762 3.38085 306.279 2.42308 303.564 2.05061C301.605 1.78456 299.653 1.77569 297.72 2.22797C294.332 3.02612 291.725 4.91507 289.854 7.83277C288.533 9.89022 287.788 12.1605 287.495 14.5727C286.981 18.9093 287.397 23.1573 288.994 27.2279C290.723 31.6531 293.703 34.9965 297.959 37.1515C301.693 39.0405 305.684 39.7322 309.835 39.4663C312.761 39.2799 315.511 38.4464 317.993 36.8411C319.271 36.0253 320.396 35.032 321.293 33.7992C321.487 33.5244 321.691 33.4445 322.09 33.551Z" fill="white"/>
<path d="M334.328 14.5817C336.634 13.8545 338.879 13.1539 341.157 12.4355V12.8524C341.157 19.2996 341.157 25.747 341.157 32.1942C341.157 34.1276 341.521 35.9899 342.523 37.6572C343.978 40.0693 346.07 41.5238 348.934 41.7277C350.62 41.843 352.128 41.2666 353.529 40.3709C354.824 39.5461 355.942 38.5174 357.005 37.4178C357.093 37.329 357.129 37.1517 357.129 37.0187C357.138 34.163 357.138 31.2986 357.138 28.4429C357.138 24.6561 357.138 20.8694 357.147 17.0825C357.147 16.852 357.084 16.7013 356.881 16.577C356.003 16.0096 355.134 15.4243 354.265 14.8388C354.167 14.7768 354.069 14.7058 353.91 14.5906C356.207 13.8722 358.45 13.1628 360.721 12.4533V42.455C360.172 42.455 359.621 42.4638 359.08 42.446C359.009 42.446 358.929 42.313 358.886 42.2244C358.308 40.9562 357.741 39.688 357.164 38.411C357.121 38.3134 357.067 38.2158 357.005 38.0917C356.526 38.4996 356.074 38.8987 355.612 39.2889C354.246 40.4595 352.774 41.4794 351.037 41.9938C346.958 43.2088 343.269 42.588 340.183 39.493C338.808 38.1095 338.062 36.3713 337.752 34.4556C337.619 33.6309 337.566 32.7885 337.556 31.9636C337.539 27.0063 337.548 22.04 337.556 17.0737C337.556 16.8431 337.495 16.7013 337.291 16.5682C336.395 15.9917 335.517 15.3887 334.63 14.7946C334.55 14.7414 334.47 14.6793 334.328 14.5817Z" fill="white"/>
<path d="M323.446 3.17756C325.752 2.45035 327.997 1.74087 330.275 1.01367V1.42162C330.275 13.8639 330.275 26.3151 330.267 38.7574C330.267 39.0056 330.338 39.1832 330.515 39.3605C331.437 40.3005 332.342 41.2494 333.255 42.1984C333.326 42.2693 333.389 42.3402 333.477 42.4466H323.465C323.554 42.349 323.606 42.2781 323.677 42.2072C324.608 41.2405 325.549 40.2738 326.471 39.2983C326.577 39.183 326.666 38.988 326.666 38.8371C326.674 27.7695 326.674 16.693 326.674 5.62521C326.674 5.42124 326.622 5.29709 326.444 5.19067C325.54 4.60537 324.653 4.00231 323.748 3.40812C323.677 3.33718 323.588 3.2751 323.446 3.17756Z" fill="white"/>
</svg>
