<svg width="381" height="70" viewBox="0 0 381 70" fill="none" xmlns="http://www.w3.org/2000/svg">
<path d="M380.189 46.3686C380.496 47.712 380.655 49.0971 380.655 50.501C380.655 51.7799 380.525 53.0546 380.27 54.2939C378.609 62.4046 371.798 68.4512 363.712 69.2448C363.113 69.3031 362.511 69.3344 361.9 69.3344H331.084C330.822 69.3344 330.565 69.3031 330.321 69.2448C328.844 68.8991 327.741 67.5639 327.741 65.9747C327.741 55.5874 336.151 47.1413 346.488 47.1413H361.9C363.745 47.1413 365.242 48.6451 365.242 50.4989C365.242 52.3527 363.745 53.8565 361.9 53.8565H346.488C341.098 53.8565 336.364 57.4891 334.89 62.6213H361.9C368.555 62.6213 373.969 57.1829 373.969 50.4968C373.969 49.0471 373.716 47.6537 373.247 46.3644C371.562 41.7071 367.114 38.3724 361.9 38.3724H346.488C338.964 38.3724 332.137 41.4259 327.171 46.3644C322.137 51.3696 319.015 58.3118 319.015 65.9726C319.015 67.5619 317.912 68.8949 316.435 69.2427C316.189 69.3011 315.934 69.3323 315.672 69.3323C315.411 69.3323 315.154 69.3011 314.909 69.2427C313.433 68.897 312.33 67.5619 312.33 65.9726C312.33 58.7888 314.542 51.9923 318.449 46.3644C321.768 41.5759 326.315 37.633 331.764 35.0148C319.904 29.3139 312.33 17.352 312.33 4.05695C312.33 2.20319 313.827 0.699349 315.672 0.699349C317.518 0.699349 319.015 2.20319 319.015 4.05695C319.015 19.2766 331.339 31.6572 346.488 31.6572H361.9C368.555 31.6572 373.969 26.2209 373.969 19.5327C373.969 12.8446 368.557 7.4083 361.9 7.4083H334.89C336.364 12.5343 341.098 16.171 346.488 16.171H361.9C363.745 16.171 365.242 17.6769 365.242 19.5307C365.242 21.3844 363.745 22.8883 361.9 22.8883H346.488C336.149 22.8883 327.741 14.4401 327.741 4.05487C327.741 2.2011 329.238 0.697266 331.084 0.697266H361.9C370.763 0.697266 378.493 7.01881 380.27 15.7377C380.523 16.9791 380.655 18.2497 380.655 19.5307C380.655 25.6877 377.583 31.5072 372.571 35.0127C376.446 37.7184 379.156 41.8091 380.191 46.3623L380.189 46.3686Z" fill="white"/>
<path d="M26.1577 20.6092H26.1453C24.9451 19.0706 23.3484 18.0885 21.3717 17.6608C23.1304 17.1417 24.5382 16.2157 25.5888 14.8889C26.6415 13.56 27.173 11.8844 27.173 9.87244C27.173 7.14621 26.1909 4.98474 24.2267 3.38804C22.2604 1.79341 19.5446 0.996094 16.0667 0.996094H0.674805V35.2058H16.6128C20.182 35.2058 22.9664 34.3753 24.968 32.6976C26.9675 31.022 27.96 28.7567 27.96 25.9039C27.96 23.9168 27.3599 22.1581 26.1577 20.6113V20.6092ZM9.00715 7.66322H14.4617C15.8258 7.66322 16.8765 7.97674 17.6053 8.58926C18.3341 9.19971 18.7037 10.1029 18.7037 11.2698C18.7037 12.4367 18.3341 13.3275 17.6053 13.9296C16.8765 14.5297 15.8258 14.8287 14.4617 14.8287H9.00715V7.66322ZM18.3901 27.5296H18.3797C17.6177 28.165 16.5422 28.4785 15.1427 28.4785H9.00508V20.9186H15.0493C16.4487 20.9186 17.5451 21.2653 18.3444 21.9484C19.1418 22.6295 19.5321 23.5784 19.5321 24.7806C19.5321 25.9828 19.1501 26.8963 18.3881 27.5317L18.3901 27.5296Z" fill="white"/>
<path d="M40.4036 7.66529V14.5878H51.5681V21.0245H40.4036V28.5242H53.0236V35.2038H32.0713V0.996094H53.0236V7.67567H40.4036V7.66322V7.66529Z" fill="white"/>
<path d="M87.9951 0.996094L76.1495 23.9023V35.2058H67.8172V23.9023L55.9717 0.996094H65.4252L72.0592 15.327L78.6349 0.996094H87.9951Z" fill="white"/>
<path d="M120.495 9.26822C118.995 6.6645 116.934 4.63799 114.319 3.18248C111.703 1.72904 108.83 0.996094 105.696 0.996094C102.563 0.996094 99.6917 1.72904 97.0755 3.18248C94.4614 4.64837 92.3871 6.67695 90.8548 9.26822C89.3121 11.8616 88.5459 14.8017 88.5459 18.0594C88.5459 21.3172 89.3224 24.2594 90.8548 26.8714C92.3892 29.4876 94.4635 31.5266 97.0755 32.98C99.6917 34.4334 102.565 35.1664 105.696 35.1664C108.828 35.1664 111.691 34.4334 114.295 32.98C116.888 31.5266 118.95 29.4876 120.472 26.8714C121.994 24.2573 122.747 21.3151 122.747 18.0594C122.747 14.8037 122.002 11.872 120.492 9.26822H120.495ZM112.098 25.0899C110.497 26.859 108.402 27.7497 105.709 27.7497C103.016 27.7497 100.873 26.8693 99.2743 25.1128C97.6735 23.3541 96.8741 21.0328 96.8741 18.0574C96.8741 15.082 97.6735 12.7274 99.2743 10.9812C100.875 9.23293 103.049 8.36502 105.709 8.36502C108.369 8.36502 110.497 9.24539 112.098 11.002C113.699 12.7606 114.5 15.138 114.5 18.0574C114.5 20.9767 113.699 23.3209 112.098 25.0899Z" fill="white"/>
<path d="M156.554 35.2038H148.222L134.284 14.0999V35.2038H125.951V0.996094H134.284L148.222 22.1914V0.996094H156.554V35.2038Z" fill="white"/>
<path d="M188.313 9.1456C186.835 6.55641 184.744 4.55689 182.049 3.12422V3.14706C179.356 1.71438 176.2 0.998047 172.595 0.998047H159.78V35.2078H172.595C176.167 35.2078 179.31 34.4915 182.028 33.0588C184.744 31.6261 186.835 29.6141 188.313 27.0125C189.792 24.4129 190.533 21.477 190.533 18.0905C190.533 14.704 189.792 11.7348 188.313 9.14768V9.1456ZM179.414 25.4033V25.393C177.658 27.1142 175.21 27.9697 172.054 27.9697H168.102V8.09082H172.054C175.21 8.09082 177.66 8.97119 179.414 10.7257C181.173 12.4844 182.049 14.9324 182.049 18.0863C182.049 21.2403 181.171 23.68 179.414 25.4013V25.4033Z" fill="white"/>
<path d="M200.159 34.0286C198.367 33.2416 196.953 32.1225 195.925 30.6857C194.898 29.2364 194.385 27.5587 194.385 25.6319H200.25C200.375 27.0811 200.946 28.2667 201.961 29.1928C202.977 30.1292 204.393 30.5839 206.218 30.5839C208.043 30.5839 209.584 30.1271 210.645 29.2156C211.706 28.302 212.231 27.1268 212.231 25.6775C212.231 24.5584 211.901 23.6469 211.249 22.9388C210.586 22.2308 209.777 21.6827 208.795 21.3068C207.812 20.9186 206.467 20.5075 204.733 20.0507C202.553 19.4693 200.786 18.8858 199.416 18.2941C198.047 17.7002 196.893 16.7763 195.923 15.5325C194.964 14.2764 194.474 12.6111 194.474 10.5223C194.474 8.59342 194.954 6.91574 195.923 5.46853C196.893 4.01924 198.228 2.91255 199.962 2.14846C201.696 1.38437 203.693 0.996094 205.975 0.996094C209.216 0.996094 211.874 1.80587 213.94 3.42749C216.006 5.04703 217.158 7.27286 217.374 10.0905H211.315C211.224 8.86957 210.642 7.8314 209.581 6.96349C208.52 6.09558 207.127 5.6637 205.394 5.6637C203.82 5.6637 202.541 6.06236 201.548 6.86175C200.556 7.66114 200.053 8.82389 200.053 10.3313C200.053 11.3591 200.36 12.2021 200.99 12.852C201.617 13.5143 202.404 14.0272 203.375 14.4155C204.345 14.8037 205.657 15.2149 207.322 15.6717C209.536 16.2759 211.338 16.8925 212.731 17.4968C214.122 18.101 215.31 19.0478 216.292 20.3143C217.274 21.5809 217.764 23.269 217.764 25.391C217.764 27.0915 217.308 28.7007 216.396 30.206C215.482 31.7114 214.147 32.9219 212.403 33.8355C210.657 34.7491 208.593 35.2038 206.218 35.2038C203.969 35.2038 201.951 34.8155 200.159 34.0286Z" fill="white"/>
<path d="M240.528 35.2038L227.293 19.9032V35.2038H221.679V0.996094H227.293V16.5998L240.586 0.996094H247.625L232.766 18.1176L247.88 35.1934H240.551L240.528 35.2058V35.2038Z" fill="white"/>
<path d="M256.778 0.996094V35.2038H251.164V0.996094H256.778Z" fill="white"/>
<path d="M289.512 0.996094V35.2058H283.906L267.052 9.6918V35.2058H261.446V0.996094H267.052L283.906 26.4499V0.996094H289.512Z" fill="white"/>
<path d="M130.71 63.8658H120.235L118.227 69.3266H115.785L124.18 46.6094H126.777L135.135 69.3266H132.693L130.685 63.8658H130.71ZM130.012 61.9535L125.467 49.5059L120.922 61.9535H130.014H130.012Z" fill="white"/>
<path d="M140.608 48.4698V56.9475H149.217V58.8328H140.608V67.4413H150.188V69.3266H138.343V46.6094H150.188V48.4947H140.608V48.4719V48.4698Z" fill="white"/>
<path d="M157.378 68.6443C156.259 68.1315 155.385 67.4193 154.743 66.5098C154.102 65.6004 153.763 64.5747 153.718 63.4431H156.085C156.191 64.5269 156.668 65.4841 157.52 66.3001C158.371 67.1161 159.619 67.5252 161.251 67.5252C162.766 67.5252 163.956 67.1411 164.843 66.3583C165.729 65.5776 166.172 64.5975 166.172 63.4078C166.172 62.4527 165.927 61.6824 165.437 61.0989C164.947 60.5155 164.34 60.0732 163.618 59.7929C162.895 59.5022 161.892 59.1866 160.622 58.8482C159.129 58.4391 157.951 58.055 157.077 57.6709C156.203 57.2868 155.456 56.6908 154.839 55.8873C154.22 55.0838 153.917 53.9875 153.917 52.5984C153.917 51.4439 154.22 50.4182 154.814 49.5213C155.408 48.6243 156.249 47.9121 157.333 47.3992C158.417 46.8864 159.664 46.6289 161.064 46.6289C163.128 46.6289 164.795 47.1293 166.053 48.1446C167.324 49.16 168.047 50.4535 168.246 52.0502H165.821C165.669 51.1408 165.169 50.3248 164.317 49.6126C163.466 48.9004 162.312 48.5391 160.867 48.5391C159.525 48.5391 158.406 48.9004 157.52 49.6126C156.623 50.3248 156.178 51.3027 156.178 52.5278C156.178 53.4601 156.423 54.2179 156.913 54.7889C157.403 55.3599 158.01 55.8042 158.745 56.0949C159.48 56.3981 160.47 56.7137 161.73 57.05C163.176 57.4591 164.342 57.8536 165.239 58.2502C166.136 58.6468 166.884 59.2406 167.501 60.0566C168.119 60.8601 168.422 61.9461 168.422 63.3102C168.422 64.3484 168.142 65.3388 167.594 66.2835C167.046 67.2158 166.217 67.9737 165.133 68.5447C164.05 69.1157 162.754 69.4084 161.238 69.4084C159.723 69.4084 158.475 69.1509 157.356 68.6381H157.378V68.6443Z" fill="white"/>
<path d="M185.934 46.6074V48.4948H179.633V69.3246H177.353V48.4948H171.014V46.6074H185.932H185.934Z" fill="white"/>
<path d="M206.052 46.6074V69.3246H203.772V58.7021H191.451V69.3246H189.171V46.6074H191.451V56.8147H203.772V46.6074H206.052Z" fill="white"/>
<path d="M213.188 48.4698V56.9475H221.797V58.8328H213.188V67.4413H222.768V69.3266H210.923V46.6094H222.768V48.4947H213.188V48.4719V48.4698Z" fill="white"/>
<path d="M240.256 46.6074V48.4948H233.954V69.3246H231.674V48.4948H225.335V46.6074H240.253H240.256Z" fill="white"/>
<path d="M245.926 46.6074V69.3246H243.646V46.6074H245.926Z" fill="white"/>
<path d="M251.387 52.1222C252.342 50.3843 253.648 49.0326 255.315 48.065C256.97 47.0974 258.824 46.6074 260.865 46.6074C263.361 46.6074 265.483 47.2013 267.267 48.3806C269.04 49.5579 270.333 51.2252 271.149 53.3825H268.527C267.885 51.8668 266.918 50.6895 265.612 49.8382C264.306 48.9869 262.72 48.555 260.867 48.555C259.223 48.555 257.755 48.9391 256.449 49.7095C255.143 50.4798 254.117 51.574 253.372 53.0088C252.626 54.4435 252.253 56.1108 252.253 57.9982C252.253 59.8856 252.626 61.555 253.372 62.9773C254.117 64.3996 255.145 65.4959 256.449 66.2662C257.755 67.0365 259.235 67.4206 260.867 67.4206C262.722 67.4206 264.295 67.0012 265.612 66.1624C266.918 65.3235 267.898 64.1566 268.527 62.6637H271.149C270.346 64.7982 269.04 66.4406 267.254 67.6075C265.471 68.7744 263.336 69.3682 260.865 69.3682C258.824 69.3682 256.97 68.8782 255.315 67.9107C253.66 66.9431 252.342 65.6018 251.387 63.8763C250.432 62.1509 249.952 60.1929 249.952 58.0003C249.952 55.8077 250.43 53.8497 251.387 52.1118V52.1242V52.1222Z" fill="white"/>
<path d="M278.47 68.6443C277.351 68.1315 276.477 67.4193 275.835 66.5098C275.194 65.6004 274.855 64.5747 274.81 63.4431H277.177C277.282 64.5269 277.76 65.4841 278.611 66.3001C279.463 67.1161 280.711 67.5252 282.343 67.5252C283.858 67.5252 285.048 67.1411 285.935 66.3583C286.821 65.5776 287.263 64.5975 287.263 63.4078C287.263 62.4527 287.018 61.6824 286.528 61.0989C286.038 60.5155 285.432 60.0732 284.71 59.7929C283.987 59.5022 282.984 59.1866 281.713 58.8482C280.221 58.4391 279.043 58.055 278.169 57.6709C277.295 57.2868 276.547 56.6908 275.931 55.8873C275.312 55.0838 275.009 53.9875 275.009 52.5984C275.009 51.4439 275.312 50.4182 275.906 49.5213C276.5 48.6118 277.341 47.9121 278.424 47.3992C279.508 46.8864 280.756 46.6289 282.156 46.6289C284.22 46.6289 285.887 47.1293 287.145 48.1446C288.416 49.16 289.138 50.4535 289.338 52.0502H286.913C286.761 51.1408 286.261 50.3248 285.409 49.6126C284.558 48.9004 283.404 48.5391 281.958 48.5391C280.617 48.5391 279.498 48.9004 278.611 49.6126C277.714 50.3248 277.27 51.3027 277.27 52.5278C277.27 53.4601 277.515 54.2179 278.005 54.7889C278.495 55.3599 279.101 55.8042 279.836 56.0949C280.571 56.3981 281.562 56.7137 282.822 57.05C284.267 57.4591 285.434 57.8536 286.331 58.2502C287.228 58.6468 287.976 59.2406 288.592 60.0566C289.211 60.8601 289.514 61.9461 289.514 63.3102C289.514 64.3484 289.234 65.3388 288.686 66.2835C288.138 67.2158 287.309 67.9737 286.225 68.5447C285.141 69.1157 283.846 69.4084 282.33 69.4084C280.814 69.4084 279.566 69.1509 278.447 68.6381H278.47V68.6443Z" fill="white"/>
<path d="M105.795 57.168H0.655273V59.0399H105.795V57.168Z" fill="white"/>
</svg>
