<svg width="335" height="99" viewBox="0 0 335 99" fill="none" xmlns="http://www.w3.org/2000/svg">
<path d="M89.8542 15.8862C94.2411 15.8862 97.7973 12.3299 97.7973 7.94309C97.7973 3.55624 94.2411 0 89.8542 0C85.4674 0 81.9111 3.55624 81.9111 7.94309C81.9111 12.3299 85.4674 15.8862 89.8542 15.8862Z" fill="#EA3724"/>
<path d="M0.655273 96.3274V2.72461H9.34515V40.4034C12.9772 35.9396 17.0506 32.596 21.5568 30.3811C26.063 28.1663 31.0019 27.063 36.3822 27.063C45.9292 27.063 54.0844 30.5339 60.8479 37.4586C67.6114 44.3919 70.9889 52.8017 70.9889 62.6881C70.9889 72.5746 67.5775 80.7977 60.7546 87.7055C53.9317 94.6217 45.7255 98.0756 36.1361 98.0756C30.637 98.0756 25.6556 96.896 21.1919 94.5369C16.7281 92.1777 12.7821 88.6389 9.34515 83.9206V96.3359H0.655273V96.3274ZM35.4148 89.6827C40.2434 89.6827 44.7072 88.4947 48.789 86.1185C52.8794 83.7424 56.1296 80.3988 58.5397 76.0963C60.9582 71.7938 62.1633 67.2367 62.1633 62.442C62.1633 57.6473 60.9413 53.0648 58.5057 48.7198C56.0702 44.3749 52.7945 40.9889 48.6872 38.5703C44.5799 36.1433 40.1925 34.9382 35.5251 34.9382C30.8577 34.9382 26.2666 36.1518 21.9981 38.5703C17.721 40.9889 14.4454 44.2476 12.1541 48.3464C9.86281 52.4453 8.71717 57.0618 8.71717 62.1874C8.71717 70.0117 11.2885 76.5461 16.4226 81.7991C21.5653 87.052 27.8875 89.6827 35.4063 89.6827H35.4148Z" fill="white"/>
<path d="M112.198 2.72461H120.888V56.0519L152.202 28.7942H164.965L127.847 61.0079L167.138 96.3274H154.909L120.897 65.9214V96.3274H112.207V2.72461H112.198Z" fill="white"/>
<path d="M183.643 3.7168H192.333V28.7935H206.115V36.3038H192.333V96.3267H183.643V36.3038H171.788V28.7935H183.643V3.7168Z" fill="white"/>
<path d="M215.856 28.7944H224.733V38.6638C227.381 34.7771 230.173 31.8664 233.109 29.94C236.045 28.0136 239.109 27.0547 242.299 27.0547C244.701 27.0547 247.264 27.8184 249.996 29.3544L245.465 36.678C243.64 35.8888 242.113 35.4985 240.874 35.4985C237.98 35.4985 235.188 36.6865 232.498 39.0627C229.808 41.4388 227.754 45.1388 226.354 50.1456C225.276 53.9899 224.742 61.7717 224.742 73.4827V96.3276H215.865V28.7944H215.856Z" fill="white"/>
<path d="M275.133 28.793H285.563L303.528 53.4963L321.298 28.793H331.745L308.756 60.6926L334.656 96.3262H324.073L303.52 67.9653L283.085 96.3262H272.715L298.301 60.7605L275.133 28.793Z" fill="white"/>
<path d="M36.9085 45.0781H34.7276C33.7762 45.0781 33.0049 45.8494 33.0049 46.8008V64.9528C33.0049 65.9042 33.7762 66.6755 34.7276 66.6755H36.9085C37.86 66.6755 38.6312 65.9042 38.6312 64.9528V46.8008C38.6312 45.8494 37.86 45.0781 36.9085 45.0781Z" fill="#EA3724"/>
<path d="M46.6172 56.9681V54.7872C46.6172 53.8357 45.8459 53.0645 44.8945 53.0645H26.7425C25.7911 53.0645 25.0198 53.8357 25.0198 54.7872V56.9681C25.0198 57.9195 25.7911 58.6908 26.7425 58.6908H44.8945C45.8459 58.6908 46.6172 57.9195 46.6172 56.9681Z" fill="#EA3724"/>
<path d="M43.6807 76.0095V74.0153C43.6807 73.1482 42.9778 72.4453 42.1107 72.4453H29.5172C28.6501 72.4453 27.9472 73.1482 27.9472 74.0153V76.0095C27.9472 76.8766 28.6501 77.5795 29.5172 77.5795H42.1107C42.9778 77.5795 43.6807 76.8766 43.6807 76.0095Z" fill="white"/>
<path d="M85.5088 28.793H94.1987V96.3262H85.5088V28.793Z" fill="white"/>
<path d="M260.426 15.8862C264.813 15.8862 268.37 12.3299 268.37 7.94309C268.37 3.55624 264.813 0 260.426 0C256.04 0 252.483 3.55624 252.483 7.94309C252.483 12.3299 256.04 15.8862 260.426 15.8862Z" fill="#EA3724"/>
<path d="M256.081 28.793H264.771V96.3262H256.081V28.793Z" fill="white"/>
</svg>
