<svg width="338" height="112" viewBox="0 0 338 112" fill="none" xmlns="http://www.w3.org/2000/svg">
<path d="M0.875977 33.4393C0.875977 15.3715 15.5229 0.724609 33.5907 0.724609H305.21C323.129 0.724609 337.655 15.2508 337.655 33.1698V111.797H33.2134C15.3539 111.797 0.875977 97.3188 0.875977 79.4593V33.4393Z" fill="#5D3EF4"/>
<path d="M69.6692 74.951C65.7655 74.951 61.9303 73.5809 59.7387 70.8406V89.3376H49.4658V56.454C49.4658 45.8353 57.6156 37.957 68.3679 37.957C79.0517 37.957 87.1331 45.7668 87.1331 56.454C87.1331 67.1412 79.3257 74.951 69.6692 74.951ZM59.8757 56.454C59.8757 61.2495 63.6424 64.9489 68.3679 64.9489C73.025 64.9489 76.7232 61.2495 76.7232 56.454C76.7232 51.6585 73.025 47.9591 68.3679 47.9591C63.6424 47.9591 59.8757 51.6585 59.8757 56.454Z" fill="white"/>
<path d="M104.699 74.951C95.1106 74.951 88.7414 70.5665 87.5087 63.0992H98.124C99.0143 65.2229 101.411 66.3876 105.452 66.3876C109.013 66.3876 110.931 65.2915 110.931 63.5103C110.931 61.6606 109.356 61.181 107.164 60.9755L99.3567 60.1534C93.5354 59.5368 88.3305 56.2485 88.3305 49.7403C88.3305 42.4099 94.6997 37.957 104.082 37.957C113.465 37.957 119.766 42.547 120.861 49.8088H110.109C109.424 47.8906 107.096 46.4519 104.014 46.4519C100.11 46.4519 98.4664 47.6165 98.4664 49.2607C98.4664 50.9049 99.9731 51.4529 102.028 51.6585L109.493 52.3435C116.273 52.9601 121.135 55.7689 121.135 62.5512C121.135 70.7036 114.013 74.951 104.699 74.951Z" fill="white"/>
<path d="M157.73 73.1013C157.73 83.857 150.196 90.0227 139.376 90.0227C130.13 90.0227 123.898 85.0901 121.843 77.0062H132.938C133.76 78.9245 135.883 80.5686 139.376 80.5686C144.238 80.5686 147.457 78.0339 147.457 73.1013V69.6074C145.471 72.0052 142.594 73.3068 139.444 73.3068C129.719 73.3068 123.076 67.2097 123.076 56.591V38.642H133.349V56.591C133.349 60.9755 136.636 63.3047 140.403 63.3047C144.17 63.3047 147.457 60.9755 147.457 56.591V38.642H157.73V73.1013Z" fill="white"/>
<path d="M196.813 60.3589C195.443 68.9909 188.252 74.951 179.075 74.951C168.528 74.951 160.721 67.1412 160.721 56.454C160.721 45.7668 168.528 37.957 179.075 37.957C188.252 37.957 195.443 43.9171 196.813 52.5491H186.129C185.239 49.8088 182.225 47.9591 179.006 47.9591C174.486 47.9591 171.13 51.59 171.13 56.454C171.13 61.318 174.486 64.9489 179.006 64.9489C182.225 64.9489 185.239 63.0992 186.129 60.3589H196.813Z" fill="white"/>
<path d="M209.733 55.1524V74.2659H199.46V20.8301H209.733V42.1359C211.925 39.3956 215.143 37.957 219.39 37.957C227.95 37.957 233.84 43.9856 233.84 55.1524V74.2659H223.567V55.1524C223.567 50.4938 220.691 47.9591 216.787 47.9591C212.746 47.9591 209.733 50.4938 209.733 55.1524Z" fill="white"/>
<path d="M238.406 20.8301H248.679V74.2659H238.406V20.8301Z" fill="white"/>
<path d="M287.631 73.1013C287.631 83.857 280.097 90.0227 269.277 90.0227C260.031 90.0227 252.977 83.2383 252.977 77.0062H262.839C263.661 78.9245 265.784 80.5686 269.277 80.5686C274.139 80.5686 277.358 78.0339 277.358 73.1013V69.6074C275.372 72.0052 272.496 73.3068 269.345 73.3068C259.62 73.3068 252.977 67.2097 252.977 56.591V38.642H263.25V56.591C263.25 60.9755 266.537 63.3047 270.304 63.3047C274.071 63.3047 277.358 60.9755 277.358 56.591V38.642H287.631V73.1013Z" fill="white"/>
<path d="M64.37 57.7135C63.7277 57.7135 63.1924 57.1895 63.1924 56.5608C63.1924 55.9321 63.7277 55.4082 64.37 55.4082C65.0123 55.4082 65.5476 55.9321 65.5476 56.5608C65.5476 57.1895 65.0123 57.7135 64.37 57.7135Z" fill="white"/>
<path d="M68.4067 57.7135C67.7643 57.7135 67.2291 57.1895 67.2291 56.5608C67.2291 55.9321 67.7643 55.4082 68.4067 55.4082C69.049 55.4082 69.5843 55.9321 69.5843 56.5608C69.5843 57.1895 69.049 57.7135 68.4067 57.7135Z" fill="white"/>
<path d="M72.4434 57.7135C71.801 57.7135 71.2658 57.1895 71.2658 56.5608C71.2658 55.9321 71.801 55.4082 72.4434 55.4082C73.0857 55.4082 73.621 55.9321 73.621 56.5608C73.621 57.1895 73.0857 57.7135 72.4434 57.7135Z" fill="white"/>
<path d="M59.4199 64.9157L68.4314 64.9443L62.5111 60.5957L59.4199 64.9157Z" fill="#5D3EF4"/>
</svg>
