<svg width="379" height="73" viewBox="0 0 379 73" fill="none" xmlns="http://www.w3.org/2000/svg">
<path d="M175.618 47.75C174.994 48.0069 174.37 48.3005 173.746 48.5942C171.581 49.5851 169.305 50.5394 167.213 51.7139C165.341 52.7783 163.69 54.0995 161.708 55.0171C161.451 55.1272 161.194 55.1639 160.974 55.1272C160.57 55.0905 160.203 55.4208 160.203 55.8613V72.0104H175.582V49.8053V48.0803V47.75H175.618Z" fill="#B62025"/>
<path d="M64.4459 17.1676L57.9862 54.6776L56.2245 46.9334C54.6096 39.8131 48.2967 34.7481 40.9929 34.7481C33.7258 34.7481 27.4129 39.7764 25.798 46.86L23.9262 54.9713L17.5032 17.1676H0.876953L14.3101 72.4784H33.212L38.1301 50.9707C38.8275 47.9611 43.085 47.9978 43.7456 50.9707L48.5536 72.4417H67.4555L81.0355 17.1309H64.4459V17.1676Z" fill="#B62025"/>
<path d="M26.5684 38.3882L26.6785 38.2414L40.6255 19.4863L55.8938 38.0579L50.5719 33.6902C44.5526 28.7354 36.4781 29.029 30.7525 34.461L26.5684 38.3882Z" fill="#B62025"/>
<path d="M117.516 67.6368C113.516 64.6639 111.387 60.4431 111.057 54.9377H126.912C127.059 56.8096 127.61 58.1676 128.564 59.0484C129.518 59.8926 130.766 60.333 132.271 60.333C133.629 60.333 134.767 60.0027 135.647 59.3053C136.528 58.608 136.969 57.6904 136.969 56.4792C136.969 54.901 136.235 53.6898 134.767 52.8457C133.298 52.0015 130.913 51.0106 127.646 49.9462C124.159 48.7717 121.333 47.6706 119.205 46.5695C117.039 45.4685 115.204 43.8902 113.589 41.7982C112.011 39.7061 111.203 36.9534 111.203 33.5768C111.203 30.1268 112.048 27.1906 113.773 24.7315C115.498 22.2724 117.883 20.4373 120.893 19.1527C123.939 17.9048 127.353 17.2441 131.206 17.2441C137.409 17.2441 142.401 18.7122 146.108 21.6118C149.815 24.5113 151.797 28.5853 152.053 33.8704H135.904C135.868 32.2555 135.354 31.0443 134.436 30.2369C133.482 29.4294 132.307 29.0257 130.839 29.0257C129.738 29.0257 128.821 29.356 128.123 30.0167C127.426 30.6773 127.059 31.5949 127.059 32.8061C127.059 33.8337 127.463 34.6779 128.233 35.4119C129.004 36.146 129.995 36.7699 131.17 37.3205C132.344 37.8343 134.069 38.5317 136.308 39.3391C139.685 40.5136 142.474 41.6514 144.676 42.7892C146.878 43.9269 148.787 45.5052 150.365 47.5605C151.943 49.6159 152.751 52.185 152.751 55.3415C152.751 58.5346 151.943 61.3974 150.365 63.8932C148.787 66.4257 146.475 68.4076 143.465 69.8757C140.455 71.3438 136.895 72.0779 132.821 72.0779C126.619 72.0411 121.517 70.573 117.516 67.6368Z" fill="#B62025"/>
<path d="M87.4219 17.1309V26.1597V71.9646H102.8V26.1597V17.608V17.1309H87.4219Z" fill="#B62025"/>
<path d="M209.789 45.1053V38.3887C208.541 38.5355 207.293 38.7557 206.045 38.8658C203.659 39.086 201.31 39.1594 198.961 39.6366C197.42 39.9669 195.915 40.3706 194.41 40.811V71.9716H209.789V49.7665V48.0415V45.1053Z" fill="#B62025"/>
<path d="M378.876 72.1556H368.049L343.568 35.1593V72.1923H332.741V18.166H343.568L368.049 55.2724V18.166H378.876V72.1556Z" fill="white"/>
<path d="M95.2047 14.5305C99.1169 14.5305 102.288 11.3591 102.288 7.44689C102.288 3.53472 99.1169 0.363281 95.2047 0.363281C91.2925 0.363281 88.1211 3.53472 88.1211 7.44689C88.1211 11.3591 91.2925 14.5305 95.2047 14.5305Z" fill="white"/>
<path d="M95.2045 14.8646C91.0938 14.8646 87.7539 11.5246 87.7539 7.41393C87.7539 3.33994 91.0938 0 95.2045 0C99.3152 0 102.655 3.33994 102.655 7.45063C102.655 11.5246 99.3152 14.8646 95.2045 14.8646ZM95.2045 0.734052C91.4976 0.734052 88.488 3.74367 88.488 7.45063C88.488 11.1576 91.4976 14.1672 95.2045 14.1672C98.9115 14.1672 101.921 11.1576 101.921 7.45063C101.921 3.74367 98.9115 0.734052 95.2045 0.734052Z" fill="#B62327"/>
<path d="M248.656 17H235.883L216.174 71.8337H227.698L231.222 61.6304L235.112 50.2893L242.233 29.6991L249.316 50.2159L254.308 64.7868L255.262 67.5395L256.73 71.8337H259.777H268.328L248.656 17Z" fill="white"/>
<path d="M308.664 56.1523L313.068 69.035L319.345 65.4381L308.664 56.1523Z" fill="#010101"/>
<path d="M306.023 17.1309H293.25L273.541 71.9646H285.066L288.589 61.7612L292.48 50.4201L299.6 29.83L306.683 50.3467L307.491 52.659L311.675 64.9177L312.629 67.6704L314.097 71.9646H317.144H325.695L306.023 17.1309Z" fill="white"/>
<path d="M175.617 37.4666V16.6562H160.238V52.478V52.5881V52.6615C160.238 52.6615 168.46 47.3763 174.883 44.6603C175.14 44.5869 175.396 44.4768 175.653 44.4034V44.3667V43.3024L175.617 37.4666Z" fill="#B62025"/>
<path d="M209.789 34.5671V16.6562H194.41V36.9528V37.6868V37.9805C194.41 37.9805 201.31 36.182 209.789 35.6682V34.5671Z" fill="#B62025"/>
<path d="M326.942 53.5833C315.087 57.4004 302.242 57.1068 290.056 54.5743C278.532 52.1886 267.814 47.2705 256.73 43.4534C245.83 39.7098 234.378 36.9571 222.817 36.59C209.054 36.1496 195.253 38.4619 182.407 43.38C179.031 44.6646 175.728 46.1327 172.534 47.7476C165.671 51.2344 159.175 55.4552 153.266 60.41C156.532 57.6573 162.001 56.0057 165.928 54.3541C170.516 52.4456 175.177 50.7572 179.912 49.2891C197.529 43.9306 215.477 42.7928 233.571 46.2428C256.73 50.6104 279.266 62.9425 303.232 61.9148C311.711 61.5478 320.373 59.052 326.942 53.5833Z" fill="#B62025"/>
<path d="M282.532 46.9023L277.394 61.2164L287.927 63.7121L293.139 48.4806" fill="white"/>
</svg>
