<svg width="24" height="18" viewBox="0 0 24 18" fill="none" xmlns="http://www.w3.org/2000/svg">
<path d="M2.66667 0C1.95942 0 1.28115 0.280951 0.781049 0.781048C0.280952 1.28115 0 1.95942 0 2.66667L0 14.6667C0 15.3739 0.280952 16.0522 0.781049 16.5523C1.28115 17.0524 1.95942 17.3333 2.66667 17.3333H6.66667V0H2.66667ZM21.3333 0H17.3333V17.3333H21.3333C22.0406 17.3333 22.7189 17.0524 23.219 16.5523C23.719 16.0522 24 15.3739 24 14.6667V2.66667C24 1.95942 23.719 1.28115 23.219 0.781048C22.7189 0.280951 22.0406 0 21.3333 0Z" fill="#D52B1E"/>
<path d="M6.66663 0H17.3333V17.3333H6.66663V0Z" fill="#EEEEEE"/>
<path d="M12.41 11.4087C13.2086 11.5014 13.9246 11.5847 14.7226 11.676L14.5193 11.008C14.5043 10.9506 14.5064 10.89 14.5252 10.8336C14.544 10.7773 14.5788 10.7277 14.6253 10.6907L16.9446 8.80137L16.4646 8.57537C16.2533 8.50004 16.3113 8.38071 16.388 8.09404L16.742 6.80337L15.3946 7.08804C15.2633 7.10804 15.176 7.02471 15.156 6.94471L14.982 6.33737L13.9166 7.53337C13.7653 7.72537 13.4586 7.72537 13.554 7.28271L14.0093 4.86004L13.398 5.17671C13.2266 5.27271 13.0553 5.28871 12.96 5.11737L12.1166 3.54004L11.2733 5.11737C11.1773 5.28871 11.006 5.27271 10.8346 5.17671L10.224 4.86004L10.6793 7.28271C10.7753 7.72537 10.468 7.72537 10.3166 7.53337L9.2513 6.33804L9.07796 6.94537C9.05796 7.02537 8.96996 7.10871 8.83863 7.08871L7.4913 6.80404L7.8453 8.09471C7.92063 8.38137 7.9793 8.50071 7.76796 8.57604L7.28796 8.80204L9.6073 10.6914C9.6993 10.7627 9.74596 10.8914 9.71263 11.0087L9.5093 11.6767L11.8226 11.4094C11.8933 11.4094 11.94 11.4487 11.9393 11.53L11.7966 13.9994H12.434L12.292 11.53C12.2933 11.448 12.3393 11.4087 12.41 11.4087Z" fill="#D52B1E"/>
</svg>
