<svg width="24" height="18" viewBox="0 0 24 18" fill="none" xmlns="http://www.w3.org/2000/svg">
<path d="M0 14.6663C0 15.3736 0.280952 16.0519 0.781049 16.552C1.28115 17.0521 1.95942 17.333 2.66667 17.333H21.3333C22.0406 17.333 22.7189 17.0521 23.219 16.552C23.719 16.0519 24 15.3736 24 14.6663V11.333H0V14.6663Z" fill="#138808"/>
<path d="M24 6V2.66667C24 1.95942 23.719 1.28115 23.219 0.781048C22.7189 0.280951 22.0406 0 21.3333 0H2.66667C1.95942 0 1.28115 0.280951 0.781049 0.781048C0.280952 1.28115 0 1.95942 0 2.66667L0 6H24Z" fill="#FF9933"/>
<path d="M0 5.77734H24V11.5553H0V5.77734Z" fill="#F7F7F7"/>
<path d="M12 11.3333C13.4728 11.3333 14.6667 10.1394 14.6667 8.66667C14.6667 7.19391 13.4728 6 12 6C10.5273 6 9.33337 7.19391 9.33337 8.66667C9.33337 10.1394 10.5273 11.3333 12 11.3333Z" fill="#000080"/>
<path d="M12 10.916C13.2426 10.916 14.25 9.90866 14.25 8.66602C14.25 7.42338 13.2426 6.41602 12 6.41602C10.7574 6.41602 9.75 7.42338 9.75 8.66602C9.75 9.90866 10.7574 10.916 12 10.916Z" fill="#F7F7F7"/>
<path d="M12.0667 7.8332L12 8.26654L11.9334 7.8332L12 6.5332L12.0667 7.8332ZM11.448 6.60587L11.72 7.87854L11.8967 8.27987L11.8487 7.84454L11.448 6.60587ZM10.9334 6.8192L11.5254 7.97787L11.8 8.31987L11.6414 7.9112L10.9334 6.8192ZM10.4914 7.15787L11.3634 8.12454L11.7174 8.38387L11.458 8.02987L10.4914 7.15787ZM10.1527 7.59987L11.2447 8.30787L11.6534 8.46654L11.3114 8.19187L10.1527 7.59987ZM9.93937 8.11454L11.178 8.5152L11.6134 8.5632L11.212 8.38654L9.93937 8.11454ZM9.8667 8.66654L11.1667 8.7332L11.6 8.66654L11.1667 8.59987L9.8667 8.66654ZM9.93937 9.21854L11.212 8.94654L11.6134 8.76987L11.178 8.81787L9.93937 9.21854ZM10.1527 9.7332L11.3114 9.1412L11.6534 8.86654L11.2447 9.0252L10.1527 9.7332ZM10.4914 10.1752L11.458 9.3032L11.7174 8.9492L11.3634 9.20854L10.4914 10.1752ZM10.9334 10.5139L11.6414 9.42187L11.8 9.0132L11.5254 9.3552L10.9334 10.5139ZM11.448 10.7272L11.8487 9.48854L11.8967 9.0532L11.72 9.45454L11.448 10.7272ZM12 10.7999L12.0667 9.49987L12 9.06654L11.9334 9.49987L12 10.7999ZM12.552 10.7272L12.28 9.45454L12.1034 9.0532L12.1514 9.48854L12.552 10.7272ZM13.0667 10.5139L12.4747 9.3552L12.2 9.0132L12.3587 9.42187L13.0667 10.5139ZM13.5087 10.1752L12.6367 9.20854L12.2827 8.9492L12.542 9.3032L13.5087 10.1752ZM13.8474 9.7332L12.7554 9.0252L12.3467 8.86654L12.6887 9.1412L13.8474 9.7332ZM14.0607 9.21854L12.822 8.81787L12.3867 8.76987L12.788 8.94654L14.0607 9.21854ZM14.1334 8.66654L12.8334 8.59987L12.4 8.66654L12.8334 8.7332L14.1334 8.66654ZM14.0607 8.11454L12.788 8.38654L12.3867 8.5632L12.822 8.5152L14.0607 8.11454ZM13.8474 7.59987L12.6887 8.19187L12.3467 8.46654L12.7554 8.30787L13.8474 7.59987ZM13.5087 7.15787L12.542 8.02987L12.2827 8.38387L12.6367 8.12454L13.5087 7.15787ZM13.0667 6.8192L12.3587 7.9112L12.2 8.31987L12.4747 7.97787L13.0667 6.8192ZM12.552 6.60587L12.1514 7.84454L12.1034 8.27987L12.28 7.87854L12.552 6.60587Z" fill="#6666B3"/>
<path d="M11.7066 6.57233C11.7802 6.57233 11.8399 6.51264 11.8399 6.439C11.8399 6.36536 11.7802 6.30566 11.7066 6.30566C11.6329 6.30566 11.5732 6.36536 11.5732 6.439C11.5732 6.51264 11.6329 6.57233 11.7066 6.57233Z" fill="#000080"/>
<path d="M11.1399 6.72467C11.2136 6.72467 11.2733 6.66498 11.2733 6.59134C11.2733 6.5177 11.2136 6.45801 11.1399 6.45801C11.0663 6.45801 11.0066 6.5177 11.0066 6.59134C11.0066 6.66498 11.0663 6.72467 11.1399 6.72467Z" fill="#000080"/>
<path d="M10.632 7.01667C10.7056 7.01667 10.7653 6.95697 10.7653 6.88333C10.7653 6.8097 10.7056 6.75 10.632 6.75C10.5584 6.75 10.4987 6.8097 10.4987 6.88333C10.4987 6.95697 10.5584 7.01667 10.632 7.01667Z" fill="#000080"/>
<path d="M10.2173 7.43167C10.291 7.43167 10.3507 7.37197 10.3507 7.29833C10.3507 7.22469 10.291 7.165 10.2173 7.165C10.1437 7.165 10.084 7.22469 10.084 7.29833C10.084 7.37197 10.1437 7.43167 10.2173 7.43167Z" fill="#000080"/>
<path d="M9.92459 7.93966C9.99823 7.93966 10.0579 7.87997 10.0579 7.80633C10.0579 7.73269 9.99823 7.673 9.92459 7.673C9.85096 7.673 9.79126 7.73269 9.79126 7.80633C9.79126 7.87997 9.85096 7.93966 9.92459 7.93966Z" fill="#000080"/>
<path d="M9.77262 8.50592C9.84625 8.50592 9.90595 8.44623 9.90595 8.37259C9.90595 8.29895 9.84625 8.23926 9.77262 8.23926C9.69898 8.23926 9.63928 8.29895 9.63928 8.37259C9.63928 8.44623 9.69898 8.50592 9.77262 8.50592Z" fill="#000080"/>
<path d="M9.77262 9.093C9.84625 9.093 9.90595 9.0333 9.90595 8.95966C9.90595 8.88603 9.84625 8.82633 9.77262 8.82633C9.69898 8.82633 9.63928 8.88603 9.63928 8.95966C9.63928 9.0333 9.69898 9.093 9.77262 9.093Z" fill="#000080"/>
<path d="M9.92459 9.65924C9.99823 9.65924 10.0579 9.59955 10.0579 9.52591C10.0579 9.45227 9.99823 9.39258 9.92459 9.39258C9.85096 9.39258 9.79126 9.45227 9.79126 9.52591C9.79126 9.59955 9.85096 9.65924 9.92459 9.65924Z" fill="#000080"/>
<path d="M10.2173 10.168C10.291 10.168 10.3507 10.1083 10.3507 10.0347C10.3507 9.96106 10.291 9.90137 10.2173 9.90137C10.1437 9.90137 10.084 9.96106 10.084 10.0347C10.084 10.1083 10.1437 10.168 10.2173 10.168Z" fill="#000080"/>
<path d="M10.632 10.5823C10.7056 10.5823 10.7653 10.5226 10.7653 10.449C10.7653 10.3754 10.7056 10.3157 10.632 10.3157C10.5584 10.3157 10.4987 10.3754 10.4987 10.449C10.4987 10.5226 10.5584 10.5823 10.632 10.5823Z" fill="#000080"/>
<path d="M11.1399 10.875C11.2136 10.875 11.2733 10.8153 11.2733 10.7417C11.2733 10.668 11.2136 10.6083 11.1399 10.6083C11.0663 10.6083 11.0066 10.668 11.0066 10.7417C11.0066 10.8153 11.0663 10.875 11.1399 10.875Z" fill="#000080"/>
<path d="M11.7066 11.0274C11.7802 11.0274 11.8399 10.9677 11.8399 10.8941C11.8399 10.8204 11.7802 10.7607 11.7066 10.7607C11.6329 10.7607 11.5732 10.8204 11.5732 10.8941C11.5732 10.9677 11.6329 11.0274 11.7066 11.0274Z" fill="#000080"/>
<path d="M12.2932 11.0274C12.3669 11.0274 12.4266 10.9677 12.4266 10.8941C12.4266 10.8204 12.3669 10.7607 12.2932 10.7607C12.2196 10.7607 12.1599 10.8204 12.1599 10.8941C12.1599 10.9677 12.2196 11.0274 12.2932 11.0274Z" fill="#000080"/>
<path d="M12.8599 10.875C12.9335 10.875 12.9932 10.8153 12.9932 10.7417C12.9932 10.668 12.9335 10.6083 12.8599 10.6083C12.7863 10.6083 12.7266 10.668 12.7266 10.7417C12.7266 10.8153 12.7863 10.875 12.8599 10.875Z" fill="#000080"/>
<path d="M13.368 10.5823C13.4416 10.5823 13.5013 10.5226 13.5013 10.449C13.5013 10.3754 13.4416 10.3157 13.368 10.3157C13.2943 10.3157 13.2346 10.3754 13.2346 10.449C13.2346 10.5226 13.2943 10.5823 13.368 10.5823Z" fill="#000080"/>
<path d="M13.7826 10.168C13.8563 10.168 13.916 10.1083 13.916 10.0347C13.916 9.96106 13.8563 9.90137 13.7826 9.90137C13.709 9.90137 13.6493 9.96106 13.6493 10.0347C13.6493 10.1083 13.709 10.168 13.7826 10.168Z" fill="#000080"/>
<path d="M14.0752 9.65924C14.1489 9.65924 14.2086 9.59955 14.2086 9.52591C14.2086 9.45227 14.1489 9.39258 14.0752 9.39258C14.0016 9.39258 13.9419 9.45227 13.9419 9.52591C13.9419 9.59955 14.0016 9.65924 14.0752 9.65924Z" fill="#000080"/>
<path d="M14.2273 9.093C14.301 9.093 14.3607 9.0333 14.3607 8.95966C14.3607 8.88603 14.301 8.82633 14.2273 8.82633C14.1537 8.82633 14.094 8.88603 14.094 8.95966C14.094 9.0333 14.1537 9.093 14.2273 9.093Z" fill="#000080"/>
<path d="M14.2273 8.50592C14.301 8.50592 14.3607 8.44623 14.3607 8.37259C14.3607 8.29895 14.301 8.23926 14.2273 8.23926C14.1537 8.23926 14.094 8.29895 14.094 8.37259C14.094 8.44623 14.1537 8.50592 14.2273 8.50592Z" fill="#000080"/>
<path d="M14.0752 7.93966C14.1489 7.93966 14.2086 7.87997 14.2086 7.80633C14.2086 7.73269 14.1489 7.673 14.0752 7.673C14.0016 7.673 13.9419 7.73269 13.9419 7.80633C13.9419 7.87997 14.0016 7.93966 14.0752 7.93966Z" fill="#000080"/>
<path d="M13.7826 7.43167C13.8563 7.43167 13.916 7.37197 13.916 7.29833C13.916 7.22469 13.8563 7.165 13.7826 7.165C13.709 7.165 13.6493 7.22469 13.6493 7.29833C13.6493 7.37197 13.709 7.43167 13.7826 7.43167Z" fill="#000080"/>
<path d="M13.368 7.01667C13.4416 7.01667 13.5013 6.95697 13.5013 6.88333C13.5013 6.8097 13.4416 6.75 13.368 6.75C13.2943 6.75 13.2346 6.8097 13.2346 6.88333C13.2346 6.95697 13.2943 7.01667 13.368 7.01667Z" fill="#000080"/>
<path d="M12.8599 6.72467C12.9335 6.72467 12.9932 6.66498 12.9932 6.59134C12.9932 6.5177 12.9335 6.45801 12.8599 6.45801C12.7863 6.45801 12.7266 6.5177 12.7266 6.59134C12.7266 6.66498 12.7863 6.72467 12.8599 6.72467Z" fill="#000080"/>
<path d="M12.2932 6.57233C12.3669 6.57233 12.4266 6.51264 12.4266 6.439C12.4266 6.36536 12.3669 6.30566 12.2932 6.30566C12.2196 6.30566 12.1599 6.36536 12.1599 6.439C12.1599 6.51264 12.2196 6.57233 12.2932 6.57233Z" fill="#000080"/>
<path d="M11.9999 9.26633C12.3313 9.26633 12.5999 8.9977 12.5999 8.66633C12.5999 8.33496 12.3313 8.06633 11.9999 8.06633C11.6685 8.06633 11.3999 8.33496 11.3999 8.66633C11.3999 8.9977 11.6685 9.26633 11.9999 9.26633Z" fill="#000080"/>
</svg>
