<svg width="22" height="25" viewBox="0 0 22 25" fill="none" xmlns="http://www.w3.org/2000/svg">
<path d="M21.3836 7.74414C21.5129 7.33845 21.485 6.90732 21.3015 6.51848C20.844 5.54883 20.2455 4.64558 19.5229 3.83381C19.3899 3.68443 19.161 3.6712 19.0117 3.80417C18.8623 3.93713 18.849 4.16597 18.982 4.3154C19.6586 5.07536 20.2186 5.92063 20.6466 6.82761C20.7601 7.06799 20.7694 7.33686 20.6727 7.58472C20.3692 8.36342 19.2723 8.41049 18.9096 7.64927C18.3011 6.3719 17.3858 5.24844 16.2624 4.40017C14.7346 3.24649 12.9149 2.63663 11 2.63663C9.11947 2.63663 7.32619 3.22675 5.81398 4.34316C4.67807 5.18177 3.78708 6.23995 3.16572 7.48826C2.79402 8.23509 1.70165 8.18406 1.40618 7.39653C1.31271 7.14746 1.32599 6.87989 1.4435 6.64308C1.9527 5.61676 2.63103 4.67623 3.45964 3.84767C5.47371 1.83341 8.15157 0.724189 11 0.724189C13.5241 0.724189 15.8778 1.57265 17.8068 3.17784C17.9605 3.30578 18.1888 3.28487 18.3167 3.13115C18.4446 2.97738 18.4237 2.74912 18.27 2.62123C16.2094 0.906395 13.6954 0 11 0C7.95816 0 5.09839 1.18453 2.94755 3.33542C2.06326 4.21971 1.33893 5.22425 0.794773 6.32116C0.604843 6.70396 0.569358 7.13162 0.690635 7.53775C0.232754 8.7652 0 10.0597 0 11.3878V16.4855C0 18.215 1.40705 19.6221 3.13651 19.6221H4.74793C5.69222 19.6221 6.46044 18.8539 6.46044 17.9095V12.3344C6.46044 11.3901 5.69222 10.6219 4.74793 10.6219H3.13651C2.95928 10.6219 2.78571 10.6375 2.6164 10.6659C2.678 9.94447 2.83197 9.23732 3.07611 8.5563C3.38578 8.39731 3.64885 8.14274 3.81401 7.81091C4.38376 6.66626 5.20137 5.69556 6.24406 4.92574C7.63088 3.90193 9.27542 3.36077 11 3.36077C12.7561 3.36077 14.4249 3.92004 15.826 4.97808C16.8569 5.75653 17.6971 6.78787 18.2557 7.96063C18.4158 8.29655 18.6741 8.55601 18.9808 8.72011C19.1921 9.35044 19.3271 10.0026 19.3838 10.6659C19.2144 10.6374 19.0408 10.6219 18.8634 10.6219H17.2521C16.3078 10.6219 15.5396 11.3901 15.5396 12.3344V17.9095C15.5396 18.8538 16.3078 19.6221 17.2521 19.6221H18.8634C19.1224 19.6221 19.3739 19.5899 19.6149 19.5304C19.006 21.0106 17.5402 22.0265 15.8989 22.0265H15.5611C15.2562 21.6399 14.784 21.391 14.2545 21.391H11.8041C10.8866 21.391 10.1401 22.1374 10.1401 23.0549C10.1401 23.9725 10.8866 24.719 11.8041 24.719H14.2545C14.7708 24.719 15.2329 24.4826 15.5383 24.1125H15.8989C19.2631 24.1125 22 21.3756 22 18.0114V16.4856C22 15.9852 22 11.9191 22 11.3879C22 10.136 21.7923 8.91105 21.3836 7.74414ZM3.82951 11.3462V15.8394C3.82951 16.0394 3.99163 16.2015 4.19161 16.2015C4.39158 16.2015 4.5537 16.0394 4.5537 15.8394V11.3462H4.74788C5.29286 11.3462 5.73621 11.7896 5.73621 12.3345V17.9096C5.73621 18.4546 5.29281 18.898 4.74788 18.898H4.5537V17.5322C4.5537 17.3322 4.39158 17.1701 4.19161 17.1701C3.99163 17.1701 3.82951 17.3322 3.82951 17.5322V18.898H3.13651C1.80637 18.898 0.724189 17.8158 0.724189 16.4856V13.7586C0.724189 12.4284 1.80637 11.3462 3.13651 11.3462L3.82951 11.3462ZM0.724189 11.7563V11.3878C0.724189 10.3355 0.88018 9.30622 1.18801 8.31891C1.49526 8.59222 1.87155 8.73208 2.25189 8.74338C2.04091 9.43942 1.91471 10.1576 1.87512 10.8878C1.42704 11.0854 1.03342 11.3844 0.724189 11.7563ZM16.2637 17.9095V12.3344C16.2637 11.7895 16.7071 11.3461 17.2521 11.3461H17.4462V18.8979H17.2521C16.7071 18.8979 16.2637 18.4545 16.2637 17.9095ZM18.1705 18.8979V11.3462H18.8635C20.1937 11.3462 21.2759 12.4283 21.2759 13.7585V16.4855C21.2759 17.8157 20.1937 18.8979 18.8635 18.8979H18.1705ZM14.2545 23.9948H11.8041C11.286 23.9948 10.8643 23.5732 10.8643 23.055C10.8643 22.5368 11.2859 22.1152 11.8041 22.1152H14.2545C14.7726 22.1152 15.1943 22.5368 15.1943 23.055C15.1943 23.5732 14.7727 23.9948 14.2545 23.9948ZM15.8989 23.3883H15.8849C15.9277 23.1788 15.9297 22.9645 15.8901 22.7508H15.899C18.0651 22.7508 19.9722 21.2513 20.4958 19.1628C20.7812 18.9881 21.0362 18.7688 21.2521 18.5152C20.9972 21.2446 18.6939 23.3883 15.8989 23.3883ZM20.1249 10.8877C20.0886 10.2199 19.9796 9.56104 19.7996 8.92023C20.1971 8.91516 20.5764 8.76906 20.8715 8.5182C21.14 9.44541 21.2758 10.4077 21.2758 11.3878V11.7564C20.9666 11.3844 20.573 11.0854 20.1249 10.8877Z" fill="white"/>
</svg>
