<svg width="95" height="95" viewBox="0 0 95 95" fill="none" xmlns="http://www.w3.org/2000/svg">
<path d="M56.6462 59.7255C57.8193 59.7255 58.9164 59.2631 59.7356 58.4235L67.0125 50.9627C68.6733 49.2597 68.6389 46.523 66.9357 44.862C65.2324 43.2014 62.4952 43.2358 60.8344 44.9386L56.5655 49.315L55.8177 48.5879C54.1121 46.9301 51.375 46.968 49.7162 48.6734C48.058 50.3789 48.0963 53.1156 49.8019 54.774L53.6385 58.5043C54.4484 59.2918 55.5167 59.7255 56.6462 59.7255ZM51.7113 50.613C52.3007 50.007 53.2731 49.9944 53.8783 50.5829L55.6218 52.2783C56.172 52.8135 57.0516 52.8014 57.5877 52.2522L62.8264 46.8814C63.4165 46.2763 64.3885 46.2646 64.9931 46.854C65.598 47.4439 65.6101 48.4158 65.0205 49.0205L57.7436 56.4811C57.1812 57.0825 56.1568 57.0953 55.5783 56.51L51.7417 52.7796C51.1362 52.1906 51.1223 51.2185 51.7113 50.613Z" fill="#B6CCFF"/>
<path d="M45.892 60.6722C45.4292 60.0589 44.5572 59.9367 43.9433 60.3995C43.3299 60.8623 43.2081 61.7345 43.6707 62.3478C44.1773 63.0192 44.7378 63.663 45.3361 64.2613C48.7568 67.6816 53.3048 69.5651 58.1423 69.5651C62.9798 69.5651 67.5277 67.6816 70.9483 64.2613C74.3692 60.8412 76.2529 56.2937 76.2529 51.457C76.2529 46.62 74.369 42.0727 70.9483 38.6526C63.8869 31.5923 52.3976 31.5925 45.3361 38.6526C40.5219 43.4661 38.8184 50.4879 40.8903 56.9779C41.1239 57.7098 41.9073 58.1134 42.6387 57.8801C43.3706 57.6465 43.7747 56.8637 43.5409 56.1319C41.787 50.6382 43.2288 44.6943 47.3039 40.62C53.28 34.6444 63.0047 34.6444 68.9808 40.62C71.8759 43.5147 73.4705 47.3634 73.4705 51.4571C73.4705 55.5509 71.8759 59.3995 68.9808 62.2943C66.0858 65.1889 62.2366 66.7833 58.1423 66.7833C54.0482 66.7833 50.1988 65.1891 47.3037 62.2943C46.7961 61.7864 46.3211 61.2408 45.892 60.6722Z" fill="#B6CCFF"/>
<path d="M92.8632 76.8714L84.0862 68.0955C83.5427 67.5524 82.6619 67.5522 82.1184 68.0955L82.0647 68.1492L78.687 64.772C80.9576 61.2715 82.3104 57.227 82.5766 53.0059C82.6249 52.2392 82.0423 51.5785 81.2756 51.53C80.5094 51.4834 79.8482 52.0643 79.7995 52.8308C79.4672 58.1008 77.2254 63.0617 73.4868 66.7997C69.2619 71.0243 63.7135 73.139 58.1635 73.1444C58.1565 73.1442 58.1496 73.1433 58.1424 73.1433H58.0319C52.5119 73.1155 47.0004 71.0015 42.798 66.7997C38.6992 62.7017 36.442 57.2529 36.442 51.4573C36.442 45.6616 38.6992 40.2129 42.798 36.1149C51.2589 27.6549 65.026 27.6549 73.4868 36.1149C76.6382 39.2658 78.7177 43.2404 79.5009 47.6092C79.6366 48.3654 80.36 48.8678 81.1159 48.733C81.8722 48.5975 82.3754 47.8746 82.2398 47.1183C81.3558 42.1875 79.0095 37.7022 75.4544 34.1475C73.6929 32.3862 71.727 30.951 69.6328 29.8398V18.6283C69.6317 18.2622 69.4838 17.9038 69.2254 17.6446L51.986 0.40743C51.7266 0.149385 51.3684 0.000925557 51.0019 0H4.17389C1.87259 0 0.000185111 1.87203 0.000185111 4.17315V15.8653C0.000185111 16.6336 0.6229 17.2565 1.39148 17.2565C2.15988 17.2565 2.78278 16.6337 2.78278 15.8653V4.17315C2.78278 3.40605 3.40679 2.78204 4.17408 2.78204H49.6112V15.8463C49.6112 18.1474 51.4836 20.0194 53.7849 20.0194H66.8508V28.5799C64.1363 27.5514 61.2745 27.0231 58.408 26.9922C58.3943 26.9904 58.381 26.9876 58.3668 26.9876H27.3051C26.5367 26.9876 25.9138 27.6105 25.9138 28.3787C25.9138 29.1469 26.5367 29.7698 27.3051 29.7698H46.7836C44.799 30.8075 42.9283 32.1359 41.2341 33.7543H27.3051C26.5367 33.7543 25.9138 34.3772 25.9138 35.1455C25.9138 35.9137 26.5367 36.5366 27.3051 36.5366H38.7301C36.4592 39.4782 34.9072 42.8661 34.1644 46.4826H27.3052C26.5368 46.4826 25.9139 47.1055 25.9139 47.8737C25.9139 48.6419 26.5368 49.2648 27.3052 49.2648H33.758C33.694 49.9899 33.6601 50.7211 33.6601 51.4577C33.6601 52.0619 33.6821 52.6627 33.7253 53.2593H27.3054C26.537 53.2593 25.9141 53.8823 25.9141 54.6505C25.9141 55.4187 26.537 56.0416 27.3054 56.0416H34.0879C34.7974 59.8069 36.3794 63.3352 38.7344 66.3838H27.3054C26.537 66.3838 25.9141 67.0065 25.9141 67.7749C25.9141 68.5433 26.537 69.166 27.3054 69.166H41.2397C42.9314 70.7814 44.7992 72.1076 46.7803 73.144H27.3047C26.5363 73.144 25.9134 73.7669 25.9134 74.5351C25.9134 75.3033 26.5363 75.9263 27.3047 75.9263H58.1424C61.0972 75.9259 64.0521 75.3952 66.8504 74.335V90.6047C66.8504 91.3716 66.2264 91.9958 65.4591 91.9958H4.17389C3.40679 91.9958 2.7826 91.3718 2.7826 90.6047V21.4304C2.7826 20.6621 2.1597 20.0392 1.3913 20.0392C0.6229 20.0392 0 20.662 0 21.4304V90.6047C0.000185111 92.905 1.87259 94.7771 4.17389 94.7771H65.4593C67.7606 94.7771 69.633 92.905 69.633 90.6039V73.0744C70.2539 72.7449 70.8633 72.3865 71.4595 72L74.8365 75.3765C74.2521 75.8866 74.2208 76.8588 74.7826 77.3975L83.5599 86.1737C86.0083 88.7254 90.4147 88.7252 92.863 86.1737C95.4153 83.7254 95.4152 79.3195 92.8632 76.8714ZM53.7847 17.2374C53.0176 17.2374 52.3934 16.6134 52.3934 15.8463V4.7494L64.8831 17.2374H53.7847ZM73.729 70.3346C74.3226 69.8439 74.8991 69.3222 75.4544 68.7671C76.0064 68.2151 76.5288 67.6388 77.0219 67.0418L80.097 70.1163L76.8039 73.4089L73.729 70.3346ZM90.8957 84.2063C89.4829 85.6788 86.9404 85.6785 85.5274 84.2063L77.7339 76.4138L83.1023 71.0462L90.8959 78.8386C92.3682 80.2516 92.3684 82.7935 90.8957 84.2063Z" fill="#B6CCFF"/>
<path d="M12.6255 37.9121H18.7119C20.4279 37.9121 21.824 36.5164 21.824 34.8008V28.7151C21.824 26.9993 20.4281 25.6035 18.7119 25.6035H12.6255C10.9097 25.6035 9.51355 26.9993 9.51355 28.7151V34.8008C9.51355 36.5164 10.9097 37.9121 12.6255 37.9121ZM12.2961 28.7151C12.2961 28.5335 12.444 28.3857 12.6255 28.3857H18.7119C18.8937 28.3857 19.0414 28.5335 19.0414 28.7151V34.8008C19.0414 34.9824 18.8935 35.1301 18.7119 35.1301H12.6255C12.4439 35.1301 12.2961 34.9824 12.2961 34.8008V28.7151Z" fill="#B6CCFF"/>
<path d="M9.51355 54.3045C9.51355 56.0201 10.9095 57.4159 12.6255 57.4159H18.7119C20.4279 57.4159 21.824 56.0201 21.824 54.3045V48.2188C21.824 46.5032 20.4281 45.1074 18.7119 45.1074H12.6255C10.9097 45.1074 9.51355 46.5032 9.51355 48.2188V54.3045ZM12.2961 48.2188C12.2961 48.0372 12.444 47.8895 12.6255 47.8895H18.7119C18.8937 47.8895 19.0414 48.0372 19.0414 48.2188V54.3045C19.0414 54.4861 18.8935 54.6338 18.7119 54.6338H12.6255C12.4439 54.6338 12.2961 54.4861 12.2961 54.3045V48.2188Z" fill="#B6CCFF"/>
<path d="M9.51355 74.2051C9.51355 75.9207 10.9095 77.3164 12.6255 77.3164H18.7119C20.4279 77.3164 21.824 75.9207 21.824 74.2051V68.1193C21.824 66.4036 20.4281 65.0078 18.7119 65.0078H12.6255C10.9097 65.0078 9.51355 66.4036 9.51355 68.1193V74.2051ZM12.2961 68.1193C12.2961 67.9378 12.444 67.79 12.6255 67.79H18.7119C18.8937 67.79 19.0414 67.9378 19.0414 68.1193V74.2051C19.0414 74.3867 18.8935 74.5344 18.7119 74.5344H12.6255C12.4439 74.5344 12.2961 74.3867 12.2961 74.2051V68.1193Z" fill="#B6CCFF"/>
</svg>
