<svg width="94" height="95" viewBox="0 0 94 95" fill="none" xmlns="http://www.w3.org/2000/svg">
<path d="M50.9723 18.6733C50.8578 18.407 50.6677 18.1802 50.4255 18.0209C50.1833 17.8617 49.8998 17.777 49.6099 17.7773H43.6863C43.3965 17.777 43.1129 17.8617 42.8707 18.0209C42.6285 18.1802 42.4384 18.407 42.3239 18.6733L28.9959 49.772C28.9143 49.9589 28.8723 50.1605 28.8723 50.3644C28.8723 50.5682 28.9143 50.7699 28.9959 50.9567L34.6973 63.759L31.9132 72.1039C31.8393 72.3265 31.8194 72.5635 31.8551 72.7954C31.8907 73.0273 31.981 73.2474 32.1183 73.4376C32.2557 73.6277 32.4363 73.7825 32.6453 73.8892C32.8542 73.9959 33.0855 74.0514 33.3201 74.0512H59.9761C60.2107 74.0514 60.442 73.9959 60.651 73.8892C60.8599 73.7825 61.0405 73.6277 61.1779 73.4376C61.3153 73.2474 61.4055 73.0273 61.4412 72.7954C61.4768 72.5635 61.4569 72.3265 61.383 72.1039L58.5989 63.759L64.2929 50.9567C64.3745 50.7699 64.4166 50.5682 64.4166 50.3644C64.4166 50.1605 64.3745 49.9589 64.2929 49.772L50.9723 18.6733ZM46.6481 45.1738C47.5268 45.1738 48.3857 45.4344 49.1163 45.9226C49.8469 46.4107 50.4164 47.1046 50.7526 47.9164C51.0889 48.7282 51.1768 49.6214 51.0054 50.4832C50.834 51.345 50.4109 52.1366 49.7896 52.758C49.1682 53.3793 48.3766 53.8024 47.5148 53.9738C46.653 54.1453 45.7598 54.0573 44.948 53.721C44.1362 53.3848 43.4423 52.8153 42.9542 52.0847C42.466 51.3541 42.2054 50.4952 42.2054 49.6165C42.2054 48.4382 42.6735 47.3082 43.5067 46.4751C44.3398 45.6419 45.4698 45.1738 46.6481 45.1738ZM35.3711 71.0895L37.3481 65.1659H55.9481L57.9251 71.0895H35.3711ZM56.0518 62.2041H37.2445L31.9725 50.357L44.6637 20.7391H45.1672V42.3601C43.3694 42.7271 41.7718 43.7486 40.6843 45.2265C39.5967 46.7045 39.0967 48.5336 39.2812 50.3592C39.4656 52.1849 40.3213 53.877 41.6825 55.1076C43.0436 56.3381 44.8132 57.0195 46.6481 57.0195C48.4831 57.0195 50.2526 56.3381 51.6138 55.1076C52.9749 53.877 53.8307 52.1849 54.0151 50.3592C54.1995 48.5336 53.6995 46.7045 52.612 45.2265C51.5244 43.7486 49.9269 42.7271 48.129 42.3601V20.7391H48.6325L61.3238 50.357L56.0518 62.2041Z" fill="#B6CCFF"/>
<path d="M91.8153 42.2128H88.4315C87.3826 34.8398 84.4039 27.8749 79.7969 22.0236C75.19 16.1723 69.1185 11.6424 62.1975 8.89277H73.5781C73.9275 9.88085 74.6148 10.7136 75.5188 11.2439C76.4227 11.7742 77.4851 11.9678 78.518 11.7906C79.5509 11.6134 80.4879 11.0767 81.1634 10.2754C81.8389 9.47416 82.2094 8.45989 82.2094 7.41188C82.2094 6.36387 81.8389 5.34961 81.1634 4.54834C80.4879 3.74708 79.5509 3.21041 78.518 3.03319C77.4851 2.85597 76.4227 3.04961 75.5188 3.57988C74.6148 4.11015 73.9275 4.94292 73.5781 5.93099H53.9045C53.5646 4.25716 52.6565 2.75229 51.334 1.67139C50.0116 0.590478 48.3561 0 46.6481 0C44.9401 0 43.2846 0.590478 41.9622 1.67139C40.6397 2.75229 39.7316 4.25716 39.3917 5.93099H19.7329C19.3835 4.94292 18.6962 4.11015 17.7922 3.57988C16.8883 3.04961 15.8259 2.85597 14.793 3.03319C13.7601 3.21041 12.8231 3.74708 12.1476 4.54834C11.4721 5.34961 11.1016 6.36387 11.1016 7.41188C11.1016 8.45989 11.4721 9.47416 12.1476 10.2754C12.8231 11.0767 13.7601 11.6134 14.793 11.7906C15.8259 11.9678 16.8883 11.7742 17.7922 11.2439C18.6962 10.7136 19.3835 9.88085 19.7329 8.89277H31.0987C24.1777 11.6424 18.1062 16.1723 13.4993 22.0236C8.89233 27.8749 5.91359 34.8398 4.86473 42.2128H1.48089C1.08813 42.2128 0.711464 42.3689 0.433743 42.6466C0.156022 42.9243 0 43.301 0 43.6937V52.5791C0 52.9718 0.156022 53.3485 0.433743 53.6262C0.711464 53.904 1.08813 54.06 1.48089 54.06H4.86473C6.11557 63.1292 10.2961 71.5411 16.7697 78.0148C23.2434 84.4884 31.6553 88.6689 40.7245 89.9198V93.3036C40.7245 93.6964 40.8805 94.073 41.1583 94.3508C41.436 94.6285 41.8127 94.7845 42.2054 94.7845H51.0908C51.4835 94.7845 51.8602 94.6285 52.1379 94.3508C52.4156 94.073 52.5717 93.6964 52.5717 93.3036V89.9198C61.6409 88.6689 70.0528 84.4884 76.5264 78.0148C83.0001 71.5411 87.1806 63.1292 88.4315 54.06H91.8153C92.2081 54.06 92.5847 53.904 92.8624 53.6262C93.1402 53.3485 93.2962 52.9718 93.2962 52.5791V43.6937C93.2962 43.301 93.1402 42.9243 92.8624 42.6466C92.5847 42.3689 92.2081 42.2128 91.8153 42.2128ZM77.7468 5.93099C78.0397 5.93099 78.326 6.01784 78.5696 6.18057C78.8131 6.34329 79.0029 6.57457 79.115 6.84517C79.2271 7.11577 79.2564 7.41352 79.1993 7.70079C79.1421 7.98805 79.0011 8.25192 78.794 8.45903C78.5869 8.66614 78.323 8.80718 78.0357 8.86432C77.7485 8.92146 77.4507 8.89213 77.1801 8.78005C76.9095 8.66796 76.6782 8.47815 76.5155 8.23462C76.3528 7.99109 76.2659 7.70477 76.2659 7.41188C76.2659 7.01912 76.422 6.64245 76.6997 6.36473C76.9774 6.08701 77.3541 5.93099 77.7468 5.93099ZM46.6481 2.96921C47.5268 2.96921 48.3857 3.22976 49.1163 3.71793C49.8469 4.2061 50.4163 4.89995 50.7526 5.71174C51.0888 6.52354 51.1768 7.41681 51.0054 8.2786C50.834 9.1404 50.4109 9.93201 49.7895 10.5533C49.1682 11.1746 48.3766 11.5978 47.5148 11.7692C46.653 11.9406 45.7597 11.8526 44.948 11.5164C44.1362 11.1801 43.4423 10.6107 42.9541 9.8801C42.466 9.14951 42.2054 8.29056 42.2054 7.41188C42.2054 6.23361 42.6735 5.1036 43.5066 4.27044C44.3398 3.43727 45.4698 2.96921 46.6481 2.96921ZM15.5494 8.89277C15.2565 8.89277 14.9702 8.80592 14.7266 8.6432C14.4831 8.48048 14.2933 8.24919 14.1812 7.97859C14.0691 7.708 14.0398 7.41024 14.0969 7.12297C14.1541 6.83571 14.2951 6.57184 14.5022 6.36473C14.7093 6.15763 14.9732 6.01659 15.2605 5.95944C15.5477 5.9023 15.8455 5.93163 16.1161 6.04372C16.3867 6.1558 16.618 6.34561 16.7807 6.58914C16.9434 6.83267 17.0303 7.11899 17.0303 7.41188C17.0303 7.80464 16.8742 8.18131 16.5965 8.45903C16.3188 8.73675 15.9421 8.89277 15.5494 8.89277ZM2.96178 45.1746H8.88535V51.0982H2.96178V45.1746ZM49.6099 91.8227H43.6863V85.8991H49.6099V91.8227ZM52.5717 86.9284V84.4183C52.5717 84.0255 52.4156 83.6488 52.1379 83.3711C51.8602 83.0934 51.4835 82.9374 51.0908 82.9374H42.2054C41.8127 82.9374 41.436 83.0934 41.1583 83.3711C40.8805 83.6488 40.7245 84.0255 40.7245 84.4183V86.9284C32.4462 85.697 24.7829 81.8377 18.8648 75.9197C12.9468 70.0016 9.08746 62.3383 7.85613 54.06H10.3662C10.759 54.06 11.1357 53.904 11.4134 53.6262C11.6911 53.3485 11.8471 52.9718 11.8471 52.5791V43.6937C11.8471 43.301 11.6911 42.9243 11.4134 42.6466C11.1357 42.3689 10.759 42.2128 10.3662 42.2128H7.85613C9.09239 34.149 12.8087 26.6701 18.4891 20.8146C24.1694 14.9591 31.532 11.0175 39.5546 9.53696C40.0115 11.0632 40.9484 12.4014 42.2263 13.3528C43.5042 14.3042 45.0549 14.8181 46.6481 14.8181C48.2413 14.8181 49.7919 14.3042 51.0698 13.3528C52.3477 12.4014 53.2847 11.0632 53.7416 9.53696C61.7642 11.0175 69.1267 14.9591 74.8071 20.8146C80.4875 26.6701 84.2038 34.149 85.4401 42.2128H82.9299C82.5372 42.2128 82.1605 42.3689 81.8828 42.6466C81.6051 42.9243 81.4491 43.301 81.4491 43.6937V52.5791C81.4491 52.9718 81.6051 53.3485 81.8828 53.6262C82.1605 53.904 82.5372 54.06 82.9299 54.06H85.4401C84.2098 62.3387 80.3509 70.0027 74.4326 75.921C68.5144 81.8392 60.8504 85.6982 52.5717 86.9284ZM90.3344 51.0982H84.4108V45.1746H90.3344V51.0982Z" fill="#B6CCFF"/>
</svg>
