<svg width="94" height="95" viewBox="0 0 94 95" fill="none" xmlns="http://www.w3.org/2000/svg">
<path d="M93.1118 43.9326C93.0756 43.2028 92.4522 42.6032 91.7179 42.6032H75.6194L78.2315 36.6456C78.3783 36.3109 78.3865 35.9163 78.2539 35.5759L76.9165 32.1427C77.661 31.8694 78.3828 31.5357 79.0736 31.1426L82.4267 33.2163C83.0467 33.562 83.6369 33.4792 84.1973 32.9682L87.4395 29.4069C87.898 28.9034 87.9273 28.1428 87.5088 27.6054L85.1012 24.5138C85.3963 23.855 85.6403 23.176 85.8315 22.4822L89.6764 21.5946C90.3372 21.4422 90.7933 20.8377 90.759 20.1605L90.5169 15.3681C90.4827 14.6909 89.9678 14.1359 89.2953 14.0507L85.3804 13.5552C85.1204 12.8843 84.809 12.2335 84.449 11.6078L86.5326 8.28932C86.8947 7.7125 86.7891 6.95863 86.2821 6.504L82.6974 3.28761C82.196 2.83765 81.4451 2.8091 80.9108 3.21934L77.784 5.62048C77.1159 5.32516 76.4275 5.08115 75.724 4.89086L74.8345 1.08142C74.6804 0.422326 74.0751 -0.0358511 73.4014 0.00220594L68.5738 0.246032C67.8979 0.280172 67.3434 0.793196 67.2567 1.46423L66.7558 5.344C66.0751 5.60443 65.4147 5.91635 64.78 6.27771L61.4269 4.20397C60.854 3.84989 60.1098 3.9538 59.6563 4.45209L56.4142 8.01341C55.9556 8.51692 55.9263 9.2775 56.3449 9.81497L58.7524 12.9064C58.523 13.4186 58.3275 13.944 58.1605 14.4781L51.607 11.6048C50.7938 11.3358 50.1795 11.5757 49.7639 12.3243L44.2012 25.0117V3.27679C44.2012 1.46778 41.4029 1.46778 41.4029 3.27679V9.40529C31.8132 9.81067 22.9687 14.8775 17.6592 23.0443C16.7059 24.5104 18.9697 26.1622 20.0053 24.5695C24.7986 17.1967 32.7624 12.6094 41.4029 12.2057V71.4428H32.7757C31.5987 71.4428 30.6413 70.4795 30.6413 69.2952V64.498C30.6413 63.9833 30.3587 63.5102 29.9055 63.266C21.0015 58.4708 15.5295 49.1966 15.625 39.0624C15.65 36.4139 16.0613 33.7943 16.8477 31.2764C17.3868 29.5496 14.7157 28.7152 14.1766 30.4423C13.3085 33.2218 12.8545 36.1132 12.827 39.0361C12.7244 49.9303 18.4569 59.924 27.8432 65.3203V69.2952C27.8432 71.535 29.3364 73.4307 31.3767 74.0372V80.6655C31.3767 84.9456 34.8589 88.4279 39.139 88.4279H41.4031V93.3777C41.4031 95.1867 44.2014 95.1867 44.2014 93.3777V59.8891L58.4579 66.1398L58.1372 67.9673C57.6665 68.1272 57.207 68.3162 56.7613 68.5333L54.249 66.7829C53.6929 66.3952 52.9386 66.462 52.4594 66.942L49.696 69.7079C49.2167 70.1875 49.1505 70.9417 49.5385 71.4977L51.2914 74.0083C51.0746 74.4544 50.886 74.9139 50.7265 75.3849L47.7347 75.9128C47.0639 76.0313 46.576 76.6154 46.5786 77.2963L46.5947 81.2205C46.5975 81.8942 47.0799 82.4702 47.7425 82.5913L50.7524 83.1407C50.9168 83.6179 51.111 84.0837 51.3337 84.5356L49.6055 87.0291C49.2201 87.5852 49.2878 88.3377 49.7667 88.8159L52.5527 91.5995C53.0312 92.0776 53.7836 92.1449 54.3397 91.7588L56.8317 90.0285C57.2837 90.2509 57.7497 90.4445 58.2269 90.6085L58.7791 93.618C58.9007 94.2806 59.4772 94.7625 60.1508 94.7645L64.075 94.7769H64.0795C64.7585 94.7769 65.34 94.289 65.4576 93.6197L65.9829 90.6273C66.4538 90.4674 66.9131 90.2785 67.3587 90.0613L69.8709 91.8118C70.4272 92.1996 71.1814 92.1328 71.6605 91.6526L74.4239 88.8868C74.9032 88.4071 74.9694 87.6529 74.5814 87.097L72.8285 84.5863C73.0453 84.1403 73.2339 83.6808 73.3934 83.2097L76.3852 82.6818C77.0558 82.5633 77.5439 81.9792 77.5412 81.2983L77.5254 77.3741C77.5226 76.7005 77.0402 76.1244 76.3775 76.0033L73.5482 75.4869C77.5526 75.469 81.6195 75.4685 85.5737 75.4685C86.0367 75.5554 86.4643 75.417 86.8565 75.053L92.7372 68.7999C92.9812 68.5402 93.1172 68.1975 93.1172 67.8412V44.0024C93.117 43.9789 93.1129 43.9561 93.1118 43.9326ZM88.4812 45.4015L85.2931 48.7914H65.2191L68.4074 45.4015H88.4812ZM72.6918 21.2976C72.5599 20.9588 72.2832 20.67 71.9498 20.5241L66.6394 18.1957C66.8929 15.6457 69.0023 13.5865 71.6611 13.4522C74.5909 13.3099 77.0868 15.5431 77.2334 18.4422C77.3536 20.8189 75.8429 22.956 73.6268 23.698L72.6918 21.2976ZM71.3068 25.4521L72.8181 29.3315L74.4166 33.4354L68.864 30.9827L71.3068 25.4521ZM61.4957 11.8745L59.277 9.02565L60.9433 7.19518L64.0392 9.10979C64.5013 9.3954 65.0871 9.38794 65.5419 9.0902C66.4443 8.49882 67.4224 8.0371 68.4486 7.71772C68.9708 7.55523 69.3502 7.10321 69.4203 6.5609L69.8824 2.98185L72.3752 2.85593L73.1956 6.37005C73.3201 6.90267 73.7434 7.31402 74.2793 7.42315C75.3321 7.63713 76.3516 7.99811 77.3095 8.49565C77.7918 8.74601 78.3757 8.69433 78.8065 8.36357L81.6934 6.14656L83.5358 7.79962L81.6156 10.858C81.3231 11.3238 81.3307 11.918 81.635 12.3762C82.229 13.2707 82.6926 14.2395 83.0129 15.2558C83.177 15.7771 83.6296 16.1548 84.1718 16.2235L87.7812 16.6804L87.9051 19.1322L84.36 19.9506C83.8276 20.0734 83.4155 20.4952 83.3047 21.0301C83.0886 22.0736 82.725 23.0842 82.2241 24.0338C81.9676 24.5203 82.0199 25.1121 82.3577 25.5462L84.5766 28.3952L82.9101 30.2257L79.8142 28.3111C79.3521 28.0255 78.7663 28.0329 78.3117 28.3305C77.5552 28.8262 76.7458 29.2291 75.9001 29.5349L74.6424 26.3062C77.9601 25.1329 80.2095 21.897 80.0276 18.3009C79.8032 13.8608 75.9869 10.4315 71.5195 10.6576C67.7723 10.847 64.7408 13.549 63.9931 17.0357L60.7398 15.6093C60.9566 14.8424 61.2543 14.0979 61.6291 13.3871C61.886 12.9004 61.8337 12.3086 61.4957 11.8745ZM39.1387 85.6297C36.4015 85.6297 34.1746 83.4028 34.1746 80.6657V74.2411H41.4027V85.6297H39.1387ZM44.2012 31.9806L51.7649 14.7296L69.5412 22.5236L65.7389 31.1318C65.4675 31.9442 65.7057 32.5591 66.4534 32.977L75.1082 36.8001L72.5638 42.6034H67.8024C67.4164 42.6034 67.0476 42.7627 66.7832 43.0438L60.9025 49.297C60.6141 49.6035 60.4626 50.4211 60.4984 50.862V63.8195L60.1312 63.8183L44.2012 56.8339V31.9806ZM74.7381 80.131L72.0554 80.6045C71.5137 80.7002 71.0783 81.1043 70.9426 81.6373C70.7329 82.4617 70.4102 83.2487 69.9834 83.9767C69.7071 84.4481 69.7304 85.0372 70.0433 85.4851L71.6159 87.738L70.5089 88.8459L68.2546 87.2751C67.8063 86.9627 67.217 86.9401 66.7459 87.2167C66.0187 87.6441 65.2318 87.9674 64.4076 88.1781C63.8746 88.314 63.4709 88.7498 63.3758 89.2918L62.9048 91.975L61.3213 91.97L60.8249 89.2645C60.7267 88.7301 60.3281 88.3006 59.8024 88.1633C58.9746 87.9471 58.1834 87.6178 57.4505 87.1848C56.9798 86.9067 56.3901 86.9283 55.9407 87.2402L53.7031 88.7937L52.5708 87.6626L54.1223 85.4238C54.4337 84.9744 54.455 84.3847 54.1763 83.914C53.7425 83.181 53.4125 82.39 53.1955 81.5627C53.0577 81.0371 52.628 80.6388 52.0934 80.5411L49.3876 80.0471L49.3811 78.4638L52.0635 77.9903C52.6053 77.8946 53.0407 77.4905 53.1763 76.9576C53.386 76.1332 53.7087 75.3461 54.1356 74.6182C54.4119 74.1467 54.3885 73.5576 54.0759 73.1097L52.503 70.8569L53.6101 69.7489L55.8642 71.3197C56.3123 71.6324 56.9016 71.6549 57.3727 71.3781C58.1006 70.9507 58.8873 70.6272 59.7113 70.4168C60.2443 70.2808 60.648 69.845 60.7431 69.303L61.214 66.6198L62.7975 66.6249L63.2939 69.3303C63.392 69.8648 63.7907 70.2942 64.3164 70.4315C65.1443 70.6477 65.9355 70.977 66.6683 71.41C67.1392 71.6883 67.729 71.6667 68.1781 71.3546L70.4154 69.8011L71.5478 70.9322L69.9962 73.1711C69.6847 73.6205 69.6636 74.2102 69.9421 74.6808C70.3759 75.4138 70.7059 76.2048 70.9229 77.0322C71.0607 77.5577 71.4904 77.956 72.025 78.0537L74.731 78.5477L74.7381 80.131ZM87.2402 70.5606C87.2396 69.1829 87.2363 65.7792 87.2363 65.7792C87.2363 63.9702 84.438 63.9702 84.438 65.7792V72.6703C80.9056 72.6705 77.2991 72.6731 73.7361 72.6886L74.5142 71.5658C74.8996 71.0096 74.8319 70.2571 74.3532 69.7789L71.567 66.9954C71.0883 66.5172 70.336 66.4499 69.78 66.836L67.2882 68.5663C66.8362 68.344 66.3702 68.1503 65.893 67.9863L65.3408 64.9768C65.1645 64.0161 64.1502 63.7055 63.3161 63.828C63.2932 62.274 63.4616 54.1483 63.3161 51.6546H84.4382V58.4741C84.4382 60.2831 87.2365 60.2831 87.2365 58.4741C87.2365 58.4741 87.2408 53.2135 87.2408 50.8056L90.3189 47.5327V67.2873L87.2402 70.5606Z" fill="#B6CCFF"/>
<path d="M62.0546 72.9416C62.0477 72.9414 62.0408 72.9414 62.0339 72.9414C60.345 72.9414 58.7601 73.5973 57.5691 74.7892C56.3733 75.9862 55.7185 77.5797 55.7254 79.2764C55.7323 80.9694 56.3976 82.5626 57.5986 83.7625C58.7996 84.9624 60.3932 85.6262 62.0862 85.6316H62.1069C63.7957 85.6316 65.3809 84.9757 66.5719 83.7838C67.7677 82.5868 68.4225 80.9933 68.4156 79.2966C68.4087 77.6038 67.7434 76.0106 66.5426 74.8107C65.3412 73.6108 63.7474 72.947 62.0546 72.9416ZM64.592 81.8059C63.9271 82.4713 63.0394 82.8435 62.0947 82.8333C61.1455 82.8303 60.251 82.4572 59.5763 81.783C58.9013 81.1086 58.5274 80.2144 58.5235 79.2652C58.5196 78.3198 58.8838 77.4327 59.5486 76.7671C60.2133 76.1016 61.1045 75.7336 62.0457 75.7397C62.9949 75.7429 63.8894 76.1158 64.5643 76.7902C65.2393 77.4644 65.6132 78.3586 65.6169 79.3078C65.6208 80.2534 65.2568 81.1403 64.592 81.8059Z" fill="#B6CCFF"/>
<path d="M18.1416 16.1053C19.3161 16.1053 19.9616 14.5476 19.1311 13.7168L14.3601 8.94515C13.0811 7.66576 11.1022 9.64454 12.3814 10.9236L17.1521 15.6954C17.4254 15.9687 17.7836 16.1053 18.1416 16.1053Z" fill="#B6CCFF"/>
<path d="M8.10369 38.1484H1.35676C-0.452254 38.1484 -0.452254 40.9468 1.35676 40.9468H8.10387C9.91289 40.9468 9.91289 38.1484 8.10369 38.1484Z" fill="#B6CCFF"/>
<path d="M17.5789 63.2225L12.8082 67.9942C11.529 69.2734 13.508 71.2522 14.787 69.9726L19.5577 65.2009C20.8369 63.9217 18.858 61.9431 17.5789 63.2225Z" fill="#B6CCFF"/>
</svg>
