<svg width="95" height="93" viewBox="0 0 95 93" fill="none" xmlns="http://www.w3.org/2000/svg">
<path d="M47.346 77.0115C48.081 77.0115 48.6769 76.4143 48.6769 75.6776C48.6769 74.941 48.081 74.3438 47.346 74.3438C46.611 74.3438 46.0151 74.941 46.0151 75.6776C46.0151 76.4143 46.611 77.0115 47.346 77.0115Z" fill="#B6CCFF"/>
<path d="M55.5143 46.5883H39.2316C38.7082 46.5883 38.2838 46.1639 38.2838 45.6405V22.8131C38.2838 22.8008 38.284 22.7884 38.2846 22.7761L38.2893 22.6531C38.5073 17.1331 41.7178 12.1903 46.6682 9.75318C47.2505 9.46657 47.6273 9.56931 48.1768 9.84473C53.1007 12.3133 56.2752 17.2701 56.4615 22.781C56.4619 22.7917 56.4621 22.8025 56.4621 22.8131V45.6405C56.4621 46.1639 56.0376 46.5883 55.5143 46.5883ZM40.1794 44.6928H54.5665V22.8294C54.3982 18.0206 51.6271 13.6967 47.3312 11.5411C43.1044 13.7001 40.3714 17.9683 40.1835 22.7274L40.1795 22.8317V44.6928H40.1794Z" fill="#B6CCFF"/>
<path d="M32.387 46.1295C31.8697 46.1295 31.4392 45.6968 31.4392 45.1818V39.3321C31.4392 37.2158 32.5591 35.2137 34.3618 34.1069C34.8082 33.8332 35.3916 33.9729 35.6653 34.4187C35.9392 34.8649 35.7995 35.4485 35.3535 35.7223C34.1081 36.4867 33.3346 37.8701 33.3346 39.3321V43.5313L35.3313 42.3659C35.7836 42.1021 36.3638 42.2549 36.6277 42.7068C36.8915 43.1589 36.739 43.7393 36.2869 44.0031L32.8647 46.0006C32.7174 46.0865 32.5521 46.1295 32.387 46.1295Z" fill="#B6CCFF"/>
<path d="M62.2803 46.128C62.1152 46.128 61.9501 46.0848 61.8024 45.9987L58.4194 44.0243C57.9673 43.7605 57.8147 43.1801 58.0786 42.728C58.3425 42.2759 58.9225 42.1233 59.375 42.3872L61.3323 43.5296V39.3304C61.3323 37.8684 60.5587 36.485 59.3134 35.7205C58.8671 35.4466 58.7276 34.863 59.0013 34.417C59.2753 33.9708 59.8591 33.8312 60.3049 34.105C62.1078 35.2118 63.2276 37.214 63.2276 39.3302V45.1799C63.228 45.6953 62.7974 46.128 62.2803 46.128Z" fill="#B6CCFF"/>
<path d="M47.3335 27.0048C45.0651 27.0048 43.2196 25.1573 43.2196 22.8862C43.2196 20.6152 45.0651 18.7676 47.3335 18.7676C49.6019 18.7676 51.4474 20.6152 51.4474 22.8862C51.4474 25.1573 49.6021 27.0048 47.3335 27.0048ZM47.3335 20.6631C46.1103 20.6631 45.1151 21.6604 45.1151 22.8862C45.1151 24.1121 46.1103 25.1093 47.3335 25.1093C48.5567 25.1093 49.5518 24.1121 49.5518 22.8862C49.5518 21.6604 48.5569 20.6631 47.3335 20.6631Z" fill="#B6CCFF"/>
<path d="M52.1083 53.7143H42.5589C42.1106 53.7143 41.7236 53.4002 41.6315 52.9614L40.8825 49.3987C40.7749 48.8865 41.1028 48.3839 41.6151 48.2764C42.1283 48.1685 42.63 48.4966 42.7375 49.009L43.3282 51.819H51.3391L51.9297 49.009C52.0374 48.4966 52.5399 48.1691 53.0521 48.2764C53.5645 48.384 53.8924 48.8865 53.7847 49.3987L53.0358 52.9614C52.9437 53.4002 52.5568 53.7143 52.1083 53.7143Z" fill="#B6CCFF"/>
<path d="M47.3483 64.0315C46.8249 64.0315 46.4005 63.607 46.4005 63.0837V57.8814C46.4005 57.358 46.8249 56.9336 47.3483 56.9336C47.8716 56.9336 48.2961 57.358 48.2961 57.8814V63.0837C48.2961 63.607 47.8716 64.0315 47.3483 64.0315Z" fill="#B6CCFF"/>
<path d="M52.1963 60.8293C51.6729 60.8293 51.2485 60.4048 51.2485 59.8815V56.6196C51.2485 56.0963 51.6729 55.6719 52.1963 55.6719C52.7197 55.6719 53.1441 56.0963 53.1441 56.6196V59.8815C53.1441 60.4048 52.7199 60.8293 52.1963 60.8293Z" fill="#B6CCFF"/>
<path d="M42.4997 60.8293C41.9763 60.8293 41.5519 60.4048 41.5519 59.8815V56.6196C41.5519 56.0963 41.9763 55.6719 42.4997 55.6719C43.023 55.6719 43.4474 56.0963 43.4474 56.6196V59.8815C43.4474 60.4048 43.023 60.8293 42.4997 60.8293Z" fill="#B6CCFF"/>
<path d="M47.346 77.0115C48.081 77.0115 48.6769 76.4143 48.6769 75.6776C48.6769 74.941 48.081 74.3438 47.346 74.3438C46.611 74.3438 46.0151 74.941 46.0151 75.6776C46.0151 76.4143 46.611 77.0115 47.346 77.0115Z" fill="#B6CCFF"/>
<path d="M74.7157 40.2969H67.9708C67.4474 40.2969 67.023 40.7213 67.023 41.2446C67.023 41.768 67.4474 42.1924 67.9708 42.1924H73.7679V71.3529H68.2869C67.8568 68.1511 65.0909 65.452 61.7545 65.7438C60.723 63.5364 58.7084 61.8751 56.1854 61.8751C54.002 61.8751 51.972 63.1461 50.8882 65.1922C50.6432 65.6547 50.8195 66.2283 51.282 66.4734C51.7446 66.7183 52.3181 66.542 52.5632 66.0795C53.3177 64.6553 54.7056 63.7705 56.1854 63.7705C57.7915 63.7705 59.2037 64.8218 59.8825 66.24C59.4852 66.4214 59.1032 66.6464 58.7446 66.919C58.328 67.2357 58.247 67.8306 58.5638 68.247C58.8803 68.6637 59.475 68.7446 59.8918 68.4278C60.5901 67.8969 61.4073 67.6162 62.2551 67.6162C64.2811 67.6162 65.977 69.2227 66.3711 71.3527H28.5094C28.9037 69.2227 30.5994 67.6162 32.6254 67.6162C33.4732 67.6162 34.2906 67.8967 34.9887 68.4278C35.4054 68.7448 36 68.6638 36.3167 68.247C36.6335 67.8304 36.5527 67.2357 36.1359 66.919C35.7773 66.6462 35.3955 66.4214 34.998 66.24C35.677 64.822 37.089 63.7705 38.6951 63.7705C40.1749 63.7705 41.5628 64.6552 42.3173 66.0795C42.5622 66.5418 43.1356 66.7183 43.5985 66.4734C44.061 66.2283 44.2373 65.6547 43.9924 65.1922C42.9085 63.1461 40.8785 61.8751 38.6951 61.8751C36.1719 61.8751 34.1573 63.5364 33.126 65.7438C29.7894 65.4522 27.0225 68.1507 26.5924 71.3529H20.9236V42.1924H22.9022C23.4255 42.1924 23.85 41.768 23.85 41.2446C23.85 40.7213 23.4255 40.2969 22.9022 40.2969H19.9758C19.4525 40.2969 19.0281 40.7213 19.0281 41.2446V72.3006C19.0281 72.824 19.4525 73.2484 19.9758 73.2484H74.7155C75.2388 73.2484 75.6633 72.824 75.6633 72.3006V41.2446C75.6634 40.7213 75.239 40.2969 74.7157 40.2969Z" fill="#B6CCFF"/>
<path d="M81.3703 33.627H70.6373C70.114 33.627 69.6896 34.0514 69.6896 34.5747C69.6896 35.0981 70.114 35.5225 70.6373 35.5225H80.4225V78.0226H14.2694V35.5225H26.6856C27.209 35.5225 27.6334 35.0981 27.6334 34.5747C27.6334 34.0514 27.209 33.627 26.6856 33.627H13.3216C12.7983 33.627 12.3739 34.0514 12.3739 34.5747V65.0698C11.1746 65.3697 10.0365 65.8407 8.97801 66.4829L7.63047 65.1314C7.26539 64.7654 6.65332 64.7652 6.28805 65.1314L3.30257 68.1256C2.9337 68.4954 2.9337 69.0941 3.30257 69.4641L4.67456 70.84C4.02591 71.9406 3.55619 73.1223 3.27186 74.3686H1.51564C0.992283 74.3686 0.567871 74.793 0.567871 75.3164V79.5508C0.567871 80.0742 0.992283 80.4986 1.51564 80.4986H3.40076C3.73911 81.7358 4.26133 82.9002 4.9606 83.9761L3.70386 85.2365C3.33517 85.6065 3.33517 86.2049 3.70386 86.5749L6.68933 89.5691C7.05442 89.9352 7.66668 89.9353 8.03176 89.5691L9.45341 88.1431C10.5413 88.7393 11.7004 89.1633 12.9149 89.4097V91.3657C12.9149 91.8891 13.3393 92.3135 13.8626 92.3135H18.0846C18.6079 92.3135 19.0323 91.8891 19.0323 91.3657V89.122C20.1634 88.7785 21.2298 88.279 22.2174 87.6302L23.7496 89.1669C24.1147 89.5331 24.7267 89.5329 25.092 89.1669L28.0775 86.1727C28.4462 85.8029 28.4462 85.2043 28.0775 84.8343L26.3616 83.1133C26.9074 82.1049 27.3047 81.0345 27.5538 79.9184H39.5781V90.9866H34.7924C34.2691 90.9866 33.8447 91.411 33.8447 91.9344C33.8447 92.4577 34.2691 92.8822 34.7924 92.8822H59.9002C60.4236 92.8822 60.848 92.4577 60.848 91.9344C60.848 91.411 60.4236 90.9866 59.9002 90.9866H55.4939V79.9184H81.3707C81.894 79.9184 82.3184 79.4939 82.3184 78.9706V34.5747C82.318 34.0514 81.8938 33.627 81.3703 33.627ZM13.3216 79.9184H21.1718C20.1464 81.9627 18.0421 83.3097 15.6899 83.3097C12.3047 83.3097 9.55046 80.546 9.55046 77.1492C9.55046 75.0269 10.6457 73.0889 12.3739 71.9722V78.9706C12.3739 79.4939 12.7983 79.9184 13.3216 79.9184ZM24.5051 83.9365L26.0675 85.5036L24.4204 87.1555L22.9954 85.7263C22.661 85.391 22.1304 85.354 21.7526 85.6395C20.5897 86.5188 19.2812 87.1366 17.8637 87.4757C17.4372 87.5777 17.1366 87.9589 17.1366 88.3975V90.4179H14.8102V88.6087C14.8102 88.1342 14.4592 87.7327 13.9889 87.6694C12.4922 87.4679 11.0845 86.9574 9.80523 86.152C9.43048 85.916 8.94181 85.9712 8.62904 86.2849L7.36036 87.5576L5.71332 85.9056L6.86202 84.7535C7.19393 84.4205 7.23165 83.8943 6.95035 83.5174C6.02229 82.2739 5.39108 80.8743 5.07471 79.3571C4.98316 78.9177 4.59571 78.6029 4.14684 78.6029H2.46322V76.2639H4.05263C4.5178 76.2639 4.91397 75.9265 4.98827 75.4674C5.23526 73.94 5.79919 72.5168 6.66488 71.2373C6.91907 70.8616 6.87131 70.3584 6.55096 70.0371L5.31203 68.7946L6.95907 67.1428L8.17847 68.366C8.50318 68.6914 9.0146 68.7371 9.39162 68.4744C10.3125 67.8326 11.3129 67.3545 12.3735 67.0374V69.8123C9.52582 71.1069 7.65492 73.9741 7.65492 77.1492C7.65492 81.5914 11.2595 85.2052 15.6899 85.2052C19.0849 85.2052 22.0889 83.065 23.2355 79.9184H25.6034C25.3373 80.9203 24.9254 81.8751 24.3713 82.7674C24.1393 83.141 24.1949 83.6251 24.5051 83.9365ZM53.5979 90.9866H41.4733V79.9184H53.5979V90.9866Z" fill="#B6CCFF"/>
<path d="M66.7343 35.806C67.4153 35.806 67.9673 35.2544 67.9673 34.5739C67.9673 33.8934 67.4153 33.3418 66.7343 33.3418C66.0533 33.3418 65.5012 33.8934 65.5012 34.5739C65.5012 35.2544 66.0533 35.806 66.7343 35.806Z" fill="#B6CCFF"/>
<path d="M26.9566 42.4759C27.6376 42.4759 28.1896 41.9243 28.1896 41.2438C28.1896 40.5633 27.6376 40.0117 26.9566 40.0117C26.2756 40.0117 25.7235 40.5633 25.7235 41.2438C25.7235 41.9243 26.2756 42.4759 26.9566 42.4759Z" fill="#B6CCFF"/>
<path d="M14.1771 19.5752C11.2231 19.5752 8.81958 17.1673 8.81958 14.2076C8.81958 11.2478 11.2229 8.83984 14.1771 8.83984C17.1313 8.83984 19.5347 11.2478 19.5347 14.2076C19.5347 17.1673 17.1313 19.5752 14.1771 19.5752ZM14.1771 10.7354C12.2681 10.7354 10.7151 12.293 10.7151 14.2076C10.7151 16.1221 12.2681 17.6797 14.1771 17.6797C16.0861 17.6797 17.6392 16.1221 17.6392 14.2076C17.6392 12.293 16.0861 10.7354 14.1771 10.7354Z" fill="#B6CCFF"/>
<path d="M14.1773 15.5342C14.9083 15.5342 15.501 14.9403 15.501 14.2075C15.501 13.4748 14.9083 12.8809 14.1773 12.8809C13.4463 12.8809 12.8536 13.4748 12.8536 14.2075C12.8536 14.9403 13.4463 15.5342 14.1773 15.5342Z" fill="#B6CCFF"/>
<path d="M27.4065 13.2599H25.6215C25.1641 7.66841 20.7041 3.19835 15.1247 2.73925V0.947771C15.1247 0.424412 14.7003 0 14.1769 0C13.6536 0 13.2292 0.424412 13.2292 0.947771V2.73906C7.64984 3.19835 3.18982 7.66841 2.73242 13.2597H0.947771C0.424412 13.2597 0 13.6841 0 14.2075C0 14.7308 0.424412 15.1552 0.947771 15.1552H2.73261C3.19001 20.7465 7.65003 25.2166 13.2294 25.6759V27.4672C13.2294 27.9905 13.6538 28.4149 14.1771 28.4149C14.7005 28.4149 15.1249 27.9905 15.1249 27.4672V25.6759C20.7042 25.2166 25.1643 20.7467 25.6217 15.1552H27.4067C27.93 15.1552 28.3545 14.7308 28.3545 14.2075C28.3545 13.6841 27.93 13.2599 27.4065 13.2599ZM15.1249 23.7754V21.9508C15.1249 21.4274 14.7005 21.003 14.1771 21.003C13.6538 21.003 13.2294 21.4274 13.2294 21.9508V23.7754C8.69523 23.3273 5.07891 19.7011 4.63308 15.1554H6.45166C6.97502 15.1554 7.39944 14.731 7.39944 14.2077C7.39944 13.6843 6.97502 13.2599 6.45166 13.2599H4.63308C5.07891 8.71399 8.69523 5.08782 13.2294 4.63972V6.46437C13.2294 6.98772 13.6538 7.41214 14.1771 7.41214C14.7005 7.41214 15.1249 6.98772 15.1249 6.46437V4.63972C19.659 5.08782 23.2754 8.71399 23.7212 13.2599H21.9028C21.3794 13.2599 20.955 13.6843 20.955 14.2077C20.955 14.731 21.3794 15.1554 21.9028 15.1554H23.7212C23.2754 19.7011 19.659 23.3275 15.1249 23.7754Z" fill="#B6CCFF"/>
<path d="M91.5405 12.0301C93.3252 12.0301 94.777 10.5751 94.777 8.78648C94.777 7.33374 93.819 6.10088 92.5029 5.68936V2.81496C92.5029 2.2916 92.0785 1.86719 91.5551 1.86719H63.5667C63.0433 1.86719 62.6189 2.2916 62.6189 2.81496V8.338C62.6189 8.86136 63.0433 9.28577 63.5667 9.28577C64.0901 9.28577 64.5145 8.86136 64.5145 8.338V3.76273H90.6074V5.68159C89.2765 6.0842 88.3043 7.32313 88.3043 8.78648C88.3043 9.2761 88.4163 9.7388 88.6108 10.1554L84.6211 13.6311C84.111 13.2943 83.5015 13.0968 82.8463 13.0968C81.9963 13.0968 81.2242 13.4294 80.6461 13.9683L76.2251 11.3199C76.2816 11.0803 76.3146 10.8318 76.3146 10.5751C76.3146 8.78648 74.8628 7.33147 73.0782 7.33147C71.2935 7.33147 69.8417 8.78648 69.8417 10.5751C69.8417 10.8083 69.8675 11.0352 69.9145 11.2545L65.6812 13.8561C65.1154 13.3709 64.3825 13.0759 63.5813 13.0759C61.7966 13.0759 60.3448 14.5309 60.3448 16.3196C60.3448 17.7723 61.3029 19.0052 62.6189 19.4167V25.5613C62.6189 26.0846 63.0433 26.509 63.5667 26.509H91.5551C92.07 26.509 92.5035 26.0753 92.5029 25.5603L92.4893 16.8626C92.4839 15.833 91.55 15.821 91.5405 15.821C91.0172 15.821 90.5928 16.2454 90.5928 16.7688C90.5928 16.779 90.593 16.7893 90.5931 16.7995C90.5968 17.0884 90.603 21.8879 90.606 24.6135H83.7271V19.4588C85.0843 19.0728 86.0823 17.8227 86.0823 16.3404C86.0823 15.8974 85.9929 15.4751 85.8315 15.0901L89.8785 11.5646C90.3653 11.8582 90.9326 12.0301 91.5405 12.0301ZM91.5405 7.43856C92.2798 7.43856 92.8814 8.04324 92.8814 8.78667C92.8814 9.5301 92.28 10.1348 91.5405 10.1348C90.8011 10.1348 90.1996 9.5301 90.1996 8.78667C90.1996 8.04324 90.8013 7.43856 91.5405 7.43856ZM73.0782 9.22739C73.8174 9.22739 74.4191 9.83206 74.4191 10.5755C74.4191 11.3189 73.8176 11.9236 73.0782 11.9236C72.3387 11.9236 71.7372 11.3189 71.7372 10.5755C71.7372 9.83206 72.3387 9.22739 73.0782 9.22739ZM62.2404 16.3197C62.2404 15.5765 62.8418 14.9716 63.5813 14.9716C64.3207 14.9716 64.9222 15.5763 64.9222 16.3197C64.9222 17.0632 64.3207 17.6679 63.5813 17.6679C62.8418 17.6679 62.2404 17.063 62.2404 16.3197ZM81.8318 24.6137H74.0259V18.5559C74.0259 18.0326 73.6015 17.6081 73.0782 17.6081C72.5548 17.6081 72.1304 18.0326 72.1304 18.5559V24.6137H64.5145V19.4246C65.8453 19.022 66.8176 17.7831 66.8176 16.3197C66.8176 16.0204 66.7736 15.7317 66.6976 15.4565L70.8386 12.9118C71.4205 13.4723 72.209 13.8191 73.078 13.8191C73.923 13.8191 74.6911 13.4903 75.2681 12.9567L79.6957 15.6091C79.6413 15.8447 79.6096 16.0889 79.6096 16.3406C79.6096 17.7738 80.5428 18.9908 81.8316 19.4186V24.6137H81.8318ZM82.8463 17.6887C82.107 17.6887 81.5053 17.084 81.5053 16.3406C81.5053 15.5972 82.1068 14.9925 82.8463 14.9925C83.5857 14.9925 84.1872 15.5972 84.1872 16.3406C84.1872 17.084 83.5855 17.6887 82.8463 17.6887Z" fill="#B6CCFF"/>
</svg>
