<svg width="134" height="128" viewBox="0 0 134 128" fill="none" xmlns="http://www.w3.org/2000/svg">
<path d="M114.281 0.79121L127.228 17.4376C122.296 22.0176 117.54 29.0637 112.96 38.5759C108.556 47.912 106.178 59.7142 105.826 73.9825L133.041 77.4175V127.093H80.1955V103.576C80.1955 101.462 80.2835 97.0585 80.4597 90.3647C80.6358 83.4948 80.812 78.9148 80.9881 76.6248C81.1643 74.1587 81.4285 70.0191 81.7808 64.2061C82.1331 58.3931 82.6616 54.1654 83.3662 51.5231C84.0708 48.8808 84.9516 45.1816 86.0085 40.4255C87.0654 35.6694 88.3865 31.8821 89.9719 29.0637C91.7334 26.2452 93.6711 22.9864 95.7849 19.2872C98.0749 15.588 100.717 12.3292 103.712 9.51076C106.883 6.51616 110.406 3.60965 114.281 0.79121ZM36.5977 0.79121L49.5449 17.4376C44.6127 22.0176 39.8565 29.0637 35.2766 38.5759C30.8728 47.912 28.4947 59.6261 28.1424 73.7183L53.7726 77.4175V127.093H0.926859V103.576C0.926859 92.8309 1.01494 84.6398 1.19109 79.0029C1.36724 73.366 2.07185 66.1438 3.30492 57.3361C4.53798 48.3524 6.29951 41.042 8.58949 35.4052C11.0556 29.7683 14.5787 23.7791 19.1586 17.4376C23.9148 11.0961 29.7278 5.54733 36.5977 0.79121Z" fill="#7411E1"/>
</svg>
