<svg width="202" height="97" viewBox="0 0 202 97" fill="none" xmlns="http://www.w3.org/2000/svg">
<path d="M23.0476 47.1922C22.6437 49.4641 21.5708 51.2942 19.8291 52.6826C18.0873 54.071 15.7271 54.7652 12.7484 54.7652H7.40946L5.4405 66.0488H2.78998L7.44733 39.5814H15.4368C18.0368 39.5814 19.9805 40.1242 21.2679 41.2096C22.5553 42.2951 23.199 43.7592 23.199 45.6019C23.199 46.1825 23.1485 46.7126 23.0476 47.1922ZM13.1649 52.569C17.3048 52.569 19.6902 50.7768 20.3213 47.1922C20.4223 46.5359 20.4728 46.0689 20.4728 45.7912C20.4728 43.065 18.6679 41.7019 15.0581 41.7019H9.71921L7.82598 52.569H13.1649ZM29.7289 49.502C30.5619 48.0631 31.6474 46.9524 32.9853 46.1699C34.3231 45.3873 35.8756 44.9961 37.6426 44.9961L37.1504 47.7602H36.3931C34.5756 47.7602 33.0105 48.2272 31.6979 49.1612C30.3852 50.0952 29.4765 51.635 28.9716 53.7807L26.8133 66.0488H24.1628L27.7978 45.3747H30.4483L29.7289 49.502ZM46.9689 66.3517C45.2523 66.3517 43.7377 66.011 42.4251 65.3294C41.1125 64.6226 40.0901 63.6381 39.3581 62.376C38.6513 61.0886 38.2979 59.5866 38.2979 57.8701C38.2979 55.5477 38.828 53.4147 39.8882 51.4709C40.9484 49.502 42.4251 47.9495 44.3183 46.8136C46.2116 45.6524 48.3194 45.0718 50.6417 45.0718C52.3583 45.0718 53.8728 45.4252 55.1855 46.132C56.4981 46.8136 57.5205 47.7981 58.2525 49.0855C58.9846 50.3476 59.3506 51.837 59.3506 53.5535C59.3506 55.9011 58.8079 58.0468 57.7224 59.9905C56.637 61.9342 55.1476 63.4867 53.2544 64.6478C51.3864 65.7838 49.2912 66.3517 46.9689 66.3517ZM47.2718 64.1177C49.064 64.1177 50.667 63.6381 52.0806 62.6789C53.5194 61.7196 54.6301 60.4449 55.4127 58.8545C56.2205 57.2642 56.6243 55.5477 56.6243 53.705C56.6243 51.635 56.0185 50.0573 54.8068 48.9719C53.6204 47.8864 52.1058 47.3437 50.2631 47.3437C48.4708 47.3437 46.8679 47.8233 45.4543 48.7825C44.0659 49.7418 42.9804 51.0166 42.1979 52.6069C41.4154 54.1972 41.0241 55.9137 41.0241 57.7565C41.0241 59.8012 41.6173 61.3789 42.8037 62.4896C43.9902 63.575 45.4795 64.1177 47.2718 64.1177ZM69.4832 39.5814L64.8259 66.0488H62.1754L66.8327 39.5814H69.4832ZM99.1886 44.9961C101.259 44.9961 102.912 45.5641 104.149 46.7C105.411 47.8359 106.042 49.502 106.042 51.6981C106.042 52.3797 105.966 53.1244 105.815 53.9321L103.657 66.0488H101.044L103.164 54.2351C103.291 53.4778 103.354 52.8467 103.354 52.3418C103.354 50.701 102.912 49.4515 102.028 48.5932C101.145 47.735 99.8954 47.3058 98.2799 47.3058C96.4876 47.3058 94.9099 47.8738 93.5468 49.0097C92.2089 50.1457 91.2749 51.7865 90.7448 53.9321L88.5487 66.0488H85.936L88.0564 54.2351C88.1826 53.4778 88.2458 52.8467 88.2458 52.3418C88.2458 50.701 87.804 49.4515 86.9205 48.5932C86.037 47.735 84.8001 47.3058 83.2098 47.3058C81.2913 47.3058 79.6379 47.9369 78.2495 49.1991C76.8611 50.436 75.9397 52.2282 75.4854 54.5758L73.4785 66.0488H70.828L74.463 45.3747H77.1135L76.4699 48.9719C77.3281 47.6845 78.4262 46.7 79.7641 46.0184C81.1272 45.3369 82.5661 44.9961 84.0806 44.9961C85.8729 44.9961 87.3622 45.4252 88.5487 46.2835C89.7351 47.1417 90.4798 48.4039 90.7827 50.0699C91.6157 48.4291 92.7895 47.1796 94.3041 46.3213C95.8187 45.4378 97.4469 44.9961 99.1886 44.9961ZM115.034 49.9185C115.892 48.5301 117.116 47.3816 118.706 46.4728C120.322 45.5388 122.102 45.0718 124.045 45.0718C126.544 45.0718 128.539 45.8165 130.028 47.3058C131.543 48.7699 132.3 50.7768 132.3 53.3263C132.3 54.0584 132.224 54.8409 132.073 55.6739C131.694 57.7943 130.937 59.6623 129.801 61.2779C128.665 62.8934 127.264 64.143 125.598 65.0265C123.957 65.91 122.19 66.3517 120.297 66.3517C118.353 66.3517 116.75 65.8974 115.488 64.9886C114.226 64.0546 113.38 62.8934 112.951 61.5051L110.452 75.8179H107.801L113.178 45.3747H115.829L115.034 49.9185ZM129.384 55.6739C129.51 54.9166 129.574 54.2729 129.574 53.7428C129.574 51.7486 128.98 50.1962 127.794 49.0855C126.633 47.9495 125.093 47.3816 123.174 47.3816C121.761 47.3816 120.41 47.7223 119.123 48.4039C117.836 49.0855 116.737 50.0573 115.829 51.3195C114.92 52.5816 114.314 54.0457 114.011 55.7118C113.885 56.4186 113.822 57.0497 113.822 57.605C113.822 59.574 114.415 61.139 115.601 62.3002C116.788 63.4614 118.328 64.042 120.221 64.042C121.685 64.042 123.048 63.7138 124.31 63.0575C125.598 62.376 126.683 61.4041 127.567 60.1419C128.475 58.8545 129.081 57.3652 129.384 55.6739ZM135.7 55.6739C136.079 53.5535 136.836 51.6981 137.972 50.1078C139.108 48.4923 140.496 47.2553 142.137 46.3971C143.803 45.5136 145.583 45.0718 147.476 45.0718C149.445 45.0718 151.061 45.5262 152.323 46.4349C153.585 47.3437 154.405 48.5049 154.784 49.9185L155.579 45.3747H158.23L154.595 66.0488H151.944L152.739 61.4672C151.881 62.8808 150.644 64.0546 149.029 64.9886C147.438 65.8974 145.659 66.3517 143.69 66.3517C142.049 66.3517 140.61 66.011 139.373 65.3294C138.136 64.6478 137.177 63.6886 136.495 62.4517C135.814 61.1895 135.473 59.7128 135.473 58.0215C135.473 57.2895 135.549 56.5069 135.7 55.6739ZM153.762 55.7118C153.888 55.005 153.951 54.3739 153.951 53.8185C153.951 51.8496 153.358 50.2845 152.171 49.1233C150.985 47.9621 149.445 47.3816 147.552 47.3816C146.088 47.3816 144.712 47.7097 143.425 48.366C142.162 49.0224 141.09 49.9816 140.206 51.2437C139.323 52.4807 138.729 53.9574 138.426 55.6739C138.3 56.4312 138.237 57.0749 138.237 57.605C138.237 59.5992 138.818 61.1769 139.979 62.3381C141.165 63.474 142.705 64.042 144.598 64.042C146.012 64.042 147.363 63.7012 148.65 63.0197C149.963 62.3381 151.061 61.3662 151.944 60.1041C152.853 58.8419 153.459 57.3778 153.762 55.7118ZM161.251 55.7118C161.63 53.5661 162.387 51.6981 163.523 50.1078C164.685 48.4923 166.098 47.2553 167.764 46.3971C169.43 45.5136 171.235 45.0718 173.179 45.0718C175.728 45.0718 177.71 45.7029 179.124 46.965C180.562 48.2272 181.332 49.9437 181.433 52.1146H178.593C178.518 50.6253 177.962 49.4641 176.927 48.6311C175.918 47.7728 174.542 47.3437 172.8 47.3437C170.655 47.3437 168.761 48.0757 167.12 49.5398C165.505 50.9787 164.457 53.036 163.978 55.7118C163.852 56.3429 163.788 57.0623 163.788 57.8701C163.788 59.8895 164.331 61.442 165.417 62.5274C166.527 63.5876 167.991 64.1177 169.809 64.1177C171.576 64.1177 173.116 63.7012 174.428 62.8682C175.741 62.0099 176.713 60.8235 177.344 59.3089H180.184C179.326 61.4293 177.95 63.1332 176.057 64.4206C174.163 65.708 171.955 66.3517 169.43 66.3517C166.881 66.3517 164.836 65.6197 163.296 64.1556C161.782 62.6915 161.024 60.6847 161.024 58.1351C161.024 57.3526 161.1 56.5448 161.251 55.7118ZM188.26 60.4449C188.184 60.8992 188.146 61.2905 188.146 61.6187C188.146 62.4264 188.361 62.9944 188.79 63.3226C189.244 63.6255 189.976 63.7769 190.986 63.7769H193.409L192.993 66.0488H190.153C188.588 66.0488 187.414 65.7459 186.631 65.1401C185.849 64.5342 185.458 63.5371 185.458 62.1488C185.458 61.5934 185.508 61.0255 185.609 60.4449L187.881 47.6087H185.003L185.42 45.3747H188.297L189.206 40.1873H191.857L190.948 45.3747H196.666L196.249 47.6087H190.531L188.26 60.4449Z" fill="white"/>
<path d="M1.62337 80.113C1.89352 78.5672 2.47883 77.1865 3.3793 75.9708C4.27978 74.7402 5.38286 73.7872 6.68855 73.1118C7.99424 72.4215 9.37497 72.0763 10.8307 72.0763C12.5116 72.0763 13.9074 72.4965 15.018 73.3369C16.1285 74.1774 16.8414 75.348 17.1566 76.8488H15.3106C15.0405 75.8132 14.4927 75.0028 13.6672 74.4175C12.8418 73.8172 11.8063 73.517 10.5606 73.517C9.38998 73.517 8.2869 73.7872 7.25135 74.3275C6.23081 74.8677 5.36785 75.6407 4.66248 76.6462C3.95711 77.6367 3.48436 78.7923 3.24423 80.113C3.15418 80.6233 3.10916 81.1186 3.10916 81.5988C3.10916 82.6494 3.31927 83.5648 3.73949 84.3453C4.17472 85.1107 4.77504 85.7035 5.54044 86.1237C6.32086 86.5289 7.22133 86.7315 8.24187 86.7315C9.33745 86.7315 10.3655 86.4989 11.326 86.0337C12.2865 85.5534 13.1119 84.8705 13.8023 83.9851C14.4927 83.0996 14.9804 82.0716 15.2656 80.9009H8.64709L8.87221 79.6403H17.1566L16.954 80.7884C16.6238 82.1691 16.0235 83.4223 15.153 84.5479C14.2826 85.6585 13.2245 86.5364 11.9788 87.1818C10.7332 87.8271 9.40499 88.1498 7.99424 88.1498C6.70356 88.1498 5.56296 87.8871 4.57243 87.3619C3.59692 86.8216 2.83151 86.0712 2.27622 85.1107C1.73593 84.1351 1.46579 83.0096 1.46579 81.7339C1.46579 81.3137 1.51832 80.7734 1.62337 80.113ZM21.8667 78.1545C22.3619 77.299 23.0073 76.6387 23.8027 76.1734C24.5981 75.7082 25.5211 75.4756 26.5717 75.4756L26.279 77.1189H25.8288C24.7482 77.1189 23.8177 77.3966 23.0373 77.9519C22.2569 78.5072 21.7166 79.4227 21.4164 80.6983L20.1333 87.9922H18.5574L20.7186 75.7007H22.2944L21.8667 78.1545ZM32.1164 88.1723C31.0959 88.1723 30.1954 87.9697 29.415 87.5645C28.6346 87.1442 28.0268 86.5589 27.5916 85.8085C27.1713 85.0431 26.9612 84.1502 26.9612 83.1296C26.9612 81.7489 27.2764 80.4807 27.9067 79.3251C28.5371 78.1545 29.415 77.2315 30.5406 76.5561C31.6662 75.8658 32.9194 75.5206 34.3001 75.5206C35.3206 75.5206 36.2211 75.7307 37.0015 76.1509C37.7819 76.5561 38.3898 77.1415 38.825 77.9069C39.2602 78.6573 39.4778 79.5427 39.4778 80.5633C39.4778 81.959 39.1552 83.2347 38.5098 84.3903C37.8645 85.5459 36.979 86.4689 35.8534 87.1592C34.7428 87.8346 33.4972 88.1723 32.1164 88.1723ZM32.2965 86.8441C33.3621 86.8441 34.3151 86.5589 35.1556 85.9886C36.011 85.4183 36.6714 84.6604 37.1366 83.7149C37.6169 82.7694 37.857 81.7489 37.857 80.6533C37.857 79.4227 37.4968 78.4847 36.7764 77.8393C36.071 77.194 35.1706 76.8713 34.075 76.8713C33.0094 76.8713 32.0564 77.1565 31.216 77.7268C30.3905 78.2971 29.7452 79.055 29.2799 80.0005C28.8147 80.946 28.5821 81.9665 28.5821 83.0621C28.5821 84.2777 28.9348 85.2157 29.6401 85.8761C30.3455 86.5214 31.231 86.8441 32.2965 86.8441ZM53.9665 75.7007L51.8054 87.9922H50.2296L50.6123 85.831C50.102 86.5964 49.4416 87.1818 48.6312 87.587C47.8208 87.9922 46.9503 88.1948 46.0198 88.1948C44.7592 88.1948 43.7461 87.8571 42.9807 87.1818C42.2153 86.4914 41.8326 85.4934 41.8326 84.1877C41.8326 83.7074 41.8701 83.2722 41.9452 82.882L43.2058 75.7007H44.7592L43.521 82.7019C43.461 83.0471 43.431 83.4073 43.431 83.7825C43.431 84.773 43.7011 85.5309 44.2414 86.0562C44.7967 86.5664 45.5621 86.8216 46.5376 86.8216C47.6782 86.8216 48.6612 86.4764 49.4867 85.786C50.3121 85.0806 50.8674 84.0526 51.1525 82.7019L52.3907 75.7007H53.9665ZM58.6673 78.4021C59.1776 77.5767 59.9055 76.8938 60.851 76.3535C61.8115 75.7982 62.8695 75.5206 64.0251 75.5206C65.5109 75.5206 66.6965 75.9633 67.582 76.8488C68.4825 77.7193 68.9327 78.9124 68.9327 80.4282C68.9327 80.8634 68.8877 81.3287 68.7977 81.8239C68.5725 83.0846 68.1223 84.1952 67.4469 85.1557C66.7716 86.1162 65.9386 86.8591 64.9481 87.3844C63.9726 87.9096 62.922 88.1723 61.7965 88.1723C60.6408 88.1723 59.6878 87.9021 58.9374 87.3619C58.187 86.8066 57.6843 86.1162 57.4291 85.2908L55.9434 93.8003H54.3675L57.5642 75.7007H59.14L58.6673 78.4021ZM67.1993 81.8239C67.2743 81.3737 67.3119 80.991 67.3119 80.6758C67.3119 79.4902 66.9592 78.5672 66.2538 77.9069C65.5634 77.2315 64.648 76.8938 63.5074 76.8938C62.6669 76.8938 61.864 77.0964 61.0986 77.5016C60.3332 77.9069 59.6803 78.4847 59.14 79.2351C58.5998 79.9855 58.2396 80.8559 58.0595 81.8464C57.9844 82.2667 57.9469 82.6419 57.9469 82.972C57.9469 84.1427 58.2996 85.0731 59.005 85.7635C59.7103 86.4539 60.6258 86.7991 61.7514 86.7991C62.6219 86.7991 63.4323 86.604 64.1827 86.2137C64.9481 85.8085 65.5935 85.2307 66.1187 84.4803C66.659 83.7149 67.0192 82.8295 67.1993 81.8239Z" fill="white"/>
<path d="M84.476 78.8065V79.4415H82.3521V86.459H81.5858V79.4415H79.451V78.8065H84.476ZM88.3026 86.5466C87.7406 86.5466 87.2333 86.4225 86.7808 86.1743C86.3356 85.9189 85.9817 85.5613 85.7189 85.1015C85.4635 84.6344 85.3357 84.0906 85.3357 83.4702C85.3357 82.8499 85.4671 82.3098 85.7299 81.85C85.9926 81.3829 86.3502 81.0252 86.8027 80.7771C87.2552 80.5216 87.7625 80.3939 88.3245 80.3939C88.8865 80.3939 89.3937 80.5216 89.8462 80.7771C90.306 81.0252 90.6636 81.3829 90.9191 81.85C91.1818 82.3098 91.3132 82.8499 91.3132 83.4702C91.3132 84.0833 91.1818 84.6234 90.9191 85.0905C90.6564 85.5576 90.2951 85.9189 89.8353 86.1743C89.3755 86.4225 88.8646 86.5466 88.3026 86.5466ZM88.3026 85.8788C88.6967 85.8788 89.0616 85.7912 89.3974 85.616C89.7331 85.4335 90.0031 85.1635 90.2075 84.8059C90.4191 84.4409 90.525 83.9957 90.525 83.4702C90.525 82.9447 90.4228 82.5032 90.2184 82.1456C90.0141 81.7806 89.744 81.5106 89.4083 81.3354C89.0726 81.153 88.7076 81.0617 88.3135 81.0617C87.9194 81.0617 87.5545 81.153 87.2187 81.3354C86.883 81.5106 86.613 81.7806 86.4086 82.1456C86.2116 82.5032 86.113 82.9447 86.113 83.4702C86.113 83.9957 86.2116 84.4409 86.4086 84.8059C86.613 85.1635 86.8794 85.4335 87.2078 85.616C87.5435 85.7912 87.9085 85.8788 88.3026 85.8788ZM100.593 80.4815L98.7205 86.459H97.9542L96.301 81.4449L94.6479 86.459H93.8706L91.9986 80.4815H92.7759L94.2648 85.6817L95.9398 80.4815H96.7061L98.3592 85.6926L99.8372 80.4815H100.593ZM101.287 83.4593C101.287 82.8462 101.407 82.3098 101.648 81.85C101.896 81.3829 102.236 81.0252 102.666 80.7771C103.104 80.5216 103.597 80.3939 104.144 80.3939C104.714 80.3939 105.203 80.5253 105.611 80.788C106.027 81.0508 106.327 81.3865 106.509 81.7952V80.4815H107.275V86.459H106.509V85.1343C106.319 85.543 106.016 85.8824 105.6 86.1524C105.192 86.4152 104.703 86.5466 104.133 86.5466C103.593 86.5466 103.104 86.4188 102.666 86.1634C102.236 85.9079 101.896 85.5467 101.648 85.0796C101.407 84.6125 101.287 84.0724 101.287 83.4593ZM106.509 83.4702C106.509 82.9885 106.411 82.5652 106.213 82.2003C106.016 81.8354 105.746 81.5544 105.403 81.3573C105.068 81.1603 104.695 81.0617 104.287 81.0617C103.863 81.0617 103.484 81.1566 103.148 81.3464C102.812 81.5361 102.546 81.8135 102.349 82.1784C102.159 82.536 102.064 82.963 102.064 83.4593C102.064 83.9483 102.159 84.3789 102.349 84.7511C102.546 85.1161 102.812 85.3971 103.148 85.5941C103.484 85.7839 103.863 85.8788 104.287 85.8788C104.695 85.8788 105.068 85.7802 105.403 85.5832C105.746 85.3861 106.016 85.1051 106.213 84.7402C106.411 84.3753 106.509 83.9519 106.509 83.4702ZM109.791 81.5434C109.959 81.1712 110.215 80.8829 110.558 80.6786C110.908 80.4742 111.335 80.372 111.838 80.372V81.1712H111.63C111.076 81.1712 110.631 81.3208 110.295 81.6201C109.959 81.9193 109.791 82.4193 109.791 83.1199V86.459H109.025V80.4815H109.791V81.5434ZM112.641 83.4593C112.641 82.8462 112.765 82.3098 113.013 81.85C113.261 81.3829 113.601 81.0252 114.031 80.7771C114.469 80.5216 114.962 80.3939 115.509 80.3939C116.035 80.3939 116.509 80.5216 116.933 80.7771C117.356 81.0325 117.666 81.3646 117.863 81.7733V78.3576H118.629V86.459H117.863V85.1234C117.681 85.5394 117.381 85.8824 116.965 86.1524C116.549 86.4152 116.06 86.5466 115.498 86.5466C114.951 86.5466 114.458 86.4188 114.02 86.1634C113.59 85.9079 113.25 85.5467 113.002 85.0796C112.761 84.6125 112.641 84.0724 112.641 83.4593ZM117.863 83.4702C117.863 82.9885 117.765 82.5652 117.568 82.2003C117.37 81.8354 117.1 81.5544 116.757 81.3573C116.422 81.1603 116.049 81.0617 115.641 81.0617C115.217 81.0617 114.838 81.1566 114.502 81.3464C114.166 81.5361 113.9 81.8135 113.703 82.1784C113.513 82.536 113.418 82.963 113.418 83.4593C113.418 83.9483 113.513 84.3789 113.703 84.7511C113.9 85.1161 114.166 85.3971 114.502 85.5941C114.838 85.7839 115.217 85.8788 115.641 85.8788C116.049 85.8788 116.422 85.7802 116.757 85.5832C117.1 85.3861 117.37 85.1051 117.568 84.7402C117.765 84.3753 117.863 83.9519 117.863 83.4702ZM123.033 83.4593C123.033 82.8462 123.153 82.3098 123.394 81.85C123.642 81.3829 123.982 81.0252 124.412 80.7771C124.85 80.5216 125.343 80.3939 125.89 80.3939C126.46 80.3939 126.949 80.5253 127.357 80.788C127.773 81.0508 128.072 81.3865 128.255 81.7952V80.4815H129.021V86.459H128.255V85.1343C128.065 85.543 127.762 85.8824 127.346 86.1524C126.938 86.4152 126.449 86.5466 125.879 86.5466C125.339 86.5466 124.85 86.4188 124.412 86.1634C123.982 85.9079 123.642 85.5467 123.394 85.0796C123.153 84.6125 123.033 84.0724 123.033 83.4593ZM128.255 83.4702C128.255 82.9885 128.156 82.5652 127.959 82.2003C127.762 81.8354 127.492 81.5544 127.149 81.3573C126.813 81.1603 126.441 81.0617 126.033 81.0617C125.609 81.0617 125.23 81.1566 124.894 81.3464C124.558 81.5361 124.292 81.8135 124.095 82.1784C123.905 82.536 123.81 82.963 123.81 83.4593C123.81 83.9483 123.905 84.3789 124.095 84.7511C124.292 85.1161 124.558 85.3971 124.894 85.5941C125.23 85.7839 125.609 85.8788 126.033 85.8788C126.441 85.8788 126.813 85.7802 127.149 85.5832C127.492 85.3861 127.762 85.1051 127.959 84.7402C128.156 84.3753 128.255 83.9519 128.255 83.4702ZM139.796 81.0398C139.577 80.5362 139.242 80.1421 138.789 79.8575C138.344 79.5655 137.818 79.4196 137.213 79.4196C136.643 79.4196 136.132 79.5509 135.68 79.8137C135.227 80.0764 134.87 80.4523 134.607 80.9413C134.344 81.423 134.213 81.985 134.213 82.6273C134.213 83.2695 134.344 83.8352 134.607 84.3242C134.87 84.8132 135.227 85.189 135.68 85.4518C136.132 85.7145 136.643 85.8459 137.213 85.8459C137.745 85.8459 138.223 85.7328 138.647 85.5065C139.077 85.273 139.42 84.9445 139.676 84.5212C139.939 84.0906 140.088 83.5907 140.125 83.0214H136.906V82.3974H140.935V82.9557C140.898 83.6272 140.716 84.2366 140.387 84.784C140.059 85.3241 139.617 85.751 139.063 86.0649C138.515 86.3787 137.899 86.5356 137.213 86.5356C136.505 86.5356 135.862 86.3714 135.286 86.043C134.709 85.7072 134.253 85.2438 133.917 84.6526C133.589 84.0541 133.425 83.379 133.425 82.6273C133.425 81.8755 133.589 81.2041 133.917 80.6129C134.253 80.0144 134.709 79.5509 135.286 79.2225C135.862 78.8868 136.505 78.7189 137.213 78.7189C138.03 78.7189 138.745 78.9233 139.358 79.332C139.971 79.7407 140.417 80.31 140.694 81.0398H139.796ZM143.105 81.5434C143.273 81.1712 143.528 80.8829 143.871 80.6786C144.222 80.4742 144.649 80.372 145.152 80.372V81.1712H144.944C144.39 81.1712 143.944 81.3208 143.609 81.6201C143.273 81.9193 143.105 82.4193 143.105 83.1199V86.459H142.339V80.4815H143.105V81.5434ZM151.713 83.1637C151.713 83.4265 151.706 83.6272 151.691 83.7658H146.732C146.754 84.2183 146.863 84.6052 147.06 84.9263C147.258 85.2474 147.517 85.4919 147.838 85.6598C148.159 85.8204 148.509 85.9006 148.889 85.9006C149.385 85.9006 149.801 85.7802 150.137 85.5394C150.48 85.2985 150.706 84.9737 150.816 84.565H151.626C151.48 85.1489 151.166 85.627 150.684 85.9992C150.21 86.3641 149.611 86.5466 148.889 86.5466C148.327 86.5466 147.823 86.4225 147.378 86.1743C146.933 85.9189 146.582 85.5613 146.327 85.1015C146.079 84.6344 145.955 84.0906 145.955 83.4702C145.955 82.8499 146.079 82.3061 146.327 81.839C146.575 81.3719 146.922 81.0143 147.367 80.7661C147.812 80.518 148.319 80.3939 148.889 80.3939C149.458 80.3939 149.954 80.518 150.378 80.7661C150.808 81.0143 151.137 81.35 151.363 81.7733C151.597 82.1894 151.713 82.6528 151.713 83.1637ZM150.936 83.1418C150.943 82.6966 150.852 82.3171 150.662 82.0032C150.48 81.6894 150.228 81.4522 149.907 81.2916C149.586 81.1311 149.235 81.0508 148.856 81.0508C148.287 81.0508 147.801 81.2332 147.4 81.5982C146.998 81.9631 146.776 82.4776 146.732 83.1418H150.936ZM152.765 83.4593C152.765 82.8462 152.885 82.3098 153.126 81.85C153.374 81.3829 153.714 81.0252 154.144 80.7771C154.582 80.5216 155.075 80.3939 155.622 80.3939C156.192 80.3939 156.681 80.5253 157.089 80.788C157.505 81.0508 157.805 81.3865 157.987 81.7952V80.4815H158.753V86.459H157.987V85.1343C157.797 85.543 157.494 85.8824 157.078 86.1524C156.67 86.4152 156.181 86.5466 155.611 86.5466C155.071 86.5466 154.582 86.4188 154.144 86.1634C153.714 85.9079 153.374 85.5467 153.126 85.0796C152.885 84.6125 152.765 84.0724 152.765 83.4593ZM157.987 83.4702C157.987 82.9885 157.889 82.5652 157.692 82.2003C157.494 81.8354 157.224 81.5544 156.881 81.3573C156.546 81.1603 156.173 81.0617 155.765 81.0617C155.341 81.0617 154.962 81.1566 154.626 81.3464C154.29 81.5361 154.024 81.8135 153.827 82.1784C153.637 82.536 153.542 82.963 153.542 83.4593C153.542 83.9483 153.637 84.3789 153.827 84.7511C154.024 85.1161 154.29 85.3971 154.626 85.5941C154.962 85.7839 155.341 85.8788 155.765 85.8788C156.173 85.8788 156.546 85.7802 156.881 85.5832C157.224 85.3861 157.494 85.1051 157.692 84.7402C157.889 84.3753 157.987 83.9519 157.987 83.4702ZM161.499 81.1274V84.8387C161.499 85.2036 161.569 85.4554 161.707 85.5941C161.846 85.7328 162.09 85.8021 162.441 85.8021H163.141V86.459H162.32C161.78 86.459 161.379 86.3349 161.116 86.0868C160.853 85.8313 160.722 85.4153 160.722 84.8387V81.1274H159.89V80.4815H160.722V78.9817H161.499V80.4815H163.141V81.1274H161.499ZM169.813 83.1637C169.813 83.4265 169.806 83.6272 169.792 83.7658H164.832C164.854 84.2183 164.964 84.6052 165.161 84.9263C165.358 85.2474 165.617 85.4919 165.938 85.6598C166.259 85.8204 166.609 85.9006 166.989 85.9006C167.485 85.9006 167.901 85.7802 168.237 85.5394C168.58 85.2985 168.806 84.9737 168.916 84.565H169.726C169.58 85.1489 169.266 85.627 168.784 85.9992C168.31 86.3641 167.711 86.5466 166.989 86.5466C166.427 86.5466 165.923 86.4225 165.478 86.1743C165.033 85.9189 164.683 85.5613 164.427 85.1015C164.179 84.6344 164.055 84.0906 164.055 83.4702C164.055 82.8499 164.179 82.3061 164.427 81.839C164.675 81.3719 165.022 81.0143 165.467 80.7661C165.912 80.518 166.42 80.3939 166.989 80.3939C167.558 80.3939 168.055 80.518 168.478 80.7661C168.908 81.0143 169.237 81.35 169.463 81.7733C169.697 82.1894 169.813 82.6528 169.813 83.1637ZM169.036 83.1418C169.043 82.6966 168.952 82.3171 168.762 82.0032C168.58 81.6894 168.328 81.4522 168.007 81.2916C167.686 81.1311 167.336 81.0508 166.956 81.0508C166.387 81.0508 165.901 81.2332 165.5 81.5982C165.099 81.9631 164.876 82.4776 164.832 83.1418H169.036ZM171.982 81.5434C172.15 81.1712 172.405 80.8829 172.748 80.6786C173.099 80.4742 173.526 80.372 174.029 80.372V81.1712H173.821C173.266 81.1712 172.821 81.3208 172.485 81.6201C172.15 81.9193 171.982 82.4193 171.982 83.1199V86.459H171.216V80.4815H171.982V81.5434ZM184.207 81.0398C183.989 80.5362 183.653 80.1421 183.2 79.8575C182.755 79.5655 182.23 79.4196 181.624 79.4196C181.055 79.4196 180.544 79.5509 180.091 79.8137C179.639 80.0764 179.281 80.4523 179.018 80.9413C178.755 81.423 178.624 81.985 178.624 82.6273C178.624 83.2695 178.755 83.8352 179.018 84.3242C179.281 84.8132 179.639 85.189 180.091 85.4518C180.544 85.7145 181.055 85.8459 181.624 85.8459C182.157 85.8459 182.635 85.7328 183.058 85.5065C183.489 85.273 183.832 84.9445 184.087 84.5212C184.35 84.0906 184.499 83.5907 184.536 83.0214H181.317V82.3974H185.346V82.9557C185.31 83.6272 185.127 84.2366 184.799 84.784C184.47 85.3241 184.029 85.751 183.474 86.0649C182.927 86.3787 182.31 86.5356 181.624 86.5356C180.916 86.5356 180.274 86.3714 179.697 86.043C179.12 85.7072 178.664 85.2438 178.329 84.6526C178 84.0541 177.836 83.379 177.836 82.6273C177.836 81.8755 178 81.2041 178.329 80.6129C178.664 80.0144 179.12 79.5509 179.697 79.2225C180.274 78.8868 180.916 78.7189 181.624 78.7189C182.441 78.7189 183.156 78.9233 183.77 79.332C184.383 79.7407 184.828 80.31 185.105 81.0398H184.207ZM189.366 86.5466C188.804 86.5466 188.297 86.4225 187.845 86.1743C187.399 85.9189 187.045 85.5613 186.783 85.1015C186.527 84.6344 186.4 84.0906 186.4 83.4702C186.4 82.8499 186.531 82.3098 186.794 81.85C187.056 81.3829 187.414 81.0252 187.867 80.7771C188.319 80.5216 188.826 80.3939 189.388 80.3939C189.95 80.3939 190.457 80.5216 190.91 80.7771C191.37 81.0252 191.727 81.3829 191.983 81.85C192.246 82.3098 192.377 82.8499 192.377 83.4702C192.377 84.0833 192.246 84.6234 191.983 85.0905C191.72 85.5576 191.359 85.9189 190.899 86.1743C190.439 86.4225 189.928 86.5466 189.366 86.5466ZM189.366 85.8788C189.76 85.8788 190.125 85.7912 190.461 85.616C190.797 85.4335 191.067 85.1635 191.271 84.8059C191.483 84.4409 191.589 83.9957 191.589 83.4702C191.589 82.9447 191.487 82.5032 191.282 82.1456C191.078 81.7806 190.808 81.5106 190.472 81.3354C190.136 81.153 189.771 81.0617 189.377 81.0617C188.983 81.0617 188.618 81.153 188.283 81.3354C187.947 81.5106 187.677 81.7806 187.472 82.1456C187.275 82.5032 187.177 82.9447 187.177 83.4702C187.177 83.9957 187.275 84.4409 187.472 84.8059C187.677 85.1635 187.943 85.4335 188.272 85.616C188.607 85.7912 188.972 85.8788 189.366 85.8788ZM193.424 83.4593C193.424 82.8462 193.548 82.3098 193.796 81.85C194.044 81.3829 194.383 81.0252 194.814 80.7771C195.252 80.5216 195.745 80.3939 196.292 80.3939C196.817 80.3939 197.292 80.5216 197.715 80.7771C198.138 81.0325 198.449 81.3646 198.646 81.7733V78.3576H199.412V86.459H198.646V85.1234C198.463 85.5394 198.164 85.8824 197.748 86.1524C197.332 86.4152 196.843 86.5466 196.281 86.5466C195.734 86.5466 195.241 86.4188 194.803 86.1634C194.372 85.9079 194.033 85.5467 193.785 85.0796C193.544 84.6125 193.424 84.0724 193.424 83.4593ZM198.646 83.4702C198.646 82.9885 198.547 82.5652 198.35 82.2003C198.153 81.8354 197.883 81.5544 197.54 81.3573C197.204 81.1603 196.832 81.0617 196.423 81.0617C196 81.0617 195.62 81.1566 195.285 81.3464C194.949 81.5361 194.683 81.8135 194.486 82.1784C194.296 82.536 194.201 82.963 194.201 83.4593C194.201 83.9483 194.296 84.3789 194.486 84.7511C194.683 85.1161 194.949 85.3971 195.285 85.5941C195.62 85.7839 196 85.8788 196.423 85.8788C196.832 85.8788 197.204 85.7802 197.54 85.5832C197.883 85.3861 198.153 85.1051 198.35 84.7402C198.547 84.3753 198.646 83.9519 198.646 83.4702Z" fill="white"/>
<path d="M79.5643 24.3159C79.5643 24.3159 83.2839 3.53016 110.132 14.8206C110.377 14.9245 110.616 15.0447 110.845 15.1805C113.925 16.9972 139.163 31.0354 158.472 15.1223C158.472 15.1223 142.921 39.3647 108.453 17.8937C108.459 17.8873 89.1522 6.95242 79.5643 24.3159Z" fill="#B92437"/>
<path d="M79.5643 29.9685C79.5643 29.9685 82.9542 11.0276 107.149 20.5465C107.989 20.877 108.805 21.2636 109.593 21.7038C114.263 24.3265 136.557 35.5372 153.822 21.3116C153.822 21.3116 139.191 44.1209 106.759 23.9192C106.759 23.9192 88.5854 13.6309 79.5643 29.9685Z" fill="#B92437"/>
<path d="M79.4802 33.8768C79.4802 33.8768 82.7754 17.4702 103.546 25.9439C104.522 26.3421 105.46 26.8283 106.348 27.3965C111.115 30.4416 130.956 41.8225 144.975 30.1981C144.975 30.1981 131.398 48.3007 103.52 29.0645C103.514 29.058 87.7212 19.6705 79.4802 33.8768Z" fill="#B92437"/>
<path d="M94.3351 0.369141L95.8889 3.5177L99.3629 4.02199L96.8501 6.47231L97.4428 9.93336L94.3351 8.29981L91.2275 9.93336L91.8202 6.47231L89.3074 4.02199L92.7813 3.5177L94.3351 0.369141Z" fill="#3B3C72"/>
<path d="M74.1292 78.3652L75.0494 80.2315L77.1075 80.5311L75.6184 81.9815L75.9696 84.0331L74.1292 83.0633L72.2866 84.0331L72.6401 81.9815L71.1488 80.5311L73.209 80.2315L74.1292 78.3652Z" fill="#B92437"/>
<path d="M106.287 3.625L107.559 6.20462L110.406 6.61839L108.347 8.62477L108.832 11.4608L106.287 10.1225L103.74 11.4608L104.227 8.62477L102.167 6.61839L105.014 6.20462L106.287 3.625Z" fill="#3B3C72"/>
<path d="M116.688 7.99219L117.815 10.2744L120.334 10.6408L118.511 12.4166L118.94 14.9251L116.688 13.7419L114.436 14.9251L114.867 12.4166L113.043 10.6408L115.563 10.2744L116.688 7.99219Z" fill="#3B3C72"/>
<path d="M124.81 12.5879L125.806 14.6007L128.025 14.9218L126.418 16.4907L126.799 18.7018L124.81 17.6588L122.823 18.7018L123.202 16.4907L121.595 14.9218L123.817 14.6007L124.81 12.5879Z" fill="#3B3C72"/>
<path d="M133.122 15.166L134.001 16.9483L135.967 17.2327L134.545 18.6206L134.881 20.5774L133.122 19.6529L131.364 20.5774L131.7 18.6206L130.277 17.2327L132.243 16.9483L133.122 15.166Z" fill="#3B3C72"/>
</svg>
