<svg width="289" height="43" viewBox="0 0 289 43" fill="none" xmlns="http://www.w3.org/2000/svg">
<path d="M285.254 22.2994C284.509 22.3024 283.781 22.0844 283.16 21.6729C282.539 21.2614 282.055 20.675 281.768 19.9879C281.481 19.3008 281.404 18.544 281.548 17.8134C281.691 17.0827 282.048 16.411 282.574 15.8835C283.099 15.3559 283.769 14.9961 284.499 14.8498C285.229 14.7034 285.986 14.777 286.675 15.0612C287.363 15.3455 287.951 15.8276 288.365 16.4465C288.779 17.0654 289 17.7933 289 18.5379C288.999 19.5326 288.605 20.4867 287.903 21.1915C287.201 21.8963 286.249 22.2946 285.254 22.2994ZM285.254 15.1458C284.582 15.1446 283.925 15.3428 283.366 15.7153C282.807 16.0877 282.37 16.6177 282.113 17.2382C281.855 17.8586 281.787 18.5416 281.917 19.2007C282.048 19.8597 282.371 20.4652 282.846 20.9405C283.321 21.4158 283.926 21.7395 284.585 21.8707C285.244 22.0018 285.927 21.9345 286.548 21.6773C287.168 21.42 287.699 20.9844 288.072 20.4255C288.445 19.8667 288.643 19.2098 288.643 18.5379C288.641 17.6395 288.283 16.7786 287.648 16.1431C287.013 15.5075 286.152 15.149 285.254 15.1458Z" fill="white"/>
<path d="M284.602 17.29V17.6232H283.936V19.7856H283.527V17.6232H282.861V17.29H284.602Z" fill="white"/>
<path d="M287.643 17.29V19.7856H287.234V18.0775L286.474 19.7856H286.189L285.423 18.0775V19.7856H285.014V17.29H285.456L286.335 19.2465L287.207 17.29H287.643Z" fill="white"/>
<path d="M126.112 22.0958C126.266 21.5173 126.286 20.9112 126.169 20.324C125.867 19.0429 124.8 18.204 123.247 17.9799C121.554 17.7376 119.955 18.101 118.401 18.6946C116.644 19.3772 114.993 20.3084 113.501 21.4598C113.41 21.5284 113.319 21.595 113.228 21.6596C113.21 21.6596 113.177 21.6596 113.143 21.6778C113.034 21.5627 113.089 21.4143 113.089 21.2811C113.089 18.84 113.089 16.3989 113.089 13.9548C113.075 13.8257 113.102 13.6955 113.166 13.5822C113.229 13.4689 113.326 13.378 113.443 13.3218C115.763 11.965 118.195 10.899 120.878 10.5234C123.668 10.1479 126.4 10.3841 128.992 11.5774C130.431 12.2339 131.669 13.264 132.575 14.5606C132.644 14.6369 132.682 14.7362 132.682 14.8392C132.682 14.9422 132.644 15.0415 132.575 15.1178C130.757 17.6539 128.645 19.9648 126.281 22.0019C126.229 22.0362 126.173 22.0647 126.115 22.0867" fill="#F47B52"/>
<path d="M134.183 21.4086C133.809 23.48 133.084 25.4722 132.039 27.2993C130.331 30.0795 128.15 32.4479 125.755 34.6437L125.431 34.9465C125.573 35.0767 125.734 35.0253 125.876 35.0253C128.586 35.0253 131.297 35.0253 134.005 35.0253C134.401 35.0253 134.498 35.1464 134.495 35.522C134.479 37.6561 134.479 39.7903 134.495 41.9245C134.495 42.0436 134.448 42.1579 134.364 42.2425C134.28 42.327 134.166 42.3749 134.047 42.3757C127.136 42.3757 120.225 42.3757 113.316 42.3757C112.922 42.3757 112.859 42.2334 112.859 41.8851C112.873 40.0679 112.873 38.2427 112.859 36.4093C112.857 36.2617 112.894 36.1161 112.965 35.9867C113.036 35.8573 113.139 35.7483 113.265 35.6704C118.147 32.6366 122.636 29.0111 126.63 24.8764C130.522 20.8331 133.596 16.2327 136.152 11.2476C136.234 11.0931 136.712 10.1603 136.509 10.7327C136.509 10.7327 134.865 16.584 134.183 21.4025" fill="#F47B52"/>
<path d="M21.9121 35.5919C21.9121 39.5715 18.62 41.9096 12.4355 41.9096H0L0 18.877L11.7783 18.877C17.8355 18.877 20.7945 21.3453 20.7945 24.8979C20.8106 25.94 20.5275 26.9649 19.9789 27.8511C19.4303 28.7374 18.6392 29.4477 17.6993 29.8981C20.3008 30.8067 21.9121 32.7935 21.9121 35.5919ZM6.44793 23.5804L6.44793 28.0204H10.9212C13.0927 28.0204 14.2133 27.2632 14.2133 25.7822C14.2133 24.3012 13.0927 23.5804 10.9212 23.5804H6.44793ZM15.3309 34.865C15.3309 33.2841 14.1467 32.5269 11.9085 32.5269H6.45702L6.45702 37.2092H11.9085C14.1467 37.2092 15.3309 36.452 15.3309 34.8741" fill="white"/>
<path d="M44.9235 37.4329H35.1835L33.3663 41.9062H26.7215L36.8886 18.8887L43.3062 18.8887L53.5036 41.9062H46.7316L44.9235 37.4329ZM43.0155 32.6295L40.0474 25.2609L37.0854 32.6295H43.0155Z" fill="white"/>
<path d="M60.0725 39.8349L62.2107 35.0315C64.485 36.4789 67.117 37.2653 69.8126 37.303C72.5111 37.303 73.562 36.5458 73.562 35.4252C73.562 31.7757 60.4662 34.4409 60.4662 25.8851C60.4662 21.7631 63.825 18.4316 70.6666 18.4316C73.6589 18.4316 76.7542 19.1222 79.0226 20.4396L77.0176 25.2854C74.8128 24.0982 72.6413 23.5076 70.6333 23.5076C67.9076 23.5076 66.9172 24.4162 66.9172 25.5792C66.9172 29.1015 79.9766 26.4696 79.9766 34.9679C79.9766 38.9839 76.6239 42.4062 69.7792 42.4062C65.9935 42.4062 62.244 41.3856 60.0725 39.8712" fill="white"/>
<path d="M105.656 36.873V41.9066H87.1636V18.877L105.226 18.877V23.9105L93.6145 23.9105V27.7932L103.845 27.7932V32.6632H93.6145V36.873H105.656Z" fill="white"/>
<path d="M164.566 35.5919C164.566 39.5715 161.274 41.9096 155.09 41.9096H142.654V18.877L154.432 18.877C160.49 18.877 163.449 21.3453 163.449 24.8979C163.465 25.94 163.182 26.9649 162.633 27.8511C162.084 28.7374 161.293 29.4477 160.353 29.8981C162.955 30.8067 164.566 32.7935 164.566 35.5919ZM149.102 23.5804V28.0204H153.575C155.747 28.0204 156.867 27.2632 156.867 25.7822C156.867 24.3012 155.741 23.5804 153.575 23.5804H149.102ZM157.985 34.865C157.985 33.2841 156.801 32.5269 154.563 32.5269H149.111V37.2092H154.563C156.801 37.2092 157.985 36.452 157.985 34.8741" fill="white"/>
<path d="M181.145 35.7888H177.592V41.9096H171.075V18.877H181.602C187.887 18.877 191.836 22.1357 191.836 27.3995C191.836 30.7885 190.192 33.2871 187.329 34.6682L192.296 41.9096H185.331L181.145 35.7888ZM181.209 24.0105H177.592V30.7552H181.209C183.907 30.7552 185.258 29.5044 185.258 27.3995C185.258 25.2946 183.907 24.0105 181.209 24.0105Z" fill="white"/>
<path d="M217.185 37.4329H207.448L205.631 41.9062H198.992L209.159 18.8887L215.574 18.8887L225.774 41.9062H218.996L217.185 37.4329ZM215.277 32.6295L212.315 25.2609L209.347 32.6295H215.277Z" fill="white"/>
<path d="M253.72 18.877V41.9066H248.356L238.192 29.6346V41.9066H231.807V18.877H237.171L247.335 31.1489V18.877H253.72Z" fill="white"/>
<path d="M138.929 7.65255C138.644 7.57078 138.626 7.47084 138.741 7.22552C139.099 6.54354 139.403 5.83471 139.65 5.10548C140.213 3.38523 139.922 1.774 139.044 0.226375C138.923 0.00831458 138.823 -0.0764866 138.569 0.0810016C137.139 1.02896 136.146 2.26767 135.819 3.99701C135.677 4.80692 135.609 5.62801 135.616 6.45019C135.616 6.65008 135.616 6.82574 135.313 6.79243C134.435 6.70157 134.101 6.95597 133.899 7.82821C133.735 8.68526 133.717 9.5639 133.847 10.4268C133.862 10.8687 133.965 11.3031 134.15 11.7048C134.198 11.5595 134.232 11.4686 134.253 11.3747C134.419 10.6872 134.586 9.99973 134.744 9.30921C134.775 9.18286 134.847 9.07013 134.948 8.98775C135.049 8.90536 135.174 8.85772 135.304 8.85189C135.634 8.81252 135.328 9.09418 135.428 9.18806C135.509 9.26562 135.6 9.33276 135.698 9.38795C136.184 9.64444 136.723 9.78344 137.272 9.79379C137.56 9.79379 137.818 9.79379 137.805 9.3607C138.205 9.63933 138.335 9.93008 138.217 10.3511C138.024 11.0628 137.863 11.7836 137.654 12.6316C138.043 12.2734 138.375 11.8577 138.638 11.399C139.135 10.6085 139.623 9.80287 139.726 8.84583C139.801 8.16439 139.604 7.85547 138.944 7.6677M138.002 4.66936C137.858 4.67298 137.714 4.64786 137.58 4.59545C137.445 4.54303 137.322 4.46438 137.218 4.36406C137.114 4.26374 137.031 4.14375 136.974 4.01107C136.917 3.87838 136.886 3.73565 136.885 3.59117C136.882 3.45002 136.906 3.30962 136.958 3.17809C137.009 3.04656 137.086 2.92651 137.184 2.82486C137.282 2.7232 137.399 2.64197 137.529 2.58584C137.658 2.52971 137.798 2.4998 137.939 2.49784C138.08 2.49215 138.221 2.51491 138.353 2.56475C138.485 2.61459 138.606 2.69051 138.708 2.78798C138.811 2.88546 138.892 3.0025 138.948 3.13216C139.004 3.26181 139.034 3.40143 139.035 3.54272C139.041 3.82744 138.934 4.10293 138.738 4.30934C138.542 4.51575 138.272 4.63642 137.987 4.64513" fill="white"/>
<path d="M260.377 18.877H271.28C278.915 18.877 284.142 23.3199 284.142 30.3857C284.142 37.4515 278.915 41.8945 271.28 41.8945H260.377V18.877ZM271.004 36.7095C274.92 36.7095 277.552 34.3744 277.552 30.3918C277.552 26.4091 274.92 24.0771 271.004 24.0771H266.891V36.7095H271.004Z" fill="white"/>
</svg>
