<svg width="243" height="98" viewBox="0 0 243 98" fill="none" xmlns="http://www.w3.org/2000/svg">
<path d="M61.3013 18.1812C61.3013 16.5705 61.6176 15.1419 62.2504 13.8955C62.9024 12.6491 63.7845 11.6904 64.8966 11.0192C66.0088 10.3481 67.2456 10.0125 68.607 10.0125C69.6425 10.0125 70.63 10.2427 71.5696 10.7029C72.5092 11.1439 73.257 11.7383 73.8131 12.4862V4.92152H77.8974V26.2061H73.8131V23.8475C73.3146 24.6337 72.6147 25.2665 71.7134 25.7458C70.8122 26.2252 69.7671 26.4649 68.5783 26.4649C67.236 26.4649 66.0088 26.1198 64.8966 25.4295C63.7845 24.7391 62.9024 23.7708 62.2504 22.5244C61.6176 21.2588 61.3013 19.8111 61.3013 18.1812ZM73.8419 18.2387C73.8419 17.2608 73.6501 16.4267 73.2666 15.7364C72.8831 15.0269 72.3654 14.49 71.7134 14.1256C71.0615 13.7421 70.3616 13.5504 69.6137 13.5504C68.8659 13.5504 68.1756 13.7325 67.5428 14.0969C66.91 14.4612 66.3923 14.9981 65.9896 15.7076C65.6061 16.3979 65.4143 17.2224 65.4143 18.1812C65.4143 19.14 65.6061 19.9837 65.9896 20.7123C66.3923 21.4218 66.91 21.9683 67.5428 22.3518C68.1948 22.7353 68.8851 22.9271 69.6137 22.9271C70.3616 22.9271 71.0615 22.7449 71.7134 22.3806C72.3654 21.9971 72.8831 21.4602 73.2666 20.7699C73.6501 20.0604 73.8419 19.2167 73.8419 18.2387ZM83.8725 8.37306C83.163 8.37306 82.5686 8.15255 82.0892 7.71152C81.629 7.25131 81.3989 6.68564 81.3989 6.01451C81.3989 5.34337 81.629 4.78729 82.0892 4.34626C82.5686 3.88605 83.163 3.65595 83.8725 3.65595C84.582 3.65595 85.1668 3.88605 85.627 4.34626C86.1064 4.78729 86.3461 5.34337 86.3461 6.01451C86.3461 6.68564 86.1064 7.25131 85.627 7.71152C85.1668 8.15255 84.582 8.37306 83.8725 8.37306ZM85.8571 10.2714V26.2061H81.8303V10.2714H85.8571ZM96.0772 10.0125C97.266 10.0125 98.3111 10.2522 99.2123 10.7316C100.114 11.1918 100.823 11.7958 101.341 12.5437V10.2714H105.396V26.3211C105.396 27.7976 105.099 29.1111 104.505 30.2616C103.91 31.4313 103.019 32.3517 101.83 33.0229C100.641 33.7132 99.2027 34.0583 97.5153 34.0583C95.2526 34.0583 93.3926 33.531 91.9353 32.4764C90.4972 31.4217 89.6822 29.9836 89.4905 28.1619H93.4885C93.6994 28.8906 94.15 29.4658 94.8404 29.8877C95.5498 30.3287 96.4031 30.5493 97.4003 30.5493C98.5699 30.5493 99.5191 30.1945 100.248 29.485C100.976 28.7947 101.341 27.7401 101.341 26.3211V23.8475C100.823 24.5953 100.104 25.2185 99.1836 25.7171C98.2823 26.2156 97.2469 26.4649 96.0772 26.4649C94.7349 26.4649 93.5077 26.1198 92.3955 25.4295C91.2833 24.7391 90.4013 23.7708 89.7493 22.5244C89.1165 21.2588 88.8002 19.8111 88.8002 18.1812C88.8002 16.5705 89.1165 15.1419 89.7493 13.8955C90.4013 12.6491 91.2738 11.6904 92.3667 11.0192C93.4789 10.3481 94.7157 10.0125 96.0772 10.0125ZM101.341 18.2387C101.341 17.2608 101.149 16.4267 100.766 15.7364C100.382 15.0269 99.8643 14.49 99.2123 14.1256C98.5604 13.7421 97.8605 13.5504 97.1126 13.5504C96.3648 13.5504 95.6745 13.7325 95.0417 14.0969C94.4089 14.4612 93.8912 14.9981 93.4885 15.7076C93.105 16.3979 92.9132 17.2224 92.9132 18.1812C92.9132 19.14 93.105 19.9837 93.4885 20.7123C93.8912 21.4218 94.4089 21.9683 95.0417 22.3518C95.6937 22.7353 96.384 22.9271 97.1126 22.9271C97.8605 22.9271 98.5604 22.7449 99.2123 22.3806C99.8643 21.9971 100.382 21.4602 100.766 20.7699C101.149 20.0604 101.341 19.2167 101.341 18.2387ZM111.371 8.37306C110.662 8.37306 110.067 8.15255 109.588 7.71152C109.128 7.25131 108.898 6.68564 108.898 6.01451C108.898 5.34337 109.128 4.78729 109.588 4.34626C110.067 3.88605 110.662 3.65595 111.371 3.65595C112.081 3.65595 112.666 3.88605 113.126 4.34626C113.605 4.78729 113.845 5.34337 113.845 6.01451C113.845 6.68564 113.605 7.25131 113.126 7.71152C112.666 8.15255 112.081 8.37306 111.371 8.37306ZM113.356 10.2714V26.2061H109.329V10.2714H113.356ZM122.023 13.5791V21.2876C122.023 21.8245 122.147 22.2176 122.397 22.4669C122.665 22.697 123.106 22.812 123.72 22.812H125.589V26.2061H123.058C119.664 26.2061 117.967 24.557 117.967 21.2588V13.5791H116.069V10.2714H117.967V6.3309H122.023V10.2714H125.589V13.5791H122.023ZM127.45 18.1812C127.45 16.5705 127.767 15.1419 128.399 13.8955C129.051 12.6491 129.924 11.6904 131.017 11.0192C132.129 10.3481 133.366 10.0125 134.727 10.0125C135.916 10.0125 136.952 10.2522 137.834 10.7316C138.735 11.211 139.454 11.815 139.991 12.5437V10.2714H144.046V26.2061H139.991V23.8763C139.473 24.6241 138.754 25.2473 137.834 25.7458C136.932 26.2252 135.887 26.4649 134.699 26.4649C133.356 26.4649 132.129 26.1198 131.017 25.4295C129.924 24.7391 129.051 23.7708 128.399 22.5244C127.767 21.2588 127.45 19.8111 127.45 18.1812ZM139.991 18.2387C139.991 17.2608 139.799 16.4267 139.416 15.7364C139.032 15.0269 138.514 14.49 137.862 14.1256C137.21 13.7421 136.511 13.5504 135.763 13.5504C135.015 13.5504 134.325 13.7325 133.692 14.0969C133.059 14.4612 132.541 14.9981 132.139 15.7076C131.755 16.3979 131.563 17.2224 131.563 18.1812C131.563 19.14 131.755 19.9837 132.139 20.7123C132.541 21.4218 133.059 21.9683 133.692 22.3518C134.344 22.7353 135.034 22.9271 135.763 22.9271C136.511 22.9271 137.21 22.7449 137.862 22.3806C138.514 21.9971 139.032 21.4602 139.416 20.7699C139.799 20.0604 139.991 19.2167 139.991 18.2387ZM152.006 4.92152V26.2061H147.979V4.92152H152.006ZM22.2965 42.0413C24.2524 42.0413 25.8248 42.6453 27.0136 43.8534C28.2217 45.0422 28.8257 46.7105 28.8257 48.8581V58.2061H24.7989V49.4046C24.7989 48.1582 24.4825 47.209 23.8497 46.5571C23.2169 45.886 22.3541 45.5504 21.2611 45.5504C20.1681 45.5504 19.2956 45.886 18.6436 46.5571C18.0109 47.209 17.6945 48.1582 17.6945 49.4046V58.2061H13.6677V49.4046C13.6677 48.1582 13.3513 47.209 12.7185 46.5571C12.0857 45.886 11.2228 45.5504 10.1298 45.5504C9.01767 45.5504 8.1356 45.886 7.48364 46.5571C6.85086 47.209 6.53447 48.1582 6.53447 49.4046V58.2061H2.50766V42.2714H6.53447V44.1985C7.0522 43.5274 7.71375 43.0001 8.51911 42.6166C9.34364 42.2331 10.2449 42.0413 11.2228 42.0413C12.4692 42.0413 13.5814 42.3098 14.5593 42.8467C15.5373 43.3644 16.2947 44.1122 16.8316 45.0902C17.3493 44.1698 18.0972 43.4315 19.0751 42.8754C20.0722 42.3194 21.146 42.0413 22.2965 42.0413ZM31.6114 50.1812C31.6114 48.5705 31.9278 47.1419 32.5606 45.8955C33.2126 44.6491 34.085 43.6904 35.178 43.0192C36.2902 42.3481 37.527 42.0125 38.8884 42.0125C40.0773 42.0125 41.1128 42.2522 41.9948 42.7316C42.8961 43.211 43.6151 43.815 44.1521 44.5437V42.2714H48.2076V58.2061H44.1521V55.8763C43.6343 56.6241 42.9153 57.2473 41.9948 57.7458C41.0936 58.2252 40.0486 58.4649 38.8597 58.4649C37.5174 58.4649 36.2902 58.1198 35.178 57.4295C34.085 56.7391 33.2126 55.7708 32.5606 54.5244C31.9278 53.2588 31.6114 51.8111 31.6114 50.1812ZM44.1521 50.2387C44.1521 49.2608 43.9603 48.4267 43.5768 47.7364C43.1933 47.0269 42.6756 46.49 42.0236 46.1256C41.3716 45.7421 40.6717 45.5504 39.9239 45.5504C39.1761 45.5504 38.4858 45.7325 37.853 46.0969C37.2202 46.4612 36.7025 46.9981 36.2998 47.7076C35.9163 48.3979 35.7245 49.2224 35.7245 50.1812C35.7245 51.14 35.9163 51.9837 36.2998 52.7123C36.7025 53.4218 37.2202 53.9683 37.853 54.3518C38.5049 54.7353 39.1953 54.9271 39.9239 54.9271C40.6717 54.9271 41.3716 54.7449 42.0236 54.3806C42.6756 53.9971 43.1933 53.4602 43.5768 52.7699C43.9603 52.0604 44.1521 51.2167 44.1521 50.2387ZM56.1673 44.745C56.685 43.9013 57.3562 43.2398 58.1807 42.7604C59.0244 42.281 59.9832 42.0413 61.057 42.0413V46.2695H59.9928C58.7272 46.2695 57.7684 46.5667 57.1165 47.1611C56.4837 47.7555 56.1673 48.791 56.1673 50.2675V58.2061H52.1405V42.2714H56.1673V44.745ZM73.2035 58.2061L67.7961 51.418V58.2061H63.7692V36.9215H67.7961V49.0307L73.1459 42.2714H78.3808L71.3626 50.2675L78.4383 58.2061H73.2035ZM95.3792 49.8936C95.3792 50.4688 95.3409 50.9866 95.2642 51.4468H83.6152C83.7111 52.5973 84.1137 53.4985 84.8232 54.1505C85.5327 54.8024 86.4052 55.1284 87.4407 55.1284C88.9363 55.1284 90.0005 54.4861 90.6333 53.2013H94.9765C94.5163 54.7353 93.6343 56.0009 92.3303 56.998C91.0264 57.976 89.4253 58.4649 87.5269 58.4649C85.9929 58.4649 84.6123 58.1294 83.3851 57.4582C82.177 56.7679 81.2279 55.7996 80.5376 54.5532C79.8664 53.3068 79.5309 51.8686 79.5309 50.2387C79.5309 48.5897 79.8664 47.1419 80.5376 45.8955C81.2087 44.6491 82.1483 43.6904 83.3563 43.0192C84.5644 42.3481 85.9546 42.0125 87.5269 42.0125C89.0418 42.0125 90.3936 42.3385 91.5825 42.9905C92.7905 43.6424 93.7205 44.5724 94.3725 45.7805C95.0436 46.9694 95.3792 48.3404 95.3792 49.8936ZM91.2086 48.7431C91.1894 47.7076 90.8155 46.8831 90.0868 46.2695C89.3582 45.6367 88.4665 45.3203 87.4119 45.3203C86.4148 45.3203 85.5711 45.6271 84.8808 46.2407C84.2096 46.8351 83.7974 47.6692 83.6439 48.7431H91.2086ZM103.007 45.5791V53.2876C103.007 53.8245 103.131 54.2176 103.381 54.4669C103.649 54.697 104.09 54.812 104.704 54.812H106.573V58.2061H104.042C100.648 58.2061 98.9512 56.557 98.9512 53.2588V45.5791H97.0529V42.2714H98.9512V38.3309H103.007V42.2714H106.573V45.5791H103.007ZM111.512 40.3731C110.802 40.3731 110.208 40.1525 109.729 39.7115C109.268 39.2513 109.038 38.6856 109.038 38.0145C109.038 37.3434 109.268 36.7873 109.729 36.3463C110.208 35.8861 110.802 35.6559 111.512 35.6559C112.221 35.6559 112.806 35.8861 113.266 36.3463C113.746 36.7873 113.985 37.3434 113.985 38.0145C113.985 38.6856 113.746 39.2513 113.266 39.7115C112.806 40.1525 112.221 40.3731 111.512 40.3731ZM113.496 42.2714V58.2061H109.47V42.2714H113.496ZM126.305 42.0413C128.204 42.0413 129.738 42.6453 130.907 43.8534C132.077 45.0422 132.662 46.7105 132.662 48.8581V58.2061H128.635V49.4046C128.635 48.139 128.319 47.1707 127.686 46.4996C127.053 45.8092 126.19 45.4641 125.097 45.4641C123.985 45.4641 123.103 45.8092 122.451 46.4996C121.818 47.1707 121.502 48.139 121.502 49.4046V58.2061H117.475V42.2714H121.502V44.2561C122.039 43.5657 122.719 43.0288 123.544 42.6453C124.388 42.2427 125.308 42.0413 126.305 42.0413ZM142.733 42.0125C143.921 42.0125 144.966 42.2522 145.868 42.7316C146.769 43.1918 147.478 43.7958 147.996 44.5437V42.2714H152.052V58.3211C152.052 59.7976 151.755 61.1111 151.16 62.2616C150.566 63.4313 149.674 64.3517 148.485 65.0229C147.296 65.7132 145.858 66.0583 144.171 66.0583C141.908 66.0583 140.048 65.531 138.591 64.4764C137.153 63.4217 136.338 61.9836 136.146 60.1619H140.144C140.355 60.8906 140.805 61.4658 141.496 61.8877C142.205 62.3287 143.059 62.5493 144.056 62.5493C145.225 62.5493 146.175 62.1945 146.903 61.485C147.632 60.7947 147.996 59.7401 147.996 58.3211V55.8475C147.478 56.5953 146.759 57.2185 145.839 57.7171C144.938 58.2156 143.902 58.4649 142.733 58.4649C141.39 58.4649 140.163 58.1198 139.051 57.4295C137.939 56.7391 137.057 55.7708 136.405 54.5244C135.772 53.2588 135.456 51.8111 135.456 50.1812C135.456 48.5705 135.772 47.1419 136.405 45.8955C137.057 44.6491 137.929 43.6904 139.022 43.0192C140.134 42.3481 141.371 42.0125 142.733 42.0125ZM147.996 50.2387C147.996 49.2608 147.804 48.4267 147.421 47.7364C147.037 47.0269 146.52 46.49 145.868 46.1256C145.216 45.7421 144.516 45.5504 143.768 45.5504C143.02 45.5504 142.33 45.7325 141.697 46.0969C141.064 46.4612 140.547 46.9981 140.144 47.7076C139.76 48.3979 139.569 49.2224 139.569 50.1812C139.569 51.14 139.76 51.9837 140.144 52.7123C140.547 53.4218 141.064 53.9683 141.697 54.3518C142.349 54.7353 143.039 54.9271 143.768 54.9271C144.516 54.9271 145.216 54.7449 145.868 54.3806C146.52 53.9971 147.037 53.4602 147.421 52.7699C147.804 52.0604 147.996 51.2167 147.996 50.2387ZM77.4867 81.8936C77.4867 82.4688 77.4483 82.9866 77.3716 83.4468H65.7227C65.8185 84.5973 66.2212 85.4985 66.9307 86.1505C67.6402 86.8024 68.5127 87.1284 69.5481 87.1284C71.0438 87.1284 72.108 86.4861 72.7408 85.2013H77.084C76.6238 86.7353 75.7417 88.0009 74.4378 88.998C73.1339 89.976 71.5328 90.4649 69.6344 90.4649C68.1004 90.4649 66.7198 90.1294 65.4926 89.4582C64.2845 88.7679 63.3353 87.7996 62.645 86.5532C61.9739 85.3068 61.6383 83.8686 61.6383 82.2387C61.6383 80.5897 61.9739 79.1419 62.645 77.8955C63.3162 76.6491 64.2557 75.6904 65.4638 75.0192C66.6718 74.3481 68.062 74.0125 69.6344 74.0125C71.1493 74.0125 72.5011 74.3385 73.69 74.9905C74.898 75.6424 75.828 76.5724 76.48 77.7805C77.1511 78.9694 77.4867 80.3404 77.4867 81.8936ZM73.3161 80.7431C73.2969 79.7076 72.923 78.8831 72.1943 78.2695C71.4656 77.6367 70.574 77.3203 69.5194 77.3203C68.5222 77.3203 67.6785 77.6271 66.9882 78.2407C66.3171 78.8351 65.9048 79.6692 65.7514 80.7431H73.3161ZM89.2273 90.2061L85.9484 85.2588L83.0433 90.2061H78.7289L83.935 82.21L78.6713 74.2714H83.2159L86.4661 79.1899L89.3999 74.2714H93.7143L88.4795 82.21L93.7719 90.2061H89.2273ZM99.9858 76.5724C100.504 75.8438 101.213 75.2398 102.114 74.7604C103.035 74.2618 104.08 74.0125 105.249 74.0125C106.611 74.0125 107.838 74.3481 108.931 75.0192C110.043 75.6904 110.916 76.6491 111.548 77.8955C112.2 79.1228 112.526 80.5513 112.526 82.1812C112.526 83.8111 112.2 85.2588 111.548 86.5244C110.916 87.7708 110.043 88.7391 108.931 89.4295C107.838 90.1198 106.611 90.4649 105.249 90.4649C104.08 90.4649 103.044 90.2252 102.143 89.7458C101.261 89.2665 100.542 88.6624 99.9858 87.9338V97.7995H95.959V74.2714H99.9858V76.5724ZM108.413 82.1812C108.413 81.2224 108.212 80.3979 107.809 79.7076C107.426 78.9981 106.908 78.4612 106.256 78.0969C105.623 77.7325 104.933 77.5504 104.185 77.5504C103.456 77.5504 102.766 77.7421 102.114 78.1256C101.481 78.49 100.964 79.0269 100.561 79.7364C100.178 80.4458 99.9858 81.28 99.9858 82.2387C99.9858 83.1975 100.178 84.0316 100.561 84.7411C100.964 85.4506 101.481 85.9971 102.114 86.3806C102.766 86.7449 103.456 86.9271 104.185 86.9271C104.933 86.9271 105.623 86.7353 106.256 86.3518C106.908 85.9683 107.426 85.4218 107.809 84.7123C108.212 84.0029 108.413 83.1591 108.413 82.1812ZM130.265 81.8936C130.265 82.4688 130.227 82.9866 130.15 83.4468H118.501C118.597 84.5973 119 85.4985 119.709 86.1505C120.419 86.8024 121.291 87.1284 122.327 87.1284C123.823 87.1284 124.887 86.4861 125.52 85.2013H129.863C129.403 86.7353 128.521 88.0009 127.217 88.998C125.913 89.976 124.312 90.4649 122.413 90.4649C120.879 90.4649 119.499 90.1294 118.271 89.4582C117.063 88.7679 116.114 87.7996 115.424 86.5532C114.753 85.3068 114.417 83.8686 114.417 82.2387C114.417 80.5897 114.753 79.1419 115.424 77.8955C116.095 76.6491 117.035 75.6904 118.243 75.0192C119.451 74.3481 120.841 74.0125 122.413 74.0125C123.928 74.0125 125.28 74.3385 126.469 74.9905C127.677 75.6424 128.607 76.5724 129.259 77.7805C129.93 78.9694 130.265 80.3404 130.265 81.8936ZM126.095 80.7431C126.076 79.7076 125.702 78.8831 124.973 78.2695C124.244 77.6367 123.353 77.3203 122.298 77.3203C121.301 77.3203 120.457 77.6271 119.767 78.2407C119.096 78.8351 118.684 79.6692 118.53 80.7431H126.095ZM137.231 76.745C137.749 75.9013 138.42 75.2398 139.245 74.7604C140.089 74.281 141.047 74.0413 142.121 74.0413V78.2695H141.057C139.791 78.2695 138.833 78.5667 138.181 79.1611C137.548 79.7555 137.231 80.791 137.231 82.2675V90.2061H133.205V74.2714H137.231V76.745ZM149.522 77.5791V85.2876C149.522 85.8245 149.646 86.2176 149.896 86.4669C150.164 86.697 150.605 86.812 151.219 86.812H153.088V90.2061H150.557C147.163 90.2061 145.466 88.557 145.466 85.2588V77.5791H143.568V74.2714H145.466V70.3309H149.522V74.2714H153.088V77.5791H149.522Z" fill="white"/>
<circle cx="174" cy="13.2061" r="13" fill="#FF7B00"/>
<circle cx="174" cy="42.2061" r="13" fill="#FFC300"/>
<circle cx="174" cy="71.2061" r="13" fill="#FFC300"/>
<circle cx="202" cy="13.2061" r="13" fill="#FF7B00"/>
<circle cx="202" cy="42.2061" r="13" fill="#FFC300"/>
<circle cx="230" cy="13.2061" r="13" fill="#FF7B00"/>
</svg>
