<svg width="85" height="92" viewBox="0 0 85 92" fill="none" xmlns="http://www.w3.org/2000/svg">
<path d="M1.48089 32.579C1.08813 32.579 0.711464 32.7351 0.433743 33.0128C0.156022 33.2905 0 33.6672 0 34.0599V39.9835C0 40.3763 0.156022 40.7529 0.433743 41.0306C0.711464 41.3084 1.08813 41.4644 1.48089 41.4644H4.70979C5.17419 43.4769 5.94431 45.4064 6.99333 47.1856L3.3955 50.7835C3.25798 50.921 3.14889 51.0842 3.07446 51.2639C3.00004 51.4436 2.96173 51.6362 2.96173 51.8306C2.96173 52.0251 3.00004 52.2177 3.07446 52.3974C3.14889 52.577 3.25798 52.7403 3.3955 52.8778L7.83818 57.3205C7.97569 57.458 8.13895 57.5671 8.31862 57.6415C8.4983 57.7159 8.69087 57.7543 8.88535 57.7543C9.07983 57.7543 9.27241 57.7159 9.45208 57.6415C9.63176 57.5671 9.79501 57.458 9.93253 57.3205L13.5304 53.7227C15.3096 54.7717 17.239 55.5418 19.2516 56.0062V60.716C19.2516 61.1087 19.4076 61.4854 19.6853 61.7631C19.9631 62.0409 20.3397 62.1969 20.7325 62.1969H25.9249C26.8734 65.8758 28.693 69.2726 31.2303 72.1004C33.7675 74.9283 36.9478 77.1042 40.5028 78.4446C44.0578 79.785 47.883 80.2504 51.6557 79.8016C55.4283 79.3528 59.0376 78.003 62.1789 75.8661L76.8266 90.5136C77.2392 90.9261 77.729 91.2534 78.268 91.4766C78.807 91.6999 79.3847 91.8148 79.9682 91.8148C80.5516 91.8148 81.1293 91.6999 81.6683 91.4766C82.2074 91.2534 82.6971 90.9261 83.1097 90.5136C83.5222 90.101 83.8495 89.6112 84.0728 89.0722C84.296 88.5332 84.4109 87.9555 84.4109 87.372C84.4109 86.7886 84.296 86.2109 84.0728 85.6719C83.8495 85.1328 83.5222 84.6431 83.1097 84.2305L68.462 69.5828C71.7094 64.8134 73.1014 59.0214 72.376 53.2972C71.6506 47.5729 68.8578 42.3113 64.5234 38.5026H66.6401C67.0329 38.5026 67.4096 38.3466 67.6873 38.0689C67.965 37.7911 68.121 37.4145 68.121 37.0217V31.3684C68.4129 30.5946 72.5637 19.5701 72.5637 19.251C72.5637 15.9945 71.6454 13.4252 69.8344 11.614C68.0235 9.80292 65.4539 8.88477 62.1975 8.88477C58.941 8.88477 56.3716 9.8031 54.5605 11.614C52.7494 13.425 51.8312 15.9945 51.8312 19.251C51.8312 19.4285 56.2739 31.3666 56.2739 31.3666V33.765C53.8847 32.9776 51.385 32.5772 48.8694 32.579H42.6787C42.2144 30.5665 41.4442 28.637 40.3952 26.8578L43.993 23.26C44.1306 23.1225 44.2397 22.9592 44.3141 22.7795C44.3885 22.5998 44.4268 22.4073 44.4268 22.2128C44.4268 22.0183 44.3885 21.8257 44.3141 21.6461C44.2397 21.4664 44.1306 21.3031 43.993 21.1656L39.5504 16.7229C39.4128 16.5854 39.2496 16.4763 39.0699 16.4019C38.8902 16.3275 38.6977 16.2892 38.5032 16.2892C38.3087 16.2892 38.1161 16.3275 37.9365 16.4019C37.7568 16.4763 37.5935 16.5854 37.456 16.7229L33.8582 20.3208C32.079 19.2717 30.1495 18.5016 28.1369 18.0372V13.3274C28.1369 12.9347 27.9809 12.558 27.7032 12.2803C27.4255 12.0026 27.0488 11.8465 26.6561 11.8465H20.7325C20.3397 11.8465 19.9631 12.0026 19.6853 12.2803C19.4076 12.558 19.2516 12.9347 19.2516 13.3274V18.0372C17.239 18.5016 15.3096 19.2717 13.5304 20.3208L9.93253 16.7229C9.79501 16.5854 9.63176 16.4763 9.45208 16.4019C9.27241 16.3275 9.07983 16.2892 8.88535 16.2892C8.69087 16.2892 8.4983 16.3275 8.31862 16.4019C8.13895 16.4763 7.97569 16.5854 7.83818 16.7229L3.3955 21.1656C3.25798 21.3031 3.14889 21.4664 3.07446 21.6461C3.00004 21.8257 2.96173 22.0183 2.96173 22.2128C2.96173 22.4073 3.00004 22.5998 3.07446 22.7795C3.14889 22.9592 3.25798 23.1225 3.3955 23.26L6.99333 26.8578C5.94431 28.637 5.17419 30.5665 4.70979 32.579H1.48089ZM81.0153 86.325C81.1561 86.4618 81.2684 86.6252 81.3455 86.8057C81.4225 86.9862 81.463 87.1803 81.4644 87.3766C81.4658 87.5729 81.4282 87.7675 81.3538 87.9491C81.2793 88.1307 81.1695 88.2957 81.0307 88.4345C80.8918 88.5733 80.7268 88.6831 80.5452 88.7576C80.3636 88.832 80.169 88.8696 79.9727 88.8682C79.7764 88.8667 79.5823 88.8263 79.4018 88.7492C79.2213 88.6721 79.0579 88.5598 78.9212 88.419L64.535 74.0333C65.2757 73.3792 65.9751 72.6798 66.6292 71.9391L81.0153 86.325ZM54.7954 18.9889C54.8831 14.2491 57.3725 11.8465 62.1975 11.8465C67.0289 11.8465 69.5179 14.2548 69.5997 19.0061C69.1834 20.1495 67.1596 25.5268 65.6163 29.6173H58.7809L54.7954 18.9889ZM59.2357 32.579H65.1592V35.5408H60.3293C59.9704 35.3416 59.6059 35.1514 59.2357 34.9701V32.579ZM69.6019 56.2733C69.6019 60.3732 68.3863 64.381 66.1088 67.7902C63.8314 71.1993 60.5942 73.8566 56.8067 75.4263C53.0192 76.9959 48.8513 77.4073 44.83 76.6085C40.8086 75.8096 37.1144 73.8365 34.2144 70.9384C31.3143 68.0404 29.3386 64.3475 28.5371 60.3267C27.7355 56.306 28.144 52.1378 29.711 48.3492C31.278 44.5606 33.9331 41.3216 37.3407 39.0418C40.7483 36.762 44.7553 35.5436 48.8552 35.5408H48.8694C54.3661 35.547 59.6359 37.7333 63.5226 41.6201C67.4094 45.5068 69.5957 50.7766 69.6019 56.2733ZM23.6943 44.4262C22.2298 44.4262 20.7982 43.9919 19.5806 43.1783C18.3629 42.3647 17.4139 41.2083 16.8534 39.8553C16.293 38.5023 16.1464 37.0135 16.4321 35.5772C16.7178 34.1408 17.423 32.8215 18.4585 31.786C19.4941 30.7504 20.8134 30.0452 22.2497 29.7595C23.6861 29.4738 25.1748 29.6205 26.5278 30.1809C27.8808 30.7413 29.0372 31.6904 29.8509 32.908C30.6645 34.1257 31.0987 35.5572 31.0987 37.0217C31.0965 38.9848 30.3157 40.8669 28.9276 42.255C27.5394 43.6431 25.6574 44.424 23.6943 44.4262ZM7.38428 34.3037C7.79121 31.8686 8.71716 29.5494 10.0993 27.5036C10.2986 27.2185 10.3911 26.8722 10.3607 26.5257C10.3302 26.1791 10.1787 25.8543 9.93271 25.6083L6.53684 22.2128L8.88535 19.8643L12.2809 23.26C12.5269 23.506 12.8517 23.6575 13.1982 23.6879C13.5448 23.7184 13.891 23.6259 14.1762 23.4266C16.222 22.0444 18.5411 21.1185 20.9763 20.7115C21.322 20.6538 21.636 20.4754 21.8625 20.208C22.089 19.9406 22.2133 19.6015 22.2134 19.251V14.8083H25.1752V19.251C25.1752 19.6015 25.2995 19.9406 25.526 20.2081C25.7525 20.4756 26.0665 20.654 26.4123 20.7117C28.8474 21.1187 31.1666 22.0446 33.2123 23.4268C33.4975 23.626 33.8437 23.7186 34.1903 23.6881C34.5369 23.6576 34.8617 23.5061 35.1077 23.2602L38.5032 19.8643L40.8517 22.2128L37.456 25.6083C37.21 25.8543 37.0585 26.1791 37.0281 26.5257C36.9976 26.8722 37.0901 27.2185 37.2894 27.5036C38.6709 29.5485 39.5967 31.8666 40.0039 34.3006C37.8499 35.1737 35.8361 36.3588 34.0268 37.8177C34.047 37.5543 34.0605 37.2892 34.0605 37.0208C34.0615 34.8186 33.3614 32.6734 32.0617 30.8957C30.762 29.118 28.9302 27.8001 26.8316 27.133C24.7329 26.4659 22.4764 26.4841 20.3888 27.1851C18.3012 27.886 16.4909 29.2333 15.2201 31.0318C13.9493 32.8303 13.284 34.9866 13.3206 37.1884C13.3571 39.3902 14.0936 41.5233 15.4233 43.2786C16.7531 45.0339 18.607 46.3204 20.7167 46.9517C22.8264 47.5831 25.0823 47.5264 27.1577 46.79C25.8469 49.7796 25.1718 53.009 25.1752 56.2733C25.1753 57.2635 25.2371 58.2526 25.3603 59.2351H22.2134V54.7924C22.2134 54.4419 22.0891 54.1028 21.8626 53.8353C21.636 53.5679 21.322 53.3894 20.9763 53.3317C18.5411 52.9248 16.222 51.9988 14.1762 50.6167C13.891 50.4174 13.5448 50.3248 13.1982 50.3553C12.8517 50.3858 12.5269 50.5373 12.2809 50.7833L8.88535 54.1791L6.53684 51.8306L9.93253 48.4351C10.1785 48.1891 10.33 47.8643 10.3605 47.5177C10.3909 47.1712 10.2984 46.8249 10.0991 46.5398C8.71698 44.494 7.79103 42.1749 7.3841 39.7397C7.3264 39.394 7.14798 39.08 6.88055 38.8535C6.61313 38.627 6.27403 38.5026 5.92357 38.5026H2.96178V35.5408H5.92357C6.27406 35.5408 6.6132 35.4165 6.88067 35.19C7.14813 34.9635 7.32658 34.6494 7.38428 34.3037Z" fill="#B6CCFF"/>
<path d="M46.0641 8.2228C45.8884 8.57408 45.8595 8.98074 45.9837 9.35333C46.1079 9.72592 46.375 10.0339 46.7262 10.2096L49.688 11.6905C49.8621 11.7793 50.0521 11.8327 50.247 11.8477C50.4418 11.8627 50.6377 11.839 50.8234 11.7779C51.0091 11.7169 51.1808 11.6196 51.3287 11.4919C51.4766 11.3641 51.5978 11.2083 51.6852 11.0335C51.7726 10.8587 51.8245 10.6683 51.838 10.4734C51.8515 10.2784 51.8263 10.0827 51.7637 9.89749C51.7012 9.71232 51.6027 9.54135 51.4738 9.39444C51.3449 9.24753 51.1881 9.1276 51.0127 9.04155L48.0509 7.56066C47.6996 7.38501 47.2929 7.35609 46.9203 7.48027C46.5478 7.60444 46.2397 7.87154 46.0641 8.2228Z" fill="#B6CCFF"/>
<path d="M60.7166 1.48089V4.44268C60.7166 4.83543 60.8726 5.2121 61.1503 5.48982C61.428 5.76755 61.8047 5.92357 62.1975 5.92357C62.5902 5.92357 62.9669 5.76755 63.2446 5.48982C63.5223 5.2121 63.6784 4.83543 63.6784 4.44268V1.48089C63.6784 1.08813 63.5223 0.711464 63.2446 0.433743C62.9669 0.156022 62.5902 0 62.1975 0C61.8047 0 61.428 0.156022 61.1503 0.433743C60.8726 0.711464 60.7166 1.08813 60.7166 1.48089Z" fill="#B6CCFF"/>
<path d="M52.6498 1.63683C52.2985 1.8125 52.0314 2.12051 51.9073 2.4931C51.7831 2.8657 51.812 3.27236 51.9877 3.62363L53.4686 6.58541C53.5546 6.7609 53.6745 6.91761 53.8214 7.04652C53.9683 7.17543 54.1393 7.27398 54.3245 7.3365C54.5097 7.39902 54.7054 7.42426 54.9004 7.41077C55.0953 7.39729 55.2857 7.34534 55.4605 7.25793C55.6353 7.17051 55.7911 7.04936 55.9189 6.90145C56.0466 6.75354 56.1439 6.58181 56.2049 6.39615C56.266 6.21049 56.2897 6.01458 56.2747 5.81971C56.2597 5.62485 56.2063 5.43488 56.1175 5.26076L54.6366 2.29897C54.4609 1.94771 54.1529 1.68061 53.7803 1.55644C53.4077 1.43226 53.0011 1.46118 52.6498 1.63683Z" fill="#B6CCFF"/>
<path d="M69.7584 2.29959L68.2775 5.26138C68.1887 5.4355 68.1353 5.62547 68.1203 5.82034C68.1053 6.0152 68.129 6.21111 68.19 6.39677C68.2511 6.58243 68.3483 6.75416 68.4761 6.90207C68.6039 7.04998 68.7596 7.17113 68.9344 7.25855C69.1092 7.34596 69.2996 7.39791 69.4946 7.4114C69.6896 7.42488 69.8853 7.39964 70.0705 7.33712C70.2557 7.2746 70.4266 7.17605 70.5735 7.04714C70.7204 6.91823 70.8404 6.76152 70.9264 6.58603L72.4073 3.62425C72.4961 3.45013 72.5495 3.26016 72.5645 3.06529C72.5795 2.87042 72.5558 2.67451 72.4947 2.48886C72.4337 2.3032 72.3365 2.13146 72.2087 1.98356C72.0809 1.83565 71.9252 1.7145 71.7504 1.62708C71.5755 1.53967 71.3852 1.48772 71.1902 1.47423C70.9952 1.46075 70.7995 1.48599 70.6143 1.54851C70.4291 1.61102 70.2582 1.70958 70.1113 1.83849C69.9644 1.9674 69.8444 2.12411 69.7584 2.29959Z" fill="#B6CCFF"/>
<path d="M76.344 7.56002L73.3822 9.04091C73.2067 9.12696 73.05 9.2469 72.9211 9.3938C72.7922 9.54071 72.6937 9.71168 72.6311 9.89686C72.5686 10.082 72.5434 10.2778 72.5569 10.4727C72.5704 10.6677 72.6223 10.8581 72.7097 11.0329C72.7971 11.2077 72.9183 11.3635 73.0662 11.4912C73.2141 11.619 73.3858 11.7162 73.5715 11.7773C73.7572 11.8384 73.9531 11.8621 74.1479 11.8471C74.3428 11.8321 74.5328 11.7786 74.7069 11.6899L77.6687 10.209C77.8442 10.1229 78.0009 10.003 78.1298 9.85608C78.2587 9.70917 78.3572 9.5382 78.4198 9.35302C78.4823 9.16785 78.5075 8.97213 78.494 8.77715C78.4805 8.58217 78.4286 8.39179 78.3412 8.21698C78.2538 8.04217 78.1326 7.8864 77.9847 7.75864C77.8368 7.63088 77.6651 7.53366 77.4794 7.47259C77.2938 7.41152 77.0978 7.3878 76.903 7.40281C76.7081 7.41781 76.5181 7.47125 76.344 7.56002Z" fill="#B6CCFF"/>
<path d="M31.0988 56.2746C31.0988 59.7893 32.141 63.2251 34.0937 66.1475C36.0463 69.0699 38.8217 71.3476 42.0689 72.6926C45.3161 74.0376 48.8892 74.3895 52.3363 73.7039C55.7835 73.0182 58.95 71.3257 61.4352 68.8404C63.9205 66.3551 65.613 63.1887 66.2987 59.7415C66.9844 56.2943 66.6325 52.7212 65.2874 49.4741C63.9424 46.2269 61.6647 43.4515 58.7423 41.4988C55.82 39.5461 52.3842 38.5039 48.8695 38.5039C44.158 38.5092 39.641 40.3832 36.3095 43.7147C32.978 47.0462 31.104 51.5631 31.0988 56.2746ZM63.6784 56.2746C63.6784 59.2035 62.8098 62.0667 61.1826 64.502C59.5554 66.9373 57.2426 68.8354 54.5366 69.9563C51.8306 71.0771 48.853 71.3704 45.9804 70.799C43.1077 70.2276 40.469 68.8172 38.398 66.7461C36.3269 64.675 34.9165 62.0363 34.3451 59.1637C33.7737 56.291 34.0669 53.3135 35.1878 50.6075C36.3087 47.9015 38.2067 45.5887 40.6421 43.9614C43.0774 42.3342 45.9405 41.4657 48.8695 41.4657C52.7957 41.4701 56.5598 43.0318 59.336 45.808C62.1123 48.5843 63.6739 52.3484 63.6784 56.2746Z" fill="#B6CCFF"/>
<path d="M39.9841 56.2739C39.9841 55.8811 39.8281 55.5044 39.5504 55.2267C39.2726 54.949 38.896 54.793 38.5032 54.793C38.1105 54.793 37.7338 54.949 37.4561 55.2267C37.1783 55.5044 37.0223 55.8811 37.0223 56.2739C37.0258 59.4148 38.2752 62.4262 40.4962 64.6472C42.7172 66.8682 45.7285 68.1175 48.8695 68.121C49.2622 68.121 49.6389 67.965 49.9166 67.6873C50.1943 67.4095 50.3503 67.0329 50.3503 66.6401C50.3503 66.2473 50.1943 65.8707 49.9166 65.593C49.6389 65.3152 49.2622 65.1592 48.8695 65.1592C46.5137 65.1566 44.2552 64.2196 42.5894 62.5539C40.9237 60.8881 39.9867 58.6296 39.9841 56.2739Z" fill="#B6CCFF"/>
</svg>
