<svg width="95" height="91" viewBox="0 0 95 91" fill="none" xmlns="http://www.w3.org/2000/svg">
<path d="M17.3196 8.00977C13.8665 8.00977 11.0573 10.8181 11.0573 14.2697C11.0573 17.7213 13.8665 20.5296 17.3196 20.5296C20.7754 20.5296 23.5871 17.7213 23.5871 14.2697C23.5871 10.8181 20.7754 8.00977 17.3196 8.00977ZM17.3196 16.7963C15.9251 16.7963 14.7908 15.6628 14.7908 14.2697C14.7908 12.8765 15.9251 11.7433 17.3196 11.7433C18.7168 11.7433 19.8537 12.8767 19.8537 14.2699C19.8537 15.663 18.7168 16.7963 17.3196 16.7963Z" fill="#B6CCFF"/>
<path d="M72.0758 8.00977H55.5214C52.0683 8.00977 49.2591 10.8181 49.2591 14.2697C49.2591 17.7213 52.0683 20.5296 55.5214 20.5296H72.0758C75.5288 20.5296 78.3381 17.7213 78.3381 14.2697C78.3381 10.8181 75.5288 8.00977 72.0758 8.00977ZM72.0758 16.7963H55.5214C54.127 16.7963 52.9926 15.6628 52.9926 14.2697C52.9926 12.8765 54.1272 11.7431 55.5214 11.7431H72.0758C73.4702 11.7431 74.6046 12.8765 74.6046 14.2697C74.6046 15.6628 73.4702 16.7963 72.0758 16.7963Z" fill="#B6CCFF"/>
<path d="M33.5487 8.00977C30.0956 8.00977 27.2864 10.8181 27.2864 14.2697C27.2864 17.7213 30.0956 20.5296 33.5487 20.5296C37.0045 20.5296 39.8162 17.7213 39.8162 14.2697C39.8162 10.8181 37.0045 8.00977 33.5487 8.00977ZM33.5487 16.7963C32.1543 16.7963 31.0199 15.6628 31.0199 14.2697C31.0199 12.8765 32.1544 11.7431 33.5487 11.7431C34.9459 11.7431 36.0829 12.8765 36.0829 14.2697C36.0829 15.6628 34.9459 16.7963 33.5487 16.7963Z" fill="#B6CCFF"/>
<path d="M30.505 38.956C29.5026 38.7159 28.495 39.3347 28.2555 40.3377L24.5521 55.8348C24.3126 56.8376 24.9311 57.8448 25.9338 58.0843C26.0797 58.1191 26.2257 58.136 26.3694 58.136C27.2133 58.136 27.9785 57.5595 28.1833 56.7026L31.8866 41.2055C32.1263 40.2027 31.5077 39.1957 30.505 38.956Z" fill="#B6CCFF"/>
<path d="M37.3583 56.2631C37.7141 56.5801 38.1576 56.7359 38.5993 56.7359C39.1133 56.7359 39.6252 56.5249 39.9941 56.1108L45.2287 50.2346C46.0924 49.2731 46.0924 47.7674 45.234 46.8121L39.9939 40.9298C39.3079 40.1597 38.1278 40.092 37.3583 40.7775C36.5882 41.4633 36.5201 42.6434 37.2059 43.4131L41.7554 48.5201L37.2059 53.6273C36.5203 54.3974 36.5884 55.5775 37.3583 56.2631Z" fill="#B6CCFF"/>
<path d="M19.0806 40.7774C18.3105 40.0916 17.1308 40.1603 16.445 40.9298L11.211 46.8054C10.3461 47.767 10.3461 49.2735 11.205 50.2285L16.4452 56.1108C16.8141 56.525 17.3257 56.7359 17.84 56.7359C18.2817 56.7359 18.7254 56.58 19.081 56.2631C19.851 55.5773 19.9192 54.3972 19.2333 53.6275L14.6838 48.5204L19.2333 43.4132C19.9188 42.6432 19.8507 41.4631 19.0806 40.7774Z" fill="#B6CCFF"/>
<path d="M90.5919 60.6307H89.8988C89.5358 59.4549 89.0655 58.3197 88.4916 57.235L88.9862 56.7387C89.7761 55.9536 90.212 54.9054 90.2137 53.7869C90.2154 52.6659 89.7809 51.6133 88.9901 50.8227L88.0264 49.8596V10.0976C88.0264 4.52968 84.0973 0 79.2673 0H8.7591C3.92918 0 0 4.52968 0 10.0976V62.2719C0 67.8398 3.92918 72.3695 8.7591 72.3695H19.7114C20.7423 72.3695 21.5781 71.5337 21.5781 70.5029C21.5781 69.472 20.7423 68.6362 19.7114 68.6362H8.7591C6.035 68.6362 3.73351 65.7216 3.73351 62.2721V28.4052H84.2927V47.269C84.08 47.2362 83.8646 47.2147 83.6452 47.2147C83.643 47.2147 83.6408 47.2147 83.6387 47.2147C82.5203 47.2166 81.472 47.652 80.6931 48.4352L80.1884 48.9376C79.0809 48.3524 77.9275 47.8765 76.7381 47.5131V46.8482C76.7381 44.541 74.8607 42.6641 72.553 42.6641H69.1749C66.87 42.6641 64.995 44.541 64.995 46.8482V47.5587C63.8281 47.9254 62.7013 48.3972 61.6244 48.9703L61.1408 48.4883C60.3556 47.6992 59.3071 47.2634 58.1887 47.2617C58.1866 47.2617 58.1846 47.2617 58.1824 47.2617C57.0638 47.2617 56.0134 47.6958 55.2243 48.4844L52.8377 50.8699C52.0469 51.6604 51.6124 52.7131 51.6141 53.8339C51.6157 54.9524 52.0515 56.0007 52.8354 56.7796L53.351 57.2966C52.7914 58.3647 52.3318 59.4789 51.9762 60.6303H51.2672C48.9622 60.6303 47.0872 62.5047 47.0872 64.809V68.1904C47.0872 68.3408 47.0955 68.4892 47.1111 68.6355H36.2496C35.2188 68.6355 34.383 69.4712 34.383 70.5021C34.383 71.533 35.2188 72.3688 36.2496 72.3688H51.267H51.9832C52.3442 73.5311 52.8108 74.6542 53.38 75.7293L52.8756 76.2315C51.2516 77.8642 51.2531 80.5148 52.8795 82.1399L55.2674 84.5269C56.0527 85.316 57.1012 85.7518 58.2196 85.7535H58.2257C59.3445 85.7535 60.3948 85.3194 61.184 84.5306L61.684 84.031C62.7687 84.6028 63.8966 85.07 65.0576 85.429V86.1514C65.0576 88.4587 66.9326 90.3355 69.2376 90.3355H72.6209C74.9257 90.3355 76.8007 88.4587 76.8007 86.1514V85.4334C77.9727 85.0719 79.1052 84.6028 80.1886 84.0308L80.6864 84.5267C81.4715 85.316 82.5197 85.7516 83.6382 85.7535H83.6447C84.7633 85.7535 85.8136 85.3194 86.6042 84.5293L88.9857 82.1438C89.7756 81.3587 90.2115 80.3104 90.2132 79.192C90.2148 78.071 89.7804 77.0184 88.9894 76.2278L88.4912 75.7299C89.0594 74.6538 89.5257 73.53 89.8861 72.369H90.5915C92.8993 72.369 94.7767 70.4945 94.7767 68.1904V64.809C94.7771 62.5051 92.8997 60.6307 90.5919 60.6307ZM3.73351 24.6717V10.0976C3.73351 6.64809 6.035 3.73351 8.7591 3.73351H79.2673C81.9914 3.73351 84.2929 6.64809 84.2929 10.0976V24.6718L3.73351 24.6717ZM91.0436 68.1908C91.0436 68.4279 90.8325 68.6358 90.5917 68.6358H88.457C87.5866 68.6358 86.8317 69.2373 86.6374 70.0856C86.2342 71.8451 85.5417 73.5137 84.5789 75.0455C84.1152 75.7832 84.2235 76.7435 84.8399 77.3594L86.3504 78.869C86.4633 78.9819 86.48 79.1167 86.48 79.187C86.4798 79.271 86.458 79.393 86.349 79.5011L83.964 81.8904C83.8509 82.0033 83.7159 82.0203 83.6448 82.0203C83.6447 82.0203 83.6445 82.0203 83.6445 82.0203C83.5597 82.0203 83.4373 81.9983 83.3279 81.8881L81.8119 80.3784C81.1953 79.7644 80.2368 79.6579 79.5006 80.1207C77.9665 81.0857 76.2909 81.7793 74.52 82.1823C73.6705 82.3759 73.0676 83.1312 73.0676 84.0027V86.152C73.0676 86.3919 72.859 86.6026 72.6213 86.6026H69.238C69.0001 86.6026 68.7915 86.3921 68.7915 86.152V83.9973C68.7915 83.1251 68.1873 82.3689 67.3365 82.1765C65.5881 81.7811 63.9155 81.0886 62.3654 80.1187C62.0599 79.9274 61.7167 79.8341 61.3756 79.8341C60.8933 79.8341 60.4154 80.0206 60.0553 80.3808L58.545 81.8904C58.4319 82.0033 58.297 82.0203 58.2259 82.0203C58.2257 82.0203 58.2255 82.0203 58.2253 82.0203C58.1407 82.0203 58.0182 81.9983 57.911 81.8905L55.5192 79.4998C55.3517 79.3325 55.3535 79.0359 55.517 78.8716L57.0328 77.3618C57.6522 76.745 57.7605 75.7813 57.2939 75.0423C56.3296 73.5155 55.6362 71.8481 55.2326 70.0862C55.0383 69.2378 54.2834 68.6362 53.4128 68.6362H51.2674C51.0254 68.6362 50.8209 68.4324 50.8209 68.1912V64.8098C50.8209 64.5686 51.0254 64.3646 51.2674 64.3646H53.4074C54.2788 64.3646 55.0344 63.7617 55.2278 62.9122C55.6262 61.1616 56.3107 59.5009 57.2624 57.976C57.7218 57.2398 57.6134 56.2841 57.0005 55.6695L55.4733 54.1379C55.3696 54.035 55.3478 53.913 55.3476 53.8289C55.3476 53.7586 55.3643 53.6238 55.4772 53.5111L57.8636 51.1258C57.9767 51.0128 58.1117 50.9958 58.1828 50.9958H58.1833C58.2679 50.996 58.3905 51.0178 58.4999 51.128L60.0052 52.6274C60.6236 53.2432 61.5857 53.3488 62.322 52.8815C63.8474 51.9145 65.518 51.2141 67.2873 50.8C68.1314 50.6024 68.7284 49.8494 68.7284 48.9823V46.8488C68.7284 46.6046 68.9327 46.3982 69.1747 46.3982H72.5528C72.7977 46.3982 73.0046 46.6046 73.0046 46.8488V48.9509C73.0046 49.8255 73.6118 50.5828 74.4657 50.7729C76.2419 51.1685 77.9364 51.8671 79.5022 52.8495C80.2381 53.3108 81.1956 53.2042 81.8117 52.5907L83.3339 51.0747C83.4371 50.9708 83.5595 50.949 83.6441 50.9488H83.6447C83.7157 50.9488 83.8507 50.9658 83.9636 51.0787L86.3502 53.4639C86.4632 53.5768 86.4798 53.7116 86.4798 53.7819C86.4796 53.866 86.4578 53.9879 86.348 54.097L84.8373 55.6121C84.2222 56.2291 84.1156 57.1895 84.5804 57.9262C85.5469 59.4584 86.2421 61.1362 86.6472 62.9129C86.8408 63.7622 87.596 64.3647 88.4674 64.3647H90.5917C90.8324 64.3647 91.0436 64.573 91.0436 64.8099V68.1908Z" fill="#B6CCFF"/>
<path d="M70.9323 55.0996C64.6419 55.0996 59.5243 60.215 59.5243 66.5027C59.5243 72.7874 64.6419 77.9005 70.9323 77.9005C77.22 77.9005 82.3352 72.7876 82.3352 66.5027C82.3352 60.2152 77.22 55.0996 70.9323 55.0996ZM70.9323 74.167C66.7007 74.167 63.2578 70.7288 63.2578 66.5027C63.2578 62.2736 66.7007 58.8331 70.9323 58.8331C75.1612 58.8331 78.6017 62.2736 78.6017 66.5027C78.6017 70.7288 75.161 74.167 70.9323 74.167Z" fill="#B6CCFF"/>
<path d="M28.0359 68.6367H27.9992C26.9683 68.6367 26.1326 69.4725 26.1326 70.5034C26.1326 71.5343 26.9683 72.37 27.9992 72.37H28.0359C29.0668 72.37 29.9025 71.5343 29.9025 70.5034C29.9025 69.4725 29.0668 68.6367 28.0359 68.6367Z" fill="#B6CCFF"/>
</svg>
