<svg width="54" height="54" viewBox="0 0 54 54" fill="none" xmlns="http://www.w3.org/2000/svg">
<path d="M49.7812 1.6875H4.21875C3.54804 1.6895 2.90537 1.95683 2.4311 2.4311C1.95683 2.90537 1.6895 3.54804 1.6875 4.21875V39.6562C1.6895 40.327 1.95683 40.9696 2.4311 41.4439C2.90537 41.9182 3.54804 42.1855 4.21875 42.1875H32.0625V48.0938C32.0625 49.2126 32.507 50.2857 33.2981 51.0769C34.0893 51.868 35.1624 52.3125 36.2812 52.3125H48.0938C49.2126 52.3125 50.2857 51.868 51.0769 51.0769C51.868 50.2857 52.3125 49.2126 52.3125 48.0938V4.21875C52.3105 3.54804 52.0432 2.90537 51.5689 2.4311C51.0946 1.95683 50.452 1.6895 49.7812 1.6875ZM50.625 48.0938C50.623 48.7645 50.3557 49.4071 49.8814 49.8814C49.4071 50.3557 48.7645 50.623 48.0938 50.625H36.2812C35.6105 50.623 34.9679 50.3557 34.4936 49.8814C34.0193 49.4071 33.752 48.7645 33.75 48.0938V47.25H50.625V48.0938ZM50.625 45.5625H33.75V27H50.625V45.5625ZM50.625 25.3125H33.75V24.4688C33.752 23.798 34.0193 23.1554 34.4936 22.6811C34.9679 22.2068 35.6105 21.9395 36.2812 21.9375H48.0938C48.7645 21.9395 49.4071 22.2068 49.8814 22.6811C50.3557 23.1554 50.623 23.798 50.625 24.4688V25.3125ZM50.625 21.1191C49.9002 20.5581 49.0103 20.2526 48.0938 20.25H36.2812C35.1624 20.25 34.0893 20.6945 33.2981 21.4856C32.507 22.2768 32.0625 23.3499 32.0625 24.4688V40.5H4.21875C3.99497 40.5 3.78036 40.4111 3.62213 40.2529C3.46389 40.0946 3.375 39.88 3.375 39.6562V10.125H50.625V21.1191ZM50.625 8.4375H3.375V4.21875C3.375 3.99497 3.46389 3.78036 3.62213 3.62213C3.78036 3.46389 3.99497 3.375 4.21875 3.375H49.7812C50.005 3.375 50.2196 3.46389 50.3779 3.62213C50.5361 3.78036 50.625 3.99497 50.625 4.21875V8.4375Z" fill="white"/>
<path d="M6.75 5.0625H5.90625C5.68247 5.0625 5.46786 5.1514 5.30963 5.30963C5.1514 5.46786 5.0625 5.68247 5.0625 5.90625C5.0625 6.13003 5.1514 6.34464 5.30963 6.50287C5.46786 6.66111 5.68247 6.75 5.90625 6.75H6.75C6.97378 6.75 7.18839 6.66111 7.34662 6.50287C7.50485 6.34464 7.59375 6.13003 7.59375 5.90625C7.59375 5.68247 7.50485 5.46786 7.34662 5.30963C7.18839 5.1514 6.97378 5.0625 6.75 5.0625Z" fill="white"/>
<path d="M10.125 5.0625H9.28125C9.05747 5.0625 8.84286 5.1514 8.68463 5.30963C8.5264 5.46786 8.4375 5.68247 8.4375 5.90625C8.4375 6.13003 8.5264 6.34464 8.68463 6.50287C8.84286 6.66111 9.05747 6.75 9.28125 6.75H10.125C10.3488 6.75 10.5634 6.66111 10.7216 6.50287C10.8799 6.34464 10.9688 6.13003 10.9688 5.90625C10.9688 5.68247 10.8799 5.46786 10.7216 5.30963C10.5634 5.1514 10.3488 5.0625 10.125 5.0625Z" fill="white"/>
<path d="M13.5 5.0625H12.6562C12.4325 5.0625 12.2179 5.1514 12.0596 5.30963C11.9014 5.46786 11.8125 5.68247 11.8125 5.90625C11.8125 6.13003 11.9014 6.34464 12.0596 6.50287C12.2179 6.66111 12.4325 6.75 12.6562 6.75H13.5C13.7238 6.75 13.9384 6.66111 14.0966 6.50287C14.2549 6.34464 14.3438 6.13003 14.3438 5.90625C14.3438 5.68247 14.2549 5.46786 14.0966 5.30963C13.9384 5.1514 13.7238 5.0625 13.5 5.0625Z" fill="white"/>
<path d="M29.5312 15.1875H5.90625C5.68247 15.1875 5.46786 15.2764 5.30963 15.4346C5.1514 15.5929 5.0625 15.8075 5.0625 16.0312V34.5938C5.0625 34.8175 5.1514 35.0321 5.30963 35.1904C5.46786 35.3486 5.68247 35.4375 5.90625 35.4375H29.5312C29.755 35.4375 29.9696 35.3486 30.1279 35.1904C30.2861 35.0321 30.375 34.8175 30.375 34.5938V16.0312C30.375 15.8075 30.2861 15.5929 30.1279 15.4346C29.9696 15.2764 29.755 15.1875 29.5312 15.1875ZM7.425 33.75L14.3438 22.6884L21.2625 33.75H7.425ZM23.2453 33.75L21.4059 30.7969L23.625 27.6244L27.9113 33.75H23.2453ZM28.6875 31.9191L24.3169 25.6753C24.2391 25.5639 24.1356 25.4729 24.0152 25.4101C23.8947 25.3473 23.7609 25.3145 23.625 25.3145C23.4891 25.3145 23.3553 25.3473 23.2348 25.4101C23.1144 25.4729 23.0109 25.5639 22.9331 25.6753L20.4356 29.2444L15.0609 20.6466C14.979 20.533 14.8713 20.4404 14.7466 20.3766C14.6219 20.3128 14.4838 20.2796 14.3438 20.2796C14.2037 20.2796 14.0656 20.3128 13.9409 20.3766C13.8162 20.4404 13.7085 20.533 13.6266 20.6466L6.75 31.6491V16.875H28.6875V31.9191Z" fill="white"/>
<path d="M21.0937 23.625C21.5944 23.625 22.0838 23.4765 22.5 23.1984C22.9163 22.9203 23.2407 22.5249 23.4323 22.0624C23.6239 21.5999 23.674 21.0909 23.5764 20.5999C23.4787 20.1089 23.2376 19.6579 22.8836 19.3039C22.5296 18.9499 22.0786 18.7088 21.5876 18.6111C21.0966 18.5135 20.5876 18.5636 20.1251 18.7552C19.6626 18.9468 19.2672 19.2712 18.9891 19.6875C18.711 20.1037 18.5625 20.5931 18.5625 21.0938C18.5625 21.7651 18.8292 22.4089 19.3039 22.8836C19.7786 23.3583 20.4224 23.625 21.0937 23.625ZM21.0937 20.25C21.2606 20.25 21.4238 20.2995 21.5625 20.3922C21.7013 20.4849 21.8094 20.6167 21.8733 20.7709C21.9371 20.925 21.9538 21.0947 21.9213 21.2584C21.8887 21.422 21.8084 21.5724 21.6904 21.6904C21.5724 21.8084 21.422 21.8887 21.2584 21.9213C21.0947 21.9538 20.925 21.9371 20.7709 21.8733C20.6167 21.8094 20.4849 21.7013 20.3922 21.5625C20.2995 21.4238 20.25 21.2606 20.25 21.0938C20.25 20.87 20.3389 20.6554 20.4971 20.4971C20.6554 20.3389 20.87 20.25 21.0937 20.25Z" fill="white"/>
<path d="M48.0938 5.0625H18.5625C18.3387 5.0625 18.1241 5.1514 17.9659 5.30963C17.8076 5.46786 17.7188 5.68247 17.7188 5.90625C17.7188 6.13003 17.8076 6.34464 17.9659 6.50287C18.1241 6.66111 18.3387 6.75 18.5625 6.75H48.0938C48.3175 6.75 48.5321 6.66111 48.6904 6.50287C48.8486 6.34464 48.9375 6.13003 48.9375 5.90625C48.9375 5.68247 48.8486 5.46786 48.6904 5.30963C48.5321 5.1514 48.3175 5.0625 48.0938 5.0625Z" fill="white"/>
<path d="M43.0312 48.0938H41.3438C41.12 48.0938 40.9054 48.1826 40.7471 48.3409C40.5889 48.4991 40.5 48.7137 40.5 48.9375C40.5 49.1613 40.5889 49.3759 40.7471 49.5341C40.9054 49.6924 41.12 49.7812 41.3438 49.7812H43.0312C43.255 49.7812 43.4696 49.6924 43.6279 49.5341C43.7861 49.3759 43.875 49.1613 43.875 48.9375C43.875 48.7137 43.7861 48.4991 43.6279 48.3409C43.4696 48.1826 43.255 48.0938 43.0312 48.0938Z" fill="white"/>
<path d="M43.0312 22.7812H41.3438C41.12 22.7812 40.9054 22.8701 40.7471 23.0284C40.5889 23.1866 40.5 23.4012 40.5 23.625C40.5 23.8488 40.5889 24.0634 40.7471 24.2216C40.9054 24.3799 41.12 24.4688 41.3438 24.4688H43.0312C43.255 24.4688 43.4696 24.3799 43.6279 24.2216C43.7861 24.0634 43.875 23.8488 43.875 23.625C43.875 23.4012 43.7861 23.1866 43.6279 23.0284C43.4696 22.8701 43.255 22.7812 43.0312 22.7812Z" fill="white"/>
<path d="M39.4089 32.3095C39.2506 32.1514 39.0361 32.0625 38.8123 32.0625C38.5886 32.0625 38.374 32.1514 38.2158 32.3095L34.8408 35.6845C34.6826 35.8428 34.5938 36.0573 34.5938 36.2811C34.5938 36.5048 34.6826 36.7194 34.8408 36.8776L38.2158 40.2526C38.3749 40.4063 38.5881 40.4913 38.8093 40.4894C39.0305 40.4875 39.2421 40.3988 39.3986 40.2423C39.555 40.0859 39.6437 39.8743 39.6457 39.653C39.6476 39.4318 39.5625 39.2187 39.4089 39.0595L36.6304 36.2811L39.4089 33.5026C39.567 33.3444 39.6559 33.1298 39.6559 32.9061C39.6559 32.6823 39.567 32.4678 39.4089 32.3095Z" fill="white"/>
<path d="M49.5346 35.6841L46.1596 32.3091C46.0005 32.1554 45.7874 32.0704 45.5661 32.0723C45.3449 32.0742 45.1333 32.163 44.9768 32.3194C44.8204 32.4758 44.7317 32.6875 44.7298 32.9087C44.7278 33.1299 44.8129 33.343 44.9666 33.5022L47.745 36.2806L44.9666 39.0591C44.886 39.1369 44.8217 39.2301 44.7775 39.333C44.7333 39.4359 44.71 39.5467 44.709 39.6587C44.708 39.7707 44.7294 39.8818 44.7718 39.9855C44.8142 40.0892 44.8769 40.1834 44.9561 40.2626C45.0353 40.3419 45.1295 40.4045 45.2332 40.4469C45.3369 40.4894 45.448 40.5107 45.5601 40.5097C45.6721 40.5088 45.7828 40.4855 45.8858 40.4413C45.9887 40.397 46.0818 40.3328 46.1596 40.2522L49.5346 36.8772C49.6928 36.719 49.7817 36.5044 49.7817 36.2806C49.7817 36.0569 49.6928 35.8423 49.5346 35.6841Z" fill="white"/>
<path d="M44.1065 29.5637C43.8914 29.5023 43.6608 29.5287 43.4652 29.6373C43.2697 29.7458 43.1252 29.9275 43.0636 30.1425L39.6886 41.955C39.6582 42.0616 39.6491 42.1732 39.6618 42.2833C39.6746 42.3934 39.7089 42.4999 39.7628 42.5967C39.8167 42.6936 39.8891 42.7789 39.976 42.8477C40.0629 42.9165 40.1625 42.9676 40.2691 42.9979C40.3442 43.02 40.422 43.031 40.5003 43.0308C40.6835 43.0307 40.8618 42.971 41.0081 42.8606C41.1543 42.7503 41.2607 42.5953 41.3111 42.4191L44.6861 30.6066C44.7475 30.3914 44.721 30.1607 44.6122 29.9651C44.5035 29.7695 44.3216 29.6252 44.1065 29.5637Z" fill="white"/>
</svg>
