<svg width="49" height="49" viewBox="0 0 49 49" fill="none" xmlns="http://www.w3.org/2000/svg">
<path d="M16.8488 11.3949C16.7094 11.8239 16.8466 12.2838 17.1982 12.5666L20.3294 15.0832L19.2755 18.9598C19.1572 19.395 19.3165 19.8477 19.6817 20.1133C20.047 20.3783 20.5265 20.3899 20.9041 20.1429L24.2651 17.9427L27.6263 20.143C27.8076 20.2616 28.0122 20.3205 28.2164 20.3205C28.4379 20.3205 28.6588 20.2513 28.8485 20.1133C29.2138 19.848 29.3733 19.395 29.2547 18.9598L28.2008 15.0833L31.3318 12.5668C31.6837 12.2841 31.8209 11.8241 31.6814 11.3949C31.542 10.9655 31.1606 10.674 30.7099 10.6522L26.6975 10.4566L25.2715 6.70113C25.1115 6.27926 24.7163 6.00657 24.265 6.00657C23.8138 6.00657 23.4186 6.27916 23.2586 6.70104L21.8326 10.4567L17.8205 10.6522C17.3696 10.674 16.9882 10.9655 16.8488 11.3949ZM22.1941 11.9573C22.6218 11.9365 22.9963 11.6643 23.148 11.2642L24.265 8.32258L25.3819 11.2644C25.5339 11.6645 25.9085 11.9365 26.3358 11.9573L29.4785 12.1106L27.0259 14.0818C26.6921 14.3501 26.5492 14.7904 26.6615 15.2032L27.487 18.2395L24.8543 16.5161C24.6753 16.3989 24.4701 16.3403 24.2649 16.3403C24.0597 16.3403 23.8543 16.399 23.6751 16.5162L21.0426 18.2395L21.8681 15.2034C21.9805 14.7903 21.8375 14.3499 21.5037 14.0818L19.0512 12.1107L22.1941 11.9573ZM23.5067 3.54089V0.758261C23.5067 0.339511 23.8462 0 24.265 0C24.6837 0 25.0232 0.339511 25.0232 0.758261V3.54089C25.0232 3.95964 24.6837 4.29915 24.265 4.29915C23.8462 4.29915 23.5067 3.95964 23.5067 3.54089ZM28.1244 8.0334C27.8442 7.72223 27.8693 7.24272 28.1805 6.96254L31.2813 4.17044C31.5926 3.89016 32.072 3.91528 32.3523 4.22655C32.6325 4.53772 32.6073 5.01722 32.2962 5.2974L29.1953 8.08951C29.0503 8.22003 28.8689 8.28429 28.6881 8.28429C28.4808 8.28429 28.2742 8.19974 28.1244 8.0334ZM16.1776 4.22655C16.4578 3.91528 16.9372 3.89016 17.2486 4.17044L20.3495 6.96254C20.6607 7.24272 20.6858 7.72223 20.4056 8.0334C20.2558 8.19965 20.0492 8.28429 19.8418 8.28429C19.6611 8.28429 19.4797 8.22003 19.3346 8.08951L16.2337 5.2974C15.9225 5.01722 15.8974 4.53772 16.1776 4.22655ZM33.9929 12.5666L37.124 15.0832L36.0701 18.9598C35.9518 19.395 36.1112 19.8477 36.4764 20.1133C36.8414 20.3783 37.321 20.3898 37.6987 20.1429L41.0598 17.9427L44.421 20.143C44.6022 20.2616 44.8068 20.3205 45.0111 20.3205C45.2325 20.3205 45.4534 20.2513 45.6431 20.1133C46.0083 19.8482 46.1677 19.3954 46.0493 18.9598L44.9954 15.0833L48.1264 12.5668C48.4782 12.2842 48.6155 11.8242 48.476 11.3949C48.3365 10.9655 47.9551 10.674 47.5045 10.6522L43.4921 10.4566L42.0663 6.70113C41.9062 6.27926 41.511 6.00657 41.0598 6.00657C40.6084 6.00657 40.2133 6.27916 40.0532 6.70104L38.6274 10.4566L34.6152 10.6521C34.1642 10.6739 33.7828 10.9655 33.6434 11.3949C33.5039 11.8241 33.6411 12.2841 33.9929 12.5666ZM38.9887 11.9573C39.4164 11.9365 39.791 11.6643 39.9429 11.2641L41.0597 8.32248L42.1764 11.264C42.3283 11.6643 42.7029 11.9365 43.1305 11.9572L46.2732 12.1105L43.8209 14.0815C43.487 14.3497 43.3438 14.7901 43.4563 15.2031L44.2817 18.2394L41.649 16.516C41.4699 16.3988 41.2647 16.3402 41.0595 16.3402C40.8542 16.3402 40.6489 16.3989 40.4698 16.5161L37.8374 18.2394L38.6628 15.2033C38.7751 14.7904 38.6322 14.3501 38.2984 14.0817L35.8459 12.1105L38.9887 11.9573ZM0.403423 12.5666L3.53457 15.0832L2.48068 18.9598C2.36239 19.395 2.52172 19.8477 2.88692 20.1133C3.25221 20.3783 3.73172 20.3899 4.10924 20.1429L7.47032 17.9427L10.8315 20.143C11.0127 20.2616 11.2174 20.3205 11.4216 20.3205C11.643 20.3205 11.864 20.2513 12.0536 20.1133C12.4188 19.8482 12.5783 19.3954 12.4599 18.9598L11.406 15.0833L14.5369 12.5668C14.8886 12.2844 15.0259 11.8245 14.8865 11.3944C14.7468 10.9653 14.3654 10.6739 13.9151 10.6521L9.90264 10.4565L8.47682 6.70113C8.31673 6.27926 7.92158 6.00657 7.47032 6.00657C7.01897 6.00657 6.62382 6.27916 6.46373 6.70104L5.03792 10.4566L1.02577 10.6521C0.574885 10.6739 0.19348 10.9655 0.0541492 11.3944C-0.0856553 11.8239 0.0514952 12.284 0.403423 12.5666ZM5.39923 11.9573C5.82698 11.9365 6.20156 11.6643 6.3534 11.2641L7.47023 8.32248L8.58696 11.264C8.73889 11.6643 9.11347 11.9365 9.54104 11.9572L12.6837 12.1105L10.2314 14.0815C9.89752 14.3497 9.7544 14.7901 9.86681 15.2031L10.6923 18.2394L8.05959 16.516C7.88045 16.3988 7.67524 16.3402 7.47004 16.3402C7.26474 16.3402 7.05944 16.3989 6.8804 16.5161L4.2479 18.2394L5.07336 15.2033C5.18568 14.7904 5.04275 14.3501 4.70893 14.0817L2.25642 12.1105L5.39923 11.9573ZM48.41 40.2763C47.8764 38.5533 46.7837 37.0063 45.3329 35.9199C44.6383 35.3998 43.8819 34.9947 43.084 34.7079C44.1903 33.8397 44.903 32.4919 44.903 30.9798C44.903 28.367 42.7773 26.2414 40.1646 26.2414C37.5519 26.2414 35.4262 28.367 35.4262 30.9798C35.4262 32.4901 36.1372 33.8366 37.2413 34.7049C35.7616 35.233 34.4508 36.1609 33.4469 37.4113C32.9778 36.7549 32.4365 36.1453 31.8281 35.5951C30.6022 34.4864 29.1635 33.6722 27.6141 33.191C29.2572 32.1017 30.3434 30.2367 30.3434 28.122C30.3434 24.7705 27.6166 22.0438 24.265 22.0438C20.9135 22.0438 18.1867 24.7705 18.1867 28.122C18.1867 30.2367 19.2728 32.1017 20.9159 33.191C19.3664 33.6721 17.9277 34.4864 16.7018 35.5951C16.0934 36.1453 15.5522 36.7549 15.0831 37.4112C14.0793 36.1607 12.7685 35.2328 11.2887 34.7046C12.3927 33.8363 13.1038 32.4898 13.1038 30.9795C13.1038 28.3667 10.9781 26.2411 8.36545 26.2411C5.75267 26.2411 3.62698 28.3667 3.62698 30.9795C3.62698 32.4915 4.33975 33.8394 5.44586 34.7076C4.64798 34.9944 3.89161 35.3995 3.19695 35.9196C1.74611 37.0059 0.653365 38.553 0.119834 40.2759C-0.126696 41.0717 0.00988565 41.8793 0.504367 42.5502C0.998753 43.2209 1.72991 43.5902 2.56305 43.5902H13.0453V44.9586C13.0453 46.9273 14.6469 48.5288 16.6155 48.5288H31.9144C33.8829 48.5288 35.4846 46.9273 35.4847 44.9586V43.5905H45.9669C46.8001 43.5905 47.5312 43.2212 48.0255 42.5506C48.5199 41.8797 48.6565 41.072 48.41 40.2763ZM40.1646 27.758C41.9412 27.758 43.3865 29.2033 43.3865 30.9798C43.3865 32.7564 41.9412 34.2018 40.1646 34.2018C38.388 34.2018 36.9427 32.7564 36.9427 30.9798C36.9427 29.2033 38.388 27.758 40.1646 27.758ZM19.7033 28.122C19.7033 25.6067 21.7497 23.5603 24.265 23.5603C26.7804 23.5603 28.8268 25.6067 28.8268 28.122C28.8268 30.6366 26.7817 32.6824 24.2675 32.6837C24.2667 32.6837 24.2657 32.6837 24.265 32.6837C24.2642 32.6837 24.2633 32.6837 24.2625 32.6837C21.7483 32.6823 19.7033 30.6365 19.7033 28.122ZM8.36545 27.7576C10.142 27.7576 11.5873 29.2029 11.5873 30.9794C11.5873 32.756 10.142 34.2014 8.36545 34.2014C6.58884 34.2014 5.1435 32.756 5.1435 30.9794C5.1435 29.2029 6.58884 27.7576 8.36545 27.7576ZM13.1438 42.0735H2.56314C2.21415 42.0735 1.93227 41.9312 1.72517 41.6502C1.51797 41.3693 1.46537 41.0579 1.56859 40.7245C2.49594 37.7298 5.22748 35.7179 8.36545 35.7179C10.7391 35.7179 12.9014 36.8648 14.2313 38.8062C13.7055 39.8276 13.3373 40.9285 13.1438 42.0735ZM33.9681 44.9585C33.968 46.0909 33.0468 47.0122 31.9144 47.0122H16.6155C15.4832 47.0122 14.5619 46.0909 14.5619 44.9585V42.873C15.1108 37.9265 19.2741 34.2015 24.2625 34.2002C24.2633 34.2002 24.2642 34.2003 24.265 34.2003C24.2659 34.2003 24.2668 34.2002 24.2675 34.2002C29.2558 34.2016 33.419 37.9265 33.9681 42.873V44.9585ZM46.8048 41.6507C46.5977 41.9316 46.3159 42.0739 45.9669 42.0739H35.3863C35.1927 40.9288 34.8245 39.8279 34.2988 38.8064C35.6288 36.865 37.791 35.7183 40.1646 35.7183C43.3025 35.7183 46.0341 37.7303 46.9614 40.725C47.0646 41.0581 47.0119 41.3696 46.8048 41.6507Z" fill="white"/>
</svg>
