<svg width="49" height="49" viewBox="0 0 49 49" fill="none" xmlns="http://www.w3.org/2000/svg">
<path d="M9.42106 4.69727C6.83097 4.69727 4.72461 6.80362 4.72461 9.39372C4.72461 11.9838 6.83097 14.0902 9.42106 14.0902C12.0112 14.0902 14.1175 11.9838 14.1175 9.39372C14.1175 6.80362 12.0112 4.69727 9.42106 4.69727ZM9.42106 12.5247C7.69433 12.5247 6.29009 11.1204 6.29009 9.39372C6.29009 7.66699 7.69433 6.26275 9.42106 6.26275C11.1478 6.26275 12.552 7.66699 12.552 9.39372C12.552 11.1204 11.1478 12.5247 9.42106 12.5247Z" fill="white"/>
<path d="M44.3854 37.3158L43.2786 36.209L37.5701 41.9175L36.558 40.9054L35.4512 42.0122L37.5701 44.1311L44.3854 37.3158Z" fill="white"/>
<path d="M26.6133 8.58203H28.1788V10.1475H26.6133V8.58203Z" fill="white"/>
<path d="M36.0059 8.58203H37.5713V10.1475H36.0059V8.58203Z" fill="white"/>
<path d="M32.877 8.58203H34.4424V10.1475H32.877V8.58203Z" fill="white"/>
<path d="M29.7441 8.58203H31.3096V10.1475H29.7441V8.58203Z" fill="white"/>
<path d="M18.0031 28.1513H30.5269C31.8216 28.1513 32.8752 27.0977 32.8752 25.8031V25.0203H43.0508C46.0714 25.0203 48.53 22.5625 48.53 19.5412V14.062C48.53 11.0406 46.0714 8.58277 43.0508 8.58277H40.7026V7.80002C40.7026 6.50537 39.649 5.4518 38.3544 5.4518H25.8305C24.5358 5.4518 23.4823 6.50537 23.4823 7.80002V8.58277H18.8132V7.23019L16.7585 6.66896C16.6912 6.48893 16.616 6.30968 16.5346 6.13278L17.5921 4.28082L14.5332 1.22186L12.682 2.27856C12.5043 2.19716 12.3258 2.12201 12.1458 2.0547L11.5838 0H7.25758L6.69557 2.0547C6.51554 2.12201 6.33708 2.19637 6.16018 2.27856L4.30821 1.22186L1.24926 4.28082L2.30596 6.13278C2.22455 6.30968 2.14941 6.48893 2.08209 6.66896L0.0273959 7.23019V11.5556L2.08209 12.1176C2.14941 12.2977 2.22455 12.4769 2.30596 12.6538L1.24847 14.5058L4.30743 17.5639L6.1594 16.5072C6.3363 16.5887 6.51476 16.6638 6.69479 16.7311L7.2568 18.7858H11.583L12.145 16.7311C12.3243 16.6638 12.5035 16.5887 12.6812 16.5072L14.5324 17.5632L17.5913 14.505L16.5339 12.653C16.6153 12.4761 16.6904 12.2969 16.7577 12.1168L18.8124 11.5548V10.1483H23.4823V10.931C23.4823 12.2256 24.5358 13.2792 25.8305 13.2792H38.3544C39.649 13.2792 40.7026 12.2256 40.7026 10.931V10.1483H43.0508C45.2088 10.1483 46.9645 11.9039 46.9645 14.062V19.5412C46.9645 21.6992 45.2088 23.4549 43.0508 23.4549H32.8752V22.6721C32.8752 21.3775 31.8216 20.3239 30.5269 20.3239H18.0031C16.7084 20.3239 15.6548 21.3775 15.6548 22.6721V23.4549H5.47919C2.45859 23.4549 0 25.9135 0 28.9341V35.196C0 38.2166 2.45859 40.6752 5.47919 40.6752H7.82742V41.4579C7.82742 42.7526 8.88099 43.8062 10.1756 43.8062H22.6995C23.9942 43.8062 25.0477 42.7526 25.0477 41.4579V40.6752H31.3496C31.7464 45.057 35.4363 48.5026 39.9198 48.5026C44.6672 48.5026 48.53 44.6398 48.53 39.8924C48.53 35.1451 44.6672 31.2823 39.9198 31.2823C35.4363 31.2823 31.7464 34.7279 31.3496 39.1097H25.0477V38.327C25.0477 37.0323 23.9942 35.9787 22.6995 35.9787H10.1756C8.88099 35.9787 7.82742 37.0323 7.82742 38.327V39.1097H5.47919C3.32117 39.1097 1.56548 37.354 1.56548 35.196V28.9341C1.56548 26.776 3.32117 25.0203 5.47919 25.0203H15.6548V25.8031C15.6548 27.0977 16.7084 28.1513 18.0031 28.1513ZM17.2477 10.3612L15.5312 10.8308L15.4051 11.2417C15.2924 11.6042 15.1421 11.965 14.9574 12.3141L14.7555 12.6945L15.64 14.2436L14.2717 15.6126L12.7219 14.7289L12.3423 14.93C11.994 15.1147 11.6331 15.265 11.2699 15.377L10.8598 15.5038L10.3893 17.2203H8.45361L7.98318 15.5038L7.57303 15.377C7.2114 15.265 6.85056 15.1155 6.50067 14.93L6.12026 14.7289L4.57121 15.6126L3.20141 14.2436L4.08591 12.6945L3.88397 12.3141C3.69924 11.965 3.54817 11.6042 3.43624 11.2417L3.31022 10.8308L1.59366 10.3612V8.42465L3.31022 7.95579L3.43702 7.54485C3.54895 7.18244 3.69924 6.8216 3.88397 6.47328L4.08591 6.09208L3.20141 4.54304L4.56965 3.17402L6.11869 4.05773L6.49911 3.85657C6.85056 3.67106 7.2114 3.51999 7.57146 3.40884L7.98162 3.28204L8.45205 1.56548H10.3878L10.8582 3.28204L11.2684 3.40884C11.63 3.52077 11.9908 3.67106 12.3407 3.85657L12.7203 4.05773L14.2702 3.17402L15.6384 4.54304L14.7539 6.09208L14.9558 6.47249C15.1406 6.82081 15.2916 7.18166 15.4028 7.54407L15.5296 7.95501L17.2462 8.42387V10.3612H17.2477ZM39.1371 10.931C39.1371 11.3623 38.7864 11.7137 38.3544 11.7137H25.8305C25.3984 11.7137 25.0477 11.3623 25.0477 10.931V7.80002C25.0477 7.36873 25.3984 7.01728 25.8305 7.01728H38.3544C38.7864 7.01728 39.1371 7.36873 39.1371 7.80002V10.931ZM39.9198 32.8478C43.8046 32.8478 46.9645 36.0077 46.9645 39.8924C46.9645 43.7772 43.8046 46.9371 39.9198 46.9371C36.0351 46.9371 32.8752 43.7772 32.8752 39.8924C32.8752 36.0077 36.0351 32.8478 39.9198 32.8478ZM9.3929 38.327C9.3929 37.8949 9.74357 37.5442 10.1756 37.5442H22.6995C23.1316 37.5442 23.4823 37.8949 23.4823 38.327V41.4579C23.4823 41.89 23.1316 42.2407 22.6995 42.2407H10.1756C9.74357 42.2407 9.3929 41.89 9.3929 41.4579V38.327ZM17.2203 22.6721C17.2203 22.2408 17.571 21.8894 18.0031 21.8894H30.5269C30.959 21.8894 31.3097 22.2408 31.3097 22.6721V25.8031C31.3097 26.2352 30.959 26.5858 30.5269 26.5858H18.0031C17.571 26.5858 17.2203 26.2352 17.2203 25.8031V22.6721Z" fill="white"/>
<path d="M25.0469 23.4551H26.6124V25.0206H25.0469V23.4551Z" fill="white"/>
<path d="M21.916 23.4551H23.4815V25.0206H21.916V23.4551Z" fill="white"/>
<path d="M18.7871 23.4551H20.3526V25.0206H18.7871V23.4551Z" fill="white"/>
<path d="M28.1797 23.4551H29.7452V25.0206H28.1797V23.4551Z" fill="white"/>
<path d="M14.0898 39.1094H15.6553V40.6749H14.0898V39.1094Z" fill="white"/>
<path d="M20.3516 39.1094H21.917V40.6749H20.3516V39.1094Z" fill="white"/>
<path d="M17.2207 39.1094H18.7862V40.6749H17.2207V39.1094Z" fill="white"/>
<path d="M10.957 39.1094H12.5225V40.6749H10.957V39.1094Z" fill="white"/>
</svg>
