<svg width="68" height="68" viewBox="0 0 68 68" fill="none" xmlns="http://www.w3.org/2000/svg">
<path d="M62.8189 43.7576C62.2471 42.8029 59.9046 39.9659 53.7674 43.5401L43.1092 49.748C42.6699 50.0038 42.2243 50.1966 41.7637 50.328C41.9131 50.0449 42.0342 49.7352 42.1238 49.4009C42.6846 47.3073 41.4422 45.1223 39.2952 44.4262C39.2498 44.4114 39.2033 44.3998 39.1562 44.3913C36.1027 43.8405 33.0844 42.7493 30.6592 41.8726C29.8143 41.5671 29.0162 41.2787 28.3366 41.0583C25.5644 40.1589 23.0689 41.2659 20.9936 42.4676L13.166 46.9996L12.4764 45.7811C12.131 45.1709 11.5671 44.7311 10.8884 44.5431C10.2101 44.355 9.49996 44.4417 8.88969 44.787L5.89941 46.4795C4.6365 47.1943 4.19065 48.8032 4.90531 50.0661L13.6971 65.6006C14.0425 66.2109 14.6065 66.6506 15.2851 66.8387C15.5198 66.9038 15.7582 66.9359 15.9949 66.9359C16.4427 66.9359 16.8846 66.8208 17.2838 66.5948L20.2744 64.9023C21.5373 64.1875 21.9833 62.5786 21.2685 61.3157L20.419 59.8148L22.0845 58.8533L35.6887 62.4985C36.4523 62.7032 37.2117 62.8049 37.9589 62.8048C39.47 62.8048 40.93 62.3887 42.2645 61.5671L61.6067 49.657C63.421 48.5398 63.9989 45.7279 62.8189 43.7576ZM19.2275 63.0529L16.237 64.7454C16.0802 64.8343 15.9289 64.812 15.8525 64.791C15.7763 64.7699 15.6351 64.7109 15.5464 64.5541L6.75459 49.0195C6.61926 48.7804 6.70705 48.4641 6.94597 48.3289L9.93638 46.6364C10.0236 46.587 10.1093 46.572 10.1812 46.572C10.2384 46.572 10.287 46.5816 10.3209 46.591C10.3971 46.6121 10.5382 46.671 10.627 46.8278L19.4189 62.3622C19.5543 62.6014 19.4665 62.9177 19.2275 63.0529ZM37.3991 52.3273L38.7247 52.5429C40.7347 52.8643 42.5186 52.5507 44.1785 51.5842L54.8368 45.3763C57.8424 43.6257 60.1448 43.4286 60.9957 44.8493C61.5784 45.8222 61.3243 47.3352 60.4921 47.8474L41.1501 59.7575C39.6447 60.6843 37.9924 60.916 36.2386 60.4459L22.2091 56.6868C21.9369 56.6141 21.647 56.6521 21.4029 56.7929L19.3722 57.9652L14.2127 48.8488L22.0582 44.3064C23.8124 43.2908 25.7076 42.4389 27.6809 43.0793C28.3271 43.2889 29.0729 43.5585 29.9366 43.8708C32.4169 44.7675 35.4987 45.8817 38.7012 46.4682C39.7512 46.8394 40.3384 47.8527 40.0709 48.8507C39.7187 50.1651 38.6159 50.328 37.7368 50.2277C36.1742 49.9059 34.6868 49.4816 33.1131 49.0321C32.3642 48.8183 31.5897 48.597 30.7933 48.3836C30.2267 48.2321 29.6439 48.5682 29.492 49.1349C29.34 49.7018 29.6764 50.2843 30.2433 50.4362C31.0229 50.6451 31.7888 50.8639 32.5295 51.0753C34.1587 51.5406 35.6975 51.98 37.3566 52.3192M10.7467 49.5351C10.8319 50.1185 10.4282 50.6607 9.84461 50.7459C9.26116 50.8312 8.71902 50.4274 8.63376 49.8439C8.54849 49.2604 8.95224 48.7183 9.53582 48.633C10.1193 48.5478 10.6614 48.9516 10.7467 49.5351ZM26.4183 17.6573C26.9098 18.6159 27.1566 19.097 27.2271 19.497C27.2976 19.8969 27.2303 20.4333 27.0964 21.5022C27.0627 21.7712 27.0251 22.0706 26.9849 22.4072C26.7636 24.2582 27.7663 25.995 29.48 26.729C29.7916 26.8625 30.0697 26.9797 30.3194 27.085C30.3648 27.1041 30.4081 27.1224 30.4515 27.1408L26.5025 35.6227C26.3354 35.9816 26.3816 36.4034 26.6224 36.7176C26.8632 37.0317 27.2585 37.1862 27.6485 37.1178L31.9892 36.3594L34.2031 40.1693C34.3938 40.4975 34.7444 40.6979 35.1216 40.6979C35.1377 40.6979 35.1539 40.6975 35.17 40.6968C35.5653 40.6789 35.918 40.4426 36.085 40.0839L40.0053 31.6637L39.9278 31.6277C40.5991 31.4246 40.9951 31.3225 41.3198 31.3225C41.726 31.3225 42.2426 31.4819 43.2719 31.7996C43.3799 31.8329 43.4942 31.8681 43.613 31.9046L46.4422 38.473C46.5987 38.8365 46.9443 39.0829 47.339 39.1122C47.3655 39.1142 47.3919 39.1151 47.4182 39.1151C47.7837 39.1151 48.1261 38.9267 48.3208 38.6128L50.6442 34.8689L54.9609 35.753C55.3487 35.8324 55.7485 35.6896 55.9981 35.3827C56.248 35.0756 56.3064 34.6553 56.1499 34.2918L52.9343 26.8256C53.0075 26.7945 53.0826 26.7624 53.1598 26.7293C54.8735 25.9954 55.8762 24.2585 55.655 22.4075C55.6147 22.0709 55.5773 21.7714 55.5435 21.5026C55.4094 20.4337 55.3422 19.8973 55.4127 19.4973C55.4832 19.0974 55.73 18.6162 56.2214 17.6577C56.3451 17.4165 56.4828 17.148 56.6358 16.8455C57.4769 15.1818 57.1285 13.2067 55.7693 11.9311C55.5221 11.6991 55.301 11.4939 55.1023 11.3095C54.3126 10.5768 53.9162 10.2092 53.7131 9.85734C53.51 9.50566 53.3897 8.97852 53.1502 7.92837C53.09 7.66408 53.0229 7.36977 52.9454 7.03973C52.5203 5.22458 50.9839 3.9355 49.1226 3.83204C48.7842 3.81318 48.4828 3.7983 48.2121 3.78476C47.1362 3.73123 46.5962 3.70427 46.2145 3.56535C45.8328 3.42643 45.4018 3.09998 44.5433 2.44946C44.3272 2.28584 44.0867 2.10362 43.8154 1.90041C42.323 0.783195 40.3175 0.783195 38.8251 1.90041C38.5538 2.10362 38.3132 2.28584 38.0971 2.44946C37.2385 3.09998 36.8077 3.42643 36.426 3.56535C36.0443 3.70427 35.5044 3.73123 34.4283 3.78476C34.1577 3.7983 33.8562 3.81318 33.5179 3.83204C31.6565 3.93563 30.1202 5.22471 29.695 7.03973C29.6177 7.36977 29.5507 7.66395 29.4902 7.92824C29.2506 8.97852 29.1304 9.50552 28.9272 9.85734C28.7242 10.209 28.3277 10.5768 27.5382 11.3094C27.3395 11.4937 27.1182 11.6991 26.871 11.9309C25.5117 13.2067 25.1635 15.1817 26.0044 16.8454C26.1569 17.1477 26.2946 17.4162 26.4183 17.6573ZM35.0178 37.3414L33.4546 34.6513C33.231 34.2667 32.7918 34.0622 32.353 34.1385L29.2881 34.674L32.3177 28.1669C32.5684 28.4462 32.8483 28.8791 33.3101 29.5943C33.4571 29.8221 33.6208 30.0757 33.8064 30.3595C34.5946 31.5647 35.8984 32.2482 37.2737 32.2482C37.3126 32.2482 37.3519 32.245 37.391 32.244L35.0178 37.3414ZM50.345 32.6383C49.9091 32.549 49.4636 32.7408 49.2291 33.1189L47.5886 35.7626L46.0493 32.1887C47.1635 32.0017 48.1772 31.3626 48.8332 30.3595C49.0187 30.0758 49.1823 29.8224 49.3294 29.5946C49.9137 28.6896 50.207 28.2354 50.5182 27.9743C50.6396 27.8724 50.7902 27.7781 50.987 27.6764L53.3929 33.2625L50.345 32.6383ZM28.3248 13.4802C28.5686 13.2514 28.7869 13.0488 28.983 12.867C30.869 11.1175 30.9894 10.9087 31.5617 8.40066C31.6212 8.13995 31.6874 7.84975 31.7637 7.52409C31.9752 6.6215 32.71 6.00498 33.6356 5.95345C33.9695 5.93486 34.2667 5.92012 34.5338 5.9067C37.1032 5.7788 37.3296 5.69633 39.3801 4.14282C39.5931 3.98132 39.8306 3.80149 40.0984 3.60108C40.4694 3.32323 40.8947 3.18445 41.3201 3.18445C41.7454 3.18445 42.1706 3.32323 42.5418 3.60108C42.8096 3.80136 43.0469 3.98119 43.26 4.14269C45.3105 5.6962 45.5369 5.77854 48.1063 5.90657C48.3734 5.91985 48.6706 5.93459 49.0045 5.95332C49.9302 6.00485 50.6649 6.62137 50.8764 7.52396C50.9526 7.84962 51.0189 8.13995 51.0784 8.40066C51.6505 10.9086 51.771 11.1173 53.6571 12.8669C53.8531 13.0487 54.0713 13.2512 54.3151 13.4801C54.9912 14.1145 55.1577 15.0591 54.7393 15.8865C54.5885 16.1849 54.4526 16.4499 54.3307 16.6878C53.1569 18.9769 53.1151 19.2142 53.4351 21.7668C53.4683 22.032 53.5054 22.3274 53.5451 22.6594C53.6552 23.5799 53.1756 24.4105 52.3234 24.7755C52.016 24.9071 51.7416 25.0228 51.4951 25.1267C49.1246 26.1257 48.94 26.2805 47.5444 28.4417C47.3993 28.6663 47.2378 28.9163 47.0548 29.1962C46.5475 29.9719 45.6463 30.3 44.7586 30.032C44.4385 29.9351 44.1541 29.8475 43.8987 29.7686C41.4407 29.0102 41.1996 29.0101 38.7412 29.7686C38.4858 29.8475 38.2013 29.9351 37.8812 30.032C36.994 30.3001 36.0923 29.9721 35.585 29.1962C35.402 28.9163 35.2404 28.6661 35.0953 28.4415C33.6999 26.2805 33.5152 26.1255 31.1445 25.1267C30.8982 25.0228 30.6239 24.9073 30.3165 24.7755C29.4642 24.4105 28.9846 23.5799 29.0947 22.6593C29.1344 22.3272 29.1715 22.0317 29.2048 21.7665C29.5249 19.214 29.4831 18.9768 28.3091 16.6875C28.1872 16.4496 28.0513 16.1848 27.9005 15.8864C27.4822 15.0592 27.6488 14.1146 28.3248 13.4802ZM41.3197 26.397C46.6917 26.397 51.0622 22.0266 51.0622 16.6546C51.0622 11.2826 46.6917 6.91223 41.3197 6.91223C35.9477 6.91223 31.5774 11.2827 31.5774 16.6546C31.5774 22.0266 35.9478 26.397 41.3197 26.397ZM41.3197 9.03709C45.5199 9.03709 48.9372 12.4542 48.9372 16.6544C48.9372 20.8546 45.52 24.2719 41.3197 24.2719C37.1194 24.2719 33.7024 20.8547 33.7024 16.6544C33.7024 12.4541 37.1195 9.03709 41.3197 9.03709ZM38.615 20.4195L35.8806 17.685C35.4656 17.2701 35.4657 16.5974 35.8806 16.1825C36.2957 15.7675 36.9685 15.7676 37.3831 16.1825L39.4018 18.2013L45.2936 12.8543C45.7282 12.4598 46.4001 12.4925 46.7945 12.927C47.1888 13.3616 47.1563 14.0336 46.7217 14.428L40.0803 20.4551C39.8772 20.6393 39.6216 20.7308 39.3664 20.7308C39.0939 20.7307 38.8219 20.6264 38.615 20.4195Z" fill="white"/>
</svg>
