<svg width="100" height="100" viewBox="0 0 100 100" fill="none" xmlns="http://www.w3.org/2000/svg">
<g clip-path="url(#clip0_200_11847)">
<path d="M35.9727 81.584H63.9138V93.1486H35.9727V81.584Z" fill="#5A5A5A"/>
<path d="M94.7571 83.2039H5.12772C2.29569 83.2039 0 80.9082 0 78.0762V5.12772C0 2.29569 2.29569 0 5.12772 0H94.7571C97.5891 0 99.8848 2.29569 99.8848 5.12772V78.0762C99.8848 80.9082 97.5891 83.2039 94.7571 83.2039Z" fill="#FFD86E"/>
<path d="M99.8856 5.12845V78.0761C99.8856 80.9082 97.5899 83.2039 94.7579 83.2039H88.4941C91.3262 83.2039 93.6219 80.9082 93.6219 78.0761V5.12845C93.6219 2.29642 91.3262 0.000732422 88.4941 0.000732422H94.7579C97.5899 0.000732422 99.8856 2.29642 99.8856 5.12845Z" fill="#FFB509"/>
<path d="M99.8848 70.8503H0V78.0761C0 80.9082 2.29569 83.2039 5.12772 83.2039H94.7571C97.5891 83.2039 99.8848 80.9082 99.8848 78.0761V70.8503Z" fill="#838383"/>
<path d="M99.8856 70.8496V78.0762C99.8856 80.9082 97.5899 83.2039 94.7579 83.2039H88.4941C91.3262 83.2039 93.6219 80.9082 93.6219 78.0762V70.8496H99.8856Z" fill="#5A5A5A"/>
<path d="M99.9992 17.4927H0.111328V5.12772C0.111328 2.29568 2.40701 0 5.23828 0H94.8715C97.7035 0 99.9992 2.29568 99.9992 5.12772V17.4927Z" fill="#ACACAC"/>
<path d="M100.001 5.12717V17.4937H93.6226V5.12717C93.6226 2.29666 91.3269 0.000976562 88.4941 0.000976562H94.8731C97.7051 0.000976562 100.001 2.29666 100.001 5.12717Z" fill="#9C9C9C"/>
<path d="M72.9672 99.8881H26.9169C26.3622 99.8881 25.9121 99.4379 25.9121 98.8833V95.6263C25.9121 93.4176 27.7027 91.627 29.9114 91.627H69.9726C72.1813 91.627 73.972 93.4176 73.972 95.6263V98.8833C73.972 99.4379 73.5218 99.8881 72.9672 99.8881Z" fill="#838383"/>
<path d="M73.9729 95.6255V98.884C73.9729 99.4387 73.5228 99.8888 72.9673 99.8888H69.4197V95.6255C69.4197 93.4183 67.6291 91.627 65.4219 91.627H69.9751C72.183 91.627 73.9729 93.4176 73.9729 95.6255Z" fill="#5A5A5A"/>
<path d="M11.4221 36.4249C11.0475 36.4249 10.6721 36.2822 10.386 35.9961L5.65962 31.2689C5.08742 30.6975 5.08742 29.7698 5.65962 29.1976L10.386 24.4711C10.9582 23.8989 11.886 23.8989 12.4582 24.4711C13.0304 25.0434 13.0304 25.9703 12.4582 26.5425L8.76707 30.2336L12.4582 33.9247C13.0304 34.4969 13.0304 35.4239 12.4582 35.9961C12.1721 36.2822 11.7967 36.4249 11.4221 36.4249Z" fill="#838383"/>
<path d="M22.723 36.4249C22.3484 36.4249 21.9731 36.2822 21.687 35.9961C21.1148 35.4239 21.1148 34.4962 21.687 33.9247L25.3781 30.2336L21.687 26.5425C21.1148 25.9703 21.1148 25.0426 21.687 24.4711C22.2592 23.8989 23.1869 23.8989 23.7591 24.4711L28.4855 29.1976C29.0577 29.7698 29.0577 30.6975 28.4855 31.2689L23.7591 35.9961C23.473 36.2822 23.0976 36.4249 22.723 36.4249Z" fill="#838383"/>
<path d="M15.3754 36.4254C15.1969 36.4254 15.0161 36.3926 14.8399 36.3232C14.0868 36.0279 13.7161 35.1772 14.0121 34.4242L17.7261 24.9706C18.0221 24.2184 18.8728 23.8468 19.625 24.1428C20.378 24.4389 20.7488 25.2895 20.4528 26.0426L16.7388 35.4954C16.5122 36.0729 15.9599 36.4254 15.3754 36.4254Z" fill="#838383"/>
<path d="M17.7051 45.2705H7.54883C6.74011 45.2705 6.08398 44.6144 6.08398 43.8057C6.08398 42.9962 6.74011 42.3408 7.54883 42.3408H17.7051C18.5146 42.3408 19.1699 42.9962 19.1699 43.8057C19.1699 44.6144 18.5146 45.2705 17.7051 45.2705Z" fill="#838383"/>
<path d="M41.0988 45.2705H23.2422C22.4335 45.2705 21.7773 44.6144 21.7773 43.8057C21.7773 42.9962 22.4335 42.3408 23.2422 42.3408H41.0988C41.9083 42.3408 42.5636 42.9962 42.5636 43.8057C42.5636 44.6144 41.9083 45.2705 41.0988 45.2705Z" fill="#838383"/>
<path d="M11.8755 51.6289H7.54883C6.74011 51.6289 6.08398 50.9735 6.08398 50.1641C6.08398 49.3553 6.74011 48.6992 7.54883 48.6992H11.8755C12.6849 48.6992 13.3403 49.3553 13.3403 50.1641C13.3403 50.9735 12.6842 51.6289 11.8755 51.6289Z" fill="#838383"/>
<path d="M38.2172 51.6289H35.582C34.7733 51.6289 34.1172 50.9735 34.1172 50.1641C34.1172 49.3553 34.7733 48.6992 35.582 48.6992H38.2172C39.0259 48.6992 39.6821 49.3553 39.6821 50.1641C39.6821 50.9735 39.0259 51.6289 38.2172 51.6289Z" fill="#838383"/>
<path d="M30.107 51.6289H17.166C16.3565 51.6289 15.7012 50.9735 15.7012 50.1641C15.7012 49.3553 16.3565 48.6992 17.166 48.6992H30.107C30.9165 48.6992 31.5718 49.3553 31.5718 50.1641C31.5718 50.9735 30.9157 51.6289 30.107 51.6289Z" fill="#838383"/>
<path d="M47.9335 51.6289H42.998C42.1893 51.6289 41.5332 50.9735 41.5332 50.1641C41.5332 49.3553 42.1893 48.6992 42.998 48.6992H47.9335C48.7422 48.6992 49.3983 49.3553 49.3983 50.1641C49.3983 50.9735 48.7422 51.6289 47.9335 51.6289Z" fill="#838383"/>
<path d="M38.4848 31.3994H33.2793C32.4698 31.3994 31.8145 30.744 31.8145 29.9346C31.8145 29.1259 32.4698 28.4697 33.2793 28.4697H38.4848C39.2943 28.4697 39.9497 29.1259 39.9497 29.9346C39.9497 30.744 39.2943 31.3994 38.4848 31.3994Z" fill="#838383"/>
<path d="M76.0756 31.3994H44.3145C43.5057 31.3994 42.8496 30.744 42.8496 29.9346C42.8496 29.1259 43.5057 28.4697 44.3145 28.4697H76.0756C76.8843 28.4697 77.5405 29.1259 77.5405 29.9346C77.5405 30.744 76.8843 31.3994 76.0756 31.3994Z" fill="#838383"/>
<path d="M71.2514 38.0332H58.3867C57.5772 38.0332 56.9219 37.3778 56.9219 36.5684C56.9219 35.7596 57.5772 35.1035 58.3867 35.1035H71.2514C72.0609 35.1035 72.7162 35.7596 72.7162 36.5684C72.7162 37.3778 72.0609 38.0332 71.2514 38.0332Z" fill="#838383"/>
<path d="M53.5614 38.0332H49.1387C48.33 38.0332 47.6738 37.3778 47.6738 36.5684C47.6738 35.7596 48.33 35.1035 49.1387 35.1035H53.5614C54.3709 35.1035 55.0263 35.7596 55.0263 36.5684C55.0263 37.3778 54.3709 38.0332 53.5614 38.0332Z" fill="#838383"/>
<path d="M44.1146 38.0332H33.2793C32.4706 38.0332 31.8145 37.3778 31.8145 36.5684C31.8145 35.7596 32.4706 35.1035 33.2793 35.1035H44.1146C44.9233 35.1035 45.5794 35.7596 45.5794 36.5684C45.5794 37.3778 44.9233 38.0332 44.1146 38.0332Z" fill="#838383"/>
<path d="M30.125 57.9346H19.9688C19.1593 57.9346 18.5039 57.2784 18.5039 56.4697C18.5039 55.6602 19.1593 55.0049 19.9688 55.0049H30.125C30.9345 55.0049 31.5898 55.6602 31.5898 56.4697C31.5898 57.2784 30.9345 57.9346 30.125 57.9346Z" fill="#838383"/>
<path d="M15.3522 57.9346H7.54883C6.74011 57.9346 6.08398 57.2784 6.08398 56.4697C6.08398 55.6602 6.74011 55.0049 7.54883 55.0049H15.3522C16.1609 55.0049 16.817 55.6602 16.817 56.4697C16.817 57.2784 16.1609 57.9346 15.3522 57.9346Z" fill="#838383"/>
<path d="M48.5363 57.9346H35.2695C34.4601 57.9346 33.8047 57.2784 33.8047 56.4697C33.8047 55.6602 34.4601 55.0049 35.2695 55.0049H48.5363C49.3458 55.0049 50.0011 55.6602 50.0011 56.4697C50.0011 57.2784 49.3458 57.9346 48.5363 57.9346Z" fill="#838383"/>
<path d="M57.9414 51.4434H90.5883V62.4991H57.9414V51.4434Z" fill="#64DCFC"/>
<path d="M57.9414 68.5293H90.5883V78.7817H57.9414V68.5293Z" fill="#64DCFC"/>
<path d="M86.7285 51.4434H90.589V62.4991H86.7285V51.4434Z" fill="#00D1FC"/>
<path d="M86.7285 68.5295H90.589V78.7819H86.7285V68.5295Z" fill="#00D1FC"/>
<path d="M93.2916 53.8452H55.2385C54.4336 53.8452 53.7812 53.1929 53.7812 52.388V45.0607C53.7812 44.2558 54.4336 43.6035 55.2385 43.6035H93.2916C94.0965 43.6035 94.7488 44.2558 94.7488 45.0607V52.388C94.7488 53.1929 94.0965 53.8452 93.2916 53.8452Z" fill="#0396FD"/>
<path d="M93.2916 70.2749H55.2385C54.4336 70.2749 53.7812 69.6226 53.7812 68.8177V61.4904C53.7812 60.6855 54.4336 60.0332 55.2385 60.0332H93.2916C94.0965 60.0332 94.7488 60.6855 94.7488 61.4904V68.8177C94.7488 69.6226 94.0965 70.2749 93.2916 70.2749Z" fill="#0396FD"/>
<path d="M93.2916 86.7046H55.2385C54.4336 86.7046 53.7812 86.0523 53.7812 85.2474V77.9201C53.7812 77.1152 54.4336 76.4629 55.2385 76.4629H93.2916C94.0965 76.4629 94.7488 77.1152 94.7488 77.9201V85.2474C94.7488 86.0523 94.0965 86.7046 93.2916 86.7046Z" fill="#0396FD"/>
<path d="M94.7487 45.0607V52.388C94.7487 53.1921 94.0972 53.8452 93.2915 53.8452H89.9102C90.7166 53.8452 91.3674 53.1921 91.3674 52.388V45.0607C91.3674 44.2566 90.7166 43.6035 89.9102 43.6035H93.2915C94.0972 43.6035 94.7487 44.2566 94.7487 45.0607Z" fill="#0077F0"/>
<path d="M94.7487 61.4894V68.8167C94.7487 69.6231 94.0972 70.2747 93.2915 70.2747H89.9102C90.7166 70.2747 91.3674 69.6231 91.3674 68.8167V61.4894C91.3674 60.6853 90.7166 60.0322 89.9102 60.0322H93.2915C94.0972 60.0322 94.7487 60.6853 94.7487 61.4894Z" fill="#0077F0"/>
<path d="M94.7487 77.9211V85.2484C94.7487 86.0525 94.0972 86.7056 93.2915 86.7056H89.9102C90.7166 86.7056 91.3674 86.0525 91.3674 85.2484V77.9211C91.3674 77.1154 90.7166 76.4639 89.9102 76.4639H93.2915C94.0972 76.4639 94.7487 77.1154 94.7487 77.9211Z" fill="#0077F0"/>
<path d="M66.4774 50.1895H59.2227C58.4139 50.1895 57.7578 49.5341 57.7578 48.7246C57.7578 47.9159 58.4139 47.2598 59.2227 47.2598H66.4782C67.2869 47.2598 67.9431 47.9159 67.9431 48.7246C67.9431 49.5341 67.2869 50.1895 66.4774 50.1895Z" fill="#E7E7E7"/>
<path d="M89.3089 50.1895H79.0664C78.2577 50.1895 77.6016 49.5341 77.6016 48.7246C77.6016 47.9159 78.2577 47.2598 79.0664 47.2598H89.3081C90.1176 47.2598 90.7729 47.9159 90.7729 48.7246C90.7729 49.5341 90.1176 50.1895 89.3089 50.1895Z" fill="#E7E7E7"/>
<path d="M73.9452 50.1895H71.5977C70.7889 50.1895 70.1328 49.5341 70.1328 48.7246C70.1328 47.9159 70.7889 47.2598 71.5977 47.2598H73.9452C74.7547 47.2598 75.4101 47.9159 75.4101 48.7246C75.4101 49.5341 74.7539 50.1895 73.9452 50.1895Z" fill="#E7E7E7"/>
<path d="M66.4774 66.6191H59.2227C58.4139 66.6191 57.7578 65.9638 57.7578 65.1543C57.7578 64.3456 58.4139 63.6895 59.2227 63.6895H66.4782C67.2869 63.6895 67.9431 64.3456 67.9431 65.1543C67.9431 65.9638 67.2869 66.6191 66.4774 66.6191Z" fill="#E7E7E7"/>
<path d="M89.3089 66.6191H79.0664C78.2577 66.6191 77.6016 65.9638 77.6016 65.1543C77.6016 64.3456 78.2577 63.6895 79.0664 63.6895H89.3081C90.1176 63.6895 90.7729 64.3456 90.7729 65.1543C90.7729 65.9638 90.1176 66.6191 89.3089 66.6191Z" fill="#E7E7E7"/>
<path d="M73.9452 66.6191H71.5977C70.7889 66.6191 70.1328 65.9638 70.1328 65.1543C70.1328 64.3456 70.7889 63.6895 71.5977 63.6895H73.9452C74.7547 63.6895 75.4101 64.3456 75.4101 65.1543C75.4101 65.9638 74.7539 66.6191 73.9452 66.6191Z" fill="#E7E7E7"/>
<path d="M66.4774 83.0488H59.2227C58.4139 83.0488 57.7578 82.3927 57.7578 81.584C57.7578 80.7753 58.4139 80.1191 59.2227 80.1191H66.4782C67.2869 80.1191 67.9431 80.7753 67.9431 81.584C67.9431 82.3927 67.2869 83.0488 66.4774 83.0488Z" fill="#E7E7E7"/>
<path d="M89.3089 83.0491H79.0664C78.2577 83.0491 77.6016 82.3929 77.6016 81.5842C77.6016 80.7755 78.2577 80.1194 79.0664 80.1194H89.3081C90.1176 80.1194 90.7729 80.7755 90.7729 81.5842C90.7729 82.3929 90.1176 83.0491 89.3089 83.0491Z" fill="#E7E7E7"/>
<path d="M73.9452 83.0488H71.5977C70.7889 83.0488 70.1328 82.3927 70.1328 81.584C70.1328 80.7753 70.7889 80.1191 71.5977 80.1191H73.9452C74.7547 80.1191 75.4101 80.7753 75.4101 81.584C75.4101 82.3927 74.7539 83.0488 73.9452 83.0488Z" fill="#E7E7E7"/>
<path d="M12.5276 8.70383C12.5276 10.3152 11.2214 11.6205 9.61084 11.6205C7.99951 11.6205 6.69336 10.3152 6.69336 8.70383C6.69336 7.09326 7.99951 5.78711 9.61084 5.78711C11.2214 5.78711 12.5276 7.09326 12.5276 8.70383Z" fill="#FF5770"/>
<path d="M23.7924 8.70358C23.7924 10.3149 22.487 11.6203 20.8757 11.6203C19.2651 11.6203 17.959 10.3149 17.959 8.70358C17.959 7.09302 19.2651 5.78687 20.8757 5.78687C22.487 5.78687 23.7924 7.09302 23.7924 8.70358Z" fill="#FFD86E"/>
<path d="M35.0561 8.70383C35.0561 10.3152 33.7499 11.6205 32.1394 11.6205C30.528 11.6205 29.2227 10.3152 29.2227 8.70383C29.2227 7.09326 30.528 5.78711 32.1394 5.78711C33.7499 5.78711 35.0561 7.09326 35.0561 8.70383Z" fill="#80E0DC"/>
<path d="M12.5267 8.7048C12.5267 10.3154 11.222 11.62 9.61224 11.62C8.83176 11.62 8.12222 11.3141 7.59961 10.8136C9.17737 10.7792 10.4484 9.4891 10.4484 7.90067C10.4484 7.06906 10.1005 6.32062 9.54358 5.79037C9.5657 5.78809 9.59012 5.78809 9.61224 5.78809C11.222 5.78809 12.5267 7.09271 12.5267 8.7048Z" fill="#FF435F"/>
<path d="M23.7919 8.7048C23.7919 10.3154 22.4872 11.62 20.8752 11.62C20.0954 11.62 19.3882 11.3141 18.8633 10.8136C20.4433 10.7792 21.7136 9.4891 21.7136 7.90067C21.7136 7.06906 21.3657 6.32062 20.8095 5.79037C20.8309 5.78809 20.853 5.78809 20.8759 5.78809C22.488 5.78809 23.7919 7.09271 23.7919 8.7048Z" fill="#FFB509"/>
<path d="M35.0563 8.7048C35.0563 10.3154 33.7494 11.62 32.1396 11.62C31.3591 11.62 30.6519 11.3141 30.127 10.8136C31.707 10.7792 32.9758 9.4891 32.9758 7.90067C32.9758 7.06906 32.6279 6.32062 32.0709 5.79037C32.093 5.78809 32.1175 5.78809 32.1396 5.78809C33.7494 5.78809 35.0563 7.09271 35.0563 8.7048Z" fill="#00A8B0"/>
</g>
<defs>
<clipPath id="clip0_200_11847">
<rect width="100" height="100" fill="white"/>
</clipPath>
</defs>
</svg>
