<svg width="52" height="52" viewBox="0 0 52 52" fill="none" xmlns="http://www.w3.org/2000/svg">
<g clip-path="url(#clip0_200_11757)">
<path d="M43.0057 33.2175C43.0047 32.3215 42.6483 31.4625 42.0147 30.8289C41.3811 30.1953 40.5221 29.8389 39.6261 29.8379H29.3987C30.8112 26.4148 30.8163 22.5727 29.4131 19.1458C29.4008 19.1157 29.3867 19.0864 29.3709 19.058C29.0825 18.539 28.6549 18.1108 28.1364 17.8216C27.6178 17.5324 27.0289 17.3936 26.4357 17.4208C25.8426 17.4481 25.2689 17.6403 24.779 17.9759C24.2892 18.3115 23.9027 18.7771 23.6631 19.3203C23.6253 19.4061 23.6026 19.4978 23.596 19.5913L23.3546 23.0187C22.9932 24.9885 21.9303 26.7605 20.3628 28.0069C19.735 28.2273 18.5855 29.0069 15.5868 31.8603V31.775C15.5863 31.3258 15.4076 30.8951 15.0899 30.5774C14.7723 30.2598 14.3415 30.0811 13.8923 30.0807H5.36255C4.91332 30.0811 4.48262 30.2598 4.16496 30.5775C3.8473 30.8951 3.66864 31.3258 3.66819 31.775V48.7969C3.66851 49.2462 3.84711 49.6771 4.16478 49.9948C4.48245 50.3126 4.91323 50.4913 5.36255 50.4918H13.8918C14.341 50.4914 14.7718 50.3127 15.0894 49.9951C15.4071 49.6774 15.5858 49.2467 15.5862 48.7974V48.7228C17.9317 49.2401 19.1559 49.855 20.5837 51.1814C21.1451 51.7155 21.8928 52.0092 22.6676 52H35.8885C36.53 52.0002 37.1584 51.8178 37.7 51.474C38.2417 51.1301 38.6742 50.6392 38.947 50.0585C39.2199 49.4779 39.3217 48.8315 39.2406 48.1951C39.1595 47.5587 38.8989 46.9585 38.4892 46.4648C39.5443 45.8302 40.295 44.6939 40.295 43.4866C40.2958 42.7355 40.0451 42.0058 39.5829 41.4137C40.6577 40.7772 41.4287 39.6023 41.4287 38.3523C41.4296 37.6477 41.2089 36.9606 40.7979 36.3882C41.4454 36.148 42.0039 35.7155 42.3985 35.1488C42.7932 34.582 43.005 33.9081 43.0057 33.2175ZM13.9612 48.7972C13.9606 48.8154 13.953 48.8327 13.9401 48.8456C13.9272 48.8584 13.91 48.8659 13.8918 48.8666H5.36255C5.34437 48.8659 5.3271 48.8584 5.31423 48.8456C5.30136 48.8327 5.29384 48.8154 5.29319 48.7972V31.7754C5.29387 31.7572 5.30139 31.7399 5.31426 31.7271C5.32712 31.7142 5.34437 31.7067 5.36255 31.706H13.8918C13.91 31.7067 13.9272 31.7142 13.9401 31.727C13.953 31.7399 13.9605 31.7572 13.9612 31.7754V48.7972ZM39.6261 34.972H36.8021C36.5867 34.972 36.38 35.0576 36.2276 35.21C36.0752 35.3624 35.9896 35.569 35.9896 35.7845C35.9896 36 36.0752 36.2067 36.2276 36.3591C36.38 36.5114 36.5867 36.597 36.8021 36.597H38.0491C38.5143 36.5977 38.9602 36.7827 39.2891 37.1117C39.618 37.4406 39.8031 37.8865 39.8037 38.3516C39.8037 39.2657 38.9004 40.1956 37.9734 40.2758C37.632 40.1632 37.2748 40.106 36.9154 40.1063C36.6999 40.1063 36.4932 40.1919 36.3409 40.3443C36.1885 40.4967 36.1029 40.7033 36.1029 40.9188C36.1029 41.1343 36.1885 41.341 36.3409 41.4933C36.4932 41.6457 36.6999 41.7313 36.9154 41.7313C37.1208 41.7311 37.3247 41.7671 37.5176 41.8378C37.5391 41.8472 37.5608 41.8557 37.5832 41.8633C37.9044 41.996 38.1792 42.2209 38.3726 42.5098C38.566 42.7986 38.6695 43.1383 38.6699 43.4859C38.6699 44.3817 37.7306 45.2937 36.7743 45.3583C36.4855 45.2799 36.1876 45.2403 35.8884 45.2405C35.6729 45.2405 35.4662 45.3261 35.3139 45.4785C35.1615 45.6309 35.0759 45.8375 35.0759 46.053C35.0759 46.2685 35.1615 46.4752 35.3139 46.6275C35.4662 46.7799 35.6729 46.8655 35.8884 46.8655C36.0585 46.8654 36.2278 46.8901 36.3908 46.9388C36.41 46.9457 36.4296 46.952 36.4495 46.9575C36.8439 47.0905 37.1782 47.3593 37.3927 47.7159C37.6072 48.0726 37.688 48.4939 37.6206 48.9046C37.5532 49.3153 37.3419 49.6886 37.0247 49.958C36.7074 50.2273 36.3047 50.3751 35.8885 50.375H22.6676C22.4872 50.379 22.3079 50.3472 22.14 50.2812C21.9721 50.2153 21.819 50.1166 21.6896 49.9909C19.9641 48.3877 18.4558 47.6579 15.5862 47.0608V34.1164L15.7304 33.9761C19.7183 30.1032 20.6952 29.6004 20.9026 29.5394C21.0231 29.5146 21.1363 29.4628 21.2339 29.388C23.1978 27.8838 24.5276 25.6991 24.9619 23.2638C24.9669 23.2353 24.9705 23.2066 24.9726 23.1777L25.2062 19.8622C25.3382 19.619 25.5323 19.4152 25.7686 19.2715C26.005 19.1277 26.2752 19.0491 26.5518 19.0438C26.8284 19.0384 27.1015 19.1064 27.3432 19.2409C27.585 19.3754 27.7868 19.5715 27.9281 19.8094C28.6066 21.4868 28.9111 23.292 28.8205 25.0991C28.7298 26.9063 28.2461 28.672 27.4031 30.273C27.3381 30.3969 27.3061 30.5354 27.3103 30.6752C27.3145 30.815 27.3547 30.9514 27.4271 31.0711C27.4994 31.1908 27.6015 31.2898 27.7233 31.3585C27.8451 31.4273 27.9826 31.4634 28.1225 31.4634H39.6261C40.0891 31.4669 40.532 31.6533 40.8582 31.982C41.1844 32.3106 41.3674 32.7549 41.3674 33.218C41.3674 33.6811 41.1844 34.1254 40.8582 34.454C40.532 34.7827 40.0891 34.9691 39.6261 34.9726V34.972ZM11.207 34.3748V34.4729C11.207 34.6883 11.1214 34.895 10.969 35.0474C10.8166 35.1998 10.61 35.2854 10.3945 35.2854C10.179 35.2854 9.97232 35.1998 9.81994 35.0474C9.66757 34.895 9.58197 34.6883 9.58197 34.4729V34.3748C9.58197 34.1594 9.66757 33.9527 9.81994 33.8003C9.97232 33.6479 10.179 33.5623 10.3945 33.5623C10.61 33.5623 10.8166 33.6479 10.969 33.8003C11.1214 33.9527 11.207 34.1594 11.207 34.3748ZM35.587 6.96536C35.5381 6.81455 35.446 6.68137 35.3222 6.58224C35.1985 6.48311 35.0484 6.42236 34.8905 6.40748L29.067 5.85904L26.7453 0.490043C26.6824 0.3445 26.5782 0.220551 26.4457 0.133474C26.3132 0.0463977 26.1581 0 25.9995 0C25.841 0 25.6859 0.0463977 25.5534 0.133474C25.4208 0.220551 25.3167 0.3445 25.2538 0.490043L22.9324 5.85894L17.109 6.40738C16.9511 6.42226 16.8011 6.48301 16.6773 6.58213C16.5535 6.68126 16.4615 6.81442 16.4125 6.96522C16.3635 7.11602 16.3597 7.27786 16.4016 7.4308C16.4434 7.58373 16.5291 7.72108 16.6481 7.8259L21.0369 11.6926L19.759 17.4004C19.7244 17.5551 19.7358 17.7166 19.7918 17.8649C19.8479 18.0133 19.9461 18.142 20.0744 18.2352C20.2026 18.3284 20.3554 18.382 20.5138 18.3894C20.6721 18.3969 20.8292 18.3578 20.9657 18.2771L25.9995 15.2982L31.0332 18.2773C31.1696 18.358 31.3267 18.3971 31.4851 18.3897C31.6435 18.3822 31.7963 18.3286 31.9245 18.2354C32.0528 18.1422 32.151 18.0135 32.2071 17.8652C32.2631 17.7168 32.2745 17.5553 32.2399 17.4006L30.9621 11.6928L35.3509 7.82611C35.47 7.72134 35.5558 7.58401 35.5978 7.43106C35.6397 7.27811 35.636 7.11622 35.587 6.96536ZM29.5275 10.7913C29.4183 10.8876 29.3369 11.0114 29.2919 11.1499C29.2469 11.2883 29.24 11.4364 29.2718 11.5784L30.2441 15.9218L26.4139 13.6548C26.2886 13.5806 26.1457 13.5415 26.0001 13.5415C25.8544 13.5415 25.7115 13.5806 25.5862 13.6548L21.756 15.9218L22.7278 11.5781C22.7596 11.4361 22.7527 11.288 22.7077 11.1496C22.6627 11.0111 22.5813 10.8873 22.4721 10.791L19.1326 7.84875L23.5638 7.43133C23.7087 7.41766 23.8473 7.3653 23.9651 7.27972C24.0829 7.19414 24.1755 7.07848 24.2333 6.94485L25.9995 2.8599L27.7658 6.94515C27.8236 7.07879 27.9162 7.19444 28.034 7.28002C28.1518 7.3656 28.2904 7.41797 28.4353 7.43164L32.8666 7.84906L29.5275 10.7913ZM49.8914 11.7264C49.8424 11.5756 49.7504 11.4424 49.6266 11.3433C49.5028 11.2442 49.3528 11.1834 49.1949 11.1685L45.0911 10.782L43.4548 6.99847C43.3919 6.85293 43.2877 6.72898 43.1552 6.6419C43.0227 6.55483 42.8676 6.50843 42.709 6.50843C42.5504 6.50843 42.3953 6.55483 42.2628 6.6419C42.1303 6.72898 42.0262 6.85293 41.9632 6.99847L40.3275 10.782L36.2235 11.1685C36.0657 11.1834 35.9156 11.2441 35.7918 11.3433C35.668 11.4424 35.576 11.5756 35.527 11.7264C35.478 11.8772 35.4742 12.0391 35.516 12.192C35.5579 12.345 35.6437 12.4823 35.7626 12.5872L38.8555 15.312L37.9551 19.3345C37.9205 19.4892 37.9319 19.6507 37.9879 19.7991C38.044 19.9474 38.1422 20.0761 38.2705 20.1693C38.3989 20.2625 38.5517 20.3161 38.7101 20.3235C38.8685 20.3309 39.0256 20.2918 39.162 20.2109L42.7093 18.1115L46.2563 20.2109C46.3927 20.2917 46.5499 20.3308 46.7083 20.3234C46.8667 20.3159 47.0194 20.2623 47.1477 20.1691C47.276 20.0759 47.3742 19.9472 47.4303 19.7989C47.4863 19.6505 47.4977 19.489 47.4631 19.3343L46.5625 15.3118L49.6553 12.587C49.7742 12.4821 49.8599 12.3448 49.9018 12.1919C49.9436 12.039 49.9399 11.8772 49.8909 11.7264H49.8914ZM45.1281 14.4106C45.0189 14.5069 44.9375 14.6307 44.8925 14.7692C44.8475 14.9076 44.8406 15.0556 44.8724 15.1977L45.4675 17.8556L43.123 16.4684C42.9977 16.3942 42.8547 16.3551 42.7091 16.3551C42.5635 16.3551 42.4206 16.3942 42.2952 16.4684L39.9515 17.8556L40.5464 15.1977C40.5783 15.0556 40.5713 14.9076 40.5263 14.7692C40.4813 14.6307 40.4 14.5069 40.2907 14.4106L38.247 12.6102L40.9587 12.3547C41.1036 12.341 41.2423 12.2887 41.3601 12.2031C41.4779 12.1175 41.5705 12.0018 41.6283 11.8682L42.7091 9.36823L43.7899 11.8682C43.8477 12.0018 43.9404 12.1175 44.0582 12.2031C44.176 12.2887 44.3146 12.341 44.4595 12.3547L47.1713 12.6102L45.1281 14.4106ZM15.7766 11.1685L11.6727 10.782L10.0359 6.99847C9.97292 6.85293 9.86878 6.72898 9.73626 6.6419C9.60374 6.55483 9.44864 6.50843 9.29008 6.50843C9.13151 6.50843 8.97641 6.55483 8.84389 6.6419C8.71138 6.72898 8.60723 6.85293 8.5443 6.99847L6.90854 10.782L2.8047 11.1685C2.64682 11.1834 2.49674 11.2441 2.37296 11.3433C2.24918 11.4424 2.15712 11.5756 2.10812 11.7264C2.05912 11.8772 2.05533 12.0391 2.09721 12.192C2.13909 12.345 2.22481 12.4823 2.34381 12.5872L5.43659 15.312L4.53604 19.3345C4.50145 19.4892 4.51288 19.6507 4.56893 19.799C4.62498 19.9473 4.7232 20.076 4.85149 20.1691C4.97977 20.2623 5.13252 20.3159 5.29089 20.3233C5.44927 20.3308 5.60636 20.2917 5.7428 20.2109L9.29008 18.1115L12.837 20.2109C12.9735 20.2917 13.1306 20.3307 13.289 20.3233C13.4474 20.3158 13.6001 20.2622 13.7284 20.169C13.8567 20.0758 13.9549 19.9471 14.0109 19.7988C14.0669 19.6505 14.0783 19.489 14.0437 19.3343L13.1432 15.3118L16.236 12.587C16.355 12.4821 16.4408 12.3448 16.4826 12.1918C16.5245 12.0389 16.5207 11.877 16.4717 11.7262C16.4227 11.5754 16.3307 11.4422 16.2069 11.3431C16.0831 11.2439 15.933 11.1832 15.7751 11.1683L15.7766 11.1685ZM11.7096 14.4106C11.6004 14.5069 11.519 14.6307 11.474 14.7692C11.429 14.9076 11.4221 15.0556 11.4539 15.1977L12.0488 17.8555L9.70395 16.4684C9.57864 16.3942 9.43569 16.3551 9.29008 16.3551C9.14446 16.3551 9.00152 16.3942 8.87621 16.4684L6.53235 17.8556L7.12741 15.1977C7.15921 15.0556 7.15226 14.9076 7.10727 14.7692C7.06228 14.6307 6.98091 14.5069 6.87167 14.4106L4.82803 12.6102L7.53975 12.3547C7.68471 12.341 7.82334 12.2887 7.94114 12.2031C8.05894 12.1175 8.15157 12.0018 8.20935 11.8682L9.29008 9.36833L10.3709 11.8682C10.4287 12.0018 10.5213 12.1175 10.6391 12.2031C10.7569 12.2886 10.8955 12.341 11.0404 12.3547L13.7521 12.6102L11.7096 14.4106Z" fill="white"/>
</g>
<defs>
<clipPath id="clip0_200_11757">
<rect width="52" height="52" fill="white"/>
</clipPath>
</defs>
</svg>
