<svg width="97" height="93" viewBox="0 0 97 93" fill="none" xmlns="http://www.w3.org/2000/svg">
<path d="M18.9139 54.6377C18.3566 54.6377 17.8221 54.4163 17.428 54.0222C17.0339 53.6281 16.8125 53.0936 16.8125 52.5362V39.9276C16.8125 39.3703 17.0339 38.8358 17.428 38.4417C17.8221 38.0476 18.3566 37.8262 18.9139 37.8262C19.4713 37.8262 20.0058 38.0476 20.3999 38.4417C20.794 38.8358 21.0154 39.3703 21.0154 39.9276V52.5362C21.0154 53.0936 20.794 53.6281 20.3999 54.0222C20.0058 54.4163 19.4713 54.6377 18.9139 54.6377Z" fill="#9DB8D3"/>
<path d="M48.3351 27.3181H35.7264C35.1691 27.3181 34.6346 27.0967 34.2405 26.7026C33.8464 26.3085 33.625 25.774 33.625 25.2167C33.625 24.6593 33.8464 24.1248 34.2405 23.7307C34.6346 23.3366 35.1691 23.1152 35.7264 23.1152H48.3351C48.8924 23.1152 49.4269 23.3366 49.821 23.7307C50.2151 24.1248 50.4365 24.6593 50.4365 25.2167C50.4365 25.774 50.2151 26.3085 49.821 26.7026C49.4269 27.0967 48.8924 27.3181 48.3351 27.3181Z" fill="#9DB8D3"/>
<path d="M48.3351 71.449H35.7264C35.1691 71.449 34.6346 71.2276 34.2405 70.8335C33.8464 70.4394 33.625 69.9049 33.625 69.3475C33.625 68.7902 33.8464 68.2557 34.2405 67.8616C34.6346 67.4675 35.1691 67.2461 35.7264 67.2461H48.3351C48.8924 67.2461 49.4269 67.4675 49.821 67.8616C50.2151 68.2557 50.4365 68.7902 50.4365 69.3475C50.4365 69.9049 50.2151 70.4394 49.821 70.8335C49.4269 71.2276 48.8924 71.449 48.3351 71.449Z" fill="#9DB8D3"/>
<path d="M0 8.40625H37.8259V37.8264C37.8259 38.941 37.3831 40.0101 36.5949 40.7982C35.8067 41.5864 34.7377 42.0292 33.623 42.0292H4.20287C3.0882 42.0292 2.01919 41.5864 1.23099 40.7982C0.442802 40.0101 0 38.941 0 37.8264V8.40625Z" fill="url(#paint0_linear_200_19193)"/>
<path d="M37.8259 4.20287V8.40575H21.876C21.3247 8.40807 20.7964 8.62694 20.405 9.01517C17.1477 12.2724 17.0427 12.6086 15.9499 12.6086H0V4.20287C0 3.0882 0.442802 2.01918 1.23099 1.23099C2.01919 0.442801 3.0882 0 4.20287 0H33.623C34.7377 0 35.8067 0.442801 36.5949 1.23099C37.3831 2.01918 37.8259 3.0882 37.8259 4.20287Z" fill="url(#paint1_linear_200_19193)"/>
<path d="M14.7108 8.406C15.8714 8.406 16.8122 7.46515 16.8122 6.30456C16.8122 5.14397 15.8714 4.20312 14.7108 4.20312C13.5502 4.20312 12.6094 5.14397 12.6094 6.30456C12.6094 7.46515 13.5502 8.406 14.7108 8.406Z" fill="#54A5FF"/>
<path d="M6.30456 8.406C7.46515 8.406 8.406 7.46515 8.406 6.30456C8.406 5.14397 7.46515 4.20312 6.30456 4.20312C5.14397 4.20312 4.20312 5.14397 4.20312 6.30456C4.20312 7.46515 5.14397 8.406 6.30456 8.406Z" fill="#54A5FF"/>
<path d="M31.5218 16.8105H6.30456C5.14397 16.8105 4.20312 17.7514 4.20312 18.912V27.3177C4.20312 28.4783 5.14397 29.4192 6.30456 29.4192H31.5218C32.6824 29.4192 33.6232 28.4783 33.6232 27.3177V18.912C33.6232 17.7514 32.6824 16.8105 31.5218 16.8105Z" fill="#FFB369"/>
<path d="M31.5218 37.8259H6.30456C5.74723 37.8259 5.21272 37.6045 4.81862 37.2104C4.42453 36.8163 4.20313 36.2818 4.20312 35.7245C4.20312 35.1671 4.42453 34.6326 4.81862 34.2385C5.21272 33.8444 5.74723 33.623 6.30456 33.623H31.5218C32.0791 33.623 32.6137 33.8444 33.0077 34.2385C33.4018 34.6326 33.6232 35.1671 33.6232 35.7245C33.6232 36.2818 33.4018 36.8163 33.0077 37.2104C32.6137 37.6045 32.0791 37.8259 31.5218 37.8259Z" fill="#B4CDE1"/>
<path d="M0 58.8398H37.8259V88.26C37.8259 89.3746 37.3831 90.4437 36.5949 91.2318C35.8067 92.02 34.7377 92.4628 33.623 92.4628H4.20287C3.0882 92.4628 2.01919 92.02 1.23099 91.2318C0.442802 90.4437 0 89.3746 0 88.26V58.8398Z" fill="url(#paint2_linear_200_19193)"/>
<path d="M37.8259 54.6365V58.8393H21.876C21.3247 58.8417 20.7964 59.0605 20.405 59.4488C17.1477 62.706 17.0427 63.0422 15.9499 63.0422H0V54.6365C0 53.5218 0.442802 52.4528 1.23099 51.6646C2.01919 50.8764 3.0882 50.4336 4.20287 50.4336H33.623C34.7377 50.4336 35.8067 50.8764 36.5949 51.6646C37.3831 52.4528 37.8259 53.5218 37.8259 54.6365Z" fill="url(#paint3_linear_200_19193)"/>
<path d="M14.7108 58.8396C15.8714 58.8396 16.8122 57.8987 16.8122 56.7382C16.8122 55.5776 15.8714 54.6367 14.7108 54.6367C13.5502 54.6367 12.6094 55.5776 12.6094 56.7382C12.6094 57.8987 13.5502 58.8396 14.7108 58.8396Z" fill="#54A5FF"/>
<path d="M6.30456 58.8396C7.46515 58.8396 8.406 57.8987 8.406 56.7382C8.406 55.5776 7.46515 54.6367 6.30456 54.6367C5.14397 54.6367 4.20312 55.5776 4.20312 56.7382C4.20312 57.8987 5.14397 58.8396 6.30456 58.8396Z" fill="#54A5FF"/>
<path d="M4.20312 69.3468V86.1583C4.20312 87.3189 5.14397 88.2598 6.30456 88.2598H14.7103C15.8709 88.2598 16.8117 87.3189 16.8117 86.1583V69.3468C16.8117 68.1862 15.8709 67.2454 14.7103 67.2454H6.30456C5.14397 67.2454 4.20312 68.1862 4.20312 69.3468Z" fill="#FFB369"/>
<path d="M31.5228 71.449H23.1171C22.5597 71.449 22.0252 71.2276 21.6311 70.8335C21.237 70.4394 21.0156 69.9049 21.0156 69.3475C21.0156 68.7902 21.237 68.2557 21.6311 67.8616C22.0252 67.4675 22.5597 67.2461 23.1171 67.2461H31.5228C32.0801 67.2461 32.6147 67.4675 33.0088 67.8616C33.4028 68.2557 33.6242 68.7902 33.6242 69.3475C33.6242 69.9049 33.4028 70.4394 33.0088 70.8335C32.6147 71.2276 32.0801 71.449 31.5228 71.449Z" fill="#B4CDE1"/>
<path d="M31.5228 79.8552H23.1171C22.5597 79.8552 22.0252 79.6338 21.6311 79.2397C21.237 78.8456 21.0156 78.3111 21.0156 77.7538C21.0156 77.1964 21.237 76.6619 21.6311 76.2678C22.0252 75.8737 22.5597 75.6523 23.1171 75.6523H31.5228C32.0801 75.6523 32.6147 75.8737 33.0088 76.2678C33.4028 76.6619 33.6242 77.1964 33.6242 77.7538C33.6242 78.3111 33.4028 78.8456 33.0088 79.2397C32.6147 79.6338 32.0801 79.8552 31.5228 79.8552Z" fill="#B4CDE1"/>
<path d="M31.5228 88.2595H23.1171C22.5597 88.2595 22.0252 88.0381 21.6311 87.644C21.237 87.2499 21.0156 86.7154 21.0156 86.1581C21.0156 85.6007 21.237 85.0662 21.6311 84.6721C22.0252 84.278 22.5597 84.0566 23.1171 84.0566H31.5228C32.0801 84.0566 32.6147 84.278 33.0088 84.6721C33.4028 85.0662 33.6242 85.6007 33.6242 86.1581C33.6242 86.7154 33.4028 87.2499 33.0088 87.644C32.6147 88.0381 32.0801 88.2595 31.5228 88.2595Z" fill="#B4CDE1"/>
<path d="M86.1578 6.30469H56.7377C50.9347 6.30469 46.2305 11.0089 46.2305 16.8119V75.6521C46.2305 81.4551 50.9347 86.1593 56.7377 86.1593H86.1578C91.9607 86.1593 96.665 81.4551 96.665 75.6521V16.8119C96.665 11.0089 91.9607 6.30469 86.1578 6.30469Z" fill="url(#paint4_linear_200_19193)"/>
<path d="M92.4623 16.8121V75.6524C92.4623 77.3244 91.7981 78.9279 90.6158 80.1102C89.4336 81.2925 87.83 81.9567 86.158 81.9567H56.7379C55.0659 81.9567 53.4624 81.2925 52.2801 80.1102C51.0978 78.9279 50.4336 77.3244 50.4336 75.6524V16.8121C50.4336 15.1401 51.0978 13.5366 52.2801 12.3543C53.4624 11.172 55.0659 10.5078 56.7379 10.5078H60.9408V12.6092C60.9408 13.7239 61.3836 14.7929 62.1718 15.5811C62.96 16.3693 64.029 16.8121 65.1437 16.8121H77.7523C78.8669 16.8121 79.936 16.3693 80.7242 15.5811C81.5124 14.7929 81.9552 13.7239 81.9552 12.6092V10.5078H86.158C87.83 10.5078 89.4336 11.172 90.6158 12.3543C91.7981 13.5366 92.4623 15.1401 92.4623 16.8121Z" fill="#F0F7FC"/>
<path d="M84.057 21.0137H58.8397C57.6791 21.0137 56.7383 21.9545 56.7383 23.1151V31.5209C56.7383 32.6814 57.6791 33.6223 58.8397 33.6223H84.057C85.2176 33.6223 86.1584 32.6814 86.1584 31.5209V23.1151C86.1584 21.9545 85.2176 21.0137 84.057 21.0137Z" fill="#FFB369"/>
<path d="M67.2455 37.8262H58.8397C57.6791 37.8262 56.7383 38.767 56.7383 39.9276V65.1449C56.7383 66.3054 57.6791 67.2463 58.8397 67.2463H67.2455C68.4061 67.2463 69.3469 66.3054 69.3469 65.1449V39.9276C69.3469 38.767 68.4061 37.8262 67.2455 37.8262Z" fill="#FFB369"/>
<path d="M84.0619 42.029H75.6561C75.0988 42.029 74.5643 41.8076 74.1702 41.4136C73.7761 41.0195 73.5547 40.4849 73.5547 39.9276C73.5547 39.3703 73.7761 38.8358 74.1702 38.4417C74.5643 38.0476 75.0988 37.8262 75.6561 37.8262H84.0619C84.6192 37.8262 85.1537 38.0476 85.5478 38.4417C85.9419 38.8358 86.1633 39.3703 86.1633 39.9276C86.1633 40.4849 85.9419 41.0195 85.5478 41.4136C85.1537 41.8076 84.6192 42.029 84.0619 42.029Z" fill="#D7E9F7"/>
<path d="M84.0619 50.4353H75.6561C75.0988 50.4353 74.5643 50.2139 74.1702 49.8198C73.7761 49.4257 73.5547 48.8912 73.5547 48.3339C73.5547 47.7765 73.7761 47.242 74.1702 46.8479C74.5643 46.4538 75.0988 46.2324 75.6561 46.2324H84.0619C84.6192 46.2324 85.1537 46.4538 85.5478 46.8479C85.9419 47.242 86.1633 47.7765 86.1633 48.3339C86.1633 48.8912 85.9419 49.4257 85.5478 49.8198C85.1537 50.2139 84.6192 50.4353 84.0619 50.4353Z" fill="#D7E9F7"/>
<path d="M84.0619 58.8396H75.6561C75.0988 58.8396 74.5643 58.6182 74.1702 58.2241C73.7761 57.83 73.5547 57.2955 73.5547 56.7382C73.5547 56.1808 73.7761 55.6463 74.1702 55.2522C74.5643 54.8581 75.0988 54.6367 75.6561 54.6367H84.0619C84.6192 54.6367 85.1537 54.8581 85.5478 55.2522C85.9419 55.6463 86.1633 56.1808 86.1633 56.7382C86.1633 57.2955 85.9419 57.83 85.5478 58.2241C85.1537 58.6182 84.6192 58.8396 84.0619 58.8396Z" fill="#D7E9F7"/>
<path d="M84.0619 67.2458H75.6561C75.0988 67.2458 74.5643 67.0244 74.1702 66.6303C73.7761 66.2363 73.5547 65.7017 73.5547 65.1444C73.5547 64.5871 73.7761 64.0526 74.1702 63.6585C74.5643 63.2644 75.0988 63.043 75.6561 63.043H84.0619C84.6192 63.043 85.1537 63.2644 85.5478 63.6585C85.9419 64.0526 86.1633 64.5871 86.1633 65.1444C86.1633 65.7017 85.9419 66.2363 85.5478 66.6303C85.1537 67.0244 84.6192 67.2458 84.0619 67.2458Z" fill="#D7E9F7"/>
<path d="M84.057 77.7537H58.8397C58.2824 77.7537 57.7479 77.5323 57.3538 77.1382C56.9597 76.7441 56.7383 76.2096 56.7383 75.6522C56.7383 75.0949 56.9597 74.5604 57.3538 74.1663C57.7479 73.7722 58.2824 73.5508 58.8397 73.5508H84.057C84.6143 73.5508 85.1488 73.7722 85.5429 74.1663C85.937 74.5604 86.1584 75.0949 86.1584 75.6522C86.1584 76.2096 85.937 76.7441 85.5429 77.1382C85.1488 77.5323 84.6143 77.7537 84.057 77.7537Z" fill="#B4CDE1"/>
<defs>
<linearGradient id="paint0_linear_200_19193" x1="18.9129" y1="42.0292" x2="18.9129" y2="8.40625" gradientUnits="userSpaceOnUse">
<stop stop-color="#D3E6F5"/>
<stop offset="1" stop-color="#F0F7FC"/>
</linearGradient>
<linearGradient id="paint1_linear_200_19193" x1="18.9129" y1="12.6086" x2="18.9129" y2="0" gradientUnits="userSpaceOnUse">
<stop stop-color="#54A5FF"/>
<stop offset="1" stop-color="#8AD3FE"/>
</linearGradient>
<linearGradient id="paint2_linear_200_19193" x1="-2.10144" y1="92.4628" x2="18.9129" y2="58.8398" gradientUnits="userSpaceOnUse">
<stop stop-color="#D3E6F5"/>
<stop offset="1" stop-color="#F0F7FC"/>
</linearGradient>
<linearGradient id="paint3_linear_200_19193" x1="-2.10144" y1="63.0422" x2="1.44852e-07" y2="50.4336" gradientUnits="userSpaceOnUse">
<stop stop-color="#54A5FF"/>
<stop offset="1" stop-color="#8AD3FE"/>
</linearGradient>
<linearGradient id="paint4_linear_200_19193" x1="71.4477" y1="86.1593" x2="71.4477" y2="6.30469" gradientUnits="userSpaceOnUse">
<stop stop-color="#54A5FF"/>
<stop offset="1" stop-color="#8AD3FE"/>
</linearGradient>
</defs>
</svg>
