<svg width="100" height="93" viewBox="0 0 100 93" fill="none" xmlns="http://www.w3.org/2000/svg">
<path d="M3.13946 54.1687C6.79707 66.6693 17.34 92.1694 35.1554 89.8805C53.0238 87.5847 46.0458 64.5437 62.403 61.3857C69.6036 59.9954 74.4845 72.4577 81.7011 72.07C90.9956 71.5706 95.7264 62.3702 98.3237 54.6357C103.831 38.2357 95.5837 10.4264 76.281 5.60998C59.4364 1.40705 57.4661 21.9879 42.8197 16.01C34.5875 12.65 35.4099 2.61623 25.3838 0.591625C-4.94783 -5.53317 -1.72752 37.5349 3.13946 54.1687Z" fill="url(#paint0_linear_200_19043)"/>
<path opacity="0.1" d="M68.4031 92.736H31.5937C28.3576 92.736 25.7344 90.1128 25.7344 86.8766V12.5254C25.7344 9.28925 28.3576 6.66602 31.5937 6.66602H68.4031C71.6392 6.66602 74.2624 9.28925 74.2624 12.5254V86.8764C74.2624 90.1126 71.6392 92.736 68.4031 92.736Z" fill="#2626BC"/>
<path d="M68.4031 88.0485H31.5937C28.3576 88.0485 25.7344 85.4253 25.7344 82.1891V7.83788C25.7344 4.60175 28.3576 1.97852 31.5937 1.97852H68.4031C71.6392 1.97852 74.2624 4.60175 74.2624 7.83788V82.1889C74.2624 85.4251 71.6392 88.0485 68.4031 88.0485Z" fill="#6583FE"/>
<path d="M25.7344 10.3594H74.2617V79.6679H25.7344V10.3594Z" fill="#2D58E0"/>
<path d="M46.7232 35.8049H36.7734C35.6947 35.8049 34.8203 34.9304 34.8203 33.8517V24.6699C34.8203 23.5912 35.6947 22.7168 36.7734 22.7168H46.7232C47.8019 22.7168 48.6763 23.5912 48.6763 24.6699V33.8517C48.6763 34.9304 47.8019 35.8049 46.7232 35.8049Z" fill="#1F50C9"/>
<path d="M63.3092 35.7502H53.3594C52.2807 35.7502 51.4062 34.8758 51.4062 33.7971V24.6152C51.4062 23.5365 52.2807 22.6621 53.3594 22.6621H63.3092C64.3879 22.6621 65.2623 23.5365 65.2623 24.6152V33.7971C65.2623 34.8758 64.3879 35.7502 63.3092 35.7502Z" fill="#1F50C9"/>
<path d="M74.209 22.6602V35.748H70C68.9219 35.748 68.0469 34.873 68.0469 33.7949V24.6133C68.0469 23.5352 68.9219 22.6602 70 22.6602H74.209Z" fill="#1F50C9"/>
<path d="M60.5156 14.543H39.4844C38.9451 14.543 38.5078 14.9803 38.5078 15.5195C38.5078 16.0588 38.9451 16.4961 39.4844 16.4961H60.5156C61.0548 16.4961 61.4922 16.0588 61.4922 15.5195C61.4922 14.9803 61.055 14.543 60.5156 14.543Z" fill="white"/>
<path d="M46.7193 33.7521H36.7695C35.6908 33.7521 34.8164 32.8777 34.8164 31.799V22.6172C34.8164 21.5385 35.6908 20.6641 36.7695 20.6641H46.7193C47.798 20.6641 48.6724 21.5385 48.6724 22.6172V31.799C48.6724 32.8777 47.798 33.7521 46.7193 33.7521Z" fill="#FF7EB8"/>
<path d="M44.6447 29.6699H40.6055C40.0662 29.6699 39.6289 30.1072 39.6289 30.6465C39.6289 31.1857 40.0662 31.623 40.6055 31.623H44.6447C45.184 31.623 45.6213 31.1857 45.6213 30.6465C45.6213 30.1072 45.184 29.6699 44.6447 29.6699Z" fill="white"/>
<path d="M44.6447 26.4805H43.5352C42.9959 26.4805 42.5586 26.9178 42.5586 27.457C42.5586 27.9963 42.9959 28.4336 43.5352 28.4336H44.6447C45.184 28.4336 45.6213 27.9963 45.6213 27.457C45.6213 26.9178 45.184 26.4805 44.6447 26.4805Z" fill="white"/>
<path d="M63.3053 33.6976H53.3555C52.2768 33.6976 51.4023 32.8232 51.4023 31.7445V22.5625C51.4023 21.4838 52.2768 20.6094 53.3555 20.6094H63.3053C64.384 20.6094 65.2584 21.4838 65.2584 22.5625V31.7443C65.2584 32.823 64.384 33.6976 63.3053 33.6976Z" fill="#02FFB3"/>
<path d="M61.2307 29.6152H57.1914C56.6521 29.6152 56.2148 30.0525 56.2148 30.5918C56.2148 31.1311 56.6521 31.5684 57.1914 31.5684H61.2307C61.7699 31.5684 62.2072 31.1311 62.2072 30.5918C62.2072 30.0525 61.7699 29.6152 61.2307 29.6152Z" fill="white"/>
<path d="M61.2307 26.4258H60.1211C59.5818 26.4258 59.1445 26.8631 59.1445 27.4023C59.1445 27.9416 59.5818 28.3789 60.1211 28.3789H61.2307C61.7699 28.3789 62.2072 27.9416 62.2072 27.4023C62.2072 26.8631 61.7699 26.4258 61.2307 26.4258Z" fill="white"/>
<path d="M74.209 20.6094V33.6972H70C68.9219 33.6972 68.0469 32.8222 68.0469 31.7441V22.5625C68.0469 21.4844 68.9219 20.6094 70 20.6094H74.209Z" fill="#9FB0FE"/>
<path d="M25.7344 79.6679V43.5859C25.7344 40.8906 27.9199 38.7031 30.6172 38.7031H69.3788C72.0761 38.7031 74.2617 40.8906 74.2617 43.5859V79.6679H25.7344Z" fill="white"/>
<path d="M68.4031 89.0247H31.5937C27.8244 89.0247 24.7578 85.9581 24.7578 82.1887V7.83788C24.7578 4.06855 27.8244 1.00195 31.5937 1.00195H68.4031C72.1724 1.00195 75.239 4.06855 75.239 7.83788V82.1889C75.239 85.9581 72.1724 89.0247 68.4031 89.0247ZM31.5937 2.95507C28.9014 2.95507 26.7109 5.1455 26.7109 7.83788V82.1889C26.7109 84.8813 28.9014 87.0717 31.5937 87.0717H68.4031C71.0954 87.0717 73.2859 84.8813 73.2859 82.1889V7.83788C73.2859 5.1455 71.0954 2.95507 68.4031 2.95507H31.5937Z" fill="#2626BC"/>
<path d="M53.4152 7.32422H46.5859C46.0467 7.32422 45.6094 6.88691 45.6094 6.34765C45.6094 5.8084 46.0467 5.37109 46.5859 5.37109H53.4152C53.9545 5.37109 54.3918 5.8084 54.3918 6.34765C54.3918 6.88691 53.9545 7.32422 53.4152 7.32422Z" fill="#B7C5FF"/>
<path d="M57.9691 7.325C58.5087 7.325 58.9461 6.8876 58.9461 6.34805C58.9461 5.80849 58.5087 5.37109 57.9691 5.37109C57.4296 5.37109 56.9922 5.80849 56.9922 6.34805C56.9922 6.8876 57.4296 7.325 57.9691 7.325Z" fill="#B7C5FF"/>
<path d="M45.8205 45.0137H41.7812C41.242 45.0137 40.8047 45.451 40.8047 45.9902C40.8047 46.5295 41.242 46.9668 41.7812 46.9668H45.8205C46.3598 46.9668 46.7971 46.5295 46.7971 45.9902C46.7971 45.451 46.3598 45.0137 45.8205 45.0137Z" fill="#00D890"/>
<path d="M65.7423 48.9746H41.7812C41.242 48.9746 40.8047 49.4119 40.8047 49.9512C40.8047 50.4904 41.242 50.9277 41.7812 50.9277H65.7423C66.2816 50.9277 66.7189 50.4904 66.7189 49.9512C66.7189 49.4119 66.2816 48.9746 65.7423 48.9746Z" fill="#9FB0FE"/>
<path d="M36.1195 50.9262H32.1602C31.6209 50.9262 31.1836 50.4889 31.1836 49.9496V45.9902C31.1836 45.451 31.6209 45.0137 32.1602 45.0137H36.1195C36.6588 45.0137 37.0961 45.451 37.0961 45.9902V49.9496C37.0961 50.4889 36.6588 50.9262 36.1195 50.9262Z" fill="#02FFB3"/>
<path d="M45.8205 57.1094H41.7812C41.242 57.1094 40.8047 57.5467 40.8047 58.0859C40.8047 58.6252 41.242 59.0625 41.7812 59.0625H45.8205C46.3598 59.0625 46.7971 58.6252 46.7971 58.0859C46.7971 57.5467 46.3598 57.1094 45.8205 57.1094Z" fill="#FF5BA8"/>
<path d="M65.7423 61.0684H41.7812C41.242 61.0684 40.8047 61.5057 40.8047 62.0449C40.8047 62.5842 41.242 63.0215 41.7812 63.0215H65.7423C66.2816 63.0215 66.7189 62.5842 66.7189 62.0449C66.7189 61.5057 66.2816 61.0684 65.7423 61.0684Z" fill="#9FB0FE"/>
<path d="M36.1195 63.0219H32.1602C31.6209 63.0219 31.1836 62.5846 31.1836 62.0453V58.0859C31.1836 57.5467 31.6209 57.1094 32.1602 57.1094H36.1195C36.6588 57.1094 37.0961 57.5467 37.0961 58.0859V62.0453C37.0961 62.5846 36.6588 63.0219 36.1195 63.0219Z" fill="#FF7EB8"/>
<path d="M45.8205 69.2109H41.7812C41.242 69.2109 40.8047 69.6482 40.8047 70.1875C40.8047 70.7268 41.242 71.1641 41.7812 71.1641H45.8205C46.3598 71.1641 46.7971 70.7268 46.7971 70.1875C46.7971 69.6482 46.3598 69.2109 45.8205 69.2109Z" fill="#6583FE"/>
<path d="M65.7423 73.1699H41.7812C41.242 73.1699 40.8047 73.6072 40.8047 74.1465C40.8047 74.6857 41.242 75.123 41.7812 75.123H65.7423C66.2816 75.123 66.7189 74.6857 66.7189 74.1465C66.7189 73.6072 66.2816 73.1699 65.7423 73.1699Z" fill="#9FB0FE"/>
<path d="M36.1195 75.1234H32.1602C31.6209 75.1234 31.1836 74.6861 31.1836 74.1469V70.1875C31.1836 69.6482 31.6209 69.2109 32.1602 69.2109H36.1195C36.6588 69.2109 37.0961 69.6482 37.0961 70.1875V74.1469C37.0961 74.6861 36.6588 75.1234 36.1195 75.1234Z" fill="#9FB0FE"/>
<path d="M81.7053 73.9539C80.1662 73.9539 78.9141 72.7017 78.9141 71.1625C78.9141 69.6232 80.1662 68.3711 81.7053 68.3711C83.2443 68.3711 84.4965 69.6232 84.4965 71.1625C84.4965 72.7017 83.2443 73.9539 81.7053 73.9539ZM81.7053 70.3244C81.2432 70.3244 80.8672 70.7004 80.8672 71.1627C80.8672 71.625 81.2432 72.001 81.7053 72.001C82.1674 72.001 82.5434 71.625 82.5434 71.1627C82.5434 70.7004 82.1674 70.3244 81.7053 70.3244Z" fill="#6583FE"/>
<path d="M16.1953 32.3848C15.6561 32.3848 15.2187 31.9475 15.2187 31.4082C15.2187 30.7619 14.6932 30.2363 14.0469 30.2363C13.5076 30.2363 13.0703 29.799 13.0703 29.2598C13.0703 28.7205 13.5076 28.2832 14.0469 28.2832C14.6932 28.2832 15.2187 27.7576 15.2187 27.1113C15.2187 26.5721 15.6561 26.1348 16.1953 26.1348C16.7346 26.1348 17.1719 26.5721 17.1719 27.1113C17.1719 27.7576 17.6975 28.2832 18.3437 28.2832C18.883 28.2832 19.3203 28.7205 19.3203 29.2598C19.3203 29.799 18.883 30.2363 18.3437 30.2363C17.6975 30.2363 17.1719 30.7619 17.1719 31.4082C17.1719 31.9475 16.7346 32.3848 16.1953 32.3848Z" fill="#01ECA5"/>
<path d="M84.5 82.793C83.9605 82.793 83.5234 82.3557 83.5234 81.8164C83.5234 81.1701 82.9978 80.6445 82.3516 80.6445C81.8121 80.6445 81.375 80.2072 81.375 79.668C81.375 79.1287 81.8121 78.6914 82.3516 78.6914C82.9978 78.6914 83.5234 78.1658 83.5234 77.5195C83.5234 76.9803 83.9605 76.543 84.5 76.543C85.0394 76.543 85.4766 76.9803 85.4766 77.5195C85.4766 78.1658 86.0021 78.6914 86.6484 78.6914C87.1879 78.6914 87.625 79.1287 87.625 79.668C87.625 80.2072 87.1879 80.6445 86.6484 80.6445C86.0021 80.6445 85.4766 81.1701 85.4766 81.8164C85.4766 82.3557 85.0394 82.793 84.5 82.793Z" fill="#01ECA5"/>
<path d="M86.6523 25.7851C86.1129 25.7851 85.6758 25.3478 85.6758 24.8086C85.6758 24.1623 85.1502 23.6367 84.5039 23.6367C83.9645 23.6367 83.5273 23.1994 83.5273 22.6602C83.5273 22.1209 83.9645 21.6836 84.5039 21.6836C85.1502 21.6836 85.6758 21.158 85.6758 20.5117C85.6758 19.9725 86.1129 19.5352 86.6523 19.5352C87.1918 19.5352 87.6289 19.9725 87.6289 20.5117C87.6289 21.158 88.1545 21.6836 88.8008 21.6836C89.3402 21.6836 89.7773 22.1209 89.7773 22.6602C89.7773 23.1994 89.3402 23.6367 88.8008 23.6367C88.1545 23.6367 87.6289 24.1623 87.6289 24.8086C87.6289 25.3478 87.1918 25.7851 86.6523 25.7851Z" fill="#FF5BA8"/>
<path d="M14.1875 42.0117C13.6482 42.0117 13.2109 41.5744 13.2109 41.0351C13.2109 40.3889 12.6853 39.8633 12.0391 39.8633C11.4998 39.8633 11.0625 39.426 11.0625 38.8867C11.0625 38.3475 11.4998 37.9102 12.0391 37.9102C12.6853 37.9102 13.2109 37.3846 13.2109 36.7383C13.2109 36.199 13.6482 35.7617 14.1875 35.7617C14.7268 35.7617 15.1641 36.199 15.1641 36.7383C15.1641 37.3846 15.6896 37.9102 16.3359 37.9102C16.8752 37.9102 17.3125 38.3475 17.3125 38.8867C17.3125 39.426 16.8752 39.8633 16.3359 39.8633C15.6896 39.8633 15.1641 40.3889 15.1641 41.0351C15.1641 41.5744 14.7269 42.0117 14.1875 42.0117Z" fill="#FF5BA8"/>
<defs>
<linearGradient id="paint0_linear_200_19043" x1="4.65255" y1="62.057" x2="89.752" y2="12.9248" gradientUnits="userSpaceOnUse">
<stop stop-color="#DCFDEE" stop-opacity="0"/>
<stop offset="0.6288" stop-color="#D2F3E4"/>
</linearGradient>
</defs>
</svg>
