<svg width="92" height="91" viewBox="0 0 92 91" fill="none" xmlns="http://www.w3.org/2000/svg">
<path d="M37.9688 72.4609H54.0197V85.4287H37.9688V72.4609Z" fill="#A2C7F8"/>
<path d="M37.9727 72.4609H43.7769V85.4287H37.9727V72.4609Z" fill="#8DB3DF"/>
<path d="M62.0993 90.3336H29.8902C28.8678 90.3336 28.0391 89.5049 28.0391 88.4824V87.0953C28.0391 86.0729 28.8678 85.2441 29.8902 85.2441H62.0993C63.1217 85.2441 63.9504 86.0729 63.9504 87.0953V88.4824C63.9504 89.5049 63.1215 90.3336 62.0993 90.3336Z" fill="#D8ECFE"/>
<path d="M37.2945 88.4824V87.0953C37.2945 86.0729 38.1232 85.2441 39.1456 85.2441H29.8902C28.8678 85.2441 28.0391 86.0729 28.0391 87.0953V88.4824C28.0391 89.5049 28.8678 90.3336 29.8902 90.3336H39.1456C38.1234 90.3336 37.2945 89.5049 37.2945 88.4824Z" fill="#C4E2FF"/>
<path d="M0 68.9449C0 70.9896 1.6576 72.6472 3.70225 72.6472H88.2972C90.3418 72.6472 91.9994 70.9896 91.9994 68.9449V63.4473H0V68.9449Z" fill="#D8ECFE"/>
<path d="M9.34799 68.9449V63.4473H0V68.9449C0 70.9896 1.6576 72.6472 3.70225 72.6472H13.0502C11.0056 72.6472 9.34799 70.9896 9.34799 68.9449Z" fill="#C4E2FF"/>
<path d="M49.3318 69.2812H42.668C41.9235 69.2812 41.3203 68.6778 41.3203 67.9336C41.3203 67.1893 41.9235 66.5859 42.668 66.5859H49.3318C50.0762 66.5859 50.6794 67.1893 50.6794 67.9336C50.6794 68.6778 50.0762 69.2812 49.3318 69.2812Z" fill="#A2C7F8"/>
<path d="M91.9993 63.4455H0V11.2884C0 9.75497 1.24307 8.51172 2.77669 8.51172H89.2228C90.7562 8.51172 91.9994 9.75479 91.9994 11.2884L91.9993 63.4455Z" fill="#647FA0"/>
<path d="M5.81913 58.5539C5.30793 58.5539 4.89357 58.1395 4.89357 57.6283V14.3328C4.89357 13.8216 5.30793 13.4072 5.81913 13.4072H9.34799V11.2904C9.34799 9.75674 10.5911 8.51367 12.1247 8.51367H2.77669C1.24307 8.51367 0 9.75674 0 11.2904V63.4475H9.34799V58.5539H5.81913Z" fill="#5E6F90"/>
<path d="M86.1811 13.4062H5.82009C5.30889 13.4062 4.89453 13.8206 4.89453 14.3318V57.6273C4.89453 58.1386 5.30889 58.5529 5.82009 58.5529H28.0187L28.3299 58.3732L31.8934 52.2008H37.2387C37.749 52.2008 38.1641 51.7856 38.1641 51.2753V41.3397L44.0409 31.1608C44.1992 30.8865 44.483 30.7228 44.7997 30.7228C45.1165 30.7228 45.4003 30.8865 45.5586 31.1608L58.6305 53.8024L58.6994 53.7916L58.7669 53.8042L69.2405 35.6634C69.3988 35.3892 69.6825 35.2253 69.9993 35.2253C70.3161 35.2253 70.5998 35.3892 70.7581 35.6634L83.8696 58.3732L84.181 58.5529H86.1811C86.6923 58.5529 87.1066 58.1386 87.1066 57.6273V14.3318C87.1066 13.8206 86.6923 13.4062 86.1811 13.4062Z" fill="#FED2A4"/>
<path d="M73.9457 30.1727C76.6038 30.1727 78.7586 28.0179 78.7586 25.3598C78.7586 22.7017 76.6038 20.5469 73.9457 20.5469C71.2876 20.5469 69.1328 22.7017 69.1328 25.3598C69.1328 28.0179 71.2876 30.1727 73.9457 30.1727Z" fill="#FE9901"/>
<path d="M72.8351 25.3598C72.8351 23.3577 74.0576 21.6417 75.7968 20.9163C75.2269 20.6786 74.6017 20.5469 73.9457 20.5469C71.2876 20.5469 69.1328 22.7017 69.1328 25.3598C69.1328 28.0179 71.2876 30.1727 73.9457 30.1727C74.6017 30.1727 75.2269 30.0409 75.7968 29.8032C74.0578 29.0778 72.8351 27.3616 72.8351 25.3598Z" fill="#FB8801"/>
<path d="M12.6573 57.6273V52.2006H11.5704C11.0592 52.2006 10.6448 51.7863 10.6448 51.2751V20.9171C10.6448 19.8947 11.4736 19.066 12.496 19.066H12.6575V14.3318C12.6575 13.8206 13.0719 13.4062 13.5831 13.4062H5.82009C5.30889 13.4062 4.89453 13.8206 4.89453 14.3318V57.6275C4.89453 58.1387 5.30889 58.5531 5.82009 58.5531H13.5829C13.0717 58.5529 12.6573 58.1386 12.6573 57.6273Z" fill="#FFBD86"/>
<path d="M69.0874 35.5728L55.8203 58.5521H84.1834L70.9163 35.5728C70.5098 34.869 69.4939 34.869 69.0874 35.5728Z" fill="#0182FC"/>
<path d="M61.5132 58.4438L72.8132 38.8716L70.9098 35.5747C70.5034 34.8709 69.4874 34.8709 69.081 35.5747L58.6953 53.5631L61.5132 58.4438Z" fill="#0172FB"/>
<path d="M52.1948 42.3088H51.9874L50.4753 44.9277C50.2849 45.2574 49.9438 45.4543 49.5631 45.4543C49.1821 45.4543 48.8409 45.2574 48.6506 44.9277L47.1941 42.4045C46.8565 41.8198 46.2518 41.4707 45.5766 41.4707C44.9013 41.4707 44.2968 41.8198 43.9592 42.4045L41.5965 46.4969C41.4061 46.8266 41.065 47.0237 40.6843 47.0237C40.3035 47.0237 39.9623 46.8268 39.772 46.4969L37.9775 43.3885V51.2756C37.9775 51.6869 37.6429 52.0215 37.2318 52.0215H31.7828L28.0117 58.5533H61.574L52.1948 42.3088Z" fill="#0593FC"/>
<path d="M37.9767 51.2758C37.9767 51.2762 37.9766 51.2767 37.9766 51.2771L40.3545 47.1583C40.0595 47.0778 39.7896 46.8881 39.6157 46.5869L37.9767 43.748V51.2758Z" fill="#0182FC"/>
<path d="M37.2318 52.022H31.7828L28.0117 58.5538H33.7764L37.6088 51.916C37.4977 51.9818 37.37 52.022 37.2318 52.022Z" fill="#0182FC"/>
<path d="M76.403 7.42574L76.0023 7.2793L57.7227 25.5588L57.7446 25.8055L62.7749 30.8358L63.0115 30.8476L81.2912 12.5682L80.955 11.9779L76.403 7.42574Z" fill="#8DB3DF"/>
<path d="M88.1078 3.50505L85.0689 0.466016C84.4476 -0.155339 83.4403 -0.155339 82.8191 0.466016L78.9375 4.34759L79.2417 4.90588L83.8507 9.51483L84.2264 9.63647L88.108 5.75489C88.7291 5.13354 88.7291 4.12622 88.1078 3.50505Z" fill="#8DB3DF"/>
<path d="M45.7141 31.071C45.3077 30.367 44.2917 30.367 43.8853 31.071L37.9844 41.2915V43.7475L39.6233 46.5863C40.098 47.4084 41.2845 47.4084 41.7592 46.5863L44.1219 42.494C44.7717 41.3688 46.3958 41.3688 47.0456 42.494L48.5023 45.0171C48.9768 45.8392 50.1635 45.8392 50.6382 45.0171L52.202 42.3084L45.7141 31.071Z" fill="white"/>
<path d="M45.7141 31.071C45.3077 30.367 44.2917 30.367 43.8853 31.071L37.9844 41.2915V43.7475L39.6233 46.5863C39.7972 46.8877 40.0671 47.0772 40.3622 47.1577L47.6819 34.4796L45.7141 31.071Z" fill="#EAF6FF"/>
<path d="M36.3209 19.0664H12.5035C11.4811 19.0664 10.6523 19.8951 10.6523 20.9175V27.2182L11.0946 27.4033H37.6967L38.1718 27.2182V20.9175C38.172 19.8953 37.3433 19.0664 36.3209 19.0664Z" fill="#FE646F"/>
<path d="M16.4524 20.9175C16.4524 19.8951 17.2811 19.0664 18.3036 19.0664H12.5035C11.4811 19.0664 10.6523 19.8951 10.6523 20.9175V27.2182L11.0946 27.4033H16.8946L16.4524 27.2182V20.9175Z" fill="#FD4755"/>
<path d="M37.2464 52.2016H11.5779C11.0667 52.2016 10.6523 51.7872 10.6523 51.276V27.2188H38.172V51.276C38.172 51.7872 37.7576 52.2016 37.2464 52.2016Z" fill="white"/>
<path d="M16.4524 51.276V27.2188H10.6523V51.276C10.6523 51.7872 11.0667 52.2016 11.5779 52.2016H17.378C16.867 52.2016 16.4524 51.7872 16.4524 51.276Z" fill="#EAF6FF"/>
<path d="M33.5337 44.9472H15.2695C14.5251 44.9472 13.9219 44.3439 13.9219 43.5996C13.9219 42.8553 14.5251 42.252 15.2695 42.252H33.5337C34.2782 42.252 34.8814 42.8553 34.8814 43.5996C34.8814 44.3439 34.278 44.9472 33.5337 44.9472Z" fill="#8DB3DF"/>
<path d="M28.0781 46.4746C29.6659 46.4746 30.9531 45.1874 30.9531 43.5996C30.9531 42.0118 29.6659 40.7246 28.0781 40.7246C26.4903 40.7246 25.2031 42.0118 25.2031 43.5996C25.2031 45.1874 26.4903 46.4746 28.0781 46.4746Z" fill="#0593FC"/>
<path d="M33.5337 36.9883H15.2695C14.5251 36.9883 13.9219 36.3849 13.9219 35.6406C13.9219 34.8964 14.5251 34.293 15.2695 34.293H33.5337C34.2782 34.293 34.8814 34.8964 34.8814 35.6406C34.8814 36.3849 34.278 36.9883 33.5337 36.9883Z" fill="#8DB3DF"/>
<path d="M20.6679 38.5156C22.2558 38.5156 23.5429 37.2284 23.5429 35.6406C23.5429 34.0528 22.2558 32.7656 20.6679 32.7656C19.0801 32.7656 17.793 34.0528 17.793 35.6406C17.793 37.2284 19.0801 38.5156 20.6679 38.5156Z" fill="#0593FC"/>
<path d="M33.707 24.2168C34.4513 24.2168 35.0547 23.6134 35.0547 22.8691C35.0547 22.1248 34.4513 21.5215 33.707 21.5215C32.9627 21.5215 32.3594 22.1248 32.3594 22.8691C32.3594 23.6134 32.9627 24.2168 33.707 24.2168Z" fill="#FFBD86"/>
<path d="M29.9922 24.2168C30.7365 24.2168 31.3398 23.6134 31.3398 22.8691C31.3398 22.1248 30.7365 21.5215 29.9922 21.5215C29.2479 21.5215 28.6445 22.1248 28.6445 22.8691C28.6445 23.6134 29.2479 24.2168 29.9922 24.2168Z" fill="#FFBD86"/>
<path d="M26.2812 24.2168C27.0255 24.2168 27.6289 23.6134 27.6289 22.8691C27.6289 22.1248 27.0255 21.5215 26.2812 21.5215C25.537 21.5215 24.9336 22.1248 24.9336 22.8691C24.9336 23.6134 25.537 24.2168 26.2812 24.2168Z" fill="#FFBD86"/>
<path d="M86.3543 1.74736L85.0728 0.466016C84.4515 -0.155339 83.4442 -0.155339 82.823 0.466016L78.9414 4.34759L81.3478 6.75395L86.3543 1.74736Z" fill="#799FCA"/>
<path d="M63.1937 24.9043L78.4124 9.68565L76.006 7.2793L57.7266 25.5588L57.7483 25.8055L62.7786 30.8358L63.0154 30.8476L65.4218 28.4413L63.1939 26.2134C62.8323 25.8518 62.8323 25.2657 63.1937 24.9043Z" fill="#799FCA"/>
<path d="M57.7278 25.5586C57.5781 25.7083 57.4599 25.8862 57.3799 26.082L54.2789 33.6739C54.119 34.0655 54.5096 34.4561 54.9012 34.2962L62.4931 31.1952C62.689 31.1152 62.8668 30.997 63.0165 30.8473L57.7278 25.5586Z" fill="#647FA0"/>
<path d="M76 7.28711L78.9313 4.35583L84.2194 9.64392L81.2881 12.5752L76 7.28711Z" fill="#C4E2FF"/>
<path d="M76 7.28711L78.9313 4.35583L81.3374 6.76193L78.4061 9.69321L76 7.28711Z" fill="#B3DAFE"/>
</svg>
