<svg width="94" height="90" viewBox="0 0 94 90" fill="none" xmlns="http://www.w3.org/2000/svg">
<path d="M24.149 70.8713H42.2267V63.2035C35.4897 62.4195 29.4156 58.4724 25.9911 52.5051C25.8509 52.2623 25.8509 51.9597 25.9911 51.7161C29.4156 45.7496 35.4897 41.8018 42.2267 41.0178V22.082C42.2267 21.5728 41.8108 21.1562 41.3017 21.1562H0.925C0.41657 21.1562 0 21.5728 0 22.082V88.4313C0 88.9404 0.41657 89.357 0.925 89.357H41.3017C41.8101 89.357 42.2267 88.9404 42.2267 88.4313V81.0676H24.149C23.4148 81.0676 22.8174 80.4716 22.8174 79.7396V72.1993C22.8174 71.4666 23.4148 70.8713 24.149 70.8713Z" fill="#E6E9ED"/>
<path d="M25.9887 52.5054C25.8484 52.2619 25.8484 51.9592 25.9887 51.7157C28.4098 47.4973 32.1554 44.2887 36.5226 42.4921V39.1132C36.5226 38.6041 36.1067 38.1875 35.5976 38.1875H6.62422C6.11579 38.1875 5.69922 38.6041 5.69922 39.1132V58.4506C5.69922 58.9598 6.11579 59.3763 6.62422 59.3763H32.2472C29.725 57.5933 27.5731 55.2655 25.9887 52.5054Z" fill="#FB8276"/>
<path d="M44.6991 63.5325C36.9331 63.5325 29.704 59.3418 25.8324 52.5962C25.66 52.2957 25.66 51.9262 25.8324 51.625C29.704 44.8794 36.9331 40.6895 44.6991 40.6895C52.4644 40.6895 59.6935 44.8794 63.5658 51.625C63.7381 51.9262 63.7381 52.2957 63.5658 52.5962C59.6935 59.3418 52.4644 63.5325 44.6991 63.5325Z" fill="#C7FFFD"/>
<path d="M49.6761 53.0639C45.8999 53.0639 42.8393 49.9998 42.8393 46.2193C42.8393 45.9808 42.8557 45.7458 42.8799 45.5137C39.9881 46.3119 37.8633 48.9623 37.8633 52.1111C37.8633 55.8916 40.9238 58.9557 44.7 58.9557C48.2391 58.9557 51.1508 56.2633 51.5019 52.8126C50.9201 52.9735 50.3091 53.0639 49.6761 53.0639Z" fill="#046699"/>
<path d="M44.7004 45.2656C43.9975 45.2656 43.3203 45.3724 42.6823 45.569C42.6488 45.846 42.6289 46.1265 42.6289 46.4121C42.6289 50.1925 45.6902 53.2567 49.4656 53.2567C50.1685 53.2567 50.8464 53.1506 51.4837 52.9533C51.5179 52.677 51.5378 52.3965 51.5378 52.1102C51.5378 48.3297 48.4758 45.2656 44.7004 45.2656Z" fill="white"/>
<path d="M72.1508 8.14453C65.0414 8.14453 59.2578 13.9131 59.2578 21.0048C59.2578 23.2714 59.8567 25.4988 60.9896 27.447C62.0898 29.3383 63.6663 30.9313 65.5498 32.0535L66.1309 32.3996V35.7236H78.1715V32.3996L78.7533 32.0535C80.6361 30.9313 82.2126 29.3383 83.3128 27.447C84.4457 25.4988 85.0446 23.2714 85.0446 21.0048C85.0446 13.9139 79.2603 8.14453 72.1508 8.14453Z" fill="#FFC502"/>
<path d="M72.2204 27.1743H72.0765C71.5966 27.1743 71.1508 27.0262 70.7812 26.7734V35.7236H73.5157V26.7734C73.1468 27.0262 72.7003 27.1743 72.2204 27.1743Z" fill="#775436"/>
<path d="M72.0768 19.3516C70.711 19.3516 69.5938 20.471 69.5938 21.8382V24.8702C69.5938 26.2374 70.711 27.3568 72.0768 27.3568H72.2206C73.5864 27.3568 74.7044 26.2374 74.7044 24.8702V21.8382C74.7044 20.471 73.5864 19.3516 72.2206 19.3516H72.0768Z" fill="white"/>
<path d="M69.1641 43.3633V46.8853C69.1641 47.4499 69.6262 47.9121 70.1902 47.9121H74.1173C74.682 47.9121 75.1434 47.4499 75.1434 46.8853V43.3633H69.1641Z" fill="#9EA7AF"/>
<path d="M79.42 42.7167C79.42 43.1732 79.0476 43.5456 78.5926 43.5456H65.7103C65.2552 43.5456 64.8828 43.1732 64.8828 42.7167V36.3699C64.8828 35.9141 65.2552 35.541 65.7103 35.541H78.5926C79.0476 35.541 79.42 35.9141 79.42 36.3699V42.7167Z" fill="#C6A07D"/>
<path d="M72.1485 5.03658C71.3936 5.03658 70.7812 4.42419 70.7812 3.66938V1.36721C70.7812 0.611682 71.3936 0 72.1485 0C72.904 0 73.5157 0.611682 73.5157 1.36721V3.66938C73.5157 4.42419 72.904 5.03658 72.1485 5.03658Z" fill="#F7931E"/>
<path d="M64.9456 6.59232C64.4229 6.59232 63.9244 6.29111 63.6966 5.78339L62.7566 3.68202C62.4476 2.99272 62.7566 2.18379 63.4459 1.87546C64.1345 1.56713 64.9442 1.87546 65.2518 2.56476L66.1924 4.66684C66.5008 5.35614 66.1924 6.16435 65.5031 6.47269C65.3216 6.55458 65.1321 6.59232 64.9456 6.59232Z" fill="#FFC502"/>
<path d="M58.9991 10.9429C58.6751 10.9429 58.349 10.8282 58.0883 10.5947L56.3701 9.05799C55.8068 8.55525 55.7591 7.69078 56.2618 7.12752C56.7653 6.56497 57.6297 6.51655 58.1923 7.02L59.9106 8.55668C60.4738 9.05941 60.5222 9.92388 60.0188 10.4871C59.7489 10.7891 59.3744 10.9429 58.9991 10.9429Z" fill="#F7931E"/>
<path d="M55.3498 17.3346C55.2117 17.3346 55.0707 17.3132 54.9318 17.2691L52.735 16.5641C52.0158 16.3334 51.6206 15.5636 51.8506 14.8444C52.0813 14.1252 52.8518 13.73 53.5703 13.96L55.7671 14.665C56.4863 14.8957 56.8822 15.6654 56.6515 16.3847C56.4657 16.965 55.928 17.3346 55.3498 17.3346Z" fill="#FFC502"/>
<path d="M52.3308 24.9022C51.6415 24.9022 51.0491 24.3831 50.9729 23.6831C50.8917 22.9326 51.4336 22.2575 52.1842 22.1756L54.4785 21.9264C55.2297 21.8431 55.9034 22.3871 55.9853 23.1384C56.0672 23.8889 55.5245 24.5632 54.774 24.6451L52.4797 24.8944C52.4298 24.9001 52.38 24.9022 52.3308 24.9022Z" fill="#F7931E"/>
<path d="M54.9698 32.7923C54.4998 32.7923 54.0413 32.5495 53.7878 32.113C53.4075 31.4607 53.6283 30.624 54.2805 30.2438L56.2737 29.0823C56.9259 28.7028 57.7626 28.9228 58.1429 29.5758C58.5231 30.2281 58.3024 31.0655 57.6501 31.445L55.657 32.6065C55.4405 32.7325 55.2041 32.7923 54.9698 32.7923Z" fill="#FFC502"/>
<path d="M79.355 6.59232C79.1685 6.59232 78.9791 6.55386 78.7975 6.47269C78.1082 6.16435 77.7991 5.35542 78.1082 4.66613L79.0489 2.56476C79.3572 1.87546 80.1668 1.56713 80.8554 1.87546C81.5447 2.18379 81.853 2.99272 81.5447 3.68202L80.604 5.78339C80.3769 6.29111 79.8777 6.59232 79.355 6.59232Z" fill="#FFC502"/>
<path d="M85.3014 10.9429C84.9262 10.9429 84.5516 10.7891 84.2817 10.4871C83.7783 9.92388 83.8267 9.06012 84.3892 8.55668L86.1075 7.02C86.6708 6.51655 87.5345 6.56497 88.038 7.12752C88.5414 7.69078 88.493 8.55454 87.9304 9.05799L86.2122 10.5947C85.9516 10.8282 85.6254 10.9429 85.3014 10.9429Z" fill="#F7931E"/>
<path d="M88.9534 17.3345C88.3752 17.3345 87.8375 16.9649 87.6517 16.3846C87.421 15.6654 87.8169 14.8956 88.5361 14.6649L90.7329 13.9599C91.4521 13.7299 92.2218 14.1259 92.4526 14.8444C92.6826 15.5636 92.2874 16.3333 91.5682 16.564L89.3714 17.269C89.2325 17.3132 89.0915 17.3345 88.9534 17.3345Z" fill="#FFC502"/>
<path d="M91.9673 24.9039C91.9182 24.9039 91.8683 24.9018 91.8177 24.8961L89.5241 24.6468C88.7736 24.565 88.231 23.8906 88.3129 23.1394C88.394 22.3888 89.067 21.8462 89.8196 21.9281L92.1133 22.1773C92.8645 22.2592 93.4064 22.9336 93.3252 23.6848C93.2483 24.3848 92.6559 24.9039 91.9673 24.9039Z" fill="#F7931E"/>
<path d="M89.3312 32.7923C89.0976 32.7923 88.8605 32.7325 88.644 32.6065L86.6516 31.445C85.9993 31.0648 85.7786 30.2281 86.1589 29.5758C86.5384 28.9228 87.3758 28.7028 88.0281 29.0823L90.0205 30.2438C90.6728 30.624 90.8935 31.4607 90.514 32.1137C90.2598 32.5495 89.8019 32.7923 89.3312 32.7923Z" fill="#FFC502"/>
<path d="M28.1461 31.9649H14.0703C13.3155 31.9649 12.7031 31.3525 12.7031 30.5977C12.7031 29.8422 13.3155 29.2305 14.0703 29.2305H28.1461C28.9009 29.2305 29.5133 29.8422 29.5133 30.5977C29.5133 31.3525 28.9009 31.9649 28.1461 31.9649Z" fill="#9EA7AF"/>
<path d="M34.6335 66.8946H7.58986C6.83434 66.8946 6.22266 66.2829 6.22266 65.5274C6.22266 64.7726 6.83434 64.1602 7.58986 64.1602H34.6335C35.389 64.1602 36.0007 64.7726 36.0007 65.5274C36.0007 66.2829 35.389 66.8946 34.6335 66.8946Z" fill="#9EA7AF"/>
<path d="M22.6334 72.1998C22.6334 71.5041 23.1126 70.9152 23.7571 70.7422H7.58986C6.83434 70.7422 6.22266 71.3546 6.22266 72.1094C6.22266 72.8649 6.83434 73.4766 7.58986 73.4766H22.6334V72.1998Z" fill="#9EA7AF"/>
<path d="M22.6334 79.7396V77.3242H7.58986C6.83434 77.3242 6.22266 77.9359 6.22266 78.6914C6.22266 79.4462 6.83434 80.0586 7.58986 80.0586H22.6683C22.6455 79.9554 22.6334 79.8493 22.6334 79.7396Z" fill="#9EA7AF"/>
<path d="M24.1506 81.2497C23.3182 81.2497 22.6367 80.5704 22.6367 79.7394V72.1998C22.6367 71.3688 23.3182 70.6895 24.1506 70.6895H67.7545C68.5869 70.6895 69.8665 71.0156 70.5971 71.4136L77.624 75.2454C78.3546 75.6441 78.3546 76.2957 77.624 76.6945L70.5971 80.5255C69.8665 80.9243 68.5869 81.2504 67.7545 81.2504H24.1506V81.2497Z" fill="#FFC502"/>
<path d="M22.6367 72.1998V79.7394C22.6367 80.5704 23.3182 81.2497 24.1506 81.2497H31.4175V70.6895H24.1506C23.3182 70.6895 22.6367 71.3688 22.6367 72.1998Z" fill="#EF5050"/>
<path d="M67.1406 81.2504H67.7509C68.5833 81.2504 69.8629 80.9243 70.5935 80.5255L77.6204 76.6945C78.351 76.2957 78.351 75.6441 77.6204 75.2454L70.5935 71.4144C69.8629 71.0156 68.5833 70.6895 67.7509 70.6895H67.1406V81.2504Z" fill="#FFD5B3"/>
<path d="M72.8984 79.2695L77.6217 76.6939C78.3516 76.2959 78.3516 75.6436 77.6217 75.2455L72.8984 72.6699V79.2695Z" fill="#046699"/>
<path d="M31.4141 74.6016H67.1408V77.336H31.4141V74.6016Z" fill="#C6A07D"/>
</svg>
