<svg width="103" height="80" viewBox="0 0 103 80" fill="none" xmlns="http://www.w3.org/2000/svg">
<path d="M40.4381 0H97.027C98.399 0 99.6458 0.559655 100.548 1.46408C101.45 2.36614 102.012 3.61296 102.012 4.98495V74.1225C102.012 75.4945 101.452 76.7413 100.548 77.6433C99.6458 78.5454 98.399 79.1074 97.027 79.1074H40.4381C39.0661 79.1074 37.8193 78.5478 36.9172 77.6433C36.0151 76.7413 35.4531 75.4945 35.4531 74.1225V4.98495C35.4531 3.61296 36.0128 2.36614 36.9172 1.46408C37.8216 0.559655 39.0661 0 40.4381 0Z" fill="#3A556A"/>
<path d="M97.0301 2.09766H40.4388C39.6454 2.09766 38.9228 2.42353 38.4009 2.94777C37.8767 3.472 37.5508 4.19459 37.5508 4.98567V74.1232C37.5508 74.9166 37.8767 75.6392 38.4009 76.1611C38.9251 76.6853 39.6477 77.0112 40.4388 77.0112H97.0278C97.8212 77.0112 98.5438 76.6853 99.0657 76.1611C99.5899 75.6369 99.9158 74.9143 99.9158 74.1232V4.98567C99.9158 4.19223 99.5899 3.46964 99.0657 2.94777C98.5461 2.42117 97.8236 2.09766 97.0301 2.09766Z" fill="white"/>
<path fill-rule="evenodd" clip-rule="evenodd" d="M44.2496 25.2793H65.1622C66.095 25.2793 66.9404 25.6595 67.5544 26.2735C68.1683 26.8874 68.5485 27.7328 68.5485 28.6656V50.4402C68.5485 51.3729 68.1683 52.2183 67.5544 52.8323C66.9404 53.4463 66.095 53.8265 65.1622 53.8265H44.2496C43.3168 53.8265 42.4714 53.4463 41.8574 52.8323C41.2435 52.2183 40.8633 51.3729 40.8633 50.4402V28.6656C40.8633 27.7328 41.2435 26.8874 41.8574 26.2735C42.4714 25.6618 43.3192 25.2793 44.2496 25.2793Z" fill="#76BEDD"/>
<path fill-rule="evenodd" clip-rule="evenodd" d="M78.0023 25.2793H93.7884C94.5629 25.2793 95.2666 25.5957 95.7767 26.1058C96.2867 26.6159 96.6032 27.3196 96.6032 28.0941V51.0164C96.6032 51.7909 96.2867 52.4946 95.7767 53.0047C95.2666 53.5147 94.5629 53.8312 93.7884 53.8312H78.0023C77.2278 53.8312 76.5241 53.5147 76.014 53.0047C75.5039 52.4946 75.1875 51.7909 75.1875 51.0164V28.0941C75.1875 27.3196 75.5039 26.6159 76.014 26.1058C76.5241 25.5957 77.2278 25.2793 78.0023 25.2793Z" fill="#5C9CEE"/>
<path fill-rule="evenodd" clip-rule="evenodd" d="M44.2496 5.62695H93.2135C94.1463 5.62695 94.9916 6.00714 95.6056 6.62111C96.2196 7.23508 96.5998 8.08046 96.5998 9.01322V18.3621C96.5998 19.2948 96.2196 20.1402 95.6056 20.7542C94.9916 21.3681 94.1463 21.7483 93.2135 21.7483H44.2496C43.3168 21.7483 42.4714 21.3681 41.8574 20.7542C41.2435 20.1402 40.8633 19.2948 40.8633 18.3621V9.01322C40.8633 8.08046 41.2435 7.23508 41.8574 6.62111C42.4714 6.00714 43.3192 5.62695 44.2496 5.62695Z" fill="#76BEDD"/>
<path fill-rule="evenodd" clip-rule="evenodd" d="M43.7584 57.3594H51.1402C51.936 57.3594 52.6609 57.6853 53.1852 58.2095C53.7094 58.7337 54.0353 59.4563 54.0353 60.2545V70.588C54.0353 71.3838 53.7094 72.1088 53.1852 72.633C52.6609 73.1572 51.9383 73.4831 51.1402 73.4831H43.7584C42.9626 73.4831 42.2376 73.1572 41.7134 72.633C41.1892 72.1088 40.8633 71.3862 40.8633 70.588V60.2545C40.8633 59.4587 41.1892 58.7337 41.7134 58.2095C42.2376 57.6829 42.9626 57.3594 43.7584 57.3594Z" fill="#5C9CEE"/>
<path fill-rule="evenodd" clip-rule="evenodd" d="M64.0581 57.3594H93.2145C94.1473 57.3594 94.9927 57.7396 95.6067 58.3535C96.2206 58.9675 96.6008 59.8129 96.6008 60.7456V70.0945C96.6008 71.0272 96.2206 71.8726 95.6067 72.4866C94.9927 73.1006 94.1473 73.4808 93.2145 73.4808H64.0581C63.1254 73.4808 62.28 73.1006 61.666 72.4866C61.0521 71.8726 60.6719 71.0272 60.6719 70.0945V60.7456C60.6719 59.8129 61.0521 58.9675 61.666 58.3535C62.28 57.7396 63.1254 57.3594 64.0581 57.3594Z" fill="#76BEDD"/>
<path d="M5.90826 26.7461H31.643C33.27 26.7461 34.7459 27.4096 35.8156 28.4817C36.8853 29.5515 37.5512 31.0297 37.5512 32.6544V73.2069C37.5512 74.834 36.8877 76.3098 35.8156 77.3796C34.7459 78.4493 33.2676 79.1152 31.643 79.1152H5.90826C4.28125 79.1152 2.80536 78.4517 1.73564 77.3796C0.665919 76.3098 0 74.8316 0 73.2069V32.6544C0 31.0273 0.663558 29.5515 1.73564 28.4817C2.80536 27.4096 4.28125 26.7461 5.90826 26.7461Z" fill="#3A556A"/>
<path d="M31.6399 29.1328H5.90759C4.94177 29.1328 4.06096 29.5295 3.42102 30.1671C2.78344 30.8047 2.38672 31.6855 2.38672 32.6537V73.2063C2.38672 74.1721 2.78344 75.0529 3.42102 75.6928C4.0586 76.3304 4.93941 76.7271 5.90759 76.7271H31.6423C32.6081 76.7271 33.4889 76.3304 34.1289 75.6928C34.7664 75.0553 35.1632 74.1744 35.1632 73.2063V32.6537C35.1632 31.6879 34.7664 30.8071 34.1289 30.1671C33.4889 29.5295 32.6081 29.1328 31.6399 29.1328Z" fill="white"/>
<path fill-rule="evenodd" clip-rule="evenodd" d="M15.2339 33.003C14.5751 33.003 14.0391 32.4694 14.0391 31.8082C14.0391 31.1493 14.5727 30.6133 15.2339 30.6133H22.3182C22.977 30.6133 23.5131 31.147 23.5131 31.8082C23.5131 32.467 22.9794 33.003 22.3182 33.003H15.2339Z" fill="#76BEDD"/>
<path fill-rule="evenodd" clip-rule="evenodd" d="M16.6714 37.1944C16.0126 37.1944 15.4766 36.6608 15.4766 35.9996C15.4766 35.3407 16.0102 34.8047 16.6714 34.8047H20.8771C21.536 34.8047 22.072 35.3384 22.072 35.9996C22.072 36.6584 21.5383 37.1944 20.8771 37.1944H16.6714Z" fill="#76BEDD"/>
<path d="M16.6714 75.2433C16.0126 75.2433 15.4766 74.7096 15.4766 74.0484C15.4766 73.3872 16.0102 72.8535 16.6714 72.8535H20.8771C21.536 72.8535 22.072 73.3872 22.072 74.0484C22.072 74.7096 21.5383 75.2433 20.8771 75.2433H16.6714Z" fill="#27A2DB"/>
<path fill-rule="evenodd" clip-rule="evenodd" d="M18.7755 41.6855C21.8808 41.6855 24.6908 42.9442 26.724 44.9774C28.7596 47.0129 30.0158 49.823 30.0158 52.9259C30.0158 56.0311 28.7572 58.8412 26.724 60.8744C24.6885 62.9099 21.8784 64.1662 18.7755 64.1662C15.6702 64.1662 12.8601 62.9076 10.827 60.8744C8.79143 58.8389 7.53516 56.0288 7.53516 52.9259C7.53516 49.8206 8.79379 47.0105 10.827 44.9774C12.8601 42.9442 15.6702 41.6855 18.7755 41.6855Z" fill="#0068C0"/>
<path d="M25.2387 46.461C23.5833 44.8057 21.2975 43.7832 18.7708 43.7832C16.244 43.7832 13.9582 44.8081 12.3028 46.461C10.6475 48.1164 9.625 50.4022 9.625 52.929C9.625 55.4557 10.6475 57.7415 12.3028 59.3969C13.9582 61.0522 16.244 62.0747 18.7708 62.0747C21.2975 62.0747 23.5833 61.0522 25.2387 59.3969C26.894 57.7415 27.9165 55.4557 27.9165 52.929C27.9189 50.4046 26.894 48.1164 25.2387 46.461Z" fill="white"/>
<path fill-rule="evenodd" clip-rule="evenodd" d="M11.6953 58.7216C11.8889 58.9554 12.092 59.1821 12.3069 59.397C13.9623 61.0524 16.2481 62.0749 18.7748 62.0749C21.3015 62.0749 23.5874 61.0524 25.2428 59.397C25.4576 59.1821 25.6607 58.9578 25.8544 58.7216C25.5403 57.3804 24.8578 56.1831 23.9156 55.2433C22.6003 53.928 20.782 53.1133 18.7772 53.1133C16.7724 53.1133 14.9541 53.928 13.6388 55.2433C12.6942 56.1831 12.0094 57.3804 11.6953 58.7216Z" fill="#98DB7C"/>
<path d="M18.7752 46.1836C20.0503 46.1836 21.2051 46.7007 22.041 47.5367C22.877 48.3726 23.3941 49.5274 23.3941 50.8025C23.3941 52.0777 22.877 53.2324 22.041 54.0684C21.2051 54.9043 20.0503 55.4214 18.7752 55.4214C17.5 55.4214 16.3453 54.9043 15.5093 54.0684C14.6734 53.2324 14.1562 52.0777 14.1562 50.8025C14.1562 49.5274 14.6734 48.3726 15.5093 47.5367C16.3453 46.7007 17.5 46.1836 18.7752 46.1836Z" fill="#F9C5B8"/>
<path d="M65.1669 27.375H44.2542C43.9 27.375 43.5788 27.5214 43.345 27.7552C43.1113 27.989 42.9648 28.3125 42.9648 28.6643V50.4389C42.9648 50.7932 43.1113 51.1143 43.345 51.3481C43.5788 51.5819 43.9 51.7283 44.2542 51.7283H65.1669C65.5211 51.7283 65.8422 51.5819 66.076 51.3481C66.3098 51.1143 66.4562 50.7908 66.4562 50.4389V28.6643C66.4562 28.3101 66.3098 27.989 66.076 27.7552C65.8422 27.5214 65.5211 27.375 65.1669 27.375Z" fill="white"/>
<path fill-rule="evenodd" clip-rule="evenodd" d="M57.8428 51.7285H65.1679C65.5221 51.7285 65.8433 51.5821 66.0771 51.3483C66.3108 51.1145 66.4572 50.791 66.4572 50.4391V40.8849L63.1276 35.652C63.0663 35.541 62.9812 35.4418 62.8773 35.3568C62.4287 34.9931 61.7722 35.0616 61.4062 35.5079L52.9759 45.8344C52.6123 46.2831 52.6807 46.9395 53.1271 47.3055C53.5757 47.6692 54.2322 47.6007 54.5982 47.1544L57.8428 51.7285Z" fill="#385062"/>
<path fill-rule="evenodd" clip-rule="evenodd" d="M57.8428 51.7293H60.4593C60.4593 51.3421 60.3483 50.9548 60.1239 50.6029L55.2878 43.0039L52.9759 45.8352C52.6123 46.2839 52.6807 46.9404 53.1271 47.3064C53.5757 47.6701 54.2322 47.6016 54.5982 47.1553L57.8428 51.7293Z" fill="#324858"/>
<path d="M93.2142 7.72461H44.2503C43.8961 7.72461 43.5749 7.87102 43.3411 8.1048C43.1073 8.33858 42.9609 8.65973 42.9609 9.01394V18.3628C42.9609 18.717 43.1073 19.0381 43.3411 19.2719C43.5749 19.5057 43.8961 19.6521 44.2503 19.6521H93.2142C93.5684 19.6521 93.8896 19.5057 94.1234 19.2719C94.3571 19.0381 94.5036 18.717 94.5036 18.3628V9.01394C94.5036 8.65973 94.3571 8.33858 94.1234 8.1048C93.8896 7.87102 93.5684 7.72461 93.2142 7.72461Z" fill="white"/>
<path d="M84.1072 15.4515C83.6987 15.0429 83.6987 14.3794 84.1072 13.9685C84.5157 13.56 85.1793 13.56 85.5901 13.9685L88.8749 17.2532C89.2834 17.6618 89.2834 18.3277 88.8749 18.7362C88.4663 19.1447 87.8028 19.1447 87.3919 18.7362L84.1072 15.4515Z" fill="#CCCCCC"/>
<path fill-rule="evenodd" clip-rule="evenodd" d="M49.3336 14.6731C48.7551 14.6731 48.2852 14.2032 48.2852 13.6246C48.2852 13.0461 48.7551 12.5762 49.3336 12.5762H70.3691C70.9477 12.5762 71.4176 13.0461 71.4176 13.6246C71.4176 14.2032 70.9477 14.6731 70.3691 14.6731H49.3336Z" fill="#4D4D4D"/>
<path fill-rule="evenodd" clip-rule="evenodd" d="M53.7094 29.6465C54.9208 29.6465 56.0165 30.1377 56.8099 30.9311C57.6033 31.7245 58.0945 32.8202 58.0945 34.0316C58.0945 35.243 57.6033 36.3387 56.8099 37.1322C56.0165 37.9256 54.9208 38.4168 53.7094 38.4168C52.498 38.4168 51.4023 37.9256 50.6088 37.1322C49.8154 36.3387 49.3242 35.243 49.3242 34.0316C49.3242 32.8202 49.8154 31.7245 50.6088 30.9311C51.4023 30.1377 52.5003 29.6465 53.7094 29.6465Z" fill="#FFC107"/>
<path fill-rule="evenodd" clip-rule="evenodd" d="M80.7282 32.0501C80.1496 32.0501 79.6797 31.5801 79.6797 31.0016C79.6797 30.423 80.1496 29.9531 80.7282 29.9531H91.0617C91.6403 29.9531 92.1102 30.423 92.1102 31.0016C92.1102 31.5801 91.6403 32.0501 91.0617 32.0501H80.7282Z" fill="white"/>
<path fill-rule="evenodd" clip-rule="evenodd" d="M80.7282 37.7512C80.1496 37.7512 79.6797 37.2813 79.6797 36.7028C79.6797 36.1242 80.1496 35.6543 80.7282 35.6543H91.0617C91.6403 35.6543 92.1102 36.1242 92.1102 36.7028C92.1102 37.2813 91.6403 37.7512 91.0617 37.7512H80.7282Z" fill="white"/>
<path fill-rule="evenodd" clip-rule="evenodd" d="M80.7282 43.4524C80.1496 43.4524 79.6797 42.9825 79.6797 42.4039C79.6797 41.8254 80.1496 41.3555 80.7282 41.3555H91.0617C91.6403 41.3555 92.1102 41.8254 92.1102 42.4039C92.1102 42.9825 91.6403 43.4524 91.0617 43.4524H80.7282Z" fill="white"/>
<path fill-rule="evenodd" clip-rule="evenodd" d="M80.7282 49.1516C80.1496 49.1516 79.6797 48.6817 79.6797 48.1032C79.6797 47.5246 80.1496 47.0547 80.7282 47.0547H91.0617C91.6403 47.0547 92.1102 47.5246 92.1102 48.1032C92.1102 48.6817 91.6403 49.1516 91.0617 49.1516H80.7282Z" fill="white"/>
<path fill-rule="evenodd" clip-rule="evenodd" d="M66.4274 66.4661C65.8488 66.4661 65.3789 65.9962 65.3789 65.4176C65.3789 64.8391 65.8488 64.3691 66.4274 64.3691H73.3794C73.9579 64.3691 74.4279 64.8391 74.4279 65.4176C74.4279 65.9962 73.9579 66.4661 73.3794 66.4661H66.4274Z" fill="white"/>
<path fill-rule="evenodd" clip-rule="evenodd" d="M77.1305 66.4661C76.552 66.4661 76.082 65.9962 76.082 65.4176C76.082 64.8391 76.552 64.3691 77.1305 64.3691H90.848C91.4265 64.3691 91.8964 64.8391 91.8964 65.4176C91.8964 65.9962 91.4265 66.4661 90.848 66.4661H77.1305Z" fill="white"/>
<path d="M79.6974 9.55484C80.5121 8.74015 81.5795 8.33398 82.6468 8.33398C83.7142 8.33398 84.7816 8.74015 85.5962 9.55484C86.4109 10.3695 86.8171 11.4369 86.8171 12.5042C86.8171 13.5716 86.4109 14.639 85.5962 15.4537C84.7816 16.2683 83.7142 16.6745 82.6468 16.6745C81.5795 16.6745 80.5121 16.2683 79.6974 15.4537C78.8827 14.639 78.4766 13.5716 78.4766 12.5042C78.4742 11.4369 78.8827 10.3695 79.6974 9.55484Z" fill="#E6E6E6"/>
<path fill-rule="evenodd" clip-rule="evenodd" d="M42.9648 48.0397V50.4413C42.9648 50.7955 43.1113 51.1166 43.345 51.3504C43.5788 51.5842 43.9 51.7306 44.2542 51.7306H58.3542L51.0999 40.3297C51.0385 40.2187 50.9535 40.1195 50.8496 40.0345C50.4009 39.6709 49.7445 39.7393 49.3784 40.1856L42.9648 48.0397Z" fill="#3B566A"/>
</svg>
