<svg width="104" height="100" viewBox="0 0 104 100" fill="none" xmlns="http://www.w3.org/2000/svg">
<path d="M52.0003 99.5318C79.4852 99.5318 101.766 77.2508 101.766 49.7659C101.766 22.2809 79.4852 0 52.0003 0C24.5153 0 2.23438 22.2809 2.23438 49.7659C2.23438 77.2508 24.5153 99.5318 52.0003 99.5318Z" fill="#FFAF10"/>
<path d="M57.4103 74.918H35.4727V84.2963H57.4103V74.918Z" fill="#445EA0"/>
<path d="M39.5031 74.918H35.4727V84.2963H39.5031V74.918Z" fill="#2E4C89"/>
<path d="M67.6688 89.1719C67.6688 89.7305 67.2118 90.1875 66.6532 90.1875H26.2305C25.6719 90.1875 25.2148 89.7305 25.2148 89.1719V85.1094C25.2148 84.5508 25.6719 84.0938 26.2305 84.0938H66.6532C67.2118 84.0938 67.6688 84.5508 67.6688 85.1094V89.1719Z" fill="#293D7C"/>
<path d="M29.2453 89.1719V85.1094C29.2453 84.5508 29.7023 84.0938 30.2609 84.0938H26.2305C25.6719 84.0938 25.2148 84.5508 25.2148 85.1094V89.1719C25.2148 89.7305 25.6719 90.1875 26.2305 90.1875H30.2609C29.7023 90.1875 29.2453 89.7305 29.2453 89.1719Z" fill="#1A2B63"/>
<path d="M0 73.0917C0 74.2089 0.914067 75.1229 2.03126 75.1229H63.0046V61.5234H0V73.0917Z" fill="#293D7C"/>
<path d="M63.0046 56.0597C63.0046 55.6116 63.369 55.2472 63.8171 55.2472H92.8824V11.266C92.8824 10.0379 91.8778 9.0332 90.6499 9.0332H2.23276C1.00466 9.0332 0 10.0379 0 11.266V61.7261H63.0046V56.0597Z" fill="#445EA0"/>
<path d="M63.0039 56.061C63.0039 55.6129 63.3683 55.2485 63.8164 55.2485H88.4164V14.5156C88.4164 13.957 87.9594 13.5 87.4008 13.5H5.48047C4.92188 13.5 4.46484 13.957 4.46484 14.5156V56.246C4.46484 56.8046 4.92188 57.2617 5.48047 57.2617H63.0037L63.0039 56.061Z" fill="#EEF6FF"/>
<path d="M46.439 71.3213C47.9996 71.3213 49.2647 70.0562 49.2647 68.4956C49.2647 66.935 47.9996 65.6699 46.439 65.6699C44.8784 65.6699 43.6133 66.935 43.6133 68.4956C43.6133 70.0562 44.8784 71.3213 46.439 71.3213Z" fill="#445EA0"/>
<path d="M84.5696 39.685C84.5696 40.2436 84.1125 40.7006 83.5539 40.7006H51.3672C50.8086 40.7006 50.3516 40.2436 50.3516 39.685V24.9141C50.3516 24.3555 50.8086 23.8984 51.3672 23.8984H83.5539C84.1125 23.8984 84.5696 24.3555 84.5696 24.9141V39.685Z" fill="#FFAF10"/>
<path d="M54.3859 39.685V24.9141C54.3859 24.3555 54.8429 23.8984 55.4015 23.8984H51.3711C50.8125 23.8984 50.3555 24.3555 50.3555 24.9141V39.685C50.3555 40.2436 50.8125 40.7006 51.3711 40.7006H55.4015C54.8429 40.7006 54.3859 40.2436 54.3859 39.685Z" fill="#FF9518"/>
<path d="M60.7884 46.5391H52.0313C51.1899 46.5391 50.5078 45.8572 50.5078 45.0156C50.5078 44.1741 51.1899 43.4922 52.0313 43.4922H60.7884C61.6298 43.4922 62.3119 44.1741 62.3119 45.0156C62.3119 45.8572 61.6298 46.5391 60.7884 46.5391Z" fill="#C3DDF4"/>
<path d="M60.7884 51.168H52.0313C51.1899 51.168 50.5078 50.4861 50.5078 49.6445C50.5078 48.803 51.1899 48.1211 52.0313 48.1211H60.7884C61.6298 48.1211 62.3119 48.803 62.3119 49.6445C62.3119 50.4861 61.6298 51.168 60.7884 51.168Z" fill="#C3DDF4"/>
<path d="M71.3521 46.5391H64.8399C63.9985 46.5391 63.3164 45.8572 63.3164 45.0156C63.3164 44.1741 63.9985 43.4922 64.8399 43.4922H71.3521C72.1934 43.4922 72.8755 44.1741 72.8755 45.0156C72.8755 45.8572 72.1934 46.5391 71.3521 46.5391Z" fill="#C3DDF4"/>
<path d="M71.3521 51.168H64.8399C63.9985 51.168 63.3164 50.4861 63.3164 49.6445C63.3164 48.803 63.9985 48.1211 64.8399 48.1211H71.3521C72.1934 48.1211 72.8755 48.803 72.8755 49.6445C72.8755 50.4861 72.1934 51.168 71.3521 51.168Z" fill="#C3DDF4"/>
<path d="M83.6425 46.5391H75.3477C74.5063 46.5391 73.8242 45.8572 73.8242 45.0156C73.8242 44.1741 74.5063 43.4922 75.3477 43.4922H83.6425C84.4839 43.4922 85.166 44.1741 85.166 45.0156C85.166 45.8572 84.4839 46.5391 83.6425 46.5391Z" fill="#C3DDF4"/>
<path d="M83.6425 51.168H75.3477C74.5063 51.168 73.8242 50.4861 73.8242 49.6445C73.8242 48.803 74.5063 48.1211 75.3477 48.1211H83.6425C84.4839 48.1211 85.166 48.803 85.166 49.6445C85.166 50.4861 84.4839 51.168 83.6425 51.168Z" fill="#C3DDF4"/>
<path d="M72.9959 20.3299C72.9959 20.8885 72.5389 21.3455 71.9803 21.3455H69.7461C69.1875 21.3455 68.7305 20.8885 68.7305 20.3299V18.0957C68.7305 17.5371 69.1875 17.0801 69.7461 17.0801H71.9803C72.5389 17.0801 72.9959 17.5371 72.9959 18.0957V20.3299Z" fill="#EF8318"/>
<path d="M78.6834 20.3299C78.6834 20.8885 78.2264 21.3455 77.6678 21.3455H75.4336C74.875 21.3455 74.418 20.8885 74.418 20.3299V18.0957C74.418 17.5371 74.875 17.0801 75.4336 17.0801H77.6678C78.2264 17.0801 78.6834 17.5371 78.6834 18.0957V20.3299Z" fill="#EF8318"/>
<path d="M84.3709 20.3299C84.3709 20.8885 83.9139 21.3455 83.3553 21.3455H81.1211C80.5625 21.3455 80.1055 20.8885 80.1055 20.3299V18.0957C80.1055 17.5371 80.5625 17.0801 81.1211 17.0801H83.3553C83.9139 17.0801 84.3709 17.5371 84.3709 18.0957V20.3299Z" fill="#EF8318"/>
<path d="M38.7774 49.9727H36.9492C36.1079 49.9727 35.4258 49.2908 35.4258 48.4492C35.4258 47.6077 36.1079 46.9258 36.9492 46.9258H38.7774C39.6187 46.9258 40.3008 47.6077 40.3008 48.4492C40.3008 49.2908 39.6187 49.9727 38.7774 49.9727Z" fill="#69CDFF"/>
<path d="M31.8711 49.9727H30.043C29.2016 49.9727 28.5195 49.2908 28.5195 48.4492C28.5195 47.6077 29.2016 46.9258 30.043 46.9258H31.8711C32.7125 46.9258 33.3946 47.6077 33.3946 48.4492C33.3946 49.2908 32.7125 49.9727 31.8711 49.9727Z" fill="#69CDFF"/>
<path d="M24.9649 49.9727H23.1367C22.2954 49.9727 21.6133 49.2908 21.6133 48.4492C21.6133 47.6077 22.2954 46.9258 23.1367 46.9258H24.9649C25.8062 46.9258 26.4883 47.6077 26.4883 48.4492C26.4885 49.2908 25.8064 49.9727 24.9649 49.9727Z" fill="#69CDFF"/>
<path d="M18.0586 49.9727H16.2305C15.3891 49.9727 14.707 49.2908 14.707 48.4492C14.707 47.6077 15.3891 46.9258 16.2305 46.9258H18.0586C18.9 46.9258 19.5821 47.6077 19.5821 48.4492C19.5821 49.2908 18.9002 49.9727 18.0586 49.9727Z" fill="#69CDFF"/>
<path d="M44.7188 43.6953C43.8774 43.6953 43.1953 43.0134 43.1953 42.1719V40.3438C43.1953 39.5024 43.8774 38.8203 44.7188 38.8203C45.5601 38.8203 46.2422 39.5024 46.2422 40.3438V42.1719C46.2422 43.0134 45.5601 43.6953 44.7188 43.6953Z" fill="#69CDFF"/>
<path d="M44.7188 36.7891C43.8774 36.7891 43.1953 36.1072 43.1953 35.2656V33.4375C43.1953 32.5962 43.8774 31.9141 44.7188 31.9141C45.5601 31.9141 46.2422 32.5962 46.2422 33.4375V35.2656C46.2422 36.1072 45.5601 36.7891 44.7188 36.7891Z" fill="#69CDFF"/>
<path d="M44.7188 29.8828C43.8774 29.8828 43.1953 29.2009 43.1953 28.3594V26.5313C43.1953 25.6899 43.8774 25.0078 44.7188 25.0078C45.5601 25.0078 46.2422 25.6899 46.2422 26.5313V28.3594C46.2422 29.2009 45.5601 29.8828 44.7188 29.8828Z" fill="#69CDFF"/>
<path d="M10.1875 43.6953C9.34616 43.6953 8.66406 43.0134 8.66406 42.1719V40.3438C8.66406 39.5024 9.34616 38.8203 10.1875 38.8203C11.0289 38.8203 11.711 39.5024 11.711 40.3438V42.1719C11.711 43.0134 11.0291 43.6953 10.1875 43.6953Z" fill="#69CDFF"/>
<path d="M10.1875 36.7891C9.34616 36.7891 8.66406 36.1072 8.66406 35.2656V33.4375C8.66406 32.5962 9.34616 31.9141 10.1875 31.9141C11.0289 31.9141 11.711 32.5962 11.711 33.4375V35.2656C11.711 36.1072 11.0291 36.7891 10.1875 36.7891Z" fill="#69CDFF"/>
<path d="M10.1875 29.8828C9.34616 29.8828 8.66406 29.2009 8.66406 28.3594V26.5313C8.66406 25.6899 9.34616 25.0078 10.1875 25.0078C11.0289 25.0078 11.711 25.6899 11.711 26.5313V28.3594C11.711 29.2009 11.0291 29.8828 10.1875 29.8828Z" fill="#69CDFF"/>
<path d="M38.7774 22.3457H36.9492C36.1079 22.3457 35.4258 21.6638 35.4258 20.8223C35.4258 19.9807 36.1079 19.2988 36.9492 19.2988H38.7774C39.6187 19.2988 40.3008 19.9807 40.3008 20.8223C40.3008 21.6638 39.6187 22.3457 38.7774 22.3457Z" fill="#69CDFF"/>
<path d="M31.8711 22.3457H30.043C29.2016 22.3457 28.5195 21.6638 28.5195 20.8223C28.5195 19.9807 29.2016 19.2988 30.043 19.2988H31.8711C32.7125 19.2988 33.3946 19.9807 33.3946 20.8223C33.3946 21.6638 32.7125 22.3457 31.8711 22.3457Z" fill="#69CDFF"/>
<path d="M24.9649 22.3457H23.1367C22.2954 22.3457 21.6133 21.6638 21.6133 20.8223C21.6133 19.9807 22.2954 19.2988 23.1367 19.2988H24.9649C25.8062 19.2988 26.4883 19.9807 26.4883 20.8223C26.4883 21.6638 25.8064 22.3457 24.9649 22.3457Z" fill="#69CDFF"/>
<path d="M18.0586 22.3457H16.2305C15.3891 22.3457 14.707 21.6638 14.707 20.8223C14.707 19.9807 15.3891 19.2988 16.2305 19.2988H18.0586C18.9 19.2988 19.5821 19.9807 19.5821 20.8223C19.5821 21.6638 18.9002 22.3457 18.0586 22.3457Z" fill="#69CDFF"/>
<path d="M40.6525 43.3692C40.6525 43.9278 40.1954 44.3849 39.6368 44.3849H15.2617C14.7031 44.3849 14.2461 43.9278 14.2461 43.3692V25.9004C14.2461 25.3418 14.7031 24.8848 15.2617 24.8848H39.6368C40.1954 24.8848 40.6525 25.3418 40.6525 25.9004V43.3692Z" fill="#5DC1D8"/>
<path d="M18.2767 43.3692V25.9004C18.2767 25.3418 18.7338 24.8848 19.2924 24.8848H15.2617C14.7031 24.8848 14.2461 25.3418 14.2461 25.9004V43.3692C14.2461 43.9278 14.7031 44.3849 15.2617 44.3849H19.2924C18.7338 44.3849 18.2767 43.9278 18.2767 43.3692Z" fill="#28A5A5"/>
<path d="M47.5625 22.3457C47.5625 22.9043 47.1055 23.3614 46.5469 23.3614H42.2813C41.7227 23.3614 41.2656 22.9043 41.2656 22.3457V18.0801C41.2656 17.5215 41.7227 17.0645 42.2813 17.0645H46.5469C47.1055 17.0645 47.5625 17.5215 47.5625 18.0801V22.3457Z" fill="#52BBEF"/>
<path d="M13.8438 22.752C13.8438 23.3106 13.3867 23.7676 12.8282 23.7676H8.56251C8.00391 23.7676 7.54688 23.3106 7.54688 22.752V18.4863C7.54688 17.9277 8.00391 17.4707 8.56251 17.4707H12.8282C13.3867 17.4707 13.8438 17.9277 13.8438 18.4863V22.752Z" fill="#52BBEF"/>
<path d="M47.5625 50.7578C47.5625 51.3164 47.1055 51.7735 46.5469 51.7735H42.2813C41.7227 51.7735 41.2656 51.3164 41.2656 50.7578V46.4922C41.2656 45.9336 41.7227 45.4766 42.2813 45.4766H46.5469C47.1055 45.4766 47.5625 45.9336 47.5625 46.4922V50.7578Z" fill="#52BBEF"/>
<path d="M13.8438 50.7578C13.8438 51.3164 13.3867 51.7735 12.8282 51.7735H8.56251C8.00391 51.7735 7.54688 51.3164 7.54688 50.7578V46.4922C7.54688 45.9336 8.00391 45.4766 8.56251 45.4766H12.8282C13.3867 45.4766 13.8438 45.9336 13.8438 46.4922V50.7578Z" fill="#52BBEF"/>
<path d="M43.5045 22.3457V18.0801C43.5045 17.5215 43.9615 17.0645 44.5201 17.0645H42.2813C41.7227 17.0645 41.2656 17.5215 41.2656 18.0801V22.3457C41.2656 22.9043 41.7227 23.3614 42.2813 23.3614H44.5201C43.9615 23.3614 43.5045 22.9043 43.5045 22.3457Z" fill="#1E99D6"/>
<path d="M9.78573 22.752V18.4863C9.78573 17.9277 10.2428 17.4707 10.8014 17.4707H8.56251C8.00391 17.4707 7.54688 17.9277 7.54688 18.4863V22.752C7.54688 23.3106 8.00391 23.7676 8.56251 23.7676H10.8014C10.2428 23.7676 9.78573 23.3106 9.78573 22.752Z" fill="#1E99D6"/>
<path d="M43.5045 50.7578V46.4922C43.5045 45.9336 43.9615 45.4766 44.5201 45.4766H42.2813C41.7227 45.4766 41.2656 45.9336 41.2656 46.4922V50.7578C41.2656 51.3164 41.7227 51.7735 42.2813 51.7735H44.5201C43.9615 51.7735 43.5045 51.3164 43.5045 50.7578Z" fill="#1E99D6"/>
<path d="M9.78573 50.7578V46.4922C9.78573 45.9336 10.2428 45.4766 10.8014 45.4766H8.56251C8.00391 45.4766 7.54688 45.9336 7.54688 46.4922V50.7578C7.54688 51.3164 8.00391 51.7735 8.56251 51.7735H10.8014C10.2428 51.7735 9.78573 51.3164 9.78573 50.7578Z" fill="#1E99D6"/>
<path d="M88.4524 72.267C88.4209 72.1812 88.4233 72.1325 88.4278 72.1166C88.4278 72.1166 88.4404 72.1154 88.4519 72.1154C88.4751 72.1154 88.5155 72.1201 88.5767 72.1427L97.1291 75.284V56.0606C97.1291 55.502 96.6721 55.0449 96.1135 55.0449H63.8164C63.2578 55.0449 62.8008 55.502 62.8008 56.0606V79.3794C62.8008 79.938 63.2578 80.395 63.8164 80.395H91.4375L88.4524 72.267Z" fill="#5DC1D8"/>
<path d="M66.8312 79.3794V56.0606C66.8312 55.502 67.2882 55.0449 67.8468 55.0449H63.8164C63.2578 55.0449 62.8008 55.502 62.8008 56.0606V79.3794C62.8008 79.938 63.2578 80.395 63.8164 80.395H67.8468C67.2882 80.395 66.8312 79.938 66.8312 79.3794Z" fill="#28A5A5"/>
<path d="M88.6473 71.9517C88.3128 71.8288 88.1393 72.002 88.2622 72.3368L93.6176 86.9176C93.7405 87.2523 94.0474 87.3198 94.2995 87.0677L97.1426 84.2245C97.3947 83.9725 97.8073 83.9725 98.0598 84.2245L101.336 87.501C101.588 87.753 102 87.753 102.253 87.501L103.811 85.9422C104.064 85.6901 104.064 85.2773 103.811 85.0253L100.535 81.749C100.283 81.497 100.283 81.0844 100.535 80.8321L103.378 77.989C103.63 77.7371 103.563 77.4302 103.228 77.3073L88.6473 71.9517Z" fill="#293D7C"/>
</svg>
