<svg width="81" height="81" viewBox="0 0 81 81" fill="none" xmlns="http://www.w3.org/2000/svg">
<path d="M81 20.0412H0V5.84536C0 2.61705 2.61705 0 5.84536 0H75.1546C78.3829 0 81 2.61705 81 5.84536V20.0412Z" fill="#FF8295"/>
<path d="M72.6495 20.0412H0V5.84536C0 2.61705 2.61705 0 5.84536 0H72.6495V20.0412Z" fill="#FFA1B0"/>
<path d="M81 17.5352H0V75.1537C0 78.382 2.61705 80.9991 5.84536 80.9991H75.1546C78.3829 80.9991 81 78.382 81 75.1537V17.5352Z" fill="#2D69AD"/>
<path d="M65.8269 68.994L69.2049 68.0558C71.1357 65.4534 72.3624 62.2979 72.6044 58.8702L70.9969 57.6176L72.6495 56.3651V17.5352H0V69.3084C0 72.5367 2.61705 75.1537 5.84536 75.1537H48.0153L57.6184 74.7384L61.632 73.9011C63.6052 73.1105 65.4012 71.972 66.9441 70.5609L65.8269 68.994Z" fill="#3165DC"/>
<path d="M66.9453 70.5618H72.6506C73.3423 70.5618 73.9031 70.0011 73.9031 69.3092C73.9031 68.6173 73.3423 68.0566 72.6506 68.0566H66.9453V70.5618Z" fill="#F8D892"/>
<path d="M58.5036 62.5777C58.2688 62.3429 57.9502 62.2109 57.618 62.2109H47.0963C46.4046 62.2109 45.8438 62.7716 45.8438 63.4635C45.8438 64.1554 46.4046 64.7161 47.0963 64.7161H57.0992L62.5777 70.1947C62.8125 70.4295 63.1312 70.5615 63.4633 70.5615H66.9437C67.7747 69.8014 68.5321 68.9623 69.2045 68.0563H63.9822L58.5036 62.5777Z" fill="#FEE785"/>
<path d="M72.6034 58.8704H72.6484C73.3401 58.8704 73.901 58.3097 73.901 57.6178C73.901 56.9259 73.3401 56.3652 72.6484 56.3652L71.7617 57.6178L72.6034 58.8704Z" fill="#F8D892"/>
<path d="M56.3633 57.6178C56.3633 58.3097 56.9241 58.8704 57.6159 58.8704H72.6019C72.6311 58.4565 72.6468 58.039 72.6468 57.6178V56.3652H57.6159C56.9241 56.3652 56.3633 56.9259 56.3633 57.6178Z" fill="#FEE785"/>
<path d="M48.0156 75.1549C48.0156 75.8468 48.5764 76.4075 49.2682 76.4075H72.6496C73.3414 76.4075 73.9022 75.8468 73.9022 75.1549C73.9022 74.463 73.3414 73.9023 72.6496 73.9023H61.6323L48.0156 75.1549Z" fill="#548CFE"/>
<path d="M48.0156 75.1549H55.1136C57.4173 75.1549 59.617 74.7098 61.6323 73.9023H49.2682C48.5764 73.9023 48.0156 74.463 48.0156 75.1549Z" fill="#76A3FE"/>
<path d="M69.726 29.2266H46.3446C44.7304 29.2266 43.4219 30.5351 43.4219 32.1492V46.3451C43.4219 47.9593 44.7304 49.2678 46.3446 49.2678H69.726C71.3402 49.2678 72.6487 47.9593 72.6487 46.3451V32.1492C72.6487 30.5351 71.3402 29.2266 69.726 29.2266Z" fill="#548CFE"/>
<path d="M65.5507 29.2266H46.3446C44.7304 29.2266 43.4219 30.5351 43.4219 32.1492V43.0049C43.4219 44.6191 44.7304 45.9276 46.3446 45.9276H65.5507C67.1649 45.9276 68.4734 44.6191 68.4734 43.0049V32.1492C68.4734 30.5351 67.1649 29.2266 65.5507 29.2266Z" fill="#76A3FE"/>
<path d="M66.8028 44.6746H62.6276C61.9358 44.6746 61.375 44.1139 61.375 43.422C61.375 42.7301 61.9358 42.1694 62.6276 42.1694H65.5503V39.2467C65.5503 38.5548 66.1111 37.9941 66.8028 37.9941C67.4946 37.9941 68.0554 38.5548 68.0554 39.2467V43.422C68.0554 44.1139 67.4946 44.6746 66.8028 44.6746Z" fill="#FFF4F4"/>
<path d="M49.2682 40.5007C48.5764 40.5007 48.0156 39.9401 48.0156 39.2481V35.0729C48.0156 34.381 48.5764 33.8203 49.2682 33.8203H53.4435C54.1352 33.8203 54.696 34.381 54.696 35.0729C54.696 35.7648 54.1352 36.3255 53.4435 36.3255H50.5208V39.2481C50.5208 39.9401 49.96 40.5007 49.2682 40.5007Z" fill="#FFF4F4"/>
<path d="M34.6557 29.2266H11.2742C9.66009 29.2266 8.35156 30.5351 8.35156 32.1492V46.3451C8.35156 47.9593 9.66009 49.2678 11.2742 49.2678H34.6557C36.2698 49.2678 37.5784 47.9593 37.5784 46.3451V32.1492C37.5784 30.5351 36.2698 29.2266 34.6557 29.2266Z" fill="#548CFE"/>
<path d="M30.4804 29.2266H11.2742C9.66009 29.2266 8.35156 30.5351 8.35156 32.1492V43.0049C8.35156 44.6191 9.66009 45.9276 11.2742 45.9276H30.4804C32.0946 45.9276 33.4031 44.6191 33.4031 43.0049V32.1492C33.4031 30.5351 32.0946 29.2266 30.4804 29.2266Z" fill="#76A3FE"/>
<path d="M31.7325 44.6746H27.5573C26.8655 44.6746 26.3047 44.1139 26.3047 43.422C26.3047 42.7301 26.8655 42.1694 27.5573 42.1694H30.4799V39.2467C30.4799 38.5548 31.0408 37.9941 31.7325 37.9941C32.4243 37.9941 32.9851 38.5548 32.9851 39.2467V43.422C32.9851 44.1139 32.4243 44.6746 31.7325 44.6746Z" fill="#FFF4F4"/>
<path d="M14.1979 40.5007C13.5061 40.5007 12.9453 39.9401 12.9453 39.2481V35.0729C12.9453 34.381 13.5061 33.8203 14.1979 33.8203H18.3731C19.0649 33.8203 19.6257 34.381 19.6257 35.0729C19.6257 35.7648 19.0649 36.3255 18.3731 36.3255H15.4505V39.2481C15.4505 39.9401 14.8896 40.5007 14.1979 40.5007Z" fill="#FFF4F4"/>
<path d="M34.6557 55.1133H11.2742C9.66009 55.1133 8.35156 56.4218 8.35156 58.036V72.2318C8.35156 73.846 9.66009 75.1545 11.2742 75.1545H34.6557C36.2698 75.1545 37.5784 73.846 37.5784 72.2318V58.036C37.5784 56.4218 36.2698 55.1133 34.6557 55.1133Z" fill="#548CFE"/>
<path d="M30.4804 55.1133H11.2742C9.66009 55.1133 8.35156 56.4218 8.35156 58.036V68.8916C8.35156 70.5058 9.66009 71.8143 11.2742 71.8143H30.4804C32.0946 71.8143 33.4031 70.5058 33.4031 68.8916V58.036C33.4031 56.4218 32.0946 55.1133 30.4804 55.1133Z" fill="#76A3FE"/>
<path d="M31.7286 70.5613H27.5534C26.8616 70.5613 26.3008 70.0006 26.3008 69.3087C26.3008 68.6168 26.8616 68.0561 27.5534 68.0561H30.476V65.1334C30.476 64.4415 31.0369 63.8809 31.7286 63.8809C32.4204 63.8809 32.9812 64.4415 32.9812 65.1334V69.3087C32.9812 70.0006 32.4204 70.5613 31.7286 70.5613Z" fill="#FFF4F4"/>
<path d="M14.194 66.3874C13.5022 66.3874 12.9414 65.8268 12.9414 65.1349V60.9596C12.9414 60.2677 13.5022 59.707 14.194 59.707H18.3692C19.061 59.707 19.6218 60.2677 19.6218 60.9596C19.6218 61.6515 19.061 62.2122 18.3692 62.2122H15.4466V65.1349C15.4466 65.8268 14.8857 66.3874 14.194 66.3874Z" fill="#FFF4F4"/>
<path d="M37.577 24.6341H8.35023C7.65848 24.6341 7.09766 24.0734 7.09766 23.3815C7.09766 22.6896 7.65848 22.1289 8.35023 22.1289H37.577C38.2688 22.1289 38.8296 22.6896 38.8296 23.3815C38.8296 24.0734 38.2688 24.6341 37.577 24.6341Z" fill="#FFF4F4"/>
<path d="M33.2022 6.04297L29.4258 9.81941C29.8485 10.913 30.9073 11.6899 32.1501 11.6899C33.7642 11.6899 35.0727 10.3814 35.0727 8.76724C35.0727 7.52452 34.2958 6.46567 33.2022 6.04297Z" fill="#548CFE"/>
<path d="M33.3998 7.09628C33.3998 6.72485 33.3278 6.37095 33.2014 6.04411C32.8746 5.91785 32.5207 5.8457 32.1492 5.8457C30.5351 5.8457 29.2266 7.15423 29.2266 8.76838C29.2266 9.13981 29.2985 9.49371 29.425 9.82055C29.7518 9.94681 30.1057 10.019 30.4771 10.019C32.0913 10.019 33.3998 8.71043 33.3998 7.09628Z" fill="#76A3FE"/>
<path d="M21.5108 6.04297L17.7344 9.81941C18.1571 10.913 19.2159 11.6899 20.4586 11.6899C22.0728 11.6899 23.3813 10.3814 23.3813 8.76724C23.3813 7.52452 22.6044 6.46567 21.5108 6.04297Z" fill="#FACF23"/>
<path d="M21.7084 7.09628C21.7084 6.72485 21.6364 6.37095 21.51 6.04411C21.1832 5.91785 20.8293 5.8457 20.4578 5.8457C18.8437 5.8457 17.5352 7.15423 17.5352 8.76838C17.5352 9.13981 17.6071 9.49371 17.7336 9.82055C18.0604 9.94681 18.4143 10.019 18.7857 10.019C20.3999 10.019 21.7084 8.71043 21.7084 7.09628Z" fill="#FEE785"/>
<path d="M9.81941 6.04297L6.04297 9.81941C6.46567 10.913 7.52452 11.6899 8.76724 11.6899C10.3814 11.6899 11.6899 10.3814 11.6899 8.76724C11.6899 7.52452 10.913 6.46567 9.81941 6.04297Z" fill="#F63E52"/>
<path d="M10.0168 7.09611C10.0168 6.72468 9.94486 6.37078 9.81843 6.04394C9.49176 5.91768 9.13786 5.8457 8.76643 5.8457C7.15228 5.8457 5.84375 7.15423 5.84375 8.76838C5.84375 9.13981 5.91573 9.49371 6.04216 9.82055C6.369 9.94681 6.72289 10.019 7.09432 10.019C8.70831 10.0188 10.0168 8.71026 10.0168 7.09611Z" fill="#FF637B"/>
<path d="M75.1564 12.9427H43.4245C42.7327 12.9427 42.1719 12.382 42.1719 11.6901C42.1719 10.9982 42.7327 10.4375 43.4245 10.4375H75.1564C75.8482 10.4375 76.409 10.9982 76.409 11.6901C76.409 12.382 75.8482 12.9427 75.1564 12.9427Z" fill="#F63E52"/>
<path d="M72.6513 12.9427H43.4245C42.7327 12.9427 42.1719 12.382 42.1719 11.6901C42.1719 10.9982 42.7327 10.4375 43.4245 10.4375H72.6513V12.9427Z" fill="#FF637B"/>
<path d="M75.1542 7.0989H63.4635C62.7718 7.0989 62.2109 6.53825 62.2109 5.84633C62.2109 5.1544 62.7718 4.59375 63.4635 4.59375H75.1542C75.846 4.59375 76.4068 5.1544 76.4068 5.84633C76.4068 6.53825 75.846 7.0989 75.1542 7.0989Z" fill="#F63E52"/>
<path d="M72.6491 7.0989H63.4635C62.7718 7.0989 62.2109 6.53825 62.2109 5.84633C62.2109 5.1544 62.7718 4.59375 63.4635 4.59375H72.6491V7.0989Z" fill="#FF637B"/>
<path d="M43.4245 76.4075C44.1162 76.4075 44.677 75.8467 44.677 75.1549C44.677 74.4631 44.1162 73.9023 43.4245 73.9023C42.7327 73.9023 42.1719 74.4631 42.1719 75.1549C42.1719 75.8467 42.7327 76.4075 43.4245 76.4075Z" fill="#548CFE"/>
<path d="M44.677 75.1549H42.1719C42.1719 74.4632 42.7327 73.9023 43.4245 73.9023C44.1162 73.9023 44.677 74.4632 44.677 75.1549Z" fill="#76A3FE"/>
<path d="M48.0147 66.3864H44.6745C43.9827 66.3864 43.4219 65.8256 43.4219 65.1338V61.7936C43.4219 61.1018 43.9827 60.541 44.6745 60.541H48.0147C48.7064 60.541 49.2672 61.1018 49.2672 61.7936V65.1338C49.2672 65.8256 48.7064 66.3864 48.0147 66.3864Z" fill="#FACF23"/>
<path d="M46.3446 64.7163H43.4219V61.7936C43.4219 61.1018 43.9827 60.541 44.6745 60.541H47.5971V63.4637C47.5971 64.1555 47.0363 64.7163 46.3446 64.7163Z" fill="#FEE785"/>
</svg>
