<svg width="95" height="89" viewBox="0 0 95 89" fill="none" xmlns="http://www.w3.org/2000/svg">
<path d="M93.3867 76.7196H1.94409C1.05356 76.7196 0.332031 75.9981 0.332031 75.1076V16.7527C0.332031 15.8622 1.05356 15.1406 1.94409 15.1406H93.3867C94.2772 15.1406 94.9987 15.8622 94.9987 16.7527V75.1076C94.9987 75.9981 94.2772 76.7196 93.3867 76.7196Z" fill="#6770E6"/>
<path d="M5.87891 69.5607V22.2996C5.87891 21.409 6.60043 20.6875 7.49097 20.6875H87.8398C88.7303 20.6875 89.4518 21.409 89.4518 22.2996V69.5607C89.4518 70.4512 88.7303 71.1727 87.8398 71.1727H7.49097C6.60043 71.1727 5.87891 70.4512 5.87891 69.5607Z" fill="#A1F1FC"/>
<path d="M37.1523 76.7188H58.1756V83.9817H37.1523V76.7188Z" fill="#5861C7"/>
<path d="M63.54 88.0436H31.7841C30.6632 88.0436 29.7539 87.1343 29.7539 86.0134C29.7539 84.8917 30.6632 83.9824 31.7841 83.9824H63.54C64.6609 83.9824 65.5703 84.8917 65.5703 86.0134C65.5703 87.1343 64.6609 88.0436 63.54 88.0436Z" fill="#6770E6"/>
<path d="M63.54 86.1937H31.7841C30.9962 86.1937 30.3144 85.7437 29.9778 85.0879C29.8355 85.3652 29.7539 85.6787 29.7539 86.0124C29.7539 87.1333 30.6632 88.0426 31.7841 88.0426H63.54C64.6609 88.0426 65.5703 87.1333 65.5703 86.0124C65.5703 85.6787 65.4886 85.3652 65.3464 85.0879C65.0098 85.7437 64.328 86.1937 63.54 86.1937Z" fill="#5861C7"/>
<path d="M89.4987 69.3475V53.6465H5.92578V69.3475C5.92578 70.355 6.64731 71.1719 7.53784 71.1719H87.8867C88.7772 71.1719 89.4987 70.355 89.4987 69.3475Z" fill="#5FD4E3"/>
<path d="M26.9413 65.166C26.9413 66.2486 26.0631 67.1269 24.9804 67.1269C23.8978 67.1269 23.0195 66.2486 23.0195 65.166C23.0195 64.0826 23.8978 63.2051 24.9804 63.2051C26.0631 63.2051 26.9413 64.0826 26.9413 65.166Z" fill="#FFEFE4"/>
<path d="M35.6679 65.166C35.6679 66.2486 34.7897 67.1269 33.707 67.1269C32.6236 67.1269 31.7461 66.2486 31.7461 65.166C31.7461 64.0826 32.6236 63.2051 33.707 63.2051C34.7897 63.2051 35.6679 64.0826 35.6679 65.166Z" fill="#FFEFE4"/>
<path d="M44.3945 65.166C44.3945 66.2486 43.5169 67.1269 42.4336 67.1269C41.3509 67.1269 40.4727 66.2486 40.4727 65.166C40.4727 64.0826 41.3509 63.2051 42.4336 63.2051C43.5169 63.2051 44.3945 64.0826 44.3945 65.166Z" fill="#FFEFE4"/>
<path d="M53.1249 65.166C53.1249 66.2486 52.2467 67.1269 51.164 67.1269C50.0814 67.1269 49.2031 66.2486 49.2031 65.166C49.2031 64.0826 50.0814 63.2051 51.164 63.2051C52.2467 63.2051 53.1249 64.0826 53.1249 65.166Z" fill="#FFEFE4"/>
<path d="M61.8547 65.166C61.8547 66.2486 60.9772 67.1269 59.8945 67.1269C58.8111 67.1269 57.9336 66.2486 57.9336 65.166C57.9336 64.0826 58.8111 63.2051 59.8945 63.2051C60.9772 63.2051 61.8547 64.0826 61.8547 65.166Z" fill="#FFEFE4"/>
<path d="M70.5859 65.166C70.5859 66.2486 69.7083 67.1269 68.625 67.1269C67.5423 67.1269 66.6641 66.2486 66.6641 65.166C66.6641 64.0826 67.5423 63.2051 68.625 63.2051C69.7083 63.2051 70.5859 64.0826 70.5859 65.166Z" fill="#FFEFE4"/>
<path d="M16.1619 67.6153L13.9821 65.4356C13.8341 65.2875 13.8341 65.0456 13.9821 64.8982L16.1619 62.7185C16.3092 62.5704 16.5512 62.5704 16.6992 62.7185L18.879 64.8982C19.0263 65.0456 19.0263 65.2875 18.879 65.4356L16.6992 67.6153C16.5512 67.7627 16.3092 67.7627 16.1619 67.6153Z" fill="#FFEFE4"/>
<path d="M77.5525 67.6153L75.3728 65.4356C75.2247 65.2875 75.2247 65.0456 75.3728 64.8982L77.5525 62.7185C77.6999 62.5704 77.9418 62.5704 78.0891 62.7185L80.2689 64.8982C80.417 65.0456 80.417 65.2875 80.2689 65.4356L78.0891 67.6153C77.9418 67.7627 77.6999 67.7627 77.5525 67.6153Z" fill="#FFEFE4"/>
<path d="M82.8495 28.6693C82.8495 34.1136 78.4358 38.5272 72.9915 38.5272C67.5472 38.5272 63.1328 34.1136 63.1328 28.6693C63.1328 23.2249 67.5472 18.8105 72.9915 18.8105C78.4358 18.8105 82.8495 23.2249 82.8495 28.6693Z" fill="#FF8354"/>
<path d="M72.9915 20.6595C78.1238 20.6595 82.3389 24.5828 82.8054 29.5937C82.8336 29.2889 82.8495 28.9813 82.8495 28.6693C82.8495 23.2242 78.4358 18.8105 72.9915 18.8105C67.5465 18.8105 63.1328 23.2242 63.1328 28.6693C63.1328 28.9813 63.1494 29.2889 63.1776 29.5937C63.6442 24.5828 67.8585 20.6595 72.9915 20.6595Z" fill="#FFAC8C"/>
<path d="M62.15 30.861C62.0171 30.055 61.2551 29.5111 60.4498 29.6426C45.8474 32.0535 38.7419 39.4623 35.3517 45.2533C34.7139 46.3432 34.1802 47.415 33.7346 48.4435C32.7025 41.7244 30.514 35.2285 27.1939 29.046C23.3703 21.9275 18.0466 15.2113 11.3708 9.0852C7.55301 5.58301 3.75615 2.68968 0.378906 0.382812V4.00201C3.2224 6.02792 6.29991 8.44817 9.37019 11.2649C15.8011 17.1664 20.9211 23.6197 24.5873 30.4457C29.1519 38.9437 31.466 48.0578 31.466 57.5344C31.466 58.3426 32.1145 58.9991 32.9227 59.0114H32.9451C33.7432 59.0114 34.399 58.3758 34.4236 57.5756C34.425 57.5236 34.6215 52.2873 37.9763 46.6263C39.9307 43.3278 42.5677 40.5218 45.8135 38.2857C49.9036 35.4683 54.9896 33.542 60.9316 32.5612C61.7376 32.4283 62.2829 31.6671 62.15 30.861Z" fill="#D476E2"/>
</svg>
