<svg width="64" height="64" viewBox="0 0 64 64" fill="none" xmlns="http://www.w3.org/2000/svg">
<path d="M52.0457 36.8345C52.5258 36.8377 52.9906 36.6661 53.3534 36.3516C53.7161 36.0372 53.952 35.6015 54.017 35.1258C54.307 33.0559 54.307 30.9557 54.017 28.8858C53.9531 28.4092 53.7177 27.9723 53.3549 27.6568C52.992 27.3414 52.5266 27.169 52.0457 27.172H49.8632C49.4492 25.6414 48.8387 24.1709 48.047 22.797L49.5907 21.2508C49.9328 20.9128 50.1401 20.4618 50.1737 19.9821C50.2073 19.5024 50.0649 19.0269 49.7732 18.6445C48.5159 16.9747 47.0306 15.4894 45.3607 14.232C44.9787 13.9386 44.5026 13.7948 44.0219 13.8277C43.5413 13.8606 43.0892 14.068 42.7507 14.4108L41.207 15.9545C39.8334 15.1627 38.3628 14.5526 36.832 14.1395V11.9558C36.8353 11.4761 36.664 11.0116 36.35 10.6489C36.0361 10.2862 35.6009 10.0501 35.1257 9.98455C33.0558 9.69579 30.9557 9.69579 28.8857 9.98455C28.4092 10.0484 27.9722 10.2838 27.6568 10.6467C27.3413 11.0095 27.1689 11.475 27.172 11.9558V14.1395C25.6413 14.5528 24.1707 15.1629 22.797 15.9545L21.2507 14.4108C20.9128 14.0687 20.4618 13.8614 19.982 13.8279C19.5023 13.7943 19.0268 13.9366 18.6445 14.2283C16.9746 15.4857 15.4893 16.9709 14.232 18.6408C13.9385 19.0229 13.7948 19.499 13.8277 19.9796C13.8606 20.4602 14.0679 20.9123 14.4107 21.2508L15.9545 22.7945C15.1627 24.1684 14.5522 25.6389 14.1382 27.1695H11.9557C11.4761 27.1663 11.0115 27.3376 10.6488 27.6515C10.2861 27.9655 10.05 28.4006 9.98449 28.8758C9.69448 30.9457 9.69448 33.0459 9.98449 35.1158C10.0483 35.5924 10.2838 36.0293 10.6466 36.3448C11.0095 36.6602 11.4749 36.8326 11.9557 36.8295H14.1382C14.5522 38.3602 15.1627 39.8307 15.9545 41.2045L14.4107 42.7508C14.0686 43.0887 13.8614 43.5398 13.8278 44.0195C13.7942 44.4992 13.9366 44.9747 14.2282 45.357C15.4856 47.0269 16.9709 48.5122 18.6407 49.7695C19.0229 50.0627 19.499 50.2064 19.9795 50.1734C20.4601 50.1405 20.9121 49.9334 21.2507 49.5908L22.7932 48.047C24.1671 48.8384 25.6377 49.4485 27.1682 49.862V52.0458C27.165 52.5257 27.3365 52.9903 27.6507 53.3531C27.9649 53.7158 28.4003 53.9518 28.8757 54.017C30.9456 54.3071 33.0458 54.3071 35.1157 54.017C35.5923 53.9532 36.0292 53.7178 36.3447 53.3549C36.6602 52.992 36.8325 52.5266 36.8295 52.0458V49.862C38.3603 49.449 39.8309 48.8389 41.2045 48.047L42.7507 49.5908C43.0887 49.9329 43.5397 50.1401 44.0194 50.1737C44.4991 50.2073 44.9747 50.065 45.357 49.7733C47.0271 48.5163 48.5125 47.0309 49.7695 45.3608C50.0629 44.9787 50.2067 44.5026 50.1738 44.022C50.1409 43.5414 49.9335 43.0893 49.5907 42.7508L48.047 41.207C48.8383 39.8332 49.4484 38.3626 49.862 36.832L52.0457 36.8345ZM48.1032 35.6158C47.6898 37.4656 46.9586 39.2297 45.942 40.8295C45.8202 41.0213 45.7673 41.2489 45.7921 41.4747C45.8168 41.7006 45.9178 41.9112 46.0782 42.072L48.1707 44.1645C47.0286 45.6806 45.6797 47.0292 44.1632 48.1708L42.072 46.0795C41.9113 45.9189 41.7007 45.8177 41.4749 45.7927C41.249 45.7677 41.0214 45.8204 40.8295 45.942C39.2299 46.959 37.4657 47.6903 35.6157 48.1033C35.394 48.153 35.1957 48.2768 35.0537 48.4543C34.9117 48.6317 34.8344 48.8523 34.8345 49.0795V52.0383C32.9544 52.3002 31.0471 52.3002 29.167 52.0383V49.0795C29.1671 48.8523 29.0898 48.6317 28.9478 48.4543C28.8057 48.2768 28.6075 48.153 28.3857 48.1033C26.5359 47.6899 24.7718 46.9586 23.172 45.942C22.9802 45.8202 22.7527 45.7674 22.5268 45.7921C22.301 45.8169 22.0903 45.9178 21.9295 46.0783L19.837 48.1708C18.3231 47.0282 16.9767 45.6793 15.837 44.1633L17.9282 42.072C18.0889 41.9114 18.1901 41.7008 18.2151 41.4749C18.2401 41.2491 18.1874 41.0215 18.0657 40.8295C17.0487 39.2299 16.3174 37.4658 15.9045 35.6158C15.8548 35.394 15.731 35.1958 15.5535 35.0538C15.3761 34.9118 15.1555 34.8344 14.9282 34.8345H11.9632C11.7007 32.9545 11.7007 31.0471 11.9632 29.167H14.9207C15.148 29.1672 15.3686 29.0898 15.546 28.9478C15.7235 28.8058 15.8473 28.6076 15.897 28.3858C16.3102 26.5359 17.0415 24.7718 18.0582 23.172C18.1799 22.9801 18.2326 22.7525 18.2076 22.5267C18.1826 22.3008 18.0814 22.0902 17.9207 21.9295L15.8295 19.837C16.972 18.3232 18.321 16.9768 19.837 15.837L21.9282 17.9295C22.0891 18.09 22.2997 18.191 22.5256 18.2157C22.7514 18.2405 22.979 18.1876 23.1707 18.0658C24.7706 17.0492 26.5346 16.318 28.3845 15.9045C28.6063 15.8548 28.8045 15.731 28.9465 15.5536C29.0885 15.3761 29.1658 15.1556 29.1657 14.9283V11.9633C31.0458 11.7014 32.9531 11.7014 34.8332 11.9633V14.9208C34.8331 15.1481 34.9105 15.3686 35.0525 15.5461C35.1945 15.7235 35.3927 15.8473 35.6145 15.897C37.4643 16.3105 39.2284 17.0417 40.8282 18.0583C41.02 18.1801 41.2476 18.233 41.4734 18.2082C41.6992 18.1835 41.9099 18.0825 42.0707 17.922L44.1632 15.8295C45.6793 16.9717 47.0279 18.3206 48.1695 19.837L46.0782 21.9283C45.9176 22.089 45.8164 22.2996 45.7914 22.5254C45.7664 22.7513 45.8191 22.9789 45.9407 23.1708C46.9577 24.7704 47.689 26.5346 48.102 28.3845C48.1517 28.6063 48.2755 28.8046 48.4529 28.9466C48.6304 29.0886 48.851 29.1659 49.0782 29.1658H52.0382C52.3007 31.0458 52.3007 32.9532 52.0382 34.8333H49.0795C48.852 34.8333 48.6314 34.9108 48.4539 35.053C48.2764 35.1953 48.1527 35.3938 48.1032 35.6158ZM32.0007 20.187C29.6642 20.187 27.3801 20.8799 25.4374 22.178C23.4946 23.4761 21.9804 25.3212 21.0863 27.4799C20.1921 29.6386 19.9582 32.0139 20.414 34.3055C20.8698 36.5972 21.995 38.7022 23.6472 40.3544C25.2993 42.0066 27.4043 43.1317 29.696 43.5876C31.9876 44.0434 34.363 43.8094 36.5217 42.9153C38.6803 42.0211 40.5254 40.5069 41.8235 38.5642C43.1216 36.6214 43.8145 34.3373 43.8145 32.0008C43.8108 28.8687 42.565 25.866 40.3503 23.6512C38.1356 21.4365 35.1328 20.1907 32.0007 20.187ZM32.0007 41.812C30.0597 41.812 28.1622 41.2364 26.5483 40.158C24.9343 39.0795 23.6765 37.5467 22.9338 35.7533C22.1911 33.9599 21.9969 31.9866 22.3757 30.0828C22.7546 28.1791 23.6895 26.4304 25.0623 25.058C26.435 23.6857 28.1839 22.7512 30.0877 22.3728C31.9916 21.9944 33.9648 22.1891 35.758 22.9323C37.5512 23.6755 39.0837 24.9337 40.1618 26.5479C41.2398 28.1621 41.815 30.0597 41.8145 32.0008C41.8115 34.6027 40.7766 37.0971 38.9368 38.9369C37.097 40.7767 34.6026 41.8116 32.0007 41.8145V41.812ZM10.6532 12.3658C9.65231 13.4527 8.73628 14.6149 7.91324 15.842C7.84003 15.9512 7.74603 16.0449 7.63662 16.1177C7.52721 16.1905 7.40452 16.2411 7.27556 16.2665C7.1466 16.292 7.0139 16.2917 6.88503 16.2659C6.75616 16.24 6.63365 16.189 6.52449 16.1158C6.41533 16.0426 6.32166 15.9486 6.24882 15.8392C6.17599 15.7298 6.12542 15.6071 6.1 15.4781C6.07458 15.3492 6.0748 15.2165 6.10067 15.0876C6.12653 14.9587 6.17753 14.8362 6.25074 14.727C7.1319 13.4152 8.11227 12.1728 9.18324 11.0108C9.36498 10.8243 9.61231 10.716 9.87263 10.709C10.133 10.7021 10.3857 10.7969 10.5772 10.9734C10.7687 11.1499 10.8838 11.3941 10.898 11.6542C10.9122 11.9142 10.8244 12.1695 10.6532 12.3658ZM14.072 7.9283C13.9208 7.71061 13.8622 7.4418 13.909 7.18093C13.9559 6.92006 14.1045 6.68847 14.322 6.53705C19.6737 2.82221 26.0595 0.887382 32.573 1.0072C39.0865 1.12702 45.3968 3.29539 50.6082 7.20455L50.272 6.27205C50.1841 6.02309 50.1983 5.7495 50.3114 5.51094C50.4244 5.27238 50.6273 5.08822 50.8756 4.99862C51.1239 4.90902 51.3976 4.92126 51.637 5.03267C51.8763 5.14407 52.0619 5.3456 52.1532 5.5933L53.767 10.0645C53.8216 10.2156 53.839 10.3776 53.8178 10.5369C53.7965 10.6961 53.7372 10.8479 53.6449 10.9793C53.5525 11.1108 53.4299 11.2181 53.2873 11.2921C53.1447 11.3661 52.9864 11.4047 52.8257 11.4045C52.7666 11.4047 52.7076 11.3993 52.6495 11.3883L47.9707 10.5495C47.8415 10.5264 47.718 10.478 47.6074 10.4072C47.4969 10.3363 47.4013 10.2444 47.3263 10.1366C47.2513 10.0288 47.1982 9.90733 47.1701 9.77904C47.142 9.65075 47.1395 9.51819 47.1626 9.38892C47.1858 9.25965 47.2341 9.13621 47.305 9.02563C47.3758 8.91506 47.4678 8.81953 47.5756 8.74449C47.6833 8.66945 47.8048 8.61637 47.9331 8.58828C48.0614 8.56019 48.194 8.55765 48.3232 8.5808L49.3582 8.76705C44.4833 5.12745 38.5876 3.11245 32.5049 3.00703C26.4221 2.9016 20.4601 4.71107 15.462 8.17955C15.2442 8.33024 14.9756 8.38842 14.715 8.34131C14.4545 8.29421 14.2232 8.14568 14.072 7.9283ZM3.85449 39.0008C3.9176 39.2577 3.87635 39.5291 3.73976 39.7557C3.60318 39.9822 3.38239 40.1454 3.12574 40.2095C3.04658 40.2303 2.96508 40.2408 2.88324 40.2408C2.66008 40.2407 2.44336 40.1659 2.26759 40.0285C2.09181 39.891 1.96708 39.6986 1.91324 39.482C1.59341 38.1989 1.35585 36.8967 1.20199 35.5833C1.17502 35.3218 1.25207 35.0603 1.41647 34.8552C1.58087 34.6501 1.8194 34.518 2.08045 34.4875C2.34151 34.4569 2.6041 34.5304 2.81141 34.6919C3.01873 34.8535 3.1541 35.0902 3.18824 35.3508C3.33207 36.5805 3.55461 37.7996 3.85449 39.0008ZM1.00824 31.1083C1.04496 29.8635 1.15683 28.6221 1.34324 27.3908C1.36294 27.261 1.40802 27.1363 1.47591 27.0238C1.54379 26.9114 1.63316 26.8135 1.7389 26.7356C1.84465 26.6577 1.96469 26.6014 2.09219 26.5699C2.21969 26.5384 2.35215 26.5323 2.48199 26.552C2.61183 26.5717 2.73653 26.6168 2.84895 26.6847C2.96137 26.7526 3.05932 26.842 3.13721 26.9477C3.21509 27.0535 3.27139 27.1735 3.30288 27.301C3.33437 27.4285 3.34044 27.561 3.32074 27.6908C3.14637 28.8422 3.04159 30.003 3.00699 31.167C2.99919 31.427 2.8904 31.6737 2.7037 31.8548C2.517 32.0359 2.26709 32.1372 2.00699 32.137H1.97699C1.71218 32.1289 1.46143 32.016 1.27979 31.8231C1.09816 31.6302 1.0005 31.3731 1.00824 31.1083ZM5.58699 20.027C5.07633 21.1558 4.63836 22.3161 4.27574 23.5008C4.19706 23.7531 4.02172 23.964 3.78803 24.0874C3.55433 24.2108 3.28129 24.2367 3.02858 24.1594C2.77586 24.0821 2.56402 23.9079 2.43935 23.6748C2.31468 23.4418 2.28732 23.1689 2.36324 22.9158C2.75073 21.6489 3.21877 20.408 3.76449 19.2008C3.81858 19.0811 3.89571 18.9733 3.99147 18.8834C4.08724 18.7936 4.19976 18.7235 4.32263 18.6771C4.44549 18.6307 4.57629 18.609 4.70754 18.6132C4.8388 18.6173 4.96795 18.6473 5.08761 18.7014C5.20728 18.7555 5.31512 18.8326 5.40498 18.9284C5.49484 19.0242 5.56496 19.1367 5.61133 19.2596C5.6577 19.3824 5.67942 19.5132 5.67524 19.6445C5.67107 19.7757 5.64108 19.9049 5.58699 20.0245V20.027ZM60.147 25.0008C60.0828 24.7434 60.1236 24.471 60.2602 24.2436C60.3969 24.0162 60.6183 23.8524 60.8757 23.7883C61.1332 23.7241 61.4055 23.7649 61.6329 23.9016C61.8603 24.0382 62.0241 24.2596 62.0882 24.517C62.408 25.8002 62.6455 27.1024 62.7995 28.4158C62.8301 28.6788 62.7552 28.9432 62.5912 29.1511C62.4272 29.3589 62.1874 29.4932 61.9245 29.5245C61.8855 29.5295 61.8463 29.532 61.807 29.532C61.5622 29.5316 61.3262 29.4413 61.1435 29.2785C60.9608 29.1156 60.8442 28.8914 60.8157 28.6483C60.6715 27.4193 60.4481 26.201 60.147 25.0008ZM62.9932 32.8908C62.9565 34.1356 62.8446 35.377 62.6582 36.6083C62.6224 36.8446 62.5031 37.0603 62.3219 37.2162C62.1408 37.3721 61.9098 37.458 61.6707 37.4583C61.6201 37.4582 61.5696 37.4545 61.5195 37.447C61.3896 37.4274 61.2649 37.3823 61.1525 37.3144C61.0401 37.2465 60.9421 37.1571 60.8642 37.0514C60.7864 36.9457 60.7301 36.8256 60.6986 36.6981C60.6671 36.5706 60.661 36.4381 60.6807 36.3083C60.8571 35.1579 60.964 33.9978 61.0007 32.8345C61.0085 32.5693 61.1214 32.3181 61.3144 32.136C61.5074 31.954 61.7649 31.8561 62.0301 31.8639C62.2953 31.8717 62.5466 31.9845 62.7286 32.1776C62.9106 32.3706 63.0085 32.6281 63.0007 32.8933L62.9932 32.8908ZM57.7507 49.2745C56.87 50.5863 55.89 51.8287 54.8195 52.9908C54.7317 53.0915 54.6245 53.1737 54.5044 53.2323C54.3843 53.2909 54.2537 53.3249 54.1202 53.3322C53.9868 53.3395 53.8532 53.3199 53.7274 53.2747C53.6016 53.2295 53.4862 53.1596 53.3879 53.069C53.2897 52.9784 53.2105 52.869 53.1553 52.7473C53.1 52.6256 53.0696 52.4941 53.0661 52.3605C53.0625 52.2269 53.0857 52.0939 53.1344 51.9694C53.1831 51.845 53.2562 51.7315 53.3495 51.6358C54.3504 50.5489 55.2664 49.3867 56.0895 48.1595C56.1627 48.0505 56.2567 47.9569 56.3661 47.8841C56.4754 47.8114 56.5981 47.7609 56.727 47.7355C56.8559 47.7101 56.9885 47.7104 57.1173 47.7363C57.2461 47.7622 57.3685 47.8132 57.4776 47.8864C57.5867 47.9596 57.6803 48.0536 57.753 48.163C57.8258 48.2724 57.8763 48.395 57.9017 48.5239C57.927 48.6528 57.9268 48.7854 57.9009 48.9142C57.875 49.043 57.8239 49.1655 57.7507 49.2745ZM61.6395 41.0833C61.252 42.3502 60.784 43.5911 60.2382 44.7983C60.129 45.04 59.9282 45.2284 59.6801 45.322C59.432 45.4157 59.1568 45.4069 58.9151 45.2977C58.6734 45.1884 58.485 44.9877 58.3914 44.7395C58.2977 44.4914 58.3065 44.2162 58.4157 43.9745C58.926 42.8457 59.3635 41.6854 59.7257 40.5008C59.8044 40.2485 59.9798 40.0376 60.2135 39.9142C60.4471 39.7908 60.7202 39.7649 60.9729 39.8422C61.2256 39.9195 61.4375 40.0937 61.5621 40.3268C61.6868 40.5598 61.7142 40.8327 61.6382 41.0858L61.6395 41.0833ZM49.9295 56.0733C50.0807 56.291 50.1393 56.5598 50.0924 56.8207C50.0456 57.0815 49.897 57.3131 49.6795 57.4645C44.3277 61.1788 37.9421 63.1134 31.4287 62.9938C24.9154 62.8743 18.6051 60.7066 13.3932 56.7983L13.7295 57.7295C13.7968 57.9723 13.7699 58.2315 13.6544 58.4553C13.5388 58.6792 13.343 58.8511 13.1062 58.9369C12.8693 59.0226 12.6088 59.0158 12.3768 58.9178C12.1447 58.8198 11.9582 58.6379 11.8545 58.4083L10.232 53.937C10.1724 53.7719 10.1573 53.5939 10.1883 53.4211C10.2193 53.2483 10.2952 53.0866 10.4085 52.9525C10.5217 52.8183 10.6683 52.7163 10.8335 52.6568C10.9987 52.5972 11.1767 52.5822 11.3495 52.6133L16.0282 53.452C16.1575 53.4752 16.281 53.5236 16.3915 53.5944C16.5021 53.6653 16.5976 53.7572 16.6727 53.865C16.7477 53.9728 16.8008 54.0943 16.8289 54.2226C16.857 54.3508 16.8595 54.4834 16.8364 54.6127C16.8132 54.7419 16.7648 54.8654 16.694 54.976C16.6231 55.0865 16.5312 55.1821 16.4234 55.2571C16.3156 55.3321 16.1941 55.3852 16.0659 55.4133C15.9376 55.4414 15.805 55.4439 15.6757 55.4208L14.6407 55.2358C19.516 58.8747 25.4117 60.8891 31.4943 60.9943C37.577 61.0995 43.5388 59.2902 48.537 55.822C48.6449 55.747 48.7665 55.694 48.8949 55.6661C49.0233 55.6381 49.156 55.6357 49.2853 55.6591C49.4146 55.6824 49.5381 55.731 49.6486 55.8021C49.7592 55.8731 49.8546 55.9653 49.9295 56.0733Z" fill="white"/>
</svg>
