<svg width="64" height="64" viewBox="0 0 64 64" fill="none" xmlns="http://www.w3.org/2000/svg">
<g clip-path="url(#clip0_161_1617)">
<path d="M34.7737 48.5779C34.5889 48.4119 34.3421 48.3326 34.095 48.3591C33.4966 48.424 32.8929 48.4569 32.3004 48.4569C23.2271 48.4569 15.8455 41.0752 15.8455 32.002C15.8455 22.9287 23.2271 15.5472 32.3004 15.5472C32.8929 15.5472 33.4967 15.5801 34.095 15.645C34.342 15.6718 34.5889 15.5924 34.7737 15.4263C34.9586 15.2603 35.0644 15.0235 35.0644 14.7751V1.375C35.0644 0.89175 34.6726 0.5 34.1894 0.5H27.204C26.786 0.5 26.4264 0.795625 26.3455 1.20575L25.2217 6.9045L19.5679 9.24988L14.7406 6.01263C14.3932 5.77988 13.9301 5.82513 13.6345 6.12063L6.42348 13.3316C6.12786 13.6271 6.08261 14.0905 6.31548 14.4377L9.55261 19.265L7.20723 24.9189L1.50848 26.0425C1.09836 26.1234 0.802734 26.483 0.802734 26.901V37.099C0.802734 37.517 1.09836 37.8766 1.50848 37.9575L7.20723 39.0811L9.55261 44.735L6.31548 49.5622C6.08273 49.9094 6.12798 50.3727 6.42348 50.6684L13.6345 57.8794C13.93 58.1749 14.3932 58.2201 14.7406 57.9874L19.5679 54.7501L25.2217 57.0955L26.3455 62.7943C26.4264 63.2044 26.786 63.5 27.204 63.5H34.1894C34.6726 63.5 35.0644 63.1082 35.0644 62.625V49.229C35.0644 48.9805 34.9587 48.7437 34.7737 48.5779ZM33.3144 61.75H27.9234L26.8482 56.2975C26.7916 56.0104 26.5954 55.7706 26.325 55.6585L19.8054 52.954C19.5347 52.8417 19.226 52.8724 18.9827 53.0355L14.3635 56.1333L8.16973 49.9395L11.2675 45.3203C11.4306 45.077 11.4612 44.7681 11.349 44.4976L8.64448 37.9779C8.53236 37.7076 8.29261 37.5112 8.00548 37.4546L2.55298 36.3795V27.6201L8.00548 26.545C8.29261 26.4884 8.53236 26.2921 8.64448 26.0217L11.349 19.502C11.4612 19.2314 11.4306 18.9226 11.2675 18.6794L8.16973 14.0601L14.3635 7.86637L18.9827 10.9641C19.226 11.1272 19.5349 11.1579 19.8054 11.0456L26.325 8.34112C26.5952 8.229 26.7916 7.98925 26.8482 7.70213L27.9234 2.24962H33.3144V13.8256C32.9749 13.8068 32.6361 13.7971 32.3004 13.7971C22.2621 13.7971 14.0955 21.9638 14.0955 32.0019C14.0955 42.04 22.2621 50.2067 32.3004 50.2067C32.6361 50.2067 32.9749 50.1973 33.3144 50.1782V61.7499V61.75ZM63.1227 29.842C63.171 29.607 63.1962 29.3638 63.1962 29.1147C63.1962 27.8323 62.524 26.7044 61.514 26.063C62.0959 25.4214 62.4509 24.5705 62.4509 23.6381C62.4509 21.6459 60.83 20.0249 58.8376 20.0249H51.1875C51.6006 16.5755 52.1435 9.8725 49.2136 6.895C48.076 5.73887 46.5622 5.25813 44.7139 5.46575C43.6296 5.58763 42.852 6.53463 42.9436 7.622C43.7047 16.6575 41.612 20.2431 34.6901 21.4722C34.2647 20.8029 33.5186 20.3565 32.6685 20.3565H28.193C26.872 20.3565 25.7972 21.4312 25.7972 22.7524V41.2515C25.7972 42.5726 26.872 43.6474 28.193 43.6474H32.6685C33.6435 43.6474 34.4827 43.061 34.8564 42.2231C35.12 42.2443 35.3641 42.2705 35.5942 42.3006C35.6472 42.3076 35.7001 42.3146 35.7516 42.322C36.1412 42.3779 36.4896 42.4459 36.8175 42.5225C37.2932 42.6338 37.728 42.7629 38.1867 42.8997C38.9189 43.1181 39.6759 43.3439 40.711 43.5325C41.9156 43.7519 43.219 43.8345 44.5599 43.8345H44.5602C46.7727 43.8345 49.0869 43.6092 51.2229 43.4014C52.1186 43.3143 52.9651 43.2319 53.7759 43.1679H57.5962C59.4471 43.1679 60.953 41.6621 60.953 39.8111C60.953 39.0854 60.7207 38.4132 60.3276 37.8636C61.5044 37.3114 62.337 36.1434 62.4065 34.7767C62.4096 34.7152 62.4112 34.6534 62.4112 34.5911C62.4112 33.6666 62.0617 32.8224 61.4885 32.1826C62.3155 31.667 62.9204 30.8272 63.1225 29.842H63.1227ZM58.7982 36.4545H52.5621C51.5347 36.4545 50.6989 35.6186 50.6989 34.5913C50.6989 33.5639 51.5347 32.728 52.5621 32.728H58.7982C59.8256 32.728 60.6615 33.5639 60.6615 34.5913C60.6615 35.6186 59.8256 36.4545 58.7982 36.4545ZM61.4366 29.305C61.341 30.2434 60.5461 30.978 59.583 30.978H52.3435C51.3161 30.978 50.4802 30.1421 50.4802 29.1147C50.4802 28.0874 51.3161 27.2515 52.3435 27.2515H59.583C60.5462 27.2515 61.341 27.9861 61.4366 28.9245C61.443 28.987 61.4462 29.0505 61.4462 29.1147C61.4462 29.179 61.443 29.2424 61.4366 29.305ZM58.8376 21.775C59.865 21.775 60.7009 22.6109 60.7009 23.6383C60.7009 24.6656 59.865 25.5015 58.8376 25.5015H53.406C52.3786 25.5015 51.5427 24.6656 51.5427 23.6383C51.5427 22.6109 52.3786 21.775 53.406 21.775H58.8376ZM43.2745 18.2645C44.6765 15.8459 45.1124 12.5184 44.6875 7.47538C44.6762 7.34138 44.7757 7.22012 44.9094 7.205C46.2145 7.0585 47.2144 7.3585 47.9662 8.12263C50.6125 10.8119 49.6459 18.3207 49.3281 20.7882C49.3276 20.7922 49.3277 20.7961 49.3272 20.8001C49.3251 20.8186 49.324 20.8374 49.323 20.8563C49.3224 20.8684 49.3215 20.8805 49.3215 20.8926C49.3215 20.9094 49.3222 20.9263 49.3231 20.9433C49.3237 20.9571 49.3242 20.9711 49.3256 20.9849C49.326 20.9882 49.3259 20.9916 49.3262 20.9951C49.8821 26.0799 48.5892 28.6541 44.8637 29.8805C44.4047 30.0315 44.1551 30.5262 44.3062 30.9851C44.4274 31.3534 44.7696 31.5868 45.1371 31.5868C45.2279 31.5868 45.3201 31.5725 45.4109 31.5426C46.8435 31.0711 47.939 30.4247 48.7714 29.6593C48.9115 30.5824 49.4027 31.3913 50.1036 31.9468C49.394 32.6069 48.949 33.5479 48.949 34.5913C48.949 36.03 49.7945 37.2747 51.0146 37.8556C50.618 38.4067 50.3835 39.082 50.3835 39.8114C50.3835 40.4984 50.5912 41.1375 50.9469 41.6701C50.533 41.7104 50.1129 41.751 49.6881 41.7905C46.7356 42.0649 43.5787 42.276 41.025 41.811C40.0844 41.6398 39.3741 41.4279 38.6874 41.223C38.2702 41.0986 37.8602 40.9769 37.4169 40.8667C37.2974 40.8371 37.1764 40.808 37.0511 40.7803C37.0411 40.778 37.0305 40.776 37.0204 40.7738C36.5704 40.675 36.0755 40.5904 35.5011 40.5274C35.3606 40.512 35.2155 40.4978 35.0646 40.4851V23.1822C39.1465 22.4395 41.7667 20.866 43.2749 18.2644L43.2745 18.2645ZM33.3142 41.2516C33.3142 41.6077 33.0246 41.8975 32.6685 41.8975H28.193C27.8369 41.8975 27.5472 41.6077 27.5472 41.2516V22.7525C27.5472 22.3964 27.8369 22.1066 28.193 22.1066H32.6685C33.0246 22.1066 33.3142 22.3964 33.3142 22.7525V41.2516ZM57.5964 41.418H53.7399C52.854 41.418 52.1331 40.6973 52.1331 39.8112C52.1331 38.9252 52.8539 38.2045 53.7399 38.2045H57.5964C58.4822 38.2045 59.2031 38.9252 59.2031 39.8112C59.2031 40.6973 58.4824 41.418 57.5964 41.418ZM46.0954 46.4302C41.3892 46.4302 37.5604 50.259 37.5604 54.9651C37.5604 59.6712 41.3891 63.5001 46.0954 63.5001C50.8016 63.5001 54.6302 59.6714 54.6302 54.9651C54.6302 50.2589 50.8015 46.4302 46.0954 46.4302ZM46.0954 61.7501C42.3541 61.7501 39.3104 58.7064 39.3104 54.9651C39.3104 51.2239 42.3541 48.1802 46.0954 48.1802C49.8366 48.1802 52.8802 51.224 52.8802 54.9651C52.8802 58.7063 49.8365 61.7501 46.0954 61.7501ZM49.837 52.0184C50.1787 52.36 50.1787 52.9141 49.837 53.2557L45.181 57.9119C45.0159 58.077 44.7929 58.1681 44.5624 58.1681C44.5244 58.1681 44.4862 58.1656 44.4481 58.1606C44.1784 58.1251 43.9405 57.9663 43.8046 57.7306L42.2146 54.9767C41.973 54.5583 42.1164 54.0231 42.5349 53.7815C42.9532 53.5399 43.4885 53.6833 43.7301 54.1017L44.75 55.868L48.5996 52.0182C48.9412 51.6766 49.4954 51.6766 49.837 52.0182V52.0184Z" fill="white"/>
</g>
<defs>
<clipPath id="clip0_161_1617">
<rect width="64" height="64" fill="white"/>
</clipPath>
</defs>
</svg>
