<svg width="64" height="64" viewBox="0 0 64 64" fill="none" xmlns="http://www.w3.org/2000/svg">
<path d="M17 24C17 23.0111 16.7068 22.0444 16.1574 21.2222C15.6079 20.3999 14.827 19.759 13.9134 19.3806C12.9998 19.0022 11.9945 18.9031 11.0246 19.0961C10.0546 19.289 9.16373 19.7652 8.46447 20.4645C7.76521 21.1637 7.289 22.0546 7.09608 23.0246C6.90315 23.9945 7.00217 24.9998 7.3806 25.9134C7.75904 26.8271 8.39991 27.6079 9.22215 28.1574C10.0444 28.7068 11.0111 29 12 29C13.3261 29 14.5979 28.4732 15.5355 27.5355C16.4732 26.5979 17 25.3261 17 24ZM12 27C11.4067 27 10.8266 26.8241 10.3333 26.4944C9.83994 26.1648 9.45543 25.6962 9.22836 25.1481C9.0013 24.5999 8.94189 23.9967 9.05765 23.4147C9.1734 22.8328 9.45912 22.2982 9.87868 21.8787C10.2982 21.4591 10.8328 21.1734 11.4147 21.0576C11.9967 20.9419 12.5999 21.0013 13.1481 21.2284C13.6962 21.4554 14.1648 21.8399 14.4944 22.3333C14.8241 22.8266 15 23.4067 15 24C15 24.7957 14.6839 25.5587 14.1213 26.1213C13.5587 26.6839 12.7957 27 12 27Z" fill="white"/>
<path d="M2.58074 60.9094C2.71313 60.9677 2.85607 60.9983 3.00074 60.9994C3.23908 60.9994 3.4696 60.9143 3.65074 60.7594L10.6507 54.7594C10.7887 54.6425 10.8923 54.4904 10.9507 54.3194L12.5807 49.4194L14.0007 60.1294C14.0325 60.3715 14.1517 60.5936 14.3359 60.7538C14.5201 60.9141 14.7566 61.0014 15.0007 60.9994H18.0007C18.266 60.9994 18.5203 60.894 18.7078 60.7065C18.8954 60.5189 19.0007 60.2646 19.0007 59.9994V35.6194L26.4507 31.8894C26.579 31.8247 26.6919 31.7332 26.7816 31.621C26.8713 31.5089 26.9358 31.3787 26.9707 31.2394L27.9707 27.2394C28.0151 27.0625 28.0103 26.8769 27.9568 26.7027C27.9033 26.5284 27.8032 26.3721 27.6672 26.2506C27.5313 26.1291 27.3648 26.047 27.1856 26.0133C27.0065 25.9796 26.8215 25.9955 26.6507 26.0594L18.8207 28.9994H7.00074C6.20509 28.9994 5.44203 29.3154 4.87942 29.878C4.31681 30.4406 4.00074 31.2037 4.00074 31.9994V42.9994C4.00126 43.1698 4.04534 43.3373 4.1288 43.486C4.21227 43.6346 4.33234 43.7594 4.47762 43.8486C4.6229 43.9378 4.78857 43.9883 4.95888 43.9955C5.1292 44.0026 5.29851 43.9661 5.45074 43.8894L6.74074 43.2494L6.00074 49.6494L2.14074 55.4494C2.04194 55.6153 1.99331 55.8064 2.00074 55.9994V59.9994C2.00027 60.1906 2.05466 60.378 2.15746 60.5393C2.26026 60.7006 2.40716 60.829 2.58074 60.9094ZM4.00074 56.2994L7.83074 50.5494C7.92684 50.4211 7.98567 50.2689 8.00074 50.1094L8.89074 42.1794L9.46074 41.8894C9.62379 41.8049 9.76043 41.6772 9.85568 41.5202C9.95093 41.3632 10.0011 41.183 10.0007 40.9994V34.9994H8.00074V40.3794L6.00074 41.3794V31.9994C6.00074 31.7341 6.1061 31.4798 6.29363 31.2923C6.48117 31.1047 6.73552 30.9994 7.00074 30.9994H19.0007C19.1201 31.0004 19.2386 30.9801 19.3507 30.9394L25.5707 28.5994L25.1407 30.3094L17.5507 34.1094C17.3858 34.1925 17.2471 34.3196 17.1501 34.4767C17.053 34.6338 17.0013 34.8147 17.0007 34.9994V58.9994H15.8807L14.0007 44.8694C13.9718 44.6449 13.8676 44.4369 13.7052 44.2793C13.5427 44.1217 13.3316 44.0239 13.1064 44.0018C12.8812 43.9798 12.6551 44.0348 12.4652 44.1578C12.2752 44.2809 12.1326 44.4648 12.0607 44.6794L9.14074 53.4194L4.00074 57.8294V56.2994Z" fill="white"/>
<path d="M27 22H30C30.2652 22 30.5196 21.8946 30.7071 21.7071C30.8946 21.5196 31 21.2652 31 21V7C31 6.73478 30.8946 6.48043 30.7071 6.29289C30.5196 6.10536 30.2652 6 30 6H28C28 5.20435 27.6839 4.44129 27.1213 3.87868C26.5587 3.31607 25.7956 3 25 3C24.2044 3 23.4413 3.31607 22.8787 3.87868C22.3161 4.44129 22 5.20435 22 6H20C19.7348 6 19.4804 6.10536 19.2929 6.29289C19.1054 6.48043 19 6.73478 19 7V12C19 12.2652 19.1054 12.5196 19.2929 12.7071C19.4804 12.8946 19.7348 13 20 13H21C21.2652 13 21.5196 13.1054 21.7071 13.2929C21.8946 13.4804 22 13.7348 22 14C21.9982 14.133 21.9698 14.2643 21.9165 14.3862C21.8633 14.5082 21.7863 14.6182 21.69 14.71C21.6014 14.8035 21.4942 14.8776 21.3755 14.9275C21.2567 14.9774 21.1288 15.0021 21 15H20C19.7348 15 19.4804 15.1054 19.2929 15.2929C19.1054 15.4804 19 15.7348 19 16V21C19 21.2652 19.1054 21.5196 19.2929 21.7071C19.4804 21.8946 19.7348 22 20 22H23C23.2652 22 23.5196 21.8946 23.7071 21.7071C23.8946 21.5196 24 21.2652 24 21V20C24 19.7348 24.1054 19.4804 24.2929 19.2929C24.4804 19.1054 24.7348 19 25 19C25.133 19.0019 25.2643 19.0302 25.3862 19.0835C25.5082 19.1367 25.6182 19.2137 25.71 19.31C25.8035 19.3986 25.8776 19.5058 25.9275 19.6245C25.9774 19.7433 26.0021 19.8712 26 20V21C26 21.2652 26.1054 21.5196 26.2929 21.7071C26.4804 21.8946 26.7348 22 27 22ZM25 17C24.2044 17 23.4413 17.3161 22.8787 17.8787C22.3161 18.4413 22 19.2044 22 20H21V17C21.7956 17 22.5587 16.6839 23.1213 16.1213C23.6839 15.5587 24 14.7956 24 14C24 13.2044 23.6839 12.4413 23.1213 11.8787C22.5587 11.3161 21.7956 11 21 11V8H23C23.2652 8 23.5196 7.89464 23.7071 7.70711C23.8946 7.51957 24 7.26522 24 7V6C24 5.73478 24.1054 5.48043 24.2929 5.29289C24.4804 5.10536 24.7348 5 25 5C25.133 5.00185 25.2643 5.03022 25.3862 5.08345C25.5082 5.13668 25.6182 5.2137 25.71 5.31C25.8035 5.39865 25.8776 5.50576 25.9275 5.62454C25.9774 5.74332 26.0021 5.87117 26 6V7C26 7.26522 26.1054 7.51957 26.2929 7.70711C26.4804 7.89464 26.7348 8 27 8H29V20H28C28 19.2044 27.6839 18.4413 27.1213 17.8787C26.5587 17.3161 25.7956 17 25 17Z" fill="white"/>
<path d="M57 24C57 23.0111 56.7068 22.0444 56.1574 21.2222C55.6079 20.3999 54.8271 19.759 53.9134 19.3806C52.9998 19.0022 51.9945 18.9031 51.0245 19.0961C50.0546 19.289 49.1637 19.7652 48.4645 20.4645C47.7652 21.1637 47.289 22.0546 47.0961 23.0246C46.9031 23.9945 47.0022 24.9998 47.3806 25.9134C47.759 26.8271 48.3999 27.6079 49.2222 28.1574C50.0444 28.7068 51.0111 29 52 29C53.3261 29 54.5979 28.4732 55.5355 27.5355C56.4732 26.5979 57 25.3261 57 24ZM52 27C51.4067 27 50.8266 26.8241 50.3333 26.4944C49.8399 26.1648 49.4554 25.6962 49.2284 25.1481C49.0013 24.5999 48.9419 23.9967 49.0576 23.4147C49.1734 22.8328 49.4591 22.2982 49.8787 21.8787C50.2982 21.4591 50.8328 21.1734 51.4147 21.0576C51.9967 20.9419 52.5999 21.0013 53.1481 21.2284C53.6962 21.4554 54.1648 21.8399 54.4944 22.3333C54.8241 22.8266 55 23.4067 55 24C55 24.7957 54.6839 25.5587 54.1213 26.1213C53.5587 26.6839 52.7957 27 52 27Z" fill="white"/>
<path d="M58.0002 49.6508L57.2902 43.2508L58.5802 43.8908C58.7313 43.9607 58.8974 43.9919 59.0635 43.9814C59.2296 43.9709 59.3904 43.9191 59.5315 43.8307C59.6725 43.7423 59.7892 43.6201 59.8711 43.4752C59.9529 43.3303 59.9973 43.1672 60.0002 43.0008V32.0008C60.0002 31.2052 59.6842 30.4421 59.1216 29.8795C58.5589 29.3169 57.7959 29.0008 57.0002 29.0008H45.1802L37.3502 26.0608C37.178 25.9893 36.9892 25.9674 36.8051 25.9975C36.6211 26.0277 36.4491 26.1087 36.3087 26.2315C36.1683 26.3542 36.065 26.5138 36.0105 26.6921C35.9559 26.8705 35.9524 27.0605 36.0002 27.2408L37.0002 31.2408C37.0351 31.3801 37.0997 31.5103 37.1894 31.6225C37.2791 31.7347 37.392 31.8262 37.5202 31.8908L45.0002 35.6208V60.0008C45.0002 60.266 45.1056 60.5204 45.2931 60.7079C45.4807 60.8955 45.735 61.0008 46.0002 61.0008H49.0002C49.2444 61.0029 49.4809 60.9156 49.6651 60.7553C49.8493 60.595 49.9685 60.3729 50.0002 60.1308L51.4302 49.4208L53.0602 54.3208C53.1186 54.4919 53.2223 54.644 53.3602 54.7608L60.3602 60.7608C60.5388 60.9135 60.7653 60.9985 61.0002 61.0008C61.1449 60.9998 61.2878 60.9692 61.4202 60.9108C61.5938 60.8305 61.7407 60.7021 61.8435 60.5408C61.9463 60.3795 62.0007 60.1921 62.0002 60.0008V56.0008C61.9987 55.8048 61.9396 55.6135 61.8302 55.4508L58.0002 49.6508ZM60.0002 57.8308L54.8602 53.4208L52.0002 44.6808C51.9283 44.4662 51.7858 44.2824 51.5958 44.1593C51.4059 44.0362 51.1798 43.9812 50.9546 44.0033C50.7293 44.0253 50.5182 44.1232 50.3558 44.2807C50.1933 44.4383 50.0891 44.6463 50.0602 44.8708L48.1202 59.0008H47.0002V35.0008C46.9997 34.8161 46.948 34.6352 46.8509 34.4781C46.7538 34.3211 46.6152 34.1939 46.4502 34.1108L38.8602 30.3108L38.4302 28.6008L44.6502 30.9408C44.7624 30.9815 44.8809 31.0018 45.0002 31.0008H57.0002C57.2655 31.0008 57.5198 31.1062 57.7073 31.2937C57.8949 31.4812 58.0002 31.7356 58.0002 32.0008V41.3808L56.0002 40.3808V35.0008H54.0002V41.0008C54.0008 41.1855 54.0525 41.3664 54.1496 41.5235C54.2466 41.6806 54.3853 41.8077 54.5502 41.8908L55.1202 42.1808L56.0002 50.1108C56.0124 50.2693 56.0677 50.4215 56.1602 50.5508L60.0002 56.3008V57.8308Z" fill="white"/>
<path d="M43 13H44C44.2652 13 44.5196 12.8946 44.7071 12.7071C44.8946 12.5196 45 12.2652 45 12V7C45 6.73478 44.8946 6.48043 44.7071 6.29289C44.5196 6.10536 44.2652 6 44 6H42C42 5.20435 41.6839 4.44129 41.1213 3.87868C40.5587 3.31607 39.7956 3 39 3C38.2044 3 37.4413 3.31607 36.8787 3.87868C36.3161 4.44129 36 5.20435 36 6H34C33.7348 6 33.4804 6.10536 33.2929 6.29289C33.1054 6.48043 33 6.73478 33 7V21C33 21.2652 33.1054 21.5196 33.2929 21.7071C33.4804 21.8946 33.7348 22 34 22H37C37.2652 22 37.5196 21.8946 37.7071 21.7071C37.8946 21.5196 38 21.2652 38 21V20C38.0018 19.867 38.0302 19.7357 38.0835 19.6138C38.1367 19.4918 38.2137 19.3818 38.31 19.29C38.3987 19.1965 38.5058 19.1224 38.6245 19.0725C38.7433 19.0226 38.8712 18.9979 39 19C39.2652 19 39.5196 19.1054 39.7071 19.2929C39.8946 19.4804 40 19.7348 40 20V21C40 21.2652 40.1054 21.5196 40.2929 21.7071C40.4804 21.8946 40.7348 22 41 22H44C44.2652 22 44.5196 21.8946 44.7071 21.7071C44.8946 21.5196 45 21.2652 45 21V16C45 15.7348 44.8946 15.4804 44.7071 15.2929C44.5196 15.1054 44.2652 15 44 15H43C42.867 14.9982 42.7357 14.9698 42.6138 14.9165C42.4918 14.8633 42.3818 14.7863 42.29 14.69C42.1965 14.6013 42.1224 14.4942 42.0725 14.3755C42.0226 14.2567 41.9979 14.1288 42 14C42 13.7348 42.1054 13.4804 42.2929 13.2929C42.4804 13.1054 42.7348 13 43 13ZM40.87 16.11C41.1487 16.3917 41.4804 16.6153 41.846 16.7681C42.2116 16.9208 42.6038 16.9997 43 17V20H42C42 19.2044 41.6839 18.4413 41.1213 17.8787C40.5587 17.3161 39.7956 17 39 17C38.2044 17 37.4413 17.3161 36.8787 17.8787C36.3161 18.4413 36 19.2044 36 20H35V8H37C37.2652 8 37.5196 7.89464 37.7071 7.70711C37.8946 7.51957 38 7.26522 38 7V6C38.0018 5.86698 38.0302 5.73567 38.0835 5.61376C38.1367 5.49185 38.2137 5.38178 38.31 5.29C38.3987 5.1965 38.5058 5.12244 38.6245 5.07252C38.7433 5.0226 38.8712 4.9979 39 5C39.2652 5 39.5196 5.10536 39.7071 5.29289C39.8946 5.48043 40 5.73478 40 6V7C40 7.26522 40.1054 7.51957 40.2929 7.70711C40.4804 7.89464 40.7348 8 41 8H43V11C42.2044 11 41.4413 11.3161 40.8787 11.8787C40.3161 12.4413 40 13.2044 40 14C40.0007 14.7905 40.3133 15.5488 40.87 16.11Z" fill="white"/>
<path d="M27.9995 38H25.9995V38.83C26.0092 44.2144 23.9592 49.3985 20.2695 53.32L21.7295 54.68C25.7636 50.3891 28.0065 44.7194 27.9995 38.83V38Z" fill="white"/>
<path d="M28 34H26V36H28V34Z" fill="white"/>
<path d="M38 38H36V38.83C35.9931 44.7194 38.2359 50.3891 42.27 54.68L43.73 53.32C40.0404 49.3985 37.9903 44.2144 38 38.83V38Z" fill="white"/>
<path d="M38 34H36V36H38V34Z" fill="white"/>
</svg>
