<svg width="64" height="64" viewBox="0 0 64 64" fill="none" xmlns="http://www.w3.org/2000/svg">
<g clip-path="url(#clip0_161_1630)">
<path d="M31.8878 8.1325C32.583 8.1325 33.1467 7.56887 33.1467 6.87362V1.25888C33.1467 0.563625 32.583 0 31.8878 0C31.1925 0 30.6289 0.563625 30.6289 1.25888V6.87362C30.629 7.56887 31.1927 8.1325 31.8878 8.1325Z" fill="white"/>
<path d="M62.6596 43.2485L60.4357 41.0309C59.6446 40.2407 58.5902 39.8055 57.4667 39.8055C56.7483 39.8055 56.0587 39.9842 55.4476 40.3191L51.2568 36.1334L51.461 35.9295C53.1611 34.226 53.1605 31.4579 51.4608 29.7601C50.8535 29.1516 50.0956 28.7459 49.2695 28.5751C49.3832 28.1825 49.4431 27.7712 49.4431 27.3504C49.4431 26.181 48.9888 25.0845 48.1666 24.2656C47.5591 23.6571 46.8013 23.2514 45.9752 23.0806C46.089 22.688 46.1488 22.2769 46.1488 21.8559C46.1488 20.6864 45.6946 19.59 44.871 18.7699C44.249 18.1486 43.4843 17.7554 42.6814 17.588C43.111 16.1071 42.744 14.441 41.579 13.274C40.6092 12.3084 39.2933 11.8934 38.0252 12.0279L29.7208 10.456C28.4543 10.2157 26.8727 10.0569 25.8743 10.9675C25.8113 11.025 25.7471 11.0911 25.6838 11.1647C24.1358 10.6005 22.3303 10.9365 21.0907 12.1747C20.2683 12.9961 19.8153 14.0921 19.8153 15.2609C19.8153 15.6819 19.875 16.093 19.9886 16.4857C19.1633 16.6564 18.4065 17.0616 17.8011 17.6681C16.9771 18.4887 16.5227 19.5835 16.5218 20.7509C16.5215 21.1729 16.5813 21.5854 16.6956 21.9791C15.87 22.1494 15.1126 22.5539 14.5053 23.1604C13.6813 23.9835 13.2276 25.0801 13.2276 26.2482C13.2276 27.143 13.4947 27.9954 13.9897 28.7154C13.3647 28.9272 12.7922 29.2799 12.3128 29.7587C10.6116 31.4579 10.611 34.2261 12.314 35.9321L12.5173 36.1346L8.32608 40.3182C6.76845 39.5849 4.84933 39.8596 3.56395 41.1434L1.3387 43.3624C0.547203 44.1529 0.111453 45.2074 0.111328 46.3315C0.111328 47.4557 0.547203 48.5104 1.3387 49.301L4.11583 52.0747C4.6077 52.5661 5.40483 52.5656 5.89608 52.0737C6.38745 51.5819 6.38695 50.7847 5.89508 50.2935L3.11795 47.5197C2.8027 47.2049 2.62908 46.7829 2.62908 46.3316C2.62908 45.8805 2.8027 45.4586 3.1172 45.1445L5.34258 42.9254C5.89858 42.37 6.74958 42.2872 7.39583 42.6736C7.44133 42.742 7.49395 42.807 7.5542 42.8674C7.66208 42.9755 7.7852 43.0584 7.91595 43.119L20.6776 55.8619C20.7382 55.994 20.8215 56.1184 20.9301 56.2271C21.0358 56.333 21.1565 56.4149 21.2845 56.4751C21.5543 56.7802 21.7035 57.17 21.7035 57.5857C21.7035 58.037 21.5298 58.4589 21.2146 58.7737L18.9915 60.9942C18.3346 61.6482 17.2661 61.6481 16.6112 60.9962L13.8341 58.2189C13.3425 57.7272 12.5455 57.7272 12.0538 58.2189C11.5622 58.7105 11.5622 59.5075 12.0538 59.9991L14.833 62.7785C15.651 63.5931 16.7252 64.0002 17.8 64.0002C18.875 64.0002 19.9505 63.5925 20.7695 62.7771L22.994 60.5552C23.7855 59.7646 24.2213 58.7101 24.2213 57.5857C24.2213 56.7834 23.9982 56.0171 23.5833 55.3564L28.3003 50.6451C28.3053 50.64 28.3103 50.6349 28.3155 50.6297C28.8556 50.0714 30.3597 50.1759 31.8143 50.2769C32.8478 50.3487 34.0001 50.4286 35.1258 50.2989L40.2913 55.4582C39.9567 56.0684 39.7781 56.7571 39.7781 57.4744C39.7781 58.5975 40.214 59.6514 41.0055 60.442L43.2301 62.6639C44.0211 63.454 45.0755 63.8892 46.199 63.8892C47.3223 63.8892 48.3767 63.4541 49.1678 62.6639L62.6604 49.1876C63.452 48.3971 63.8878 47.3426 63.8878 46.2184C63.8877 45.0942 63.4518 44.0397 62.6596 43.2485ZM29.2521 12.9297L34.713 13.9634L31.4443 17.2307C30.9387 16.9877 30.2457 16.5345 29.4855 15.8072C28.4448 14.8117 27.7005 13.6624 27.6327 12.9455C27.6326 12.9451 27.6326 12.9447 27.6326 12.9444C27.6326 12.9442 27.6325 12.9441 27.6325 12.944C27.6276 12.8925 27.6263 12.8514 27.627 12.82C27.7916 12.78 28.2288 12.7356 29.2521 12.9297ZM22.8698 13.9561C23.5076 13.319 24.4983 13.2455 25.219 13.7335C25.6273 15.4457 27.088 16.9976 27.7451 17.6264C28.2321 18.0924 29.7947 19.4895 31.372 19.8735C31.5853 20.1794 31.7015 20.544 31.7015 20.9287C31.7015 21.4244 31.5108 21.8877 31.1635 22.2347C30.8171 22.5817 30.353 22.7727 29.8565 22.7727C29.3598 22.7727 28.8957 22.5817 28.5477 22.2331L28.5476 22.233L28.547 22.2324L22.8697 16.5654C22.5236 16.2197 22.333 15.7564 22.333 15.2609C22.3331 14.7652 22.5237 14.3019 22.8698 13.9561ZM19.5803 19.4495C19.9267 19.1026 20.3903 18.9115 20.8861 18.9115C21.3825 18.9115 21.8476 19.103 22.1962 19.4512L26.7677 24.0136C27.4876 24.7346 27.4876 25.9079 26.7702 26.6264C26.422 26.9732 25.9562 27.1642 25.4588 27.1642C24.9615 27.1642 24.4957 26.9732 24.149 26.6279L24.1488 26.6277L20.6807 23.1604C20.6753 23.155 20.6695 23.15 20.664 23.1445L19.579 22.06C19.2308 21.7122 19.0392 21.248 19.0396 20.7527C19.0401 20.2591 19.2311 19.7972 19.5803 19.4495ZM16.2846 24.9417C16.6312 24.5956 17.0958 24.405 17.5931 24.405C18.0862 24.405 18.5468 24.5929 18.892 24.933L22.3707 28.4101C22.7176 28.7556 22.9087 29.2185 22.9087 29.7135C22.9087 30.2084 22.7176 30.6712 22.3693 31.0181C22.0228 31.3641 21.5587 31.5547 21.0623 31.5547C20.5652 31.5547 20.0996 31.3636 19.7526 31.0181L18.4915 29.7585C18.4912 29.7581 18.4908 29.7579 18.4906 29.7576L16.2847 27.5544C15.937 27.207 15.7455 26.743 15.7455 26.248C15.7455 25.7531 15.937 25.289 16.2846 24.9417ZM14.0921 31.54C14.4402 31.1922 14.9055 31.0007 15.4021 31.0007C15.8986 31.0007 16.3637 31.1921 16.7117 31.5396L17.9746 32.801C18.3216 33.1465 18.5126 33.6094 18.5126 34.1044C18.5126 34.5994 18.3215 35.0621 17.972 35.4104C17.6256 35.7572 17.1615 35.9484 16.665 35.9484C16.1683 35.9484 15.7042 35.7574 15.3553 35.4079L15.1972 35.2504C15.1951 35.2482 15.1935 35.246 15.1915 35.244C15.1891 35.2417 15.1866 35.2397 15.1842 35.2375L14.0933 34.1509C13.3735 33.4295 13.3728 32.2584 14.0921 31.54ZM39.7463 45.8472C39.255 45.3552 38.4578 45.3549 37.9661 45.8461L36.8461 46.9647C35.7818 48.029 33.8535 47.895 31.9886 47.7656C29.9635 47.6249 27.8693 47.4796 26.5142 48.8709L21.8773 53.5021L10.282 41.9237L14.3855 37.8276C15.0637 38.2434 15.8463 38.4662 16.6652 38.4662C17.8351 38.4662 18.9321 38.0127 19.7515 37.1919C20.5763 36.3704 21.0307 35.274 21.0307 34.1045C21.0307 34.0936 21.03 34.0829 21.03 34.072C21.0408 34.0721 21.0517 34.0727 21.0626 34.0727C22.2308 34.0727 23.327 33.6206 24.1475 32.8011C24.9723 31.9796 25.4267 30.8831 25.4267 29.7137C25.4267 29.7029 25.426 29.6921 25.426 29.6812C25.437 29.6812 25.448 29.682 25.4591 29.682C26.627 29.682 27.7237 29.2304 28.5497 28.4077C29.4072 27.5489 29.8313 26.4181 29.8232 25.2897C29.8345 25.2899 29.8457 25.2905 29.857 25.2905C31.0268 25.2904 32.1237 24.837 32.9443 24.0149C33.7667 23.1935 34.2197 22.0975 34.2197 20.9287C34.2197 20.1114 33.9975 19.33 33.5831 18.6531L37.1797 15.058C37.4477 14.7911 37.7782 14.6236 38.1246 14.5545C38.1621 14.5505 38.1991 14.5445 38.2357 14.5372C38.7915 14.4606 39.3751 14.6321 39.8001 15.0554C40.52 15.7765 40.52 16.9497 39.8027 17.6682L38.7073 18.7591C38.7037 18.7627 38.6998 18.766 38.6962 18.7696L37.4346 20.0291C36.9426 20.5204 36.9421 21.3175 37.4335 21.8094C37.925 22.3014 38.722 22.3017 39.2137 21.8105L40.3134 20.7122C40.3137 20.712 40.3139 20.7117 40.3142 20.7115L40.4804 20.5459C41.2023 19.8306 42.3718 19.8321 43.093 20.5522C43.44 20.8977 43.6311 21.3606 43.6311 21.8556C43.6311 22.3505 43.44 22.8134 43.0902 23.1616L41.9886 24.2655C41.9884 24.2656 41.9883 24.2657 41.9882 24.266L40.7267 25.5224C40.2341 26.013 40.2325 26.8101 40.7231 27.3026C41.2137 27.7952 42.0107 27.7967 42.5033 27.3062L43.7706 26.0441C44.117 25.6971 44.5811 25.5061 45.0776 25.5061C45.5742 25.5061 46.0385 25.6971 46.3873 26.0466C46.7343 26.3922 46.9253 26.8551 46.9253 27.3501C46.9253 27.845 46.7343 28.3079 46.3853 28.6554L44.1891 30.8525C43.6976 31.3442 43.6977 32.1412 44.1893 32.6327C44.4352 32.8785 44.7572 33.0012 45.0793 33.0012C45.4016 33.0012 45.7238 32.8782 45.9696 32.6324L47.046 31.5556C47.0521 31.5497 47.0587 31.5446 47.0648 31.5385C47.4112 31.1915 47.8753 31.0005 48.3718 31.0005C48.8685 31.0005 49.3326 31.1915 49.6802 31.5397C50.3993 32.2581 50.3987 33.4294 49.6802 34.1491L48.5858 35.2422C48.5855 35.2426 48.5849 35.243 48.5846 35.2434C48.5842 35.2437 48.5838 35.2442 48.5835 35.2446L46.8465 36.9795C46.3546 37.4709 46.3541 38.268 46.8453 38.7599C47.0912 39.006 47.4137 39.1291 47.7361 39.1291C48.058 39.1291 48.38 39.0064 48.6257 38.761L49.4753 37.9124L53.5475 41.9797L41.9531 53.56L37.7988 49.4107C38.0885 49.2245 38.3656 49.0055 38.6257 48.7454L39.7451 47.6274C40.2372 47.1362 40.2377 46.3391 39.7463 45.8472ZM60.8811 47.4062L47.3885 60.8825C47.0728 61.1977 46.6503 61.3714 46.1988 61.3714C45.7473 61.3714 45.3248 61.1977 45.0091 60.8824L42.7845 58.6605C42.4692 58.3457 42.2956 57.9245 42.2956 57.4744C42.2956 57.0244 42.4692 56.6031 42.7845 56.2882L56.2771 42.812C56.5928 42.4966 57.0152 42.323 57.4668 42.323C57.9183 42.323 58.3408 42.4966 58.6573 42.8127L60.8812 45.0304C61.1965 45.3452 61.3701 45.767 61.3701 46.2182C61.3699 46.6696 61.1963 47.0915 60.8811 47.4062Z" fill="white"/>
<path d="M15.1717 7.07189C15.4174 7.31714 15.7392 7.43964 16.0609 7.43964C16.3834 7.43964 16.7061 7.31639 16.9519 7.07002C17.4431 6.57789 17.4423 5.78089 16.9502 5.28977L12.3629 0.711641C11.8709 0.220516 11.0738 0.221141 10.5827 0.713391C10.0916 1.20552 10.0923 2.00252 10.5844 2.49364L15.1717 7.07189Z" fill="white"/>
<path d="M47.7159 7.43959C48.0377 7.43959 48.3597 7.31684 48.6055 7.07147L53.1893 2.49322C53.6811 2.00197 53.6816 1.20484 53.1903 0.712969C52.699 0.221094 51.902 0.220594 51.41 0.711969L46.8263 5.29022C46.3344 5.78147 46.3339 6.57859 46.8252 7.07047C47.0711 7.31659 47.3935 7.43959 47.7159 7.43959Z" fill="white"/>
<path d="M7.85333 54.1498C7.36595 54.6455 7.3727 55.4427 7.86858 55.93L7.8722 55.9335C8.11683 56.174 8.43445 56.2938 8.75195 56.2938C9.07783 56.2938 9.4037 56.1677 9.65058 55.9165C10.138 55.4208 10.1293 54.6219 9.63358 54.1345C9.13795 53.6472 8.34095 53.654 7.85333 54.1498Z" fill="white"/>
<path d="M42.8265 44.0343C43.018 44.0343 43.2123 43.9906 43.3946 43.8988C44.0154 43.5856 44.2648 42.8286 43.9518 42.2079C43.6386 41.5871 42.8815 41.3376 42.2609 41.6508L42.2539 41.6543C41.6331 41.9674 41.3873 42.7226 41.7003 43.3434C41.9213 43.7819 42.3658 44.0343 42.8265 44.0343Z" fill="white"/>
</g>
<defs>
<clipPath id="clip0_161_1630">
<rect width="64" height="64" fill="white"/>
</clipPath>
</defs>
</svg>
