<svg width="64" height="64" viewBox="0 0 64 64" fill="none" xmlns="http://www.w3.org/2000/svg">
<g clip-path="url(#clip0_161_1637)">
<path d="M50.7056 7.56075C51.1032 6.99625 50.9679 6.2165 50.4034 5.819C44.9975 2.01212 38.6334 0 31.9991 0C27.8461 0 23.805 0.78425 19.9879 2.33087C19.3481 2.59012 19.0396 3.319 19.2989 3.95875C19.558 4.5985 20.2865 4.90712 20.9267 4.64787C24.4442 3.22262 28.1694 2.5 31.9991 2.5C38.1154 2.5 43.9816 4.3545 48.964 7.863C49.1829 8.017 49.434 8.09112 49.6826 8.09112C50.0755 8.09112 50.4622 7.90637 50.7056 7.56075Z" fill="white"/>
<path d="M64.0008 32.0007C64.0008 25.6051 62.12 19.4316 58.5615 14.1476C58.1757 13.5749 57.3988 13.4235 56.8263 13.809C56.2537 14.1946 56.1021 14.9714 56.4877 15.544C59.7673 20.414 61.5008 26.1046 61.5008 32.0007C61.5008 38.2706 59.577 44.2146 55.9295 49.2559C55.3317 48.9841 54.669 48.8315 53.9707 48.8315C51.3516 48.8315 49.2207 50.9624 49.2207 53.5815C49.2207 56.2006 51.3516 58.3315 53.9707 58.3315C56.5898 58.3315 58.7207 56.2006 58.7207 53.5815C58.7207 52.5677 58.4005 51.6279 57.8572 50.8557C61.8788 45.3571 64.0008 38.8584 64.0008 32.0007ZM53.9707 55.8315C52.7301 55.8315 51.7207 54.8221 51.7207 53.5815C51.7207 52.3409 52.7301 51.3315 53.9707 51.3315C55.2113 51.3315 56.2207 52.3409 56.2207 53.5815C56.2207 54.8221 55.2113 55.8315 53.9707 55.8315Z" fill="white"/>
<path d="M43.0723 59.3527C39.555 60.778 35.8298 61.5007 32 61.5007C15.7336 61.5007 2.5 48.267 2.5 32.0007C2.5 25.7308 4.42387 19.7868 8.07137 14.7455C8.66912 15.0173 9.33187 15.1699 10.0301 15.1699C12.6493 15.1699 14.7801 13.039 14.7801 10.4199C14.7801 7.8008 12.6493 5.66992 10.0301 5.66992C7.411 5.66992 5.28013 7.8008 5.28013 10.4199C5.28013 11.4337 5.60037 12.3735 6.14362 13.1457C2.122 18.6443 0 25.143 0 32.0007C0 40.5482 3.32863 48.584 9.3725 54.628C15.4166 60.6722 23.4525 64.0007 32 64.0007C36.153 64.0007 40.1941 63.2164 44.0112 61.6698C44.651 61.4105 44.9595 60.6817 44.7002 60.0419C44.4409 59.4019 43.7119 59.0935 43.0723 59.3527ZM10.0301 8.16992C11.2708 8.16992 12.2801 9.1793 12.2801 10.4199C12.2801 11.6605 11.2708 12.6699 10.0301 12.6699C8.7895 12.6699 7.78013 11.6605 7.78013 10.4199C7.78013 9.1793 8.7895 8.16992 10.0301 8.16992Z" fill="white"/>
<path d="M31.9995 29.2207C29.3601 29.2207 27.2129 31.368 27.2129 34.0072C27.2129 35.1015 27.5776 36.1396 28.2495 36.9828V40.7156C28.2495 42.7833 29.9318 44.4656 31.9995 44.4656C34.0673 44.4656 35.7495 42.7833 35.7495 40.7156V36.9828C36.4214 36.1395 36.7861 35.1015 36.7861 34.0072C36.7861 31.368 34.6389 29.2207 31.9995 29.2207ZM33.6159 35.6245C33.3814 35.859 33.2495 36.177 33.2495 36.5086V40.7156C33.2495 41.4048 32.6888 41.9656 31.9995 41.9656C31.3103 41.9656 30.7495 41.4048 30.7495 40.7156V36.5086C30.7495 36.177 30.6176 35.8588 30.3831 35.6245C29.9509 35.1925 29.7129 34.6182 29.7129 34.0072C29.7129 32.7465 30.7386 31.7207 31.9995 31.7207C33.2604 31.7207 34.2861 32.7465 34.2861 34.0072C34.2861 34.6182 34.0481 35.1926 33.6159 35.6245Z" fill="white"/>
<path d="M43.4939 24.4531V21.8904C43.4939 15.5526 38.3377 10.3965 32 10.3965C25.6623 10.3965 20.5061 15.5526 20.5061 21.8904V24.4531C18.8877 25.142 17.75 26.7481 17.75 28.6151V45.0732C17.75 47.5661 19.7781 49.5942 22.2709 49.5942H41.7291C44.2219 49.5942 46.25 47.5661 46.25 45.0732V28.6151C46.25 26.7481 45.1122 25.142 43.4939 24.4531ZM23.0061 21.8904C23.0061 16.9311 27.0408 12.8965 32 12.8965C36.9592 12.8965 40.9939 16.9311 40.9939 21.8904V24.0942H38.3719V21.8904C38.3719 18.3769 35.5135 15.5185 31.9999 15.5185C28.4862 15.5185 25.6279 18.377 25.6279 21.8904V24.0942H23.0059V21.8904H23.0061ZM28.128 24.0942V21.8904C28.128 19.7554 29.865 18.0185 32 18.0185C34.135 18.0185 35.872 19.7554 35.872 21.8904V24.0942H28.128ZM43.75 45.0732C43.75 46.1876 42.8434 47.0942 41.7291 47.0942H22.2709C21.1566 47.0942 20.25 46.1876 20.25 45.0732V28.6151C20.25 27.5007 21.1566 26.5942 22.2709 26.5942H41.7291C42.8434 26.5942 43.75 27.5009 43.75 28.6151V45.0732Z" fill="white"/>
<path d="M53.9707 11.7351C54.2995 11.7351 54.622 11.6026 54.8545 11.3701C55.0868 11.1376 55.2207 10.8151 55.2207 10.4863C55.2207 10.1563 55.087 9.83383 54.8545 9.60133C54.622 9.36883 54.2993 9.23633 53.9707 9.23633C53.642 9.23633 53.3195 9.36883 53.087 9.60133C52.8546 9.83383 52.7207 10.1563 52.7207 10.4863C52.7207 10.8151 52.8545 11.1363 53.087 11.3701C53.3195 11.6026 53.642 11.7351 53.9707 11.7351Z" fill="white"/>
</g>
<defs>
<clipPath id="clip0_161_1637">
<rect width="64" height="64" fill="white"/>
</clipPath>
</defs>
</svg>
