<svg width="69" height="74" viewBox="0 0 69 74" fill="none" xmlns="http://www.w3.org/2000/svg">
<path d="M66.8956 43.6221H58.5962C57.9415 43.6221 57.4106 44.1595 57.4106 44.8225C57.4106 45.4854 57.9415 46.0229 58.5962 46.0229H64.033L43.183 67.1339L37.204 61.08C36.7534 60.6241 36.0275 60.6098 35.5599 61.0481L28.3941 67.7661L24.1743 63.4935C23.7113 63.0249 22.9607 63.0249 22.4976 63.4935C22.0346 63.9625 22.0346 64.7225 22.4976 65.1913L27.5242 70.2808C27.7552 70.5147 28.0587 70.6323 28.3627 70.6323C28.6514 70.6323 28.9405 70.5261 29.1681 70.3127L36.3339 63.5947L42.3446 69.6805C42.8077 70.1492 43.5582 70.1492 44.0214 69.6805L65.7099 47.7207V53.2255C65.7099 53.8885 66.2407 54.4259 66.8954 54.4259C67.5502 54.4259 68.081 53.8885 68.081 53.2255V44.8223C68.0812 44.1595 67.5503 43.6221 66.8956 43.6221Z" fill="#B6CCFF"/>
<path d="M24.8065 39.4202H33.6987H42.591C43.2457 39.4202 43.7765 38.8828 43.7765 38.2198V24.4146C43.7765 23.0907 42.7128 22.0137 41.4053 22.0137H34.8885C34.8995 22.0893 34.8987 22.1672 34.8841 22.245V19.6129C34.8841 18.289 33.8205 17.2119 32.513 17.2119H25.992C24.6845 17.2119 23.6208 18.289 23.6208 19.6129V28.6163H17.0998C15.7923 28.6163 14.7285 29.6934 14.7285 31.0173V38.22C14.7285 38.8829 15.2593 39.4204 15.9141 39.4204L24.8065 39.4202ZM34.8844 24.4146H41.4054V37.0194H34.8844V24.4146ZM25.9922 19.6127H32.5132V37.0193H25.9922V19.6127ZM17.0999 31.0171H23.6209V37.0194H17.0999V31.0171Z" fill="#B6CCFF"/>
<path d="M29.5494 51.4249C41.644 51.4249 51.4836 41.4622 51.4836 29.2164C51.4836 16.9707 41.644 7.00781 29.5494 7.00781C17.455 7.00781 7.61523 16.9705 7.61523 29.2164C7.61538 41.462 17.455 51.4249 29.5494 51.4249ZM29.5494 9.40875C40.3365 9.40875 49.1123 18.2944 49.1123 29.2164C49.1123 40.1383 40.3365 49.0239 29.5494 49.0239C18.7623 49.0239 9.98651 40.1383 9.98651 29.2164C9.98665 18.2944 18.7625 9.40875 29.5494 9.40875Z" fill="#B6CCFF"/>
<path d="M4.94693 72.5266C6.25075 73.289 7.67538 73.6511 9.08264 73.6509C11.9529 73.6506 14.7487 72.1437 16.2841 69.4509L23.2096 57.3057C25.2488 57.7772 27.3704 58.0273 29.5487 58.0273C45.239 58.0273 58.0038 45.1027 58.0038 29.2163C58.0038 13.3298 45.239 0.405273 29.5487 0.405273C13.8585 0.405273 1.09366 13.3298 1.09366 29.2163C1.09366 36.8358 4.03137 43.7728 8.81856 48.9304L1.90904 61.0477C-0.379011 65.0606 0.983734 70.2099 4.94693 72.5266ZM29.5487 2.80621C43.9315 2.80621 55.6326 14.6537 55.6326 29.2164C55.6326 43.779 43.9315 55.6265 29.5487 55.6265C15.166 55.6265 3.46479 43.779 3.46479 29.2164C3.46493 14.6537 15.166 2.80621 29.5487 2.80621ZM3.9627 62.2482L10.5692 50.6624C13.51 53.3333 17.001 55.394 20.8468 56.6476L14.2305 68.2505C12.5962 71.1166 8.96353 72.1025 6.13249 70.4476C3.30174 68.7927 2.32825 65.1145 3.9627 62.2482Z" fill="#B6CCFF"/>
</svg>
