<svg width="66" height="73" viewBox="0 0 66 73" fill="none" xmlns="http://www.w3.org/2000/svg">
<path d="M47.218 50.2648C46.1095 49.9573 44.9548 50.1134 43.9661 50.7043L33.7716 56.7989C33.6742 56.2992 33.4995 55.8126 33.2471 55.3559C32.6317 54.2418 31.6388 53.444 30.4514 53.1093L18.5354 49.7509C18.4884 49.7375 18.4406 49.7277 18.3923 49.721C16.5162 49.4642 14.8045 49.9374 13.3032 51.1279L10.4549 53.3865L10.4316 53.2962C10.3079 52.8177 10.011 52.4177 9.59567 52.1694C9.18022 51.9209 8.69698 51.8551 8.23538 51.9831L5.40005 52.7698C4.93804 52.8979 4.55172 53.2055 4.31187 53.6355C4.07216 54.0656 4.00845 54.566 4.13219 55.0441L8.2426 70.9295C8.36647 71.4079 8.66336 71.8079 9.07867 72.0563C9.35555 72.2218 9.66251 72.3062 9.97315 72.3062C10.1286 72.3062 10.2849 72.2852 10.4388 72.2423L13.2742 71.4557C14.2291 71.1908 14.7979 70.1707 14.5422 69.1813L14.4346 68.7659C16.0055 67.5909 17.4149 67.2805 19.1747 67.6983L26.0003 69.3186C26.6137 69.4642 27.2118 69.537 27.7932 69.537C29.0014 69.537 30.1368 69.2228 31.184 68.5966L48.2528 58.3925C50.2994 57.1689 51.0033 54.4488 49.8218 52.329C49.2511 51.3057 48.3264 50.5725 47.218 50.2648ZM10.2469 69.961L6.33563 54.8452L8.42745 54.2648L12.3389 69.3804L10.2469 69.961ZM47.1638 56.4397L30.0952 66.644C29.0209 67.2862 27.8407 67.4422 26.4871 67.1207L19.6617 65.5004C17.5376 64.9961 15.6934 65.2935 13.8398 66.4672L11.065 55.7437L14.6276 52.9185C15.6499 52.1078 16.7657 51.7903 18.0373 51.9477L29.8797 55.2854C30.5057 55.4619 31.0302 55.8846 31.3569 56.4757C31.6835 57.0668 31.7695 57.7493 31.5991 58.3976C31.2445 59.7466 29.896 60.5449 28.5936 60.178L22.2283 58.3839C21.648 58.2204 21.0497 58.5749 20.8917 59.1758C20.7336 59.7767 21.076 60.3964 21.6564 60.5599L28.0216 62.354C28.427 62.4683 28.8343 62.5227 29.2356 62.5227C31.0841 62.5226 32.7962 61.3645 33.5141 59.557L45.0552 52.6574C45.5397 52.3676 46.1076 52.2915 46.6543 52.4432C47.2008 52.5947 47.6558 52.9547 47.9356 53.4565C48.5169 54.4996 48.1707 55.8377 47.1638 56.4397ZM62.2402 35.6355C61.3356 35.6355 60.5047 35.9682 59.8554 36.5214L57.9218 35.1831V29.6949H59.0955C59.6969 29.6949 60.1845 29.19 60.1845 28.5673V24.0581C60.1845 23.4353 59.6969 22.9304 59.0955 22.9304H55.6011C55.0341 20.4797 54.1046 18.1576 52.8294 16.0061L55.3016 13.4462C55.7268 13.0057 55.7268 12.2919 55.3016 11.8514L49.1432 5.47422C48.7179 5.03415 48.0285 5.03401 47.6032 5.47422L45.1308 8.03427C43.052 6.71323 40.8098 5.75078 38.4438 5.16397V1.54562C38.4438 0.922875 37.9562 0.417969 37.3548 0.417969H28.6455C28.0441 0.417969 27.5565 0.922875 27.5565 1.54562V5.16397C25.1893 5.7512 22.947 6.71365 20.8692 8.03413L18.3969 5.47422C17.9718 5.03401 17.2822 5.03401 16.8571 5.47422L10.6984 11.8512C10.4941 12.0628 10.3793 12.3495 10.3793 12.6486C10.3793 12.9477 10.4941 13.2344 10.6984 13.446L13.1706 16.0058C11.8948 18.1583 10.9654 20.4802 10.3987 22.9304H6.9045C6.3031 22.9304 5.8155 23.4353 5.8155 24.0581V28.5673C5.8155 29.19 6.3031 29.6949 6.9045 29.6949H8.07816V35.1831L6.14465 36.5214C5.4952 35.9682 4.6643 35.6355 3.75975 35.6355C1.68672 35.6355 0 37.3821 0 39.5287C0 41.6754 1.68672 43.4218 3.75975 43.4218C5.83279 43.4218 7.51951 41.6754 7.51951 39.5287C7.51951 39.1346 7.4622 38.7542 7.35656 38.3953L9.77236 36.7231C10.0747 36.514 10.2561 36.1623 10.2561 35.7858V29.6951H13.8815V37.0602L12.015 40.5885C11.7652 40.5342 11.5065 40.5051 11.2413 40.5051C9.16824 40.5051 7.48166 42.2516 7.48166 44.3982C7.48166 46.5449 9.16824 48.2914 11.2413 48.2914C13.3143 48.2914 15.0009 46.5449 15.0009 44.3982C15.0009 43.3387 14.5895 42.3771 13.924 41.6744L15.9257 37.8907C16.0137 37.7245 16.0595 37.5383 16.0595 37.3489V29.6951H16.8248C17.4262 29.6951 17.9138 29.1901 17.9138 28.5674C17.9138 19.9537 24.6815 12.9458 32.9999 12.9458C41.3184 12.9458 48.086 19.9537 48.086 28.5674C48.086 29.1901 48.5736 29.6951 49.175 29.6951H49.9405V37.3489C49.9405 37.5383 49.9865 37.7245 50.0743 37.8907L52.076 41.6744C51.4105 42.3771 50.9991 43.3387 50.9991 44.3982C50.9991 46.5449 52.6857 48.2914 54.7587 48.2914C56.8318 48.2914 58.5183 46.5449 58.5183 44.3982C58.5183 42.2516 56.8318 40.5051 54.7587 40.5051C54.4935 40.5051 54.2348 40.5342 53.985 40.5885L52.1185 37.0602V29.6951H55.7439V35.7858C55.7439 36.1623 55.9253 36.514 56.2276 36.7231L58.6434 38.3953C58.5378 38.7542 58.4805 39.1346 58.4805 39.5287C58.4805 41.6754 60.1672 43.4218 62.2402 43.4218C64.3133 43.4218 66 41.6754 66 39.5287C66 37.3821 64.3134 35.6355 62.2402 35.6355ZM3.75989 41.1665C2.88774 41.1665 2.17812 40.4319 2.17812 39.5287C2.17812 38.6256 2.88774 37.8908 3.75989 37.8908C4.63204 37.8908 5.34165 38.6256 5.34165 39.5287C5.34165 40.4319 4.63204 41.1665 3.75989 41.1665ZM11.2413 46.036C10.3691 46.036 9.65965 45.3012 9.65965 44.3981C9.65965 43.495 10.3691 42.7603 11.2413 42.7603C12.1134 42.7603 12.8229 43.495 12.8229 44.3981C12.8229 45.3012 12.1134 46.036 11.2413 46.036ZM56.3405 44.3981C56.3405 45.3012 55.631 46.036 54.7589 46.036C53.8867 46.036 53.1772 45.3012 53.1772 44.3981C53.1772 43.495 53.8867 42.7603 54.7589 42.7603C55.631 42.7603 56.3405 43.495 56.3405 44.3981ZM33.0001 10.6905C23.8461 10.6905 16.3333 18.1053 15.7699 27.4398H7.99349V25.1859H11.2744C11.7937 25.1859 12.2408 24.8061 12.3424 24.2785C12.8809 21.4812 13.9318 18.8559 15.4656 16.4757C15.7538 16.0285 15.697 15.4327 15.3298 15.0524L13.0083 12.6486L17.6269 7.86625L19.9485 10.2701C20.3155 10.6501 20.8909 10.7091 21.3231 10.4107C23.6203 8.82278 26.1556 7.73488 28.8584 7.17669C29.3676 7.07154 29.7344 6.60864 29.7344 6.07075V2.67327H36.2658V6.07089C36.2658 6.60864 36.6325 7.07168 37.1421 7.17683C39.8432 7.73432 42.3784 8.8225 44.6771 10.4109C45.1091 10.7095 45.6843 10.6506 46.0515 10.2704L48.3733 7.86639L52.9917 12.6489L50.6701 15.0528C50.303 15.4331 50.2462 16.0289 50.5344 16.4763C52.068 18.8554 53.1187 21.4805 53.6575 24.2788C53.759 24.8061 54.2061 25.186 54.7255 25.186H58.0066V27.4399H50.2303C49.6669 18.1052 42.154 10.6905 33.0001 10.6905ZM62.2402 41.1665C61.3681 41.1665 60.6585 40.4319 60.6585 39.5287C60.6585 38.6256 61.3681 37.8908 62.2402 37.8908C63.1124 37.8908 63.822 38.6256 63.822 39.5287C63.822 40.4319 63.1124 41.1665 62.2402 41.1665ZM32.0884 52.2377H33.9116C35.9296 52.2377 37.5714 50.5376 37.5714 48.4479V48.0451C38.5937 47.6023 39.3141 46.5564 39.3141 45.3393V42.1387C39.3141 41.5684 39.5641 41.1127 40.0373 40.8206C44.1874 38.26 46.7656 33.5647 46.7656 28.5673C46.7656 20.7075 40.5905 14.3133 33.0001 14.3133C25.4098 14.3133 19.2346 20.7075 19.2346 28.5673C19.2346 33.5649 21.8127 38.2601 25.9629 40.8208C26.4362 41.1125 26.6862 41.5684 26.6862 42.1387V45.3393C26.6862 46.5566 27.4066 47.6025 28.4289 48.0452V48.4481C28.4287 50.5377 30.0705 52.2377 32.0884 52.2377ZM28.8642 44.4504H37.1361V45.3393C37.1361 45.7124 36.8429 46.016 36.4824 46.016H29.5177C29.1574 46.016 28.8642 45.7125 28.8642 45.3393V44.4504ZM30.4487 31.3544C28.9449 30.8757 27.9786 30.0183 27.9786 29.2238C27.9786 28.5186 28.5326 27.9451 29.2136 27.9451C29.8947 27.9451 30.4486 28.5186 30.4486 29.2238V31.3544H30.4487ZM33.3733 42.1951H32.6268V33.9818C32.874 33.9899 33.1261 33.9899 33.3733 33.9818V42.1951ZM33.9116 49.9824H32.0884C31.2714 49.9824 30.6067 49.2939 30.6067 48.4479V48.2711H35.3933V48.4479C35.3934 49.2941 34.7286 49.9824 33.9116 49.9824ZM27.0776 38.8833C23.5833 36.7272 21.4126 32.7744 21.4126 28.5673C21.4126 21.951 26.6108 16.5686 33.0001 16.5686C39.3895 16.5686 44.5877 21.9512 44.5877 28.5673C44.5877 32.7744 42.4169 36.7272 38.9226 38.8832C37.7873 39.5836 37.1361 40.7701 37.1361 42.1387V42.1951H35.5513V33.691C38.2934 33.0233 40.1994 31.2979 40.1994 29.2238C40.1994 27.2751 38.6684 25.6898 36.7865 25.6898C34.9046 25.6898 33.3735 27.2751 33.3735 29.2238V31.7253C33.1275 31.7351 32.8728 31.7351 32.627 31.7253V29.2238C32.627 27.2751 31.096 25.6898 29.214 25.6898C27.3321 25.6898 25.801 27.2751 25.801 29.2238C25.801 31.298 27.707 33.0233 30.4491 33.691V42.1951H28.8645V42.1387C28.8642 40.7703 28.213 39.5837 27.0776 38.8833ZM35.5513 31.3544V29.2238C35.5513 28.5186 36.1053 27.9451 36.7864 27.9451C37.4674 27.9451 38.0213 28.5186 38.0213 29.2238C38.0213 30.0184 37.0551 30.8758 35.5513 31.3544Z" fill="#B6CCFF"/>
</svg>
